<!-- Generated by IcoMoon.io -->
<svg version="1.1" xmlns="http://www.w3.org/2000/svg" width="32" height="32" viewBox="0 0 32 32">
<path d="M8.256 0.1c-1.056 0.281-1.881 1.125-2.162 2.194-0.144 0.544-0.144 26.869 0 27.413 0.281 1.081 1.112 1.919 2.188 2.2 0.325 0.081 1.319 0.094 7.719 0.094s7.394-0.012 7.719-0.094c1.075-0.281 1.906-1.119 2.188-2.2 0.144-0.544 0.144-26.869 0-27.413-0.281-1.081-1.113-1.919-2.188-2.2-0.538-0.138-14.944-0.138-15.463 0.006zM11.063 2.9c0 0.825 0.012 0.913 0.144 1.1 0.075 0.112 0.219 0.269 0.313 0.338 0.175 0.131 0.213 0.131 4.481 0.131s4.306 0 4.481-0.131c0.094-0.069 0.238-0.225 0.319-0.338 0.125-0.188 0.137-0.275 0.137-1.106v-0.9l1.212 0.019c1.331 0.019 1.381 0.031 1.688 0.45l0.131 0.169v26.738l-0.131 0.169c-0.069 0.094-0.206 0.231-0.3 0.3-0.169 0.131-0.194 0.131-7.537 0.131s-7.369 0-7.537-0.131c-0.094-0.069-0.231-0.206-0.3-0.3l-0.131-0.169-0.019-13.2c-0.006-7.262 0-13.287 0.019-13.4 0.044-0.25 0.306-0.569 0.563-0.681 0.131-0.056 0.519-0.081 1.331-0.087h1.137v0.9zM18.938 2.25v0.25h-5.875v-0.5h5.875v0.25z"></path>
</svg>
