<!-- Generated by IcoMoon.io -->
<svg version="1.1" xmlns="http://www.w3.org/2000/svg" width="165" height="32" viewBox="0 0 165 32">
<title>bakinsky-dvir-logo-1</title>
<path fill="#91225a" opacity="0.8" d="M110.532 1.615c0.618-0.088 1.205 0.010 1.761 0.294 0.843 1.197 1.626 1.148 2.349-0.147 0.48-0.145 0.969-0.194 1.468-0.147-0.090 1.653-0.971 2.338-2.642 2.055-1.736 0.312-2.715-0.373-2.936-2.055z"></path>
<path fill="#922259" opacity="0.939" d="M153.394 2.789c-0.291 9.177-0.389 18.376-0.294 27.596 1.077 0 2.153 0 3.229 0 0.228-2.734 0.326-5.474 0.294-8.22 2.502 0.218 4.606-0.565 6.312-2.349 1.37-3.32 1.663-6.745 0.881-10.275-0.828-3.464-3.030-4.931-6.606-4.404 0.079-0.769-0.019-1.503-0.294-2.202-1.17-0.146-2.345-0.195-3.523-0.147zM156.917 8.367c1.084-0.155 2.013 0.138 2.789 0.881 1.346 2.836 1.346 5.674 0 8.514-0.747 0.788-1.677 1.082-2.789 0.881 0-3.425 0-6.85 0-10.275z"></path>
<path fill="#922259" opacity="0.949" d="M11.596 3.083c-0.154 0.648-0.545 1.089-1.174 1.321-3.228 0.147-6.457 0.196-9.688 0.147 0 0.979 0 1.957 0 2.936 0.489 0 0.979 0 1.468 0-0.049 4.992 0 9.983 0.147 14.972 2.668 0.338 5.359 0.387 8.073 0.147 1.78-0.312 2.905-1.339 3.376-3.083 1.721-6.59-0.774-9.77-7.486-9.541-0.232-0.807-0.232-1.639 0-2.495 1.862 0.049 3.721-0 5.578-0.147 0.767-0.188 1.452-0.53 2.055-1.028 2.045-2.954 1.262-4.030-2.349-3.229zM6.312 13.358c1.335-0.068 2.607 0.177 3.817 0.734 1.565 3.762 0.293 5.474-3.816 5.138 0-1.957 0-3.914 0-5.872z"></path>
<path fill="#922359" opacity="0.918" d="M130.789 3.083c-0.431 0.376-0.627 0.865-0.587 1.468-1.374-0.049-2.743 0-4.11 0.147-1.108 0.423-1.94 1.157-2.495 2.202-0.098 4.208-0.196 8.416-0.294 12.624-0.202 0.252-0.447 0.447-0.734 0.587-0.292 1.356-0.39 2.726-0.294 4.11 0.783 0 1.566 0 2.349 0 0-0.391 0-0.783 0-1.174 2.642 0 5.284 0 7.927 0-0.050 0.388 0.048 0.731 0.294 1.028 0.678 0.146 1.363 0.195 2.055 0.147 0.049-1.373-0-2.744-0.147-4.11-0.122-0.134-0.268-0.232-0.44-0.294-0.294-5.477-0.391-10.957-0.294-16.44-1.096 0.052-2.173-0.046-3.229-0.294zM129.028 7.193c0.391 0 0.783 0 1.174 0 0 4.208 0 8.416 0 12.624-1.077 0-2.153 0-3.229 0-0.049-3.818 0-7.634 0.147-11.45 0.526-0.625 1.162-1.016 1.908-1.174z"></path>
<path fill="#92235a" opacity="0.933" d="M136.073 3.083c-0.339 6.535-0.388 13.092-0.147 19.67 1.248 0.191 2.52 0.289 3.816 0.294 5.502 0.761 7.85-1.587 7.046-7.046-0.178-0.895-0.618-1.629-1.321-2.202 0.618-0.6 0.96-1.334 1.028-2.202 0.798-5.368-1.502-7.765-6.899-7.193-0.196-0.391-0.391-0.783-0.587-1.174-0.974-0.146-1.952-0.195-2.936-0.147zM139.303 7.193c3.473-0.686 4.794 0.684 3.963 4.11-0.137 0.42-0.381 0.763-0.734 1.028-1.072 0.146-2.148 0.195-3.229 0.147 0-1.761 0-3.523 0-5.284zM139.303 14.826c1.215-0.104 2.389 0.043 3.523 0.44 1.679 3.745 0.505 5.457-3.523 5.138 0-1.859 0-3.719 0-5.578z"></path>
<path fill="#922259" opacity="0.945" d="M71.486 4.257c-0.233 6.048-0.185 12.115 0.147 18.202 2.914 0.299 5.8 0.055 8.661-0.734 1.197-0.809 1.931-1.934 2.202-3.376 1.019-5.733-1.379-8.425-7.193-8.073-0.239-1.885-0.385-3.793-0.44-5.725-1.095-0.282-2.22-0.38-3.376-0.294zM74.716 13.358c1.737-0.115 3.254 0.374 4.55 1.468 0.688 3.666-0.829 5.134-4.55 4.404 0-1.957 0-3.914 0-5.872z"></path>
<path fill="#922359" opacity="0.942" d="M20.11 4.55c-2.4 0.834-3.867 2.498-4.404 4.991 1.19 0.095 2.365-0.003 3.523-0.294 0.341-1.074 1.075-1.662 2.202-1.761 1.412 0.338 1.95 1.17 1.615 2.495-1.388 0.080-2.758 0.276-4.11 0.587-1.622 0.448-2.65 1.476-3.083 3.083-1.387 7.669 1.598 10.409 8.954 8.22 3.132 1.978 4.159 1.097 3.083-2.642-0.537-0.529-0.879-1.165-1.028-1.908 0.337-2.374 0.386-4.772 0.147-7.193-0.43-4.111-2.729-5.97-6.899-5.578zM20.991 13.064c0.881 0 1.761 0 2.642 0 0.049 1.96-0 3.917-0.147 5.872-2.592 0.927-4.109-0.002-4.55-2.789 0.169-1.388 0.854-2.416 2.055-3.083z"></path>
<path fill="#922359" opacity="0.942" d="M29.505 4.55c1.174 0 2.349 0 3.523 0 0 2.544 0 5.089 0 7.633 0.715 0.054 1.351-0.142 1.908-0.587 0.098-1.468 0.196-2.936 0.294-4.404 0.148-1.033 0.686-1.767 1.615-2.202 1.053-0.325 2.129-0.472 3.229-0.44 0.048 1.081-0 2.157-0.147 3.229-0.587 0.196-0.978 0.587-1.174 1.174-0.098 1.272-0.196 2.544-0.294 3.816-0.203 0.791-0.643 1.428-1.321 1.908 1.379 2.61 2.553 5.301 3.523 8.073-1.253 0.087-2.476-0.011-3.67-0.294-1.114-2.324-2.141-4.672-3.083-7.046-0.294 0-0.587 0-0.881 0 0 2.446 0 4.893 0 7.339-1.174 0-2.349 0-3.523 0 0-6.067 0-12.135 0-18.202z"></path>
<path fill="#912359" opacity="0.962" d="M42.128 4.55c1.174 0 2.349 0 3.523 0 0 6.067 0 12.135 0 18.202-1.174 0-2.349 0-3.523 0 0-6.067 0-12.135 0-18.202z"></path>
<path fill="#922359" opacity="0.948" d="M47.706 4.55c1.174 0 2.349 0 3.523 0 0 2.74 0 5.48 0 8.22 0.783 0 1.566 0 2.349 0-0.049-2.546 0-5.091 0.147-7.633 1.126-0.554 2.349-0.75 3.67-0.587 0 6.067 0 12.135 0 18.202-1.253 0.087-2.476-0.011-3.67-0.294-0.147-2.151-0.196-4.304-0.147-6.459-0.783 0-1.566 0-2.349 0 0 2.251 0 4.502 0 6.752-1.253 0.087-2.476-0.011-3.67-0.294-0.241-5.991-0.192-11.96 0.147-17.908z"></path>
<path fill="#922359" opacity="0.93" d="M63.266 4.55c3.56-0.52 5.811 0.947 6.752 4.404-0.061 0.172-0.159 0.319-0.294 0.44-1.089 0.242-2.166 0.193-3.229-0.147-0.785-1.537-1.91-1.831-3.376-0.881-1.601 3.386-1.699 6.811-0.294 10.275 1.496 1.64 2.719 1.444 3.67-0.587 1.158-0.291 2.332-0.389 3.523-0.294-0.696 3.969-3.044 5.584-7.046 4.844-2.323-1.055-3.644-2.865-3.963-5.431-0.56-2.35-0.56-4.699 0-7.046 0.439-2.653 1.858-4.513 4.257-5.578z"></path>
<path fill="#922259" opacity="0.943" d="M84.404 4.55c1.174 0 2.349 0 3.523 0 0 2.544 0 5.089 0 7.633 0.842 0.122 1.478-0.172 1.908-0.881 0.040-1.785 0.236-3.547 0.587-5.284 1.285-1.142 2.802-1.631 4.55-1.468 0.048 1.081-0 2.157-0.147 3.229-0.444 0.222-0.836 0.516-1.174 0.881-0.062 1.682-0.257 3.346-0.587 4.991-0.343 0.343-0.685 0.685-1.028 1.028 1.375 2.612 2.55 5.303 3.523 8.073-1.287 0.096-2.559-0.002-3.817-0.294-1.029-2.45-2.203-4.798-3.523-7.046-0.293 2.439-0.391 4.885-0.294 7.339-1.253 0.087-2.476-0.011-3.67-0.294-0.241-5.991-0.192-11.96 0.147-17.908z"></path>
<path fill="#92235a" opacity="0.917" d="M97.028 4.55c1.174 0 2.349 0 3.523 0 0.176 3.127 0.371 6.258 0.587 9.395 0.675-0.333 1.311-0.725 1.908-1.174 0.147-2.738 0.196-5.478 0.147-8.22 1.253-0.087 2.476 0.011 3.67 0.294 0.196 5.872 0.196 11.743 0 17.615-1.194 0.283-2.417 0.381-3.67 0.294 0.049-2.155 0-4.308-0.147-6.459-0.661 0.355-1.297 0.746-1.908 1.174-0.244 1.655-0.39 3.319-0.44 4.991-1.194 0.283-2.417 0.381-3.67 0.294 0-6.067 0-12.135 0-18.202z"></path>
<path fill="#922259" opacity="0.914" d="M108.183 4.55c1.253-0.087 2.476 0.011 3.67 0.294 0.098 3.131 0.196 6.263 0.294 9.395 0.685-0.489 1.37-0.979 2.055-1.468 0.147-2.738 0.196-5.478 0.147-8.22 1.253-0.087 2.476 0.011 3.67 0.294 0.196 5.872 0.196 11.743 0 17.615-1.194 0.283-2.417 0.381-3.67 0.294 0.049-2.155 0-4.308-0.147-6.459-0.685 0.489-1.37 0.979-2.055 1.468-0.098 1.566-0.196 3.131-0.294 4.697-1.194 0.283-2.417 0.381-3.67 0.294 0-6.067 0-12.135 0-18.202z"></path>
<path fill="#912359" opacity="0.9" d="M148.11 4.55c1.253-0.087 2.476 0.011 3.67 0.294 0.196 5.872 0.196 11.743 0 17.615-1.194 0.283-2.417 0.381-3.67 0.294 0-6.067 0-12.135 0-18.202z"></path>
<path fill="#000" opacity="0.722" d="M2.202 25.101c0.881 0 1.761 0 2.642 0 0.178 2.061 0.472 2.159 0.881 0.294 0.881-0.391 1.761-0.391 2.642 0-0.602 0.895-1.384 1.58-2.349 2.055 0.964 0.475 1.747 1.16 2.349 2.055-0.881 0.391-1.761 0.391-2.642 0-0.192-0.474-0.339-0.963-0.44-1.468-0.132 0.593-0.377 1.131-0.734 1.615-0.881 0.196-1.761 0.196-2.642 0 0.691-0.984 1.572-1.767 2.642-2.349-1.325-0.201-2.108-0.935-2.349-2.202z"></path>
<path fill="#000" opacity="0.68" d="M8.954 25.101c0.547 0.895 1.232 1.678 2.055 2.349-0.841 0.598-1.477 1.381-1.908 2.349-0.403-0.992-1.039-1.824-1.908-2.495 0.974-0.435 1.561-1.169 1.761-2.202z"></path>
<path fill="#000" opacity="0.719" d="M10.128 25.101c0.881 0 1.761 0 2.642 0 0.178 2.061 0.472 2.159 0.881 0.294 0.881-0.391 1.761-0.391 2.642 0-0.602 0.895-1.384 1.58-2.349 2.055 0.964 0.475 1.747 1.16 2.349 2.055-0.881 0.391-1.761 0.391-2.642 0-0.38-1.864-0.674-1.766-0.881 0.294-3.59 0.229-3.688-0.505-0.294-2.202-0.812-0.431-1.546-0.969-2.202-1.615-0.142-0.278-0.191-0.572-0.147-0.881z"></path>
<path fill="#000" opacity="0.696" d="M16.881 25.101c0.547 0.895 1.232 1.678 2.055 2.349-0.841 0.598-1.477 1.381-1.908 2.349-0.403-0.992-1.039-1.824-1.908-2.495 1.046-0.384 1.633-1.118 1.761-2.202z"></path>
<path fill="#000" opacity="0.675" d="M18.349 25.101c0.806-0.092 1.589 0.006 2.349 0.294 0.192 0.474 0.339 0.963 0.44 1.468 0.246-0.543 0.49-1.081 0.734-1.615 2.776-0.567 3.167 0.020 1.174 1.761-0.513 0.138-1.002 0.334-1.468 0.587 1.299 0.256 2.278 0.941 2.936 2.055-0.82 0.457-1.701 0.555-2.642 0.294-0.244-0.533-0.488-1.071-0.734-1.615-0.247 1.579-1.176 2.117-2.789 1.615-0.293-0.614-0.098-1.103 0.587-1.468 0.678-0.548 1.461-0.842 2.349-0.881-1.39-0.221-2.467-0.905-3.229-2.055 0.163-0.112 0.261-0.259 0.294-0.44z"></path>
<path fill="#000" opacity="0.678" d="M26.275 25.101c0.806-0.092 1.589 0.006 2.349 0.294 0.192 0.474 0.339 0.963 0.44 1.468 0.568-1.771 1.694-2.211 3.376-1.321-2.181 2.539-4.334 2.539-6.459 0 0.163-0.112 0.261-0.259 0.294-0.44z"></path>
<path fill="#000" opacity="0.694" d="M34.495 25.101c1.338-0.254 2.219 0.236 2.642 1.468 0.697-1.462 1.773-1.805 3.229-1.028-2.181 2.539-4.334 2.539-6.459 0 0.269-0.082 0.464-0.229 0.587-0.44z"></path>
<path fill="#000" opacity="0.687" d="M65.908 25.101c0.789-0.048 1.572 0.001 2.349 0.147 0.173 0.443 0.369 0.884 0.587 1.321 0.687-1.505 1.763-1.848 3.229-1.028-0.713 0.909-1.594 1.594-2.642 2.055 1.17 0.337 2.050 1.022 2.642 2.055-0.836 0.507-1.717 0.556-2.642 0.147-0.391-1.566-0.783-1.566-1.174 0-0.925 0.409-1.806 0.36-2.642-0.147 0.803-1.284 1.978-1.969 3.523-2.055-1.523-0.077-2.698-0.762-3.523-2.055 0.163-0.112 0.261-0.259 0.294-0.44z"></path>
<path fill="#000" opacity="0.673" d="M73.835 25.101c0.789-0.048 1.572 0.001 2.349 0.147 0.173 0.443 0.369 0.884 0.587 1.321 0.687-1.505 1.763-1.848 3.229-1.028-2.125 2.539-4.278 2.539-6.459 0 0.163-0.112 0.261-0.259 0.294-0.44z"></path>
<path fill="#000" opacity="0.689" d="M82.349 25.101c0.595-0.048 1.182 0.001 1.761 0.147 0.243 0.533 0.488 1.071 0.734 1.615 0.034-1.208 0.671-1.795 1.908-1.761 1.464 0.262 1.562 0.8 0.294 1.615-2.209 1.253-4.068 0.862-5.578-1.174 0.363-0.068 0.657-0.215 0.881-0.44z"></path>
<path fill="#000" opacity="0.715" d="M90.569 25.101c0.499-0.047 0.988 0.002 1.468 0.147 0.243 0.533 0.488 1.071 0.734 1.615 0-1.174 0.587-1.761 1.761-1.761 1.55 0.204 1.697 0.742 0.44 1.615-2.209 1.253-4.068 0.862-5.578-1.174 0.457-0.062 0.849-0.208 1.174-0.44z"></path>
<path fill="#000" opacity="0.688" d="M114.055 25.101c0.692-0.048 1.377 0.001 2.055 0.147 0.243 0.533 0.488 1.071 0.734 1.615 0.034-1.208 0.671-1.795 1.908-1.761 1.464 0.262 1.562 0.8 0.294 1.615-2.095 1.232-3.857 0.889-5.284-1.028 0.107-0.201 0.204-0.396 0.294-0.587z"></path>
<path fill="#000" opacity="0.727" d="M122.569 25.101c0.499-0.047 0.988 0.002 1.468 0.147 0.243 0.533 0.488 1.071 0.734 1.615 0.574-1.623 1.601-2.014 3.083-1.174-1.915 2.203-3.921 2.301-6.018 0.294-0.049-0.098-0.098-0.196-0.147-0.294 0.324-0.198 0.617-0.394 0.881-0.587z"></path>
<path fill="#000" opacity="0.695" d="M25.101 25.395c0.517 0.86 1.202 1.594 2.055 2.202-0.956 0.466-1.592 1.2-1.908 2.202-0.432-0.968-1.068-1.751-1.908-2.349 0.805-0.511 1.392-1.196 1.761-2.055z"></path>
<path fill="#000" opacity="0.704" d="M33.028 25.395c0.517 0.86 1.202 1.594 2.055 2.202-0.956 0.466-1.592 1.2-1.908 2.202-0.399-0.95-1.035-1.684-1.908-2.202 0.762-0.613 1.349-1.346 1.761-2.202z"></path>
<path fill="#000" opacity="0.704" d="M40.954 25.395c0.517 0.86 1.202 1.594 2.055 2.202-0.873 0.518-1.509 1.252-1.908 2.202-0.399-0.95-1.035-1.684-1.908-2.202 0.864-0.521 1.451-1.255 1.761-2.202z"></path>
<path fill="#000" opacity="0.767" d="M41.835 25.688c0.823-0.334 1.704-0.383 2.642-0.147 0.391 1.37 0.783 1.37 1.174 0 2.733-0.585 3.124-0.095 1.174 1.468-2.040 0.861-3.703 0.421-4.991-1.321z"></path>
<path fill="#000" opacity="0.704" d="M48.881 25.395c0.517 0.86 1.202 1.594 2.055 2.202-0.847 0.553-1.483 1.287-1.908 2.202-0.399-0.95-1.035-1.684-1.908-2.202 0.901-0.479 1.488-1.213 1.761-2.202z"></path>
<path fill="#000" opacity="0.797" d="M50.055 25.395c0.902-0.093 1.783 0.005 2.642 0.294 0.249 0.56 0.347 1.147 0.294 1.761-1.411-0.114-2.389-0.799-2.936-2.055z"></path>
<path fill="#000" opacity="0.775" d="M53.578 25.395c0.902-0.093 1.783 0.005 2.642 0.294-0.623 1.192-1.601 1.779-2.936 1.761 0.051-0.693 0.149-1.378 0.294-2.055z"></path>
<path fill="#000" opacity="0.703" d="M56.807 25.395c0.615 0.858 1.398 1.592 2.349 2.202-0.938 0.497-1.623 1.231-2.055 2.202-0.417-0.859-1.005-1.593-1.761-2.202 0.805-0.554 1.294-1.288 1.468-2.202z"></path>
<path fill="#000" opacity="0.765" d="M57.982 25.395c0.902-0.093 1.783 0.005 2.642 0.294 0.249 0.56 0.347 1.147 0.294 1.761-1.469-0.004-2.448-0.689-2.936-2.055z"></path>
<path fill="#000" opacity="0.759" d="M61.505 25.395c0.983-0.048 1.962 0 2.936 0.147-0.76 1.206-1.837 1.842-3.229 1.908 0.051-0.693 0.149-1.378 0.294-2.055z"></path>
<path fill="#000" opacity="0.712" d="M65.028 25.395c0.417 0.956 1.102 1.69 2.055 2.202-0.938 0.497-1.623 1.231-2.055 2.202-0.417-0.859-1.005-1.593-1.761-2.202 0.762-0.613 1.349-1.346 1.761-2.202z"></path>
<path fill="#000" opacity="0.712" d="M72.661 25.395c0.617 0.764 1.301 1.498 2.055 2.202-0.873 0.518-1.509 1.252-1.908 2.202-0.324-1.009-0.961-1.743-1.908-2.202 0.864-0.521 1.451-1.255 1.761-2.202z"></path>
<path fill="#000" opacity="0.712" d="M80.587 25.395c0.617 0.764 1.301 1.498 2.055 2.202-0.847 0.553-1.483 1.287-1.908 2.202-0.324-1.009-0.961-1.743-1.908-2.202 0.901-0.479 1.488-1.213 1.761-2.202z"></path>
<path fill="#000" opacity="0.703" d="M88.514 25.395c0.6 0.749 1.285 1.483 2.055 2.202-0.757 0.609-1.344 1.343-1.761 2.202-0.432-0.97-1.117-1.704-2.055-2.202 0.974-0.435 1.561-1.169 1.761-2.202z"></path>
<path fill="#000" opacity="0.704" d="M96.44 25.395c0.6 0.749 1.285 1.483 2.055 2.202-0.757 0.609-1.344 1.343-1.761 2.202-0.432-0.97-1.117-1.704-2.055-2.202 0.974-0.435 1.561-1.169 1.761-2.202z"></path>
<path fill="#000" opacity="0.755" d="M97.615 25.395c0.886-0.048 1.767 0.001 2.642 0.147 0.349 1.724 0.642 1.675 0.881-0.147 0.984-0.048 1.962 0 2.936 0.147-1.51 2.036-3.369 2.427-5.578 1.174-0.482-0.331-0.775-0.772-0.881-1.321z"></path>
<path fill="#000" opacity="0.688" d="M104.661 25.395c0.515 0.876 1.2 1.61 2.055 2.202-0.847 0.553-1.483 1.287-1.908 2.202-0.526-0.821-1.163-1.555-1.908-2.202 0.864-0.521 1.451-1.255 1.761-2.202z"></path>
<path fill="#000" opacity="0.755" d="M105.541 25.395c0.886-0.048 1.767 0.001 2.642 0.147 0.393 1.72 0.687 1.671 0.881-0.147 0.984-0.048 1.962 0 2.936 0.147-1.497 2.035-3.356 2.427-5.578 1.174-0.482-0.331-0.775-0.772-0.881-1.321z"></path>
<path fill="#000" opacity="0.703" d="M112.587 25.395c0.41 0.949 1.094 1.683 2.055 2.202-0.847 0.553-1.483 1.287-1.908 2.202-0.526-0.821-1.163-1.555-1.908-2.202 0.901-0.479 1.488-1.213 1.761-2.202z"></path>
<path fill="#000" opacity="0.696" d="M120.514 25.395c0.557 0.753 1.242 1.438 2.055 2.055-0.703 0.702-1.29 1.485-1.761 2.349-0.432-0.97-1.117-1.704-2.055-2.202 0.974-0.435 1.561-1.169 1.761-2.202z"></path>
<path fill="#000" opacity="0.695" d="M128.44 25.395c0.653 0.754 1.338 1.537 2.055 2.349-0.801 0.507-1.388 1.192-1.761 2.055-0.432-0.97-1.117-1.704-2.055-2.202 0.974-0.435 1.561-1.169 1.761-2.202z"></path>
<path fill="#000" opacity="0.77" d="M129.615 25.395c0.881 0 1.761 0 2.642 0 0.207 2.060 0.501 2.158 0.881 0.294 0.881-0.391 1.761-0.391 2.642 0-1.298 1.742-2.962 2.183-4.991 1.321-0.577-0.426-0.968-0.964-1.174-1.615z"></path>
<path fill="#000" opacity="0.687" d="M136.367 25.395c0.644 0.728 1.328 1.462 2.055 2.202-0.747 0.601-1.334 1.335-1.761 2.202-0.474-0.866-1.061-1.649-1.761-2.349 0.836-0.444 1.326-1.129 1.468-2.055z"></path>
<path fill="#000" opacity="0.762" d="M137.541 25.395c0.902-0.093 1.783 0.005 2.642 0.294 0.249 0.56 0.347 1.147 0.294 1.761-1.469-0.004-2.448-0.689-2.936-2.055z"></path>
<path fill="#000" opacity="0.758" d="M141.064 25.395c0.902-0.093 1.783 0.005 2.642 0.294-0.623 1.192-1.601 1.779-2.936 1.761-0.015-0.705 0.083-1.39 0.294-2.055z"></path>
<path fill="#000" opacity="0.68" d="M144.294 25.395c0.644 0.728 1.328 1.462 2.055 2.202-0.747 0.601-1.334 1.335-1.761 2.202-0.427-0.867-1.014-1.601-1.761-2.202 0.784-0.539 1.274-1.273 1.468-2.202z"></path>
<path fill="#000" opacity="0.749" d="M145.468 25.688c0.823-0.334 1.704-0.383 2.642-0.147 0.513 1.699 0.904 1.699 1.174 0 0.897-0.241 1.777-0.192 2.642 0.147-1.555 1.895-3.415 2.238-5.578 1.028-0.333-0.336-0.627-0.679-0.881-1.028z"></path>
<path fill="#000" opacity="0.682" d="M28.037 27.743c1.908-0.317 3.376 0.319 4.404 1.908-0.82 0.457-1.701 0.555-2.642 0.294-0.243-0.533-0.488-1.071-0.734-1.615-0.102 0.504-0.248 0.994-0.44 1.468-0.86 0.289-1.74 0.387-2.642 0.294 0.264-1.145 0.949-1.928 2.055-2.349z"></path>
<path fill="#000" opacity="0.691" d="M35.963 27.743c1.908-0.317 3.376 0.319 4.404 1.908-0.836 0.507-1.717 0.556-2.642 0.147-0.391-1.566-0.783-1.566-1.174 0-3.227 0.449-3.423-0.237-0.587-2.055z"></path>
<path fill="#000" opacity="0.693" d="M43.89 27.743c1.908-0.317 3.376 0.319 4.404 1.908-0.836 0.507-1.717 0.556-2.642 0.147-0.391-1.566-0.783-1.566-1.174 0-3.227 0.449-3.423-0.237-0.587-2.055z"></path>
<path fill="#000" opacity="0.715" d="M52.11 27.743c0.294 0 0.587 0 0.881 0-0.022 0.794-0.12 1.577-0.294 2.349-0.881 0-1.761 0-2.642 0 0.264-1.145 0.949-1.928 2.055-2.349z"></path>
<path fill="#000" opacity="0.707" d="M53.284 27.743c1.599 0.036 2.578 0.818 2.936 2.349-2.131 0.599-3.11-0.183-2.936-2.349z"></path>
<path fill="#000" opacity="0.717" d="M60.037 27.743c0.294 0 0.587 0 0.881 0-0.022 0.794-0.12 1.577-0.294 2.349-0.881 0-1.761 0-2.642 0 0.264-1.145 0.949-1.928 2.055-2.349z"></path>
<path fill="#000" opacity="0.721" d="M61.211 27.743c1.603 0.040 2.582 0.823 2.936 2.349-2.131 0.599-3.11-0.183-2.936-2.349z"></path>
<path fill="#000" opacity="0.699" d="M75.596 27.743c1.908-0.317 3.376 0.319 4.404 1.908-0.836 0.507-1.717 0.556-2.642 0.147-0.391-1.566-0.783-1.566-1.174 0-3.268 0.407-3.464-0.278-0.587-2.055z"></path>
<path fill="#000" opacity="0.696" d="M83.523 27.743c1.842-0.301 3.309 0.286 4.404 1.761-0.061 0.172-0.159 0.319-0.294 0.44-1.613 0.502-2.542-0.036-2.789-1.615-0.246 0.543-0.491 1.082-0.734 1.615-0.941 0.261-1.822 0.164-2.642-0.294 0.583-0.775 1.268-1.411 2.055-1.908z"></path>
<path fill="#000" opacity="0.688" d="M91.45 27.743c1.26-0.137 2.434 0.108 3.523 0.734 0.619 0.371 0.912 0.909 0.881 1.615-0.902 0.093-1.783-0.005-2.642-0.294-0.192-0.474-0.339-0.963-0.44-1.468-0.246 0.543-0.491 1.082-0.734 1.615-0.897 0.241-1.777 0.192-2.642-0.147 0.601-0.797 1.286-1.482 2.055-2.055z"></path>
<path fill="#000" opacity="0.693" d="M99.67 27.743c1.955-0.344 3.423 0.341 4.404 2.055-0.865 0.339-1.746 0.388-2.642 0.147-0.243-0.533-0.488-1.071-0.734-1.615-0.102 0.504-0.248 0.994-0.44 1.468-0.86 0.289-1.74 0.387-2.642 0.294-0.044-0.309 0.005-0.602 0.147-0.881 0.683-0.46 1.319-0.949 1.908-1.468z"></path>
<path fill="#000" opacity="0.695" d="M107.596 27.743c1.955-0.344 3.423 0.341 4.404 2.055-0.865 0.339-1.746 0.388-2.642 0.147-0.422-1.572-0.814-1.621-1.174-0.147-3.227 0.449-3.423-0.237-0.587-2.055z"></path>
<path fill="#000" opacity="0.702" d="M115.523 27.743c1.728-0.34 3.147 0.15 4.257 1.468 0.181 0.279 0.132 0.523-0.147 0.734-0.777 0.146-1.56 0.195-2.349 0.147-0.183-2.274-0.575-2.323-1.174-0.147-0.941 0.261-1.822 0.164-2.642-0.294 0.654-0.705 1.34-1.341 2.055-1.908z"></path>
<path fill="#000" opacity="0.699" d="M123.45 27.743c1.26-0.137 2.434 0.108 3.523 0.734 0.619 0.371 0.912 0.909 0.881 1.615-0.881 0-1.761 0-2.642 0-0.183-2.274-0.575-2.323-1.174-0.147-0.941 0.261-1.822 0.164-2.642-0.294 0.654-0.705 1.34-1.341 2.055-1.908z"></path>
<path fill="#000" opacity="0.694" d="M131.376 27.743c0.391 0 0.783 0 1.174 0-0.012 2.346-1.088 2.982-3.229 1.908 0.654-0.705 1.34-1.341 2.055-1.908z"></path>
<path fill="#000" opacity="0.71" d="M132.844 27.743c1.603 0.040 2.582 0.823 2.936 2.349-0.881 0-1.761 0-2.642 0-0.174-0.771-0.272-1.554-0.294-2.349z"></path>
<path fill="#000" opacity="0.702" d="M139.596 27.743c0.294 0 0.587 0 0.881 0 0.041 2.295-1.036 2.98-3.229 2.055 0.615-0.911 1.398-1.596 2.349-2.055z"></path>
<path fill="#000" opacity="0.719" d="M140.771 27.743c1.575 0.096 2.554 0.878 2.936 2.349-0.881 0-1.761 0-2.642 0-0.174-0.771-0.272-1.554-0.294-2.349z"></path>
<path fill="#000" opacity="0.694" d="M147.523 27.743c1.977-0.332 3.445 0.353 4.404 2.055-0.881 0.391-1.761 0.391-2.642 0-0.451-1.525-0.842-1.476-1.174 0.147-0.897 0.241-1.777 0.192-2.642-0.147 0.601-0.797 1.286-1.482 2.055-2.055z"></path>
</svg>
