<!-- Generated by IcoMoon.io -->
<svg version="1.1" xmlns="http://www.w3.org/2000/svg" width="32" height="32" viewBox="0 0 32 32">
<title>barbequeCard</title>
<path d="M10.2 1.733c-0.2 0.6 0.067 1.933 0.733 2.933 0.6 1.067 0.867 2.4 0.6 3.067-0.267 0.8-0.2 1 0.333 0.667 1.067-0.667 1-2.467-0.2-4-0.533-0.733-0.867-1.867-0.6-2.533 0.467-1.467-0.267-1.6-0.867-0.133z"></path>
<path d="M14.867 1.733c-0.2 0.6 0.067 1.933 0.733 2.933 0.6 1.067 0.867 2.4 0.6 3.067-0.267 0.8-0.2 1 0.333 0.667 1.067-0.667 1-2.467-0.2-4-0.533-0.733-0.867-1.867-0.6-2.533 0.467-1.467-0.267-1.6-0.867-0.133z"></path>
<path d="M19.533 1.733c-0.2 0.6 0.067 1.933 0.733 2.933 0.6 1.067 0.867 2.4 0.6 3.067-0.267 0.8-0.2 1 0.333 0.667 1.067-0.667 1-2.467-0.2-4-0.533-0.733-0.867-1.867-0.6-2.533 0.467-1.467-0.267-1.6-0.867-0.133z"></path>
<path d="M8.467 11.067c-1 1-0.4 3.6 1.267 5.6l1.733 2.067-2.733 6c-2.733 5.933-3.6 8.667-1.667 5.067l1-1.8h15.867l1 1.8c1.933 3.6 1.067 0.867-1.667-5.067l-2.733-6 1.733-2.133c1.2-1.4 1.733-2.733 1.6-3.867l-0.2-1.733-7.4-0.2c-4-0.067-7.533 0.067-7.8 0.267zM23.333 13.267c0 0.733-0.933 2.2-2.067 3.333-2.933 3-7.6 3-10.533 0-1.133-1.133-2.067-2.6-2.067-3.333 0-1.2 0.533-1.267 7.333-1.267s7.333 0.067 7.333 1.267zM21.733 23.133l1.533 3.533h-7.333c-6.733 0-7.267-0.067-6.667-1.2 0.333-0.6 1.067-2.267 1.667-3.667l1-2.533 8.267 0.4 1.533 3.467z"></path>
</svg>
