<?xml version="1.0" encoding="UTF-8"?>
<!DOCTYPE svg PUBLIC "-//W3C//DTD SVG 1.1//EN" "http://www.w3.org/Graphics/SVG/1.1/DTD/svg11.dtd">
<svg xmlns="http://www.w3.org/2000/svg" version="1.1" width="512px" height="512px" style="shape-rendering:geometricPrecision; text-rendering:geometricPrecision; image-rendering:optimizeQuality; fill-rule:evenodd; clip-rule:evenodd" xmlns:xlink="http://www.w3.org/1999/xlink">
<linearGradient id="gradient1" x1="100%" y1="0%" x2="0%" y2="0%">
 <!-- <stop offset="0%" style="stop-color: #5e2000; stop-opacity: 1" />
    <stop offset="100%" style="stop-color: #5e2000; stop-opacity: .3" /> -->
         <stop offset="0%" style="stop-color: #450000; stop-opacity: .4" />
    <stop offset="100%" style="stop-color: #450000; stop-opacity: .4" />
  </linearGradient>
<path fill="url(#gradient1)" d="M 46.5,-0.5 C 70.8333,-0.5 95.1667,-0.5 119.5,-0.5C 122.758,0.920984 125.258,3.25432 127,6.5C 128.581,18.4422 128.915,30.4422 128,42.5C 127.129,46.9257 124.796,50.259 121,52.5C 120.333,71.8333 120.333,91.1667 121,110.5C 121.879,115.136 123.545,119.469 126,123.5C 138.236,138.412 148.902,154.412 158,171.5C 159.741,176.054 161.074,180.721 162,185.5C 162.667,288.5 162.667,391.5 162,494.5C 159.84,502.49 155.006,508.157 147.5,511.5C 104.833,511.5 62.1667,511.5 19.5,511.5C 12.4329,508.263 7.59958,502.93 5,495.5C 4.33333,391.833 4.33333,288.167 5,184.5C 6.59894,176.299 9.59894,168.633 14,161.5C 21.4461,150.387 29.2795,139.554 37.5,129C 49.7703,127.946 52.937,132.779 47,143.5C 35.4461,156.061 26.7794,170.395 21,186.5C 20.5002,195.16 20.3336,203.827 20.5,212.5C 62.5,212.5 104.5,212.5 146.5,212.5C 146.666,204.16 146.5,195.827 146,187.5C 142.781,175.728 137.447,165.061 130,155.5C 123.951,148.452 118.284,141.119 113,133.5C 110.092,128.449 107.758,123.116 106,117.5C 104.557,96.2119 104.057,74.8786 104.5,53.5C 90.5,53.5 76.5,53.5 62.5,53.5C 62.6666,71.1698 62.4999,88.8365 62,106.5C 58.7262,111.738 54.2262,112.904 48.5,110C 47.8742,109.25 47.3742,108.416 47,107.5C 46.6667,89.1667 46.3333,70.8333 46,52.5C 42.1722,50.6711 39.8389,47.6711 39,43.5C 38.3333,32.1667 38.3333,20.8333 39,9.5C 40.2133,5.13051 42.7133,1.79717 46.5,-0.5 Z M 54.5,14.5 C 73.8333,14.5 93.1667,14.5 112.5,14.5C 112.5,22.1667 112.5,29.8333 112.5,37.5C 93.1667,37.5 73.8333,37.5 54.5,37.5C 54.5,29.8333 54.5,22.1667 54.5,14.5 Z M 20.5,227.5 C 62.5,227.5 104.5,227.5 146.5,227.5C 146.5,231.167 146.5,234.833 146.5,238.5C 104.5,238.5 62.5,238.5 20.5,238.5C 20.5,234.833 20.5,231.167 20.5,227.5 Z M 20.5,254.5 C 62.5,254.5 104.5,254.5 146.5,254.5C 146.5,289.5 146.5,324.5 146.5,359.5C 104.5,359.5 62.5,359.5 20.5,359.5C 20.5,324.5 20.5,289.5 20.5,254.5 Z M 53.5,300.5 C 60.9687,302.104 62.6354,305.937 58.5,312C 51.316,314.654 48.1493,312.154 49,304.5C 50.3968,302.93 51.8968,301.596 53.5,300.5 Z M 82.5,300.5 C 89.0567,301.875 90.89,305.541 88,311.5C 82.6731,314.749 79.1731,313.415 77.5,307.5C 77.4971,303.798 79.1638,301.465 82.5,300.5 Z M 110.5,300.5 C 118.966,302.572 120.299,306.738 114.5,313C 109.706,313.895 106.706,311.895 105.5,307C 106.283,304.062 107.95,301.896 110.5,300.5 Z M 20.5,375.5 C 62.5,375.5 104.5,375.5 146.5,375.5C 146.5,379.167 146.5,382.833 146.5,386.5C 104.5,386.5 62.5,386.5 20.5,386.5C 20.5,382.833 20.5,379.167 20.5,375.5 Z M 20.5,402.5 C 62.5,402.5 104.5,402.5 146.5,402.5C 146.984,432.921 146.484,463.254 145,493.5C 143.829,494.893 142.329,495.727 140.5,496C 102.5,496.667 64.5,496.667 26.5,496C 24.1523,495.654 22.3189,494.487 21,492.5C 20.5,462.502 20.3334,432.502 20.5,402.5 Z"/>
<path fill="url(#gradient1)" d="M 318.5,511.5 C 276.833,511.5 235.167,511.5 193.5,511.5C 184.517,508.682 178.683,502.682 176,493.5C 175.333,449.167 175.333,404.833 176,360.5C 177.479,354.881 180.479,350.214 185,346.5C 185.833,320.16 185.667,293.827 184.5,267.5C 180.293,264.115 177.46,259.782 176,254.5C 175.333,224.5 175.333,194.5 176,164.5C 178.143,154.709 182.977,146.542 190.5,140C 197.541,136.576 203.708,132.076 209,126.5C 212.777,118.975 214.61,110.975 214.5,102.5C 208.148,100.98 204.315,96.9801 203,90.5C 202.333,84.1667 202.333,77.8333 203,71.5C 204.5,64.6667 208.667,60.5 215.5,59C 242.5,58.3333 269.5,58.3333 296.5,59C 302.891,60.3903 307.058,64.2236 309,70.5C 309.667,77.5 309.667,84.5 309,91.5C 307.243,97.4256 303.409,101.092 297.5,102.5C 296.734,114.651 300.734,124.818 309.5,133C 323.766,138.933 332.6,149.433 336,164.5C 336.667,194.5 336.667,224.5 336,254.5C 334.214,259.952 331.214,264.618 327,268.5C 326.333,294.5 326.333,320.5 327,346.5C 331.557,349.729 334.557,354.062 336,359.5C 336.667,404.167 336.667,448.833 336,493.5C 333.317,502.682 327.483,508.682 318.5,511.5 Z M 218.5,74.5 C 243.5,74.5 268.5,74.5 293.5,74.5C 293.5,78.8333 293.5,83.1667 293.5,87.5C 268.5,87.5 243.5,87.5 218.5,87.5C 218.5,83.1667 218.5,78.8333 218.5,74.5 Z M 230.5,103.5 C 247.5,103.5 264.5,103.5 281.5,103.5C 280.71,126.785 290.71,143.285 311.5,153C 319.408,161.23 322.408,171.063 320.5,182.5C 277.5,182.5 234.5,182.5 191.5,182.5C 189.592,171.063 192.592,161.23 200.5,153C 221.287,143.293 231.287,126.793 230.5,103.5 Z M 191.5,198.5 C 234.5,198.5 277.5,198.5 320.5,198.5C 320.5,202.833 320.5,207.167 320.5,211.5C 277.5,211.5 234.5,211.5 191.5,211.5C 191.5,207.167 191.5,202.833 191.5,198.5 Z M 191.5,227.5 C 234.5,227.5 277.5,227.5 320.5,227.5C 320.666,235.507 320.5,243.507 320,251.5C 319.535,252.931 318.701,254.097 317.5,255C 276.5,255.667 235.5,255.667 194.5,255C 193.789,253.745 192.956,252.579 192,251.5C 191.5,243.507 191.334,235.507 191.5,227.5 Z M 201.5,271.5 C 237.833,271.5 274.167,271.5 310.5,271.5C 310.5,295.167 310.5,318.833 310.5,342.5C 274.167,342.5 237.833,342.5 201.5,342.5C 201.5,318.833 201.5,295.167 201.5,271.5 Z M 195.5,358.5 C 235.835,358.333 276.168,358.5 316.5,359C 318.049,360.214 319.215,361.714 320,363.5C 320.5,371.159 320.666,378.826 320.5,386.5C 277.5,386.5 234.5,386.5 191.5,386.5C 191.334,378.826 191.5,371.159 192,363.5C 192.997,361.677 194.164,360.01 195.5,358.5 Z M 191.5,402.5 C 234.5,402.5 277.5,402.5 320.5,402.5C 320.5,407.167 320.5,411.833 320.5,416.5C 294.165,416.333 267.831,416.5 241.5,417C 235.806,422.862 236.473,427.862 243.5,432C 269.165,432.5 294.831,432.667 320.5,432.5C 320.667,451.836 320.5,471.17 320,490.5C 318.272,493.953 315.438,495.786 311.5,496C 274.5,496.667 237.5,496.667 200.5,496C 196.562,495.786 193.728,493.953 192,490.5C 191.5,471.17 191.333,451.836 191.5,432.5C 198.175,432.666 204.842,432.5 211.5,432C 215.666,431.015 217.666,428.348 217.5,424C 217.699,420.726 216.366,418.393 213.5,417C 206.174,416.5 198.841,416.334 191.5,416.5C 191.5,411.833 191.5,407.167 191.5,402.5 Z"/>
<path fill="url(#gradient1)" d="M 493.5,511.5 C 449.833,511.5 406.167,511.5 362.5,511.5C 354.897,508.387 350.397,502.721 349,494.5C 348.333,405.167 348.333,315.833 349,226.5C 350.001,220.166 353.335,215.499 359,212.5C 355.523,187.303 366.023,177.47 390.5,183C 394.715,187.958 394.381,192.625 389.5,197C 384.845,197.499 380.179,197.666 375.5,197.5C 375.5,201.833 375.5,206.167 375.5,210.5C 410.5,210.5 445.5,210.5 480.5,210.5C 480.5,206.167 480.5,201.833 480.5,197.5C 459.164,197.667 437.831,197.5 416.5,197C 409.599,191.58 409.933,186.58 417.5,182C 440.897,181.031 464.23,181.364 487.5,183C 490.937,184.105 493.437,186.272 495,189.5C 496.231,197.089 496.897,204.756 497,212.5C 501.452,214.955 504.452,218.621 506,223.5C 506.667,314.833 506.667,406.167 506,497.5C 504.074,504.255 499.907,508.922 493.5,511.5 Z M 366.5,226.5 C 407.543,226.172 448.543,226.506 489.5,227.5C 490.5,254.825 490.833,282.159 490.5,309.5C 482.16,309.666 473.827,309.5 465.5,309C 450.338,291.54 431.672,286.54 409.5,294C 401.76,297.54 395.093,302.54 389.5,309C 381.173,309.5 372.84,309.666 364.5,309.5C 364.333,282.498 364.5,255.498 365,228.5C 365.717,227.956 366.217,227.289 366.5,226.5 Z M 423.5,306.5 C 448.822,307.319 460.656,320.319 459,345.5C 453.271,363.226 441.104,371.392 422.5,370C 400.788,363.625 392.621,349.458 398,327.5C 402.822,315.829 411.322,308.829 423.5,306.5 Z M 364.5,325.5 C 370.206,325.171 375.872,325.505 381.5,326.5C 378.833,334.5 378.833,342.5 381.5,350.5C 375.872,351.495 370.206,351.829 364.5,351.5C 364.5,342.833 364.5,334.167 364.5,325.5 Z M 474.5,325.5 C 479.833,325.5 485.167,325.5 490.5,325.5C 490.5,334.167 490.5,342.833 490.5,351.5C 485.167,351.5 479.833,351.5 474.5,351.5C 475.833,342.833 475.833,334.167 474.5,325.5 Z M 364.5,367.5 C 372.84,367.334 381.173,367.5 389.5,368C 405.135,385.654 424.135,390.654 446.5,383C 453.951,379.61 460.285,374.777 465.5,368.5C 473.807,367.502 482.14,367.169 490.5,367.5C 490.5,400.833 490.5,434.167 490.5,467.5C 448.5,467.5 406.5,467.5 364.5,467.5C 364.5,434.167 364.5,400.833 364.5,367.5 Z M 364.5,483.5 C 406.5,483.5 448.5,483.5 490.5,483.5C 490.665,487.182 490.499,490.848 490,494.5C 488.933,495.191 487.766,495.691 486.5,496C 447.167,496.667 407.833,496.667 368.5,496C 366.667,495.5 365.5,494.333 365,492.5C 364.502,489.518 364.335,486.518 364.5,483.5 Z"/>
<path fill="url(#gradient1)" d="M 51.5,284.5 C 57.8958,284.343 63.7292,286.009 69,289.5C 78.4978,282.89 87.9978,282.89 97.5,289.5C 111.15,281.456 122.65,283.789 132,296.5C 137.679,312.64 132.512,323.473 116.5,329C 109.627,330.24 103.46,328.74 98,324.5C 88.295,331.16 78.6284,331.16 69,324.5C 56.4837,332.417 45.4837,330.751 36,319.5C 28.68,302.149 33.8467,290.482 51.5,284.5 Z M 53.5,300.5 C 51.8968,301.596 50.3968,302.93 49,304.5C 48.1493,312.154 51.316,314.654 58.5,312C 62.6354,305.937 60.9687,302.104 53.5,300.5 Z M 82.5,300.5 C 79.1638,301.465 77.4971,303.798 77.5,307.5C 79.1731,313.415 82.6731,314.749 88,311.5C 90.89,305.541 89.0567,301.875 82.5,300.5 Z M 110.5,300.5 C 107.95,301.896 106.283,304.062 105.5,307C 106.706,311.895 109.706,313.895 114.5,313C 120.299,306.738 118.966,302.572 110.5,300.5 Z"/>
<path fill="url(#gradient1)" d="M 234.5,287.5 C 248.837,287.333 263.171,287.5 277.5,288C 282.568,290.983 283.735,295.149 281,300.5C 279.829,301.893 278.329,302.727 276.5,303C 262.833,303.667 249.167,303.667 235.5,303C 229.859,300.416 228.359,296.249 231,290.5C 232.145,289.364 233.312,288.364 234.5,287.5 Z"/>
<path fill="url(#gradient1)" d="M 242.5,313.5 C 251.506,313.334 260.506,313.5 269.5,314C 273.861,316.226 275.361,319.726 274,324.5C 273.167,326.667 271.667,328.167 269.5,329C 260.5,329.667 251.5,329.667 242.5,329C 235.914,323.84 235.914,318.673 242.5,313.5 Z"/>
<path fill="url(#gradient1)" d="M 397.5,407.5 C 417.836,407.333 438.169,407.5 458.5,408C 462.277,410.955 463.443,414.788 462,419.5C 460.786,421.049 459.286,422.215 457.5,423C 437.833,423.667 418.167,423.667 398.5,423C 390.851,418.257 390.518,413.09 397.5,407.5 Z"/>
</svg>
