<!-- Generated by IcoMoon.io -->
<svg version="1.1" xmlns="http://www.w3.org/2000/svg" width="130" height="32" viewBox="0 0 130 32">
<path fill="red" d="M24.46 0.044c-0.78 0.11-2.236 0.471-3.281 0.809-5.127 1.663-11.388 4.98-16.235 8.614-2.943 2.2-4.943 4.223-4.943 4.995 0 0.265 0.206 0.765 0.441 1.067 0.14 0.177 0.419 0.375 0.721 0.522 0.552 0.272 0.375 0.265 3.619 0.206 1.346-0.029 1.582-0.015 2.185 0.125 2.148 0.508 3.538 1.692 4.421 3.774 0.287 0.669 0.537 1.53 0.633 2.17 0.029 0.162-0.015 0.75-0.103 1.324-0.162 1.17-0.184 1.67-0.066 1.898 0.206 0.397 0.706 0.787 1.015 0.787s0.478-0.655 0.559-2.17c0.081-1.449 1.096-6.76 1.957-10.225 0.655-2.634 1.64-5.834 1.898-6.15 0.169-0.213 0.088-0.515-0.184-0.655-0.154-0.088-0.199-0.081-0.368 0.081-0.927 0.868-2.097 4.473-3.855 11.932l-0.309 1.309-0.515-0.868c-1.383-2.31-2.773-3.516-4.951-4.289-1.126-0.397-1.883-0.515-3.693-0.566l-1.633-0.044 0.235-0.302c0.463-0.588 2.001-2.119 2.869-2.862 4.318-3.693 10.843-7.334 16.353-9.122 2.016-0.655 2.847-0.809 4.333-0.817 1.074-0.007 1.287 0.015 1.493 0.125 0.132 0.074 0.265 0.184 0.287 0.25 0.088 0.235-0.662 1.53-1.574 2.707-0.692 0.897-1.567 1.854-3.936 4.318-3.583 3.73-5.289 5.576-5.856 6.348-0.302 0.412-0.324 0.463-0.287 0.787 0.059 0.456 0.302 0.912 0.559 1.052 0.235 0.118 0.302 0.103 1.574-0.397 1.486-0.588 3.090-1.037 4.208-1.184 0.868-0.118 1.663-0.015 2.303 0.302l0.463 0.228-0.044 0.265c-0.081 0.456-0.515 1.265-1.030 1.905-0.53 0.655-1.714 1.795-2.442 2.339-0.405 0.302-0.478 0.331-0.618 0.25-0.405-0.213-1.633 0.096-2.979 0.75-1.339 0.647-3.119 1.935-3.435 2.479-0.125 0.221-0.132 0.28-0.052 0.581 0.11 0.375 0.478 0.794 0.846 0.949 0.714 0.294 2.575-0.427 4.929-1.913 1.471-0.927 2.604-1.795 3.502-2.692 1.618-1.604 2.185-2.759 2.111-4.281-0.044-0.912-0.235-1.317-0.927-1.986-0.537-0.515-0.839-0.655-1.648-0.758-0.596-0.074-1.927 0.088-3.060 0.375-0.552 0.14-1.008 0.235-1.023 0.221s0.706-0.78 1.604-1.707c5.069-5.238 6.937-7.643 7.423-9.549 0.28-1.096 0.169-1.883-0.36-2.582-0.478-0.633-0.728-0.728-1.92-0.743-0.544-0.007-1.089 0-1.214 0.015zM25.784 1.155c-1.596 0.132-2.501 0.294-3.965 0.728-1.089 0.324-3.134 1.081-4.451 1.648-0.544 0.243-1 0.427-1.015 0.412s0.331-0.184 0.765-0.375c3.538-1.552 6.628-2.457 8.298-2.442 0.368 0 0.53 0.015 0.368 0.029zM16.103 4.075c-0.074 0.066-2.567 1.295-2.567 1.258 0-0.044 2.435-1.28 2.531-1.28 0.037-0.007 0.052 0.007 0.037 0.022zM13.021 5.628c0 0.015-0.096 0.081-0.221 0.147-0.28 0.14-0.294 0.081-0.015-0.066 0.228-0.125 0.235-0.132 0.235-0.081zM8.166 8.57c0 0.015-0.147 0.132-0.331 0.257s-0.331 0.213-0.331 0.191c0-0.029 0.588-0.471 0.647-0.486 0.007 0 0.015 0.015 0.015 0.037zM7.43 9.078c0 0.022-0.11 0.103-0.235 0.191l-0.243 0.162 0.221-0.191c0.228-0.199 0.257-0.213 0.257-0.162zM6.841 9.512c-0.059 0.059-0.471 0.383-0.92 0.721-0.441 0.338-1.17 0.927-1.618 1.309-0.441 0.383-0.765 0.64-0.706 0.566 0.059-0.066 0.405-0.383 0.772-0.699 0.964-0.824 3.060-2.435 2.472-1.898zM2.862 12.851c-0.338 0.36-0.78 0.846-0.986 1.089-0.566 0.691-0.655 0.728-0.154 0.074 0.228-0.302 1.663-1.802 1.721-1.802 0.022 0-0.243 0.287-0.581 0.64zM21.377 15.345c-0.964 0.184-2.84 0.765-3.994 1.251-0.346 0.14-0.647 0.243-0.662 0.221-0.044-0.044 0.221-0.154 1.346-0.596 1.56-0.611 3.229-1.059 3.928-1.052 0.228 0 0.029 0.052-0.618 0.177zM22.79 21.149c-0.765 0.743-1.927 1.589-3.259 2.383-1.155 0.692-2.935 1.589-3.31 1.663-0.118 0.029 0.096-0.096 0.478-0.272 2.141-0.986 4.818-2.692 6.179-3.95 0.611-0.559 0.552-0.441-0.088 0.177zM19.605 21.767c-0.235 0.221-2.597 1.515-2.663 1.457-0.052-0.059 1.258-0.846 1.994-1.199 0.669-0.331 0.787-0.375 0.669-0.257z"></path>
<path fill="red" d="M54.488 2.545c-1.324 0.566-3.369 2.104-4.877 3.649-2.619 2.7-3.34 4.789-2.347 6.76 0.25 0.493 1 1.405 1.405 1.714 0.272 0.213 0.412 0.265 0.669 0.265 0.272 0 0.324-0.022 0.302-0.132-0.015-0.074-0.147-0.162-0.316-0.221-0.721-0.221-1.434-1.567-1.434-2.692 0-1.309 1.059-3.178 2.759-4.863 1.486-1.471 4.303-3.421 4.826-3.332 0.125 0.022 0.118 0.074-0.162 0.868-1.398 3.958-1.942 5.834-2.648 9.063-0.243 1.148-0.471 2.133-0.508 2.192-0.029 0.059-0.478 0.338-1 0.611-1.743 0.934-3.053 1.898-3.266 2.406-0.272 0.662 0.287 1.221 1.824 1.802 0.772 0.287 1.177 0.588 1.449 1.089 0.213 0.383 0.235 0.493 0.324 1.604 0.088 1.17 0.265 2.060 0.478 2.479 0.154 0.302 0.699 0.971 0.78 0.971 0.103 0 0.088-0.338-0.044-0.846-0.081-0.294-0.125-0.934-0.154-1.949-0.037-1.692 0.081-2.987 0.508-5.583l0.235-1.427 1.111-0.53c1.28-0.618 3.148-1.434 3.266-1.434 0.103 0 0.103 0.162-0.037 1.14-0.147 1.059-0.221 4.693-0.11 5.297 0.154 0.824 0.691 1.434 1.265 1.434 0.162 0 0.287-0.007 0.287-0.022 0-0.007-0.074-0.199-0.162-0.419-0.294-0.765-0.265-2.611 0.096-5.017 0.228-1.567 0.515-3.001 0.618-3.104 0.11-0.103 1.64-0.53 2.192-0.603 0.397-0.059 0.449-0.11 0.39-0.36-0.103-0.397-0.684-0.493-1.773-0.294-0.324 0.059-0.596 0.11-0.603 0.11-0.029 0 0.566-2.207 0.647-2.376 0.059-0.132 0.147-0.199 0.257-0.199 0.132 0 0.184-0.052 0.213-0.206 0.162-0.787 0.478-1.655 1.221-3.377l0.169-0.39-0.147-0.199c-0.235-0.316-0.611-0.537-0.905-0.537-0.228 0-0.309 0.044-0.515 0.309-0.743 0.956-1.971 4.105-2.516 6.437l-0.25 1.045-1.214 0.419c-0.669 0.228-1.626 0.574-2.126 0.772-0.508 0.199-0.934 0.346-0.949 0.324-0.088-0.088 0.574-2.611 1.751-6.657 0.964-3.296 1.103-3.869 1.103-4.451 0-0.559-0.235-1.074-0.647-1.457-0.265-0.235-0.353-0.272-0.662-0.272-0.199 0.007-0.522 0.081-0.772 0.191zM54.474 3.811c-1.479 0.765-3.134 2.060-4.568 3.56-0.39 0.419-0.611 0.618-0.478 0.449 0.566-0.743 2.553-2.516 3.759-3.354 0.611-0.427 1.817-1.074 1.986-1.074 0.059 0-0.257 0.184-0.699 0.419zM59.807 11.733c-0.199 0.691-0.36 1.199-0.36 1.14-0.007-0.199 0.64-2.464 0.691-2.413 0.015 0.015-0.132 0.588-0.331 1.273zM59.123 14.654c-0.022 0.059-0.044 0.037-0.044-0.044-0.007-0.081 0.015-0.125 0.037-0.096 0.022 0.022 0.029 0.088 0.007 0.14zM59.049 15.022c-0.022 0.052-0.037 0.015-0.037-0.088s0.015-0.14 0.037-0.096c0.015 0.052 0.015 0.14 0 0.184zM56.864 15.036c0 0.015-0.272 0.132-0.603 0.265-0.338 0.132-1.008 0.427-1.493 0.647-1.037 0.471-1.214 0.537-1.214 0.486s0.934-0.478 2.17-0.993c0.993-0.412 1.14-0.463 1.14-0.405zM58.954 15.588c-0.029 0.206-0.066 0.368-0.081 0.346-0.022-0.022-0.015-0.206 0.015-0.412s0.066-0.36 0.088-0.346c0.015 0.022 0.007 0.206-0.022 0.412zM58.814 16.515c-0.029 0.228-0.066 0.397-0.088 0.375-0.022-0.015-0.007-0.221 0.015-0.449 0.029-0.228 0.066-0.397 0.088-0.375 0.022 0.015 0.007 0.221-0.015 0.449zM58.681 17.376c-0.015 0.096-0.029 0.037-0.029-0.125-0.007-0.162 0.007-0.235 0.029-0.169 0.015 0.074 0.015 0.206 0 0.294zM51.936 17.243c0 0.022-0.309 0.206-0.677 0.419-0.934 0.53-1.64 1.008-2.111 1.434-0.28 0.25-0.36 0.302-0.272 0.162 0.25-0.383 1.192-1.059 2.325-1.67 0.736-0.39 0.736-0.39 0.736-0.346zM58.608 17.964c-0.015 0.096-0.029 0.037-0.029-0.125-0.007-0.162 0.007-0.235 0.029-0.169 0.015 0.074 0.015 0.206 0 0.294zM51.84 17.964c-0.022 0.132-0.096 0.758-0.162 1.383-0.162 1.589-0.184 1.766-0.25 1.766-0.029 0-0.169-0.118-0.309-0.265-0.302-0.316-0.897-0.684-1.537-0.949-0.265-0.11-0.493-0.213-0.508-0.228-0.059-0.052 0.39-0.478 0.846-0.809 0.508-0.36 1.788-1.133 1.891-1.133 0.037 0 0.051 0.11 0.029 0.235zM58.534 18.553c-0.015 0.096-0.029 0.037-0.029-0.125-0.007-0.162 0.007-0.235 0.029-0.169 0.015 0.074 0.015 0.206 0 0.294zM58.461 19.252c-0.022 0.074-0.037 0.015-0.037-0.125s0.015-0.199 0.037-0.132c0.015 0.074 0.015 0.191 0 0.257z"></path>
<path fill="red" d="M116.524 4.377c-0.596 0.868-1.501 2.928-2.288 5.201-0.316 0.927-0.316 0.934-0.581 0.978-1.449 0.265-3.531 1.177-3.869 1.692-0.14 0.206-0.066 0.515 0.14 0.662 0.213 0.147 0.324 0.14 0.368-0.037 0.059-0.235 1.361-0.78 2.656-1.111 0.316-0.081 0.596-0.125 0.618-0.103s-0.052 0.522-0.162 1.111c-0.471 2.486-0.633 4.517-0.633 7.96 0 2.619 0.074 3.48 0.375 4.576 0.213 0.78 0.478 1.236 0.868 1.486 0.302 0.184 0.728 0.272 0.831 0.162 0.029-0.022-0.029-0.221-0.132-0.434-0.449-1.030-0.574-2.325-0.522-5.436 0.044-2.464 0.14-3.686 0.463-5.775 0.272-1.758 0.699-3.862 0.802-3.972 0.029-0.022 0.978-0.044 2.119-0.044 2.052 0.007 2.082 0.007 2.663 0.206 0.633 0.206 0.75 0.184 0.669-0.14-0.184-0.728-1.493-1.059-4.178-1.059-0.559 0-1.015-0.029-1.015-0.059 0-0.154 0.618-2.155 1.030-3.325 0.25-0.706 0.537-1.53 0.64-1.832l0.184-0.537-0.177-0.177c-0.096-0.096-0.28-0.206-0.412-0.243-0.221-0.066-0.243-0.051-0.456 0.25zM116.752 6.010c-0.088 0.147-0.103 0.103-0.037-0.088 0.029-0.066 0.066-0.103 0.081-0.081 0.022 0.015 0 0.096-0.044 0.169zM116.355 7.106c-0.177 0.486-0.486 1.405-0.684 2.052-0.199 0.64-0.368 1.118-0.383 1.059-0.037-0.199 1.28-4.097 1.361-4.017 0.015 0.015-0.118 0.427-0.294 0.905zM114.729 12.815c-0.14 0.699-0.302 1.567-0.353 1.935-0.052 0.36-0.103 0.596-0.118 0.515-0.044-0.287 0.618-3.847 0.699-3.759 0.015 0.015-0.081 0.603-0.228 1.309zM114.104 16.964c-0.081 0.809-0.184 2.126-0.228 2.935-0.103 1.824-0.147 2.141-0.103 0.625 0.052-1.582 0.368-5.127 0.449-5.046 0.015 0.015-0.037 0.684-0.118 1.486z"></path>
<path fill="red" d="M72.070 13.241c-0.39 0.309-1.192 2.354-1.567 4.009l-0.132 0.588-0.772 0.772c-0.765 0.758-1.199 1.052-1.692 1.148l-0.235 0.052 0.022-0.949c0.015-1.045-0.044-1.265-0.434-1.574-0.235-0.184-0.522-0.154-0.993 0.081-0.324 0.169-0.353 0.169-0.353 0.044 0-0.243-0.449-0.787-0.824-1-0.824-0.478-1.537-0.228-2.707 0.949-0.743 0.75-1.177 1.398-1.368 2.052-0.14 0.463-0.103 0.743 0.147 1.295 0.14 0.309 0.265 0.456 0.53 0.625 0.191 0.118 0.434 0.221 0.537 0.221 0.449 0 1.537-0.662 3.428-2.082l1.030-0.78 0.088 0.566c0.191 1.148 0.839 2.001 1.523 2.001 0.39 0 0.831-0.272 1.324-0.817l0.36-0.397-0.044 0.257c-0.088 0.493-0.265 2.104-0.353 3.2-0.096 1.236-0.044 4.877 0.081 6.106 0.096 0.846 0.25 1.567 0.412 1.92 0.132 0.272 0.544 0.478 0.861 0.419 0.199-0.037 0.199-0.044 0.147-0.419-0.088-0.596-0.059-5.26 0.044-6.481 0.11-1.39 0.199-1.751 0.699-3.001 0.552-1.376 1.273-2.759 2.038-3.914 0.603-0.905 1.523-2.067 1.582-2.001 0.052 0.052-0.265 1.089-0.566 1.839-0.346 0.868-0.603 1.324-1.096 1.92-0.199 0.235-0.456 0.611-0.566 0.824-0.191 0.375-0.199 0.412-0.096 0.596 0.177 0.309 0.559 0.537 0.92 0.537 0.537 0 0.89-0.493 1.751-2.442 0.081-0.191 0.302-0.405 0.684-0.692 0.677-0.5 0.839-0.655 0.839-0.802 0-0.162-0.272-0.132-0.728 0.074l-0.39 0.184 0.044-0.162c0.022-0.096 0.11-0.493 0.199-0.89 0.213-1 0.162-1.302-0.294-1.751-0.412-0.397-0.765-0.5-1.089-0.331-0.228 0.118-1.103 1-1.501 1.515-0.412 0.522-1.023 1.449-1.405 2.133-0.191 0.346-0.353 0.588-0.353 0.537 0-0.272 0.5-2.7 0.809-3.921 0.206-0.794 0.368-1.515 0.368-1.596 0-0.206-0.28-0.522-0.515-0.574-0.132-0.029-0.25 0-0.39 0.11zM75.093 16.103c-0.096 0.11-0.346 0.419-0.566 0.677-0.89 1.052-1.986 2.92-2.7 4.612-0.191 0.456-0.36 0.809-0.375 0.794-0.052-0.052 0.611-1.537 1.096-2.472 0.537-1.045 1.501-2.494 2.148-3.259 0.272-0.309 0.508-0.566 0.53-0.566s-0.037 0.096-0.132 0.213zM63.963 17.508c-0.772 0.515-0.839 0.552-0.589 0.331 0.28-0.25 0.853-0.625 0.949-0.625 0.044 0-0.118 0.132-0.36 0.294zM65.471 17.626c0.044 0.103 0.074 0.199 0.074 0.213 0 0.022-2.244 1.434-2.825 1.766l-0.353 0.206 0.11-0.213c0.059-0.125 0.265-0.419 0.449-0.662 0.706-0.942 1.508-1.501 2.163-1.501 0.265 0 0.324 0.029 0.383 0.191zM71.629 17.964c-0.022 0.059-0.044 0.037-0.044-0.044-0.007-0.081 0.015-0.125 0.037-0.096 0.022 0.022 0.029 0.088 0.007 0.14zM71.555 18.406c-0.022 0.059-0.044 0.037-0.044-0.044-0.007-0.081 0.015-0.125 0.037-0.096 0.022 0.022 0.029 0.088 0.007 0.14zM66.023 18.795c-0.964 0.794-3.259 2.317-3.487 2.317-0.066 0 0.096-0.118 0.353-0.265 0.53-0.294 1.376-0.861 2.509-1.677 0.772-0.552 1.045-0.714 0.625-0.375zM71.481 18.773c-0.022 0.059-0.044 0.037-0.044-0.044-0.007-0.081 0.015-0.125 0.037-0.096 0.022 0.022 0.029 0.088 0.007 0.14zM71.408 19.215c-0.022 0.059-0.044 0.037-0.044-0.044-0.007-0.081 0.015-0.125 0.037-0.096 0.022 0.022 0.029 0.088 0.007 0.14zM71.334 19.656c-0.022 0.052-0.037 0.015-0.037-0.088s0.015-0.14 0.037-0.096c0.015 0.052 0.015 0.14 0 0.184zM74.924 20.583c-0.184 0.36-0.405 0.721-0.493 0.794-0.103 0.096-0.074 0.007 0.103-0.265 0.14-0.221 0.346-0.596 0.463-0.831 0.11-0.228 0.221-0.405 0.243-0.39 0.015 0.022-0.125 0.331-0.316 0.692zM71.261 20.097c-0.022 0.059-0.044 0.037-0.044-0.044-0.007-0.081 0.015-0.125 0.037-0.096 0.022 0.022 0.029 0.088 0.007 0.14zM69.37 20.267c0 0.074-0.758 0.625-0.868 0.625-0.066 0 0.096-0.147 0.36-0.324 0.515-0.36 0.508-0.353 0.508-0.302zM70.694 26.667l-0.052 1.471-0.007-1.258c-0.015-1.059 0.029-1.795 0.096-1.707 0.007 0.015-0.007 0.684-0.037 1.493z"></path>
<path fill="red" d="M79.559 13.271c-0.53 0.53-1.265 2.626-1.729 4.899-0.64 3.185-0.875 6.223-0.736 9.541 0.132 3.325 0.405 4.259 1.221 4.237 0.14-0.007 0.28-0.022 0.294-0.044 0.022-0.015 0-0.309-0.044-0.647-0.154-1.265-0.007-6.238 0.228-7.526 0.213-1.192 1.515-4.002 2.582-5.598 0.493-0.736 1.53-2.045 1.582-1.994s-0.184 0.883-0.449 1.574c-0.353 0.912-0.64 1.464-1.015 1.935-0.434 0.53-0.78 1.037-0.868 1.28-0.154 0.412 0.39 0.92 0.986 0.92 0.478 0 0.986-0.684 1.589-2.163 0.206-0.486 0.294-0.611 0.574-0.809 0.714-0.493 1.045-0.787 1.045-0.927 0-0.191-0.213-0.191-0.603 0-0.493 0.235-0.5 0.221-0.309-0.574 0.213-0.875 0.221-1.273 0.029-1.677-0.162-0.324-0.559-0.647-0.897-0.728-0.302-0.074-0.669 0.147-1.228 0.743-0.728 0.78-1.273 1.515-1.927 2.619-0.324 0.537-0.574 0.897-0.552 0.794s0.125-0.655 0.228-1.229c0.103-0.581 0.368-1.773 0.588-2.648 0.375-1.523 0.39-1.604 0.28-1.795-0.118-0.199-0.375-0.36-0.581-0.36-0.059 0-0.191 0.081-0.287 0.177zM82.413 16.36c-0.206 0.221-0.559 0.655-0.794 0.978-0.441 0.596-0.618 0.809-0.515 0.611 0.265-0.471 1.515-1.986 1.64-1.986 0.015 0-0.132 0.177-0.331 0.397zM79.132 18.111c-0.022 0.059-0.044 0.037-0.044-0.044-0.007-0.081 0.015-0.125 0.037-0.096 0.022 0.022 0.029 0.088 0.007 0.14zM80.964 18.28c-0.456 0.699-1.258 2.251-1.663 3.222-0.132 0.316-0.25 0.559-0.265 0.544-0.125-0.118 1.824-3.95 2.008-3.95 0.022 0-0.015 0.081-0.081 0.184zM79.058 18.479c-0.022 0.059-0.044 0.037-0.044-0.044-0.007-0.081 0.015-0.125 0.037-0.096 0.022 0.022 0.029 0.088 0.007 0.14zM78.985 18.92c-0.022 0.052-0.037 0.015-0.037-0.088s0.015-0.14 0.037-0.096c0.015 0.052 0.015 0.14 0 0.184zM78.911 19.362c-0.022 0.052-0.037 0.015-0.037-0.088s0.015-0.14 0.037-0.096c0.015 0.052 0.015 0.14 0 0.184zM78.838 19.803c-0.022 0.052-0.037 0.015-0.037-0.088s0.015-0.14 0.037-0.096c0.015 0.052 0.015 0.14 0 0.184zM82.582 20.326c-0.199 0.456-0.515 0.971-0.647 1.052-0.044 0.029-0.022-0.044 0.066-0.162 0.081-0.118 0.272-0.456 0.419-0.75 0.309-0.618 0.412-0.706 0.162-0.14zM78.198 27.476l-0.052 2.28-0.007-1.736c-0.015-1.471 0.037-2.913 0.096-2.847 0.007 0.015-0.007 1.045-0.037 2.303z"></path>
<path fill="red" d="M92.189 14.308c-0.478 0.213-1.126 0.993-2.589 3.126-1.273 1.861-2.413 3.31-2.597 3.31-0.132 0-0.007-2.016 0.206-3.156l0.199-1.059-0.169-0.132c-0.096-0.074-0.287-0.14-0.412-0.14-0.199 0-0.272 0.052-0.427 0.28-0.338 0.515-0.714 1.795-0.846 2.906-0.169 1.376 0.243 2.229 1.221 2.523 0.478 0.14 0.721 0.132 1.074-0.052 0.728-0.375 1.523-1.339 3.31-4.039 1.221-1.846 1.949-2.817 2.074-2.773 0.132 0.044 0.184 0.544 0.184 1.942 0.007 0.927-0.037 1.692-0.14 2.464-0.228 1.802-0.154 1.626-0.993 2.222-0.831 0.596-2.589 2.266-3.134 2.979-0.456 0.603-1.045 1.802-1.199 2.442-0.309 1.273 0 2.244 0.883 2.759 0.912 0.537 2.111 0.147 2.935-0.942 0.684-0.912 1.221-2.082 1.736-3.781 0.669-2.229 0.986-4.061 1.111-6.459 0.096-1.898 0.037-2.663-0.265-3.325-0.427-0.934-1.398-1.427-2.163-1.096zM92.381 15.537c-0.103 0.132-0.787 1.133-1.53 2.229-1.236 1.824-2.236 3.2-2.325 3.2-0.059 0 0.015-0.103 0.669-0.993 0.331-0.449 1.067-1.508 1.633-2.354 0.978-1.464 1.604-2.317 1.692-2.317 0.022 0-0.044 0.11-0.14 0.235zM93.756 23.040c-0.302 1.354-0.824 3.090-1.103 3.678-0.213 0.441-0.199 0.39 0.191-0.684 0.265-0.75 0.831-2.891 1.030-3.892 0.052-0.257 0.103-0.434 0.118-0.39s-0.088 0.625-0.235 1.287zM92.616 23.091c-0.699 2.965-1.802 5.51-2.729 6.29-0.331 0.28-0.508 0.228-0.728-0.213-0.162-0.324-0.184-0.463-0.177-1.103 0-0.64 0.029-0.817 0.235-1.354 0.412-1.089 0.971-1.986 1.861-3.001 0.5-0.559 1.685-1.663 1.736-1.611 0.015 0.015-0.074 0.463-0.199 0.993zM92.403 27.343c-0.088 0.147-0.103 0.103-0.037-0.088 0.029-0.066 0.066-0.103 0.081-0.081 0.022 0.015 0 0.096-0.044 0.169z"></path>
<path fill="red" d="M108.91 15.61c-0.257 0.14-0.559 0.449-1.008 1.030-0.235 0.316-0.463 0.574-0.5 0.574s-0.132-0.096-0.213-0.213c-0.265-0.375-0.588-0.522-1.133-0.522-0.463 0-0.486 0.007-0.853 0.338-0.25 0.228-0.463 0.515-0.64 0.883-0.228 0.456-0.375 0.633-0.89 1.081-0.625 0.53-1.471 1.155-1.574 1.155-0.081 0-0.184-0.383-0.324-1.14-0.125-0.677-0.309-1.081-0.552-1.214-0.074-0.044-0.265-0.074-0.427-0.074-0.412 0-0.802 0.375-1.839 1.758-0.471 0.625-0.905 1.192-0.956 1.258-0.125 0.14-0.074-0.537 0.177-2.406 0.221-1.692 0.228-1.942 0.015-2.185-0.243-0.272-0.522-0.316-0.706-0.11-0.191 0.199-0.537 1.14-0.78 2.111-0.515 2.023-0.544 3.48-0.066 4.002 0.412 0.456 1.412 0.692 1.707 0.39 0.081-0.081 0.397-0.625 0.714-1.214 0.92-1.736 1.486-2.648 1.64-2.648 0.037 0 0.088 0.177 0.11 0.383 0.103 0.772 0.522 1.412 1.111 1.685 0.566 0.265 0.846 0.177 1.589-0.508l0.419-0.383 0.022 0.574c0.022 0.478 0.066 0.625 0.235 0.883 0.287 0.434 0.706 0.692 1.199 0.736 0.338 0.029 0.441 0.007 0.692-0.162 0.486-0.324 1.081-1.155 2.457-3.428 0.831-1.376 1-1.596 1.081-1.449 0.059 0.096 0.221 1.331 0.309 2.347 0.029 0.331 0.022 0.346-0.272 0.559-0.552 0.397-1.368 1.648-2.28 3.509-1.677 3.399-2.303 5.701-1.913 7.033 0.147 0.493 0.743 1.118 1.184 1.236 0.456 0.132 1.17 0.103 1.479-0.059 1.221-0.625 2.303-3.053 2.773-6.223 0.383-2.56 0.206-6.363-0.375-8.202-0.162-0.522-0.243-0.662-0.611-1.037-0.441-0.456-0.669-0.53-1-0.346zM109.219 16.64c-0.066 0.096-0.412 0.618-0.758 1.162-1.471 2.273-1.758 2.707-2.074 3.104-0.184 0.235-0.36 0.427-0.397 0.427-0.044 0 0.044-0.154 0.191-0.353 0.147-0.191 0.824-1.177 1.493-2.185 0.677-1.015 1.309-1.949 1.405-2.082 0.199-0.265 0.316-0.331 0.14-0.074zM106.77 17.648l0.118 0.39-0.522 0.765c-0.287 0.427-0.669 0.956-0.846 1.184-0.324 0.412-0.324 0.412-0.324 0.184 0-0.434 0.228-1.302 0.471-1.832 0.257-0.537 0.831-1.251 0.934-1.148 0.029 0.029 0.103 0.235 0.169 0.456zM105.74 17.655c-0.11 0.162-0.213 0.294-0.228 0.294-0.037 0 0.022-0.11 0.213-0.39 0.221-0.316 0.228-0.235 0.015 0.096zM98.67 21.26c-0.11 0.206-0.28 0.463-0.375 0.574-0.088 0.11-0.015-0.059 0.177-0.375 0.383-0.633 0.515-0.765 0.199-0.199zM109.977 21.238c0 0.118-0.037 0.618-0.074 1.126-0.191 2.45-0.699 4.708-1.405 6.231-0.463 1.015-1.332 2.155-1.64 2.155-0.235 0-0.257-1.376-0.037-2.398 0.243-1.14 0.949-3.090 1.721-4.774 0.39-0.839 1.309-2.538 1.376-2.538 0.029 0 0.059 0.088 0.059 0.199zM106.645 27.748c-0.022 0.059-0.044 0.037-0.044-0.044-0.007-0.081 0.015-0.125 0.037-0.096 0.022 0.022 0.029 0.088 0.007 0.14zM106.512 28.351c-0.052 0.228-0.103 0.397-0.118 0.383-0.022-0.015 0.007-0.221 0.052-0.449s0.103-0.405 0.118-0.383c0.015 0.015-0.007 0.213-0.052 0.449zM109.823 28.388c-0.044 0.132-0.096 0.221-0.11 0.206s0.007-0.132 0.052-0.265c0.044-0.132 0.096-0.221 0.11-0.206s-0.007 0.132-0.052 0.265zM109.543 29.035c-0.081 0.154-0.147 0.257-0.154 0.228 0-0.088 0.243-0.574 0.28-0.544 0.015 0.015-0.044 0.154-0.125 0.316zM109.057 29.992c-0.103 0.199-0.309 0.486-0.449 0.647-0.147 0.162-0.213 0.213-0.147 0.11 0.28-0.434 0.743-1.103 0.765-1.103 0.015 0-0.059 0.154-0.169 0.346z"></path>
<path fill="red" d="M33.457 15.757c-0.169 0.125-0.449 0.78-0.677 1.552-0.147 0.515-0.265 0.736-0.691 1.309-1.273 1.707-3.038 3.178-4.289 3.568-0.596 0.184-0.655 0.14-0.655-0.486 0-0.486 0.007-0.515 0.169-0.515 0.53-0.007 1.434-0.772 2.104-1.766 0.235-0.353 0.493-0.824 0.566-1.037 0.302-0.912 0.022-1.685-0.758-2.082-0.78-0.39-1.64 0.257-2.553 1.949-0.544 1.015-0.794 1.758-0.831 2.538-0.037 0.618-0.022 0.706 0.154 1.103 0.471 1.037 1.552 1.699 2.45 1.501 0.839-0.191 2.060-1.096 3.126-2.325l0.611-0.699 0.044 0.537c0.044 0.618 0.184 0.927 0.522 1.192 0.316 0.235 0.964 0.441 1.206 0.383 0.294-0.074 0.463-0.309 1.133-1.582 0.633-1.206 1.368-2.369 1.515-2.413 0.051-0.022 0.103 0.132 0.14 0.383 0.066 0.544 0.199 0.861 0.537 1.229 0.486 0.544 1.089 0.706 1.552 0.419 0.309-0.184 1.302-1.177 1.611-1.604 0.257-0.353 0.302-0.647 0.118-0.721-0.177-0.066-0.375 0.059-1.089 0.677-0.566 0.486-1.361 1.067-1.464 1.067-0.066 0-0.14-0.257-0.272-0.956-0.169-0.868-0.243-1.059-0.486-1.287-0.147-0.14-0.28-0.184-0.522-0.184-0.287 0-0.368 0.044-0.699 0.346-0.206 0.199-0.743 0.853-1.206 1.464-0.456 0.618-0.868 1.14-0.92 1.177-0.11 0.066-0.059-0.537 0.199-2.45 0.221-1.677 0.221-1.876 0.015-2.111-0.206-0.228-0.493-0.302-0.662-0.177zM28.557 17.39c-0.162 0.177-0.383 0.456-0.493 0.625-0.184 0.272-0.346 0.434-0.213 0.206 0.331-0.559 0.809-1.155 0.934-1.155 0.037 0-0.066 0.147-0.228 0.324zM28.852 18.038c-0.272 0.581-1.015 1.663-1.302 1.898-0.125 0.103-0.125 0.096-0.074-0.074 0.191-0.633 0.89-1.839 1.368-2.383 0.36-0.412 0.36-0.191 0.007 0.559zM29.057 19.524c0 0.015-0.059 0.074-0.125 0.125-0.118 0.096-0.125 0.088-0.029-0.029s0.154-0.154 0.154-0.096zM28.763 19.884c0 0.015-0.074 0.088-0.162 0.169l-0.169 0.14 0.14-0.169c0.132-0.154 0.191-0.199 0.191-0.14zM32.177 19.95c-0.096 0.169-1.045 1.273-1.214 1.42-0.177 0.147-0.059 0 0.78-0.986 0.434-0.508 0.544-0.618 0.434-0.434zM34.67 21.113c-0.11 0.206-0.265 0.441-0.346 0.537l-0.132 0.162 0.103-0.184c0.059-0.103 0.199-0.338 0.309-0.537 0.11-0.191 0.221-0.346 0.243-0.346 0.015 0-0.059 0.169-0.177 0.368zM30.749 21.503c0 0.015-0.14 0.154-0.309 0.309l-0.316 0.294 0.294-0.316c0.265-0.287 0.331-0.346 0.331-0.287zM30.014 22.172c0 0.015-0.059 0.074-0.125 0.125-0.118 0.096-0.125 0.088-0.029-0.029s0.154-0.154 0.154-0.096z"></path>
<path fill="red" d="M122.564 15.853c-0.118 0.162-0.397 0.809-0.552 1.309-0.029 0.088-0.088 0.125-0.169 0.096-0.118-0.029-0.868-0.103-2.398-0.228-0.537-0.044-0.574-0.066-0.677-0.265-0.154-0.294-0.515-0.471-0.75-0.368-0.684 0.316-1.655 1.714-1.972 2.854-0.331 1.177 0.11 2.376 1.030 2.817 0.677 0.324 1.354 0.132 2.089-0.596 0.478-0.478 0.596-0.736 0.596-1.295 0-0.5-0.147-0.846-0.581-1.42l-0.309-0.405 0.28-0.052c0.154-0.022 0.809-0.066 1.449-0.103 1.067-0.044 1.17-0.037 1.126 0.066-0.147 0.39-0.302 1.523-0.302 2.303-0.007 0.839 0 0.905 0.184 1.177 0.228 0.346 0.794 0.669 1.273 0.736 0.316 0.044 0.353 0.037 0.581-0.206 0.125-0.147 0.53-0.824 0.89-1.501 0.64-1.221 1.199-2.141 1.398-2.303 0.081-0.066 0.11-0.022 0.147 0.265 0.096 0.669 0.272 1.067 0.633 1.427 0.397 0.397 0.802 0.552 1.221 0.478 0.213-0.044 0.427-0.206 1.023-0.802 0.817-0.809 1.067-1.155 1.067-1.471 0-0.36-0.287-0.257-1.008 0.36-0.544 0.471-1.17 0.942-1.545 1.162-0.132 0.074-0.235-0.184-0.36-0.89-0.191-1.096-0.449-1.493-0.964-1.493-0.53 0-0.75 0.213-2.052 1.949-0.471 0.633-0.868 1.133-0.883 1.118-0.037-0.037 0.132-1.618 0.331-3.163 0.154-1.184 0.14-1.331-0.184-1.589-0.257-0.206-0.427-0.199-0.611 0.029zM118.385 18.84c0.265 0.235 0.419 0.427 0.419 0.53 0 0.199-0.199 0.53-0.486 0.817-0.441 0.434-1.28 0.794-1.28 0.552 0-0.368 0.736-2.273 0.875-2.273 0.029 0 0.243 0.169 0.471 0.375zM124.028 20.818c-0.044 0.081-0.096 0.147-0.118 0.147-0.015 0 0-0.066 0.044-0.147s0.096-0.147 0.118-0.147c0.015 0 0 0.066-0.044 0.147zM119.114 21.069c-0.199 0.257-0.53 0.522-0.824 0.662-0.25 0.118-0.25 0.118-0.074-0.007 0.096-0.074 0.36-0.287 0.588-0.478 0.471-0.397 0.5-0.419 0.309-0.177zM123.733 21.311c-0.081 0.154-0.221 0.36-0.309 0.463l-0.147 0.184 0.125-0.213c0.074-0.118 0.191-0.324 0.272-0.463 0.199-0.338 0.25-0.309 0.059 0.029z"></path>
</svg>
