<!-- Generated by IcoMoon.io -->
<svg version="1.1" xmlns="http://www.w3.org/2000/svg" width="32" height="32" viewBox="0 0 32 32">
<path d="M4.525 0.056c-0.294 0.075-0.831 0.388-1 0.588-0.087 0.106-0.231 0.331-0.325 0.506l-0.169 0.319v29.063l0.169 0.319c0.25 0.475 0.438 0.669 0.875 0.906l0.394 0.212h23.063l0.325-0.169c0.413-0.219 0.725-0.531 0.944-0.944l0.169-0.325v-29.063l-0.212-0.394c-0.238-0.438-0.431-0.625-0.906-0.875l-0.319-0.169-11.406-0.013c-6.275 0-11.494 0.013-11.6 0.037zM27 3v1h-3.5c-3.294 0-3.5-0.006-3.5-0.112 0-0.056-0.056-0.225-0.125-0.375-0.094-0.206-0.181-0.294-0.387-0.388-0.256-0.119-0.431-0.125-3.488-0.125s-3.231 0.006-3.488 0.125c-0.206 0.094-0.294 0.181-0.387 0.388-0.069 0.15-0.125 0.319-0.125 0.375 0 0.106-0.206 0.112-3.5 0.112h-3.5v-2h22v1zM27 12v6h-22v-12h22v6zM27 25v5h-22v-10h22v5z"></path>
<path d="M6.494 21.144c-0.494 0.325-0.619 1.006-0.275 1.456 0.594 0.781 1.875 0.275 1.763-0.7-0.075-0.7-0.925-1.131-1.487-0.756z"></path>
<path d="M9.594 21.1c-0.287 0.15-0.394 0.269-0.506 0.563-0.2 0.525 0.037 1.044 0.569 1.244 0.5 0.194 1.012-0.012 1.25-0.506 0.375-0.794-0.537-1.706-1.313-1.3z"></path>
<path d="M12.594 21.1c-0.287 0.15-0.394 0.269-0.506 0.563-0.2 0.525 0.037 1.044 0.569 1.244 0.5 0.194 1.012-0.012 1.25-0.506 0.375-0.794-0.537-1.706-1.313-1.3z"></path>
<path d="M15.594 21.1c-0.287 0.15-0.394 0.269-0.506 0.563-0.131 0.337-0.088 0.65 0.125 0.931 0.456 0.6 1.362 0.494 1.694-0.194 0.375-0.794-0.538-1.706-1.313-1.3z"></path>
<path d="M18.594 21.1c-0.288 0.15-0.394 0.269-0.506 0.563-0.2 0.525 0.038 1.044 0.569 1.244 0.5 0.194 1.012-0.012 1.25-0.506 0.375-0.794-0.538-1.706-1.313-1.3z"></path>
<path d="M21.494 21.144c-0.3 0.194-0.512 0.625-0.475 0.962 0.075 0.744 0.981 1.131 1.575 0.681 0.6-0.456 0.5-1.356-0.181-1.669-0.344-0.156-0.663-0.15-0.919 0.025z"></path>
<path d="M24.494 21.144c-0.481 0.319-0.619 1.006-0.288 1.444 0.606 0.794 1.887 0.3 1.775-0.688-0.075-0.7-0.925-1.131-1.488-0.756z"></path>
<path d="M6.575 24.106c-0.112 0.056-0.281 0.2-0.375 0.319-0.244 0.319-0.237 0.837 0 1.15 0.487 0.644 1.425 0.519 1.706-0.231 0.137-0.344 0.094-0.656-0.119-0.938-0.294-0.381-0.794-0.506-1.213-0.3z"></path>
<path d="M9.588 24.119c-0.375 0.169-0.556 0.456-0.556 0.887 0 0.444 0.206 0.744 0.625 0.9 0.925 0.356 1.731-0.712 1.131-1.5-0.313-0.406-0.719-0.506-1.2-0.288z"></path>
<path d="M12.719 24.063c-0.069 0.025-0.225 0.15-0.344 0.281-0.206 0.212-0.219 0.25-0.219 0.656s0.012 0.444 0.219 0.656c0.412 0.425 0.944 0.444 1.381 0.050 0.438-0.4 0.456-0.975 0.044-1.375-0.319-0.306-0.744-0.413-1.081-0.269z"></path>
<path d="M15.588 24.119c-0.375 0.169-0.556 0.456-0.556 0.887 0 0.444 0.206 0.744 0.625 0.9 0.925 0.356 1.731-0.712 1.131-1.5-0.313-0.406-0.719-0.506-1.2-0.288z"></path>
<path d="M18.569 24.137c-0.769 0.4-0.719 1.462 0.087 1.769 0.925 0.356 1.731-0.712 1.131-1.5-0.325-0.419-0.744-0.512-1.219-0.269z"></path>
<path d="M21.569 24.137c-0.769 0.4-0.719 1.462 0.087 1.769 0.925 0.356 1.731-0.712 1.131-1.5-0.325-0.419-0.744-0.512-1.219-0.269z"></path>
<path d="M24.587 24.119c-0.375 0.169-0.556 0.456-0.556 0.887 0 0.444 0.206 0.744 0.625 0.9 0.925 0.356 1.731-0.712 1.131-1.5-0.313-0.406-0.719-0.506-1.2-0.288z"></path>
<path d="M6.575 27.1c-0.669 0.344-0.756 1.238-0.162 1.694 0.6 0.456 1.487 0.063 1.569-0.694 0.088-0.744-0.75-1.337-1.406-1z"></path>
<path d="M9.588 27.119c-0.375 0.169-0.556 0.456-0.556 0.887 0 0.444 0.206 0.744 0.625 0.9 0.925 0.356 1.731-0.712 1.131-1.5-0.313-0.406-0.719-0.506-1.2-0.288z"></path>
<path d="M12.719 27.063c-0.069 0.025-0.225 0.15-0.344 0.281-0.206 0.212-0.219 0.25-0.219 0.656s0.012 0.444 0.219 0.656c0.419 0.431 0.975 0.444 1.381 0.038 0.425-0.425 0.444-0.975 0.044-1.363-0.319-0.306-0.744-0.413-1.081-0.269z"></path>
<path d="M15.588 27.119c-0.375 0.169-0.556 0.456-0.556 0.887 0 0.444 0.206 0.744 0.625 0.9 0.531 0.206 1.050-0.031 1.25-0.563 0.137-0.35 0.094-0.656-0.125-0.944-0.306-0.4-0.712-0.5-1.194-0.281z"></path>
<path d="M18.569 27.137c-0.769 0.4-0.719 1.462 0.087 1.769 0.925 0.356 1.731-0.712 1.131-1.5-0.325-0.419-0.744-0.512-1.219-0.269z"></path>
<path d="M21.569 27.137c-0.769 0.4-0.719 1.462 0.087 1.769 0.925 0.356 1.731-0.712 1.131-1.5-0.325-0.419-0.744-0.512-1.219-0.269z"></path>
<path d="M24.587 27.119c-0.375 0.169-0.556 0.456-0.556 0.887 0 0.444 0.206 0.744 0.625 0.9 0.925 0.356 1.731-0.712 1.131-1.5-0.313-0.406-0.719-0.506-1.2-0.288z"></path>
</svg>
