<?xml version="1.0" encoding="UTF-8" standalone="no"?>
<svg
   version="1.0"
   width="195"
   height="7"
   viewBox="0 0 146.25 5.2499998"
   preserveAspectRatio="xMidYMid meet"
   id="svg925"
   sodipodi:docname="bottomLine2.svg"
   inkscape:version="1.1.1 (c3084ef, 2021-09-22)"
   xmlns:inkscape="http://www.inkscape.org/namespaces/inkscape"
   xmlns:sodipodi="http://sodipodi.sourceforge.net/DTD/sodipodi-0.dtd"
   xmlns="http://www.w3.org/2000/svg"
   xmlns:svg="http://www.w3.org/2000/svg">
  <sodipodi:namedview
     id="namedview837"
     pagecolor="#ffffff"
     bordercolor="#666666"
     borderopacity="1.0"
     inkscape:pageshadow="2"
     inkscape:pageopacity="0.0"
     inkscape:pagecheckerboard="0"
     showgrid="false"
     inkscape:zoom="3.3470425"
     inkscape:cx="125.93207"
     inkscape:cy="-0.74692806"
     inkscape:window-width="1440"
     inkscape:window-height="847"
     inkscape:window-x="0"
     inkscape:window-y="25"
     inkscape:window-maximized="0"
     inkscape:current-layer="g3074" />
  <defs
     id="defs929" />
  <g
     id="g3074"
     transform="matrix(0.0040562,0,0,-0.0040562,-2.8434854,17.48182)"
     style="fill:#96242f;stroke:none">
    <path
       d="m 790,4201 c 0,-9 9,-50 21,-91 46,-169 145,-296 281,-363 70,-35 226,-82 236,-72 10,10 -31,153 -63,220 -76,160 -215,263 -417,310 -53,12 -58,12 -58,-4 z"
       id="path751"
       style="fill:#96242f" />
    <path
       d="m 3110,4202 c 1,-46 35,-154 73,-226 83,-161 235,-265 435,-300 38,-7 39,-5 12,91 -66,239 -214,380 -458,437 -57,13 -62,13 -62,-2 z"
       id="path753"
       style="fill:#96242f" />
    <path
       d="m 1775,4182 c -163,-55 -274,-149 -340,-288 -34,-72 -73,-209 -62,-220 8,-8 134,26 195,53 76,33 161,94 198,139 66,83 122,206 139,302 7,41 6,42 -22,42 -15,0 -64,-13 -108,-28 z"
       id="path755"
       style="fill:#96242f" />
    <path
       d="m 1950,4197 c 0,-30 43,-163 69,-215 60,-118 158,-208 281,-258 63,-26 181,-56 189,-49 9,10 -35,157 -67,224 -66,137 -185,236 -347,287 -84,27 -125,30 -125,11 z"
       id="path757"
       style="fill:#96242f" />
    <path
       d="m 2945,4186 c -143,-47 -248,-122 -315,-226 -40,-63 -86,-180 -95,-244 l -8,-48 34,7 c 71,15 186,57 238,88 77,46 164,144 205,229 30,64 66,175 66,207 0,17 -48,12 -125,-13 z"
       id="path759"
       style="fill:#96242f" />
    <path
       d="m 4103,4186 c -204,-66 -328,-192 -392,-400 -11,-37 -21,-79 -21,-92 0,-21 3,-24 28,-18 160,35 248,79 338,168 77,77 131,173 154,276 6,30 14,63 17,73 6,24 -34,22 -124,-7 z"
       id="path761"
       style="fill:#96242f" />
    <path
       d="m 4270,4194 c 0,-38 34,-144 68,-214 51,-103 136,-187 245,-240 71,-34 215,-76 225,-65 10,10 -42,175 -75,237 -69,132 -177,219 -335,272 -89,30 -128,33 -128,10 z"
       id="path763"
       style="fill:#96242f" />
    <path
       d="m 1250,3619 c -235,-59 -387,-211 -446,-446 -10,-40 -15,-75 -12,-79 12,-11 191,46 256,82 131,73 231,215 267,379 10,42 16,78 14,80 -2,1 -38,-6 -79,-16 z"
       id="path775"
       style="fill:#96242f" />
    <path
       d="m 1375,3594 c 17,-114 85,-250 165,-332 76,-77 212,-144 338,-166 41,-7 41,3 6,116 -70,226 -214,356 -457,413 l -59,14 z"
       id="path777"
       style="fill:#96242f" />
    <path
       d="m 2412,3620 c -177,-42 -320,-149 -391,-293 -39,-80 -81,-220 -69,-233 10,-9 158,35 222,66 117,59 200,143 255,260 28,58 69,206 60,214 -2,2 -37,-4 -77,-14 z"
       id="path779"
       style="fill:#96242f" />
    <path
       d="m 2530,3611 c 0,-35 42,-156 78,-226 68,-130 188,-221 356,-270 49,-14 92,-25 97,-25 29,0 -37,206 -95,292 -72,109 -200,197 -339,234 -73,19 -97,18 -97,-5 z"
       id="path781"
       style="fill:#96242f" />
    <path
       d="m 3540,3611 c -215,-59 -364,-215 -416,-437 -10,-40 -15,-76 -12,-80 10,-10 159,35 223,68 62,31 134,85 172,128 58,67 118,200 137,303 6,34 5,37 -16,36 -13,0 -52,-8 -88,-18 z"
       id="path783"
       style="fill:#96242f" />
    <path
       d="m 3690,3610 c 0,-33 55,-188 86,-245 38,-67 129,-154 200,-192 58,-30 158,-65 222,-78 l 33,-7 -6,39 c -29,171 -132,336 -259,412 -67,40 -163,76 -229,86 -44,7 -47,6 -47,-15 z"
       id="path785"
       style="fill:#96242f" />
    <path
       d="m 4701,3614 c -162,-43 -302,-159 -371,-306 -37,-81 -70,-201 -58,-214 10,-10 157,35 227,69 154,76 271,243 305,435 5,30 4,32 -22,31 -15,0 -51,-7 -81,-15 z"
       id="path787"
       style="fill:#96242f" />
    <path
       d="m 5305,4194 c -240,-61 -388,-209 -445,-447 -10,-40 -16,-75 -13,-77 3,-3 38,4 79,14 240,62 376,193 440,426 29,107 29,107 -61,84 z"
       id="path799"
       style="fill:#96242f" />
    <path
       d="m 5425,4196 c 0,-35 43,-169 73,-226 46,-87 155,-193 242,-234 68,-32 214,-76 223,-66 2,2 -3,37 -12,76 -55,244 -220,400 -483,458 -37,8 -43,7 -43,-8 z"
       id="path801"
       style="fill:#96242f" />
    <path
       d="m 6465,4194 c -188,-48 -322,-151 -394,-302 -33,-71 -74,-212 -64,-222 7,-7 150,32 203,56 156,69 267,204 315,381 30,110 30,110 -60,87 z"
       id="path803"
       style="fill:#96242f" />
    <path
       d="m 6585,4196 c 0,-71 69,-236 133,-320 71,-93 217,-171 380,-206 l 29,-6 -7,43 c -21,130 -93,266 -182,348 -67,62 -185,120 -285,143 -63,14 -68,14 -68,-2 z"
       id="path805"
       style="fill:#96242f" />
    <path
       d="m 7622,4194 c -225,-54 -384,-210 -442,-434 -20,-79 -20,-98 3,-91 9,2 44,11 78,20 178,44 302,143 379,301 31,65 70,197 63,215 -2,4 -38,-1 -81,-11 z"
       id="path807"
       style="fill:#96242f" />
    <path
       d="m 7745,4194 c 0,-77 85,-268 152,-341 77,-84 210,-151 362,-183 28,-6 28,-6 21,32 -3,21 -17,70 -30,109 -70,211 -212,334 -446,388 -57,14 -59,13 -59,-5 z"
       id="path809"
       style="fill:#96242f" />
    <path
       d="m 8740,4181 c -172,-56 -277,-141 -348,-281 -29,-59 -67,-177 -67,-211 0,-27 1,-27 109,3 206,56 366,221 411,423 6,30 14,63 17,73 6,24 -34,22 -122,-7 z"
       id="path811"
       style="fill:#96242f" />
    <path
       d="m 8905,4193 c 0,-29 30,-137 51,-183 57,-130 147,-221 274,-280 66,-31 204,-69 214,-60 9,10 -31,141 -67,218 -69,146 -179,240 -345,292 -86,28 -127,32 -127,13 z"
       id="path813"
       style="fill:#96242f" />
    <path
       d="m 4845,3623 c 1,-34 33,-145 60,-205 29,-63 81,-136 125,-176 72,-65 200,-126 303,-145 62,-11 62,-12 31,98 -57,207 -191,344 -399,408 -99,31 -120,34 -120,20 z"
       id="path823"
       style="fill:#96242f" />
    <path
       d="m 6011,3586 c 9,-62 54,-179 94,-241 45,-70 135,-150 212,-188 67,-33 217,-77 227,-67 10,11 -31,150 -67,225 -69,147 -229,267 -405,304 l -68,14 z"
       id="path825"
       style="fill:#96242f" />
    <path
       d="m 7057,3618 c -176,-36 -339,-159 -406,-305 -34,-75 -75,-213 -65,-223 10,-10 160,34 227,67 96,46 198,150 245,248 33,69 72,202 65,219 -2,4 -31,1 -66,-6 z"
       id="path827"
       style="fill:#96242f" />
    <path
       d="m 8225,3621 c -185,-38 -334,-146 -409,-297 -36,-72 -81,-222 -69,-234 9,-10 159,34 226,67 95,47 197,150 244,248 32,67 76,216 67,224 -2,2 -29,-2 -59,-8 z"
       id="path829"
       style="fill:#96242f" />
    <path
       d="m 5823,3596 c -202,-73 -319,-198 -378,-406 -28,-98 -27,-106 13,-99 127,24 264,92 342,171 73,75 143,214 159,321 l 6,42 -32,-1 c -18,0 -67,-13 -110,-28 z"
       id="path831"
       style="fill:#96242f" />
    <path
       d="m 7170,3583 c 29,-172 140,-335 279,-413 54,-29 146,-62 229,-79 35,-8 35,6 1,116 -63,205 -188,330 -393,397 -35,12 -77,21 -94,21 -28,0 -29,-1 -22,-42 z"
       id="path833"
       style="fill:#96242f" />
    <path
       d="m 8325,3606 c 0,-35 42,-155 77,-224 80,-152 218,-244 436,-291 27,-6 27,-6 21,36 -11,70 -61,197 -101,256 -74,107 -198,191 -333,227 -76,20 -100,19 -100,-4 z"
       id="path835"
       style="fill:#96242f" />
    <path
       d="m 9340,3610 c -120,-33 -238,-105 -304,-188 -46,-57 -107,-188 -122,-264 -7,-34 -11,-65 -8,-67 11,-11 140,28 218,66 167,80 272,225 316,436 6,30 5,32 -22,31 -15,0 -50,-6 -78,-14 z"
       id="path837"
       style="fill:#96242f" />
    <path
       d="m 9940,4199 c -205,-52 -343,-169 -414,-350 -23,-60 -50,-168 -43,-175 9,-10 154,34 224,68 101,49 176,118 228,211 42,76 88,209 83,243 l -3,22 z"
       id="path749-7"
       style="fill:#96242f" />
    <path
       d="m 10060,4201 c 0,-9 9,-50 21,-91 46,-169 145,-296 281,-363 70,-35 226,-82 236,-72 10,10 -31,153 -63,220 -76,160 -215,263 -417,310 -53,12 -58,12 -58,-4 z"
       id="path751-1"
       style="fill:#96242f" />
    <path
       d="m 12380,4202 c 1,-46 35,-154 73,-226 83,-161 235,-265 435,-300 38,-7 39,-5 12,91 -66,239 -214,380 -458,437 -57,13 -62,13 -62,-2 z"
       id="path753-9"
       style="fill:#96242f" />
    <path
       d="m 11045,4182 c -163,-55 -274,-149 -340,-288 -34,-72 -73,-209 -62,-220 8,-8 134,26 195,53 76,33 161,94 198,139 66,83 122,206 139,302 7,41 6,42 -22,42 -15,0 -64,-13 -108,-28 z"
       id="path755-3"
       style="fill:#96242f" />
    <path
       d="m 11220,4197 c 0,-30 43,-163 69,-215 60,-118 158,-208 281,-258 63,-26 181,-56 189,-49 9,10 -35,157 -67,224 -66,137 -185,236 -347,287 -84,27 -125,30 -125,11 z"
       id="path757-1"
       style="fill:#96242f" />
    <path
       d="m 12215,4186 c -143,-47 -248,-122 -315,-226 -40,-63 -86,-180 -95,-244 l -8,-48 34,7 c 71,15 186,57 238,88 77,46 164,144 205,229 30,64 66,175 66,207 0,17 -48,12 -125,-13 z"
       id="path759-1"
       style="fill:#96242f" />
    <path
       d="m 13373,4186 c -204,-66 -328,-192 -392,-400 -11,-37 -21,-79 -21,-92 0,-21 3,-24 28,-18 160,35 248,79 338,168 77,77 131,173 154,276 6,30 14,63 17,73 6,24 -34,22 -124,-7 z"
       id="path761-4"
       style="fill:#96242f" />
    <path
       d="m 13540,4194 c 0,-38 34,-144 68,-214 51,-103 136,-187 245,-240 71,-34 215,-76 225,-65 10,10 -42,175 -75,237 -69,132 -177,219 -335,272 -89,30 -128,33 -128,10 z"
       id="path763-9"
       style="fill:#96242f" />
    <path
       d="m 9480,3626 c 0,-6 7,-39 15,-74 52,-219 199,-373 419,-436 48,-15 93,-26 98,-26 28,0 -26,180 -80,268 -67,108 -127,162 -237,213 -80,38 -215,72 -215,55 z"
       id="path773-3"
       style="fill:#96242f" />
    <path
       d="m 10520,3619 c -235,-59 -387,-211 -446,-446 -10,-40 -15,-75 -12,-79 12,-11 191,46 256,82 131,73 231,215 267,379 10,42 16,78 14,80 -2,1 -38,-6 -79,-16 z"
       id="path775-4"
       style="fill:#96242f" />
    <path
       d="m 10645,3594 c 17,-114 85,-250 165,-332 76,-77 212,-144 338,-166 41,-7 41,3 6,116 -70,226 -214,356 -457,413 l -59,14 z"
       id="path777-0"
       style="fill:#96242f" />
    <path
       d="m 11682,3620 c -177,-42 -320,-149 -391,-293 -39,-80 -81,-220 -69,-233 10,-9 158,35 222,66 117,59 200,143 255,260 28,58 69,206 60,214 -2,2 -37,-4 -77,-14 z"
       id="path779-7"
       style="fill:#96242f" />
    <path
       d="m 11800,3611 c 0,-35 42,-156 78,-226 68,-130 188,-221 356,-270 49,-14 92,-25 97,-25 29,0 -37,206 -95,292 -72,109 -200,197 -339,234 -73,19 -97,18 -97,-5 z"
       id="path781-5"
       style="fill:#96242f" />
    <path
       d="m 12810,3611 c -215,-59 -364,-215 -416,-437 -10,-40 -15,-76 -12,-80 10,-10 159,35 223,68 62,31 134,85 172,128 58,67 118,200 137,303 6,34 5,37 -16,36 -13,0 -52,-8 -88,-18 z"
       id="path783-7"
       style="fill:#96242f" />
    <path
       d="m 12960,3610 c 0,-33 55,-188 86,-245 38,-67 129,-154 200,-192 58,-30 158,-65 222,-78 l 33,-7 -6,39 c -29,171 -132,336 -259,412 -67,40 -163,76 -229,86 -44,7 -47,6 -47,-15 z"
       id="path785-5"
       style="fill:#96242f" />
    <path
       d="m 13971,3614 c -162,-43 -302,-159 -371,-306 -37,-81 -70,-201 -58,-214 10,-10 157,35 227,69 154,76 271,243 305,435 5,30 4,32 -22,31 -15,0 -51,-7 -81,-15 z"
       id="path787-0"
       style="fill:#96242f" />
    <path
       d="m 14575,4194 c -240,-61 -388,-209 -445,-447 -10,-40 -16,-75 -13,-77 3,-3 38,4 79,14 240,62 376,193 440,426 29,107 29,107 -61,84 z"
       id="path799-6"
       style="fill:#96242f" />
    <path
       d="m 14695,4196 c 0,-35 43,-169 73,-226 46,-87 155,-193 242,-234 68,-32 214,-76 223,-66 2,2 -3,37 -12,76 -55,244 -220,400 -483,458 -37,8 -43,7 -43,-8 z"
       id="path801-4"
       style="fill:#96242f" />
    <path
       d="m 15735,4194 c -188,-48 -322,-151 -394,-302 -33,-71 -74,-212 -64,-222 7,-7 150,32 203,56 156,69 267,204 315,381 30,110 30,110 -60,87 z"
       id="path803-7"
       style="fill:#96242f" />
    <path
       d="m 15855,4196 c 0,-71 69,-236 133,-320 71,-93 217,-171 380,-206 l 29,-6 -7,43 c -21,130 -93,266 -182,348 -67,62 -185,120 -285,143 -63,14 -68,14 -68,-2 z"
       id="path805-8"
       style="fill:#96242f" />
    <path
       d="m 16892,4194 c -225,-54 -384,-210 -442,-434 -20,-79 -20,-98 3,-91 9,2 44,11 78,20 178,44 302,143 379,301 31,65 70,197 63,215 -2,4 -38,-1 -81,-11 z"
       id="path807-4"
       style="fill:#96242f" />
    <path
       d="m 17015,4194 c 0,-77 85,-268 152,-341 77,-84 210,-151 362,-183 28,-6 28,-6 21,32 -3,21 -17,70 -30,109 -70,211 -212,334 -446,388 -57,14 -59,13 -59,-5 z"
       id="path809-0"
       style="fill:#96242f" />
    <path
       d="m 18010,4181 c -172,-56 -277,-141 -348,-281 -29,-59 -67,-177 -67,-211 0,-27 1,-27 109,3 206,56 366,221 411,423 6,30 14,63 17,73 6,24 -34,22 -122,-7 z"
       id="path811-0"
       style="fill:#96242f" />
    <path
       d="m 18175,4193 c 0,-29 30,-137 51,-183 57,-130 147,-221 274,-280 66,-31 204,-69 214,-60 9,10 -31,141 -67,218 -69,146 -179,240 -345,292 -86,28 -127,32 -127,13 z"
       id="path813-6"
       style="fill:#96242f" />
    <path
       d="m 14115,3623 c 1,-34 33,-145 60,-205 29,-63 81,-136 125,-176 72,-65 200,-126 303,-145 62,-11 62,-12 31,98 -57,207 -191,344 -399,408 -99,31 -120,34 -120,20 z"
       id="path823-1"
       style="fill:#96242f" />
    <path
       d="m 15281,3586 c 9,-62 54,-179 94,-241 45,-70 135,-150 212,-188 67,-33 217,-77 227,-67 10,11 -31,150 -67,225 -69,147 -229,267 -405,304 l -68,14 z"
       id="path825-8"
       style="fill:#96242f" />
    <path
       d="m 16327,3618 c -176,-36 -339,-159 -406,-305 -34,-75 -75,-213 -65,-223 10,-10 160,34 227,67 96,46 198,150 245,248 33,69 72,202 65,219 -2,4 -31,1 -66,-6 z"
       id="path827-5"
       style="fill:#96242f" />
    <path
       d="m 17495,3621 c -185,-38 -334,-146 -409,-297 -36,-72 -81,-222 -69,-234 9,-10 159,34 226,67 95,47 197,150 244,248 32,67 76,216 67,224 -2,2 -29,-2 -59,-8 z"
       id="path829-8"
       style="fill:#96242f" />
    <path
       d="m 15093,3596 c -202,-73 -319,-198 -378,-406 -28,-98 -27,-106 13,-99 127,24 264,92 342,171 73,75 143,214 159,321 l 6,42 -32,-1 c -18,0 -67,-13 -110,-28 z"
       id="path831-9"
       style="fill:#96242f" />
    <path
       d="m 16440,3583 c 29,-172 140,-335 279,-413 54,-29 146,-62 229,-79 35,-8 35,6 1,116 -63,205 -188,330 -393,397 -35,12 -77,21 -94,21 -28,0 -29,-1 -22,-42 z"
       id="path833-9"
       style="fill:#96242f" />
    <path
       d="m 17595,3606 c 0,-35 42,-155 77,-224 80,-152 218,-244 436,-291 27,-6 27,-6 21,36 -11,70 -61,197 -101,256 -74,107 -198,191 -333,227 -76,20 -100,19 -100,-4 z"
       id="path835-9"
       style="fill:#96242f" />
    <path
       d="m 18610,3610 c -120,-33 -238,-105 -304,-188 -46,-57 -107,-188 -122,-264 -7,-34 -11,-65 -8,-67 11,-11 140,28 218,66 167,80 272,225 316,436 6,30 5,32 -22,31 -15,0 -50,-6 -78,-14 z"
       id="path837-3"
       style="fill:#96242f" />
    <path
       d="m 19213.416,4192.9255 c -205,-52 -343,-169 -414,-350 -23,-60 -50,-168 -43,-175 9,-10 154,34 224,68 101,49 176,118 228,211 42,76 88,209 83,243 l -3,22 z"
       id="path749-6"
       style="fill:#96242f" />
    <path
       d="m 19333.416,4194.9255 c 0,-9 9,-50 21,-91 46,-169 145,-296 281,-363 70,-35 226,-82 236,-72 10,10 -31,153 -63,220 -76,160 -215,263 -417,310 -53,12 -58,12 -58,-4 z"
       id="path751-0"
       style="fill:#96242f" />
    <path
       d="m 21653.416,4195.9255 c 1,-46 35,-154 73,-226 83,-161 235,-265 435,-300 38,-7 39,-5 12,91 -66,239 -214,380 -458,437 -57,13 -62,13 -62,-2 z"
       id="path753-4"
       style="fill:#96242f" />
    <path
       d="m 20318.416,4175.9255 c -163,-55 -274,-149 -340,-288 -34,-72 -73,-209 -62,-220 8,-8 134,26 195,53 76,33 161,94 198,139 66,83 122,206 139,302 7,41 6,42 -22,42 -15,0 -64,-13 -108,-28 z"
       id="path755-2"
       style="fill:#96242f" />
    <path
       d="m 20493.416,4190.9255 c 0,-30 43,-163 69,-215 60,-118 158,-208 281,-258 63,-26 181,-56 189,-49 9,10 -35,157 -67,224 -66,137 -185,236 -347,287 -84,27 -125,30 -125,11 z"
       id="path757-3"
       style="fill:#96242f" />
    <path
       d="m 21488.416,4179.9255 c -143,-47 -248,-122 -315,-226 -40,-63 -86,-180 -95,-244 l -8,-48 34,7 c 71,15 186,57 238,88 77,46 164,144 205,229 30,64 66,175 66,207 0,17 -48,12 -125,-13 z"
       id="path759-3"
       style="fill:#96242f" />
    <path
       d="m 22646.416,4179.9255 c -204,-66 -328,-192 -392,-400 -11,-37 -21,-79 -21,-92 0,-21 3,-24 28,-18 160,35 248,79 338,168 77,77 131,173 154,276 6,30 14,63 17,73 6,24 -34,22 -124,-7 z"
       id="path761-7"
       style="fill:#96242f" />
    <path
       d="m 22813.416,4187.9255 c 0,-38 34,-144 68,-214 51,-103 136,-187 245,-240 71,-34 215,-76 225,-65 10,10 -42,175 -75,237 -69,132 -177,219 -335,272 -89,30 -128,33 -128,10 z"
       id="path763-0"
       style="fill:#96242f" />
    <path
       d="m 18753.416,3619.9255 c 0,-6 7,-39 15,-74 52,-219 199,-373 419,-436 48,-15 93,-26 98,-26 28,0 -26,180 -80,268 -67,108 -127,162 -237,213 -80,38 -215,72 -215,55 z"
       id="path773-0"
       style="fill:#96242f" />
    <path
       d="m 19793.416,3612.9255 c -235,-59 -387,-211 -446,-446 -10,-40 -15,-75 -12,-79 12,-11 191,46 256,82 131,73 231,215 267,379 10,42 16,78 14,80 -2,1 -38,-6 -79,-16 z"
       id="path775-3"
       style="fill:#96242f" />
    <path
       d="m 19918.416,3587.9255 c 17,-114 85,-250 165,-332 76,-77 212,-144 338,-166 41,-7 41,3 6,116 -70,226 -214,356 -457,413 l -59,14 z"
       id="path777-8"
       style="fill:#96242f" />
    <path
       d="m 20955.416,3613.9255 c -177,-42 -320,-149 -391,-293 -39,-80 -81,-220 -69,-233 10,-9 158,35 222,66 117,59 200,143 255,260 28,58 69,206 60,214 -2,2 -37,-4 -77,-14 z"
       id="path779-3"
       style="fill:#96242f" />
    <path
       d="m 21073.416,3604.9255 c 0,-35 42,-156 78,-226 68,-130 188,-221 356,-270 49,-14 92,-25 97,-25 29,0 -37,206 -95,292 -72,109 -200,197 -339,234 -73,19 -97,18 -97,-5 z"
       id="path781-6"
       style="fill:#96242f" />
    <path
       d="m 22083.416,3604.9255 c -215,-59 -364,-215 -416,-437 -10,-40 -15,-76 -12,-80 10,-10 159,35 223,68 62,31 134,85 172,128 58,67 118,200 137,303 6,34 5,37 -16,36 -13,0 -52,-8 -88,-18 z"
       id="path783-0"
       style="fill:#96242f" />
    <path
       d="m 22233.416,3603.9255 c 0,-33 55,-188 86,-245 38,-67 129,-154 200,-192 58,-30 158,-65 222,-78 l 33,-7 -6,39 c -29,171 -132,336 -259,412 -67,40 -163,76 -229,86 -44,7 -47,6 -47,-15 z"
       id="path785-4"
       style="fill:#96242f" />
    <path
       d="m 23244.416,3607.9255 c -162,-43 -302,-159 -371,-306 -37,-81 -70,-201 -58,-214 10,-10 157,35 227,69 154,76 271,243 305,435 5,30 4,32 -22,31 -15,0 -51,-7 -81,-15 z"
       id="path787-09"
       style="fill:#96242f" />
    <path
       d="m 23848.416,4187.9255 c -240,-61 -388,-209 -445,-447 -10,-40 -16,-75 -13,-77 3,-3 38,4 79,14 240,62 376,193 440,426 29,107 29,107 -61,84 z"
       id="path799-2"
       style="fill:#96242f" />
    <path
       d="m 23968.416,4189.9255 c 0,-35 43,-169 73,-226 46,-87 155,-193 242,-234 68,-32 214,-76 223,-66 2,2 -3,37 -12,76 -55,244 -220,400 -483,458 -37,8 -43,7 -43,-8 z"
       id="path801-49"
       style="fill:#96242f" />
    <path
       d="m 25008.416,4187.9255 c -188,-48 -322,-151 -394,-302 -33,-71 -74,-212 -64,-222 7,-7 150,32 203,56 156,69 267,204 315,381 30,110 30,110 -60,87 z"
       id="path803-2"
       style="fill:#96242f" />
    <path
       d="m 25128.416,4189.9255 c 0,-71 69,-236 133,-320 71,-93 217,-171 380,-206 l 29,-6 -7,43 c -21,130 -93,266 -182,348 -67,62 -185,120 -285,143 -63,14 -68,14 -68,-2 z"
       id="path805-9"
       style="fill:#96242f" />
    <path
       d="m 26165.416,4187.9255 c -225,-54 -384,-210 -442,-434 -20,-79 -20,-98 3,-91 9,2 44,11 78,20 178,44 302,143 379,301 31,65 70,197 63,215 -2,4 -38,-1 -81,-11 z"
       id="path807-1"
       style="fill:#96242f" />
    <path
       d="m 26288.416,4187.9255 c 0,-77 85,-268 152,-341 77,-84 210,-151 362,-183 28,-6 28,-6 21,32 -3,21 -17,70 -30,109 -70,211 -212,334 -446,388 -57,14 -59,13 -59,-5 z"
       id="path809-09"
       style="fill:#96242f" />
    <path
       d="m 27283.416,4174.9255 c -172,-56 -277,-141 -348,-281 -29,-59 -67,-177 -67,-211 0,-27 1,-27 109,3 206,56 366,221 411,423 6,30 14,63 17,73 6,24 -34,22 -122,-7 z"
       id="path811-3"
       style="fill:#96242f" />
    <path
       d="m 27448.416,4186.9255 c 0,-29 30,-137 51,-183 57,-130 147,-221 274,-280 66,-31 204,-69 214,-60 9,10 -31,141 -67,218 -69,146 -179,240 -345,292 -86,28 -127,32 -127,13 z"
       id="path813-0"
       style="fill:#96242f" />
    <path
       d="m 23388.416,3616.9255 c 1,-34 33,-145 60,-205 29,-63 81,-136 125,-176 72,-65 200,-126 303,-145 62,-11 62,-12 31,98 -57,207 -191,344 -399,408 -99,31 -120,34 -120,20 z"
       id="path823-9"
       style="fill:#96242f" />
    <path
       d="m 24554.416,3579.9255 c 9,-62 54,-179 94,-241 45,-70 135,-150 212,-188 67,-33 217,-77 227,-67 10,11 -31,150 -67,225 -69,147 -229,267 -405,304 l -68,14 z"
       id="path825-86"
       style="fill:#96242f" />
    <path
       d="m 25600.416,3611.9255 c -176,-36 -339,-159 -406,-305 -34,-75 -75,-213 -65,-223 10,-10 160,34 227,67 96,46 198,150 245,248 33,69 72,202 65,219 -2,4 -31,1 -66,-6 z"
       id="path827-9"
       style="fill:#96242f" />
    <path
       d="m 26768.416,3614.9255 c -185,-38 -334,-146 -409,-297 -36,-72 -81,-222 -69,-234 9,-10 159,34 226,67 95,47 197,150 244,248 32,67 76,216 67,224 -2,2 -29,-2 -59,-8 z"
       id="path829-0"
       style="fill:#96242f" />
    <path
       d="m 24366.416,3589.9255 c -202,-73 -319,-198 -378,-406 -28,-98 -27,-106 13,-99 127,24 264,92 342,171 73,75 143,214 159,321 l 6,42 -32,-1 c -18,0 -67,-13 -110,-28 z"
       id="path831-1"
       style="fill:#96242f" />
    <path
       d="m 25713.416,3576.9255 c 29,-172 140,-335 279,-413 54,-29 146,-62 229,-79 35,-8 35,6 1,116 -63,205 -188,330 -393,397 -35,12 -77,21 -94,21 -28,0 -29,-1 -22,-42 z"
       id="path833-6"
       style="fill:#96242f" />
    <path
       d="m 26868.416,3599.9255 c 0,-35 42,-155 77,-224 80,-152 218,-244 436,-291 27,-6 27,-6 21,36 -11,70 -61,197 -101,256 -74,107 -198,191 -333,227 -76,20 -100,19 -100,-4 z"
       id="path835-4"
       style="fill:#96242f" />
    <path
       d="m 27883.416,3603.9255 c -120,-33 -238,-105 -304,-188 -46,-57 -107,-188 -122,-264 -7,-34 -11,-65 -8,-67 11,-11 140,28 218,66 167,80 272,225 316,436 6,30 5,32 -22,31 -15,0 -50,-6 -78,-14 z"
       id="path837-4"
       style="fill:#96242f" />
    <path
       d="m 28468.416,4192.9255 c -205,-52 -343,-169 -414,-350 -23,-60 -50,-168 -43,-175 9,-10 154,34 224,68 101,49 176,118 228,211 42,76 88,209 83,243 l -3,22 z"
       id="path749-7-1"
       style="fill:#96242f" />
    <path
       d="m 28588.416,4194.9255 c 0,-9 9,-50 21,-91 46,-169 145,-296 281,-363 70,-35 226,-82 236,-72 10,10 -31,153 -63,220 -76,160 -215,263 -417,310 -53,12 -58,12 -58,-4 z"
       id="path751-1-0"
       style="fill:#96242f" />
    <path
       d="m 30908.416,4195.9255 c 1,-46 35,-154 73,-226 83,-161 235,-265 435,-300 38,-7 39,-5 12,91 -66,239 -214,380 -458,437 -57,13 -62,13 -62,-2 z"
       id="path753-9-6"
       style="fill:#96242f" />
    <path
       d="m 29573.416,4175.9255 c -163,-55 -274,-149 -340,-288 -34,-72 -73,-209 -62,-220 8,-8 134,26 195,53 76,33 161,94 198,139 66,83 122,206 139,302 7,41 6,42 -22,42 -15,0 -64,-13 -108,-28 z"
       id="path755-3-0"
       style="fill:#96242f" />
    <path
       d="m 29748.416,4190.9255 c 0,-30 43,-163 69,-215 60,-118 158,-208 281,-258 63,-26 181,-56 189,-49 9,10 -35,157 -67,224 -66,137 -185,236 -347,287 -84,27 -125,30 -125,11 z"
       id="path757-1-3"
       style="fill:#96242f" />
    <path
       d="m 30743.416,4179.9255 c -143,-47 -248,-122 -315,-226 -40,-63 -86,-180 -95,-244 l -8,-48 34,7 c 71,15 186,57 238,88 77,46 164,144 205,229 30,64 66,175 66,207 0,17 -48,12 -125,-13 z"
       id="path759-1-3"
       style="fill:#96242f" />
    <path
       d="m 31901.416,4179.9255 c -204,-66 -328,-192 -392,-400 -11,-37 -21,-79 -21,-92 0,-21 3,-24 28,-18 160,35 248,79 338,168 77,77 131,173 154,276 6,30 14,63 17,73 6,24 -34,22 -124,-7 z"
       id="path761-4-5"
       style="fill:#96242f" />
    <path
       d="m 32068.416,4187.9255 c 0,-38 34,-144 68,-214 51,-103 136,-187 245,-240 71,-34 215,-76 225,-65 10,10 -42,175 -75,237 -69,132 -177,219 -335,272 -89,30 -128,33 -128,10 z"
       id="path763-9-0"
       style="fill:#96242f" />
    <path
       d="m 28008.416,3619.9255 c 0,-6 7,-39 15,-74 52,-219 199,-373 419,-436 48,-15 93,-26 98,-26 28,0 -26,180 -80,268 -67,108 -127,162 -237,213 -80,38 -215,72 -215,55 z"
       id="path773-3-1"
       style="fill:#96242f" />
    <path
       d="m 29048.416,3612.9255 c -235,-59 -387,-211 -446,-446 -10,-40 -15,-75 -12,-79 12,-11 191,46 256,82 131,73 231,215 267,379 10,42 16,78 14,80 -2,1 -38,-6 -79,-16 z"
       id="path775-4-0"
       style="fill:#96242f" />
    <path
       d="m 29173.416,3587.9255 c 17,-114 85,-250 165,-332 76,-77 212,-144 338,-166 41,-7 41,3 6,116 -70,226 -214,356 -457,413 l -59,14 z"
       id="path777-0-0"
       style="fill:#96242f" />
    <path
       d="m 30210.416,3613.9255 c -177,-42 -320,-149 -391,-293 -39,-80 -81,-220 -69,-233 10,-9 158,35 222,66 117,59 200,143 255,260 28,58 69,206 60,214 -2,2 -37,-4 -77,-14 z"
       id="path779-7-9"
       style="fill:#96242f" />
    <path
       d="m 30328.416,3604.9255 c 0,-35 42,-156 78,-226 68,-130 188,-221 356,-270 49,-14 92,-25 97,-25 29,0 -37,206 -95,292 -72,109 -200,197 -339,234 -73,19 -97,18 -97,-5 z"
       id="path781-5-7"
       style="fill:#96242f" />
    <path
       d="m 31338.416,3604.9255 c -215,-59 -364,-215 -416,-437 -10,-40 -15,-76 -12,-80 10,-10 159,35 223,68 62,31 134,85 172,128 58,67 118,200 137,303 6,34 5,37 -16,36 -13,0 -52,-8 -88,-18 z"
       id="path783-7-1"
       style="fill:#96242f" />
    <path
       d="m 31488.416,3603.9255 c 0,-33 55,-188 86,-245 38,-67 129,-154 200,-192 58,-30 158,-65 222,-78 l 33,-7 -6,39 c -29,171 -132,336 -259,412 -67,40 -163,76 -229,86 -44,7 -47,6 -47,-15 z"
       id="path785-5-7"
       style="fill:#96242f" />
    <path
       d="m 32499.416,3607.9255 c -162,-43 -302,-159 -371,-306 -37,-81 -70,-201 -58,-214 10,-10 157,35 227,69 154,76 271,243 305,435 5,30 4,32 -22,31 -15,0 -51,-7 -81,-15 z"
       id="path787-0-4"
       style="fill:#96242f" />
    <path
       d="m 33103.416,4187.9255 c -240,-61 -388,-209 -445,-447 -10,-40 -16,-75 -13,-77 3,-3 38,4 79,14 240,62 376,193 440,426 29,107 29,107 -61,84 z"
       id="path799-6-5"
       style="fill:#96242f" />
    <path
       d="m 33223.416,4189.9255 c 0,-35 43,-169 73,-226 46,-87 155,-193 242,-234 68,-32 214,-76 223,-66 2,2 -3,37 -12,76 -55,244 -220,400 -483,458 -37,8 -43,7 -43,-8 z"
       id="path801-4-1"
       style="fill:#96242f" />
    <path
       d="m 34263.416,4187.9255 c -188,-48 -322,-151 -394,-302 -33,-71 -74,-212 -64,-222 7,-7 150,32 203,56 156,69 267,204 315,381 30,110 30,110 -60,87 z"
       id="path803-7-7"
       style="fill:#96242f" />
    <path
       d="m 34383.416,4189.9255 c 0,-71 69,-236 133,-320 71,-93 217,-171 380,-206 l 29,-6 -7,43 c -21,130 -93,266 -182,348 -67,62 -185,120 -285,143 -63,14 -68,14 -68,-2 z"
       id="path805-8-8"
       style="fill:#96242f" />
    <path
       d="m 35420.416,4187.9255 c -225,-54 -384,-210 -442,-434 -20,-79 -20,-98 3,-91 9,2 44,11 78,20 178,44 302,143 379,301 31,65 70,197 63,215 -2,4 -38,-1 -81,-11 z"
       id="path807-4-2"
       style="fill:#96242f" />
    <path
       d="m 35543.416,4187.9255 c 0,-77 85,-268 152,-341 77,-84 210,-151 362,-183 28,-6 28,-6 21,32 -3,21 -17,70 -30,109 -70,211 -212,334 -446,388 -57,14 -59,13 -59,-5 z"
       id="path809-0-5"
       style="fill:#96242f" />
    <path
       d="m 36538.416,4174.9255 c -172,-56 -277,-141 -348,-281 -29,-59 -67,-177 -67,-211 0,-27 1,-27 109,3 206,56 366,221 411,423 6,30 14,63 17,73 6,24 -34,22 -122,-7 z"
       id="path811-0-4"
       style="fill:#96242f" />
    <path
       d="m 32643.416,3616.9255 c 1,-34 33,-145 60,-205 29,-63 81,-136 125,-176 72,-65 200,-126 303,-145 62,-11 62,-12 31,98 -57,207 -191,344 -399,408 -99,31 -120,34 -120,20 z"
       id="path823-1-4"
       style="fill:#96242f" />
    <path
       d="m 33809.416,3579.9255 c 9,-62 54,-179 94,-241 45,-70 135,-150 212,-188 67,-33 217,-77 227,-67 10,11 -31,150 -67,225 -69,147 -229,267 -405,304 l -68,14 z"
       id="path825-8-5"
       style="fill:#96242f" />
    <path
       d="m 34855.416,3611.9255 c -176,-36 -339,-159 -406,-305 -34,-75 -75,-213 -65,-223 10,-10 160,34 227,67 96,46 198,150 245,248 33,69 72,202 65,219 -2,4 -31,1 -66,-6 z"
       id="path827-5-9"
       style="fill:#96242f" />
    <path
       d="m 36023.416,3614.9255 c -185,-38 -334,-146 -409,-297 -36,-72 -81,-222 -69,-234 9,-10 159,34 226,67 95,47 197,150 244,248 32,67 76,216 67,224 -2,2 -29,-2 -59,-8 z"
       id="path829-8-3"
       style="fill:#96242f" />
    <path
       d="m 33621.416,3589.9255 c -202,-73 -319,-198 -378,-406 -28,-98 -27,-106 13,-99 127,24 264,92 342,171 73,75 143,214 159,321 l 6,42 -32,-1 c -18,0 -67,-13 -110,-28 z"
       id="path831-9-9"
       style="fill:#96242f" />
    <path
       d="m 34968.416,3576.9255 c 29,-172 140,-335 279,-413 54,-29 146,-62 229,-79 35,-8 35,6 1,116 -63,205 -188,330 -393,397 -35,12 -77,21 -94,21 -28,0 -29,-1 -22,-42 z"
       id="path833-9-6"
       style="fill:#96242f" />
    <path
       d="m 36123.416,3599.9255 c 0,-35 42,-155 77,-224 80,-152 218,-244 436,-291 27,-6 27,-6 21,36 -11,70 -61,197 -101,256 -74,107 -198,191 -333,227 -76,20 -100,19 -100,-4 z"
       id="path835-9-6"
       style="fill:#96242f" />
  </g>
</svg>
