<?xml version="1.0" encoding="UTF-8" standalone="no"?>
<!-- Generated by IcoMoon.io -->

<svg
   version="1.1"
   width="173"
   height="32"
   viewBox="0 0 173 32"
   id="svg870"
xmlns="http://www.w3.org/2000/svg">
  <defs id="defs874">
    <inkscape:path-effect
       effect="fillet_chamfer"
       id="path-effect21266"
       is_visible="true"
       lpeversion="1"
       satellites_param="F,0,0,1,0,0.3,0,1 @ F,0,0,1,0,0.3,0,1 @ F,0,0,1,0,0.3,0,1 @ F,0,0,1,0,0.3,0,1 @ F,0,0,1,0,0.3,0,1 @ F,0,0,1,0,0.3,0,1 @ F,0,0,1,0,0.3,0,1 @ F,0,0,1,0,0.3,0,1"
       unit="px"
       method="auto"
       mode="F"
       radius="0.3"
       chamfer_steps="1"
       flexible="false"
       use_knot_distance="true"
       apply_no_radius="true"
       apply_with_radius="true"
       only_selected="false"
       hide_knots="false" />
    <inkscape:path-effect
       effect="fillet_chamfer"
       id="path-effect20352"
       is_visible="true"
       lpeversion="1"
       satellites_param="F,0,0,1,0,0.3,0,1 @ F,0,0,1,0,0.3,0,1 @ F,0,0,1,0,0.3,0,1 @ F,0,0,1,0,0.3,0,1 @ F,0,0,1,0,0.3,0,1 @ F,0,0,1,0,0.3,0,1 @ F,0,0,1,0,0.3,0,1 @ F,0,0,1,0,0.3,0,1 @ F,0,0,1,0,0.3,0,1 @ F,0,0,1,0,0.3,0,1 @ F,0,0,1,0,0.3,0,1 @ F,0,0,1,0,0.3,0,1 @ F,0,0,1,0,0.3,0,1 @ F,0,0,1,0,0.3,0,1 @ F,0,0,1,0,0.3,0,1 @ F,0,0,1,0,0.3,0,1"
       unit="px"
       method="auto"
       mode="F"
       radius="0.3"
       chamfer_steps="1"
       flexible="false"
       use_knot_distance="true"
       apply_no_radius="true"
       apply_with_radius="true"
       only_selected="false"
       hide_knots="false" />
    <inkscape:path-effect
       effect="fillet_chamfer"
       id="path-effect20350"
       is_visible="true"
       lpeversion="1"
       satellites_param="F,0,0,1,0,0.3,0,1 @ F,0,0,1,0,0.3,0,1 @ F,0,0,1,0,0.3,0,1 @ F,0,0,1,0,0.3,0,1 @ F,0,0,1,0,0.3,0,1 @ F,0,0,1,0,0.3,0,1 @ F,0,0,1,0,0.3,0,1 @ F,0,0,1,0,0.3,0,1 @ F,0,0,1,0,0.3,0,1 @ F,0,0,1,0,0.3,0,1 @ F,0,0,1,0,0.3,0,1 @ F,0,0,1,0,0.3,0,1 @ F,0,0,1,0,0.3,0,1 @ F,0,0,1,0,0.3,0,1 @ F,0,0,1,0,0.3,0,1 @ F,0,0,1,0,0.3,0,1 @ F,0,0,1,0,0.3,0,1 @ F,0,0,1,0,0.3,0,1 @ F,0,0,1,0,0.3,0,1"
       unit="px"
       method="auto"
       mode="F"
       radius="0.3"
       chamfer_steps="1"
       flexible="false"
       use_knot_distance="true"
       apply_no_radius="true"
       apply_with_radius="true"
       only_selected="false"
       hide_knots="false" />
    <inkscape:path-effect
       effect="fillet_chamfer"
       id="path-effect20348"
       is_visible="true"
       lpeversion="1"
       satellites_param="F,0,0,1,0,0.3,0,1 @ F,0,0,1,0,0.3,0,1 @ F,0,0,1,0,0.3,0,1 @ F,0,0,1,0,0.3,0,1 @ F,0,0,1,0,0.3,0,1"
       unit="px"
       method="auto"
       mode="F"
       radius="0.3"
       chamfer_steps="1"
       flexible="false"
       use_knot_distance="true"
       apply_no_radius="true"
       apply_with_radius="true"
       only_selected="false"
       hide_knots="false" />
    <inkscape:path-effect
       effect="fillet_chamfer"
       id="path-effect20346"
       is_visible="true"
       lpeversion="1"
       satellites_param="F,0,0,1,0,0.3,0,1 @ F,0,0,1,0,0.3,0,1 @ F,0,0,1,0,0.3,0,1 @ F,0,0,1,0,0.3,0,1 @ F,0,0,1,0,0.3,0,1"
       unit="px"
       method="auto"
       mode="F"
       radius="0.3"
       chamfer_steps="1"
       flexible="false"
       use_knot_distance="true"
       apply_no_radius="true"
       apply_with_radius="true"
       only_selected="false"
       hide_knots="false" />
    <inkscape:path-effect
       effect="fillet_chamfer"
       id="path-effect20344"
       is_visible="true"
       lpeversion="1"
       satellites_param="F,0,0,1,0,0.3,0,1 @ F,0,0,1,0,0.3,0,1 @ F,0,0,1,0,0.3,0,1 @ F,0,0,1,0,0.3,0,1 @ F,0,0,1,0,0.3,0,1 @ F,0,0,1,0,0.3,0,1 @ F,0,0,1,0,0.3,0,1 @ F,0,0,1,0,0.3,0,1 @ F,0,0,1,0,0.3,0,1 @ F,0,0,1,0,0.3,0,1 @ F,0,0,1,0,0.3,0,1 @ F,0,0,1,0,0.3,0,1 @ F,0,0,1,0,0.3,0,1 @ F,0,0,1,0,0.3,0,1"
       unit="px"
       method="auto"
       mode="F"
       radius="0.3"
       chamfer_steps="1"
       flexible="false"
       use_knot_distance="true"
       apply_no_radius="true"
       apply_with_radius="true"
       only_selected="false"
       hide_knots="false" />
    <inkscape:path-effect
       effect="fillet_chamfer"
       id="path-effect20342"
       is_visible="true"
       lpeversion="1"
       satellites_param="F,0,0,1,0,0.3,0,1 @ F,0,0,1,0,0.3,0,1 @ F,0,0,1,0,0.3,0,1 @ F,0,0,1,0,0.3,0,1 @ F,0,0,1,0,0.3,0,1 @ F,0,0,1,0,0.3,0,1 @ F,0,0,1,0,0.3,0,1 @ F,0,0,1,0,0.3,0,1"
       unit="px"
       method="auto"
       mode="F"
       radius="0.3"
       chamfer_steps="1"
       flexible="false"
       use_knot_distance="true"
       apply_no_radius="true"
       apply_with_radius="true"
       only_selected="false"
       hide_knots="false" />
    <inkscape:path-effect
       effect="fillet_chamfer"
       id="path-effect20302"
       is_visible="true"
       lpeversion="1"
       satellites_param="F,0,0,1,0,0.3,0,1 @ F,0,0,1,0,0,0,1 @ F,0,0,1,0,0,0,1 @ F,0,0,1,0,0.3,0,1 @ F,0,0,1,0,0.3,0,1"
       unit="px"
       method="auto"
       mode="F"
       radius="0.3"
       chamfer_steps="1"
       flexible="false"
       use_knot_distance="true"
       apply_no_radius="true"
       apply_with_radius="true"
       only_selected="false"
       hide_knots="false" />
    <inkscape:path-effect
       effect="fillet_chamfer"
       id="path-effect20262"
       is_visible="true"
       lpeversion="1"
       satellites_param="F,0,0,1,0,0.3,0,1 @ F,0,0,1,0,0.3,0,1 @ F,0,0,1,0,0.3,0,1 @ F,0,0,1,0,0.3,0,1 @ F,0,0,1,0,0.3,0,1"
       unit="px"
       method="auto"
       mode="F"
       radius="0.3"
       chamfer_steps="1"
       flexible="false"
       use_knot_distance="true"
       apply_no_radius="true"
       apply_with_radius="true"
       only_selected="false"
       hide_knots="false" />
    <inkscape:path-effect
       effect="fillet_chamfer"
       id="path-effect20260"
       is_visible="true"
       lpeversion="1"
       satellites_param="F,0,0,1,0,0.3,0,1 @ F,0,0,1,0,0.3,0,1 @ F,0,0,1,0,0.3,0,1 @ F,0,0,1,0,0.3,0,1 @ F,0,0,1,0,0.3,0,1 @ F,0,0,1,0,0.3,0,1 @ F,0,0,1,0,0.3,0,1 @ F,0,0,1,0,0.3,0,1 @ F,0,0,1,0,0.3,0,1 @ F,0,0,1,0,0.3,0,1"
       unit="px"
       method="auto"
       mode="F"
       radius="0.3"
       chamfer_steps="1"
       flexible="false"
       use_knot_distance="true"
       apply_no_radius="true"
       apply_with_radius="true"
       only_selected="false"
       hide_knots="false" />
    <inkscape:path-effect
       effect="fillet_chamfer"
       id="path-effect20220"
       is_visible="true"
       lpeversion="1"
       satellites_param="F,0,0,1,0,0.3,0,1 @ F,0,0,1,0,0.3,0,1 @ F,0,0,1,0,0.3,0,1 @ F,0,0,1,0,0.3,0,1 @ F,0,0,1,0,0.3,0,1"
       unit="px"
       method="auto"
       mode="F"
       radius="0.3"
       chamfer_steps="1"
       flexible="false"
       use_knot_distance="true"
       apply_no_radius="true"
       apply_with_radius="true"
       only_selected="false"
       hide_knots="false" />
    <inkscape:path-effect
       effect="fillet_chamfer"
       id="path-effect20218"
       is_visible="true"
       lpeversion="1"
       satellites_param="F,0,0,1,0,0.3,0,1 @ F,0,0,1,0,0.3,0,1 @ F,0,0,1,0,0.3,0,1 @ F,0,0,1,0,0.3,0,1 @ F,0,0,1,0,0.3,0,1"
       unit="px"
       method="auto"
       mode="F"
       radius="0.3"
       chamfer_steps="1"
       flexible="false"
       use_knot_distance="true"
       apply_no_radius="true"
       apply_with_radius="true"
       only_selected="false"
       hide_knots="false" />
    <inkscape:path-effect
       effect="fillet_chamfer"
       id="path-effect20216"
       is_visible="true"
       lpeversion="1"
       satellites_param="F,0,0,1,0,0.3,0,1 @ F,0,0,1,0,0.3,0,1 @ F,0,0,1,0,0.3,0,1 @ F,0,0,1,0,0.3,0,1 @ F,0,0,1,0,0.3,0,1 @ F,0,0,1,0,0.3,0,1 @ F,0,0,1,0,0.3,0,1 @ F,0,0,1,0,0.3,0,1 @ F,0,0,1,0,0.3,0,1 @ F,0,0,1,0,0.3,0,1 @ F,0,0,1,0,0.3,0,1 @ F,0,0,1,0,0.3,0,1 @ F,0,0,1,0,0.3,0,1 @ F,0,0,1,0,0.3,0,1 @ F,0,0,1,0,0.3,0,1 @ F,0,0,1,0,0.3,0,1"
       unit="px"
       method="auto"
       mode="F"
       radius="0.3"
       chamfer_steps="1"
       flexible="false"
       use_knot_distance="true"
       apply_no_radius="true"
       apply_with_radius="true"
       only_selected="false"
       hide_knots="false" />
    <inkscape:path-effect
       effect="fillet_chamfer"
       id="path-effect20176"
       is_visible="true"
       lpeversion="1"
       satellites_param="F,0,0,1,0,0.3,0,1 @ F,0,0,1,0,0.3,0,1 @ F,0,0,1,0,0.3,0,1 @ F,0,0,1,0,0.3,0,1 @ F,0,0,1,0,0.3,0,1 @ F,0,0,1,0,0.3,0,1"
       unit="px"
       method="auto"
       mode="F"
       radius="0.3"
       chamfer_steps="1"
       flexible="false"
       use_knot_distance="true"
       apply_no_radius="true"
       apply_with_radius="true"
       only_selected="false"
       hide_knots="false" />
    <inkscape:path-effect
       effect="fillet_chamfer"
       id="path-effect20136"
       is_visible="true"
       lpeversion="1"
       satellites_param="F,0,0,1,0,0.3,0,1 @ F,0,0,1,0,0.3,0,1 @ F,0,0,1,0,0.3,0,1 @ F,0,0,1,0,0.3,0,1 @ F,0,0,1,0,0.3,0,1 @ F,0,0,1,0,0.3,0,1 @ F,0,0,1,0,0.3,0,1"
       unit="px"
       method="auto"
       mode="F"
       radius="0.3"
       chamfer_steps="1"
       flexible="false"
       use_knot_distance="true"
       apply_no_radius="true"
       apply_with_radius="true"
       only_selected="false"
       hide_knots="false" />
    <inkscape:path-effect
       effect="fillet_chamfer"
       id="path-effect20096"
       is_visible="true"
       lpeversion="1"
       satellites_param="F,0,0,1,0,0.3,0,1 @ F,0,0,1,0,0.3,0,1 @ F,0,0,1,0,0.3,0,1 @ F,0,0,1,0,0.3,0,1 @ F,0,0,1,0,0.3,0,1 @ F,0,0,1,0,0.3,0,1 @ F,0,0,1,0,0.3,0,1 @ F,0,0,1,0,0.3,0,1 @ F,0,0,1,0,0.3,0,1 @ F,0,0,1,0,0.3,0,1 @ F,0,0,1,0,0.3,0,1 @ F,0,0,1,0,0.3,0,1"
       unit="px"
       method="auto"
       mode="F"
       radius="0.3"
       chamfer_steps="1"
       flexible="false"
       use_knot_distance="true"
       apply_no_radius="true"
       apply_with_radius="true"
       only_selected="false"
       hide_knots="false" />
    <inkscape:path-effect
       effect="fillet_chamfer"
       id="path-effect20094"
       is_visible="true"
       lpeversion="1"
       satellites_param="F,0,0,1,0,0.3,0,1 @ F,0,0,1,0,0.3,0,1 @ F,0,0,1,0,0.3,0,1 @ F,0,0,1,0,0.3,0,1 @ F,0,0,1,0,0.3,0,1"
       unit="px"
       method="auto"
       mode="F"
       radius="0.3"
       chamfer_steps="1"
       flexible="false"
       use_knot_distance="true"
       apply_no_radius="true"
       apply_with_radius="true"
       only_selected="false"
       hide_knots="false" />
    <inkscape:path-effect
       effect="fillet_chamfer"
       id="path-effect20092"
       is_visible="true"
       lpeversion="1"
       satellites_param="F,0,0,1,0,0.3,0,1 @ F,0,0,1,0,0.3,0,1 @ F,0,0,1,0,0.3,0,1 @ F,0,0,1,0,0.3,0,1 @ F,0,0,1,0,0.3,0,1 @ F,0,0,1,0,0.3,0,1 @ F,0,0,1,0,0.3,0,1 @ F,0,0,1,0,0.3,0,1 @ F,0,0,1,0,0.3,0,1 @ F,0,0,1,0,0.3,0,1 @ F,0,0,1,0,0.3,0,1 @ F,0,0,1,0,0.3,0,1 @ F,0,0,1,0,0.3,0,1 @ F,0,0,1,0,0.3,0,1 @ F,0,0,1,0,0.3,0,1 @ F,0,0,1,0,0.3,0,1"
       unit="px"
       method="auto"
       mode="F"
       radius="0.3"
       chamfer_steps="1"
       flexible="false"
       use_knot_distance="true"
       apply_no_radius="true"
       apply_with_radius="true"
       only_selected="false"
       hide_knots="false" />
    <inkscape:path-effect
       effect="fillet_chamfer"
       id="path-effect20090"
       is_visible="true"
       lpeversion="1"
       satellites_param="F,0,0,1,0,0.3,0,1 @ F,0,0,1,0,0.3,0,1 @ F,0,0,1,0,0.3,0,1"
       unit="px"
       method="auto"
       mode="F"
       radius="0.3"
       chamfer_steps="1"
       flexible="false"
       use_knot_distance="true"
       apply_no_radius="true"
       apply_with_radius="true"
       only_selected="false"
       hide_knots="false" />
    <inkscape:path-effect
       effect="fillet_chamfer"
       id="path-effect20050"
       is_visible="true"
       lpeversion="1"
       satellites_param="F,0,0,1,0,0.3,0,1 @ F,0,0,1,0,0.3,0,1 @ F,0,0,1,0,0.3,0,1 @ F,0,0,1,0,0.3,0,1 @ F,0,0,1,0,0.3,0,1 @ F,0,0,1,0,0.3,0,1"
       unit="px"
       method="auto"
       mode="F"
       radius="0.3"
       chamfer_steps="1"
       flexible="false"
       use_knot_distance="true"
       apply_no_radius="true"
       apply_with_radius="true"
       only_selected="false"
       hide_knots="false" />
    <inkscape:path-effect
       effect="fillet_chamfer"
       id="path-effect20010"
       is_visible="true"
       lpeversion="1"
       satellites_param="F,0,0,1,0,0.3,0,1 @ F,0,0,1,0,0.3,0,1 @ F,0,0,1,0,0.3,0,1 @ F,0,0,1,0,0.3,0,1 @ F,0,0,1,0,0.3,0,1 @ F,0,0,1,0,0.3,0,1 @ F,0,0,1,0,0.3,0,1 @ F,0,0,1,0,0.3,0,1 @ F,0,0,1,0,0.3,0,1 @ F,0,0,1,0,0.3,0,1"
       unit="px"
       method="auto"
       mode="F"
       radius="0.3"
       chamfer_steps="1"
       flexible="false"
       use_knot_distance="true"
       apply_no_radius="true"
       apply_with_radius="true"
       only_selected="false"
       hide_knots="false" />
    <inkscape:path-effect
       effect="fillet_chamfer"
       id="path-effect20008"
       is_visible="true"
       lpeversion="1"
       satellites_param="F,0,0,1,0,0.3,0,1 @ F,0,0,1,0,0.3,0,1 @ F,0,0,1,0,0.3,0,1 @ F,0,0,1,0,0.3,0,1 @ F,0,0,1,0,0.3,0,1 @ F,0,0,1,0,0.3,0,1 @ F,0,0,1,0,0.3,0,1 @ F,0,0,1,0,0.3,0,1 @ F,0,0,1,0,0.3,0,1 @ F,0,0,1,0,0.3,0,1 @ F,0,0,1,0,0.3,0,1 @ F,0,0,1,0,0.3,0,1"
       unit="px"
       method="auto"
       mode="F"
       radius="0.3"
       chamfer_steps="1"
       flexible="false"
       use_knot_distance="true"
       apply_no_radius="true"
       apply_with_radius="true"
       only_selected="false"
       hide_knots="false" />
    <inkscape:path-effect
       effect="fillet_chamfer"
       id="path-effect20006"
       is_visible="true"
       lpeversion="1"
       satellites_param="F,0,0,1,0,0.3,0,1 @ F,0,0,1,0,0.3,0,1 @ F,0,0,1,0,0.3,0,1 @ F,0,0,1,0,0.3,0,1 @ F,0,0,1,0,0.3,0,1"
       unit="px"
       method="auto"
       mode="F"
       radius="0.3"
       chamfer_steps="1"
       flexible="false"
       use_knot_distance="true"
       apply_no_radius="true"
       apply_with_radius="true"
       only_selected="false"
       hide_knots="false" />
    <inkscape:path-effect
       effect="bspline"
       id="path-effect20004"
       is_visible="true"
       lpeversion="1"
       weight="33.333333"
       steps="2"
       helper_size="0"
       apply_no_weight="true"
       apply_with_weight="true"
       only_selected="false" />
    <inkscape:path-effect
       effect="powerclip"
       id="path-effect18696"
       is_visible="true"
       lpeversion="1"
       inverse="true"
       flatten="false"
       hide_clip="false"
       message="Використовувати почергове правило заповнення на панелі &lt;b&gt;Заповнення та штрих&lt;/b&gt;, якщо немає спрощення результату після перетворення обрізання на контури." />
    <inkscape:path-effect
       effect="powerclip"
       id="path-effect16622"
       is_visible="true"
       lpeversion="1"
       inverse="true"
       flatten="false"
       hide_clip="false"
       message="Використовувати почергове правило заповнення на панелі &lt;b&gt;Заповнення та штрих&lt;/b&gt;, якщо немає спрощення результату після перетворення обрізання на контури." />
    <inkscape:path-effect
       effect="powerclip"
       id="path-effect15243"
       is_visible="true"
       lpeversion="1"
       inverse="true"
       flatten="false"
       hide_clip="false"
       message="Використовувати почергове правило заповнення на панелі &lt;b&gt;Заповнення та штрих&lt;/b&gt;, якщо немає спрощення результату після перетворення обрізання на контури." />
    <inkscape:path-effect
       effect="powerclip"
       id="path-effect10035"
       is_visible="true"
       lpeversion="1"
       inverse="true"
       flatten="false"
       hide_clip="false"
       message="Використовувати почергове правило заповнення на панелі &lt;b&gt;Заповнення та штрих&lt;/b&gt;, якщо немає спрощення результату після перетворення обрізання на контури." />
    <inkscape:path-effect
       effect="powerclip"
       id="path-effect1597"
       is_visible="true"
       lpeversion="1"
       inverse="true"
       flatten="false"
       hide_clip="false"
       message="Використовувати почергове правило заповнення на панелі &lt;b&gt;Заповнення та штрих&lt;/b&gt;, якщо немає спрощення результату після перетворення обрізання на контури." />
    <inkscape:path-effect
       effect="powerclip"
       id="path-effect1115"
       is_visible="true"
       lpeversion="1"
       inverse="true"
       flatten="false"
       hide_clip="false"
       message="Використовувати почергове правило заповнення на панелі &lt;b&gt;Заповнення та штрих&lt;/b&gt;, якщо немає спрощення результату після перетворення обрізання на контури." />
    <clipPath
       clipPathUnits="userSpaceOnUse"
       id="clipPath1111">
      <path
         fill="#ff0000"
         d="m 163.871,18.529 c 1.445,0 4.439,1.084 4.49,-5.781 0.052,-6.761 -3.148,-5.574 -4.49,-5.626 v 11.406 z"
         id="path1113"
         style="display:none" />
      <path
         id="lpe_path-effect1115"
         class="powerclip"
         d="m 154.805,-4.008 h 22.42008 v 40.12 H 154.805 Z m 9.066,22.537 c 1.445,0 4.439,1.084 4.49,-5.781 0.052,-6.761 -3.148,-5.574 -4.49,-5.626 v 11.406 z" />
    </clipPath>
    <clipPath
       clipPathUnits="userSpaceOnUse"
       id="clipPath1593">
      <path
         fill="#ff0000"
         d="m 6.71,19.045 c 1.032,0 1.239,0 2.839,0 1.6,0 2.581,-1.239 2.581,-3.303 0,-2.065 -1.187,-3.148 -2.735,-3.148 L 6.711,12.542 v 6.503 z"
         id="path1595"
         style="display:none" />
      <path
         id="lpe_path-effect1597"
         class="powerclip"
         d="M -4.318,-3.595 H 21.805359 V 28.019707 H -4.318 Z M 6.71,19.045 c 1.032,0 1.239,0 2.839,0 1.6,0 2.581,-1.239 2.581,-3.303 0,-2.065 -1.187,-3.148 -2.735,-3.148 L 6.711,12.542 v 6.503 z" />
    </clipPath>
    <clipPath
       clipPathUnits="userSpaceOnUse"
       id="clipPath10031">
      <path
         fill="#ff0000"
         d="m 24,19.303 c -1.187,0 -3.406,-0.619 -3.406,-3.613 0,-2.942 2.065,-3.561 3.406,-3.561 h 1.961 v 6.452 c 0,0.155 -0.774,0.722 -1.961,0.722 z"
         id="path10033"
         sodipodi:nodetypes="csscscc"
         style="display:none" />
      <path
         id="lpe_path-effect10035"
         class="powerclip"
         d="M 11.824883,-2.049661 H 35.853439 V 27.960271 H 11.824883 Z M 24,19.303 c 1.187,0 1.961,-0.567 1.961,-0.722 V 12.129 H 24 c -1.341,0 -3.406,0.619 -3.406,3.561 0,2.994 2.219,3.613 3.406,3.613 z" />
    </clipPath>
    <clipPath
       clipPathUnits="userSpaceOnUse"
       id="clipPath15239">
      <path
         fill="#ff0000"
         d="m 81.084,19.045 c 2.787,0 5.419,0.465 5.419,-3.303 0,-3.51 -2.89,-3.148 -5.419,-3.2 z"
         id="path15241"
         style="display:none" />
      <path
         id="lpe_path-effect15243"
         class="powerclip"
         d="M 72.224,-2.357 H 94.899439 V 27.765186 H 72.224 Z m 8.86,21.402 c 2.787,0 5.419,0.465 5.419,-3.303 0,-3.51 -2.89,-3.148 -5.419,-3.2 z" />
    </clipPath>
    <clipPath
       clipPathUnits="userSpaceOnUse"
       id="clipPath16618">
      <path
         fill="#ff0000"
         d="m 131.561,8.206 v 11.51 c 2.581,0 3.871,0 3.871,0 V 5.935 c -0.619,0 -1.135,0 -1.548,0 -1.652,0.052 -2.323,0.877 -2.323,2.219 z"
         id="path16620"
         style="display:none;stroke-width:0.3;stroke-miterlimit:4;stroke-dasharray:none" />
      <path
         id="lpe_path-effect16622"
         style="stroke-width:0.3;stroke-miterlimit:4;stroke-dasharray:none"
         class="powerclip"
         d="m 121.463,-3.544 h 24.12 v 33.049 h -24.12 z m 10.098,11.75 v 11.51 c 2.581,0 3.871,0 3.871,0 V 5.935 c -0.619,0 -1.135,0 -1.548,0 -1.652,0.052 -2.323,0.877 -2.323,2.219 z" />
    </clipPath>
    <clipPath
       clipPathUnits="userSpaceOnUse"
       id="clipPath18688">
      <g
         id="g18694"
         style="display:none">
        <path
           fill="#ff0000"
           d="m 144.981,11.819 c 0.826,0 1.394,0 2.632,0 1.238,0 2.219,-0.413 2.219,-3.148 0,-2.735 -1.135,-2.942 -2.323,-2.942 l -2.477,-0.052 v 6.142 z"
           id="path18690" />
        <path
           fill="#ff0000"
           d="m 144.981,20.181 c 0.826,0 1.394,0 2.632,0 1.238,0 2.219,-0.413 2.219,-3.148 0,-2.735 -1.135,-2.942 -2.323,-2.942 l -2.477,-0.052 v 6.142 z"
           id="path18692" />
      </g>
      <path
         id="lpe_path-effect18696"
         class="powerclip"
         d="m 136.017,-3.545 h 22.58187 V 28.161 H 136.017 Z m 8.964,15.364 c 0.826,0 1.394,0 2.632,0 1.238,0 2.219,-0.413 2.219,-3.148 0,-2.735 -1.135,-2.942 -2.323,-2.942 l -2.477,-0.052 v 6.142 z m 0,8.362 c 0.826,0 1.394,0 2.632,0 1.238,0 2.219,-0.413 2.219,-3.148 0,-2.735 -1.135,-2.942 -2.323,-2.942 l -2.477,-0.052 v 6.142 z" />
    </clipPath>
  </defs>
  <sodipodi:namedview
     id="namedview872"
     pagecolor="#ffffff"
     bordercolor="#666666"
     borderopacity="1.0"
     inkscape:pageshadow="2"
     inkscape:pageopacity="0.0"
     inkscape:pagecheckerboard="0"
     showgrid="false"
     inkscape:zoom="3.7918842"
     inkscape:cx="82.412853"
     inkscape:cy="10.416985"
     inkscape:window-width="1440"
     inkscape:window-height="847"
     inkscape:window-x="0"
     inkscape:window-y="25"
     inkscape:window-maximized="1"
     inkscape:current-layer="svg870" />
  <title
     id="title824">yardBakuLogo</title>
  <path
     fill="black"
     d="m 126.813,23.855 v -3.013 c 0,-0.165685 -0.0102,-0.442447 0.0584,-0.591881 0.12737,-0.277819 0.44558,-0.383166 0.77708,-0.417114 0.16477,-0.01687 0.30162,-0.148304 0.30364,-0.313977 0.0411,-3.370787 -0.0484,-8.286326 0.0407,-12.2011452 0.004,-0.1650736 0.009,-0.433413 0.0251,-0.5982781 0.19669,-2.0167674 1.89898,-3.3978663 4.12121,-3.5119563 C 132.30458,3.1991542 132.57331,3.2 132.739,3.2 h 2.394 a 0.3,0.3 135 0 0 0.3,-0.3 V 2.106 c 0,-0.1656854 0.13435,-0.2984995 0.30007,-0.2962489 0.69879,0.00949 2.41917,0.034395 3.11607,0.044199 0.16561,0.00233 0.29986,0.138364 0.29986,0.3040494 v 17.31 c 0,0.165685 0.13476,0.289354 0.30009,0.300898 0.27504,0.0192 0.63329,0.11547 0.74736,0.528529 0.0439,0.159077 0.0366,0.430888 0.0366,0.596573 v 2.961 a 0.3,0.3 135 0 1 -0.3,0.3 h -1.619 a 0.3,0.3 45 0 1 -0.3,-0.3 v -0.794 a 0.3,0.3 45 0 0 -0.3,-0.3 h -8.381 a 0.3,0.3 135 0 0 -0.3,0.3 v 0.794 a 0.3,0.3 135 0 1 -0.3,0.3 h -1.619 -0.301 z"
     id="path826"
     style="stroke-width:0.7;stroke-miterlimit:4;stroke-dasharray:none;stroke:#494949;stroke-opacity:1;fill:#212121;fill-opacity:1"
     clip-path="url(#clipPath16618)"
     inkscape:path-effect="#path-effect16622;#path-effect20216"
     inkscape:original-d="M126.813 24.155v-3.613c0-0.619 0.619-0.723 1.135-0.723 0.052-3.458-0.052-8.723 0.052-12.8 0.052-2.271 1.961-3.819 4.439-3.819h2.994v-1.394c0.103 0 3.665 0.052 3.716 0.052v17.91c0.206 0 1.084-0.103 1.084 0.826v3.561h-2.219v-1.394h-8.981v1.394h-2.219z" />
  <path
     fill="black"
     d="m 153.24805,17.558153 c 0.0229,-1.899375 -0.59513,-4.021343 -1.78437,-4.476756 -0.15438,-0.05912 -0.15432,-0.09527 -0.004,-0.162882 1.13243,-0.507771 1.38977,-2.723009 1.41473,-4.4646226 0.002,-0.1656131 -1.7e-4,-0.4342724 -0.0114,-0.5995601 -0.14828,-2.17574 -1.39934,-4.5092765 -4.53848,-4.6487558 C 148.15942,3.198221 147.89069,3.199 147.725,3.199 h -2.445 a 0.3,0.3 45 0 1 -0.3,-0.3 V 2.105 a 0.3,0.3 45 0 0 -0.3,-0.3 h -3.013 a 0.3,0.3 135 0 0 -0.3,0.3 v 20.406 a 0.3,0.3 45 0 0 0.3,0.3 h 6.677 c 0.16569,0 0.43406,-0.0093 0.59864,-0.02832 3.06805,-0.355004 4.05443,-2.50855 4.26944,-4.575758 0.0171,-0.16482 0.0264,-0.321308 0.0269,-0.348922 z"
     id="path830"
     clip-path="url(#clipPath18688)"
     inkscape:path-effect="#path-effect18696;#path-effect20260"
     inkscape:original-d="m 153.239,17.858 c 0.103,-2.116 -0.619,-4.645 -2.065,-4.852 1.4508,-0.254082 1.703,-2.942 1.703,-4.852 -0.052,-2.323 -1.342,-4.955 -4.852,-4.955 H 144.98 V 1.805 h -3.613 v 21.006 h 7.277 c 3.458,-0.258 4.439,-2.684 4.594,-4.903 z"
     style="fill:#212121;fill-opacity:1;stroke:#494949;stroke-width:0.7;stroke-miterlimit:4;stroke-dasharray:none;stroke-opacity:1"
     sodipodi:nodetypes="cccsccccccc" />
  <path
     fill="#ff0000"
     d="m 145.332,11.819 1.93,0 c 0.16569,0 0.43452,0.0018 0.5998,-0.0094 1.04799,-0.07114 1.85083,-0.583717 1.91505,-2.8388857 0.005,-0.1654543 0.005,-0.4340349 -6.7e-4,-0.5996218 -0.0741,-2.2350617 -0.99069,-2.5909203 -2.01859,-2.6362083 -0.16533,-0.00728 -0.43387,-0.00866 -0.59952,-0.012141 l -1.87714,-0.039407 a 0.29133824,0.29133824 135.36345 0 0 -0.29744,0.2936931 l 0.046,5.5420203 A 0.30250139,0.30250139 44.762128 0 0 145.332,11.819 Z"
     id="path832-4"
     style="fill:#ff0000;fill-opacity:0.0181818;stroke:#494949;stroke-width:0.7;stroke-miterlimit:4;stroke-dasharray:none;stroke-opacity:1"
     sodipodi:nodetypes="csscccc"
     inkscape:path-effect="#path-effect20220"
     inkscape:original-d="m 145.032,11.819 2.53,0 c 1.238,0 2.219,-0.413 2.219,-3.148 0,-2.735 -1.135,-2.942 -2.323,-2.942 l -2.477,-0.052 0.051,6.142 z" />
  <path
     fill="#ff0000"
     d="m 145.281,20.181 h 1.981 c 0.16569,0 0.43452,0.0018 0.5998,-0.0094 1.04799,-0.07114 1.85083,-0.583717 1.91505,-2.838886 0.005,-0.165454 0.005,-0.434035 -6.7e-4,-0.599622 -0.0741,-2.235061 -0.99069,-2.59092 -2.01859,-2.636208 -0.16533,-0.0073 -0.43387,-0.0087 -0.59952,-0.01214 l -1.87714,-0.03941 A 0.29376816,0.29376816 135.60132 0 0 144.981,14.339 l 0,5.542 a 0.3,0.3 45 0 0 0.3,0.3 z"
     id="path866-3"
     style="fill:#ff0000;fill-opacity:0;stroke:#494949;stroke-width:0.7;stroke-miterlimit:4;stroke-dasharray:none;stroke-opacity:1"
     sodipodi:nodetypes="csscccc"
     inkscape:path-effect="#path-effect20218"
     inkscape:original-d="m 144.981,20.181 h 2.581 c 1.238,0 2.219,-0.413 2.219,-3.148 0,-2.735 -1.135,-2.942 -2.323,-2.942 l -2.477,-0.052 z" />
  <path
     fill="black"
     d="M 164.335,3.468 V 1.694 c 0,-0.1656854 -0.13435,-0.3013792 -0.30008,-0.3034287 -0.75606,-0.00935 -2.72293,-0.035233 -3.47707,-0.044882 -0.1656,-0.00212 -0.3004,0.1306243 -0.30107,0.2963083 L 160.15622,26.281002 A 147.02391,147.02391 90.116911 0 0 160.155,26.881 v 3.581 a 0.3,0.3 45 0 0 0.3,0.3 h 2.755 a 0.30348059,0.30348059 135.33045 0 0 0.30346,-0.29998 l 0.0961,-8.32904 c 0.002,-0.165674 0.13762,-0.293302 0.30322,-0.288108 6.15617,0.193104 7.99843,-2.942075 7.96171,-8.795898 -0.001,-0.165679 -0.006,-0.43427 -0.01,-0.599911 C 171.73912,6.9931818 170.85313,3.8666126 164.63498,3.7702934 164.46932,3.7677274 164.335,3.6336854 164.335,3.468 Z"
     id="path834"
     clip-path="url(#clipPath1111)"
     inkscape:path-effect="#path-effect1115;#path-effect20342"
     inkscape:original-d="M 164.335,3.768 V 1.394 c -0.103,0 -4.026,-0.052 -4.077,-0.052 l -0.103,25.239 v 4.181 h 3.355 l 0.103,-8.929 c 6.503,0.31 8.361,-2.942 8.258,-9.084 -0.103,-5.729 -0.93,-8.981 -7.536,-8.981 z"
     style="fill:#212121;fill-opacity:1;stroke:#494949;stroke-opacity:1;stroke-width:0.7;stroke-miterlimit:4;stroke-dasharray:none"
     sodipodi:nodetypes="cccccccccc" />
  <path
     fill="#000000"
     d="m 26.980532,21.649678 c -1.29929,0.594546 -2.593841,0.947771 -3.815606,0.960221 -0.16565,0.0017 -0.434149,-0.0096 -0.599405,-0.02144 -0.90528,-0.06498 -1.740354,-0.237321 -2.476433,-0.573006 -0.15071,-0.06873 -0.384222,-0.201626 -0.526248,-0.286951 l -0.25968,-0.15601 c -0.142026,-0.08533 -0.362026,-0.238826 -0.48145,-0.35361 -0.387003,-0.371968 -0.694054,-0.823349 -0.941395,-1.333898 -0.07223,-0.149089 -0.180383,-0.395358 -0.234758,-0.551805 -0.168927,-0.486031 -0.285528,-1.120377 -0.370564,-1.798422 -0.02054,-0.163749 -0.05023,-0.430246 -0.06335,-0.595405 -0.093,-1.170675 0.01021,-2.43689 0.135362,-3.276445 0.02441,-0.163753 0.07537,-0.427527 0.118895,-0.587372 0.140384,-0.515583 0.356799,-1.01646 0.629701,-1.427047 0.09167,-0.137923 0.250001,-0.355442 0.356915,-0.481899 0.354749,-0.419593 0.835826,-0.73756 1.359027,-1.016951 0.146106,-0.07802 0.387995,-0.1950645 0.541633,-0.257038 0.641226,-0.2586542 1.379612,-0.428181 2.215158,-0.5592015 0.163668,-0.025664 0.42993,-0.061252 0.594696,-0.078664 0.675727,-0.07141 1.439009,-0.1113249 2.241002,-0.1192612 0.16566,-0.00164 0.300974,-0.1359109 0.292043,-0.3013353 C 25.602626,7.1033062 24.695657,6.2897823 23.680181,6.1590002 23.515971,6.1378519 23.246149,6.1383643 23.081699,6.1577665 22.037037,6.2810189 21.032838,7.0356713 20.873813,8.1120812 20.849621,8.2758311 20.717685,8.411 20.552,8.411 h -2.91 c -0.165685,0 -0.279401,-0.1328236 -0.24513,-0.2949092 0.558288,-2.6404996 2.801197,-4.6568494 5.322309,-4.8062074 0.165369,-0.0098 0.434152,-0.010831 0.599811,-0.00814 4.38995,0.071433 5.866681,2.8170106 5.989863,6.4093473 0.0057,0.1655825 0.0062,0.4342157 0.005,0.5998967 l -0.04765,6.574016 c -0.0012,0.165681 -0.0041,0.434646 0.01068,0.599617 0.06865,0.766758 0.409213,1.23369 0.948409,1.497579 0.148703,0.07278 0.277503,0.24711 0.277215,0.412796 l -0.0051,2.906157 c -2.88e-4,0.165686 -0.134897,0.298505 -0.300303,0.289095 -1.111796,-0.06325 -2.028918,-0.375492 -2.711556,-0.880119 -0.133194,-0.09846 -0.354373,-0.129395 -0.505031,-0.06045 z"
     id="path838"
     sodipodi:nodetypes="cccccccccccscccccccc"
     style="stroke-width:0.7;stroke-miterlimit:4;stroke-dasharray:none;stroke:#494949;stroke-opacity:1;fill:#212121;fill-opacity:1"
     clip-path="url(#clipPath10031)"
     inkscape:path-effect="#path-effect10035;#path-effect20350"
     inkscape:original-d="m 27.252,21.522 c -1.497,0.723 -2.994,1.135 -4.387,1.084 -1.135,-0.052 -2.168,-0.258 -3.045,-0.723 l -0.774,-0.465 c -0.568,-0.465 -0.981,-1.084 -1.29,-1.806 -0.258,-0.568 -0.413,-1.445 -0.516,-2.374 -0.155,-1.394 0,-2.994 0.155,-3.871 0.155,-0.723 0.465,-1.445 0.877,-1.961 0.413,-0.619 1.084,-1.032 1.806,-1.394 0.774,-0.361 1.703,-0.568 2.787,-0.723 0.826,-0.103 1.806,-0.155 2.839,-0.155 0,-2.116 -1.135,-2.994 -2.323,-2.994 -1.239,0 -2.529,0.929 -2.529,2.271 h -3.51 c 0.465,-2.89 2.942,-5.11 5.677,-5.11 4.748,-0.052 6.245,2.89 6.297,6.71 l -0.052,7.174 c 0,1.084 0.465,1.652 1.239,1.91 l -0.0061,3.506157 C 29.113219,22.578538 28.008225,22.185609 27.252,21.522 Z" />
  <path
     fill="black"
     d="m 61.945,3.2 h -3.116 a 0.30174203,0.30174203 135.16587 0 0 -0.301737,0.299995 l -0.04853,8.38101 A 0.30174203,0.30174203 135.16587 0 1 58.177,12.181 h -2.342 a 0.30174203,0.30174203 44.834131 0 1 -0.301737,-0.299995 l -0.04853,-8.38101 A 0.30174203,0.30174203 44.834131 0 0 55.183,3.2 h -3.065 a 0.3,0.3 135 0 0 -0.3,0.3 v 18.806 a 0.3,0.3 45 0 0 0.3,0.3 h 3.116 a 0.3,0.3 135 0 0 0.3,-0.3 v -6.832 a 0.3,0.3 135 0 1 0.3,-0.3 h 2.342 a 0.30210637,0.30210637 44.799561 0 1 0.302099,0.299993 l 0.0478,6.832014 A 0.30210637,0.30210637 44.799561 0 0 58.828,22.606 h 3.116 a 0.30001546,0.30001546 135.00148 0 0 0.300015,-0.3 L 62.244985,3.5 A 0.29998454,0.29998454 45.001476 0 0 61.945,3.2 Z"
     id="path840"
     style="stroke-width:0.7;stroke-miterlimit:4;stroke-dasharray:none;stroke:#494949;stroke-opacity:1;fill:#212121;fill-opacity:1"
     inkscape:path-effect="#path-effect20008"
     inkscape:original-d="M62.245 3.2h-3.716l-0.052 8.981h-2.942l-0.052-8.981h-3.665v19.406h3.716v-7.432h2.942l0.052 7.432h3.716z" />
  <path
     fill="black"
     d="M 43.05502,3.2549681 C 39.637301,3.3238016 38.501967,4.5862743 38.406673,6.6681572 38.399099,6.8336236 38.4,7.1023146 38.4,7.268 v 2.394 c 0,0.1656854 0.0038,0.435846 -0.02762,0.598266 -0.136888,0.707441 -0.770655,1.111619 -1.63372,1.186138 -0.165029,0.01425 -0.433974,0.0126 -0.599659,0.0126 a 0.28445035,0.28445035 48.224523 0 1 -0.268,-0.3 l 0,-7.606 a 0.3,0.3 45 0 0 -0.3,-0.3 h -3.116 a 0.3,0.3 135 0 0 -0.3,0.3 v 18.806 a 0.3,0.3 45 0 0 0.3,0.3 h 3.116 a 0.3,0.3 135 0 0 0.3,-0.3 l 0,-7.606 a 0.3,0.3 135 0 1 0.3,-0.3 h 0.277 a 0.46786777,0.46786777 32.668269 0 1 0.425186,0.272632 l 3.517628,7.660736 A 0.46786777,0.46786777 32.668269 0 0 40.816,22.659 h 3.116 a 0.19171095,0.19171095 122.58006 0 0 0.173975,-0.272246 l -3.92895,-8.487508 c -0.0696,-0.150357 0.01014,-0.268128 0.171867,-0.302689 1.629962,-0.348329 1.541445,-3.591397 1.513051,-4.8309042 -0.0038,-0.1654728 -0.0069,-0.4342972 0.0077,-0.5992907 0.06827,-0.7751136 0.418969,-1.3247115 1.185325,-1.4350005 C 43.218804,6.7077805 43.354039,6.5766854 43.354087,6.411 l 8.26e-4,-2.859 C 43.354961,3.3863146 43.220669,3.2516319 43.05502,3.2549681 Z"
     id="path842"
     style="fill:#212121;fill-opacity:1;stroke:#494949;stroke-width:0.7;stroke-miterlimit:4;stroke-dasharray:none;stroke-opacity:1"
     sodipodi:nodetypes="csssccccccccccsccc"
     inkscape:path-effect="#path-effect20352"
     inkscape:original-d="m 43.355,3.252 c -3.819,0 -4.955,1.394 -4.955,3.716 v 2.994 c 0,0.981 -0.826,1.497 -1.961,1.497 H 35.871 V 3.253 h -3.716 v 19.406 h 3.716 v -8.206 h 0.877 l 3.768,8.206 h 3.716 l -4.181,-9.032 c 2.116,0 1.806,-4.232 1.806,-5.161 0,-1.032 0.413,-1.755 1.497,-1.755 z" />
  <path
     fill="black"
     d="M 49.548,21.894 V 3.5 a 0.3,0.3 45 0 0 -0.3,-0.3 h -3.116 a 0.3,0.3 135 0 0 -0.3,0.3 v 18.806 a 0.3,0.3 45 0 0 0.3,0.3 l 3.116,0 a 0.3,0.3 135 0 0 0.3,-0.3 z"
     id="path844"
     style="stroke-width:0.7;stroke-miterlimit:4;stroke-dasharray:none;stroke:#494949;stroke-opacity:1;fill:#212121;fill-opacity:1"
     inkscape:path-effect="#path-effect20006"
     inkscape:original-d="M49.548 22.194v-18.994h-3.716v19.406h3.716z" />
  <path
     fill="black"
     d="M 108.955,21.894 V 3.5 a 0.3,0.3 45 0 0 -0.3,-0.3 l -3.116,0 a 0.3,0.3 135 0 0 -0.3,0.3 l 0,18.806 a 0.3,0.3 45 0 0 0.3,0.3 h 3.116 a 0.3,0.3 135 0 0 0.3,-0.3 z"
     id="path850"
     style="stroke-width:0.7;stroke-miterlimit:4;stroke-dasharray:none;stroke:#494949;stroke-opacity:1;fill:#212121;fill-opacity:1"
     inkscape:path-effect="#path-effect20094"
     inkscape:original-d="M108.955 22.194v-18.994h-3.716v19.406h3.716z" />
  <path
     fill="black"
     d="m 121.661,3.2 h -3.116 a 0.30319009,0.30319009 135.30302 0 0 -0.30317,0.2999832 l -0.0457,4.3160336 A 1.2755297,1.2755297 103.84125 0 1 118.05645,8.38312 l -2.6689,5.22076 a 0.07300917,0.07300917 13.398632 0 1 -0.13801,-0.03288 L 115.20046,3.4999964 A 0.30146547,0.30146547 44.860399 0 0 114.899,3.2 h -3.065 a 0.3,0.3 135 0 0 -0.3,0.3 v 18.806 a 0.3,0.3 45 0 0 0.3,0.3 h 3.116 a 0.3,0.3 135 0 0 0.3,-0.3 v -2.832 a 1.2557621,1.2557621 103.43606 0 1 0.1356,-0.567605 l 2.6708,-5.27079 a 0.07256265,0.07256265 13.274821 0 1 0.13729,0.03239 l 0.0486,8.63901 A 0.30169325,0.30169325 44.838762 0 0 118.544,22.607 l 3.116,0 a 0.30001546,0.30001546 135.00148 0 0 0.30002,-0.3 L 121.96098,3.5 A 0.29998454,0.29998454 45.001476 0 0 121.661,3.2 Z"
     id="path852"
     style="fill:#212121;fill-opacity:1;stroke:#494949;stroke-width:0.7;stroke-miterlimit:4;stroke-dasharray:none;stroke-opacity:1"
     sodipodi:nodetypes="ccccccccccccc"
     inkscape:path-effect="#path-effect20096"
     inkscape:original-d="m 121.961,3.2 h -3.716 l -0.052,4.916 -2.942,5.755 L 115.199,3.2 h -3.665 v 19.406 h 3.716 v -3.432 l 2.942,-5.806 0.052,9.239 h 3.716 z" />
  <path
     fill="black"
     d="m 116.79,2.065 h 0.432 c 0.16569,0 0.43456,0.0014 0.5997,-0.011514 1.1281,-0.088236 1.96382,-0.6799992 2.10514,-1.65048213 C 119.95069,0.23918316 119.81369,0.104 119.648,0.104 H 118.7 c -0.16569,0 -0.2952,0.13574538 -0.32444,0.29861262 -0.0846,0.47156733 -0.3977,0.76015268 -1.07004,0.82325638 -0.16485,0.015473 -0.43442,0.015923 -0.59891,-0.00315 -0.66947,-0.077643 -0.93617,-0.42296687 -1.01517,-0.8205136 C 115.6592,0.2399861 115.52969,0.104 115.364,0.104 h -1 c -0.16569,0 -0.30262,0.13510486 -0.27983,0.29908212 0.13535,0.97380818 0.94165,1.56553278 2.10608,1.65113348 0.16521,0.012145 0.43406,0.010784 0.59975,0.010784 z"
     id="path854"
     style="stroke-width:0.7;stroke-miterlimit:4;stroke-dasharray:none;stroke:#494949;stroke-opacity:1;fill:#212121;fill-opacity:1"
     inkscape:path-effect="#path-effect20136"
     inkscape:original-d="M116.49 2.065c0.568 0 0.258 0 1.032 0 1.394 0 2.426-0.723 2.426-1.961h-1.548c0 0.723-0.361 1.135-1.394 1.135-1.084 0-1.342-0.568-1.342-1.135-0.465 0-0.929 0-1.6 0 0 1.239 0.981 1.961 2.426 1.961z" />
  <path
     fill="#000000"
     d="m 2.384,6.142 -1.052,0 a 0.3,0.3 45 0 1 -0.3,-0.3 V 3.5 c 0,-0.1656854 0.134316,-0.2987765 0.2999911,-0.2963639 1.1615899,0.016915 5.2691895,0.083756 8.8976849,0.00336 0.165317,-0.00366 0.433589,-0.011238 0.599027,-0.02024 1.113001,-0.060559 1.629804,-0.2439605 1.858473,-1.1382145 0.04102,-0.1604026 0.195139,-0.2935744 0.360824,-0.2932757 1.566367,0.00282 2.593446,0.027244 3.065355,0.0415 0.16551,0.005 0.284329,0.1437191 0.259095,0.3074637 -0.474884,3.0815886 -2.361071,3.877448 -4.820832,4.0232232 -0.165379,0.0098 -0.433929,0.015457 -0.599611,0.016582 L 6.947441,6.1712384 A 0.3010068,0.3010068 134.70681 0 0 6.6484805,6.4732743 l 0.00849,2.4657275 c 5.703e-4,0.1656844 0.1353499,0.299993 0.3010275,0.2984393 1.7089997,-0.016027 4.1757721,-0.1343092 5.6394491,0.6708469 0.144651,0.079572 0.365237,0.232928 0.497216,0.333074 1.474768,1.119058 2.137827,2.547635 2.226804,5.200742 0.0056,0.165587 0.01214,0.434153 0.01359,0.599829 0.01228,1.405822 -0.205402,2.686711 -0.653041,3.712331 -0.06627,0.151828 -0.183586,0.393792 -0.265228,0.537924 -1.480118,2.613041 -5.1868808,2.386767 -7.1427987,2.360461 -0.1655494,-0.0022 -0.4340881,-0.0017 -0.5997734,-0.0015 -1.2138803,0.0014 -3.0254719,-0.003 -3.7412236,-0.0047 C 2.7673081,22.645983 2.6332703,22.511414 2.633763,22.345727 2.6398064,20.313428 2.6798106,8.8709975 2.6836966,6.4419522 2.6839616,6.2762933 2.5496854,6.142 2.384,6.142 Z"
     id="path856"
     clip-path="url(#clipPath1593)"
     inkscape:path-effect="#path-effect1597;#path-effect20344"
     inkscape:original-d="M 2.684,6.142 H 1.032 V 3.2 c 0.361,0 5.316,0.103 9.497,0 1.445,-0.052 2.013,-0.206 2.219,-1.445 2.426,0 3.665,0.052 3.665,0.052 C 16,5.265 13.936,6.039 11.252,6.142 L 6.6474479,6.1732761 6.658,9.239 c 1.806,0 4.697,-0.206 6.194,0.826 1.703,1.187 2.426,2.684 2.477,5.677 0.052,1.652 -0.206,3.148 -0.774,4.284 C 13.11,23.071 8.8822931,22.646271 6.9742085,22.650613 5.5268847,22.653906 2.787,22.64573 2.633,22.64573 2.633,22.232732 2.684,7.793 2.684,6.142 Z"
     sodipodi:nodetypes="ccccccccccccscc"
     style="fill:#212121;fill-opacity:1;stroke:#494949;stroke-width:0.7;stroke-miterlimit:4;stroke-dasharray:none;stroke-opacity:1" />
  <path
     fill="black"
     d="m 72.713,8.413 h 2.806 c 0.165685,0 0.288067,-0.1338562 0.265601,-0.2979991 C 75.445333,5.6362342 73.847229,3.8038847 71.520735,3.3523597 71.358179,3.3208108 71.091971,3.2840414 70.927108,3.2676463 65.650786,2.742931 63.918102,8.0594548 63.895116,12.706013 c -8.19e-4,0.165677 0.0021,0.434304 0.0063,0.599936 0.114086,4.545192 1.704472,9.759432 6.922434,9.281106 0.164979,-0.01512 0.431677,-0.04884 0.59452,-0.07926 2.255723,-0.421445 4.148658,-2.377178 4.380668,-4.8155 C 75.814734,17.527375 75.684685,17.393 75.519,17.393 h -2.806 c -0.165685,0 -0.304169,0.134934 -0.333086,0.297958 -0.158909,0.895884 -0.834201,1.620179 -1.686453,1.859274 -0.159468,0.04474 -0.426956,0.08186 -0.592529,0.08269 -3.857189,0.01938 -3.73131,-10.0399575 -1.55579,-12.7031637 0.104752,-0.1282347 0.296662,-0.317903 0.428041,-0.4186597 1.31463,-1.0082119 3.162304,-0.037191 3.412346,1.5514817 C 72.411262,8.2260785 72.413,8.384281 72.413,8.413 Z"
     id="path860"
     style="stroke-width:0.7;stroke-miterlimit:4;stroke-dasharray:none;stroke:#494949;stroke-opacity:1;fill:#212121;fill-opacity:1"
     inkscape:path-effect="#path-effect20010"
     inkscape:original-d="M72.413 8.413h3.406c-0.258-2.735-2.013-4.748-4.594-5.11-5.626-0.774-7.381 4.903-7.329 9.703 0.052 4.697 1.652 10.271 7.226 9.548 2.477-0.31 4.594-2.477 4.697-5.161h-3.406c-0.052 1.135-0.929 2.065-2.013 2.219-4.284 0.568-4.077-10.581-1.652-12.903 1.394-1.394 3.613-0.206 3.665 1.652z" />
  <path
     fill="black"
     d="M 77.675117,22.100006 77.575883,6.2869941 A 95.61065,95.61065 89.820222 0 1 77.574,5.687 l 0,-2.394 a 0.3,0.3 135 0 1 0.3,-0.3 h 3.065 a 0.3,0.3 45 0 1 0.3,0.3 v 5.852 c 0,0.1656854 0.134318,0.2998392 0.299996,0.3013486 5.781337,0.052672 7.867094,1.6552214 8.00373,6.0467264 0.0052,0.1656 0.0077,0.43425 0.0055,0.599919 -0.08262,6.467742 -4.524523,6.362512 -11.571595,6.309211 -0.165502,-0.0013 -0.300512,-0.136517 -0.301552,-0.302199 z"
     id="path862"
     clip-path="url(#clipPath15239)"
     inkscape:path-effect="#path-effect15243;#path-effect20050"
     inkscape:original-d="M 77.677,22.4 77.574,5.987 V 2.993 h 3.665 v 6.452 c 6.142,0 8.258,1.652 8.31,6.348 0.052,6.865 -4.543,6.659 -11.872,6.607 z"
     style="fill:#212121;fill-opacity:1;stroke:#494949;stroke-width:0.7;stroke-miterlimit:4;stroke-dasharray:none;stroke-opacity:1"
     sodipodi:nodetypes="cccccccc" />
  <path
     fill="black"
     d="m 158.50382,21.894001 0.0504,-18.3940021 A 0.29917981,0.29917981 45.078429 0 0 158.255,3.2 h -3.168 a 0.3,0.3 135 0 0 -0.3,0.3 v 18.806 a 0.3,0.3 45 0 0 0.3,0.3 h 3.116 a 0.3,0.3 135 0 0 0.3,-0.3 150.49123,150.49123 90.114217 0 1 8.2e-4,-0.411999 z"
     id="path868"
     style="stroke-width:0.7;stroke-miterlimit:4;stroke-dasharray:none;stroke:#494949;stroke-opacity:1;fill:#212121;fill-opacity:1"
     inkscape:path-effect="#path-effect20262"
     inkscape:original-d="M158.503 22.194l0.052-18.994h-3.768v19.406h3.716z" />
  <path
     fill="#ff0000"
     d="m 166.47181,7.6652718 c -0.69827,-0.4201905 -1.56836,-0.5226952 -2.30099,-0.5402532 -0.16557,-0.00397 -0.29986,0.1312992 -0.29986,0.2969846 V 18.228003 c 0,0.165685 0.13425,0.304134 0.2999,0.307519 0.892,0.01823 1.64068,-0.01368 2.2527,-0.340201 0.14579,-0.07778 0.36171,-0.23918 0.48182,-0.353167 0.11977,-0.113654 0.29505,-0.317472 0.39107,-0.452432 0.66306,-0.931929 1.06868,-2.387382 1.18055,-3.800297 0.0131,-0.165151 0.0256,-0.433533 0.0292,-0.599173 0.004,-0.165626 0.005,-0.434264 0.002,-0.599918 -0.0247,-1.347736 -0.25669,-2.7123462 -1.17141,-3.9049599 -0.10074,-0.1313441 -0.27673,-0.3346043 -0.39439,-0.4512135 -0.11741,-0.116366 -0.32852,-0.283507 -0.47041,-0.3688888 z"
     id="path836-7"
     style="fill:#080000;fill-opacity:0;stroke:#494949;stroke-width:0.7;stroke-miterlimit:4;stroke-dasharray:none;stroke-opacity:1"
     sodipodi:nodetypes="cccssc"
     inkscape:path-effect="#path-effect20302;#path-effect21266"
     inkscape:original-d="m 166.94572,8.0309582 c -0.82528,-0.8137414 -2.12316,-0.9113357 -3.07476,-0.908955 V 18.528003 c 1.28478,0.03659 2.29087,0.02827 3.03611,-0.682981 1.00187,-0.956165 1.56328,-3.013551 1.59975,-4.854726 0.0339,-1.711126 -0.15544,-3.4957637 -1.5611,-4.9593378 z" />
  <path
     fill="#ff0000"
     d="m 7.01,19.044997 h 2.239 c 0.1656854,0 0.4347501,0.0019 0.5994864,-0.01511 1.3469776,-0.139096 2.1891916,-1.23126 2.2743696,-2.987981 0.008,-0.165485 0.0082,-0.434359 -0.0015,-0.599737 C 12.019121,13.697842 11.019375,12.699015 9.6945311,12.569541 9.5296985,12.553433 9.260687,12.554473 9.0950036,12.553662 L 7.0109964,12.543468 A 0.29858192,0.29858192 135.14455 0 0 6.7109539,12.842 l -9.078e-4,5.902997 a 0.29995387,0.29995387 45.004405 0 0 0.2999539,0.3 z"
     id="path858-8"
     style="fill:#ff0000;fill-opacity:0.0254545;stroke:#494949;stroke-width:0.7;stroke-miterlimit:4;stroke-dasharray:none;stroke-opacity:1"
     sodipodi:nodetypes="csscccc"
     inkscape:path-effect="#path-effect20346"
     inkscape:original-d="m 6.71,19.044997 h 2.839 c 1.6,0 2.581,-1.239 2.581,-3.303 0,-2.065 -1.187,-3.186867 -2.735,-3.186867 L 6.711,12.542 Z" />
  <path
     fill="#ff0000"
     d="m 23.700344,19.290494 c -1.179082,-0.09663 -2.966994,-0.788982 -3.098634,-3.30054 -0.0087,-0.165487 -0.0086,-0.434374 -2.7e-4,-0.59983 0.125803,-2.484346 1.820913,-3.163379 3.098717,-3.250863 C 23.865465,12.127943 24.134315,12.129 24.3,12.129 h 1.361 a 0.3,0.3 45 0 1 0.3,0.3 v 5.852 c 0,0.165685 -0.06317,0.424396 -0.193778,0.520321 -0.263168,0.193284 -0.780659,0.433241 -1.467521,0.489489 -0.165104,0.01352 -0.434271,0.01321 -0.599357,-3.16e-4 z"
     id="path846-5"
     sodipodi:nodetypes="csscscc"
     style="fill:#ff0000;fill-opacity:0;stroke:#494949;stroke-width:0.7;stroke-miterlimit:4;stroke-dasharray:none;stroke-opacity:1"
     inkscape:path-effect="#path-effect20348"
     inkscape:original-d="m 24,19.303 c -1.187,0 -3.406,-0.619 -3.406,-3.613 0,-2.942 2.065,-3.561 3.406,-3.561 h 1.961 v 6.452 c 0,0.155 -0.774,0.722 -1.961,0.722 z" />
  <path
     fill="black"
     d="m 102.18657,3.2549683 c -3.417706,0.068834 -4.553039,1.3313064 -4.648333,3.413189 -0.0076,0.1654664 -0.0067,0.4341574 -0.0067,0.5998428 v 2.394 c 0,0.1656854 0.0038,0.4358459 -0.02762,0.5982659 -0.136888,0.707442 -0.770657,1.11162 -1.63373,1.186138 -0.165029,0.01425 -0.433974,0.0126 -0.599659,0.0126 a 0.28444564,0.28444564 48.225585 0 1 -0.26799,-0.3 l 0,-7.6059999 a 0.3,0.3 45 0 0 -0.3,-0.3 h -3.116005 a 0.3,0.3 135 0 0 -0.3,0.3 V 22.359 a 0.3,0.3 45 0 0 0.3,0.3 h 3.116005 a 0.3,0.3 135 0 0 0.3,-0.3 v -7.606 a 0.3,0.3 135 0 1 0.3,-0.3 h 0.277 a 0.46786777,0.46786777 32.668269 0 1 0.425186,0.272632 l 3.517628,7.660736 A 0.46786777,0.46786777 32.668269 0 0 99.947564,22.659 h 3.115996 a 0.19171103,0.19171103 122.58007 0 0 0.17397,-0.272246 l -3.928941,-8.487508 c -0.0696,-0.150357 0.01014,-0.268128 0.171867,-0.30269 1.629954,-0.348329 1.541444,-3.591396 1.513044,-4.8309031 -0.004,-0.1654728 -0.007,-0.4342972 0.008,-0.5992907 0.0683,-0.7751136 0.41897,-1.3247115 1.18533,-1.4350005 0.16385,-0.023581 0.29909,-0.1546762 0.29914,-0.3203616 l 8.1e-4,-2.859 c 5e-5,-0.1656854 -0.13424,-0.3003681 -0.29989,-0.2970318 z"
     id="path842-8"
     style="fill:#212121;fill-opacity:1;stroke:#494949;stroke-width:0.7;stroke-miterlimit:4;stroke-dasharray:none;stroke-opacity:1"
     sodipodi:nodetypes="csssccccccccccsccc"
     inkscape:path-effect="#path-effect20092"
     inkscape:original-d="m 102.48655,3.2520001 c -3.818986,0 -4.954986,1.394 -4.954986,3.716 v 2.994 c 0,0.9809999 -0.826,1.4969999 -1.96101,1.4969999 h -0.56799 V 3.2530001 H 91.286559 V 22.659 h 3.716005 v -8.206 h 0.877 l 3.768,8.206 h 3.715996 l -4.180996,-9.032 c 2.115996,0 1.805996,-4.2319999 1.805996,-5.1609999 0,-1.032 0.413,-1.755 1.497,-1.755 z" />
  <path
     fill="#ff0000"
     d="m 81.383995,19.046586 c 2.597124,0.02564 4.980087,0.311015 5.113154,-3.004944 0.0066,-0.165386 0.0069,-0.434064 -0.0016,-0.599518 C 86.339822,12.382099 83.760628,12.570757 81.383693,12.546473 81.218167,12.544782 81.084,12.676315 81.084,12.842 l 0,5.903 c 0,0.165685 0.134318,0.29995 0.299995,0.301586 z"
     id="path864-3"
     style="fill:#ff0000;fill-opacity:0;stroke:#494949;stroke-width:0.7;stroke-miterlimit:4;stroke-dasharray:none;stroke-opacity:1"
     inkscape:path-effect="#path-effect20090"
     inkscape:original-d="m 81.084,19.045 c 2.787,0 5.419,0.465 5.419,-3.303 0,-3.51 -2.89,-3.148 -5.419,-3.2 z" />
  <path
     fill="#ff0000"
     d="m 131.64621,8.485841 v 10.91 a 0.3,0.3 45 0 0 0.3,0.3 h 3.271 a 0.3,0.3 135 0 0 0.3,-0.3 v -13.181 a 0.3,0.3 45 0 0 -0.3,-0.3 h -0.948 c -0.16569,0 -0.43447,0.0029 -0.59935,0.018845 -1.31679,0.1273309 -1.92149,0.8152244 -2.01166,1.9005326 -0.0137,0.1650406 -0.012,0.3229033 -0.012,0.3516223 z"
     id="path828-6"
     style="fill:#494949;fill-opacity:0;stroke:#494949;stroke-width:0.7;stroke-miterlimit:4;stroke-dasharray:none;stroke-opacity:1"
     inkscape:path-effect="#path-effect20176"
     inkscape:original-d="m 131.64621,8.185841 v 11.51 c 2.581,0 3.871,0 3.871,0 v -13.781 c -0.619,0 -1.135,0 -1.548,0 -1.652,0.052 -2.323,0.877 -2.323,2.219 z" />
 
</svg>
