<!-- Generated by IcoMoon.io -->
<svg version="1.1" xmlns="http://www.w3.org/2000/svg" width="40" height="40" viewBox="0 0 32 32">
<path fill="#141414" d="M7.125 0.044c-1.188 0.131-2.55 0.631-3.531 1.288-0.519 0.35-0.675 0.481-1.269 1.062-1.075 1.056-1.831 2.462-2.175 4.044-0.113 0.506-0.119 0.975-0.119 9.563s0.006 9.056 0.119 9.563c0.706 3.219 3.069 5.581 6.287 6.288 0.506 0.113 0.975 0.119 9.563 0.119s9.056-0.006 9.563-0.119c3.219-0.706 5.581-3.069 6.288-6.288 0.113-0.506 0.119-0.975 0.119-9.563s-0.006-9.056-0.119-9.563c-0.625-2.862-2.637-5.144-5.319-6.019-1.238-0.406-0.488-0.381-10.281-0.388-4.9-0.006-9.006 0-9.125 0.012zM25.063 2.775c0.587 0.125 1.344 0.431 1.806 0.738 1.212 0.794 2.119 2.138 2.375 3.519 0.050 0.25 0.069 3.063 0.069 8.994 0 7.106-0.019 8.706-0.087 9.038-0.206 0.975-0.731 1.95-1.431 2.675-0.706 0.725-1.875 1.344-2.869 1.512-0.275 0.044-3.1 0.063-9.175 0.050l-8.781-0.019-0.594-0.206c-0.825-0.288-1.494-0.7-2.094-1.294-0.8-0.788-1.281-1.656-1.506-2.719-0.125-0.606-0.125-17.519 0-18.125 0.444-2.081 2.050-3.7 4.131-4.156 0.569-0.125 17.569-0.131 18.156-0.006z"></path>
<path fill="#600000" d="M22.2 10.825c-0.15 0.081-2.025 1.875-4.369 4.181-2.262 2.219-4.219 4.125-4.35 4.244l-0.238 0.206-1.481-1.469c-0.813-0.813-1.581-1.525-1.7-1.587-0.35-0.181-0.9-0.156-1.262 0.056-0.613 0.356-0.838 1.181-0.488 1.775 0.088 0.144 1.075 1.163 2.2 2.262 1.95 1.906 2.063 2.006 2.394 2.1 0.494 0.144 0.875 0.050 1.306-0.331 0.175-0.156 2.425-2.35 5-4.881 3.363-3.3 4.712-4.669 4.794-4.85 0.506-1.106-0.744-2.281-1.806-1.706z"></path>
<!-- <path
     fill="#141414"
     d="M7.125 0.044c-1.188 0.131-2.55 0.631-3.531 1.288-0.519 0.35-0.675 0.481-1.269 1.062-1.075 1.056-1.831 2.462-2.175 4.044-0.113 0.506-0.119 0.975-0.119 9.563s0.006 9.056 0.119 9.563c0.706 3.219 3.069 5.581 6.287 6.288 0.506 0.113 0.975 0.119 9.563 0.119s9.056-0.006 9.563-0.119c3.219-0.706 5.581-3.069 6.288-6.288 0.113-0.506 0.119-0.975 0.119-9.563s-0.006-9.056-0.119-9.563c-0.625-2.862-2.637-5.144-5.319-6.019-1.238-0.406-0.488-0.381-10.281-0.388-4.9-0.006-9.006 0-9.125 0.012zM25.063 2.775c0.587 0.125 1.344 0.431 1.806 0.738 1.212 0.794 2.119 2.138 2.375 3.519 0.050 0.25 0.069 3.063 0.069 8.994 0 7.106-0.019 8.706-0.087 9.038-0.206 0.975-0.731 1.95-1.431 2.675-0.706 0.725-1.875 1.344-2.869 1.512-0.275 0.044-3.1 0.063-9.175 0.050l-8.781-0.019-0.594-0.206c-0.825-0.288-1.494-0.7-2.094-1.294-0.8-0.788-1.281-1.656-1.506-2.719-0.125-0.606-0.125-17.519 0-18.125 0.444-2.081 2.050-3.7 4.131-4.156 0.569-0.125 17.569-0.131 18.156-0.006z"
     id="path9" />
  <path
     d="m 15.769932,6.73696 c -0.229431,0.037026 -0.517048,0.1395104 -0.722677,0.2605075 -0.549446,0.3226592 -0.981862,0.9448359 -1.068477,1.5359368 -0.02711,0.1831487 -0.01256,0.747141 0.02248,0.885329 0.01455,0.056201 0.0238,0.1044675 0.02116,0.1077735 -0.0026,0.00331 -0.112402,0.027109 -0.240672,0.054879 -1.932649,0.3901001 -3.722482,1.2403862 -5.1876715,2.4609372 -2.4034137,2.003396 -3.9472847,4.861044 -4.2924242,7.940851 -0.021158,0.183149 -0.023803,0.193067 -0.067441,0.223481 -0.025786,0.01785 -0.1090959,0.09455 -0.1864547,0.171909 -0.1170301,0.119014 -0.1507506,0.163974 -0.2201752,0.305468 -0.097856,0.199018 -0.1137241,0.276376 -0.1137241,0.542835 0,0.310097 0.043638,0.452913 0.2314154,0.769621 0.1897605,0.320015 0.6281273,0.957399 0.8403683,1.223857 0.1368656,0.171908 0.4258042,0.470764 0.5831667,0.602341 0.3424947,0.286293 0.8337564,0.520354 1.2000539,0.573249 0.2122409,0.03041 18.5826524,0.02909 18.8973774,-0.0013 0.462831,-0.04496 0.889957,-0.199017 1.252949,-0.452913 0.134882,-0.09323 0.550768,-0.503163 0.700197,-0.688956 0.133559,-0.165297 0.250589,-0.332577 0.612259,-0.874089 0.443656,-0.660526 0.485311,-0.758381 0.497873,-1.142531 0.0099,-0.282988 -0.0079,-0.376215 -0.107773,-0.581844 -0.07405,-0.148106 -0.245962,-0.34514 -0.3901,-0.444979 l -0.08662,-0.06083 -0.01124,-0.138188 C 27.908002,19.687624 27.81345,19.065447 27.723529,18.649561 27.572778,17.946058 27.326817,17.194289 27.008786,16.465 26.901012,16.219038 26.639182,15.694056 26.491738,15.430243 25.511859,13.680742 24.044686,12.154724 22.340146,11.110049 21.932194,10.860781 21.38936,10.573165 20.979424,10.390016 20.223026,10.052811 19.290753,9.7519714 18.505264,9.5913031 c -0.310097,-0.062813 -0.3339,-0.068763 -0.327949,-0.099839 0.05752,-0.2393496 0.06414,-0.3034847 0.06414,-0.6023411 0,-0.2730702 -0.0046,-0.332577 -0.03703,-0.4661367 C 18.09202,7.9555271 17.932674,7.6665885 17.611337,7.3452518 17.303224,7.0351552 16.975276,6.8533288 16.567324,6.7667134 16.390787,6.7296869 15.929278,6.7118349 15.770594,6.7362988 Z m 0.499196,1.8830598 c 0.09455,0.064135 0.149429,0.1573624 0.161991,0.2730701 l 0.0079,0.085293 -0.134878,0.1606684 c -0.07405,0.088599 -0.146122,0.1785205 -0.16199,0.2010008 -0.01587,0.023803 -0.0324,0.032398 -0.04033,0.023803 -0.08661,-0.096533 -0.236043,-0.276376 -0.268442,-0.3226591 -0.08067,-0.11703 -0.04166,-0.2876162 0.09323,-0.4125805 0.06083,-0.054878 0.07075,-0.059507 0.165297,-0.059507 0.08529,0 0.109096,0.00793 0.176537,0.051572 z m 0.05818,2.3663872 c 0.21687,0.16199 0.335883,0.202323 0.751769,0.249267 1.060544,0.12232 1.828182,0.306791 2.705577,0.653914 1.110132,0.438366 2.123731,1.065171 3.005754,1.853967 0.204307,0.183149 0.671766,0.647302 0.844997,0.841691 0.727967,0.806648 1.378574,1.84405 1.807023,2.875501 0.285633,0.69094 0.504486,1.505522 0.623499,2.321427 0.02248,0.154056 0.04496,0.305468 0.04959,0.333899 l 0.0099,0.05157 H 6.1384253 v -0.04496 c 0,-0.141494 0.1236419,-0.844997 0.2102574,-1.198732 0.559364,-2.271837 1.8876881,-4.28449 3.7899223,-5.740423 0.973267,-0.745157 2.130344,-1.307827 3.405773,-1.658256 0.504485,-0.138188 0.800036,-0.194389 1.48767,-0.282988 0.240672,-0.03041 0.477377,-0.06413 0.52366,-0.07405 0.181826,-0.03835 0.366297,-0.15604 0.499857,-0.320014 l 0.06414,-0.07868 0.05289,0.06876 c 0.02909,0.03835 0.09786,0.104467 0.154057,0.146122 z m 9.860939,10.834205 c 0,0.02579 -0.229432,0.313403 -0.359686,0.448285 -0.131576,0.136865 -0.28431,0.249267 -0.411258,0.300179 -0.06876,0.02909 -0.176537,0.03041 -2.072159,0.04364 -3.182292,0.02116 -16.3094927,0.0066 -16.4252004,-0.01785 C 6.751345,22.561146 6.5986109,22.467918 6.42538,22.292704 6.340087,22.206084 6.2197509,22.065916 6.1569381,21.982607 l -0.1124017,-0.152734 0.2360437,-0.0079 c 0.41787,-0.01587 19.9083319,-0.01785 19.9083319,-0.0013 z"
     id="path2116"
     style="stroke-width:0.661187" />
  <path
     fill="#600000"
     d="m 26.26237,8.2005735 c -0.130926,0.0707 -1.767494,1.6365677 -3.813423,3.6493285 -1.974356,1.936824 -3.682496,3.60045 -3.796838,3.704317 l -0.207735,0.179805 -1.292671,-1.282197 c -0.709616,-0.709616 -1.379954,-1.331075 -1.483822,-1.385191 -0.305492,-0.157984 -0.785552,-0.136163 -1.101519,0.04888 -0.535049,0.310729 -0.731437,1.030819 -0.425944,1.549284 0.07681,0.125689 0.938299,1.015109 1.92024,1.974356 1.702031,1.663626 1.800661,1.75091 2.08957,1.832957 0.431181,0.125688 0.763732,0.04364 1.139925,-0.288909 0.152746,-0.136163 2.116628,-2.051166 4.364181,-4.260315 2.935349,-2.88036 4.112806,-4.0752728 4.184378,-4.2332558 0.441655,-0.9653568 -0.64939,-1.9909396 -1.576342,-1.4890597 z"
     id="path11"
     style="stroke-width:0.872836" /> -->

     <!-- <path
     fill="#141414"
     d="M7.125 0.044c-1.188 0.131-2.55 0.631-3.531 1.288-0.519 0.35-0.675 0.481-1.269 1.062-1.075 1.056-1.831 2.462-2.175 4.044-0.113 0.506-0.119 0.975-0.119 9.563s0.006 9.056 0.119 9.563c0.706 3.219 3.069 5.581 6.287 6.288 0.506 0.113 0.975 0.119 9.563 0.119s9.056-0.006 9.563-0.119c3.219-0.706 5.581-3.069 6.288-6.288 0.113-0.506 0.119-0.975 0.119-9.563s-0.006-9.056-0.119-9.563c-0.625-2.862-2.637-5.144-5.319-6.019-1.238-0.406-0.488-0.381-10.281-0.388-4.9-0.006-9.006 0-9.125 0.012zM25.063 2.775c0.587 0.125 1.344 0.431 1.806 0.738 1.212 0.794 2.119 2.138 2.375 3.519 0.050 0.25 0.069 3.063 0.069 8.994 0 7.106-0.019 8.706-0.087 9.038-0.206 0.975-0.731 1.95-1.431 2.675-0.706 0.725-1.875 1.344-2.869 1.512-0.275 0.044-3.1 0.063-9.175 0.050l-8.781-0.019-0.594-0.206c-0.825-0.288-1.494-0.7-2.094-1.294-0.8-0.788-1.281-1.656-1.506-2.719-0.125-0.606-0.125-17.519 0-18.125 0.444-2.081 2.050-3.7 4.131-4.156 0.569-0.125 17.569-0.131 18.156-0.006z"
     id="path9" />
  <path
  fill="#141414"
     d="m 15.802213,7.9645816 c -0.205209,0.033117 -0.462462,0.124782 -0.646382,0.2330051 -0.49144,0.2885953 -0.878205,0.8450874 -0.955676,1.3737844 -0.02425,0.1638133 -0.01123,0.6682639 0.02011,0.7918629 0.01301,0.05027 0.02129,0.09344 0.01893,0.09639 -0.0023,0.003 -0.100535,0.02425 -0.215263,0.04909 -1.728615,0.348916 -3.329491,1.109436 -4.6399975,2.20113 -2.1496797,1.791893 -3.5305607,4.347852 -3.839263,7.102517 -0.018924,0.163814 -0.02129,0.172685 -0.060321,0.199888 -0.023064,0.01596 -0.097578,0.08457 -0.1667702,0.15376 -0.104675,0.106449 -0.1348356,0.146663 -0.1969308,0.273219 -0.087525,0.178007 -0.101718,0.247198 -0.101718,0.485527 0,0.277359 0.039031,0.405097 0.2069843,0.68837 0.1697271,0.28623 0.5618145,0.856324 0.7516487,1.094651 0.1224164,0.15376 0.3808511,0.421065 0.5216004,0.538751 0.3063368,0.256068 0.7457348,0.465419 1.0733615,0.51273 0.1898341,0.0272 16.6208386,0.02602 16.9023376,-0.0012 0.413969,-0.04021 0.796002,-0.178006 1.120672,-0.405098 0.120642,-0.08339 0.492622,-0.450043 0.626276,-0.616221 0.119458,-0.147847 0.224133,-0.297466 0.547621,-0.78181 0.396818,-0.590792 0.434076,-0.678317 0.445311,-1.021911 0.0089,-0.253112 -0.0071,-0.336497 -0.0964,-0.520417 -0.06623,-0.132471 -0.219995,-0.308703 -0.348916,-0.398002 l -0.07747,-0.05441 -0.01005,-0.123599 c -0.02306,-0.288615 -0.107628,-0.845107 -0.188056,-1.217087 -0.134836,-0.629233 -0.35483,-1.301636 -0.639286,-1.953932 -0.0964,-0.219995 -0.330584,-0.689554 -0.462462,-0.925515 -0.876431,-1.564803 -2.188711,-2.929715 -3.713299,-3.864102 -0.364883,-0.222952 -0.850409,-0.480203 -1.217067,-0.644017 -0.676543,-0.301605 -1.510394,-0.570685 -2.212957,-0.714391 -0.27736,-0.05618 -0.29865,-0.0615 -0.293327,-0.0893 0.05145,-0.214081 0.05737,-0.271445 0.05737,-0.5387502 0,-0.2442416 -0.0041,-0.2974661 -0.03312,-0.4169256 C 17.879153,9.0545017 17.736629,8.7960671 17.449217,8.5086546 17.173632,8.2312956 16.880306,8.0686651 16.515423,7.9911939 16.357523,7.9580763 15.944737,7.942109 15.802805,7.9639902 Z m 0.446495,1.6842608 c 0.08457,0.057364 0.133653,0.1407493 0.144889,0.2442415 l 0.0071,0.076288 -0.120639,0.1437071 c -0.06623,0.07924 -0.130695,0.159673 -0.144888,0.17978 -0.01419,0.02129 -0.02898,0.02898 -0.03607,0.02129 -0.07747,-0.08634 -0.211124,-0.247198 -0.240102,-0.288595 -0.07215,-0.1046752 -0.03726,-0.2572522 0.08339,-0.3690238 0.05441,-0.049084 0.06328,-0.053225 0.147847,-0.053225 0.07629,0 0.09758,0.00709 0.157899,0.046127 z m 0.05204,2.1165626 c 0.193974,0.144888 0.300423,0.180963 0.672403,0.222951 0.94858,0.109406 1.635176,0.274402 2.419943,0.584879 0.992932,0.392086 1.899523,0.952718 2.688429,1.658239 0.182738,0.163814 0.600846,0.578965 0.755789,0.752832 0.651114,0.721488 1.233035,1.649369 1.616251,2.571928 0.255478,0.617995 0.451226,1.34658 0.557675,2.076348 0.02011,0.137792 0.04021,0.273219 0.04435,0.298649 l 0.0089,0.04612 H 7.1875269 v -0.04021 c 0,-0.126556 0.1105887,-0.755789 0.18806,-1.072179 0.5003107,-2.031994 1.6884005,-3.832167 3.3898111,-5.134394 0.870517,-0.666489 1.905439,-1.169756 3.046218,-1.48319 0.451225,-0.123599 0.715574,-0.173867 1.330613,-0.253112 0.215264,-0.0272 0.426979,-0.05736 0.468376,-0.06623 0.16263,-0.0343 0.327626,-0.139567 0.447086,-0.28623 l 0.05737,-0.07037 0.04731,0.0615 c 0.02602,0.0343 0.08753,0.09344 0.137793,0.130695 z m 8.819896,9.690412 c 0,0.02307 -0.20521,0.280317 -0.321713,0.400959 -0.117685,0.122416 -0.254294,0.222951 -0.36784,0.268488 -0.0615,0.02602 -0.1579,0.0272 -1.853397,0.03903 -2.84633,0.01893 -14.5876613,0.0059 -14.6911535,-0.01597 C 7.7357392,22.118172 7.5991296,22.034786 7.4441871,21.87807 7.3678987,21.800594 7.2602668,21.675224 7.2040853,21.60071 l -0.1005352,-0.136609 0.211124,-0.0071 c 0.3737545,-0.0142 17.8065629,-0.01597 17.8065629,-0.0012 z"
     id="path2116"
     style="stroke-width:0.591384" />
  <path
     fill="#600000"
     d="m 25.18694,9.273678 c -0.117104,0.063236 -1.580895,1.463791 -3.410831,3.26406 -1.765919,1.732349 -3.293726,3.220343 -3.395997,3.313244 l -0.185804,0.160823 -1.156201,-1.146833 c -0.6347,-0.6347 -1.234269,-1.19055 -1.327171,-1.238953 -0.273241,-0.141305 -0.70262,-0.121788 -0.985229,0.04372 -0.478563,0.277924 -0.654218,0.921993 -0.380976,1.385722 0.0687,0.11242 0.83924,0.907942 1.717515,1.765919 1.522344,1.487993 1.610562,1.566062 1.86897,1.639447 0.38566,0.112419 0.683103,0.03903 1.01958,-0.258408 0.13662,-0.121788 1.893171,-1.83462 3.903444,-3.810544 2.625458,-2.576273 3.678608,-3.645036 3.742624,-3.786341 C 26.991892,9.7420924 26.016032,8.8247828 25.18694,9.273678 Z"
     id="path11"
     style="stroke-width:0.780689;fill:#690000;fill-opacity:1" /> -->
</svg>
