<?xml version="1.0" encoding="UTF-8" standalone="no"?>
<!-- Generated by IcoMoon.io -->

<svg
   version="1.1"
   width="45"
   height="32"
   viewBox="0 0 45 32"
   id="svg50"
   sodipodi:docname="closhe.svg"
   xmlns:inkscape="http://www.inkscape.org/namespaces/inkscape"
   xmlns:sodipodi="http://sodipodi.sourceforge.net/DTD/sodipodi-0.dtd"
   xmlns="http://www.w3.org/2000/svg"
   xmlns:svg="http://www.w3.org/2000/svg">
  <defs
     id="defs54" />
  <sodipodi:namedview
     id="namedview52"
     pagecolor="#ffffff"
     bordercolor="#666666"
     borderopacity="1.0"
     inkscape:pageshadow="2"
     inkscape:pageopacity="0.0"
     inkscape:pagecheckerboard="0"
     showgrid="false" />
  <path
     d="m 113.00084,-3.5833096 c -0.0526,0.00752 -0.21804,0.033085 -0.37145,0.055643 -1.68283,0.2481392 -3.19572,1.6647883 -3.6514,3.42281685 -0.29326,1.13392085 -0.12633,2.41371755 0.43312,3.28897205 0.0707,0.1112868 0.20753,0.2962632 0.30077,0.4120614 0.0962,0.1188061 0.17445,0.2180617 0.17445,0.2300927 0,0.00752 -0.12181,0.025566 -0.26618,0.037597 -0.14889,0.015039 -0.55192,0.066171 -0.90082,0.1188061 -5.13874,0.7594563 -10.211307,2.9250345 -14.274774,6.0876815 -2.658849,2.072338 -5.02745,4.627419 -6.889246,7.423121 -2.925035,4.404846 -4.678551,9.298451 -5.189869,14.48832 l -0.0812,0.827131 -0.24814,0.108283 c -0.571472,0.237612 -0.97451,0.66772 -1.182044,1.245207 -0.06317,0.169937 -0.0782,0.303782 -0.0782,0.589519 0,0.670727 0.144372,0.994061 1.057223,2.355066 1.186556,1.771563 1.646742,2.388151 2.294912,3.061887 1.012107,1.049704 2.069331,1.672308 3.266414,1.930974 0.288744,0.06317 1.542974,0.06617 25.626014,0.06317 19.84962,0 25.41094,-0.01048 25.72977,-0.04812 0.88277,-0.09625 1.5159,-0.270698 2.15054,-0.582 0.582,-0.285736 1.03767,-0.622604 1.61215,-1.201596 0.62711,-0.627115 1.00909,-1.115874 1.88737,-2.428756 0.38199,-0.571472 0.82261,-1.224152 0.97901,-1.449733 0.31884,-0.463194 0.55194,-0.92338 0.63766,-1.257239 0.0632,-0.24814 0.0707,-0.738403 0.0181,-0.971503 -0.14137,-0.607565 -0.67527,-1.156479 -1.33546,-1.368525 -0.11126,-0.0376 -0.21505,-0.08122 -0.23008,-0.103773 -0.015,-0.02256 -0.0301,-0.215054 -0.0301,-0.430108 0,-1.308371 -0.48876,-4.1928 -1.0196,-6.039557 -2.22874,-7.744951 -7.3675,-14.351468 -14.3154,-18.4074159 -3.50701,-2.0542916 -7.65621,-3.4739486 -11.54223,-3.9627075 l -0.66321,-0.081209 0.18498,-0.2406197 c 0.5414,-0.7113323 0.86023,-1.8617958 0.79404,-2.85435256 -0.15189,-2.16557824 -1.58358,-3.82585504 -3.65591,-4.24092424 -0.15967,-0.031096 -0.47104,-0.059842 -0.74383,-0.073904 -0.15344,-0.010921 -0.34013,-0.00306 -0.47731,-0.0043 z m 1.0828,2.395671 c 0.70381,0.26317785 1.23167,0.80006085 1.47982,1.51289704 0.0737,0.20452684 0.0857,0.31882125 0.0887,0.72336336 0,0.7233633 -0.0526,0.8496886 -0.58952,1.4196568 -0.45266,0.4827435 -0.66321,0.8150996 -0.72637,1.1534713 -0.0587,0.3082941 0.0102,1.2722772 0.11125,1.5354552 0.14437,0.3819839 0.52335,0.6827587 1.00912,0.8000609 0.0962,0.022558 0.40753,0.055643 0.68575,0.078202 0.58651,0.037597 2.06183,0.2481391 2.88142,0.4120615 3.63337,0.7158438 7.14039,2.1535473 10.23688,4.2048305 2.8318,1.872322 5.33874,4.237916 7.41862,7.006548 1.9866,2.639299 3.60779,5.865107 4.50107,8.954064 0.54442,1.879843 0.88279,3.755174 1.16853,6.439589 l 0.0255,0.2331 H 84.559593 l 0.02256,-0.141364 c 0.01048,-0.07369 0.03007,-0.356418 0.04061,-0.619596 0.07068,-1.490339 0.389504,-3.400259 0.852697,-5.086101 1.345967,-4.919172 3.989777,-9.465383 7.600578,-13.080695 3.633359,-3.636366 7.782542,-6.0621147 12.757362,-7.4516941 1.61966,-0.4526659 2.92954,-0.6962936 4.79736,-0.8902932 0.49327,-0.048124 0.95346,-0.1142945 1.05722,-0.1518914 0.28573,-0.1007591 0.60454,-0.4406349 0.72336,-0.774495 0.0812,-0.237612 0.0887,-0.3188212 0.0933,-0.8902933 0,-0.6195959 -0.003,-0.6346347 -0.10374,-0.845177 -0.0662,-0.1293331 -0.24062,-0.3594259 -0.45267,-0.5865108 -0.64514,-0.6857664 -0.83463,-1.0857969 -0.83463,-1.7535169 0,-0.61959601 0.25263,-1.20159517 0.72335,-1.67230764 0.49628,-0.50079006 0.88579,-0.65568896 1.57606,-0.63463486 0.34438,0.00752 0.47523,0.030078 0.67523,0.1037677 z m 29.5376,36.3531426 c -0.0662,0.100755 -0.24062,0.336867 -0.385,0.530867 -0.14437,0.194 -0.43762,0.600045 -0.64816,0.90834 -1.43169,2.084369 -2.21672,2.828786 -3.40027,3.228817 -0.27821,0.09625 -0.33686,0.100755 -1.53094,0.141364 -0.86323,0.03007 -8.51194,0.04061 -25.1192,0.04061 -22.81979,0 -23.895059,-0.003 -24.277043,-0.06617 -1.097828,-0.181968 -1.697873,-0.50079 -2.47688,-1.312882 -0.460185,-0.481239 -0.794046,-0.923378 -1.520417,-2.013687 -0.329348,-0.50079 -0.700805,-1.037673 -0.819611,-1.201595 -0.118806,-0.159411 -0.2331,-0.321829 -0.255658,-0.359426 -0.03308,-0.07068 0.738402,-0.07068 30.257949,-0.07068 h 30.29402 z"
     id="path48"
     style="stroke:#000000;stroke-width:1.35348;stroke-miterlimit:4;stroke-dasharray:none;stroke-opacity:1"
     sodipodi:nodetypes="cccccsccccccccsccccccccccccsscccccccccccccccccccccccccccccccccccscccccscccscccccscc" />
</svg>
