<!-- Generated by IcoMoon.io -->
<svg version="1.1" xmlns="http://www.w3.org/2000/svg" width="42" height="32" viewBox="0 0 42 32">
<path d="M20.374 2.527c-0.347 0.056-0.782 0.211-1.093 0.394-0.831 0.488-1.485 1.429-1.616 2.323-0.041 0.277-0.019 1.13 0.034 1.339 0.022 0.085 0.036 0.158 0.032 0.163s-0.17 0.041-0.364 0.083c-2.923 0.59-5.63 1.876-7.846 3.722-3.635 3.030-5.97 7.352-6.492 12.010-0.032 0.277-0.036 0.292-0.102 0.338-0.039 0.027-0.165 0.143-0.282 0.26-0.177 0.18-0.228 0.248-0.333 0.462-0.148 0.301-0.172 0.418-0.172 0.821 0 0.469 0.066 0.685 0.35 1.164 0.287 0.484 0.95 1.448 1.271 1.851 0.207 0.26 0.644 0.712 0.882 0.911 0.518 0.433 1.261 0.787 1.815 0.867 0.321 0.046 28.105 0.044 28.581-0.002 0.7-0.068 1.346-0.301 1.895-0.685 0.204-0.141 0.833-0.761 1.059-1.042 0.202-0.25 0.379-0.503 0.926-1.322 0.671-0.999 0.734-1.147 0.753-1.728 0.015-0.428-0.012-0.569-0.163-0.88-0.112-0.224-0.372-0.522-0.59-0.673l-0.131-0.092-0.017-0.209c-0.039-0.488-0.182-1.429-0.318-2.058-0.228-1.064-0.6-2.201-1.081-3.304-0.163-0.372-0.559-1.166-0.782-1.565-1.482-2.646-3.701-4.954-6.279-6.534-0.617-0.377-1.438-0.812-2.058-1.089-1.144-0.51-2.554-0.965-3.742-1.208-0.469-0.095-0.505-0.104-0.496-0.151 0.087-0.362 0.097-0.459 0.097-0.911 0-0.413-0.007-0.503-0.056-0.705-0.17-0.707-0.411-1.144-0.897-1.63-0.466-0.469-0.962-0.744-1.579-0.875-0.267-0.056-0.965-0.083-1.205-0.046zM21.129 5.375c0.143 0.097 0.226 0.238 0.245 0.413l0.012 0.129-0.204 0.243c-0.112 0.134-0.221 0.27-0.245 0.304-0.024 0.036-0.049 0.049-0.061 0.036-0.131-0.146-0.357-0.418-0.406-0.488-0.122-0.177-0.063-0.435 0.141-0.624 0.092-0.083 0.107-0.090 0.25-0.090 0.129 0 0.165 0.012 0.267 0.078zM21.217 8.954c0.328 0.245 0.508 0.306 1.137 0.377 1.604 0.185 2.765 0.464 4.092 0.989 1.679 0.663 3.212 1.611 4.546 2.804 0.309 0.277 1.016 0.979 1.278 1.273 1.101 1.22 2.085 2.789 2.733 4.349 0.432 1.045 0.763 2.277 0.943 3.511 0.034 0.233 0.068 0.462 0.075 0.505l0.015 0.078h-30.229v-0.068c0-0.214 0.187-1.278 0.318-1.813 0.846-3.436 2.855-6.48 5.732-8.682 1.472-1.127 3.222-1.978 5.151-2.508 0.763-0.209 1.21-0.294 2.25-0.428 0.364-0.046 0.722-0.097 0.792-0.112 0.275-0.058 0.554-0.236 0.756-0.484l0.097-0.119 0.080 0.104c0.044 0.058 0.148 0.158 0.233 0.221zM36.131 25.34c0 0.039-0.347 0.474-0.544 0.678-0.199 0.207-0.43 0.377-0.622 0.454-0.104 0.044-0.267 0.046-3.134 0.066-4.813 0.032-24.667 0.010-24.842-0.027-0.255-0.051-0.486-0.192-0.748-0.457-0.129-0.131-0.311-0.343-0.406-0.469l-0.17-0.231 0.357-0.012c0.632-0.024 30.11-0.027 30.11-0.002z"></path>
</svg>
