<!-- Generated by IcoMoon.io -->
<svg version="1.1" xmlns="http://www.w3.org/2000/svg" width="45" height="32" viewBox="0 0 45 32">
<path d="M22.065 0.68c-0.035 0.005-0.145 0.022-0.247 0.037-1.119 0.165-2.125 1.107-2.428 2.276-0.195 0.754-0.084 1.605 0.288 2.187 0.047 0.074 0.138 0.197 0.2 0.274 0.064 0.079 0.116 0.145 0.116 0.153 0 0.005-0.081 0.017-0.177 0.025-0.099 0.010-0.367 0.044-0.599 0.079-3.417 0.505-6.79 1.945-9.492 4.048-1.768 1.378-3.343 3.077-4.581 4.936-1.945 2.929-3.111 6.183-3.451 9.634l-0.054 0.55-0.165 0.072c-0.38 0.158-0.648 0.444-0.786 0.828-0.042 0.113-0.052 0.202-0.052 0.392 0 0.446 0.096 0.661 0.703 1.566 0.789 1.178 1.095 1.588 1.526 2.036 0.673 0.698 1.376 1.112 2.172 1.284 0.192 0.042 1.026 0.044 17.040 0.042 13.199 0 16.897-0.007 17.109-0.032 0.587-0.064 1.008-0.18 1.43-0.387 0.387-0.19 0.69-0.414 1.072-0.799 0.417-0.417 0.671-0.742 1.255-1.615 0.254-0.38 0.547-0.814 0.651-0.964 0.212-0.308 0.367-0.614 0.424-0.836 0.042-0.165 0.047-0.491 0.012-0.646-0.094-0.404-0.449-0.769-0.888-0.91-0.074-0.025-0.143-0.054-0.153-0.069s-0.020-0.143-0.020-0.286c0-0.87-0.325-2.788-0.678-4.016-1.482-5.15-4.899-9.543-9.519-12.24-2.332-1.366-5.091-2.31-7.675-2.635l-0.441-0.054 0.123-0.16c0.36-0.473 0.572-1.238 0.528-1.898-0.101-1.44-1.053-2.544-2.431-2.82-0.19-0.037-0.703-0.069-0.814-0.049zM22.785 2.273c0.468 0.175 0.819 0.532 0.984 1.006 0.049 0.136 0.057 0.212 0.059 0.481 0 0.481-0.035 0.565-0.392 0.944-0.301 0.321-0.441 0.542-0.483 0.767-0.039 0.205 0.007 0.846 0.074 1.021 0.096 0.254 0.348 0.454 0.671 0.532 0.064 0.015 0.271 0.037 0.456 0.052 0.39 0.025 1.371 0.165 1.916 0.274 2.416 0.476 4.748 1.432 6.807 2.796 1.883 1.245 3.55 2.818 4.933 4.659 1.321 1.755 2.399 3.9 2.993 5.954 0.362 1.25 0.587 2.497 0.777 4.282l0.017 0.155h-38.444l0.015-0.094c0.007-0.049 0.020-0.237 0.027-0.412 0.047-0.991 0.259-2.261 0.567-3.382 0.895-3.271 2.653-6.294 5.054-8.698 2.416-2.418 5.175-4.031 8.483-4.955 1.077-0.301 1.948-0.463 3.19-0.592 0.328-0.032 0.634-0.076 0.703-0.101 0.19-0.067 0.402-0.293 0.481-0.515 0.054-0.158 0.059-0.212 0.062-0.592 0-0.412-0.002-0.422-0.069-0.562-0.044-0.086-0.16-0.239-0.301-0.39-0.429-0.456-0.555-0.722-0.555-1.166 0-0.412 0.168-0.799 0.481-1.112 0.33-0.333 0.589-0.436 1.048-0.422 0.229 0.005 0.316 0.020 0.449 0.069zM42.426 26.446c-0.044 0.067-0.16 0.224-0.256 0.353s-0.291 0.399-0.431 0.604c-0.952 1.386-1.474 1.881-2.261 2.147-0.185 0.064-0.224 0.067-1.018 0.094-0.574 0.020-5.66 0.027-16.703 0.027-15.174 0-15.889-0.002-16.143-0.044-0.73-0.121-1.129-0.333-1.647-0.873-0.306-0.32-0.528-0.614-1.011-1.339-0.219-0.333-0.466-0.69-0.545-0.799-0.079-0.106-0.155-0.214-0.17-0.239-0.022-0.047 0.491-0.047 20.12-0.047h20.144l-0.079 0.116z"></path>
</svg>
