<!-- Generated by IcoMoon.io -->
<svg version="1.1" xmlns="http://www.w3.org/2000/svg" width="44" height="32" viewBox="0 0 44 32">
<path d="M21.335 1.236c-1.127 0.206-2.083 1.028-2.489 2.137-0.272 0.743-0.253 1.669 0.052 2.338 0.040 0.092 0.072 0.168 0.067 0.173-0.002 0.005-0.178 0.037-0.389 0.072-3.289 0.557-6.452 1.979-9.003 4.047-0.708 0.572-1.625 1.441-2.234 2.113-2.93 3.237-4.758 7.371-5.149 11.648l-0.015 0.173-0.154 0.092c-0.3 0.178-0.535 0.441-0.681 0.768-0.094 0.208-0.126 0.372-0.126 0.646 0 0.315 0.052 0.528 0.198 0.83 0.141 0.287 0.949 1.508 1.372 2.071 0.81 1.080 1.615 1.699 2.596 1.999 0.253 0.077 0.26 0.077 1.048 0.102 0.468 0.012 7.022 0.017 16.012 0.012 14.224-0.007 15.237-0.012 15.487-0.052 0.778-0.124 1.432-0.399 1.949-0.822 0.282-0.23 0.807-0.785 1.048-1.105 0.379-0.503 1.347-1.954 1.476-2.212 0.161-0.32 0.225-0.567 0.225-0.877 0-0.466-0.129-0.778-0.458-1.105-0.134-0.136-0.255-0.228-0.374-0.29l-0.176-0.092-0.015-0.292c-0.042-0.748-0.258-2.058-0.503-3.041-0.443-1.781-1.228-3.643-2.234-5.313-1.184-1.964-2.749-3.755-4.557-5.211-2.653-2.137-5.84-3.557-9.246-4.119l-0.263-0.045 0.072-0.183c0.493-1.231 0.193-2.685-0.741-3.599-0.441-0.431-1.092-0.76-1.699-0.862-0.31-0.052-0.827-0.052-1.097-0.002zM22.286 3.544c0.218 0.109 0.379 0.263 0.49 0.473 0.084 0.163 0.094 0.203 0.104 0.409 0.015 0.344 0.007 0.364-0.248 0.656-0.285 0.324-0.451 0.575-0.518 0.785-0.045 0.136-0.052 0.22-0.052 0.51 0.005 0.627 0.102 0.944 0.367 1.209 0.159 0.156 0.406 0.297 0.619 0.349 0.082 0.020 0.329 0.054 0.555 0.077 4.037 0.389 7.735 2.133 10.653 5.018 1.385 1.372 2.459 2.833 3.319 4.518 0.859 1.682 1.337 3.133 1.657 5.033 0.074 0.448 0.198 1.355 0.198 1.461v0.057h-34.994l0.012-0.166c0.159-2.026 0.733-4.092 1.689-6.051 1.697-3.477 4.542-6.388 7.906-8.084 1.439-0.726 3.091-1.288 4.669-1.588 0.399-0.074 0.644-0.109 1.803-0.25 0.176-0.020 0.367-0.052 0.428-0.072 0.384-0.114 0.736-0.552 0.805-1.001 0.042-0.277 0.017-0.902-0.040-1.043-0.062-0.151-0.201-0.352-0.374-0.545-0.324-0.359-0.404-0.495-0.424-0.738-0.027-0.322 0.087-0.599 0.347-0.857 0.208-0.203 0.292-0.238 0.614-0.238 0.243 0 0.272 0.005 0.414 0.077zM39.926 26.016c0 0.020-0.542 0.783-0.738 1.040-0.238 0.312-0.689 0.768-0.884 0.894-0.255 0.166-0.513 0.265-0.765 0.29-0.307 0.032-29.887 0.055-30.702 0.022-0.545-0.020-0.629-0.030-0.83-0.089-0.354-0.104-0.53-0.213-0.847-0.518-0.154-0.146-0.362-0.376-0.461-0.508-0.178-0.235-0.76-1.077-0.76-1.1 0-0.007 0.020-0.020 0.045-0.025 0.055-0.015 35.943-0.020 35.943-0.007z"></path>
</svg>
