<!-- Generated by IcoMoon.io -->
<svg version="1.1" xmlns="http://www.w3.org/2000/svg" width="35" height="35" viewBox="0 0 32 32">
<title>closhe</title>
<path d="M15.625 4.569c-0.9 0.144-1.813 0.875-2.156 1.719-0.231 0.569-0.281 1.338-0.125 1.975 0.056 0.238 0.081 0.463 0.050 0.488-0.025 0.031-0.319 0.137-0.644 0.244-0.863 0.287-2.25 0.994-2.906 1.488-1.588 1.194-2.844 2.744-3.575 4.4-0.556 1.275-0.787 2.35-0.894 4.175-0.031 0.6-0.075 1.1-0.094 1.119s-0.406 0.056-0.862 0.075c-0.569 0.025-0.881 0.069-1.013 0.137-0.237 0.131-0.737 0.65-0.862 0.894-0.331 0.675-0.163 1.175 0.981 2.875 0.844 1.256 1.394 1.7 2.269 1.844 0.219 0.038 4.344 0.063 10.425 0.063 11.106 0 10.456 0.025 11.137-0.387 0.494-0.3 0.806-0.663 1.613-1.863 0.762-1.131 0.906-1.438 0.906-1.938 0-0.406-0.137-0.706-0.512-1.1-0.4-0.425-0.706-0.525-1.563-0.525-0.794 0-0.863-0.050-0.863-0.706-0.012-3.081-1.012-5.675-3-7.756-0.931-0.975-1.988-1.744-3.156-2.294-0.544-0.256-0.9-0.394-1.881-0.713-0.050-0.012-0.038-0.162 0.044-0.512 0.281-1.162 0.044-2.081-0.725-2.869-0.431-0.431-0.869-0.675-1.5-0.806-0.488-0.1-0.594-0.106-1.094-0.025zM16.606 6.631c0.369 0.181 0.475 0.4 0.444 0.919-0.025 0.375-0.044 0.425-0.244 0.587-0.113 0.1-0.319 0.206-0.444 0.244-0.781 0.206-1.444-0.662-1.056-1.381 0.25-0.481 0.769-0.625 1.3-0.369zM18.125 10.588c1.694 0.394 2.944 1.106 4.225 2.381 1.056 1.050 1.762 2.175 2.212 3.512 0.262 0.781 0.375 1.619 0.375 2.75v0.956h-7.825c-4.306 0-8.281-0.019-8.825-0.044l-0.994-0.038 0.037-1.038c0.069-1.731 0.381-2.894 1.131-4.219 0.594-1.050 1.306-1.844 2.412-2.688 1.075-0.831 2.331-1.387 3.625-1.625 0.7-0.125 3.012-0.094 3.625 0.050zM27.594 22.262c0.075 0.075-0.981 1.563-1.194 1.688-0.188 0.106-0.544 0.119-6.281 0.15-3.35 0.019-7.925 0.012-10.162-0.019-3.963-0.050-4.081-0.056-4.2-0.175-0.069-0.069-0.35-0.462-0.625-0.869-0.362-0.544-0.481-0.762-0.425-0.8 0.094-0.063 22.831-0.038 22.888 0.025z"></path>
</svg>
