<!-- Generated by IcoMoon.io -->
<svg version="1.1" xmlns="http://www.w3.org/2000/svg" width="44" height="32" viewBox="0 0 44 32">
<path d="M21.159 1.244c-0.208 0.032-0.629 0.165-0.866 0.27-0.658 0.3-1.295 0.936-1.646 1.651-0.281 0.572-0.34 0.877-0.321 1.646 0.014 0.467 0.022 0.542 0.089 0.761 0.040 0.132 0.076 0.259 0.078 0.281 0.003 0.027-0.092 0.054-0.348 0.103-3.529 0.65-6.807 2.248-9.444 4.6-1.899 1.694-3.47 3.748-4.611 6.030-1.104 2.204-1.759 4.463-2.026 6.983l-0.019 0.162-0.162 0.108c-0.289 0.192-0.537 0.51-0.691 0.882-0.059 0.148-0.070 0.219-0.081 0.537-0.022 0.672 0.059 0.863 0.866 2.075 0.947 1.419 1.522 2.064 2.272 2.544 0.437 0.281 1.044 0.526 1.444 0.588 0.294 0.043 31.193 0.043 31.69 0 0.764-0.070 1.524-0.351 2.080-0.766 0.219-0.167 0.988-0.955 1.187-1.22 0.418-0.55 1.346-1.948 1.497-2.253 0.175-0.351 0.2-0.472 0.2-0.958 0-0.389-0.008-0.448-0.065-0.588-0.14-0.356-0.464-0.734-0.777-0.915-0.14-0.081-0.143-0.081-0.143-0.21 0-0.44-0.17-1.573-0.391-2.604-0.478-2.221-1.543-4.657-2.922-6.678-3.033-4.447-7.765-7.479-13.072-8.378-0.084-0.013-0.1-0.027-0.086-0.062 0.078-0.205 0.154-0.553 0.178-0.826 0.097-1.125-0.267-2.137-1.033-2.865-0.459-0.437-1.050-0.745-1.646-0.861-0.27-0.054-0.993-0.076-1.23-0.038zM22.011 3.95c0.151 0.078 0.302 0.232 0.38 0.386 0.062 0.124 0.103 0.394 0.073 0.502-0.008 0.038-0.113 0.183-0.229 0.324-0.224 0.267-0.402 0.521-0.461 0.664-0.035 0.086-0.081 0.113-0.081 0.049 0-0.062-0.197-0.34-0.416-0.594-0.264-0.305-0.313-0.402-0.313-0.621 0-0.208 0.1-0.434 0.262-0.591 0.154-0.151 0.237-0.183 0.461-0.183 0.154 0 0.224 0.014 0.324 0.065zM21.839 7.555c0.081 0.17 0.332 0.426 0.532 0.548 0.256 0.151 0.445 0.197 1.109 0.275 1.57 0.183 2.811 0.469 4.109 0.95 4.036 1.495 7.409 4.482 9.379 8.305 0.944 1.832 1.438 3.451 1.751 5.731 0.030 0.227 0.054 0.418 0.049 0.421-0.005 0.005-7.668 0.019-17.031 0.030l-17.023 0.019 0.019-0.213c0.1-1.152 0.448-2.668 0.896-3.904 1.157-3.195 3.224-5.993 5.949-8.051 1.632-1.236 3.397-2.113 5.456-2.717 1.017-0.3 1.638-0.421 3.041-0.596 0.305-0.038 0.626-0.086 0.715-0.111 0.34-0.084 0.664-0.367 0.845-0.731 0.089-0.181 0.103-0.194 0.124-0.138 0.014 0.035 0.051 0.116 0.081 0.183zM39.069 26.134c0 0.043-0.413 0.591-0.718 0.955-0.294 0.351-0.607 0.596-0.934 0.734-0.143 0.059-0.146 0.059-2.423 0.078-3.397 0.027-27.845 0.024-28.344 0-0.669-0.035-0.915-0.143-1.363-0.594-0.251-0.251-0.37-0.399-0.685-0.853l-0.208-0.297 0.318-0.014c0.445-0.022 34.355-0.030 34.355-0.011z"></path>
</svg>
