<?xml version="1.0" encoding="UTF-8"?>
<!DOCTYPE svg PUBLIC "-//W3C//DTD SVG 1.1//EN" "http://www.w3.org/Graphics/SVG/1.1/DTD/svg11.dtd">
<svg xmlns="http://www.w3.org/2000/svg" version="1.1" width="512px" height="512px" style="shape-rendering:geometricPrecision; text-rendering:geometricPrecision; image-rendering:optimizeQuality; fill-rule:evenodd; clip-rule:evenodd" xmlns:xlink="http://www.w3.org/1999/xlink">
<linearGradient id="gradient1" x1="100%" y1="0%" x2="0%" y2="0%">
    <!-- <stop offset="0%" style="stop-color: #5e2000; stop-opacity: 1" />
    <stop offset="100%" style="stop-color: #5e2000; stop-opacity: .3" /> -->
         <stop offset="0%" style="stop-color: #999999; stop-opacity: .3" />
    <stop offset="100%" style="stop-color: #999999; stop-opacity: .3" />
  </linearGradient>
<path fill="url(#gradient1)" d="M 88.5,-0.5 C 91.5,-0.5 94.5,-0.5 97.5,-0.5C 113.548,3.60865 127.715,11.2753 140,22.5C 142.583,25.9974 144.916,29.6641 147,33.5C 161.055,14.8903 179.555,3.557 202.5,-0.5C 210.833,-0.5 219.167,-0.5 227.5,-0.5C 230.628,0.631903 233.962,1.46524 237.5,2C 245.818,7.56562 246.485,13.8989 239.5,21C 234.555,22.7633 229.555,22.7633 224.5,21C 198.291,18.0225 177.458,27.1891 162,48.5C 157.741,55.6894 154.574,63.3561 152.5,71.5C 174.492,72.3331 196.492,72.8331 218.5,73C 222.575,74.9047 224.908,78.0714 225.5,82.5C 220.069,103.139 217.736,124.139 218.5,145.5C 251.404,141.429 270.904,123.096 277,90.5C 277.911,81.0024 277.078,71.6691 274.5,62.5C 276.924,54.122 282.257,51.2886 290.5,54C 294.566,57.5026 296.732,62.0026 297,67.5C 302.022,106.618 287.855,136.451 254.5,157C 244.107,162.298 233.107,165.464 221.5,166.5C 225.027,188.249 231.861,208.915 242,228.5C 260.878,283.118 249.378,330.285 207.5,370C 190.561,383.968 171.227,392.801 149.5,396.5C 149.333,409.837 149.5,423.171 150,436.5C 151.642,455.137 160.808,468.637 177.5,477C 185.325,479.608 192.991,482.608 200.5,486C 205.69,491.652 206.857,498.152 204,505.5C 201.937,507.734 199.771,509.734 197.5,511.5C 148.167,511.5 98.8333,511.5 49.5,511.5C 41.5628,506.067 39.3961,498.734 43,489.5C 44.1667,488.333 45.3333,487.167 46.5,486C 54.0088,482.608 61.6754,479.608 69.5,477C 86.1917,468.637 95.3584,455.137 97,436.5C 97.6667,423.167 97.6667,409.833 97,396.5C 42.0371,381.708 9.53713,346.375 -0.5,290.5C -0.5,280.5 -0.5,270.5 -0.5,260.5C 2.73556,241.63 8.90223,223.63 18,206.5C 32.766,167.982 35.4327,128.649 26,88.5C 25.3333,84.8333 25.3333,81.1667 26,77.5C 27.5429,75.6217 29.3762,74.1217 31.5,73C 52.8333,72.6667 74.1667,72.3333 95.5,72C 87.1876,62.4143 82.3543,51.2476 81,38.5C 80.1686,28.4547 80.5019,18.4547 82,8.5C 82.8727,4.47542 85.0393,1.47542 88.5,-0.5 Z M 101.5,23.5 C 125.009,30.1884 134.509,45.5218 130,69.5C 109.111,61.4146 99.6109,46.0813 101.5,23.5 Z M 48.5,94.5 C 99.3349,93.1688 150.335,93.1688 201.5,94.5C 199.982,102.123 198.649,109.79 197.5,117.5C 165.427,102.683 137.094,107.849 112.5,133C 91.2243,145.849 71.3909,144.016 53,127.5C 52.2417,116.255 50.7417,105.255 48.5,94.5 Z M 156.5,323.5 C 171.536,326.332 186.536,326.165 201.5,323C 216.049,314.553 221.715,301.887 218.5,285C 221.26,256.093 208.094,242.593 179,244.5C 167.867,243.509 157.7,246.009 148.5,252C 142.798,257.238 139.631,263.738 139,271.5C 137.777,284.353 138.61,297.02 141.5,309.5C 128.517,301.136 115.85,301.636 103.5,311C 93.8878,319.606 85.3878,329.106 78,339.5C 76.7839,343.247 75.9506,347.08 75.5,351C 76.2295,357.161 77.7295,362.995 80,368.5C 48.733,353.228 29.3997,328.561 22,294.5C 18.5141,274.26 20.5141,254.594 28,235.5C 41.2599,209.719 49.2599,182.386 52,153.5C 73.5339,164.934 95.3672,165.434 117.5,155C 126.013,148.909 134.346,142.576 142.5,136C 162.349,126.646 180.516,129.146 197,143.5C 198.273,161.139 201.273,178.472 206,195.5C 212.729,213.954 219.729,232.287 227,250.5C 234.329,284.179 227.329,314.513 206,341.5C 194.497,354.715 180.664,364.215 164.5,370C 172.59,359.035 173.423,347.535 167,335.5C 163.664,331.332 160.164,327.332 156.5,323.5 Z M 167.5,265.5 C 176.235,265.124 184.902,265.624 193.5,267C 194.667,268.167 195.833,269.333 197,270.5C 197.667,280.167 197.667,289.833 197,299.5C 195.661,302.094 193.494,303.594 190.5,304C 182.833,304.667 175.167,304.667 167.5,304C 163.473,303.573 160.973,301.406 160,297.5C 159.333,289.5 159.333,281.5 160,273.5C 160.68,268.989 163.18,266.323 167.5,265.5 Z M 53.5,274.5 C 59.0934,274.193 64.5934,274.527 70,275.5C 70.8056,281.084 70.6389,286.584 69.5,292C 63.9162,292.806 58.4162,292.639 53,291.5C 52.2153,285.751 52.3819,280.084 53.5,274.5 Z M 121.5,324.5 C 124.425,324.46 127.091,325.293 129.5,327C 135.667,333.167 141.833,339.333 148,345.5C 150.721,348.638 151.054,351.971 149,355.5C 141.833,362.667 134.667,369.833 127.5,377C 124.833,377.667 122.167,377.667 119.5,377C 112.333,369.833 105.167,362.667 98,355.5C 95.9461,351.971 96.2795,348.638 99,345.5C 106.095,337.9 113.595,330.9 121.5,324.5 Z M 118.5,398.5 C 121.728,399.414 125.061,399.747 128.5,399.5C 128.333,412.171 128.5,424.838 129,437.5C 130.534,459.406 140.034,476.906 157.5,490C 134.833,490.667 112.167,490.667 89.5,490C 106.966,476.906 116.466,459.406 118,437.5C 118.5,424.504 118.667,411.504 118.5,398.5 Z"/>
<path fill="url(#gradient1)" d="M 266.5,20.5 C 276.834,22.8363 280,28.8363 276,38.5C 271.308,43.2157 266.141,43.7157 260.5,40C 255.899,35.2291 255.399,30.0624 259,24.5C 261.255,22.5012 263.755,21.1679 266.5,20.5 Z"/>
<path  fill="url(#gradient1)" d="M 366.5,26.5 C 375.125,24.6337 380.125,27.9671 381.5,36.5C 380.125,45.1951 375.125,48.3618 366.5,46C 358.555,39.5029 358.555,33.0029 366.5,26.5 Z"/>
<path  fill="url(#gradient1)" d="M 443.5,72.5 C 448.447,71.6276 452.613,72.9609 456,76.5C 457.416,82.7145 457.916,89.0478 457.5,95.5C 463.176,95.3339 468.843,95.5006 474.5,96C 480.235,99.4829 482.068,104.316 480,110.5C 479.052,112.57 477.552,114.07 475.5,115C 469.593,116.361 463.593,116.861 457.5,116.5C 457.666,122.176 457.499,127.843 457,133.5C 450.667,141.5 444.333,141.5 438,133.5C 436.711,127.912 436.211,122.245 436.5,116.5C 430.738,116.851 425.072,116.351 419.5,115C 415.875,112.929 413.875,109.763 413.5,105.5C 414.092,101.071 416.425,97.9047 420.5,96C 425.823,95.5006 431.156,95.334 436.5,95.5C 436.261,89.4348 436.761,83.4348 438,77.5C 439.73,75.5981 441.563,73.9314 443.5,72.5 Z"/>
<path fill="url(#gradient1)" d="M 345.5,141.5 C 366.937,140.698 378.937,150.864 381.5,172C 380.005,190.828 369.839,200.995 351,202.5C 336.809,201.63 327.143,194.63 322,181.5C 317.8,160.88 325.633,147.546 345.5,141.5 Z M 348.5,162.5 C 358.102,162.727 361.602,167.394 359,176.5C 353.667,183.167 348.333,183.167 343,176.5C 340.667,170.17 342.5,165.504 348.5,162.5 Z"/>
<path fill="url(#gradient1)" d="M 152.5,154.5 C 163.486,153.653 167.986,158.653 166,169.5C 159.667,177.5 153.333,177.5 147,169.5C 145.087,162.97 146.92,157.97 152.5,154.5 Z"/>
<path  fill="url(#gradient1)" d="M 72.5,194.5 C 82.1034,195.031 85.9367,200.031 84,209.5C 81.0812,215.025 76.5812,216.858 70.5,215C 64.8912,211.723 63.0578,206.89 65,200.5C 66.7074,197.41 69.2074,195.41 72.5,194.5 Z"/>
<path fill="url(#gradient1)" d="M 172.5,212.5 C 182.103,213.031 185.937,218.031 184,227.5C 181.081,233.025 176.581,234.858 170.5,233C 164.891,229.723 163.058,224.89 165,218.5C 166.707,215.41 169.207,213.41 172.5,212.5 Z"/>
<path  fill="url(#gradient1)" d="M 511.5,250.5 C 511.5,256.167 511.5,261.833 511.5,267.5C 503.01,306.655 479.01,329.988 439.5,337.5C 435.592,362.074 421.592,377.407 397.5,383.5C 397.121,403.197 397.621,422.864 399,442.5C 404.772,466.241 419.272,481.741 442.5,489C 449.627,489.797 456.627,491.13 463.5,493C 469.279,499.933 468.612,506.099 461.5,511.5C 411.833,511.5 362.167,511.5 312.5,511.5C 307.754,507.658 306.254,502.658 308,496.5C 309.167,494.667 310.667,493.167 312.5,492C 346.223,490.746 367.389,473.912 376,441.5C 376.5,422.17 376.667,402.836 376.5,383.5C 352.636,377.468 338.636,362.302 334.5,338C 293.73,329.898 269.897,305.398 263,264.5C 262.333,260.5 262.333,256.5 263,252.5C 264.396,247.772 267.562,245.272 272.5,245C 280.029,243.928 287.362,244.595 294.5,247C 300.259,253.769 299.592,259.769 292.5,265C 289.854,265.497 287.187,265.664 284.5,265.5C 292.687,298.123 313.687,315.456 347.5,317.5C 343.03,298.6 349.364,284.433 366.5,275C 375.734,271.537 384.901,271.703 394,275.5C 397.787,272.716 401.287,269.549 404.5,266C 390.167,265.667 375.833,265.333 361.5,265C 356.725,261.345 355.225,256.512 357,250.5C 358.167,248.667 359.667,247.167 361.5,246C 383.124,244.723 404.791,244.056 426.5,244C 434.833,235.667 443.167,227.333 451.5,219C 457,214.255 462.334,214.421 467.5,219.5C 469.98,223.687 470.147,228.02 468,232.5C 464.167,236.333 460.333,240.167 456.5,244C 471.5,244.333 486.5,244.667 501.5,245C 505.686,245.368 509.02,247.201 511.5,250.5 Z M 434.5,265.5 C 452.833,265.5 471.167,265.5 489.5,265.5C 485.546,288.214 472.879,304.047 451.5,313C 442.698,315.682 433.698,317.349 424.5,318C 422.667,319.167 421.167,320.667 420,322.5C 420.979,336.792 416.146,348.625 405.5,358C 389.899,366.777 375.733,364.943 363,352.5C 358.044,345.965 355.71,338.632 356,330.5C 369.629,341.135 384.129,342.301 399.5,334C 413.242,322.036 416.575,307.703 409.5,291C 418.036,282.632 426.369,274.132 434.5,265.5 Z M 376.5,293.5 C 384.151,292.985 389.318,296.318 392,303.5C 392.137,314.694 386.637,319.528 375.5,318C 368.547,314.59 366.047,309.09 368,301.5C 370.074,297.923 372.907,295.256 376.5,293.5 Z M 386.5,472.5 C 391.57,479.076 397.237,485.243 403.5,491C 392.833,491.667 382.167,491.667 371.5,491C 377.827,485.81 382.827,479.643 386.5,472.5 Z"/>
<path  fill="url(#gradient1)" d="M 106.5,225.5 C 118.79,224.449 123.29,229.782 120,241.5C 115.439,246.586 110.273,247.419 104.5,244C 98.923,237.146 99.5896,230.979 106.5,225.5 Z"/>
<path  fill="url(#gradient1)" d="M 321.5,245.5 C 332.822,243.657 337.655,248.324 336,259.5C 332.723,265.109 327.89,266.942 321.5,265C 316.725,261.345 315.225,256.512 317,250.5C 318.366,248.638 319.866,246.972 321.5,245.5 Z"/>
<path  fill="url(#gradient1)" d="M 48.5,253.5 C 81.5918,247.76 95.7585,261.427 91,294.5C 88.8333,304.667 82.6667,310.833 72.5,313C 39.3058,317.803 25.8058,303.637 32,270.5C 34.6841,261.984 40.1841,256.317 48.5,253.5 Z M 53.5,274.5 C 52.3819,280.084 52.2153,285.751 53,291.5C 58.4162,292.639 63.9162,292.806 69.5,292C 70.6389,286.584 70.8056,281.084 70,275.5C 64.5934,274.527 59.0934,274.193 53.5,274.5 Z"/>
</svg>
