<!-- Generated by IcoMoon.io -->
<svg version="1.1" xmlns="http://www.w3.org/2000/svg" width="32" height="32" viewBox="0 0 32 32">
<title>cocktailCard</title>
<path d="M2.267 0.933c3.733 0.8 7.067 4.4 3.867 4.4-3.333 0-2.533 1.733 3.2 7.333 4.8 4.667 5.333 5.867 5.333 11.467 0 5.467-0.4 6.4-2.933 6.933-1.733 0.267 0.267 0.533 4.267 0.533s6-0.267 4.4-0.533c-2.667-0.533-3.067-1.467-3.067-6.933 0-5.6 0.533-6.8 5.333-11.467 2.933-2.8 5.333-5.733 5.333-6.267s-4.133-1.067-9.333-1.067c-7.867 0-9.467-0.4-10.667-2.667-0.933-1.733-2.667-2.667-5.067-2.533-2.933 0.133-3.067 0.267-0.667 0.8zM20.933 11.6l-4.933 5.067-4.933-5.067-5.067-4.933h20l-5.067 4.933z"></path>
<path d="M22.533 2.267c-1.467 2-1.467 2.133 0.133 0.667 4.8-4.133 10 0.133 6.667 5.6-1.6 2.533-1.6 2.667 0.4 0.933 2.667-2.133 2.933-5.6 0.667-7.867s-5.733-2-7.867 0.667z"></path>
</svg>
