<!-- Generated by IcoMoon.io -->
<svg version="1.1" xmlns="http://www.w3.org/2000/svg" width="32" height="32" viewBox="0 0 32 32">
<linearGradient id="gradient1" x1="100%" y1="0%" x2="0%" y2="0%">
    <stop offset="0%" style="stop-color: #5e2000; stop-opacity: 1" />
    <stop offset="100%" style="stop-color: #5e2000; stop-opacity: .5" />
  </linearGradient>
<path fill="url(#gradient1)" d="M1.488 3.913c-0.331 0.175-0.363 0.337-0.363 1.731 0 1.25 0 1.275 0.144 1.406 0.206 0.194 0.5 0.181 0.662-0.025 0.119-0.156 0.131-0.25 0.131-1.219v-1.056h18.75v18.5h-11.3l-0.137-0.212c-0.194-0.325-0.806-0.856-1.188-1.050-1.275-0.637-2.787-0.413-3.775 0.55-0.188 0.181-0.394 0.419-0.45 0.525l-0.112 0.188h-1.788v-2.306l4.762-0.038 0.15-0.175c0.181-0.212 0.188-0.35 0.019-0.569l-0.125-0.163h-4.806v-11.319l-0.156-0.15c-0.081-0.088-0.225-0.156-0.313-0.156s-0.231 0.069-0.313 0.156l-0.156 0.15v11.319h-0.425c-0.369 0-0.45 0.019-0.563 0.144-0.244 0.256-0.156 0.606 0.181 0.725 0.112 0.038 0.338 0.069 0.5 0.069h0.306v1.35c0 1.881 0.012 1.9 1.462 1.9h0.856l-0.038 0.45c-0.131 1.456 0.819 2.894 2.219 3.375 0.575 0.2 1.625 0.2 2.138 0 0.556-0.225 0.763-0.387 0.788-0.631s-0.181-0.506-0.4-0.506c-0.075 0-0.3 0.075-0.5 0.169-0.319 0.15-0.45 0.175-0.963 0.175-0.55 0-0.631-0.019-1.013-0.206-0.519-0.256-0.987-0.75-1.181-1.25-0.194-0.494-0.194-1.219 0-1.719 0.2-0.506 0.706-1.038 1.206-1.269 0.35-0.163 0.463-0.181 0.987-0.181 0.544 0 0.631 0.019 1.006 0.2 0.494 0.244 0.875 0.637 1.106 1.131 0.156 0.331 0.169 0.419 0.169 1.188 0 0.756 0.012 0.844 0.119 0.925 0.188 0.131 0.463 0.106 0.631-0.063 0.175-0.175 0.244-0.613 0.206-1.319l-0.019-0.469h12.125l-0.019 0.556c-0.044 1.025 0.231 1.744 0.919 2.444 1.569 1.594 4.188 1.212 5.225-0.762 0.294-0.556 0.431-1.194 0.381-1.781l-0.044-0.45 3.069-0.038 0.2-0.206 0.206-0.2 0.019-3.2c0.012-2.738 0-3.238-0.081-3.481-0.212-0.637-0.806-1.069-1.481-1.069-0.406 0-0.706-0.1-0.887-0.3-0.1-0.119-2.413-7.225-2.413-7.438 0-0.050 0.106-0.075 0.337-0.075 0.275 0 0.375-0.031 0.531-0.162 0.325-0.269 0.337-0.481 0.106-1.431-0.113-0.463-0.256-0.912-0.313-1-0.219-0.338-0.3-0.344-3.288-0.344h-2.75v-0.487c0-0.537-0.069-0.7-0.375-0.856-0.156-0.081-1.4-0.094-9.95-0.094-8.519 0.006-9.794 0.019-9.938 0.1zM27.169 6.719l0.125 0.531h-5.544v-1.063h5.288l0.131 0.531zM27.306 12.012c0.669 2.106 1.25 3.906 1.3 4 0.131 0.269 0.512 0.619 0.813 0.75 0.15 0.069 0.475 0.137 0.725 0.15 0.25 0.019 0.519 0.069 0.594 0.106 0.169 0.081 0.325 0.344 0.325 0.544 0 0.119-0.038 0.125-0.575 0.125-0.719 0-0.994 0.075-1.2 0.319-0.156 0.188-0.163 0.212-0.163 1.144 0 0.887 0.012 0.969 0.137 1.131 0.206 0.269 0.475 0.344 1.175 0.344h0.625v2.625h-1.481l-1.488-0.006-0.244-0.337c-1.081-1.512-3.394-1.712-4.8-0.419-0.194 0.188-0.419 0.431-0.488 0.55-0.125 0.2-0.156 0.212-0.475 0.212h-0.337v-15.063h4.344l1.212 3.825zM31.063 19.156v0.531h-1v-1.063h1v0.531zM26.238 22.781c0.5 0.225 1.006 0.756 1.206 1.262 0.194 0.5 0.194 1.225 0 1.719-0.194 0.5-0.663 0.994-1.181 1.25-0.381 0.188-0.462 0.206-1.012 0.206-0.519-0.006-0.637-0.025-0.944-0.175-0.525-0.256-0.894-0.613-1.131-1.094-0.194-0.387-0.206-0.462-0.206-1.044 0-0.544 0.019-0.669 0.163-0.975 0.294-0.619 0.8-1.069 1.45-1.281 0.431-0.144 1.188-0.081 1.656 0.131z"></path>
<path fill="url(#gradient1)" d="M22.944 9.331c-0.081 0.037-0.212 0.156-0.281 0.25-0.131 0.175-0.131 0.238-0.15 3.387-0.019 3.556-0.019 3.538 0.375 3.781 0.194 0.119 0.313 0.125 2.175 0.125 1.844 0 1.981-0.006 2.15-0.119 0.238-0.156 0.344-0.356 0.35-0.625 0-0.313-1.606-6.381-1.744-6.569-0.206-0.287-0.337-0.313-1.569-0.313-0.794 0-1.206 0.025-1.306 0.081zM25.825 13c0.406 1.531 0.738 2.819 0.738 2.856 0 0.063-0.356 0.081-1.563 0.081h-1.563v-5.756l1.656 0.037 0.731 2.781z"></path>
<path fill="url(#gradient1)" d="M22.969 17.969c-0.181 0.175-0.194 0.281-0.063 0.525 0.113 0.225 0.231 0.256 0.975 0.256 0.512 0 0.625-0.019 0.769-0.131 0.206-0.163 0.225-0.494 0.038-0.681-0.113-0.113-0.206-0.125-0.844-0.125-0.688 0-0.731 0.006-0.875 0.156z"></path>
<path fill="url(#gradient1)" d="M24.794 23.4c-0.856 0.306-1.288 1.137-1.031 1.988 0.094 0.313 0.494 0.769 0.825 0.938 0.188 0.1 0.369 0.137 0.663 0.137 0.913 0 1.563-0.656 1.563-1.575 0-0.688-0.444-1.288-1.087-1.481-0.375-0.113-0.619-0.113-0.931-0.006zM25.519 24.319c0.512 0.262 0.469 0.981-0.069 1.188-0.231 0.087-0.488 0.012-0.669-0.206-0.425-0.5 0.156-1.275 0.738-0.981z"></path>
<path fill="url(#gradient1)" d="M10.806 7.112c-0.444 0.231-0.694 0.625-0.731 1.138l-0.025 0.369-0.45 0.131c-2.112 0.631-3.775 2.375-4.319 4.525-0.088 0.338-0.156 0.706-0.156 0.819 0 0.181-0.031 0.225-0.294 0.35-0.481 0.244-0.55 0.387-0.55 1.175 0 0.744 0.063 0.912 0.425 1.138 0.194 0.119 0.344 0.119 6.806 0.106l6.606-0.019 0.194-0.188c0.256-0.244 0.331-0.531 0.306-1.175-0.031-0.619-0.125-0.806-0.531-1.012-0.313-0.162-0.313-0.162-0.356-0.588-0.094-0.869-0.663-2.175-1.3-2.975-0.85-1.069-2.094-1.894-3.344-2.213l-0.262-0.069-0.025-0.406c-0.031-0.531-0.256-0.869-0.731-1.112-0.456-0.225-0.819-0.225-1.262 0.006zM11.75 8c0.069 0.069 0.125 0.206 0.125 0.313v0.188h-0.438c-0.431 0-0.438 0-0.438-0.169 0-0.381 0.488-0.594 0.75-0.331zM12.762 9.588c2.15 0.544 3.762 2.344 4.069 4.55l0.038 0.238h-10.825l0.037-0.369c0.088-0.813 0.569-1.875 1.206-2.662 0.638-0.781 1.831-1.519 2.869-1.775 0.75-0.181 1.838-0.175 2.606 0.019zM17.688 15.625v0.313h-12.5v-0.625h12.5v0.313z"></path>
<path fill="url(#gradient1)" d="M2.663 18.256c-0.206 0.163-0.225 0.494-0.038 0.681 0.119 0.119 0.206 0.125 3.394 0.125h3.275l0.131-0.144c0.194-0.206 0.181-0.5-0.025-0.663-0.162-0.131-0.225-0.131-3.369-0.131s-3.206 0-3.369 0.131z"></path>
<path fill="url(#gradient1)" d="M6.188 23.406c-0.631 0.206-1.063 0.8-1.063 1.488 0 0.625 0.275 1.087 0.819 1.387 0.813 0.444 1.781 0.094 2.175-0.781 0.537-1.188-0.675-2.5-1.931-2.094zM7.144 24.5c0.219 0.25 0.225 0.544 0.013 0.8-0.388 0.462-1.094 0.206-1.094-0.387 0.006-0.613 0.669-0.869 1.081-0.413z"></path>
</svg>
