<!-- Generated by IcoMoon.io -->
<svg version="1.1" xmlns="http://www.w3.org/2000/svg" width="32" height="32" viewBox="0 0 32 32">
<title>delivery</title>

  <path d="M4.217 27.686c0.043-0.006 0.113-0.006 0.155 0s0.008 0.012-0.078 0.012c-0.085 0-0.12-0.005-0.078-0.012zM27.783 27.686c0.043-0.006 0.113-0.006 0.155 0s0.008 0.012-0.078 0.012c-0.085 0-0.12-0.005-0.078-0.012zM3.921 27.659c0.019-0.008 0.051-0.008 0.071 0s0.004 0.014-0.035 0.014c-0.039 0-0.055-0.006-0.035-0.014zM28.179 27.658c0.027-0.007 0.066-0.007 0.085 0.001s-0.003 0.014-0.050 0.013c-0.047-0.001-0.062-0.007-0.035-0.014zM3.858 27.607c-0.424-0.078-0.776-0.196-1.145-0.382-0.093-0.047-0.182-0.078-0.197-0.068s-0.024 0.002-0.020-0.017c0.004-0.019-0.010-0.040-0.031-0.048-0.026-0.010-0.032-0.002-0.017 0.022s0.011 0.029-0.011 0.016c-0.018-0.011-0.027-0.031-0.019-0.044s-0.017-0.044-0.055-0.069c-0.090-0.059-0.116-0.058-0.069 0.004 0.032 0.043 0.032 0.044-0.004 0.013-0.023-0.020-0.041-0.051-0.041-0.068s-0.018-0.037-0.039-0.045c-0.027-0.009-0.032-0.001-0.017 0.026 0.013 0.023 0.012 0.029-0.003 0.015-0.014-0.013-0.026-0.032-0.026-0.042-0.001-0.036-0.046-0.089-0.075-0.089-0.018 0-0.015 0.020 0.008 0.049 0.031 0.040 0.026 0.039-0.025-0.005-0.035-0.030-0.057-0.061-0.049-0.069 0.019-0.019-0.129-0.174-0.166-0.174-0.016 0 0.009 0.041 0.054 0.092 0.062 0.068 0.052 0.064-0.036-0.019-0.065-0.061-0.113-0.119-0.107-0.13s-0.029-0.056-0.078-0.101c-0.078-0.070-0.083-0.072-0.035-0.011 0.030 0.039 0.002 0.020-0.064-0.041s-0.119-0.118-0.119-0.125c0-0.007 0.032 0.017 0.071 0.053s0.071 0.054 0.071 0.038c0-0.037-0.155-0.184-0.174-0.165-0.008 0.008-0.033-0.007-0.054-0.035-0.036-0.046-0.035-0.047 0.010-0.011 0.027 0.021 0.049 0.026 0.049 0.011 0-0.036-0.071-0.096-0.090-0.077-0.008 0.008-0.032-0.008-0.054-0.036-0.036-0.046-0.035-0.047 0.010-0.011 0.027 0.021 0.049 0.026 0.049 0.011 0-0.032-0.087-0.111-0.105-0.096-0.007 0.005-0.021 0-0.031-0.012s-0.001-0.011 0.020 0.002c0.027 0.015 0.035 0.010 0.026-0.017-0.007-0.022-0.027-0.039-0.044-0.039s-0.041-0.012-0.054-0.026c-0.014-0.015-0.008-0.016 0.015-0.003 0.027 0.015 0.035 0.010 0.026-0.017-0.007-0.022-0.027-0.039-0.044-0.039s-0.041-0.012-0.054-0.026c-0.014-0.015-0.009-0.017 0.012-0.005 0.052 0.030 0.048 0.020-0.101-0.262-0.075-0.142-0.147-0.248-0.16-0.237s-0.014 0.005-0.003-0.015c0.011-0.020-0.013-0.134-0.054-0.254-0.111-0.323-0.183-0.689-0.199-1.022-0.008-0.163-0.020-0.346-0.026-0.408-0.006-0.063-0.001-0.095 0.011-0.075 0.016 0.026 0.028 0.016 0.040-0.034 0.010-0.039 0.025-0.094 0.035-0.123 0.014-0.044 0.012-0.046-0.016-0.010-0.029 0.038-0.032 0.038-0.021 0 0.006-0.023 0.028-0.042 0.049-0.042s0.043-0.018 0.051-0.039c0.009-0.026 0.001-0.032-0.023-0.017s-0.029 0.011-0.015-0.012c0.012-0.019 0.028-0.027 0.037-0.019 0.020 0.020 0.092-0.038 0.092-0.075 0-0.016-0.022-0.011-0.049 0.009s-0.012-0.003 0.033-0.053c0.083-0.091 0.138-0.128 0.072-0.048-0.050 0.061-0.011 0.052 0.085-0.019 0.045-0.034 0.075-0.074 0.065-0.089s-0.003-0.019 0.015-0.008c0.018 0.011 0.090 0 0.161-0.024 0.115-0.039 1.645-0.044 14.887-0.044 14.689 0 14.76 0 14.907 0.056 0.175 0.067 0.171 0.066 0.146 0.021-0.012-0.020-0.010-0.025 0.005-0.012s0.026 0.037 0.026 0.054 0.018 0.036 0.039 0.044c0.027 0.009 0.032 0.001 0.016-0.026-0.020-0.033-0.016-0.033 0.025 0 0.027 0.022 0.042 0.046 0.034 0.054-0.021 0.021 0.044 0.092 0.069 0.077 0.012-0.007 0.045 0.015 0.074 0.049 0.044 0.052 0.045 0.056 0.004 0.024-0.066-0.051-0.062-0.034 0.020 0.114 0.115 0.206 0.139 0.383 0.101 0.74-0.044 0.41-0.135 0.778-0.287 1.16-0.068 0.171-0.122 0.326-0.12 0.345s-0.006 0.029-0.019 0.021c-0.012-0.008-0.055 0.045-0.096 0.117-0.083 0.148-0.087 0.163-0.038 0.135 0.020-0.012 0.025-0.010 0.012 0.005s-0.037 0.026-0.054 0.026-0.036 0.018-0.044 0.039c-0.009 0.027-0.001 0.032 0.026 0.017 0.023-0.013 0.029-0.012 0.015 0.003-0.013 0.014-0.037 0.026-0.054 0.026s-0.036 0.018-0.044 0.039c-0.009 0.026-0.001 0.032 0.023 0.017s0.029-0.011 0.015 0.012c-0.012 0.019-0.028 0.027-0.037 0.019-0.020-0.020-0.091 0.038-0.091 0.075 0 0.016 0.022 0.011 0.049-0.011 0.045-0.035 0.046-0.034 0.010 0.011-0.022 0.028-0.046 0.043-0.054 0.035-0.019-0.019-0.118 0.070-0.118 0.106 0 0.015 0.022 0.010 0.049-0.011s0.019-0.004-0.018 0.038c-0.037 0.042-0.076 0.071-0.087 0.064-0.024-0.015-0.346 0.308-0.326 0.328 0.008 0.008-0.020 0.046-0.062 0.083s-0.060 0.046-0.039 0.019c0.021-0.027 0.026-0.049 0.011-0.049-0.036 0-0.125 0.099-0.106 0.118 0.008 0.008-0.008 0.033-0.035 0.054-0.046 0.036-0.047 0.035-0.011-0.010 0.021-0.027 0.026-0.049 0.011-0.049-0.032 0-0.084 0.056-0.092 0.099-0.003 0.016-0.012 0.035-0.021 0.042s-0.006-0.003 0.006-0.025c0.015-0.027 0.010-0.035-0.017-0.026-0.022 0.007-0.039 0.027-0.039 0.044s-0.012 0.041-0.026 0.054c-0.015 0.014-0.016 0.008-0.003-0.015 0.015-0.027 0.010-0.035-0.017-0.026-0.022 0.007-0.039 0.027-0.039 0.044s-0.012 0.041-0.026 0.054c-0.015 0.014-0.017 0.009-0.005-0.012 0.030-0.052 0.004-0.044-0.167 0.052-0.085 0.048-0.148 0.099-0.139 0.113s-0.006 0.017-0.033 0.007c-0.033-0.013-0.042-0.008-0.028 0.014 0.013 0.021 0.005 0.027-0.021 0.017-0.023-0.009-0.090 0.009-0.15 0.040-0.163 0.083-0.639 0.223-0.927 0.272-0.226 0.039-1.579 0.043-12.248 0.040-9.669-0.002-12.033-0.010-12.192-0.039zM28.363 27.63c0.020-0.008 0.045-0.007 0.054 0.002s-0.007 0.016-0.037 0.015c-0.033-0.001-0.040-0.008-0.017-0.017zM28.504 27.602c0.020-0.008 0.045-0.007 0.054 0.002s-0.007 0.016-0.037 0.015c-0.033-0.001-0.040-0.008-0.017-0.017zM29.159 27.396c0.023-0.015 0.055-0.027 0.071-0.027s0.009 0.012-0.014 0.027c-0.023 0.015-0.055 0.027-0.071 0.027s-0.009-0.012 0.014-0.027zM29.61 27.186c0-0.008 0.025-0.028 0.056-0.044s0.056-0.024 0.056-0.016c0 0.008-0.025 0.028-0.056 0.044s-0.056 0.024-0.056 0.016zM30.372 26.625c0-0.005 0.041-0.046 0.092-0.092l0.092-0.083-0.083 0.092c-0.077 0.085-0.101 0.105-0.101 0.083zM31.050 25.759c0.017-0.031 0.037-0.056 0.044-0.056s0 0.025-0.016 0.056c-0.017 0.031-0.037 0.056-0.044 0.056s-0-0.025 0.016-0.056zM1.021 25.646c-0.017-0.031-0.024-0.056-0.016-0.056s0.028 0.025 0.044 0.056c0.017 0.031 0.024 0.056 0.016 0.056s-0.028-0.025-0.044-0.056zM31.207 25.468c0.011-0.028 0.026-0.044 0.035-0.035s0 0.031-0.019 0.051c-0.028 0.028-0.031 0.024-0.016-0.016zM0.813 25.207c-0.027-0.071-0.019-0.089 0.014-0.032 0.016 0.028 0.024 0.057 0.017 0.065s-0.021-0.007-0.031-0.033zM0.657 24.698c0.001-0.033 0.008-0.040 0.017-0.017 0.008 0.020 0.007 0.045-0.002 0.054s-0.016-0.007-0.015-0.037zM0.628 24.585c0.001-0.033 0.008-0.040 0.017-0.017 0.008 0.020 0.007 0.045-0.002 0.054s-0.016-0.007-0.015-0.037zM31.532 24.5c0.001-0.033 0.008-0.040 0.017-0.017 0.008 0.020 0.007 0.045-0.002 0.054s-0.016-0.007-0.015-0.037zM0.602 24.432c0-0.039 0.006-0.055 0.014-0.035s0.008 0.051 0 0.071c-0.008 0.019-0.014 0.004-0.014-0.035zM31.562 24.319c0-0.039 0.006-0.055 0.014-0.035s0.008 0.051 0 0.071c-0.008 0.019-0.014 0.004-0.014-0.035zM0.574 24.263c0-0.039 0.006-0.055 0.014-0.035s0.008 0.051 0 0.071c-0.008 0.019-0.014 0.004-0.014-0.035zM31.593 24.079c0-0.062 0.006-0.084 0.013-0.049s0.006 0.086-0.001 0.113c-0.007 0.027-0.013-0.002-0.012-0.064zM0.551 23.84c0-0.132 0.005-0.186 0.011-0.12s0.006 0.174 0 0.24c-0.006 0.066-0.011 0.012-0.011-0.12zM31.588 23.597c0.001-0.033 0.008-0.040 0.017-0.017 0.008 0.020 0.007 0.045-0.002 0.054s-0.016-0.007-0.015-0.037zM30.903 22.861c0.020-0.008 0.045-0.007 0.054 0.002s-0.007 0.016-0.037 0.015c-0.033-0.001-0.040-0.008-0.017-0.017zM8.707 22.831c4.064-0.004 10.706-0.004 14.76 0s0.729 0.007-7.389 0.007c-8.118 0-11.435-0.003-7.371-0.007zM1.886 21.024c-0.007-0.012 6.377-0.021 14.187-0.021h14.2l0.018-0.085c0.017-0.079 0.018-0.079 0.021-0.013 0.002 0.040-0.012 0.087-0.031 0.106-0.026 0.026-3.221 0.034-14.208 0.034-7.796 0-14.18-0.010-14.187-0.021zM1.921 20.954c-0.018-0.176 0.065-0.932 0.173-1.573 0.043-0.257 0.191-0.908 0.258-1.139 0.032-0.109 0.049-0.226 0.039-0.268-0.010-0.044-0.008-0.060 0.007-0.039 0.015 0.023 0.052-0.056 0.104-0.226 0.106-0.348 0.411-1.166 0.537-1.444 0.056-0.123 0.095-0.24 0.087-0.261s-0.004-0.035 0.008-0.031c0.012 0.004 0.143-0.228 0.291-0.515s0.309-0.587 0.358-0.666c0.094-0.153 0.109-0.196 0.056-0.164-0.020 0.013-0.025 0.008-0.012-0.013 0.011-0.018 0.032-0.026 0.045-0.018s0.038-0.010 0.054-0.040c0.039-0.072 0.038-0.096-0.003-0.070-0.020 0.013-0.025 0.008-0.012-0.013 0.011-0.018 0.032-0.026 0.045-0.018s0.038-0.010 0.054-0.040c0.039-0.073 0.037-0.095-0.006-0.070-0.021 0.012-0.025 0.010-0.012-0.005s0.037-0.026 0.054-0.026 0.036-0.018 0.044-0.039c0.009-0.027 0.001-0.032-0.026-0.017-0.023 0.013-0.029 0.012-0.015-0.003 0.013-0.014 0.037-0.026 0.054-0.026s0.036-0.018 0.044-0.039c0.009-0.027 0.001-0.032-0.026-0.017-0.023 0.013-0.029 0.012-0.015-0.003 0.013-0.014 0.037-0.026 0.054-0.026s0.036-0.018 0.044-0.039c0.009-0.027 0.001-0.032-0.026-0.017-0.023 0.013-0.029 0.012-0.015-0.003 0.013-0.014 0.037-0.026 0.054-0.026s0.036-0.018 0.044-0.039c0.009-0.027 0.001-0.032-0.026-0.017-0.023 0.013-0.029 0.012-0.015-0.003 0.013-0.014 0.037-0.026 0.054-0.026s0.036-0.018 0.044-0.039c0.009-0.027 0.001-0.032-0.026-0.017-0.023 0.013-0.029 0.012-0.015-0.003 0.013-0.014 0.037-0.026 0.054-0.026s0.036-0.018 0.044-0.039c0.009-0.026 0.001-0.032-0.023-0.017s-0.029 0.011-0.015-0.012c0.012-0.019 0.028-0.027 0.037-0.019 0.020 0.020 0.091-0.038 0.091-0.075 0-0.016-0.022-0.011-0.049 0.011-0.045 0.035-0.046 0.034-0.010-0.011 0.022-0.028 0.046-0.044 0.054-0.036 0.019 0.019 0.090-0.041 0.090-0.077 0-0.016-0.022-0.011-0.049 0.011-0.045 0.035-0.046 0.034-0.011-0.010 0.021-0.027 0.051-0.046 0.067-0.042s0.035-0.011 0.043-0.033c0.010-0.027 0.002-0.032-0.025-0.017-0.023 0.013-0.029 0.012-0.015-0.003 0.013-0.014 0.032-0.026 0.042-0.026 0.035-0.001 0.089-0.045 0.089-0.073 0-0.016-0.016-0.019-0.035-0.008-0.021 0.012-0.025 0.010-0.012-0.005s0.032-0.026 0.042-0.026c0.036-0.001 0.089-0.046 0.089-0.075 0-0.018-0.020-0.014-0.049 0.009-0.045 0.035-0.046 0.034-0.010-0.011 0.022-0.028 0.046-0.043 0.054-0.035 0.019 0.019 0.118-0.070 0.118-0.106 0-0.015-0.022-0.010-0.049 0.011-0.045 0.035-0.046 0.034-0.010-0.011 0.022-0.028 0.046-0.043 0.054-0.035 0.019 0.019 0.118-0.070 0.118-0.106 0-0.015-0.022-0.010-0.049 0.011-0.045 0.035-0.046 0.034-0.010-0.011 0.022-0.028 0.046-0.043 0.054-0.035 0.019 0.019 0.118-0.070 0.118-0.106 0-0.015-0.022-0.010-0.049 0.011-0.045 0.035-0.046 0.034-0.010-0.011 0.022-0.028 0.046-0.043 0.054-0.035 0.019 0.019 0.146-0.099 0.146-0.136 0-0.015-0.029-0.004-0.064 0.026s-0.027 0.013 0.019-0.038c0.045-0.050 0.089-0.085 0.097-0.077 0.018 0.018 0.145-0.101 0.145-0.137 0-0.015-0.029-0.004-0.064 0.026s-0.027 0.013 0.019-0.038c0.045-0.050 0.089-0.084 0.097-0.076 0.019 0.019 0.286-0.244 0.286-0.281 0-0.015-0.060 0.028-0.134 0.097s0.069-0.081 0.317-0.333c0.248-0.252 0.457-0.458 0.465-0.458s-0.043 0.057-0.111 0.127c-0.069 0.070-0.112 0.127-0.097 0.127 0.037 0 0.356-0.324 0.337-0.342-0.008-0.008 0.020-0.046 0.062-0.083s0.060-0.046 0.039-0.019c-0.021 0.027-0.026 0.049-0.011 0.049 0.035 0 0.125-0.099 0.107-0.117-0.008-0.008 0.027-0.051 0.077-0.097s0.067-0.054 0.038-0.019c-0.029 0.035-0.041 0.063-0.026 0.063 0.036 0 0.155-0.127 0.136-0.146-0.008-0.008 0.014-0.039 0.049-0.068 0.051-0.044 0.056-0.044 0.025-0.005-0.055 0.071 0.006 0.061 0.070-0.012 0.034-0.039 0.038-0.053 0.011-0.037s-0.023 0.001 0.011-0.037c0.060-0.068 0.1-0.085 0.045-0.019-0.020 0.024-0.023 0.042-0.007 0.042 0.036 0 0.096-0.071 0.077-0.090-0.008-0.008 0.008-0.032 0.036-0.054 0.046-0.036 0.047-0.035 0.011 0.010-0.056 0.071 0.006 0.061 0.070-0.012 0.034-0.039 0.038-0.053 0.011-0.037s-0.023 0.001 0.011-0.037c0.060-0.068 0.1-0.085 0.045-0.019-0.020 0.024-0.023 0.042-0.007 0.042 0.036 0 0.096-0.071 0.077-0.090-0.008-0.008 0.008-0.032 0.036-0.054 0.046-0.036 0.047-0.035 0.011 0.010-0.021 0.027-0.026 0.049-0.011 0.049 0.036 0 0.096-0.071 0.077-0.090-0.008-0.008 0.008-0.032 0.036-0.054 0.046-0.036 0.047-0.035 0.011 0.010-0.021 0.027-0.026 0.049-0.011 0.049 0.031 0 0.108-0.084 0.101-0.11-0.003-0.009 0.003-0.023 0.012-0.031s0.006 0.003-0.006 0.025c-0.015 0.027-0.010 0.035 0.017 0.026 0.022-0.007 0.039-0.027 0.039-0.044s0.012-0.041 0.026-0.054c0.015-0.014 0.016-0.008 0.003 0.015-0.016 0.027-0.010 0.034 0.017 0.025 0.022-0.008 0.036-0.027 0.033-0.043s0.016-0.046 0.042-0.067c0.044-0.034 0.045-0.033 0.010 0.011-0.021 0.027-0.026 0.049-0.011 0.049 0.031 0 0.108-0.084 0.101-0.11-0.003-0.009 0.003-0.023 0.012-0.031s0.006 0.003-0.006 0.025c-0.015 0.027-0.010 0.035 0.017 0.026 0.022-0.007 0.039-0.027 0.039-0.044s0.012-0.041 0.026-0.054c0.015-0.014 0.016-0.008 0.003 0.015-0.015 0.027-0.010 0.035 0.017 0.026 0.022-0.007 0.039-0.027 0.039-0.044s0.012-0.041 0.026-0.054c0.015-0.014 0.016-0.008 0.003 0.015-0.015 0.027-0.010 0.035 0.017 0.026 0.022-0.007 0.039-0.027 0.039-0.044s0.012-0.041 0.026-0.054c0.015-0.014 0.017-0.009 0.005 0.012-0.029 0.051 0.005 0.044 0.114-0.024 0.052-0.032 0.089-0.070 0.080-0.083s0-0.033 0.018-0.044c0.022-0.014 0.025-0.008 0.011 0.016s-0.009 0.032 0.017 0.023c0.022-0.007 0.039-0.027 0.039-0.044s0.012-0.041 0.026-0.054c0.015-0.014 0.016-0.008 0.003 0.015-0.015 0.027-0.010 0.035 0.017 0.026 0.022-0.007 0.039-0.027 0.039-0.044s0.012-0.041 0.026-0.054c0.015-0.014 0.017-0.009 0.005 0.012-0.025 0.043-0.003 0.045 0.070 0.006 0.030-0.016 0.047-0.044 0.036-0.061-0.011-0.018-0.006-0.023 0.012-0.012 0.040 0.025 0.267-0.089 0.246-0.123-0.009-0.014-0.001-0.034 0.017-0.046 0.021-0.013 0.025-0.008 0.013 0.012-0.027 0.044-0.002 0.041 0.098-0.011 0.046-0.024 0.077-0.055 0.069-0.069s-0.001-0.034 0.018-0.046c0.021-0.013 0.025-0.008 0.013 0.012-0.032 0.052-0.007 0.042 0.38-0.152 2.738-1.372 5.75-1.818 8.832-1.308 1.317 0.218 2.75 0.69 3.986 1.312 0.186 0.094 0.275 0.124 0.191 0.065-0.038-0.027-0.038-0.029 0-0.017 0.023 0.007 0.039 0.027 0.035 0.044s0.043 0.057 0.105 0.088c0.128 0.065 0.154 0.070 0.125 0.024-0.013-0.020-0.008-0.025 0.013-0.012 0.018 0.011 0.026 0.032 0.017 0.046-0.021 0.034 0.206 0.147 0.246 0.123 0.019-0.012 0.024-0.007 0.012 0.012-0.011 0.017 0.006 0.044 0.036 0.061 0.072 0.039 0.096 0.038 0.070-0.003-0.013-0.020-0.008-0.025 0.013-0.012 0.018 0.011 0.026 0.032 0.018 0.045s0.010 0.038 0.040 0.055c0.073 0.039 0.095 0.037 0.070-0.006-0.012-0.021-0.010-0.025 0.005-0.012s0.026 0.037 0.026 0.054 0.018 0.036 0.039 0.044c0.027 0.009 0.032 0.001 0.017-0.026-0.013-0.023-0.012-0.029 0.003-0.015 0.014 0.013 0.026 0.037 0.026 0.054s0.018 0.036 0.039 0.044c0.026 0.009 0.032 0.001 0.017-0.023s-0.011-0.029 0.011-0.016c0.018 0.011 0.026 0.032 0.018 0.045s0.010 0.038 0.040 0.055c0.073 0.039 0.095 0.037 0.070-0.006-0.012-0.021-0.010-0.025 0.005-0.012s0.026 0.037 0.026 0.054 0.018 0.036 0.039 0.044c0.027 0.009 0.032 0.001 0.017-0.026-0.013-0.023-0.012-0.029 0.003-0.015 0.014 0.013 0.026 0.037 0.026 0.054s0.018 0.036 0.039 0.044c0.027 0.009 0.032 0.001 0.017-0.026-0.013-0.023-0.012-0.029 0.003-0.015 0.014 0.013 0.026 0.037 0.026 0.054s0.018 0.036 0.039 0.044c0.026 0.009 0.032 0.001 0.017-0.023s-0.011-0.029 0.012-0.015c0.019 0.012 0.027 0.028 0.019 0.037-0.020 0.020 0.038 0.091 0.075 0.091 0.016 0 0.011-0.022-0.011-0.049-0.035-0.045-0.034-0.046 0.010-0.011 0.027 0.021 0.046 0.051 0.042 0.067s0.012 0.035 0.033 0.043c0.027 0.010 0.032 0.002 0.017-0.025-0.013-0.023-0.012-0.029 0.003-0.015 0.014 0.013 0.026 0.037 0.026 0.054s0.018 0.036 0.039 0.044c0.026 0.009 0.032 0.001 0.017-0.023s-0.011-0.029 0.012-0.015c0.019 0.012 0.027 0.028 0.019 0.037-0.020 0.020 0.038 0.091 0.075 0.091 0.016 0 0.011-0.022-0.011-0.049-0.035-0.045-0.034-0.046 0.010-0.011 0.027 0.021 0.046 0.051 0.042 0.067s0.012 0.035 0.033 0.043c0.024 0.009 0.032 0.002 0.020-0.018-0.030-0.049 0-0.038 0.044 0.016 0.033 0.041 0.033 0.044-0.004 0.023-0.026-0.015-0.022-0.001 0.011 0.037 0.064 0.073 0.126 0.083 0.070 0.012-0.035-0.045-0.034-0.046 0.011-0.010 0.028 0.022 0.044 0.046 0.036 0.054-0.019 0.019 0.041 0.090 0.077 0.090 0.016 0 0.011-0.022-0.010-0.049-0.031-0.040-0.027-0.039 0.025 0.004 0.069 0.059 0.084 0.089 0.028 0.056-0.019-0.011-0.011 0.007 0.018 0.041 0.064 0.073 0.126 0.083 0.070 0.012-0.035-0.045-0.034-0.046 0.011-0.010 0.028 0.022 0.044 0.046 0.036 0.054-0.019 0.019 0.040 0.090 0.075 0.090 0.015 0 0.017-0.016 0.005-0.035-0.014-0.023-0.005-0.022 0.027 0.004 0.027 0.022 0.042 0.046 0.033 0.054-0.019 0.019 0.099 0.146 0.136 0.146 0.015 0 0.004-0.029-0.026-0.063-0.048-0.057-0.046-0.057 0.024 0.005 0.043 0.038 0.071 0.075 0.063 0.083-0.019 0.019 0.101 0.145 0.137 0.145 0.015 0 0.004-0.029-0.026-0.063-0.048-0.057-0.046-0.057 0.024 0.005 0.043 0.038 0.071 0.075 0.063 0.083-0.019 0.019 0.158 0.202 0.195 0.202 0.015 0-0.009-0.041-0.054-0.092s0.002-0.010 0.106 0.090c0.104 0.1 0.184 0.19 0.177 0.2-0.015 0.024 0.45 0.486 0.469 0.467 0.008-0.008 0.083 0.058 0.168 0.147s0.119 0.13 0.076 0.093c-0.043-0.037-0.078-0.055-0.078-0.040 0 0.036 0.155 0.185 0.173 0.166 0.008-0.008 0.051 0.027 0.097 0.077s0.054 0.067 0.019 0.038c-0.035-0.029-0.064-0.041-0.064-0.026 0 0.036 0.127 0.155 0.145 0.137 0.008-0.008 0.045 0.020 0.083 0.062s0.046 0.060 0.019 0.039c-0.027-0.021-0.049-0.026-0.049-0.011 0 0.036 0.099 0.125 0.118 0.106 0.008-0.008 0.033 0.008 0.054 0.035 0.036 0.046 0.035 0.047-0.010 0.011-0.027-0.021-0.049-0.026-0.049-0.011 0 0.036 0.099 0.125 0.118 0.106 0.008-0.008 0.033 0.008 0.054 0.035 0.036 0.046 0.035 0.047-0.010 0.011-0.071-0.056-0.061 0.006 0.012 0.070 0.039 0.034 0.053 0.038 0.037 0.011s-0.001-0.023 0.037 0.011c0.068 0.060 0.085 0.1 0.019 0.045s-0.049 0.014 0.019 0.073c0.034 0.030 0.052 0.038 0.041 0.018-0.030-0.051-0.002-0.043 0.043 0.012 0.033 0.041 0.033 0.044-0 0.024-0.027-0.016-0.035-0.011-0.025 0.016 0.008 0.022 0.027 0.036 0.043 0.033s0.046 0.016 0.067 0.042c0.034 0.044 0.033 0.045-0.011 0.010-0.029-0.023-0.049-0.027-0.049-0.009 0 0.030 0.053 0.074 0.089 0.075 0.010 0 0.029 0.012 0.042 0.026s0.009 0.017-0.012 0.005c-0.046-0.027-0.046 0.029 0 0.059 0.019 0.012 0.044 0.023 0.054 0.023s0.029 0.012 0.042 0.026c0.014 0.015 0.008 0.016-0.015 0.003-0.027-0.016-0.035-0.010-0.025 0.017 0.008 0.022 0.027 0.036 0.043 0.033s0.046 0.016 0.067 0.042c0.034 0.044 0.033 0.045-0.011 0.010-0.027-0.021-0.049-0.026-0.049-0.011 0 0.032 0.089 0.113 0.101 0.092 0.004-0.008 0.018-0.003 0.031 0.012 0.014 0.015 0.008 0.016-0.015 0.003-0.027-0.015-0.035-0.010-0.026 0.017 0.007 0.022 0.027 0.039 0.044 0.039s0.041 0.012 0.054 0.026c0.014 0.015 0.008 0.016-0.015 0.003-0.027-0.015-0.035-0.010-0.026 0.017 0.007 0.022 0.027 0.039 0.044 0.039s0.041 0.012 0.054 0.026c0.014 0.015 0.008 0.016-0.015 0.003-0.027-0.015-0.035-0.010-0.026 0.017 0.007 0.022 0.027 0.039 0.044 0.039s0.041 0.012 0.054 0.026c0.014 0.015 0.008 0.016-0.015 0.003-0.027-0.015-0.035-0.010-0.026 0.017 0.007 0.022 0.027 0.039 0.044 0.039s0.041 0.012 0.054 0.026c0.014 0.015 0.009 0.017-0.012 0.005-0.059-0.034-0.041 0.010 0.096 0.225 0.072 0.114 0.144 0.199 0.16 0.19s0.020-0.003 0.009 0.014c-0.025 0.040 0.061 0.21 0.095 0.189 0.014-0.009 0.034-0.001 0.046 0.018 0.013 0.021 0.008 0.025-0.012 0.013-0.052-0.032-0.040-0.003 0.097 0.252 0.076 0.141 0.142 0.232 0.16 0.221s0.022-0.005 0.011 0.012c-0.023 0.038 0.153 0.404 0.185 0.384 0.012-0.008 0.016 0.004 0.007 0.027s0.024 0.119 0.072 0.215c0.295 0.584 0.728 1.83 0.916 2.64 0.025 0.109 0.058 0.248 0.073 0.31 0.101 0.43 0.249 1.472 0.26 1.834l0.007 0.226-14.161 0.007c-11.318 0.006-14.161 0-14.164-0.028zM26.562 12.288c0-0.005-0.041-0.046-0.092-0.092l-0.092-0.083 0.083 0.092c0.077 0.085 0.101 0.105 0.101 0.083zM6.017 11.88l0.211-0.219-0.219 0.211c-0.12 0.116-0.219 0.214-0.219 0.219 0 0.021 0.031-0.008 0.226-0.211zM25.913 11.639c0-0.005-0.048-0.052-0.106-0.106l-0.106-0.097 0.097 0.106c0.091 0.098 0.114 0.119 0.114 0.097zM1.875 20.693c0-0.062 0.006-0.084 0.013-0.049s0.006 0.086-0.001 0.113c-0.007 0.027-0.013-0.002-0.012-0.064zM30.267 20.58c0-0.062 0.006-0.084 0.013-0.049s0.006 0.086-0.001 0.113c-0.007 0.027-0.013-0.002-0.012-0.064zM1.902 20.354c0.001-0.047 0.007-0.062 0.014-0.035s0.007 0.066-0.001 0.085c-0.008 0.019-0.014-0.003-0.013-0.050zM30.237 20.298c0.001-0.047 0.007-0.062 0.014-0.035s0.007 0.066-0.001 0.085c-0.008 0.019-0.014-0.003-0.013-0.050zM1.93 20.157c0.001-0.047 0.007-0.062 0.014-0.035s0.007 0.066-0.001 0.085c-0.008 0.019-0.014-0.003-0.013-0.050zM30.209 20.072c0.001-0.047 0.007-0.062 0.014-0.035s0.007 0.066-0.001 0.085c-0.008 0.019-0.014-0.003-0.013-0.050zM1.957 19.917c0-0.039 0.006-0.055 0.014-0.035s0.008 0.051 0 0.071c-0.008 0.019-0.014 0.004-0.014-0.035zM30.179 19.86c0-0.039 0.006-0.055 0.014-0.035s0.008 0.051 0 0.071c-0.008 0.019-0.014 0.004-0.014-0.035zM1.983 19.731c0.001-0.033 0.008-0.040 0.017-0.017 0.008 0.020 0.007 0.045-0.002 0.054s-0.016-0.007-0.015-0.037zM30.149 19.674c0.001-0.033 0.008-0.040 0.017-0.017 0.008 0.020 0.007 0.045-0.002 0.054s-0.016-0.007-0.015-0.037zM2.014 19.55c0-0.039 0.006-0.055 0.014-0.035s0.008 0.051 0 0.071c-0.008 0.019-0.014 0.004-0.014-0.035zM30.121 19.505c0.001-0.033 0.008-0.040 0.017-0.017 0.008 0.020 0.007 0.045-0.002 0.054s-0.016-0.007-0.015-0.037zM2.040 19.392c0.001-0.033 0.008-0.040 0.017-0.017 0.008 0.020 0.007 0.045-0.002 0.054s-0.016-0.007-0.015-0.037zM30.092 19.364c0.001-0.033 0.008-0.040 0.017-0.017 0.008 0.020 0.007 0.045-0.002 0.054s-0.016-0.007-0.015-0.037zM2.068 19.223c0.001-0.033 0.008-0.040 0.017-0.017 0.008 0.020 0.007 0.045-0.002 0.054s-0.016-0.007-0.015-0.037zM30.066 19.183c0-0.039 0.006-0.055 0.014-0.035s0.008 0.051 0 0.071c-0.008 0.019-0.014 0.004-0.014-0.035zM30.036 19.054c0.001-0.033 0.008-0.040 0.017-0.017 0.008 0.020 0.007 0.045-0.002 0.054s-0.016-0.007-0.015-0.037zM2.124 18.941c0.001-0.033 0.008-0.040 0.017-0.017 0.008 0.020 0.007 0.045-0.002 0.054s-0.016-0.007-0.015-0.037zM30.008 18.912c0.001-0.033 0.008-0.040 0.017-0.017 0.008 0.020 0.007 0.045-0.002 0.054s-0.016-0.007-0.015-0.037zM2.152 18.828c0.001-0.033 0.008-0.040 0.017-0.017 0.008 0.020 0.007 0.045-0.002 0.054s-0.016-0.007-0.015-0.037zM29.98 18.8c0.001-0.033 0.008-0.040 0.017-0.017 0.008 0.020 0.007 0.045-0.002 0.054s-0.016-0.007-0.015-0.037zM2.181 18.715c0.001-0.033 0.008-0.040 0.017-0.017 0.008 0.020 0.007 0.045-0.002 0.054s-0.016-0.007-0.015-0.037zM29.951 18.658c0.001-0.033 0.008-0.040 0.017-0.017 0.008 0.020 0.007 0.045-0.002 0.054s-0.016-0.007-0.015-0.037zM2.209 18.574c0.001-0.033 0.008-0.040 0.017-0.017 0.008 0.020 0.007 0.045-0.002 0.054s-0.016-0.007-0.015-0.037zM29.923 18.546c0.001-0.033 0.008-0.040 0.017-0.017 0.008 0.020 0.007 0.045-0.002 0.054s-0.016-0.007-0.015-0.037zM2.237 18.461c0.001-0.033 0.008-0.040 0.017-0.017 0.008 0.020 0.007 0.045-0.002 0.054s-0.016-0.007-0.015-0.037zM29.782 18.009c0.001-0.033 0.008-0.040 0.017-0.017 0.008 0.020 0.007 0.045-0.002 0.054s-0.016-0.007-0.015-0.037zM29.726 17.812c0.001-0.033 0.008-0.040 0.017-0.017 0.008 0.020 0.007 0.045-0.002 0.054s-0.016-0.007-0.015-0.037zM2.744 16.855c0-0.016 0.012-0.047 0.027-0.071s0.027-0.030 0.027-0.014c0 0.016-0.012 0.047-0.027 0.071s-0.027 0.030-0.027 0.014zM29.261 16.515c-0.027-0.071-0.019-0.089 0.014-0.032 0.016 0.028 0.024 0.057 0.017 0.065s-0.021-0.007-0.031-0.033zM2.913 16.431c0-0.016 0.012-0.047 0.027-0.071s0.027-0.030 0.027-0.014c0 0.016-0.012 0.047-0.027 0.071s-0.027 0.030-0.027 0.014zM29.092 16.12c-0.027-0.071-0.019-0.089 0.014-0.032 0.016 0.028 0.024 0.057 0.017 0.065s-0.021-0.007-0.031-0.033zM3.14 15.923c0-0.016 0.018-0.060 0.040-0.099s0.040-0.058 0.040-0.042c0 0.016-0.018 0.060-0.040 0.099s-0.040 0.058-0.040 0.042zM28.812 15.527c-0.042-0.085-0.070-0.154-0.062-0.154 0.019 0 0.161 0.286 0.149 0.298-0.006 0.006-0.045-0.059-0.086-0.144zM3.448 15.288c0.017-0.031 0.037-0.056 0.044-0.056s0 0.025-0.016 0.056c-0.017 0.031-0.037 0.056-0.044 0.056s-0-0.025 0.016-0.056zM28.566 15.062c-0.017-0.031-0.024-0.056-0.016-0.056s0.028 0.025 0.044 0.056c0.017 0.031 0.024 0.056 0.016 0.056s-0.028-0.025-0.044-0.056zM3.646 14.921c0.017-0.031 0.037-0.056 0.044-0.056s0 0.025-0.016 0.056c-0.017 0.031-0.037 0.056-0.044 0.056s-0-0.025 0.016-0.056zM3.731 14.78c0.017-0.031 0.037-0.056 0.044-0.056s0 0.025-0.016 0.056c-0.017 0.031-0.037 0.056-0.044 0.056s-0-0.025 0.016-0.056zM28.256 14.526c-0.017-0.031-0.024-0.056-0.016-0.056s0.028 0.025 0.044 0.056c0.017 0.031 0.024 0.056 0.016 0.056s-0.028-0.025-0.044-0.056zM28.171 14.385c-0.017-0.031-0.024-0.056-0.016-0.056s0.028 0.025 0.044 0.056c0.017 0.031 0.024 0.056 0.016 0.056s-0.028-0.025-0.044-0.056zM26.166 11.852l-0.097-0.106 0.106 0.097c0.099 0.091 0.119 0.114 0.097 0.114-0.005 0-0.052-0.048-0.106-0.106zM22.583 9.249c-0.025-0.016-0.029-0.028-0.009-0.028 0.018-0 0.041 0.012 0.051 0.028 0.022 0.035 0.012 0.035-0.042 0zM22.47 9.192c-0.025-0.016-0.029-0.028-0.009-0.028 0.018-0 0.041 0.012 0.051 0.028 0.022 0.035 0.012 0.035-0.042 0zM22.273 9.093c-0.070-0.037-0.117-0.069-0.105-0.069 0.030-0.002 0.246 0.109 0.246 0.126 0 0.019 0.001 0.019-0.141-0.057zM10.306 8.882c0.023-0.015 0.055-0.027 0.071-0.027s0.009 0.012-0.014 0.027c-0.023 0.015-0.055 0.027-0.071 0.027s-0.009-0.012 0.014-0.027zM21.68 8.825c-0.023-0.015-0.030-0.027-0.014-0.027s0.047 0.012 0.071 0.027c0.023 0.015 0.030 0.027 0.014 0.027s-0.047-0.012-0.071-0.027zM10.56 8.769c0.023-0.015 0.055-0.027 0.071-0.027s0.009 0.012-0.014 0.027c-0.023 0.015-0.055 0.027-0.071 0.027s-0.009-0.012 0.014-0.027zM10.702 8.712c0.023-0.015 0.055-0.027 0.071-0.027s0.009 0.012-0.014 0.027c-0.023 0.015-0.055 0.027-0.071 0.027s-0.009-0.012 0.014-0.027zM12.051 8.242c0.020-0.008 0.045-0.007 0.054 0.002s-0.007 0.016-0.037 0.015c-0.033-0.001-0.040-0.008-0.017-0.017zM19.671 8.129c0.020-0.008 0.045-0.007 0.054 0.002s-0.007 0.016-0.037 0.015c-0.033-0.001-0.040-0.008-0.017-0.017zM12.672 8.072c0.020-0.008 0.045-0.007 0.054 0.002s-0.007 0.016-0.037 0.015c-0.033-0.001-0.040-0.008-0.017-0.017zM19.445 8.072c0.020-0.008 0.045-0.007 0.054 0.002s-0.007 0.016-0.037 0.015c-0.033-0.001-0.040-0.008-0.017-0.017zM12.926 8.016c0.020-0.008 0.045-0.007 0.054 0.002s-0.007 0.016-0.037 0.015c-0.033-0.001-0.040-0.008-0.017-0.017zM13.067 7.988c0.020-0.008 0.045-0.007 0.054 0.002s-0.007 0.016-0.037 0.015c-0.033-0.001-0.040-0.008-0.017-0.017zM13.18 7.959c0.020-0.008 0.045-0.007 0.054 0.002s-0.007 0.016-0.037 0.015c-0.033-0.001-0.040-0.008-0.017-0.017zM18.965 7.959c0.020-0.008 0.045-0.007 0.054 0.002s-0.007 0.016-0.037 0.015c-0.033-0.001-0.040-0.008-0.017-0.017zM13.349 7.931c0.020-0.008 0.045-0.007 0.054 0.002s-0.007 0.016-0.037 0.015c-0.033-0.001-0.040-0.008-0.017-0.017zM18.796 7.931c0.020-0.008 0.045-0.007 0.054 0.002s-0.007 0.016-0.037 0.015c-0.033-0.001-0.040-0.008-0.017-0.017zM13.49 7.903c0.020-0.008 0.045-0.007 0.054 0.002s-0.007 0.016-0.037 0.015c-0.033-0.001-0.040-0.008-0.017-0.017zM18.655 7.903c0.020-0.008 0.045-0.007 0.054 0.002s-0.007 0.016-0.037 0.015c-0.033-0.001-0.040-0.008-0.017-0.017zM13.66 7.875c0.020-0.008 0.045-0.007 0.054 0.002s-0.007 0.016-0.037 0.015c-0.033-0.001-0.040-0.008-0.017-0.017zM18.456 7.875c0.019-0.008 0.051-0.008 0.071 0s0.004 0.014-0.035 0.014c-0.039 0-0.055-0.006-0.035-0.014zM13.801 7.846c0.020-0.008 0.045-0.007 0.054 0.002s-0.007 0.016-0.037 0.015c-0.033-0.001-0.040-0.008-0.017-0.017zM18.316 7.846c0.020-0.008 0.045-0.007 0.054 0.002s-0.007 0.016-0.037 0.015c-0.033-0.001-0.040-0.008-0.017-0.017zM13.982 7.818c0.027-0.007 0.072-0.007 0.099 0s0.005 0.013-0.049 0.013c-0.054 0-0.077-0.006-0.049-0.013zM18.117 7.819c0.019-0.008 0.051-0.008 0.071 0s0.004 0.014-0.035 0.014c-0.039 0-0.055-0.006-0.035-0.014zM14.209 7.79c0.027-0.007 0.066-0.007 0.085 0.001s-0.003 0.014-0.050 0.013c-0.047-0.001-0.062-0.007-0.035-0.014zM17.919 7.791c0.019-0.008 0.051-0.008 0.071 0s0.004 0.014-0.035 0.014c-0.039 0-0.055-0.006-0.035-0.014zM14.448 7.762c0.019-0.008 0.051-0.008 0.071 0s0.004 0.014-0.035 0.014c-0.039 0-0.055-0.006-0.035-0.014zM17.651 7.762c0.027-0.007 0.072-0.007 0.099 0s0.005 0.013-0.049 0.013c-0.054 0-0.077-0.006-0.049-0.013zM14.688 7.733c0.027-0.007 0.072-0.007 0.099 0s0.005 0.013-0.049 0.013c-0.054 0-0.077-0.006-0.049-0.013zM17.383 7.733c0.035-0.007 0.086-0.006 0.113 0.001s-0.002 0.013-0.064 0.012c-0.062-0-0.084-0.006-0.049-0.013zM15.027 7.704c0.043-0.006 0.106-0.006 0.141 0s-0 0.012-0.078 0.012c-0.078-0-0.106-0.006-0.063-0.012zM17.003 7.704c0.043-0.006 0.106-0.006 0.141 0s-0 0.012-0.078 0.012c-0.078-0-0.106-0.006-0.063-0.012zM15.762 7.675c0.183-0.005 0.475-0.005 0.649 0s0.024 0.009-0.333 0.009c-0.357-0-0.499-0.004-0.316-0.009zM13.667 6.020c-0.022-0.026-0.030-0.15-0.024-0.374l0.009-0.335 0.006 0.347c0.006 0.33 0.009 0.348 0.070 0.372 0.043 0.017 0.049 0.026 0.018 0.027-0.025 0.001-0.061-0.016-0.079-0.037zM18.427 6.041c0.099-0.021 0.075-0.052-0.042-0.054-0.058-0.001-0.353-0.030-0.656-0.065-1.176-0.134-2.629-0.108-3.902 0.070l-0.134 0.019v-0.34c0-0.499 0.092-0.901 0.283-1.239 0.093-0.165 0.101-0.192 0.049-0.162-0.021 0.012-0.025 0.010-0.012-0.005s0.037-0.026 0.054-0.026 0.036-0.018 0.044-0.039c0.009-0.027 0.001-0.032-0.026-0.017-0.023 0.013-0.029 0.012-0.015-0.003 0.013-0.014 0.032-0.026 0.042-0.026 0.036-0.001 0.089-0.046 0.089-0.075 0-0.018-0.020-0.015-0.049 0.008-0.040 0.031-0.039 0.026 0.005-0.025 0.030-0.035 0.061-0.056 0.069-0.048 0.021 0.021 0.343-0.301 0.328-0.327-0.007-0.011 0.010-0.038 0.037-0.059 0.044-0.035 0.045-0.034 0.010 0.011-0.021 0.027-0.026 0.049-0.011 0.049 0.036 0 0.096-0.071 0.077-0.090-0.008-0.008 0.008-0.032 0.036-0.054 0.046-0.036 0.047-0.035 0.011 0.010-0.048 0.062-0.023 0.063 0.068 0.004 0.038-0.025 0.063-0.056 0.055-0.069s0-0.032 0.019-0.044c0.021-0.013 0.025-0.008 0.013 0.012-0.028 0.046-0.021 0.044 0.217-0.066 0.563-0.26 1.259-0.286 1.841-0.068 0.084 0.032 0.168 0.048 0.186 0.037 0.022-0.014 0.025-0.008 0.010 0.017-0.017 0.027-0.010 0.032 0.025 0.019 0.033-0.013 0.042-0.008 0.028 0.014s-0.004 0.027 0.028 0.014c0.027-0.010 0.041-0.007 0.032 0.008s0.009 0.040 0.039 0.056c0.073 0.039 0.095 0.037 0.070-0.006-0.012-0.021-0.010-0.025 0.005-0.012s0.026 0.037 0.026 0.054 0.018 0.036 0.039 0.044c0.027 0.009 0.032 0.001 0.017-0.026-0.013-0.023-0.012-0.029 0.003-0.015 0.014 0.013 0.026 0.032 0.026 0.042 0.001 0.036 0.046 0.089 0.075 0.089 0.018 0 0.014-0.020-0.009-0.049-0.035-0.045-0.034-0.046 0.011-0.010 0.028 0.022 0.043 0.046 0.035 0.054-0.019 0.019 0.070 0.118 0.107 0.118 0.016 0 0.004-0.029-0.025-0.063s0.032 0.019 0.137 0.119c0.104 0.1 0.189 0.188 0.189 0.195s-0.025-0.011-0.056-0.039c-0.031-0.028-0.056-0.038-0.056-0.023 0 0.037 0.099 0.126 0.118 0.107 0.008-0.008 0.033 0.008 0.054 0.035 0.036 0.046 0.035 0.047-0.010 0.011-0.029-0.023-0.049-0.027-0.049-0.009 0 0.030 0.053 0.074 0.089 0.075 0.010 0 0.029 0.012 0.042 0.026 0.014 0.015 0.008 0.016-0.015 0.003-0.027-0.015-0.035-0.010-0.026 0.017 0.007 0.022 0.027 0.039 0.044 0.039s0.041 0.012 0.054 0.026c0.014 0.015 0.009 0.017-0.012 0.005-0.052-0.030-0.045-0.006 0.053 0.188 0.181 0.359 0.265 0.745 0.283 1.305 0.008 0.252 0.008 0.254-0.062 0.259-0.063 0.004-0.063 0.003-0.006-0.009zM17.87 3.934c0-0.005-0.041-0.046-0.092-0.092l-0.092-0.083 0.083 0.092c0.077 0.086 0.101 0.105 0.101 0.083zM13.926 6.012c0.027-0.007 0.066-0.007 0.085 0.001s-0.003 0.014-0.050 0.013c-0.047-0.001-0.062-0.007-0.035-0.014zM18.173 6.013c0.019-0.008 0.051-0.008 0.071 0s0.004 0.014-0.035 0.014c-0.039 0-0.055-0.006-0.035-0.014zM14.109 5.984c0.019-0.008 0.051-0.008 0.071 0s0.004 0.014-0.035 0.014c-0.039 0-0.055-0.006-0.035-0.014zM17.976 5.984c0.019-0.008 0.051-0.008 0.071 0s0.004 0.014-0.035 0.014c-0.039 0-0.055-0.006-0.035-0.014zM14.364 5.955c0.035-0.007 0.086-0.006 0.113 0.001s-0.002 0.013-0.064 0.012c-0.062-0-0.084-0.006-0.049-0.013zM17.694 5.955c0.035-0.007 0.086-0.006 0.113 0.001s-0.002 0.013-0.064 0.012c-0.062-0-0.084-0.006-0.049-0.013zM14.688 5.927c0.027-0.007 0.066-0.007 0.085 0.001s-0.003 0.014-0.050 0.013c-0.047-0.001-0.062-0.007-0.035-0.014zM17.397 5.927c0.027-0.007 0.072-0.007 0.099 0s0.005 0.013-0.049 0.013c-0.054 0-0.077-0.006-0.049-0.013zM15.041 5.898c0.051-0.006 0.127-0.006 0.169 0s0.001 0.012-0.092 0.011c-0.093-0-0.128-0.005-0.077-0.012zM16.96 5.898c0.050-0.006 0.133-0.006 0.183 0s0.009 0.011-0.092 0.011c-0.101 0-0.142-0.005-0.092-0.011zM15.861 5.869c0.129-0.005 0.332-0.005 0.452 0s0.014 0.010-0.234 0.010c-0.248-0-0.346-0.004-0.217-0.010zM18.498 5.34c0-0.062 0.006-0.084 0.013-0.049s0.006 0.086-0.001 0.113c-0.007 0.027-0.013-0.002-0.012-0.064zM13.669 5.185c0-0.039 0.006-0.055 0.014-0.035s0.008 0.051 0 0.071c-0.008 0.019-0.014 0.004-0.014-0.035zM18.465 5.14c0.001-0.033 0.008-0.040 0.017-0.017 0.008 0.020 0.007 0.045-0.002 0.054s-0.016-0.007-0.015-0.037zM13.695 5.027c0.001-0.033 0.008-0.040 0.017-0.017 0.008 0.020 0.007 0.045-0.002 0.054s-0.016-0.007-0.015-0.037zM18.437 4.999c0.001-0.033 0.008-0.040 0.017-0.017 0.008 0.020 0.007 0.045-0.002 0.054s-0.016-0.007-0.015-0.037zM13.724 4.914c0.001-0.033 0.008-0.040 0.017-0.017 0.008 0.020 0.007 0.045-0.002 0.054s-0.016-0.007-0.015-0.037zM13.779 4.747c0-0.016 0.012-0.047 0.027-0.071s0.027-0.030 0.027-0.014c0 0.016-0.012 0.047-0.027 0.071s-0.027 0.030-0.027 0.014zM13.834 4.61c0-0.030 0.112-0.243 0.128-0.243 0.008 0-0.013 0.054-0.046 0.12-0.065 0.13-0.082 0.154-0.082 0.124zM14.356 3.83c0.061-0.062 0.117-0.113 0.124-0.113s-0.036 0.051-0.096 0.113c-0.061 0.062-0.117 0.113-0.124 0.113s0.036-0.051 0.096-0.113zM15.104 3.322c0.023-0.015 0.055-0.027 0.071-0.027s0.009 0.012-0.014 0.027c-0.023 0.015-0.055 0.027-0.071 0.027s-0.009-0.012 0.014-0.027zM16.736 3.218c0.020-0.008 0.045-0.007 0.054 0.002s-0.007 0.016-0.037 0.015c-0.033-0.001-0.040-0.008-0.017-0.017zM15.605 3.162c0.019-0.008 0.051-0.008 0.071 0s0.004 0.014-0.035 0.014c-0.039 0-0.055-0.006-0.035-0.014zM16.48 3.162c0.019-0.008 0.051-0.008 0.071 0s0.004 0.014-0.035 0.014c-0.039 0-0.055-0.006-0.035-0.014zM15.859 3.133c0.035-0.007 0.086-0.006 0.113 0.001s-0.002 0.013-0.064 0.012c-0.062-0-0.084-0.006-0.049-0.013zM16.198 3.133c0.035-0.007 0.092-0.007 0.127 0s0.006 0.012-0.064 0.012c-0.070 0-0.098-0.006-0.064-0.012z"></path>
</svg>
