<!-- Generated by IcoMoon.io -->
<svg version="1.1" xmlns="http://www.w3.org/2000/svg" width="47" height="32" viewBox="0 0 47 32">
<title>deliveryMoto</title>

<path d="M37.937-0.042c-1.482 0.281-2.492 1.137-3.032 2.568-5.149-0.128-9.093 1.964-11.832 6.274-0.673 1.149-0.926 2.385-0.758 3.705 0.040 0.263 0.139 0.502 0.295 0.716-0.308 0.042-0.616 0.056-0.926 0.042 0.133-1.912 0.301-3.821 0.505-5.726-0.029-0.185-0.114-0.339-0.253-0.463-3.004-0.070-6.007-0.056-9.011 0.042-0.026 0.068-0.068 0.124-0.126 0.168-0.232 2.246-0.429 4.492-0.589 6.737 0.066 0.15 0.164 0.277 0.295 0.379 1.039 0.028 2.077 0.056 3.116 0.084-0.21 0.574-0.421 1.149-0.632 1.726-1.796 1.347-3.368 2.919-4.716 4.716-0.937 1.242-1.54 2.632-1.811 4.168-0.003 0.585 0.25 1.006 0.758 1.263 0.618 0.028 1.235 0.056 1.853 0.084-0.233 2.919 1.058 4.758 3.874 5.516 0.561 0 1.123 0 1.684 0 2.918-0.702 4.518-2.554 4.8-5.558 4.014 0.014 8.028 0 12.042-0.042 0.466-0.071 0.901-0.226 1.305-0.463 0.361 0.44 0.825 0.608 1.389 0.505-0.203 2.909 1.088 4.762 3.874 5.558 0.561 0 1.123 0 1.684 0 0.985-0.198 1.884-0.605 2.695-1.221 2.219-2.013 2.668-4.357 1.347-7.032 0.333-0.070 0.67-0.112 1.011-0.126 0.156-0.058 0.268-0.156 0.337-0.295 0-0.168 0-0.337 0-0.505-0.516-1.429-1.443-2.509-2.779-3.242-1.513-0.585-3.057-0.683-4.632-0.295 0.201-0.894 0.215-1.793 0.042-2.695-0.497-1.688-1.045-3.358-1.642-5.011 0.571 0.063 1.034-0.12 1.389-0.547 0.316-1.11 0.372-2.233 0.168-3.368-0.081-0.091-0.151-0.189-0.211-0.295-0.615-0.283-1.261-0.367-1.937-0.253-0.32 0.179-0.657 0.319-1.011 0.421-0.815 0.169-1.629 0.309-2.442 0.421 0.503-0.418 0.98-0.867 1.432-1.347 0.337-0.14 0.674-0.281 1.011-0.421 0.428 0.149 0.878 0.247 1.347 0.295 0.322-0.009 0.631-0.079 0.926-0.211 0.703-0.465 1.208-1.097 1.516-1.895 0.392-0.067 0.785-0.081 1.179-0.042 0.382-0.144 0.508-0.411 0.379-0.8-0.164-0.304-0.36-0.585-0.589-0.842-0.222-1.527-1.078-2.425-2.568-2.695-0.253 0-0.505 0-0.758 0zM37.937 1.137c1.426-0.132 2.141 0.514 2.147 1.937-0.763-0.135-1.535-0.177-2.316-0.126-0.385 0.179-0.778 0.333-1.179 0.463-0.233-0.024-0.458-0.080-0.674-0.168 0.282-1.096 0.956-1.798 2.021-2.105zM33.137 3.663c0.54-0.027 1.073 0.015 1.6 0.126 0.13 0.133 0.228 0.287 0.295 0.463 0.056 0.337 0.056 0.674 0 1.011-0.288 0.457-0.639 0.864-1.053 1.221-0.761 0.677-1.547 1.323-2.358 1.937-0.406 0.041-0.757 0.195-1.053 0.463-0.107 0.469 0.076 0.749 0.547 0.842 1.961-0.401 3.926-0.752 5.895-1.053 0.224 0.174 0.195 0.315-0.084 0.421-0.116 0.074-0.242 0.116-0.379 0.126-0.518-0.172-1.038-0.186-1.558-0.042-1.65 0.737-3.348 1.341-5.095 1.811-0.627-0.066-0.852-0.403-0.674-1.011 0.609-1.5 1.507-2.792 2.695-3.874 0.204-0.489 0.050-0.798-0.463-0.926-0.457 0.16-0.836 0.441-1.137 0.842-0.9 1.069-1.63 2.248-2.189 3.537-0.080 0.304-0.136 0.613-0.168 0.926-1.37-0.338-2.759-0.45-4.168-0.337 0.304-0.832 0.739-1.59 1.305-2.274 2.143-2.44 4.824-3.843 8.042-4.211zM37.937 4.084c0.394-0.014 0.787 0 1.179 0.042-0.228 0.608-0.65 0.987-1.263 1.137-0.397-0.053-0.776-0.165-1.137-0.337-0.154 0.037-0.308 0.065-0.463 0.084-0.025-0.177 0.003-0.346 0.084-0.505 0.592 0.084 1.125-0.057 1.6-0.421zM13.853 8.126c2.358 0 4.716 0 7.074 0-0.135 1.713-0.276 3.425-0.421 5.137-2.358 0-4.716 0-7.074 0 0.135-1.713 0.276-3.425 0.421-5.137zM38.189 8.211c0.166-0.020 0.32 0.008 0.463 0.084 0.055 0.682-0.001 1.356-0.168 2.021-0.061 0.047-0.131 0.075-0.211 0.084-0.362-0.060-0.727-0.102-1.095-0.126 0.974-0.393 1.311-1.081 1.011-2.063zM35.916 10.316c0.213 0.043 0.423 0.099 0.632 0.168 0.319-0.166 0.404-0.11 0.253 0.168-0.056 0.168-0.056 0.337 0 0.505 0.589 1.825 1.179 3.649 1.768 5.474 0.334 1.145 0.165 2.212-0.505 3.2-0.947 1.305-1.873 2.624-2.779 3.958-0.436 0.689-1.039 1.152-1.811 1.389-7.944 0.042-15.888 0.056-23.832 0.042 0.13-0.964 0.452-1.862 0.968-2.695 1.29-2.077 2.933-3.831 4.926-5.263 3.705-0.056 7.411-0.056 11.116 0-1.166 1.054-1.882 2.36-2.147 3.916-0.185 1.413 0.362 2.409 1.642 2.989 2.189 0.056 4.379 0.056 6.568 0 0.805-0.129 1.464-0.508 1.979-1.137 0.863-1.192 1.705-2.399 2.526-3.621 0.651-1.188 0.763-2.424 0.337-3.705-0.548-1.798-1.095-3.595-1.642-5.389zM34.568 10.568c0.084-0.007 0.154 0.021 0.211 0.084 0.67 2.062 1.288 4.139 1.853 6.232 0.057 0.753-0.111 1.455-0.505 2.105-0.702 1.011-1.404 2.021-2.105 3.032-0.239 0.239-0.477 0.477-0.716 0.716-0.31 0.192-0.647 0.291-1.011 0.295-0.011-0.332-0.138-0.612-0.379-0.842-0.375-0.264-0.754-0.517-1.137-0.758 1.207-1.796 2.372-3.621 3.495-5.474 0.281-0.561 0.281-1.123 0-1.684-0.183-0.366-0.407-0.703-0.674-1.011-0.68-0.529-1.395-1.007-2.147-1.432 1.055-0.402 2.093-0.823 3.116-1.263zM23.958 11.242c1.703-0.082 3.36 0.156 4.968 0.716 1.227 0.529 2.406 1.147 3.537 1.853 0.929 0.68 1.055 1.48 0.379 2.4-1.207 1.825-2.414 3.649-3.621 5.474-0.083 0.273-0.013 0.498 0.211 0.674 0.624 0.1 1.185 0.339 1.684 0.716-1.038 0.042-2.077 0.056-3.116 0.042 0.032-0.541 0.186-1.047 0.463-1.516 0.977-1.958 1.987-3.895 3.032-5.811 0.13-0.54-0.080-0.835-0.632-0.884-2.629-0.165-5.057-0.937-7.284-2.316-0.18-0.381-0.222-0.774-0.126-1.179 0.182-0.046 0.35-0.102 0.505-0.168zM17.053 14.442c2.498-0.014 4.997 0 7.495 0.042 1.168 0.514 2.375 0.907 3.621 1.179-0.056 0.112-0.112 0.225-0.168 0.337-3.902 0.070-7.804 0.056-11.705-0.042 0.179-0.411 0.334-0.832 0.463-1.263 0.096-0.096 0.195-0.18 0.295-0.253zM29.263 15.874c0.272-0.025 0.525 0.031 0.758 0.168-1.034 1.872-2.003 3.781-2.905 5.726-0.153 0.442-0.279 0.891-0.379 1.347-0.583-0.092-0.934-0.429-1.053-1.011-0.092-0.641-0.007-1.259 0.253-1.853 0.685-1.359 1.667-2.454 2.947-3.284 0.152-0.358 0.278-0.723 0.379-1.095zM40.8 20.168c1.328-0.134 2.563 0.133 3.705 0.8 0.477 0.379 0.842 0.842 1.095 1.389-0.162 0.068-0.33 0.11-0.505 0.126-1.628 0.028-3.256 0.056-4.884 0.084-0.46 0.188-0.881 0.441-1.263 0.758-0.62 0.648-1.266 1.266-1.937 1.853-0.42 0.042-0.841 0.056-1.263 0.042 0.888-1.353 1.801-2.701 2.737-4.042 0.697-0.526 1.468-0.863 2.316-1.011zM40.632 23.621c1.207-0.014 2.414 0 3.621 0.042 1.148 1.272 1.415 2.718 0.8 4.337-0.818 1.743-2.193 2.698-4.126 2.863-2.701-0.342-3.88-1.858-3.537-4.547 0.766-0.598 1.482-1.257 2.147-1.979 0.344-0.284 0.709-0.522 1.095-0.716zM41.389 24.968c1.423 0.179 1.943 0.965 1.558 2.358-0.627 1.149-1.539 1.472-2.737 0.968-0.778-0.737-0.876-1.565-0.295-2.484 0.393-0.47 0.884-0.75 1.474-0.842zM12.253 26.4c0.337 0 0.674 0 1.011 0-0.14 1.964 0.758 3.058 2.695 3.284 1.534-0.059 2.558-0.817 3.074-2.274 0.085-0.332 0.128-0.669 0.126-1.011 0.365 0 0.73 0 1.095 0-0.305 2.663-1.793 4.15-4.463 4.463-1.897-0.144-3.090-1.126-3.579-2.947-0.066-0.512-0.052-1.017 0.042-1.516zM14.526 26.4c1.151 0 2.302 0 3.453 0-0.169 1.728-1.096 2.387-2.779 1.979-0.714-0.489-0.939-1.149-0.674-1.979z"></path>
<path d="M5.516 12.168c1.684-0.014 3.369 0 5.053 0.042 0.337 0.337 0.337 0.674 0 1.011-1.684 0.056-3.368 0.056-5.053 0-0.333-0.351-0.333-0.702 0-1.053z"></path>
<path d="M-0.042 16.042c0-0.168 0-0.337 0-0.505 0.095-0.052 0.179-0.123 0.253-0.211 3.705-0.056 7.411-0.056 11.116 0 0.337 0.337 0.337 0.674 0 1.011-3.677 0.056-7.354 0.056-11.032 0-0.156-0.058-0.268-0.156-0.337-0.295z"></path>
<path d="M18.484 17.726c3.182-0.311 4.978 1.106 5.389 4.253-0.25 0.601-0.629 0.699-1.137 0.295-0.203-2.644-1.621-3.753-4.253-3.326-1.306 0.26-2.485 0.794-3.537 1.6-0.587 0.503-1.148 1.036-1.684 1.6-0.66 0.126-0.926-0.14-0.8-0.8 1.594-1.912 3.601-3.119 6.021-3.621z"></path>
<path d="M2.653 18.4c1.488-0.014 2.976 0 4.463 0.042 0.431 0.211 0.53 0.534 0.295 0.968-0.063 0.053-0.133 0.095-0.211 0.126-1.544 0.056-3.088 0.056-4.632 0-0.459-0.42-0.431-0.799 0.084-1.137z"></path>
<path d="M40.884 23.874c1.694-0.2 2.802 0.502 3.326 2.105 0.161 1.854-0.639 3.075-2.4 3.663-1.847 0.256-2.984-0.516-3.411-2.316-0.035-1.775 0.793-2.926 2.484-3.453zM41.389 24.968c-0.589 0.092-1.081 0.372-1.474 0.842-0.582 0.919-0.483 1.747 0.295 2.484 1.198 0.503 2.11 0.181 2.737-0.968 0.385-1.393-0.134-2.179-1.558-2.358z"></path>
</svg>
