<!-- Generated by IcoMoon.io -->
<svg xmlns="http://www.w3.org/2000/svg" version="1.1" width="512px" height="512px" style="shape-rendering:geometricPrecision; text-rendering:geometricPrecision; image-rendering:optimizeQuality; fill-rule:evenodd; clip-rule:evenodd" xmlns:xlink="http://www.w3.org/1999/xlink">
<title>desertCard</title>
<linearGradient id="gradient1" x1="100%" y1="0%" x2="0%" y2="0%">
    <stop offset="0%" style="stop-color: #555555; stop-opacity: .6" />
    <stop offset="100%" style="stop-color: #555555; stop-opacity: 1" />
  </linearGradient>
<path fill="url(#gradient1)" d="M8.194 0.087c-0.331 0.181-0.394 0.6-0.225 1.569 0.238 1.356 0.825 2.469 1.831 3.45l0.519 0.519h-2.025c-1.506 0-2.156 0.025-2.5 0.088-1.537 0.294-2.813 1.419-3.331 2.944-0.15 0.431-0.175 0.606-0.175 1.25-0.006 0.725 0 0.769 0.194 1.162 0.256 0.512 0.694 0.938 1.238 1.194l0.406 0.188v10.425h-1c-1.456 0-1.538 0.069-1.488 1.219 0.025 0.594 0.050 0.694 0.256 1.113 0.275 0.563 0.644 0.919 1.219 1.188l0.419 0.2 9.706 0.063-0.556 1.594c-0.306 0.875-0.631 1.8-0.719 2.044l-0.162 0.456h-1.719c-1.856 0-1.988 0.019-2.131 0.344-0.144 0.319-0.044 0.669 0.244 0.819 0.262 0.131 15.35 0.131 15.613 0 0.413-0.219 0.413-0.856 0-1.075-0.137-0.069-0.525-0.087-1.887-0.087h-1.719l-0.163-0.456c-0.087-0.244-0.413-1.169-0.719-2.044l-0.556-1.594 9.706-0.063 0.419-0.2c0.575-0.269 0.944-0.625 1.219-1.188 0.206-0.419 0.231-0.519 0.256-1.113 0.050-1.15-0.031-1.219-1.488-1.219h-1v-4.794l0.462-0.225c0.556-0.275 0.913-0.644 1.181-1.219l0.2-0.419 0.019-3.281c0.019-3.787 0.012-3.894-0.469-4.875-0.238-0.494-0.375-0.681-0.825-1.131-0.444-0.444-0.637-0.588-1.131-0.831-0.887-0.431-1.194-0.475-3.606-0.475h-2.025l0.519-0.519c0.712-0.694 1.175-1.4 1.538-2.325 0.294-0.75 0.469-2.056 0.325-2.406-0.144-0.344-0.294-0.375-1.675-0.375-1.744 0-2.5 0.144-3.587 0.688-0.3 0.15-0.5 0.219-0.525 0.175-0.087-0.137-0.806-0.55-1.2-0.688-0.594-0.2-1.556-0.2-2.15 0-0.394 0.138-1.113 0.55-1.2 0.688-0.025 0.044-0.225-0.025-0.525-0.175-1.081-0.544-1.844-0.688-3.6-0.688-0.925 0.006-1.294 0.025-1.406 0.087zM11.7 1.425c0.481 0.144 1.175 0.45 1.175 0.512 0 0.025-0.063 0.206-0.137 0.413-0.1 0.288-0.131 0.519-0.137 1.056-0.006 0.769 0.119 1.263 0.463 1.806 0.106 0.162 0.188 0.3 0.188 0.313 0 0.044-0.506-0.088-0.919-0.244-0.919-0.35-1.8-1.069-2.388-1.944-0.319-0.475-0.65-1.3-0.725-1.8l-0.050-0.306 1.056 0.038c0.8 0.025 1.156 0.063 1.475 0.156zM16.962 1.494c0.469 0.231 0.8 0.569 1.031 1.063 0.137 0.294 0.163 0.438 0.163 0.881 0 0.475-0.025 0.581-0.206 0.95-0.238 0.481-0.575 0.813-1.069 1.044-0.294 0.138-0.438 0.162-0.881 0.162s-0.588-0.025-0.881-0.162c-0.494-0.231-0.831-0.563-1.069-1.044-0.181-0.369-0.206-0.475-0.206-0.95 0-0.444 0.025-0.587 0.162-0.875 0.544-1.163 1.831-1.625 2.956-1.069zM22.781 1.544c-0.075 0.488-0.394 1.287-0.719 1.781-0.581 0.881-1.462 1.6-2.394 1.956-0.413 0.156-0.919 0.287-0.919 0.244 0-0.013 0.081-0.15 0.188-0.313 0.344-0.544 0.469-1.037 0.462-1.806-0.006-0.538-0.038-0.769-0.137-1.056-0.075-0.206-0.137-0.387-0.137-0.413 0-0.063 0.669-0.356 1.075-0.481 0.531-0.156 0.844-0.194 1.762-0.2l0.863-0.006-0.044 0.294zM26.012 6.944c1.194 0.25 2.194 1.269 2.425 2.463 0.050 0.256 0.063 1.344 0.050 3.506l-0.019 3.125-0.169 0.256c-0.256 0.387-0.563 0.55-1.050 0.55s-0.794-0.163-1.050-0.55c-0.169-0.25-0.169-0.262-0.2-1.694l-0.031-1.444-0.2-0.419c-0.275-0.581-0.625-0.944-1.194-1.225-0.45-0.219-0.506-0.231-1.069-0.231-0.544 0-0.637 0.019-1.019 0.2-0.581 0.275-0.944 0.625-1.225 1.194l-0.231 0.475-0.031 2.375c-0.031 2.369-0.031 2.381-0.181 2.619-0.081 0.131-0.262 0.313-0.4 0.406-0.212 0.144-0.325 0.169-0.669 0.169s-0.456-0.025-0.669-0.169c-0.137-0.094-0.319-0.275-0.4-0.406l-0.15-0.238-0.031-2.906c-0.038-2.8-0.044-2.919-0.175-3.275-0.394-1.056-1.169-1.825-2.188-2.175-0.594-0.2-1.556-0.2-2.15 0-1.025 0.35-1.8 1.125-2.188 2.175-0.125 0.338-0.137 0.525-0.169 2.344l-0.037 1.975-0.169 0.25c-0.256 0.387-0.563 0.55-1.050 0.55s-0.794-0.163-1.050-0.55c-0.169-0.25-0.169-0.256-0.2-1.7l-0.031-1.444-0.231-0.475c-0.281-0.569-0.644-0.919-1.225-1.194l-0.419-0.2-1.438-0.031c-1.169-0.025-1.475-0.056-1.625-0.137-0.569-0.306-0.763-0.894-0.587-1.75 0.237-1.137 1.194-2.125 2.325-2.4 0.438-0.106 19.613-0.125 20.119-0.019zM16.025 10.869c0.469 0.231 0.8 0.569 1.031 1.063l0.163 0.35 0.063 5.813 0.2 0.419c0.275 0.581 0.625 0.944 1.194 1.225 0.45 0.219 0.506 0.231 1.075 0.231s0.625-0.012 1.075-0.231c0.569-0.281 0.919-0.644 1.194-1.225l0.2-0.419 0.063-4.762 0.169-0.25c0.256-0.394 0.563-0.55 1.056-0.55 0.337 0 0.45 0.031 0.663 0.169 0.137 0.094 0.319 0.275 0.4 0.406 0.144 0.225 0.15 0.3 0.181 1.681l0.031 1.438 0.231 0.475c0.281 0.563 0.644 0.925 1.212 1.188l0.4 0.188v4.8h-3.969c-2.938 0-4.006 0.019-4.125 0.075-0.181 0.081-0.344 0.344-0.344 0.55s0.163 0.469 0.344 0.55c0.119 0.056 1.469 0.075 5.387 0.075h5.219l-0.044 0.231c-0.063 0.337-0.256 0.625-0.55 0.819l-0.256 0.169-5.313 0.031c-2.925 0.019-5.369 0.056-5.431 0.087-0.131 0.063-0.294 0.356-0.294 0.525 0 0.069 0.363 1.156 0.806 2.425l0.806 2.306-1.431 0.019c-0.788 0.006-2.075 0.006-2.863 0l-1.431-0.019 0.806-2.306c0.444-1.269 0.806-2.356 0.806-2.425 0-0.169-0.162-0.462-0.294-0.525-0.063-0.031-2.5-0.069-5.425-0.087l-5.313-0.031-0.237-0.15c-0.288-0.175-0.519-0.512-0.575-0.831l-0.044-0.238h5.219c3.919 0 5.269-0.019 5.387-0.075 0.181-0.081 0.344-0.344 0.344-0.55s-0.162-0.469-0.344-0.55c-0.119-0.056-1.188-0.075-4.125-0.075h-3.969v-10.387l0.831 0.025c0.737 0.019 0.85 0.031 1.063 0.169 0.131 0.081 0.313 0.262 0.406 0.4 0.169 0.25 0.169 0.262 0.2 1.694l0.031 1.444 0.2 0.419c0.275 0.581 0.625 0.944 1.194 1.225 0.45 0.219 0.506 0.231 1.069 0.231 0.544 0 0.637-0.019 1.019-0.2 0.581-0.275 0.944-0.625 1.225-1.194l0.231-0.475 0.031-1.969c0.031-1.969 0.031-1.975 0.194-2.319 0.544-1.162 1.831-1.625 2.956-1.069z"></path>
<path fill="url(#gradient1)" d="M15.694 22.962c-0.544 0.3-0.313 1.163 0.306 1.163 0.319 0 0.625-0.306 0.625-0.619 0-0.469-0.519-0.775-0.931-0.544z"></path>
</svg>
