<!-- Generated by IcoMoon.io -->
<svg version="1.1" xmlns="http://www.w3.org/2000/svg" width="32" height="32" viewBox="0 0 32 32">
<title>dessertCard</title>
<linearGradient id="gradient1" x1="100%" y1="0%" x2="0%" y2="0%">
    <!-- <stop offset="0%" style="stop-color: #5e2000; stop-opacity: 1" />
    <stop offset="100%" style="stop-color: #5e2000; stop-opacity: .3" /> -->
         <stop offset="0%" style="stop-color: #999999; stop-opacity: .3" />
    <stop offset="100%" style="stop-color: #999999; stop-opacity: .3" />
  </linearGradient>
<path fill="url(#gradient1)" d="M14.188 3.481c-0.744 0.075-1.387 0.169-2.156 0.313-0.75 0.144-0.894 0.188-1.044 0.338-0.313 0.306-0.213 0.825 0.194 0.987 0.15 0.069 0.294 0.056 0.831-0.050 1.381-0.281 1.881-0.331 3.55-0.362 1.825-0.037 2.794 0.037 4.25 0.331 3.506 0.7 6.106 2.313 6.856 4.256 0.131 0.344 0.163 0.537 0.169 1.019 0.006 0.694-0.094 1.088-0.444 1.688-0.3 0.525-1.219 1.438-1.863 1.863-0.663 0.438-1.719 0.95-2.544 1.231-0.369 0.125-0.719 0.287-0.781 0.356-0.1 0.113-0.113 0.313-0.144 2.294l-0.031 2.175-0.188 0.3c-0.481 0.781-1.488 0.775-1.95-0.012-0.156-0.269-0.169-0.35-0.206-1.294-0.031-0.95-0.044-1.025-0.225-1.413-0.25-0.538-0.675-0.956-1.2-1.206-0.369-0.175-0.481-0.2-0.95-0.194-0.406 0-0.619 0.031-0.887 0.144-0.719 0.281-1.331 1.044-1.488 1.85-0.050 0.256-0.063 1.262-0.050 3.219 0.019 2.788 0.019 2.85 0.156 3.1 0.238 0.444 0.756 0.85 1.713 1.337 1.031 0.538 1.531 0.856 1.8 1.163 0.381 0.431 0.444 0.419-1.912 0.381-1.637-0.025-2.325-0.063-3.050-0.163-1.606-0.219-2.9-0.506-4.269-0.95-0.719-0.238-0.756-0.256-0.694-0.375 0.1-0.2 0.631-0.406 1.469-0.581 1.488-0.313 1.944-0.575 2.287-1.319l0.144-0.313 0.019-3.813c0.019-4.006 0.012-4.081-0.262-4.231-0.069-0.037-0.525-0.206-1.006-0.369-0.481-0.156-1.156-0.419-1.494-0.581-1.756-0.819-3.15-2.144-3.525-3.35-0.162-0.519-0.138-1.425 0.050-1.906 0.206-0.537 0.606-1.131 1.075-1.594 0.606-0.606 0.681-0.831 0.394-1.175-0.181-0.219-0.438-0.294-0.675-0.206-0.45 0.175-1.35 1.244-1.763 2.088-0.506 1.063-0.594 2.131-0.256 3.2l0.162 0.506-0.119 0.313c-0.069 0.169-0.138 0.45-0.163 0.619-0.025 0.175-0.063 0.344-0.087 0.381-0.019 0.037-0.319 0.281-0.663 0.544-0.719 0.537-1.7 1.519-2.087 2.1-0.387 0.569-0.725 1.269-0.919 1.913-0.15 0.494-0.169 0.669-0.175 1.438 0 0.725 0.019 0.962 0.138 1.4 0.925 3.4 4.95 6.131 10.7 7.25 1.831 0.356 3.344 0.469 5.731 0.425 2.887-0.050 4.925-0.363 7.269-1.119 4.306-1.381 7.206-3.775 7.95-6.55 0.119-0.438 0.137-0.688 0.137-1.406-0.006-0.769-0.025-0.944-0.175-1.438-0.194-0.644-0.531-1.344-0.919-1.913-0.394-0.588-1.413-1.6-2.156-2.156-0.556-0.412-0.65-0.506-0.65-0.656 0-0.094-0.069-0.4-0.156-0.675l-0.156-0.494 0.163-0.488c0.594-1.775-0.106-3.725-1.875-5.206-1.825-1.531-4.569-2.563-7.769-2.913-0.806-0.087-3.406-0.119-4.081-0.050zM5.55 13.919c0.969 0.956 2.425 1.8 4.15 2.4l0.613 0.212v2.219l-0.45-0.163c-0.713-0.256-1.781-0.788-2.4-1.2-1.037-0.694-1.819-1.6-2.15-2.481-0.131-0.356-0.25-1.344-0.162-1.344 0.019 0 0.2 0.162 0.4 0.356zM26.875 13.856c-0.006 1.588-1.331 3.156-3.594 4.238-0.375 0.181-0.75 0.35-0.825 0.375l-0.144 0.038v-2.175l0.519-0.206c1.488-0.594 2.8-1.394 3.606-2.213 0.188-0.194 0.363-0.35 0.387-0.35s0.050 0.131 0.050 0.294zM4.144 15.344c0.112 0.338 0.112 0.356-0.006 0.675-0.388 1.038-0.313 2.244 0.206 3.325 0.513 1.069 1.594 2.15 2.956 2.95 0.631 0.375 1.85 0.925 2.469 1.119 0.194 0.063 0.356 0.137 0.356 0.163 0 0.1-0.444 0.244-1.275 0.425-1.362 0.294-1.862 0.544-2.263 1.137l-0.2 0.294-0.612-0.313c-1.362-0.7-2.725-1.762-3.438-2.688-0.844-1.1-1.231-2.444-1.031-3.587 0.219-1.231 1.031-2.5 2.25-3.512 0.225-0.181 0.419-0.331 0.438-0.331 0.025 0 0.088 0.156 0.15 0.344zM28.35 15.256c0.5 0.387 1.212 1.156 1.575 1.713 1.813 2.762 0.55 5.775-3.331 7.956-1.8 1.006-4.369 1.819-6.863 2.163l-0.613 0.081-0.181-0.394c-0.337-0.744-0.981-1.288-2.375-2l-0.719-0.369 1-0.044c5.581-0.231 10.038-2.5 11.075-5.644 0.144-0.431 0.163-0.606 0.169-1.281 0-0.681-0.025-0.844-0.169-1.281-0.163-0.494-0.163-0.506-0.063-0.825 0.056-0.181 0.119-0.331 0.131-0.331 0.019 0 0.181 0.113 0.363 0.256zM26.781 18.094c-0.163 0.7-0.488 1.238-1.156 1.913s-1.275 1.094-2.281 1.587c-2.031 1-4.556 1.531-7.262 1.531h-0.956v-2.281l1.344-0.012c0.837-0.012 1.344 0.006 1.344 0.044 0 0.144 0.738 0.8 1.081 0.962 1.306 0.613 2.9-0.156 3.288-1.587l0.106-0.387 0.544-0.212c0.694-0.269 1.7-0.775 2.262-1.131 0.469-0.306 1.256-0.944 1.563-1.269l0.188-0.194 0.019 0.306c0.012 0.169-0.025 0.5-0.081 0.731zM5.669 17.563c0.95 0.887 2.362 1.7 3.862 2.225l0.75 0.262 0.019 1.1c0.006 0.644-0.006 1.1-0.044 1.1-0.094 0-1.381-0.531-1.794-0.738-1.506-0.762-2.781-2.012-3.144-3.094-0.138-0.394-0.25-1.294-0.162-1.294 0.025 0 0.256 0.2 0.513 0.438zM16.619 17.375c0.262 0.075 0.538 0.325 0.7 0.637 0.094 0.188 0.119 0.363 0.119 0.881v0.65l-0.875 0.044c-0.475 0.025-1 0.025-1.156 0.006l-0.281-0.044v-0.581c0-0.313 0.031-0.669 0.069-0.788 0.113-0.331 0.363-0.619 0.644-0.75 0.294-0.131 0.475-0.144 0.781-0.056z"></path>
<path fill="url(#gradient1)" d="M8.281 5.025c-0.419 0.419-0.137 1.075 0.45 1.056 0.313-0.006 0.581-0.3 0.581-0.619 0-0.506-0.675-0.794-1.031-0.438z"></path>
<path fill="url(#gradient1)" d="M19.063 6.162c-0.050 0.025-0.538 0.275-1.075 0.569-1.031 0.556-1.313 0.775-1.431 1.131-0.137 0.412-0.044 0.731 0.606 2.037 0.575 1.156 0.637 1.262 0.9 1.425 0.25 0.162 0.325 0.181 0.656 0.156 0.331-0.019 0.494-0.088 1.375-0.569 1.144-0.631 1.194-0.669 1.35-1.006 0.231-0.506 0.181-0.713-0.531-2.138-0.738-1.469-0.844-1.587-1.431-1.619-0.181-0.013-0.369-0.006-0.419 0.013zM19.844 8.419l0.456 0.95-0.75 0.412c-0.413 0.225-0.781 0.4-0.819 0.387s-0.269-0.444-0.512-0.963l-0.45-0.938 0.756-0.412c0.419-0.225 0.781-0.406 0.806-0.4s0.256 0.444 0.512 0.963z"></path>
<path fill="url(#gradient1)" d="M11.537 8.137c-0.475 0.1-0.606 0.269-1.256 1.594-0.644 1.306-0.738 1.619-0.6 2.037 0.113 0.331 0.438 0.588 1.494 1.156 0.994 0.537 1.225 0.619 1.606 0.55 0.425-0.081 0.631-0.35 1.294-1.688 0.675-1.369 0.725-1.569 0.494-2.075-0.15-0.325-0.319-0.45-1.444-1.056-0.963-0.525-1.2-0.6-1.588-0.519zM12.669 9.838l0.769 0.419-0.475 0.95c-0.262 0.525-0.488 0.956-0.494 0.969-0.012 0.012-0.369-0.169-0.794-0.406l-0.781-0.425 0.469-0.981c0.256-0.544 0.488-0.975 0.506-0.963s0.381 0.206 0.8 0.438z"></path>
</svg>
