<?xml version="1.0" encoding="UTF-8"?>
<!DOCTYPE svg PUBLIC "-//W3C//DTD SVG 1.1//EN" "http://www.w3.org/Graphics/SVG/1.1/DTD/svg11.dtd">
<svg xmlns="http://www.w3.org/2000/svg" version="1.1" width="512px" height="512px" style="shape-rendering:geometricPrecision; text-rendering:geometricPrecision; image-rendering:optimizeQuality; fill-rule:evenodd; clip-rule:evenodd" xmlns:xlink="http://www.w3.org/1999/xlink">
  <defs>
   <linearGradient id="gradient1" x1="100%" y1="0%" x2="0%" y2="0%">
    <stop offset="0%" style="stop-color: #555555; stop-opacity: .6" />
    <stop offset="100%" style="stop-color: #555555; stop-opacity: 1" />
  </linearGradient>
  </defs>


<path fill="url(#gradient1)" d="M 363.5,79.5 C 374.485,78.4569 377.985,83.1235 374,93.5C 368.5,99 363,104.5 357.5,110C 373.316,124.482 375.65,140.816 364.5,159C 384.025,160.201 396.858,170.034 403,188.5C 411.945,244.118 420.612,299.784 429,355.5C 429.497,359.524 429.331,363.524 428.5,367.5C 442.171,367.333 455.837,367.5 469.5,368C 474,369.833 477.167,373 479,377.5C 483.943,400.766 476.11,417.932 455.5,429C 453.212,429.822 450.878,430.489 448.5,431C 334.833,431.667 221.167,431.667 107.5,431C 104.099,429.68 102.765,427.18 103.5,423.5C 102.765,419.82 104.099,417.32 107.5,416C 218.167,415.667 328.833,415.333 439.5,415C 457.022,411.957 465.022,401.457 463.5,383.5C 324.833,383.5 186.167,383.5 47.5,383.5C 47.8181,406.976 59.8181,417.809 83.5,416C 84.9308,416.465 86.0975,417.299 87,418.5C 87.6667,421.833 87.6667,425.167 87,428.5C 63.4771,436.434 45.8104,429.434 34,407.5C 31.5421,397.653 30.8754,387.653 32,377.5C 33.8333,373 37,369.833 41.5,368C 55.1626,367.5 68.8293,367.333 82.5,367.5C 81.6693,363.524 81.5027,359.524 82,355.5C 90.3333,301.167 98.6667,246.833 107,192.5C 110.761,175.302 121.094,164.302 138,159.5C 137.782,156.821 137.115,154.155 136,151.5C 133.833,123 147,109.833 175.5,112C 181.563,113.531 186.897,116.364 191.5,120.5C 200.726,112.484 211.393,109.65 223.5,112C 242.438,118.355 250.272,131.522 247,151.5C 246.265,153.871 245.432,156.205 244.5,158.5C 253.833,159.833 263.167,159.833 272.5,158.5C 265.699,140.825 267.533,124.158 278,108.5C 284.5,102 291,95.5 297.5,89C 315.544,79.4441 331.378,82.2775 345,97.5C 351.062,91.2698 357.229,85.2698 363.5,79.5 Z M 312.5,100.5 C 317.08,100.113 321.414,100.947 325.5,103C 335.03,112.196 344.197,121.696 353,131.5C 355,136.167 355,140.833 353,145.5C 349.201,150.301 345.034,154.801 340.5,159C 324.49,159.833 308.49,159.666 292.5,158.5C 283.345,145.313 283.179,131.98 292,118.5C 298.161,111.491 304.994,105.491 312.5,100.5 Z M 162.5,128.5 C 179.765,128.257 185.598,136.257 180,152.5C 173.749,159.011 166.582,160.177 158.5,156C 151.989,149.749 150.823,142.582 155,134.5C 157.114,131.879 159.614,129.879 162.5,128.5 Z M 210.5,128.5 C 227.765,128.257 233.598,136.257 228,152.5C 221.749,159.011 214.582,160.177 206.5,156C 199.989,149.749 198.823,142.582 203,134.5C 205.114,131.879 207.614,129.879 210.5,128.5 Z M 146.5,175.5 C 219.167,175.333 291.834,175.5 364.5,176C 376.199,177.03 383.699,183.197 387,194.5C 391.545,221.093 395.211,247.759 398,274.5C 396.661,277.094 394.494,278.594 391.5,279C 386.928,279.887 382.595,279.22 378.5,277C 377.283,275.352 376.45,273.519 376,271.5C 378.309,256.27 372.475,245.77 358.5,240C 351.167,239.333 343.833,239.333 336.5,240C 322.525,245.77 316.691,256.27 319,271.5C 315.813,285.344 307.646,289.51 294.5,284C 291.894,282.062 290.061,279.562 289,276.5C 287.807,266.883 287.141,257.216 287,247.5C 280.645,228.562 267.478,220.728 247.5,224C 235,227.167 227.167,235 224,247.5C 223.667,266.167 223.333,284.833 223,303.5C 221.153,315.343 214.32,320.176 202.5,318C 195.947,315.399 192.447,310.566 192,303.5C 191.667,290.5 191.333,277.5 191,264.5C 188.167,256.333 182.667,250.833 174.5,248C 167.167,247.333 159.833,247.333 152.5,248C 138.525,253.77 132.691,264.27 135,279.5C 133.301,285.365 129.301,288.031 123,287.5C 115.428,288.166 111.594,284.833 111.5,277.5C 115.45,249.803 119.616,222.136 124,194.5C 127.466,183.187 134.966,176.854 146.5,175.5 Z M 250.5,240.5 C 262.308,238.817 269.141,243.817 271,255.5C 271.333,263.5 271.667,271.5 272,279.5C 278.355,298.438 291.522,306.272 311.5,303C 330.134,296.604 338.3,283.437 336,263.5C 337.56,257.788 341.393,255.121 347.5,255.5C 353.607,255.121 357.44,257.788 359,263.5C 356.691,278.73 362.525,289.23 376.5,295C 383.833,295.667 391.167,295.667 398.5,295C 399.766,294.691 400.933,294.191 402,293.5C 405.554,315.324 409.054,337.157 412.5,359C 411.822,363.678 409.155,366.345 404.5,367C 303.79,367.991 203.123,367.658 102.5,366C 100.129,364.257 98.7952,361.923 98.5,359C 101.398,339.776 104.565,320.61 108,301.5C 109.067,302.191 110.234,302.691 111.5,303C 139.659,308.497 153.493,296.997 153,268.5C 154.339,265.906 156.506,264.406 159.5,264C 164.072,263.113 168.405,263.78 172.5,266C 173.126,266.75 173.626,267.584 174,268.5C 175.282,282.765 175.949,297.099 176,311.5C 180.858,326.853 191.358,334.853 207.5,335.5C 219.22,335.724 228.386,331.057 235,321.5C 236.725,318.326 238.058,314.993 239,311.5C 239.06,291.124 239.727,270.791 241,250.5C 243.022,245.98 246.189,242.647 250.5,240.5 Z"/>
<path fill="url(#gradient1)" d="M 283.5,335.5 C 296.837,335.333 310.171,335.5 323.5,336C 325.333,336.5 326.5,337.667 327,339.5C 327.667,342.167 327.667,344.833 327,347.5C 326.5,349.333 325.333,350.5 323.5,351C 310.167,351.667 296.833,351.667 283.5,351C 280.484,349.471 279.151,346.971 279.5,343.5C 279.282,339.934 280.616,337.268 283.5,335.5 Z"/>
<path fill="url(#gradient1)" d="M 347.5,335.5 C 358.86,334.71 362.193,339.543 357.5,350C 346.964,353.997 342.464,350.497 344,339.5C 344.69,337.65 345.856,336.316 347.5,335.5 Z"/>
</svg>
