<!-- Generated by IcoMoon.io -->
<svg version="1.1" xmlns="http://www.w3.org/2000/svg" width="22" height="22" viewBox="0 0 32 32">
<title>facebook</title>
<path fill="#5c5a46" d="M15.068 0.052c-2.268 0.15-4.45 0.756-6.413 1.777-4.594 2.392-7.755 6.835-8.488 11.93-0.121 0.851-0.147 1.263-0.15 2.29 0 1.031 0.026 1.42 0.15 2.307 0.432 3.053 1.764 5.945 3.828 8.291 2.552 2.902 6.073 4.79 9.888 5.304l0.154 0.020v-11.881h-3.010v-4.025h3.004l0.016-1.4c0.016-1.485 0.023-1.561 0.2-2.209 0.569-2.071 2.238-3.701 4.339-4.227 0.654-0.167 0.913-0.18 3.275-0.18h2.189v3.989l-2.182 0.010c-2.002 0.010-2.202 0.016-2.366 0.072-0.677 0.223-1.178 0.723-1.394 1.394-0.049 0.154-0.059 0.347-0.072 1.364l-0.013 1.188h6.034l-0.016 0.105c-0.010 0.059-0.128 0.959-0.255 1.996l-0.239 1.891-5.5 0.016-0.010 5.945c-0.007 5.153 0 5.948 0.039 5.948 0.154 0 1.306-0.219 1.819-0.347 2.464-0.605 4.712-1.777 6.665-3.468 0.524-0.452 1.41-1.364 1.849-1.898 2.827-3.449 4.090-7.84 3.524-12.25-0.393-3.069-1.705-6.014-3.727-8.376-0.664-0.775-1.649-1.701-2.487-2.336-2.382-1.809-5.072-2.863-8.164-3.193-0.334-0.036-2.13-0.069-2.487-0.046z"></path>
</svg>
