<!-- Generated by IcoMoon.io -->
<svg version="1.1" xmlns="http://www.w3.org/2000/svg" width="64" height="64" viewBox="0 0 32 32">
<title>fishCard</title>
<linearGradient id="gradient1" x1="100%" y1="0%" x2="0%" y2="0%">
    <stop offset="0%" style="stop-color: #555555; stop-opacity: .6" />
    <stop offset="100%" style="stop-color: #555555; stop-opacity: 1" />
  </linearGradient>
<path fill="url(#gradient1)" d="M14.65 3.388c-0.45 0.219-0.306 1.237 0.281 2.006 0.731 0.95 0.744 1.412 0.069 2.325-0.481 0.65-0.594 0.969-0.594 1.687 0.006 0.65 0.144 1.031 0.613 1.644 0.363 0.475 0.406 0.556 0.456 0.956 0.050 0.431 0.213 0.619 0.525 0.619 0.163 0 0.269-0.044 0.375-0.156 0.125-0.137 0.137-0.194 0.113-0.575-0.038-0.506-0.194-0.894-0.569-1.381-0.444-0.575-0.5-0.719-0.469-1.231 0.019-0.438 0.031-0.463 0.419-0.994 0.525-0.719 0.65-1.094 0.619-1.787-0.031-0.631-0.188-1.031-0.669-1.65-0.169-0.225-0.325-0.506-0.344-0.619-0.019-0.106-0.050-0.306-0.069-0.431-0.063-0.388-0.412-0.581-0.756-0.413z"></path>
<path fill="url(#gradient1)" d="M17.506 4.588c-0.169 0.181-0.156 0.344 0.056 1.1 0.113 0.388 0.131 0.575 0.106 1.094-0.044 0.869-0.269 1.469-0.788 2.119-0.256 0.319-0.269 0.656-0.031 0.844 0.363 0.287 0.631 0.144 1.119-0.588 0.425-0.644 0.656-1.306 0.75-2.188 0.081-0.763-0.2-2.081-0.506-2.388-0.2-0.194-0.519-0.194-0.706 0.006z"></path>
<path fill="url(#gradient1)" d="M13.519 6.125c-0.181 0.075-0.656 0.725-0.894 1.225-0.444 0.931-0.569 2.181-0.313 3.181 0.219 0.85 0.475 1.119 0.894 0.944 0.281-0.119 0.375-0.363 0.256-0.7-0.45-1.287-0.313-2.431 0.438-3.544 0.194-0.287 0.35-0.581 0.35-0.656 0-0.306-0.438-0.575-0.731-0.45z"></path>
<path fill="url(#gradient1)" d="M16.313 13.881c-2.831 0.281-5.363 1.244-7.488 2.85-0.287 0.219-0.531 0.394-0.55 0.394-0.012 0-0.287-0.194-0.6-0.425-1.069-0.794-2.381-1.494-3.7-1.981-0.663-0.244-0.875-0.25-1.075-0.019-0.1 0.106-0.119 0.225-0.112 0.731 0.019 1.444 0.619 3.106 1.619 4.456l0.394 0.538-0.338 0.456c-0.844 1.131-1.475 2.575-1.612 3.706-0.019 0.156-0.056 0.413-0.075 0.569l-0.031 0.281h-2.438l-0.15 0.163c-0.2 0.212-0.2 0.469-0.006 0.694l0.15 0.175 4.419 0.038 0.531 0.725c0.612 0.825 0.831 1.038 1.313 1.262l0.344 0.163h18.188l0.344-0.163c0.481-0.225 0.7-0.438 1.313-1.262l0.531-0.725 4.419-0.038 0.15-0.175c0.162-0.194 0.187-0.356 0.075-0.563-0.156-0.294-0.069-0.288-3.863-0.294l-3.594-0.006 0.25-0.144c1.575-0.925 2.206-1.4 3.194-2.381 0.712-0.706 1.619-1.825 1.825-2.256 0.119-0.262 0.069-0.394-0.425-1.1-0.55-0.788-2.094-2.331-2.938-2.938-1.938-1.394-4.088-2.262-6.469-2.619-0.956-0.144-2.744-0.2-3.594-0.113zM19.156 14.938c0.481 0.056 1.906 0.3 1.956 0.344 0.006 0.006-0.144 0.244-0.331 0.525-0.738 1.106-1.181 2.319-1.375 3.769l-0.038 0.3h-3.369l-0.069-0.175c-0.313-0.85-1.025-1.656-1.806-2.031-0.606-0.294-1.231-0.406-1.762-0.313-0.65 0.113-0.85 0.225-1 0.556-0.169 0.387-0.219 1.188-0.094 1.631l0.088 0.331h-1.806c-1.975 0-2.181 0.031-2.3 0.344-0.094 0.256-0.075 0.337 0.119 0.538l0.181 0.181h4.381l0.319 0.313c0.731 0.712 1.787 1.081 2.681 0.931l0.35-0.056 0.45 0.45c0.388 0.387 0.444 0.462 0.369 0.538s-0.156 0.050-0.575-0.15c-0.475-0.238-0.5-0.244-1.175-0.244-0.65 0-0.719 0.012-1.119 0.2-0.231 0.113-0.569 0.344-0.756 0.519-0.287 0.269-0.387 0.325-0.681 0.375-0.188 0.031-0.488 0.125-0.662 0.219l-0.325 0.163-0.375-0.231c-0.444-0.269-1.287-0.887-1.675-1.225-0.412-0.356-0.563-0.331-1.2 0.194-0.769 0.625-1.6 1.15-2.587 1.631-1.212 0.594-1.15 0.587-1.081 0.113 0.156-1.038 0.763-2.337 1.587-3.4 0.662-0.85 0.662-0.887 0.138-1.525-0.925-1.131-1.462-2.225-1.694-3.456l-0.094-0.494 0.169 0.044c0.306 0.069 1.913 0.894 2.475 1.269 0.313 0.206 0.8 0.569 1.088 0.8 0.7 0.563 0.75 0.563 1.475-0.031 1.894-1.538 4.35-2.594 6.688-2.875 0.313-0.037 0.631-0.081 0.719-0.094 0.35-0.050 2.194-0.031 2.719 0.025zM22.594 15.744c0.175 0.069 0.394 0.15 0.488 0.188l0.175 0.069-0.275 0.356c-1.288 1.7-1.719 3.837-1.169 5.825 0.069 0.244 0.125 0.456 0.125 0.475s-0.181 0.031-0.4 0.031c-0.225 0-0.475 0.025-0.569 0.063-0.188 0.069-0.225 0.006-0.381-0.681-0.4-1.719-0.094-3.769 0.788-5.262 0.269-0.456 0.8-1.181 0.863-1.181 0.025 0 0.188 0.056 0.356 0.119zM24.881 16.863c0.325 0.2 0.831 0.544 1.119 0.762 0.656 0.494 1.788 1.619 2.275 2.269 0.431 0.569 0.438 0.519-0.163 1.262-0.856 1.056-2.2 2.219-3.387 2.925-0.494 0.294-0.494 0.294-0.925-0.238-0.819-1.006-1.231-2.331-1.156-3.706 0.044-0.844 0.169-1.319 0.538-2.106 0.269-0.556 0.938-1.531 1.056-1.531 0.025 0 0.313 0.163 0.644 0.363zM13.625 18.569c0.512 0.244 0.9 0.619 1.156 1.131 0.3 0.606 0.281 0.688-0.094 0.337-0.238-0.225-0.356-0.288-0.512-0.288-0.269 0-0.469 0.144-0.519 0.369-0.050 0.238 0.031 0.4 0.4 0.775 0.287 0.3 0.287 0.3 0.1 0.262-0.669-0.156-1.319-0.656-1.656-1.294-0.162-0.306-0.213-0.481-0.238-0.837-0.044-0.663-0.037-0.669 0.537-0.637 0.35 0.012 0.575 0.069 0.825 0.181zM19.375 21.012c0 0.15 0.181 1.269 0.219 1.375 0.031 0.087-0.025 0.075-0.356-0.063-0.55-0.225-1.25-0.256-1.8-0.081l-0.406 0.131-0.519-0.519c-0.481-0.481-0.512-0.531-0.475-0.719l0.044-0.2h1.644c1.281 0 1.65 0.019 1.65 0.075zM18.625 23.219c0.238 0.038 0.756 0.363 0.869 0.544 0.056 0.087 0.050 0.181-0.031 0.425-0.069 0.212-0.094 0.456-0.075 0.781l0.019 0.469h-2.775l-0.063-0.238c-0.087-0.313-0.087-0.431 0.025-0.806 0.125-0.419 0.4-0.788 0.744-0.988 0.281-0.163 0.719-0.281 0.944-0.244 0.069 0.006 0.225 0.031 0.344 0.056zM9.675 24.712c0.244 0.163 0.45 0.319 0.45 0.35s-0.025 0.125-0.063 0.212l-0.063 0.163h-4.406l0.594-0.331c0.519-0.281 1.469-0.919 1.931-1.288l0.156-0.119 0.469 0.363c0.262 0.2 0.681 0.494 0.931 0.65zM14.787 23.781c0.169 0.050 0.4 0.156 0.519 0.238l0.213 0.144 0.012 1.275h-2.206c-2.088 0-2.2-0.006-2.144-0.113 0.169-0.313 0.6-0.512 1.125-0.512h0.375l0.262-0.344c0.287-0.387 0.575-0.581 0.994-0.694 0.375-0.106 0.488-0.106 0.85 0.006zM21.844 23.756c0.506 0.144 0.913 0.775 0.806 1.262-0.087 0.431-0.056 0.419-1.125 0.419h-0.969l-0.094-0.219c-0.119-0.288-0.106-0.506 0.031-0.813 0.144-0.313 0.363-0.519 0.675-0.625 0.294-0.106 0.363-0.113 0.675-0.025zM25.731 26.863c-0.35 0.444-0.525 0.613-0.75 0.694-0.25 0.094-17.712 0.094-17.962 0-0.225-0.081-0.4-0.25-0.75-0.7l-0.275-0.356h20.013l-0.275 0.363z"></path>
<path fill="url(#gradient1)" d="M24.738 18.913c-0.344 0.181-0.475 0.694-0.275 1.075 0.262 0.512 1.038 0.506 1.35-0.006 0.413-0.669-0.375-1.45-1.075-1.069z"></path>
</svg>
