<!-- Generated by IcoMoon.io -->
<svg version="1.1" xmlns="http://www.w3.org/2000/svg" width="32" height="32" viewBox="0 0 32 32">
<path fill="#888888" opacity="1" d="M14.544 3.094c-3.125 0.506-5.787 2.362-7.294 5.069-1.131 2.031-1.531 4.537-1.031 6.425 0.775 2.938 3.406 6.837 7.856 11.65 1.262 1.363 1.55 1.525 2.337 1.294 0.325-0.094 0.431-0.169 0.906-0.656 0.775-0.788 2.2-2.381 3.094-3.45 2.944-3.538 4.725-6.462 5.381-8.838 0.15-0.569 0.169-0.713 0.169-1.744 0-1.238-0.1-1.887-0.469-3-1.113-3.362-4.037-5.944-7.55-6.662-0.806-0.169-2.625-0.212-3.4-0.087zM17.706 4.188c1.744 0.338 3.356 1.194 4.631 2.475 1.681 1.681 2.619 3.9 2.625 6.213 0 0.725-0.025 0.931-0.163 1.45-0.587 2.113-2.012 4.531-4.525 7.669-0.969 1.206-2.475 2.925-3.438 3.931-0.838 0.869-0.838 0.869-1.675 0-3.488-3.631-6.519-7.788-7.525-10.319-0.475-1.181-0.6-1.769-0.6-2.731 0.006-2.313 0.944-4.531 2.625-6.213 1.494-1.494 3.325-2.356 5.588-2.625 0.469-0.056 1.813 0.025 2.456 0.15z"></path>
<path fill="#888888" opacity="1" d="M15.125 5.037c-3.481 0.444-6.231 2.969-6.975 6.4-0.156 0.713-0.156 2.444 0 3.119 0.381 1.694 1.144 3.056 2.325 4.194 3.244 3.094 8.244 2.975 11.325-0.275 1.7-1.8 2.462-4.213 2.1-6.644-0.488-3.313-3.006-5.956-6.344-6.681-0.45-0.094-1.994-0.169-2.431-0.112zM17.413 6.15c2.781 0.6 4.869 2.725 5.475 5.569 0.1 0.488 0.1 2.081 0 2.563-0.625 2.9-2.706 4.981-5.606 5.606-0.481 0.1-2.075 0.1-2.563 0-2.887-0.619-4.988-2.719-5.606-5.606-0.1-0.481-0.1-2.081 0-2.563 0.3-1.412 0.981-2.694 1.95-3.656 0.988-0.994 2.381-1.725 3.688-1.938 0.256-0.037 0.512-0.081 0.563-0.094 0.219-0.056 1.694 0.031 2.1 0.119z"></path>
<path fill="#888888" opacity="1" d="M15.494 7.581c-0.575 0.213-0.906 0.656-0.981 1.294l-0.044 0.381-0.363 0.15c-0.563 0.225-1.019 0.525-1.519 0.988-0.775 0.725-1.275 1.606-1.5 2.65-0.1 0.488-0.119 0.519-0.306 0.581-0.225 0.075-0.531 0.375-0.681 0.669-0.219 0.431-0.056 1.156 0.319 1.431s0.375 0.275 5.575 0.275c4.706 0 4.988-0.006 5.225-0.119 0.137-0.063 0.313-0.181 0.387-0.262 0.313-0.344 0.425-0.969 0.244-1.387-0.1-0.238-0.444-0.575-0.669-0.656-0.137-0.056-0.169-0.131-0.269-0.588-0.35-1.631-1.406-2.938-2.913-3.594l-0.469-0.2-0.044-0.363c-0.1-0.75-0.631-1.263-1.375-1.306-0.238-0.019-0.481 0.006-0.619 0.056zM16.344 8.656c0.281 0.275 0.219 0.344-0.344 0.344-0.406 0-0.5-0.019-0.5-0.094 0-0.169 0.294-0.406 0.5-0.406 0.119 0 0.25 0.056 0.344 0.156zM16.8 10.094c1.194 0.25 2.188 1.012 2.731 2.094 0.188 0.369 0.406 1.044 0.406 1.244 0 0.050-1.106 0.069-3.938 0.069s-3.938-0.019-3.938-0.069c0-0.188 0.219-0.875 0.387-1.213 0.8-1.625 2.594-2.5 4.35-2.125zM20.962 14.637c0.050 0.081 0.050 0.144 0 0.219-0.063 0.106-0.381 0.113-4.931 0.131-3.537 0.006-4.881-0.006-4.944-0.056-0.106-0.088-0.113-0.256-0.012-0.356 0.056-0.056 1.213-0.075 4.944-0.063 4.563 0.019 4.881 0.025 4.944 0.125z"></path>
<path fill="#888888" opacity="1" d="M11.037 25.256c-2.381 0.306-3.638 0.762-3.944 1.413-0.306 0.644 0.281 1.219 1.631 1.613 1.694 0.488 4.975 0.769 8.213 0.694 5.038-0.113 7.9-0.788 8.038-1.887 0.119-0.938-1.4-1.55-4.738-1.919-0.144-0.019-0.238 0.050-0.581 0.431-0.225 0.25-0.406 0.462-0.406 0.481 0 0.012 0.244 0.044 0.55 0.069 1.619 0.125 4.012 0.637 4.012 0.856 0 0.1-1.169 0.425-2.094 0.575-1.931 0.325-2.837 0.387-5.844 0.387-2.863 0-3.606-0.038-5.213-0.288-1.256-0.188-2.537-0.531-2.537-0.675 0-0.031 0.119-0.094 0.269-0.15 0.75-0.288 2.075-0.538 3.481-0.675 0.431-0.038 0.794-0.081 0.806-0.094 0.025-0.019-0.256-0.375-0.6-0.75l-0.175-0.2-0.869 0.119z"></path>
</svg>
