<svg xmlns="http://www.w3.org/2000/svg" fill="none" viewBox="0 0 14 14" id="Hamburger-Menu-1--Streamline-Core.svg"><desc>Hamburger Menu 1 Streamline Icon: https://streamlinehq.com</desc><g id="hamburger-menu-1--button-parallel-horizontal-lines-menu-navigation-three-hamburger"><path id="Union" fill="#820000" fill-rule="evenodd" d="M0 2.5c0 -0.55228 0.447715 -1 1 -1h12c0.5523 0 1 0.44772 1 1s-0.4477 1 -1 1H1c-0.552285 0 -1 -0.44772 -1 -1ZM0 7c0 -0.55228 0.447715 -1 1 -1h12c0.5523 0 1 0.44772 1 1s-0.4477 1 -1 1H1c-0.552285 0 -1 -0.44772 -1 -1Zm1 3.5c-0.552285 0 -1 0.4477 -1 1s0.447715 1 1 1h12c0.5523 0 1 -0.4477 1 -1s-0.4477 -1 -1 -1H1Z" clip-rule="evenodd" stroke-width="1"></path></g></svg>