<svg xmlns="http://www.w3.org/2000/svg" fill="none" viewBox="-0.75 -0.75 14 14" id="Mail-Send-Envelope--Streamline-Core.svg"><desc>Mail Send Envelope Streamline Icon: https://streamlinehq.com</desc><g id="mail-send-envelope--envelope-email-message-unopened-sealed-close"><path id="Vector" fill="#590000" d="M11.160714285714286 1.5625h-9.821428571428571a0.8928571428571429 0.8928571428571429 0 0 0 -0.8928571428571429 0.8928571428571429v7.589285714285714a0.8928571428571429 0.8928571428571429 0 0 0 0.8928571428571429 0.8928571428571429h9.821428571428571a0.8928571428571429 0.8928571428571429 0 0 0 0.8928571428571429 -0.8928571428571429v-7.589285714285714a0.8928571428571429 0.8928571428571429 0 0 0 -0.8928571428571429 -0.8928571428571429Z" stroke-width="1.5"></path><path id="Vector_2" stroke="#820000" stroke-linecap="round" stroke-linejoin="round" d="M11.160714285714286 1.5625h-9.821428571428571a0.8928571428571429 0.8928571428571429 0 0 0 -0.8928571428571429 0.8928571428571429v7.589285714285714a0.8928571428571429 0.8928571428571429 0 0 0 0.8928571428571429 0.8928571428571429h9.821428571428571a0.8928571428571429 0.8928571428571429 0 0 0 0.8928571428571429 -0.8928571428571429v-7.589285714285714a0.8928571428571429 0.8928571428571429 0 0 0 -0.8928571428571429 -0.8928571428571429Z" stroke-width="1.5"></path><path id="Vector_3" stroke="#820000" stroke-linecap="round" stroke-linejoin="round" d="m0.44642857142857145 2.678571428571429 5.232142857142858 4.464285714285714a0.8928571428571429 0.8928571428571429 0 0 0 1.142857142857143 0l5.232142857142858 -4.464285714285714" stroke-width="1.5"></path></g></svg>