<!-- Generated by IcoMoon.io -->
<svg version="1.1" xmlns="http://www.w3.org/2000/svg" width="22" height="22" viewBox="0 0 32 32">
<title>gmail</title>
<path fill="#5c5a46" d="M14.25 0.694c-3.512 0.425-6.644 1.95-9.125 4.431-2.306 2.3-3.731 5.063-4.325 8.356-0.125 0.706-0.144 1-0.144 2.519s0.019 1.813 0.144 2.519c0.594 3.294 2.019 6.056 4.325 8.356 2.3 2.306 5.063 3.731 8.356 4.325 0.706 0.125 1 0.144 2.519 0.144s1.813-0.019 2.519-0.144c3.294-0.594 6.056-2.019 8.356-4.325 2.306-2.3 3.731-5.063 4.325-8.356 0.125-0.706 0.144-1 0.144-2.519s-0.019-1.813-0.144-2.519c-0.594-3.294-2.019-6.056-4.325-8.356-2.294-2.294-5.075-3.737-8.319-4.313-0.625-0.113-1.069-0.144-2.306-0.156-0.844-0.012-1.744 0.006-2 0.037zM24.813 8.194c0.438 0.206 0.788 0.556 0.994 0.994l0.163 0.344v12.938l-0.163 0.344c-0.206 0.438-0.556 0.788-0.994 0.994l-0.344 0.163h-16.938l-0.344-0.163c-0.444-0.212-0.787-0.556-0.994-0.988l-0.162-0.35v-12.938l0.162-0.35c0.175-0.369 0.525-0.756 0.838-0.919 0.5-0.263 0.319-0.256 9.063-0.244l8.375 0.012 0.344 0.162z"></path>
<path fill="#5c5a46" d="M8 16v6h2v-4.381c0-3.481 0.019-4.375 0.081-4.35 0.037 0.012 1.387 0.863 3 1.881l2.919 1.85 2.925-1.85c1.606-1.019 2.956-1.869 3-1.881 0.056-0.025 0.075 0.869 0.075 4.35v4.381h2v-12h-1.2l-6.8 4.2-6.8-4.2h-1.2v6z"></path>
</svg>
