<!-- Generated by IcoMoon.io -->
<svg version="1.1" xmlns="http://www.w3.org/2000/svg" width="32" height="32" viewBox="0 0 32 32">
<title>hotAppetizerCard</title>
<linearGradient id="gradient1" x1="100%" y1="0%" x2="0%" y2="0%">
 <stop offset="0%" style="stop-color: #000000; stop-opacity: .5" />
    <stop offset="100%" style="stop-color: #0000000; stop-opacity: .6" />
  </linearGradient>
<path fill="url(#gradient1)" d="M15.856 2.263c-0.281 0.288-0.669 1.025-0.706 1.344-0.050 0.412 0.15 0.888 0.481 1.15 0.137 0.106 0.244 0.237 0.244 0.294 0 0.063-0.131 0.319-0.281 0.575-0.319 0.531-0.344 0.694-0.125 0.906 0.156 0.162 0.394 0.2 0.6 0.094 0.131-0.075 0.512-0.638 0.688-1.031 0.231-0.506 0.113-1.037-0.331-1.481-0.163-0.169-0.3-0.331-0.3-0.375 0-0.038 0.125-0.275 0.281-0.525 0.319-0.512 0.35-0.712 0.125-0.931-0.194-0.2-0.488-0.206-0.675-0.019z"></path>
<path fill="url(#gradient1)" d="M9.456 4.925c-0.063 0.056-0.238 0.313-0.387 0.569-0.469 0.769-0.431 1.331 0.125 1.888 0.169 0.169 0.306 0.331 0.306 0.356s-0.125 0.256-0.281 0.506c-0.156 0.256-0.281 0.531-0.281 0.631 0 0.231 0.175 0.431 0.412 0.475 0.262 0.050 0.488-0.15 0.838-0.762 0.238-0.419 0.281-0.537 0.281-0.838 0-0.4-0.206-0.813-0.525-1.050-0.256-0.188-0.244-0.338 0.050-0.8 0.131-0.213 0.262-0.444 0.281-0.513 0.050-0.156-0.1-0.481-0.244-0.537-0.194-0.069-0.469-0.037-0.575 0.075z"></path>
<path fill="url(#gradient1)" d="M22.269 4.919c-0.206 0.188-0.637 0.931-0.7 1.219-0.106 0.463 0.081 0.975 0.462 1.281 0.131 0.106 0.219 0.231 0.219 0.313 0 0.075-0.119 0.325-0.262 0.55-0.313 0.5-0.331 0.738-0.087 0.95 0.344 0.294 0.575 0.175 1.012-0.525 0.256-0.412 0.306-0.544 0.325-0.869 0.031-0.45-0.063-0.662-0.462-1.1-0.313-0.331-0.313-0.325 0.050-0.894 0.137-0.225 0.238-0.45 0.238-0.569 0-0.381-0.506-0.612-0.794-0.356z"></path>
<path fill="url(#gradient1)" d="M21.25 11.419c-0.156 0.056-1.488 0.531-2.956 1.056l-2.681 0.956-1.287-0.794c-0.713-0.431-1.406-0.825-1.544-0.875-0.3-0.106-0.863-0.069-1.137 0.075-0.6 0.306-0.838 0.706-0.887 1.506l-0.037 0.563-0.469 0.012c-0.256 0.012-1.713 0.044-3.237 0.075-2.594 0.063-2.781 0.069-3.063 0.194-0.388 0.175-0.619 0.4-0.8 0.781-0.169 0.356-0.194 0.769-0.063 1.131 0.044 0.137 0.381 0.738 0.744 1.337l0.656 1.094-0.638 0.1c-0.35 0.056-0.75 0.163-0.894 0.231-0.712 0.369-1.025 1.337-0.65 2.063 0.063 0.125 0.444 0.637 0.837 1.137l0.719 0.906-1.013 0.031c-1.125 0.038-1.306 0.094-1.55 0.494-0.231 0.369-0.188 0.663 0.287 1.956 0.481 1.325 0.638 1.563 1.212 1.844 0.344 0.169 0.394 0.175 1.519 0.194l1.156 0.025 0.494 0.844c0.556 0.962 0.781 1.219 1.275 1.45l0.35 0.163h17.375l0.419-0.206c0.506-0.25 0.637-0.4 1.238-1.438l0.462-0.813 0.913-0.025c0.831-0.025 0.931-0.038 1.225-0.194 0.544-0.281 0.712-0.538 1.169-1.813 0.225-0.625 0.425-1.2 0.45-1.275 0.087-0.313-0.206-0.9-0.556-1.1-0.087-0.050-0.569-0.087-1.406-0.106l-1.275-0.031 0.75-0.944c0.413-0.519 0.794-1.063 0.85-1.206 0.288-0.712-0.038-1.6-0.712-1.944-0.125-0.069-0.406-0.15-0.631-0.188l-0.413-0.075 0.694-1.131c0.788-1.306 0.887-1.537 0.837-2.025-0.063-0.569-0.394-1.031-0.931-1.269-0.262-0.113-0.469-0.131-2.544-0.175-1.238-0.031-2.269-0.063-2.281-0.081-0.019-0.012 0.012-0.238 0.063-0.494 0.144-0.738 0.044-1.169-0.375-1.613-0.413-0.444-1.1-0.613-1.663-0.406zM22.056 12.406c0.35 0.181 0.35 0.269 0.006 2.156-0.175 0.944-0.337 1.731-0.363 1.756-0.025 0.019-0.413 0.288-0.856 0.594l-0.819 0.563v-0.438c0.006-0.5-0.113-0.813-0.431-1.125-0.106-0.106-0.794-0.556-1.531-1-0.738-0.45-1.313-0.819-1.275-0.831 0.887-0.344 4.9-1.762 4.981-1.762 0.063-0.006 0.194 0.037 0.288 0.088zM12.581 12.756c0.3 0.162 6.206 3.769 6.306 3.856 0.163 0.137 0.206 0.481 0.094 0.663-0.087 0.125-0.706 0.538-0.813 0.538-0.019 0-0.212-0.313-0.431-0.694-0.212-0.375-0.475-0.788-0.569-0.906-0.35-0.419-1.031-0.619-1.588-0.469-0.481 0.131-0.744 0.406-1.281 1.319-0.438 0.75-0.512 0.85-0.688 0.887-0.113 0.019-0.262 0.106-0.331 0.194l-0.131 0.15-0.738-0.512-0.738-0.519 0.006-0.831c0-0.463 0.025-1.412 0.050-2.119l0.037-1.281 0.175-0.169c0.181-0.188 0.412-0.225 0.637-0.106zM10.688 15.756c0 0.631-0.019 0.806-0.075 0.769-0.044-0.025-0.194-0.119-0.331-0.212s-0.306-0.188-0.375-0.212c-0.131-0.056-0.981-0.175-1.181-0.169-0.119 0-0.412 0.238-0.412 0.331 0 0.025-0.094 0.181-0.213 0.344-0.244 0.344-0.35 0.675-0.35 1.1 0 0.25-0.025 0.306-0.138 0.356-0.237 0.094-2 0.325-2.050 0.269-0.025-0.025-0.388-0.613-0.806-1.3-0.481-0.794-0.756-1.313-0.756-1.419 0-0.1 0.075-0.256 0.175-0.369l0.175-0.2 1.938-0.044c1.063-0.019 2.487-0.044 3.169-0.050l1.231-0.012v0.819zM26.694 15.031c0.506 0.019 0.962 0.050 1.019 0.069 0.131 0.050 0.288 0.344 0.288 0.531 0 0.1-1.387 2.519-1.6 2.8-0.038 0.044-1.994-0.262-2.069-0.325-0.050-0.031-0.081-0.2-0.081-0.387 0-0.438-0.137-0.875-0.369-1.163-0.106-0.131-0.194-0.262-0.194-0.294s-0.069-0.119-0.15-0.194c-0.163-0.156-0.35-0.188-0.587-0.106-0.125 0.044-0.144 0.031-0.119-0.069 0.019-0.063 0.069-0.3 0.106-0.531l0.075-0.425 1.387 0.031c0.756 0.019 1.794 0.044 2.294 0.063zM16.369 16.856c0.144 0.144 3.569 5.994 3.569 6.106 0 0.019-1.769 0.038-3.938 0.038-2.162 0-3.938-0.012-3.938-0.025 0-0.1 3.475-6.038 3.6-6.15 0.213-0.188 0.481-0.175 0.706 0.031zM11.262 18.188c0.919 0.637 1.675 1.175 1.675 1.2s-0.1 0.212-0.219 0.419c-0.194 0.325-0.25 0.381-0.4 0.381-0.225 0-0.481 0.2-0.531 0.413-0.025 0.094-0.006 0.238 0.056 0.35 0.094 0.188 0.088 0.2-0.338 0.95-0.238 0.419-0.469 0.831-0.512 0.925l-0.075 0.175h-2.619l0.037-0.3c0.019-0.163 0.125-1.375 0.225-2.7 0.106-1.325 0.206-2.475 0.225-2.55 0.019-0.081 0.1-0.219 0.188-0.306 0.3-0.294 0.45-0.231 2.287 1.044zM23.038 17.15l0.175 0.144 0.231 2.775c0.131 1.525 0.238 2.813 0.244 2.85 0 0.063-0.3 0.081-1.3 0.081h-1.306l-0.075-0.175c-0.044-0.094-0.275-0.506-0.512-0.925-0.431-0.75-0.431-0.756-0.337-0.944 0.063-0.119 0.081-0.262 0.056-0.356-0.050-0.212-0.306-0.413-0.531-0.413-0.15 0-0.206-0.056-0.4-0.381-0.119-0.206-0.219-0.394-0.219-0.419 0.006-0.025 0.769-0.569 1.706-1.212 1.844-1.275 1.938-1.313 2.269-1.025zM7.625 19.175c0 0.025-0.069 0.875-0.156 1.887s-0.156 1.863-0.156 1.887c0 0.025-0.487 0.050-1.081 0.050h-1.087l-0.963-1.219c-0.531-0.669-0.987-1.288-1.019-1.375-0.081-0.206 0.013-0.456 0.212-0.6 0.112-0.081 0.681-0.188 2.031-0.387 1.987-0.3 2.219-0.325 2.219-0.244zM26.194 19.438c0.931 0.137 1.719 0.25 1.756 0.25 0.131 0 0.363 0.337 0.363 0.525-0.006 0.262-0.019 0.281-1.081 1.619l-0.931 1.169h-0.806c-0.444 0-0.806-0.025-0.806-0.050s-0.069-0.875-0.156-1.887c-0.087-1.012-0.156-1.85-0.156-1.856 0-0.038 0.131-0.019 1.819 0.231zM29.813 24.075c0 0.044-0.156 0.519-0.35 1.056-0.262 0.731-0.4 1.031-0.538 1.163l-0.181 0.175-12.656 0.019c-13.694 0.012-12.931 0.031-13.137-0.3-0.1-0.163-0.763-1.988-0.763-2.1 0-0.075 2.112-0.087 13.813-0.087 10.831 0 13.813 0.019 13.813 0.075zM25.775 27.8c-0.387 0.675-0.625 0.988-0.837 1.094-0.206 0.1-0.725 0.106-8.731 0.094l-8.512-0.019-0.175-0.131c-0.094-0.069-0.281-0.313-0.419-0.531-0.131-0.219-0.294-0.494-0.362-0.606l-0.125-0.2h19.331l-0.169 0.3z"></path>
<path fill="url(#gradient1)" d="M19.050 14.306c-0.35 0.175-0.394 0.65-0.075 0.856 0.512 0.338 1.087-0.262 0.712-0.738-0.156-0.206-0.387-0.25-0.637-0.119z"></path>
<path fill="url(#gradient1)" d="M12.781 15.906c-0.325 0.319-0.088 0.869 0.375 0.869 0.181 0 0.269-0.044 0.381-0.175 0.306-0.35 0.081-0.85-0.381-0.85-0.156 0-0.275 0.050-0.375 0.156z"></path>
<path fill="url(#gradient1)" d="M6.281 16.719c-0.325 0.319-0.088 0.869 0.375 0.869 0.181 0 0.269-0.044 0.381-0.175 0.306-0.35 0.081-0.85-0.381-0.85-0.156 0-0.275 0.050-0.375 0.156z"></path>
<path fill="url(#gradient1)" d="M24.969 16.719c-0.325 0.319-0.087 0.869 0.375 0.869 0.181 0 0.269-0.044 0.381-0.175 0.306-0.35 0.081-0.85-0.381-0.85-0.156 0-0.275 0.050-0.375 0.156z"></path>
<path fill="url(#gradient1)" d="M15.369 19.431c-0.106 0.113-0.181 0.25-0.181 0.35 0 0.238 0.313 0.531 0.563 0.531 0.275 0 0.5-0.244 0.5-0.531 0-0.494-0.525-0.7-0.881-0.35z"></path>
<path fill="url(#gradient1)" d="M14.387 20.919c-0.137 0.056-0.275 0.394-0.231 0.581 0.050 0.219 0.206 0.363 0.444 0.413 0.275 0.056 0.588-0.219 0.588-0.512 0-0.387-0.412-0.637-0.8-0.481z"></path>
<path fill="url(#gradient1)" d="M16.969 21.031c-0.2 0.194-0.2 0.469-0.006 0.694 0.331 0.394 0.969 0.1 0.887-0.406-0.069-0.438-0.575-0.6-0.881-0.288z"></path>
<path fill="url(#gradient1)" d="M10.306 19.369c-0.262 0.269-0.213 0.663 0.113 0.813 0.381 0.175 0.769-0.069 0.769-0.494 0-0.188-0.331-0.5-0.531-0.5-0.1 0-0.238 0.075-0.35 0.181z"></path>
<path fill="url(#gradient1)" d="M9.656 21.387c-0.481 0.275-0.306 0.988 0.244 0.988 0.162 0 0.25-0.044 0.375-0.194 0.213-0.25 0.206-0.462-0.019-0.688-0.194-0.188-0.394-0.225-0.6-0.106z"></path>
<path fill="url(#gradient1)" d="M20.994 19.369c-0.25 0.25-0.225 0.581 0.063 0.8 0.3 0.231 0.819-0.038 0.819-0.419 0-0.25-0.294-0.563-0.531-0.563-0.1 0-0.238 0.075-0.35 0.181z"></path>
<path fill="url(#gradient1)" d="M21.906 21.375c-0.175 0.069-0.275 0.194-0.319 0.419-0.056 0.269 0.219 0.581 0.512 0.581 0.556 0 0.725-0.725 0.231-0.988-0.156-0.087-0.25-0.087-0.425-0.012z"></path>
<path fill="url(#gradient1)" d="M5.906 21.656c-0.231 0.225-0.213 0.538 0.037 0.744 0.25 0.212 0.463 0.206 0.688-0.019s0.231-0.438 0.019-0.688c-0.206-0.25-0.519-0.269-0.744-0.038z"></path>
<path fill="url(#gradient1)" d="M24.844 21.656c-0.156 0.15-0.2 0.406-0.119 0.625 0.050 0.119 0.344 0.281 0.519 0.281 0.188 0 0.438-0.256 0.481-0.481 0.031-0.169 0.006-0.231-0.15-0.394-0.244-0.238-0.519-0.25-0.731-0.031z"></path>
</svg>
