<!-- Generated by IcoMoon.io -->
<svg version="1.1" xmlns="http://www.w3.org/2000/svg" width="32" height="32" viewBox="0 0 32 32">
<title>hotDrinkCard</title>
<linearGradient id="gradient1" x1="100%" y1="0%" x2="0%" y2="0%">
 <stop offset="0%" style="stop-color: #000000; stop-opacity: .4" />
    <stop offset="100%" style="stop-color: #0000000; stop-opacity: 1" />
  </linearGradient>
<path fill="url(#gradient1)" d="M14.156 0.156c-0.144 0.138-0.156 0.194-0.156 0.806v0.656l-0.175 0.094c-0.269 0.137-0.619 0.563-0.694 0.831-0.037 0.131-0.069 0.581-0.069 0.994 0 0.712-0.012 0.781-0.169 1.062-0.144 0.256-0.175 0.381-0.175 0.775 0 0.256 0.019 0.544 0.044 0.631 0.044 0.156 0.025 0.175-0.313 0.294-1.231 0.456-2.419 1.55-3.012 2.794-0.231 0.475-0.5 1.369-0.5 1.65 0 0.075-0.031 0.131-0.063 0.131-0.037 0-0.188 0.113-0.338 0.25l-0.275 0.256-0.487-0.131c-0.394-0.1-0.681-0.125-1.525-0.125-1.006 0-1.044 0.006-1.175 0.144-0.194 0.206-0.181 0.5 0.025 0.662 0.15 0.119 0.25 0.131 1.15 0.131 0.813 0 1.056 0.025 1.394 0.125 0.4 0.125 0.413 0.131 0.513 0.431 0.106 0.319 0.512 0.762 0.775 0.85 0.156 0.050 0.162 0.188 0.069 1.281-0.094 1.012-0.338 2.325-0.625 3.313-0.231 0.819-0.431 1.363-0.438 1.206 0-0.044-0.056-0.587-0.131-1.219-0.194-1.7-0.469-2.425-1.269-3.281-0.713-0.769-1.487-1.162-2.813-1.425-0.506-0.106-0.819-0.2-0.981-0.306-0.275-0.181-0.762-0.769-0.725-0.875 0.013-0.044 0.3-0.081 0.769-0.1 0.406-0.019 0.781-0.056 0.825-0.081 0.263-0.169 0.206-0.65-0.087-0.787-0.2-0.088-1.325-0.088-1.669 0-0.481 0.119-0.794 0.512-0.794 1 0 0.238 0.050 0.363 0.25 0.662 0.325 0.494 0.8 0.931 1.212 1.119 0.181 0.081 0.681 0.219 1.106 0.306 1.019 0.2 1.563 0.469 2.125 1.025 0.813 0.819 0.931 1.181 1.219 3.769l0.225 2.006-0.281 0.538c-0.938 1.794-1.112 3.731-0.5 5.594 0.194 0.569 0.362 0.788 0.631 0.788 0.206 0 0.45-0.225 0.45-0.425 0-0.069-0.081-0.381-0.188-0.681-0.256-0.769-0.331-1.356-0.294-2.206 0.044-1.031 0.194-1.519 0.919-3 0.662-1.375 0.775-1.625 1.106-2.594 0.331-0.981 0.588-2.056 0.806-3.394l0.031-0.2h3.806c3.731 0 3.813 0 3.938-0.125 0.188-0.188 0.169-0.519-0.038-0.681-0.163-0.131-0.219-0.131-3.919-0.131h-3.744l0.037-0.194c0.019-0.106 0.037-0.331 0.037-0.5v-0.306h0.8c0.756 0 0.813-0.006 0.938-0.144 0.181-0.194 0.175-0.45-0.019-0.637-0.15-0.156-0.162-0.156-1.281-0.156s-1.131 0-1.281-0.156c-0.2-0.194-0.2-0.431 0-0.625l0.15-0.156h10.325l0.15 0.156c0.188 0.181 0.2 0.4 0.025 0.613l-0.125 0.162-6.444 0.037-0.119 0.15c-0.156 0.188-0.15 0.387 0.012 0.594l0.125 0.162h5.669l0.038 0.575c0.212 2.925 0.788 5.075 2.019 7.488 0.256 0.5 0.544 1.144 0.644 1.438l0.181 0.531-1.2 0.031c-0.663 0.019-1.275 0.069-1.363 0.106-0.444 0.194-0.8 0.7-0.806 1.144 0 0.119 0.144 1.219 0.319 2.438 0.225 1.587 0.35 2.288 0.438 2.456 0.063 0.131 0.119 0.25 0.119 0.262 0 0.063-0.8 0.563-1.238 0.769l-0.481 0.231h-6.256l-0.481-0.238c-0.769-0.381-1.387-0.831-2.050-1.488-0.681-0.681-0.85-0.75-1.106-0.475-0.2 0.212-0.169 0.425 0.1 0.775 0.744 0.938 2.35 2.038 3.369 2.3 0.531 0.138 6.075 0.138 6.612 0 0.475-0.125 0.994-0.375 1.663-0.806l0.525-0.344 0.038 0.375c0.038 0.4 0.175 0.613 0.506 0.781 0.262 0.138 3.106 0.125 3.4-0.012 0.325-0.156 0.469-0.444 0.506-1.025 0.038-0.538 0.094-0.606 0.419-0.525 0.156 0.038 0.163 0.056 0.163 0.456 0 0.531 0.181 0.925 0.5 1.081 0.188 0.1 0.419 0.113 1.719 0.113 1.681 0 1.806-0.025 2.075-0.431 0.119-0.175 0.144-0.294 0.144-0.7 0-0.369 0.019-0.494 0.081-0.494 0.144 0 0.619-0.45 0.712-0.669 0.094-0.231 0.706-4.387 0.706-4.794 0-0.319-0.175-0.7-0.413-0.925-0.387-0.363-0.406-0.363-4.244-0.363h-3.519l-0.094-0.394c-0.056-0.219-0.188-0.6-0.288-0.85-0.125-0.306-0.163-0.462-0.113-0.475 0.944-0.331 1.544-0.569 1.681-0.663 0.175-0.131 0.425-0.581 0.425-0.781 0-0.087 0.163-0.238 0.525-0.488 1.913-1.294 2.919-3.581 2.575-5.825-0.556-3.662-4.206-5.95-7.738-4.863-0.081 0.025-0.15-0.050-0.275-0.3-0.369-0.731-1.15-1.625-1.837-2.094-0.344-0.231-0.944-0.537-1.269-0.644-0.188-0.056-0.231-0.1-0.194-0.181 0.025-0.056 0.056-0.287 0.075-0.519 0.025-0.438-0.050-0.781-0.244-1.063-0.1-0.138-0.119-0.287-0.119-1 0-0.781-0.012-0.862-0.169-1.169-0.119-0.25-0.244-0.387-0.469-0.525l-0.3-0.188v-0.65c0-0.606-0.012-0.662-0.156-0.8-0.081-0.087-0.225-0.156-0.313-0.156s-0.231 0.069-0.313 0.156zM14.794 2.638c0.125 0.112 0.144 0.194 0.144 0.575v0.444h-0.938v-0.413c0-0.325 0.031-0.45 0.131-0.581 0.162-0.206 0.456-0.219 0.662-0.025zM14.844 4.688c0.319 0.156 0.469 0.406 0.469 0.781 0 0.256-0.031 0.325-0.238 0.531-0.3 0.306-0.6 0.369-0.931 0.213-0.688-0.338-0.681-1.256 0.012-1.563 0.256-0.112 0.387-0.106 0.688 0.037zM12.938 7.156c0 0.019-0.069 0.206-0.156 0.412-0.231 0.581-0.463 1.556-0.537 2.331-0.037 0.381-0.081 0.731-0.094 0.769-0.019 0.063-0.3 0.081-1.15 0.081h-1.125l0.037-0.175c0.313-1.431 1.219-2.575 2.569-3.263 0.363-0.181 0.456-0.213 0.456-0.156zM16.35 7.256c1.325 0.588 2.375 1.875 2.681 3.287l0.044 0.206h-1.131c-1.3 0-1.156 0.088-1.225-0.75-0.075-0.887-0.313-1.856-0.688-2.769-0.056-0.138-0.050-0.131 0.319 0.025zM15.175 7.631c0.238 0.488 0.481 1.394 0.575 2.162 0.037 0.3 0.075 0.644 0.094 0.75l0.025 0.206h-2.763l0.044-0.537c0.075-0.975 0.319-1.963 0.669-2.656l0.169-0.344 0.494 0.006h0.488l0.206 0.412zM22.825 10.119c1.719 0.444 3.15 1.869 3.625 3.625 0.2 0.731 0.188 1.912-0.038 2.65-0.275 0.931-0.719 1.663-1.356 2.262-0.331 0.313-0.925 0.75-0.956 0.706-0.012-0.006-0.069-0.169-0.137-0.35l-0.113-0.331 0.212-0.169c1.012-0.788 1.594-1.769 1.75-2.969 0.181-1.331-0.25-2.544-1.25-3.55-0.45-0.456-0.619-0.581-1.125-0.825-0.325-0.156-0.75-0.319-0.938-0.363-0.462-0.113-1.569-0.094-2 0.025-0.413 0.119-0.469 0.081-0.525-0.338l-0.044-0.287 0.275-0.081c0.775-0.213 1.8-0.219 2.619-0.006zM22.581 11.813c1.575 0.488 2.606 2.213 2.269 3.8-0.169 0.819-0.575 1.525-1.137 1.981l-0.288 0.238-0.212-0.106c-0.369-0.175-0.738-0.125-1.681 0.212-0.475 0.175-0.887 0.294-0.913 0.269-0.063-0.069-0.344-1.206-0.456-1.831-0.113-0.656-0.206-1.469-0.262-2.256l-0.038-0.6 0.188-0.075c0.5-0.206 0.85-0.794 0.813-1.369l-0.019-0.356 0.219-0.044c0.337-0.063 1.087 0.006 1.519 0.137zM22.925 18.887c0.488 1.331 0.531 1.494 0.444 1.575-0.075 0.075-1.469 0.6-1.575 0.6-0.094 0-0.913-1.837-0.85-1.906 0.063-0.056 1.6-0.587 1.725-0.587 0.106-0.006 0.156 0.063 0.256 0.319zM24.85 24.719c0.106 0.106 0.144 0.2 0.119 0.294-0.019 0.081-0.156 1.069-0.313 2.194-0.163 1.125-0.306 2.094-0.325 2.137-0.069 0.194-0.469 0.225-2.313 0.206-1.581-0.019-1.837-0.031-1.925-0.119-0.075-0.075-0.188-0.669-0.413-2.244-0.169-1.181-0.306-2.2-0.306-2.262s0.056-0.169 0.125-0.238c0.119-0.119 0.206-0.125 2.656-0.125h2.538l0.156 0.156zM29.863 24.663c0.094 0.063 0.137 0.156 0.137 0.294 0 0.113-0.137 1.137-0.306 2.281-0.225 1.587-0.325 2.106-0.406 2.188-0.094 0.094-0.306 0.106-1.931 0.125-1.006 0.012-1.881 0.006-1.95-0.012-0.125-0.031-0.119-0.075 0.2-2.331 0.175-1.262 0.306-2.375 0.288-2.475l-0.031-0.169h1.931c1.644 0 1.95 0.012 2.069 0.1zM23.5 30.781v0.281h-2.563v-0.563h2.563v0.281zM28.5 30.781v0.281h-2.563v-0.563h2.563v0.281z"></path>
</svg>
