<!-- Generated by IcoMoon.io -->
<svg version="1.1" xmlns="http://www.w3.org/2000/svg" width="40" height="40" viewBox="0 0 32 32">
<path fill="#000" d="M5.544 0.1c-2.6 0.469-4.631 2.344-5.344 4.931l-0.169 0.625v20.688l0.169 0.625c0.662 2.4 2.431 4.163 4.844 4.831l0.612 0.169h20.688l0.625-0.169c2.394-0.656 4.169-2.438 4.831-4.831l0.169-0.625v-20.688l-0.169-0.625c-0.725-2.625-2.75-4.475-5.412-4.938-0.775-0.138-20.1-0.131-20.844 0.006zM26.637 2.881c1.225 0.475 2.131 1.413 2.506 2.587l0.137 0.438v20.188l-0.137 0.438c-0.387 1.212-1.4 2.225-2.613 2.613l-0.438 0.137h-20.188l-0.438-0.137c-1.175-0.375-2.112-1.281-2.587-2.506l-0.163-0.419-0.019-10.056c-0.019-11.131-0.044-10.375 0.394-11.256 0.388-0.787 1.019-1.425 1.813-1.813 0.862-0.425 0.088-0.4 11.219-0.388l10.094 0.013 0.419 0.163z"></path>
<path fill="#000" d="M15.681 9.369c-0.394 0.131-0.688 0.356-0.856 0.662-0.094 0.162-0.113 0.5-0.137 2.406l-0.031 2.219-2.219 0.031c-1.906 0.025-2.244 0.044-2.406 0.137-0.906 0.5-0.906 1.85 0 2.35 0.162 0.094 0.5 0.113 2.406 0.137l2.219 0.031 0.031 2.219c0.031 2.394 0.037 2.413 0.387 2.725 0.619 0.563 1.537 0.469 2.019-0.212l0.188-0.275 0.031-2.225 0.031-2.231 4.456-0.063 0.275-0.188c0.681-0.481 0.775-1.4 0.212-2.019-0.313-0.35-0.331-0.356-2.725-0.387l-2.219-0.031-0.031-2.219c-0.031-2.394-0.038-2.412-0.387-2.725-0.325-0.3-0.894-0.456-1.244-0.344z"></path>
</svg>
