<!-- Generated by IcoMoon.io -->
<svg version="1.1" xmlns="http://www.w3.org/2000/svg" width="32" height="32" viewBox="0 0 32 32">
<title>instagramBaku</title>
<path fill="red" d="M2.571 8.327c0-3.178 2.577-5.755 5.755-5.755h15.347c3.179 0 5.755 2.577 5.755 5.755v15.347c0 3.178-2.577 5.755-5.755 5.755h-15.347c-3.178 0-5.755-2.577-5.755-5.755v-15.347z"></path>
<path fill="black" d="M23.744 8.516c-0.309 0-0.56-0.251-0.56-0.56s0.25-0.56 0.56-0.56"></path>
<path fill="black" d="M23.744 8.516c0.309 0 0.56-0.251 0.56-0.56s-0.251-0.56-0.56-0.56"></path>
<path fill="black" d="M10.293 16c0 3.152 2.555 5.707 5.707 5.707s5.707-2.555 5.707-5.707v0c0-3.152-2.555-5.707-5.707-5.707s-5.707 2.555-5.707 5.707v0"></path>
</svg>
