<!-- Generated by IcoMoon.io -->
<svg version="1.1" xmlns="http://www.w3.org/2000/svg" width="25" height="25" viewBox="0 0 32 32">
<title>left</title>
<linearGradient id="gradient1" x1="100%" y1="0%" x2="0%" y2="0%">
    <stop offset="0%" style="stop-color: #555555; stop-opacity: .6" />
    <stop offset="100%" style="stop-color: #555555; stop-opacity: 4" />
  </linearGradient>
<path fill="url(#gradient1)" d="M13.869 0.113c-0.262 0.131-12.606 10.044-12.944 10.387-0.269 0.275-0.381 0.619-0.306 0.944 0.063 0.275 0.156 0.412 0.444 0.662 0.294 0.244 12.275 9.881 12.581 10.106 0.419 0.319 1.037 0.281 1.369-0.075 0.269-0.288 0.3-0.506 0.3-1.944 0-1.281-0.006-1.369-0.137-1.631-0.106-0.206-0.219-0.319-0.425-0.425-0.344-0.169-0.575-0.175-0.912-0.012-0.325 0.163-0.469 0.369-0.556 0.8l-0.069 0.331-4.981-4.012c-2.744-2.206-4.969-4.025-4.956-4.044 0.019-0.012 2.263-1.825 4.987-4.013l4.956-3.987 0.031 1.631c0.031 1.494 0.044 1.656 0.156 1.85 0.256 0.438 0.594 0.563 1.519 0.569 1.988 0.006 4.975 0.688 7.031 1.6 5.281 2.344 7.825 6.325 7.35 11.525-0.238 2.613-1.175 4.894-2.813 6.844-0.481 0.581-0.806 0.9-0.806 0.8 0-0.044 0.044-0.269 0.094-0.506 0.262-1.262 0.306-2.975 0.1-4.113-0.475-2.569-1.831-4.631-4.038-6.119-0.238-0.163-0.8-0.469-1.25-0.688-1.7-0.825-3.45-1.238-5.594-1.319-0.931-0.031-0.981-0.025-1.219 0.113-0.356 0.206-0.563 0.631-0.5 1.031 0.031 0.225 0.1 0.35 0.275 0.525 0.281 0.288 0.569 0.369 1.269 0.369 0.625 0 1.775 0.137 2.563 0.313 3.056 0.669 5.344 2.512 6.2 5.006 0.738 2.156 0.475 4.644-0.762 7.275-0.306 0.637-0.356 0.8-0.356 1.1 0.006 0.281 0.038 0.394 0.169 0.569 0.319 0.419 0.788 0.525 1.294 0.3 1.206-0.55 3.094-2.087 4.231-3.45 1.181-1.406 2.15-3.244 2.681-5.081 0.656-2.275 0.744-5.069 0.219-7.313-0.819-3.5-3.294-6.481-7-8.425-2.244-1.181-4.825-1.975-7.344-2.263-0.481-0.056-0.994-0.112-1.137-0.131l-0.269-0.031v-2.175c0-2.144 0-2.175-0.144-2.45-0.1-0.194-0.225-0.319-0.419-0.419-0.331-0.169-0.588-0.175-0.881-0.025z"></path>
</svg>
