<!-- Generated by IcoMoon.io -->
<svg version="1.1" xmlns="http://www.w3.org/2000/svg" width="32" height="32" viewBox="0 0 32 32">
<title>locationIcon</title>
<linearGradient id="gradient1" x1="0%" y1="0%" x2="0%" y2="100%">
  <stop offset="0%" style="stop-color: #d3000e; stop-opacity: .6" />
  <stop offset="50%" style="stop-color: #790008; stop-opacity: .59" />
  <stop offset="100%" style="stop-color: #d3000e; stop-opacity: .6" />
</linearGradient>
<path fill="url(#gradient1)" d="M30.977 16.159c0 8.247-6.686 14.933-14.933 14.933s-14.933-6.686-14.933-14.933c0-8.247 6.686-14.933 14.933-14.933s14.933 6.686 14.933 14.933z"></path>
<path fill="#000" d="M23.977 14.865c0-2.12-0.86-4.040-2.249-5.428s-3.309-2.249-5.428-2.249c-2.12 0-4.040 0.86-5.428 2.249s-2.249 3.309-2.249 5.428c0 0.437 0.041 0.866 0.115 1.287 0.21 1.188 0.69 2.306 1.291 3.317 2.097 3.525 5.845 6.016 5.845 6.016 0.254 0.167 0.587 0.176 0.851 0 0 0 3.748-2.491 5.845-6.016 0.601-1.010 1.081-2.128 1.291-3.317 0.075-0.421 0.116-0.85 0.116-1.287zM22.441 14.865c0 0.341-0.031 0.681-0.091 1.020-0.17 0.96-0.566 1.902-1.099 2.799-1.468 2.467-3.866 4.412-4.89 5.174-1.073-0.703-3.522-2.669-5.013-5.174-0.534-0.897-0.93-1.839-1.099-2.799-0.059-0.339-0.091-0.679-0.091-1.020 0-1.696 0.686-3.231 1.799-4.343s2.647-1.799 4.343-1.799c1.696 0 3.231 0.686 4.343 1.799s1.799 2.647 1.799 4.343zM19.371 14.865c0-0.848-0.345-1.617-0.9-2.171s-1.324-0.9-2.171-0.9-1.617 0.345-2.171 0.9c-0.554 0.555-0.9 1.324-0.9 2.171s0.345 1.617 0.9 2.171c0.555 0.554 1.323 0.9 2.171 0.9s1.617-0.345 2.171-0.9c0.554-0.555 0.9-1.324 0.9-2.171zM17.835 14.865c0 0.425-0.171 0.807-0.45 1.086s-0.661 0.45-1.086 0.45c-0.425 0-0.807-0.171-1.086-0.45s-0.45-0.661-0.45-1.086 0.171-0.807 0.45-1.086c0.279-0.279 0.661-0.45 1.086-0.45s0.807 0.171 1.086 0.45c0.279 0.279 0.45 0.661 0.45 1.086z"></path>
</svg>
