<svg width="80" height="68" viewBox="0 0 80 68" fill="none" xmlns="http://www.w3.org/2000/svg">
<g opacity="0.3" filter="url(#filter0_d_1_86)">
<path d="M41.1871 21.4144C39.0797 19.5706 38.9463 17.8623 40.6536 15.7473C40.8937 15.449 41.1604 15.1507 41.3738 14.8254C42.9478 12.5477 42.4142 10.27 40.0133 9.02265C39.8266 8.91419 39.6132 8.80573 39.3731 8.69727C39.3998 8.83284 39.3998 8.91419 39.4265 8.96842C40.2268 10.5411 40.0667 11.9782 38.9463 13.3069C38.7595 13.5238 38.5995 13.7679 38.4661 14.0119C36.4387 17.2929 38.4394 20.8179 41.1871 21.4144Z" fill="#087827"/>
<path d="M37.0256 18.6216C35.7985 17.2929 35.7718 16.127 36.8655 14.717C37.0256 14.5272 37.1856 14.3102 37.319 14.0933C38.3327 12.5749 38.066 10.975 36.6521 10.0531C36.5454 9.97177 36.412 9.89043 36.2786 9.80908C36.2786 9.89043 36.2786 9.94466 36.3053 9.99889C36.7588 11.0835 36.5988 12.0868 35.9052 12.9816C35.7985 13.1172 35.6918 13.2799 35.585 13.4425C34.3046 15.666 35.3983 18.1606 37.0256 18.6216Z" fill="#087827"/>
<path d="M42.2008 19.8146C41.854 19.2181 41.6939 18.5944 42.0407 17.9436C42.2008 17.6454 42.4142 17.3742 42.6009 17.1302C43.0278 16.5608 43.1078 15.9642 42.841 15.3677C42.4142 15.9642 42.0141 16.5336 41.5872 17.1302C40.7869 18.2148 40.947 19.1096 42.2008 19.8146Z" fill="#087827"/>
<path d="M11.4961 36.762V35.3249L11.4161 35.2978C10.8826 35.0809 10.3757 34.9453 9.86884 34.9453C9.1219 34.9453 8.50834 35.2165 8.08151 35.7588C7.62801 36.3011 7.4146 37.0332 7.38792 37.9551C7.38792 38.877 7.60134 39.6363 8.02816 40.1515C8.45499 40.6938 9.06855 40.9649 9.81549 40.9921H9.84217C10.3757 40.9921 10.8826 40.8565 11.3894 40.5853L11.4694 40.5582V39.6905L11.2827 39.799C10.7758 40.0701 10.2957 40.1786 9.86884 40.1786C9.36199 40.1786 8.98852 39.9888 8.72175 39.6363C8.45499 39.2838 8.29493 38.7144 8.3216 37.928C8.3216 37.1959 8.45499 36.6536 8.74843 36.3011C9.01519 35.9486 9.38867 35.7859 9.89552 35.7859C10.2156 35.7859 10.5091 35.8401 10.7225 35.9215V36.7892L11.4961 36.762Z" fill="#087827"/>
<path d="M15.8177 41.046C16.5113 41.046 17.0715 40.7748 17.4717 40.2325C17.8718 39.6902 18.0852 38.931 18.0852 37.9819C18.0852 37.0871 17.8985 36.355 17.525 35.8398C17.1515 35.2975 16.618 35.0264 15.9244 35.0264C15.2308 35.0264 14.6706 35.2975 14.2438 35.8398C13.8437 36.3821 13.6302 37.1143 13.6302 38.0362C13.6302 38.9581 13.817 39.7173 14.2171 40.2596C14.6173 40.7477 15.1508 41.0189 15.8177 41.046ZM14.9107 36.3279C15.1508 36.0025 15.4709 35.8127 15.8977 35.8398C16.3246 35.8398 16.6447 36.0025 16.8581 36.355C17.0982 36.7075 17.2049 37.2498 17.2049 37.9819C17.2049 38.7412 17.0715 39.3106 16.8314 39.6631C16.5913 40.0156 16.2712 40.2054 15.8711 40.2054C15.4442 40.2054 15.1508 40.0156 14.9107 39.6631C14.6706 39.2835 14.5639 38.7141 14.5639 37.9819C14.5372 37.2227 14.6706 36.6533 14.9107 36.3279Z" fill="#087827"/>
<path d="M20.2193 40.1782V40.9646L22.4068 40.9917V40.2054H21.7132V38.4971H22.5669V39.1207H23.3138L23.3405 37.2227H22.5669V37.7378L21.7132 37.7107L21.7399 35.9211H23.2605V36.6532H24.0341L24.0607 35.1619L20.2727 35.1348V35.9211H20.8596L20.8329 40.1782H20.2193Z" fill="#087827"/>
<path d="M25.7947 40.2327V41.019H27.9555L27.9822 40.2327H27.2619L27.2886 38.5515H28.1156V39.1752H28.8892V37.25H28.1423V37.7652H27.2886V35.9756H28.8359L28.8092 36.7077H29.6095L29.6361 35.2163L25.8214 35.1621V35.9485H26.435L26.4083 40.2327H25.7947Z" fill="#087827"/>
<path d="M31.3701 40.2593L31.3434 41.0456L35.2382 41.0728L35.2649 39.5814H34.4646V40.2864H32.8373V38.4968H33.5843V39.1204H34.3579V37.1952H33.611V37.7104H32.864V36.0022L34.3846 36.0293V36.7343L35.1849 36.7614V35.2429L31.3968 35.2158V36.0022H32.0104L31.957 40.2864L31.3701 40.2593Z" fill="#087827"/>
<path d="M37.239 40.314L37.2123 41.1003L41.1071 41.1274L41.1337 39.6361L40.3334 39.609V40.3411L38.7062 40.314V38.5244H39.4531V39.148H40.2267V37.2499H39.4798V37.7651L38.7062 37.738L38.7329 36.0569H40.2534V36.789H41.0537V35.2976L37.2656 35.2705V36.0297L37.8792 36.0569L37.8259 40.314H37.239Z" fill="#087827"/>
<path d="M52.7914 36.9788V35.623L52.7114 35.5959C52.2845 35.379 51.831 35.2705 51.3242 35.2705C50.7373 35.2705 50.2838 35.4061 49.937 35.7044C49.5902 36.0026 49.4035 36.3822 49.4035 36.8703C49.4035 37.1415 49.4568 37.3855 49.5369 37.5753C49.6436 37.7651 49.7503 37.9278 49.9103 38.0634C50.0704 38.199 50.2304 38.3074 50.4172 38.3888C50.6039 38.4701 50.7907 38.5515 50.9507 38.6057C51.1375 38.6871 51.2975 38.7684 51.4576 38.8226C51.591 38.904 51.6977 38.9582 51.8044 39.0396C51.8844 39.1209 51.9644 39.2022 51.9911 39.3107C52.0445 39.3921 52.0711 39.5276 52.0711 39.6632C52.0711 39.9344 51.9911 40.1242 51.8044 40.2869C51.6176 40.4496 51.3509 40.5038 51.0307 40.5038C50.7106 40.5038 50.4439 40.4767 50.2304 40.3953V39.5819H49.4302V40.9647L49.5102 40.9919C49.9637 41.1817 50.4439 41.2901 50.9774 41.2901H51.0041C51.591 41.2901 52.0711 41.1274 52.4179 40.8292C52.7914 40.5309 52.9781 40.0971 52.9781 39.5819C52.9781 39.2836 52.9248 39.0396 52.8448 38.8497C52.7647 38.6599 52.6313 38.4972 52.4713 38.3617C52.3379 38.2261 52.1512 38.1176 51.9644 38.0363C51.7777 37.9549 51.591 37.8736 51.4042 37.7922C51.2175 37.7109 51.0574 37.6567 50.8974 37.5753C50.764 37.5211 50.6306 37.4397 50.5506 37.3855C50.4705 37.3042 50.3905 37.2228 50.3372 37.1415C50.2838 37.0601 50.2571 36.9517 50.2571 36.8161C50.2571 36.5992 50.3372 36.4365 50.4972 36.2738C50.6573 36.1111 50.924 36.0297 51.2442 36.0569C51.5109 36.0569 51.751 36.1111 51.9377 36.1653V36.9517L52.7914 36.9788Z" fill="#087827"/>
<path d="M54.9522 40.4497V41.2361L57.033 41.2632V40.4768H56.4194L56.4461 38.6601L58.9004 38.6872V40.4768H58.2868V41.2632H60.3409L60.3676 40.5039H59.754L59.7807 36.2197H60.3942V35.4334H58.3135V36.1926L58.927 36.2197L58.9004 37.9009L56.4461 37.8738V36.1926H57.0597V35.4062H55.0056L54.9789 36.1926H55.5925L55.5658 40.4497H54.9522Z" fill="#087827"/>
<path d="M64.6892 41.4259C64.7158 41.4259 64.7158 41.4259 64.6892 41.4259C65.3827 41.4259 65.943 41.1547 66.3431 40.6124C66.7432 40.0701 66.9567 39.3109 66.9567 38.3618C66.9567 37.467 66.7699 36.7349 66.3965 36.2197C66.023 35.6774 65.4895 35.4062 64.7959 35.4062C64.1023 35.4062 63.5421 35.6774 63.1152 36.2197C62.7151 36.762 62.5017 37.4941 62.5017 38.4161C62.5017 39.338 62.6884 40.0972 63.0886 40.6395C63.4887 41.1276 64.0222 41.3988 64.6892 41.4259ZM63.7822 36.7078C64.0222 36.3824 64.3424 36.2197 64.7692 36.2197C65.196 36.2197 65.5161 36.3824 65.7295 36.7349C65.9696 37.0874 66.0763 37.6297 66.0763 38.3618C66.0763 39.1211 65.943 39.6905 65.7029 40.043C65.4628 40.3955 65.1427 40.5853 64.7425 40.5853C64.3157 40.5853 64.0222 40.3955 63.7822 40.043C63.5421 39.6634 63.4354 39.0939 63.4354 38.3618C63.4354 37.6026 63.5421 37.0332 63.7822 36.7078Z" fill="#087827"/>
<path d="M69.1175 40.5581V41.3445L71.305 41.3716V40.5852H70.6114V39.0939H70.9582C71.5984 39.0939 72.1053 38.9312 72.452 38.6329C72.7988 38.3075 72.9856 37.8466 72.9856 37.2229C72.9856 36.6806 72.8255 36.2739 72.5321 35.9756C72.2386 35.6773 71.7585 35.5418 71.1449 35.5418L69.1975 35.5146V36.301H69.8111L69.7844 40.5852L69.1175 40.5581ZM70.9848 38.3075H70.6114L70.638 36.301H71.0649C71.4383 36.301 71.7051 36.3823 71.8652 36.5179C72.0252 36.6535 72.1052 36.8975 72.1052 37.2772C72.1052 37.6568 71.9985 37.9008 71.8385 38.0635C71.5984 38.2262 71.3316 38.3075 70.9848 38.3075Z" fill="#087827"/>
<path d="M67.3034 31.8268C67.4368 31.7184 67.5435 31.6099 67.6769 31.5014C69.1175 30.1999 69.0908 29.5762 67.5435 28.3289C64.4491 25.8614 64.4491 25.8614 66.6632 22.5533C67.6769 21.0078 67.4368 20.0045 65.7029 19.4893C62.395 18.486 61.5413 18.8656 63.0886 14.1476C63.1152 14.0662 63.1686 13.9577 63.1953 13.8764C63.5421 12.602 63.1686 11.9783 61.8348 11.8156C61.0078 11.7072 60.1541 11.7885 59.3272 11.7343C57.5932 11.6529 57.193 11.192 57.1397 9.42947C57.1397 9.02274 57.1397 8.61601 57.1397 8.23639C57.1397 5.57908 56.7395 5.25369 54.2053 5.85023C50.7373 6.6637 50.7373 6.6637 49.4568 3.24715C48.6299 1.0508 48.2297 0.915224 46.309 2.18965C43.1879 4.22331 43.1879 4.22331 40.8136 1.29484C39.4265 -0.440548 38.8129 -0.440548 37.4524 1.34907C35.0248 4.52158 35.1582 4.41312 32.0371 2.24388C30.063 0.860993 29.5295 1.13215 28.7558 3.46408C27.8755 6.1485 27.5554 7.3687 24.4609 5.93158C24.2475 5.82312 23.9807 5.85023 23.7406 5.796C21.6866 5.30792 21.1797 5.60619 21.2064 7.7212C21.233 11.8427 20.7529 11.8156 17.0982 11.7885C15.1508 11.7885 14.6973 12.4664 15.2308 14.3102C16.3246 18.1606 16.3246 18.1606 12.6165 19.5164C10.8825 20.1401 10.5624 21.062 11.6028 22.5533C14.0037 26.0241 14.0571 25.9428 10.6691 28.4374C9.20193 29.522 9.20193 30.3626 10.5891 31.5014C10.7492 31.637 10.9092 31.7455 11.0693 31.8811H4V32.9928H75.8933V31.8811H67.3034V31.8268ZM15.7644 29.9016C15.791 16.8591 26.3016 6.25696 39.133 6.22985C52.0178 6.22985 62.5817 16.9676 62.5017 30.0914C62.5017 30.6609 62.475 31.2574 62.4216 31.8268H53.6984C56.3127 30.0101 57.5932 27.4341 56.5795 25.8343C56.0193 24.9395 54.8188 24.5599 53.3249 24.7497C53.3783 24.3701 53.4316 23.9905 53.4583 23.6108C53.5117 23.1499 53.3516 22.6889 53.0315 22.3364C52.7114 21.9839 52.2579 21.767 51.7777 21.767H27.502C27.0219 21.767 26.5684 21.9839 26.2482 22.3364C25.9281 22.6889 25.7947 23.1228 25.8214 23.6108C26.0882 26.7291 27.1819 29.5491 28.8359 31.8268H15.8444C15.791 31.2032 15.7644 30.5524 15.7644 29.9016ZM50.5773 31.6099C51.6443 30.0643 52.4713 28.3018 52.9781 26.458C53.9919 26.2139 54.8188 26.3495 55.1123 26.8105C55.3524 27.1901 55.2456 27.8137 54.8455 28.4916C54.392 29.2509 53.6184 30.0101 52.658 30.6337C51.9644 31.0947 51.2708 31.4201 50.5773 31.6099ZM13.817 29.4135C14.1371 15.1779 25.5546 4.11485 39.4531 4.25042C53.3516 4.386 64.9826 16.371 64.3957 31.176C64.3957 31.393 64.369 31.6099 64.369 31.8268H63.302C63.3553 31.2303 63.382 30.6066 63.382 29.983C63.4087 16.4795 52.5246 5.38927 39.2664 5.36215C25.8481 5.33504 14.9374 16.3439 14.9107 29.9287C14.9107 30.5795 14.9374 31.2032 14.9907 31.8268H13.8703C13.817 31.0405 13.817 30.227 13.817 29.4135Z" fill="#087827"/>
<path d="M4 44.9238H15.4176C14.6173 48.0692 14.8574 48.0963 18.5654 48.2047C20.6462 48.259 21.073 48.6928 21.1797 50.7536C21.3664 54.8751 21.3664 54.8751 25.2345 53.7363C26.9952 53.2211 27.6354 53.5194 28.3023 55.2276C28.5691 55.8784 28.7025 56.5563 28.9426 57.2071C29.4494 58.59 30.1697 58.8882 31.4502 58.1561C32.2238 57.7223 32.8907 57.1257 33.6376 56.6648C34.5713 56.0682 35.4516 55.9598 36.1986 57.0444C36.7321 57.8036 37.319 58.5628 37.9326 59.2678C38.7595 60.244 39.5332 60.244 40.3868 59.2678C40.947 58.6442 41.4005 57.9392 41.9341 57.2884C42.9478 56.0411 43.6413 55.9326 44.9485 56.8274C45.6421 57.2884 46.309 57.7765 47.0293 58.2103C48.123 58.9153 48.87 58.5628 49.2968 57.3426C49.5635 56.5834 49.9103 55.8513 50.1237 55.0921C50.4705 53.7363 51.2975 53.3024 52.5513 53.6007C53.3249 53.7905 54.0452 54.1159 54.7921 54.3328C56.3394 54.7938 57.1664 54.2244 57.2464 52.5703C57.2731 51.784 57.2731 50.9705 57.2731 50.157C57.2464 48.9368 57.8866 48.3132 59.0337 48.2047C59.5139 48.1505 60.0208 48.2047 60.8477 48.2047C63.302 48.3945 64.0222 47.6082 62.9285 44.8966H76V43.7849H4V44.9238ZM57.2464 44.9238C52.9248 50.3197 46.3357 53.7634 39.053 53.6549C31.797 53.6549 25.2879 50.2384 21.0196 44.9238H57.2464ZM39.0263 55.6073C30.5165 55.6073 23.1004 51.3501 18.5387 44.8966H19.9259C24.3542 50.7536 31.3168 54.5226 39.1597 54.5226C46.9226 54.604 53.9118 50.7807 58.3401 44.8966H59.6206C54.9522 51.4315 47.3494 55.7428 39.0263 55.6073Z" fill="#087827"/>
</g>
<defs>
<filter id="filter0_d_1_86" x="0" y="0" width="80" height="68" filterUnits="userSpaceOnUse" color-interpolation-filters="sRGB">
<feFlood flood-opacity="0" result="BackgroundImageFix"/>
<feColorMatrix in="SourceAlpha" type="matrix" values="0 0 0 0 0 0 0 0 0 0 0 0 0 0 0 0 0 0 127 0" result="hardAlpha"/>
<feOffset dy="4"/>
<feGaussianBlur stdDeviation="2"/>
<feComposite in2="hardAlpha" operator="out"/>
<feColorMatrix type="matrix" values="0 0 0 0 0 0 0 0 0 0 0 0 0 0 0 0 0 0 0.25 0"/>
<feBlend mode="normal" in2="BackgroundImageFix" result="effect1_dropShadow_1_86"/>
<feBlend mode="normal" in="SourceGraphic" in2="effect1_dropShadow_1_86" result="shape"/>
</filter>
</defs>
</svg>
