<!-- Generated by IcoMoon.io -->
<svg version="1.1" xmlns="http://www.w3.org/2000/svg" width="32" height="32" viewBox="0 0 32 32">
<title>mainDishCard</title>
<linearGradient id="gradient1" x1="100%" y1="0%" x2="0%" y2="0%">
    <!-- <stop offset="0%" style="stop-color: #5e2000; stop-opacity: 1" />
    <stop offset="100%" style="stop-color: #5e2000; stop-opacity: .3" /> -->
         <stop offset="0%" style="stop-color: #999999; stop-opacity: .3" />
    <stop offset="100%" style="stop-color: #999999; stop-opacity: .3" />
  </linearGradient>
<path fill="url(#gradient1)" d="M14.762 5.081c-0.194 0.206-0.169 0.4 0.081 0.756 0.338 0.475 0.425 0.775 0.394 1.3s-0.113 0.7-0.537 1.213c-0.394 0.475-0.563 0.806-0.675 1.356-0.144 0.675-0.037 1.294 0.331 1.931 0.356 0.606 0.719 0.813 1.006 0.563 0.244-0.2 0.231-0.381-0.075-0.844-0.581-0.881-0.544-1.519 0.131-2.406 0.575-0.75 0.725-1.1 0.756-1.781 0.044-0.819-0.175-1.463-0.662-1.975-0.287-0.306-0.537-0.338-0.75-0.112z"></path>
<path fill="url(#gradient1)" d="M7.894 6c-0.306 0.125-0.35 0.5-0.088 0.813 0.35 0.431 0.413 0.612 0.413 1.219 0 0.65-0.050 0.762-0.569 1.412-0.406 0.5-0.556 0.831-0.656 1.412-0.088 0.55-0.013 1.063 0.25 1.606 0.256 0.544 0.556 0.85 0.831 0.85 0.481 0 0.581-0.444 0.213-0.919-0.431-0.556-0.525-1.313-0.219-1.9 0.075-0.15 0.256-0.419 0.406-0.594 0.431-0.506 0.669-1.075 0.7-1.694 0.031-0.594-0.044-0.944-0.313-1.463-0.3-0.581-0.669-0.862-0.969-0.744z"></path>
<path fill="url(#gradient1)" d="M23.781 7.031c-0.206 0.2-0.194 0.4 0.038 0.694 0.319 0.394 0.45 0.75 0.45 1.213 0 0.5-0.156 0.881-0.538 1.338-0.625 0.744-0.844 1.425-0.719 2.287 0.106 0.775 0.688 1.688 1.075 1.688 0.206 0 0.475-0.256 0.475-0.456 0-0.081-0.113-0.3-0.25-0.481-0.569-0.762-0.525-1.656 0.113-2.425 0.506-0.613 0.663-0.931 0.762-1.594 0.113-0.738-0.169-1.631-0.669-2.156-0.294-0.306-0.506-0.344-0.738-0.106z"></path>
<path fill="url(#gradient1)" d="M2.556 11.525c-0.394 0.137-0.769 0.5-0.925 0.887-0.050 0.131-0.163 0.238-0.325 0.306-1.025 0.463-1.281 1.863-0.488 2.65 0.425 0.425 1.087 0.594 1.644 0.419l0.313-0.094 0.7 0.688 0.7 0.694 0.025 0.55c0.019 0.431 0.056 0.613 0.181 0.856l0.162 0.3-0.125 0.281c-0.206 0.481-0.481 1.313-0.606 1.819-0.063 0.269-0.131 0.512-0.15 0.544s-0.144 0.075-0.269 0.094c-0.512 0.081-0.981 0.525-1.181 1.1l-0.075 0.225-0.625 0.038c-0.813 0.050-1.137 0.219-1.363 0.7-0.263 0.563-0.188 0.9 0.35 1.581 0.681 0.85 1.456 1.413 2.4 1.738 0.381 0.125 0.45 0.131 8.75 0.15l8.369 0.012 0.15-0.137c0.175-0.163 0.188-0.419 0.025-0.619l-0.119-0.15-16.669-0.063-0.394-0.15c-0.219-0.081-0.575-0.262-0.781-0.406-0.413-0.275-1.294-1.244-1.294-1.425 0-0.056 0.063-0.15 0.137-0.2 0.119-0.081 0.381-0.1 1.612-0.1 1.463 0 1.481 0 1.612-0.144 0.244-0.256 0.156-0.606-0.181-0.725-0.112-0.038-0.381-0.069-0.594-0.069-0.219 0-0.4-0.025-0.4-0.050 0-0.031 0.087-0.131 0.188-0.231 0.169-0.163 0.225-0.175 0.519-0.163 1.013 0.069 1.337-0.038 1.706-0.556 0.112-0.156 0.275-0.363 0.369-0.456 0.194-0.219 0.313-0.2 0.775 0.113 0.563 0.375 1.088 0.375 1.688 0.006 0.206-0.125 0.419-0.225 0.488-0.225 0.206 0 0.375 0.175 0.512 0.544 0.069 0.2 0.194 0.431 0.275 0.519 0.188 0.212 0.506 0.438 0.65 0.45 0.063 0.006-0.831 0.031-1.988 0.050-1.956 0.031-2.112 0.038-2.237 0.15-0.169 0.156-0.175 0.494-0.006 0.663 0.125 0.125 0.206 0.125 12.425 0.125 11.031 0 12.313 0.012 12.438 0.1 0.075 0.050 0.137 0.144 0.137 0.2 0 0.181-0.881 1.15-1.294 1.425-0.206 0.144-0.563 0.325-0.781 0.406-0.387 0.144-0.431 0.144-3.613 0.181-1.769 0.019-3.269 0.056-3.325 0.081-0.262 0.131-0.256 0.65 0.012 0.794 0.087 0.050 1.081 0.063 3.394 0.044 3.094-0.019 3.281-0.025 3.644-0.15 0.938-0.313 1.719-0.881 2.4-1.731 0.538-0.681 0.612-1.019 0.35-1.581-0.119-0.244-0.219-0.363-0.456-0.5l-0.3-0.175-1.325-0.019-1.331-0.025v-0.225c-0.006-0.325-0.212-1.219-0.4-1.719-0.325-0.875-0.762-1.569-1.456-2.325-0.294-0.319-0.344-0.35-0.556-0.331-0.163 0.012-0.269 0.069-0.356 0.188-0.169 0.231-0.106 0.419 0.288 0.85 0.413 0.45 0.656 0.8 0.938 1.356 0.331 0.656 0.606 1.563 0.606 2.012v0.206h-1.169l-0.031-0.281c-0.069-0.575-0.494-0.981-1.15-1.094-0.619-0.113-0.631-0.113-0.712-0.325-0.2-0.538-0.288-0.694-0.506-0.894-0.488-0.438-1.044-0.438-1.744 0.012l-0.45 0.288-0.456-0.238c-0.413-0.212-0.5-0.231-0.825-0.206-0.5 0.038-0.887 0.3-1.075 0.731-0.069 0.169-0.131 0.35-0.131 0.4 0 0.144-0.156 0.231-0.563 0.331-0.212 0.050-0.462 0.131-0.556 0.175-0.269 0.144-0.563 0.512-0.644 0.825l-0.075 0.275h-2.394c-1.319 0-2.394-0.012-2.394-0.031s0.063-0.137 0.144-0.269c0.344-0.55 0.537-1.25 0.544-1.919 0-0.881-0.262-1.669-0.775-2.337-0.569-0.738-1.119-1.075-2.444-1.506-0.75-0.238-1.831-0.738-1.975-0.912-0.131-0.162 1.387-1.125 2.419-1.525 1.313-0.512 2.525-0.719 3.912-0.669 1.094 0.037 1.763 0.156 2.75 0.488 1.456 0.488 2.556 1.15 3.706 2.244 0.688 0.656 0.913 0.788 1.631 0.969 0.337 0.087 0.8 0.219 1.019 0.288 0.488 0.163 0.663 0.169 0.819 0.025 0.144-0.131 0.169-0.45 0.044-0.613-0.106-0.144-0.775-0.4-1.438-0.55-0.719-0.156-0.819-0.212-1.469-0.825-1.394-1.319-2.919-2.169-4.762-2.662-1.469-0.394-3.469-0.419-4.994-0.063-1.444 0.338-3.063 1.119-4.194 2.019-0.381 0.306-0.419 0.325-0.619 0.269-0.119-0.031-0.381-0.044-0.581-0.031l-0.362 0.019-1.4-1.4 0.075-0.244c0.044-0.137 0.075-0.412 0.075-0.625 0-0.669-0.487-1.338-1.112-1.512-0.313-0.088-0.806-0.075-1.081 0.025zM3.462 12.444c0.081 0.037 0.2 0.162 0.263 0.275 0.106 0.2 0.106 0.238-0.013 0.981-0.069 0.406 0.075 0.656 0.744 1.344l0.625 0.644-0.481 0.494-0.663-0.65c-0.431-0.425-0.725-0.662-0.844-0.688-0.106-0.019-0.237-0.050-0.306-0.063-0.063-0.012-0.288 0.019-0.5 0.075-0.331 0.088-0.406 0.094-0.563 0.012-0.6-0.294-0.569-1.031 0.063-1.325 0.331-0.162 0.519-0.344 0.631-0.625 0.188-0.463 0.631-0.662 1.044-0.475zM6.856 16.256c0.094 0.038 0.388 0.2 0.644 0.363 0.762 0.494 1.438 0.806 2.369 1.106 1.275 0.413 1.8 0.8 2.206 1.619 0.344 0.681 0.387 1.575 0.119 2.288-0.213 0.563-0.225 0.569-0.631 0.431-0.188-0.069-0.5-0.119-0.694-0.125-0.406 0-0.475-0.056-0.681-0.563-0.4-0.994-1.444-1.288-2.281-0.65-0.269 0.206-0.475 0.188-0.831-0.063-0.162-0.119-0.362-0.231-0.45-0.256-0.125-0.031-0.194-0.125-0.3-0.394-0.125-0.331-0.425-0.856-0.95-1.688-0.394-0.619-0.325-1.313 0.175-1.781 0.325-0.313 0.906-0.438 1.306-0.288zM5.256 20.7c-0.144 0.131-0.313 0.356-0.381 0.488-0.3 0.594-0.244 0.075 0.106-0.956l0.169-0.488 0.181 0.35 0.181 0.356-0.256 0.25zM23.294 20.969c0.075 0.056 0.156 0.194 0.181 0.313 0.069 0.369 0.369 0.756 0.725 0.931 0.181 0.087 0.394 0.163 0.488 0.163 0.231 0 0.575 0.113 0.637 0.2 0.025 0.044 0.050 0.131 0.050 0.188 0 0.106-0.206 0.113-3.5 0.113-1.925 0-3.5-0.025-3.5-0.050 0-0.125 0.244-0.256 0.594-0.325 0.206-0.044 0.45-0.113 0.538-0.163 0.25-0.125 0.544-0.494 0.625-0.788 0.15-0.531 0.363-0.606 0.844-0.3 0.55 0.35 1.050 0.313 1.65-0.119 0.381-0.281 0.469-0.3 0.669-0.163z"></path>
</svg>
