<!-- Generated by IcoMoon.io -->
<svg version="1.1" xmlns="http://www.w3.org/2000/svg" width="32" height="32" viewBox="0 0 32 32">
<title>meatCard</title>
<linearGradient id="gradient1" x1="100%" y1="0%" x2="0%" y2="0%">
    <!-- <stop offset="0%" style="stop-color: #5e2000; stop-opacity: 1" />
    <stop offset="100%" style="stop-color: #5e2000; stop-opacity: .5" /> -->
         <stop offset="0%" style="stop-color: #450000; stop-opacity: .4" />
    <stop offset="100%" style="stop-color: #450000; stop-opacity: .4" />
  </linearGradient>
<path fill="url(#gradient1)" d="M10.675 3.050c-0.213 0.194-0.231 0.306-0.144 0.95 0.031 0.25 0.012 0.456-0.063 0.75-0.356 1.331 0.137 2.431 0.9 2.031 0.269-0.138 0.35-0.4 0.269-0.856-0.063-0.331-0.056-0.463 0.056-0.95 0.206-0.912 0.088-1.756-0.275-1.975-0.281-0.175-0.506-0.156-0.744 0.050z"></path>
<path fill="url(#gradient1)" d="M15.675 3.050c-0.213 0.194-0.231 0.306-0.144 0.95 0.031 0.25 0.012 0.456-0.063 0.75-0.356 1.331 0.137 2.431 0.9 2.031 0.269-0.138 0.35-0.406 0.269-0.844-0.056-0.313-0.044-0.456 0.056-0.95 0.206-0.938 0.087-1.769-0.275-1.987-0.281-0.175-0.506-0.156-0.744 0.050z"></path>
<path fill="url(#gradient1)" d="M20.675 3.050c-0.212 0.194-0.231 0.306-0.144 0.95 0.031 0.25 0.012 0.456-0.063 0.75-0.356 1.331 0.137 2.431 0.9 2.031 0.269-0.138 0.35-0.406 0.269-0.844-0.056-0.313-0.044-0.456 0.056-0.95 0.206-0.938 0.087-1.769-0.275-1.987-0.281-0.175-0.506-0.156-0.744 0.050z"></path>
<path fill="url(#gradient1)" d="M7.969 8.319c-1.069 0.144-2.444 0.588-2.731 0.875-0.338 0.331-0.169 0.944 0.281 1.025 0.144 0.031 0.356-0.025 0.787-0.188 1.563-0.606 3.175-0.681 5.131-0.244 0.394 0.088 1.438 0.381 2.313 0.65 2.506 0.762 3.938 1.113 5.45 1.319 0.775 0.106 0.869 0.056 1.175-0.606 0.394-0.85 1.087-1.463 1.656-1.463 0.381 0 0.556 0.431 0.65 1.637 0.056 0.775 0.094 0.838 0.587 1.050 0.7 0.3 1.275 0.825 1.725 1.575 0.075 0.125 0.337 0.669 0.587 1.219 0.531 1.163 0.825 1.613 1.363 2.113 0.625 0.575 1.394 0.875 2.431 0.944 0.988 0.069 1.063 0.156 1.063 1.275 0 0.831-0.063 1.050-0.344 1.175-0.087 0.044-0.256 0.075-0.375 0.075-0.669 0-1.438 0.344-1.894 0.844-0.163 0.175-0.488 0.619-0.731 0.988l-0.431 0.669h-5.531l-0.1-0.194c-0.325-0.619-0.919-0.988-1.694-1.050-0.694-0.056-0.806-0.156-0.906-0.863-0.069-0.469-0.169-0.681-0.475-1.025-0.219-0.244-0.731-0.556-0.913-0.556-0.063 0-0.075-0.119-0.056-0.55 0.031-0.706-0.106-1.069-0.581-1.5-0.512-0.469-0.713-0.512-2.438-0.512h-1.456l-0.075-0.331c-0.044-0.175-0.188-0.563-0.325-0.856-0.2-0.419-0.356-0.631-0.731-1.006-0.606-0.6-1.031-0.813-1.706-0.856-0.45-0.025-0.488-0.019-0.637 0.131-0.206 0.206-0.256 0.438-0.162 0.675 0.106 0.25 0.262 0.344 0.713 0.425 0.2 0.037 0.456 0.125 0.569 0.194 0.412 0.256 0.787 0.769 1.006 1.388l0.081 0.238h-0.925c-1.144 0-1.438 0.081-1.912 0.512-0.506 0.462-0.606 0.75-0.644 1.919-0.031 0.881-0.044 0.969-0.175 1.125l-0.138 0.163-1.9 0.031c-2.013 0.038-2.094 0.050-2.5 0.375l-0.169 0.131-0.15-0.244c-0.25-0.381-0.581-1.075-0.75-1.544-0.288-0.813-0.381-1.419-0.381-2.469 0-1.131 0.094-1.688 0.469-2.688 0.281-0.738 0.281-0.975 0.013-1.188-0.212-0.162-0.575-0.162-0.788 0-0.188 0.15-0.494 0.894-0.7 1.719-0.65 2.569-0.144 5.15 1.462 7.406 0.188 0.269 0.25 0.419 0.275 0.669l0.025 0.331h-0.481c-0.644 0-1.019 0.137-1.375 0.5-0.75 0.744-0.631 1.956 0.244 2.538l0.237 0.156 0.044 0.581c0.019 0.319 0.081 0.712 0.137 0.869 0.131 0.394 0.525 0.813 0.95 1.025l0.356 0.175h27.063l0.356-0.175c0.425-0.212 0.819-0.631 0.95-1.025 0.056-0.156 0.119-0.55 0.137-0.869l0.044-0.575 0.269-0.194c0.844-0.594 0.944-1.781 0.212-2.506-0.438-0.444-0.669-0.5-2.106-0.5-0.663 0-1.206-0.019-1.206-0.050 0-0.025 0.15-0.238 0.331-0.475 0.394-0.525 0.637-0.663 1.294-0.731 0.844-0.081 1.356-0.406 1.669-1.044 0.169-0.35 0.175-0.381 0.175-1.45s-0.006-1.1-0.175-1.45c-0.337-0.688-0.831-0.975-1.85-1.056-1.494-0.119-2.019-0.494-2.706-1.931-0.206-0.431-0.469-0.988-0.587-1.231-0.506-1.056-1.25-1.912-2.019-2.325l-0.369-0.194-0.044-0.394c-0.106-0.975-0.319-1.569-0.719-2.006-0.356-0.381-0.681-0.5-1.281-0.463-0.375 0.025-0.563 0.075-0.931 0.256-0.556 0.275-1.163 0.856-1.475 1.406l-0.219 0.387-0.25-0.037c-1.156-0.162-2.762-0.556-4.775-1.175-2.581-0.8-3.419-0.969-4.881-1.006-0.531-0.012-1.162 0-1.406 0.037zM15.6 18.456c0.206 0.238 0.206 0.6 0 0.837l-0.15 0.175-1.431 0.031c-1.619 0.038-1.694 0.056-2.2 0.531-0.569 0.538-0.75 1.369-0.444 2.087 0.181 0.413 0.713 0.906 1.113 1.031 0.262 0.081-0.188 0.094-4.162 0.081l-4.463-0.012-0.15-0.175c-0.206-0.238-0.206-0.6 0-0.837l0.15-0.175 1.9-0.031c1.838-0.031 1.9-0.038 2.175-0.181 0.362-0.188 0.725-0.531 0.894-0.85 0.119-0.219 0.137-0.387 0.169-1.25 0.031-1.075 0.094-1.281 0.394-1.406 0.075-0.031 1.456-0.050 3.094-0.044l2.963 0.012 0.15 0.175zM17.031 20.95c0.1 0.113 0.163 0.288 0.188 0.531 0.025 0.2 0.1 0.494 0.169 0.663 0.169 0.387 0.712 0.887 1.1 1.006 0.269 0.087 0.156 0.094-1.531 0.094l-1.825 0.006-0.1-0.194c-0.325-0.619-0.919-0.988-1.694-1.050-0.556-0.044-0.681-0.113-0.819-0.431-0.069-0.169-0.069-0.231 0.006-0.413 0.175-0.419 0.156-0.419 2.369-0.4l1.994 0.019 0.144 0.169zM30.625 24.625c0.144 0.144 0.163 0.363 0.038 0.538-0.081 0.106-0.194 0.125-0.975 0.15-0.875 0.031-0.887 0.031-1.038 0.206-0.2 0.238-0.206 0.6 0 0.837 0.131 0.15 0.2 0.175 0.594 0.194l0.444 0.025v0.438c0 0.5-0.056 0.637-0.313 0.769-0.163 0.081-1.731 0.094-13.375 0.094s-13.213-0.012-13.375-0.094c-0.256-0.131-0.313-0.269-0.313-0.775v-0.444l21.45-0.031 0.15-0.175c0.206-0.238 0.206-0.6 0-0.837l-0.15-0.175-11.169-0.031c-10.963-0.031-11.169-0.031-11.256-0.15-0.125-0.175-0.106-0.394 0.038-0.538 0.125-0.125 0.206-0.125 14.625-0.125s14.5 0 14.625 0.125z"></path>
<path fill="url(#gradient1)" d="M26.025 25.369c-0.35 0.15-0.45 0.681-0.188 0.988 0.125 0.144 0.2 0.175 0.444 0.175 0.375 0 0.594-0.219 0.594-0.594 0-0.438-0.45-0.738-0.85-0.569z"></path>
<path fill="url(#gradient1)" d="M2.9 10.838c-0.231 0.231-0.269 0.438-0.125 0.719 0.094 0.175 0.331 0.319 0.538 0.319 0.319 0 0.625-0.306 0.625-0.619 0-0.213-0.144-0.45-0.319-0.544-0.281-0.144-0.487-0.106-0.719 0.125z"></path>
<path fill="url(#gradient1)" d="M22.819 15.275c-0.556 0.306-0.306 1.162 0.337 1.162 0.225 0 0.594-0.369 0.594-0.588 0-0.5-0.5-0.813-0.931-0.575z"></path>
</svg>
