<!-- Generated by IcoMoon.io -->
<svg version="1.1" xmlns="http://www.w3.org/2000/svg" width="25" height="25" viewBox="0 0 32 32">
<title>mobileSwitch</title>
<path d="M4.047 25.315c-0.006-0.006-0.006-0.022-0.001-0.036 0.008-0.020-0.013-0.025-0.098-0.025-0.080 0-0.111 0.007-0.119 0.027-0.006 0.015-0.022 0.027-0.036 0.027-0.032 0-0.075-0.051-0.058-0.068 0.007-0.007 0.020-0.001 0.028 0.013 0.013 0.021 0.021 0.021 0.044 0.002 0.022-0.018 0.29-0.026 1.232-0.038l1.204-0.014-1.253 0.007c-0.689 0.004-1.281 0.012-1.316 0.019s-0.057 0.005-0.049-0.003c0.008-0.008 0.093-0.021 0.189-0.028l0.176-0.013-0.18 0.007c-0.099 0.004-0.205 0.011-0.234 0.017-0.041 0.007-0.037 0.003 0.018-0.017l0.072-0.026-0.063 0.010c-0.035 0.005-0.083 0.013-0.108 0.017-0.033 0.006-0.028 0 0.018-0.020 0.053-0.023 0.055-0.026 0.014-0.018-0.027 0.005-0.072 0.013-0.099 0.018-0.042 0.008-0.040 0.005 0.014-0.018 0.062-0.027 0.062-0.027 0.009-0.019-0.030 0.005-0.074 0.013-0.099 0.019-0.037 0.009-0.036 0.006 0.009-0.014l0.054-0.025-0.048-0.012c-0.026-0.007-0.067-0.004-0.090 0.006-0.036 0.015-0.033 0.017 0.021 0.009s0.057-0.007 0.021 0.009c-0.023 0.010-0.064 0.013-0.090 0.006l-0.048-0.012 0.054-0.025c0.051-0.023 0.052-0.024 0.006-0.015-0.026 0.005-0.063 0.014-0.081 0.020-0.020 0.006-0.015-0.001 0.012-0.019l0.045-0.029-0.045 0.012c-0.025 0.007-0.057 0.016-0.072 0.020s-0.007-0.005 0.018-0.021l0.045-0.029-0.045 0.012c-0.025 0.007-0.057 0.016-0.072 0.020s-0.007-0.005 0.018-0.021l0.045-0.029-0.045 0.012c-0.025 0.007-0.057 0.016-0.072 0.020s-0.007-0.005 0.018-0.020c0.052-0.032 0.041-0.037-0.026-0.011-0.055 0.021-0.118 0.005-0.079-0.020 0.013-0.008 0.032-0.015 0.042-0.015s0.006 0.008-0.009 0.017c-0.015 0.010-0.019 0.017-0.009 0.017s0.029-0.007 0.042-0.015c0.018-0.011 0.009-0.021-0.034-0.036-0.040-0.014-0.067-0.014-0.087-0.001-0.023 0.015-0.020 0.016 0.016 0.008s0.039-0.007 0.015 0.008c-0.017 0.010-0.043 0.014-0.059 0.008-0.027-0.010-0.027-0.013 0-0.032 0.026-0.019 0.024-0.024-0.017-0.042-0.026-0.012-0.060-0.016-0.077-0.010-0.020 0.008-0.026 0.005-0.017-0.009 0.010-0.016 0.001-0.016-0.034-0.003s-0.044 0.012-0.034-0.003c0.009-0.014 0.003-0.017-0.018-0.009s-0.027 0.005-0.018-0.009 0.003-0.017-0.018-0.009-0.027 0.005-0.018-0.009 0.003-0.017-0.018-0.009-0.027 0.005-0.018-0.009c0.009-0.014 0.003-0.017-0.017-0.009-0.017 0.006-0.050 0.002-0.075-0.009-0.040-0.018-0.042-0.022-0.014-0.042s0.027-0.023-0.007-0.034c-0.020-0.006-0.052-0.006-0.069 0.001-0.021 0.008-0.028 0.006-0.021-0.007 0.011-0.018-0.174-0.185-0.205-0.185-0.008 0-0.045-0.020-0.081-0.045s-0.073-0.041-0.081-0.036c-0.008 0.005-0.020 0.001-0.026-0.009s-0.033-0.018-0.060-0.018c-0.037 0-0.042 0.004-0.022 0.017 0.014 0.009 0.033 0.012 0.042 0.007s0.035 0.010 0.059 0.033c0.104 0.1 0.12 0.109 0.177 0.099 0.031-0.005 0.047-0.005 0.034-0s-0.019 0.015-0.015 0.022c0.019 0.031-0.078 0.016-0.107-0.016-0.018-0.020-0.043-0.036-0.056-0.036s-0.032-0.016-0.042-0.035c-0.010-0.019-0.037-0.037-0.059-0.041s-0.058-0.033-0.081-0.066c-0.022-0.033-0.073-0.077-0.113-0.097-0.080-0.039-0.144-0.117-0.131-0.156 0.005-0.015 0.001-0.020-0.011-0.013s-0.016 0.002-0.009-0.018c0.010-0.026 0.015-0.024 0.034 0.012 0.012 0.023 0.018 0.050 0.012 0.059s-0 0.010 0.013 0.002c0.014-0.009 0.019-0.008 0.013 0.003s0.010 0.015 0.039 0.010c0.033-0.005 0.058 0.004 0.075 0.026 0.022 0.028 0.022 0.030-0 0.011-0.014-0.012-0.045-0.023-0.069-0.023-0.037 0-0.040 0.004-0.021 0.027 0.012 0.015 0.038 0.027 0.056 0.027s0.050 0.016 0.069 0.035c0.024 0.024 0.038 0.028 0.045 0.014 0.006-0.012 0.005-0.001-0 0.024-0.008 0.036-0.006 0.040 0.010 0.018s0.018-0.018 0.010 0.018c-0.006 0.025-0.006 0.035-0 0.024s0.023-0.016 0.040-0.010c0.034 0.013 0.031 0.008-0.087-0.126-0.048-0.055-0.090-0.086-0.117-0.086-0.030 0-0.054-0.023-0.089-0.081-0.026-0.045-0.071-0.093-0.101-0.109s-0.053-0.041-0.053-0.057c0-0.016-0.041-0.075-0.090-0.13-0.151-0.169-0.162-0.183-0.162-0.198 0-0.020-0.077-0.091-0.099-0.090-0.010 0-0.021-0.010-0.025-0.022s0.001-0.017 0.013-0.009c0.013 0.008 0.016 0.002 0.009-0.016-0.006-0.015-0.018-0.028-0.027-0.028s-0.016-0.011-0.016-0.024c0-0.013-0.018-0.040-0.039-0.059s-0.033-0.024-0.026-0.012c0.007 0.012 0.005 0.023-0.006 0.023s-0.019-0.007-0.019-0.017c0-0.009-0.005-0.031-0.011-0.050-0.009-0.027-0.007-0.028 0.009-0.006 0.040 0.055 0.018-0.005-0.053-0.145-0.045-0.089-0.080-0.14-0.093-0.132s-0.016 0.002-0.011-0.013c0.005-0.014 0.001-0.040-0.008-0.058-0.013-0.025-0.023-0.028-0.041-0.013s-0.028 0.014-0.038-0.002c-0.008-0.013-0.006-0.017 0.006-0.010 0.011 0.007 0.023 0.002 0.027-0.011 0.010-0.030-0.040-0.106-0.062-0.093-0.010 0.006-0.013-0.017-0.007-0.059 0.007-0.052 0.006-0.058-0.005-0.024-0.013 0.040-0.017 0.041-0.029 0.013-0.008-0.018-0.009-0.067-0.004-0.108 0.012-0.089-0.014-0.054-0.033 0.044-0.008 0.042-0.005 0.070 0.008 0.078 0.011 0.007 0.029 0.034 0.039 0.060 0.013 0.034 0.022 0.041 0.032 0.024 0.011-0.018 0.017-0.018 0.025 0.005 0.006 0.015 0.004 0.032-0.004 0.037-0.020 0.013-0.068-0.047-0.12-0.15-0.007-0.013 0.001-0.066 0.017-0.117 0.024-0.076 0.025-0.106 0.009-0.161-0.020-0.065-0.050-0.062-0.050 0.005 0 0.024 0.002 0.024 0.019 0 0.015-0.021 0.017-0.014 0.008 0.027-0.008 0.040-0.006 0.047 0.007 0.027 0.016-0.024 0.018-0.024 0.018 0 0 0.015-0.006 0.037-0.014 0.050-0.026 0.040-0.079-0.164-0.057-0.22 0.026-0.069 0.020-0.101-0.008-0.039l-0.023 0.052-0.012-0.048c-0.007-0.027-0.025-0.048-0.041-0.048-0.022 0-0.027-0.013-0.021-0.053 0.005-0.034-0.001-0.057-0.016-0.063-0.028-0.011-0.033-0.082-0.006-0.082 0.010 0 0.018-0.016 0.018-0.036s-0.011-0.036-0.025-0.036c-0.038 0-0.048-0.046-0.018-0.084 0.026-0.032 0.026-0.032 0.016 0.005-0.006 0.023 0.001 0.047 0.017 0.061 0.023 0.019 0.027 0.017 0.028-0.011 0-0.019 0.004-0.066 0.008-0.106 0.007-0.065 0.007-0.067-0.008-0.018-0.012 0.040-0.015 0.020-0.010-0.081 0.005-0.105 0.003-0.119-0.008-0.063-0.010 0.048-0.013-0.002-0.009-0.153l0.006-0.225-0.021 0.211c-0.012 0.116-0.027 0.217-0.035 0.224-0.022 0.022-0.015 0.043 0.014 0.043 0.015 0 0.026 0.014 0.026 0.032-0.001 0.019-0.005 0.022-0.011 0.009-0.005-0.012-0.021-0.023-0.035-0.023-0.027 0-0.036-0.064-0.010-0.079s0.040-0.299 0.026-0.509c-0.009-0.142-0.016-0.179-0.025-0.133l-0.012 0.063-0.002-0.056c-0.003-0.068 0.059-0.152 0.077-0.105 0.016 0.042 0.014 0.049-0.011 0.039-0.017-0.007-0.020 0.020-0.014 0.111l0.009 0.119 0.006-0.097c0.003-0.053 0.017-0.114 0.031-0.135 0.019-0.029 0.021-0.060 0.009-0.129l-0.017-0.090 0.007 0.099c0.007 0.096-0.006 0.087-0.033-0.022-0.009-0.037-0.003-0.057 0.024-0.081 0.020-0.017 0.036-0.046 0.036-0.064s0.020-0.040 0.045-0.050c0.025-0.010 0.045-0.032 0.045-0.050 0-0.052 0.11-0.149 0.156-0.137 0.028 0.007 0.048-0.005 0.079-0.048 0.043-0.061 0.048-0.061 0.216-0.026 0.030 0.006 0.024 0-0.018-0.018-0.038-0.017-0.045-0.023-0.018-0.017 0.025 0.006 0.167 0.013 0.316 0.017l0.27 0.006-0.267-0.014c-0.147-0.008-0.272-0.020-0.279-0.027s0.028-0.008 0.077-0.002c0.050 0.006 1.445 0.014 3.101 0.018l3.011 0.007-2.951-0.012c-1.623-0.006-2.955-0.016-2.96-0.020s6.684-0.009 14.863-0.009c8.179 0 14.868 0.004 14.864 0.008s-0.959 0.013-2.122 0.019l-2.113 0.011 1.776 0.001c0.977 0.001 1.965-0.004 2.196-0.010 0.374-0.010 0.422-0.015 0.438-0.043 0.022-0.039 0.088-0.042 0.088-0.004 0 0.015 0.020 0.037 0.046 0.048 0.033 0.015 0.039 0.025 0.023 0.035-0.034 0.022-0.063 0.018-0.032-0.005 0.021-0.015 0.017-0.017-0.018-0.009-0.025 0.006-0.053 0.011-0.063 0.012s0.016 0.012 0.057 0.025c0.041 0.013 0.097 0.020 0.122 0.015 0.028-0.005 0.059 0.002 0.078 0.018 0.017 0.015 0.047 0.031 0.067 0.036 0.029 0.007 0.026 0.009-0.011 0.011-0.026 0.001-0.057-0.010-0.070-0.025s-0.036-0.026-0.052-0.026c-0.025 0.001-0.025 0.003-0.002 0.011 0.015 0.005 0.039 0.020 0.054 0.032 0.042 0.034 0.105 0.044 0.115 0.018 0.011-0.030-0.004-0.045-0.045-0.045-0.018 0-0.040-0.013-0.049-0.030-0.013-0.023-0.032-0.027-0.087-0.019-0.048 0.008-0.061 0.006-0.043-0.006 0.041-0.026 0.119-0.021 0.144 0.009 0.012 0.015 0.038 0.027 0.057 0.027 0.023 0 0.044 0.022 0.061 0.063 0.015 0.035 0.036 0.063 0.049 0.064s0.008 0.009-0.011 0.020c-0.018 0.011-0.038 0.014-0.044 0.008s-0.001-0.011 0.011-0.011c0.012 0 0.017-0.009 0.010-0.020-0.009-0.014-0.017-0.013-0.029 0.005-0.011 0.016-0.013 0.006-0.006-0.030 0.009-0.051 0.009-0.052-0.009-0.010-0.027 0.062 0.012 0.1 0.076 0.075 0.055-0.021 0.104 0.020 0.104 0.086 0 0.022 0.016 0.072 0.036 0.11 0.028 0.055 0.032 0.081 0.018 0.118-0.026 0.068-0.021 0.079 0.011 0.027 0.015-0.025 0.023-0.030 0.017-0.012s-0.014 0.055-0.019 0.081l-0.009 0.048 0.038-0.096 0.048 0.044c0.041 0.038 0.045 0.049 0.026 0.079-0.027 0.043-0.030 0.389-0.004 0.405 0.030 0.019 0.020 0.092-0.018 0.126-0.043 0.038-0.051 0.003-0.009-0.039 0.021-0.021 0.023-0.035 0.007-0.064-0.012-0.023-0.017-0.12-0.014-0.258 0.004-0.133-0.001-0.228-0.012-0.238-0.027-0.025-0.021 0.693 0.006 0.72 0.031 0.031 0.025 0.074-0.015 0.109-0.029 0.025-0.036 0.026-0.036 0.005 0-0.014 0.014-0.034 0.031-0.043 0.024-0.013 0.026-0.023 0.010-0.042-0.011-0.014-0.029-0.065-0.039-0.114-0.018-0.088-0.018-0.088-0.011 0.037 0.005 0.088 0.003 0.11-0.008 0.072-0.010-0.037-0.016-0.042-0.017-0.018-0.003 0.062 0.028 0.168 0.058 0.198 0.034 0.034 0.022 0.074-0.025 0.087-0.041 0.011-0.047-0.020-0.007-0.035 0.018-0.007 0.022-0.018 0.011-0.031-0.009-0.011-0.025-0.049-0.036-0.084-0.018-0.060-0.018-0.058-0.011 0.027 0.006 0.069 0.004 0.082-0.010 0.054s-0.016-0.023-0.007 0.027c0.027 0.15 0.027 0.155-0.002 0.090-0.028-0.064-0.028-0.059-0.001 0.081 0.010 0.052 0.009 0.051-0.017-0.009s-0.027-0.061-0.017-0.009c0.006 0.030 0.014 0.070 0.018 0.090s-0.004 0.012-0.020-0.018c-0.029-0.058-0.029-0.059 0.002 0.081 0.008 0.038 0.006 0.036-0.015-0.009l-0.025-0.054-0.012 0.048c-0.007 0.027-0.004 0.070 0.006 0.096 0.026 0.068 0.021 0.080-0.010 0.027l-0.027-0.045 0.012 0.045c0.007 0.025 0.016 0.057 0.020 0.072s-0.005 0.007-0.021-0.018l-0.029-0.045 0.012 0.045c0.007 0.025 0.016 0.057 0.020 0.072s-0.005 0.007-0.021-0.018l-0.029-0.045 0.012 0.045c0.007 0.025 0.016 0.057 0.020 0.072s-0.005 0.007-0.020-0.018c-0.032-0.052-0.037-0.041-0.011 0.026 0.021 0.055 0.005 0.118-0.020 0.079-0.008-0.013-0.015-0.032-0.015-0.042s0.008-0.006 0.017 0.009c0.010 0.015 0.017 0.019 0.017 0.009s-0.007-0.029-0.015-0.042c-0.024-0.038-0.041 0.024-0.020 0.078s-0.013 0.172-0.038 0.133c-0.008-0.013-0.015-0.032-0.015-0.042s0.008-0.006 0.017 0.009c0.010 0.015 0.017 0.019 0.017 0.009s-0.007-0.029-0.015-0.042c-0.030-0.048-0.038 0.030-0.011 0.107 0.034 0.096 0.034 0.093-0.018 0.148-0.040 0.043-0.045 0.044-0.054 0.015-0.006-0.018 0.002-0.064 0.017-0.103 0.024-0.063 0.027-0.065 0.021-0.017-0.004 0.030-0.013 0.070-0.021 0.090-0.014 0.035-0.014 0.036 0.024 0.002 0.029-0.025 0.036-0.046 0.028-0.081-0.024-0.102-0.038-0.098-0.079 0.027-0.023 0.068-0.065 0.152-0.095 0.186s-0.072 0.101-0.094 0.148c-0.022 0.047-0.061 0.114-0.088 0.149-0.055 0.073-0.065 0.108-0.013 0.045 0.020-0.023 0.036-0.038 0.036-0.032 0.001 0.025-0.058 0.124-0.074 0.124-0.010 0-0.012-0.009-0.006-0.020 0.008-0.014-0-0.013-0.027 0.001-0.022 0.012-0.044 0.035-0.050 0.051s-0.036 0.058-0.067 0.092c-0.031 0.034-0.047 0.056-0.036 0.050 0.032-0.018 0.024 0.074-0.009 0.1-0.025 0.020-0.026 0.019-0.008-0.005 0.012-0.016 0.015-0.038 0.007-0.051-0.010-0.017-0.017-0.010-0.024 0.024-0.005 0.026-0.002 0.052 0.007 0.057 0.029 0.018 0.069-0.032 0.069-0.086 0-0.031 0.012-0.057 0.029-0.063 0.023-0.009 0.024-0.014 0.005-0.026-0.015-0.010-0.005-0.014 0.030-0.011 0.046 0.003 0.055-0.003 0.060-0.044 0.003-0.029 0.019-0.051 0.041-0.057 0.020-0.005 0.035-0.025 0.035-0.045s0.006-0.039 0.014-0.042c0.036-0.016 0.097-0.13 0.088-0.164-0.010-0.038 0.037-0.151 0.055-0.133 0.006 0.006-0.004 0.031-0.021 0.057-0.035 0.053-0.023 0.079 0.022 0.050 0.017-0.011 0.033-0.045 0.035-0.076 0.008-0.103 0.010-0.109 0.028-0.098 0.010 0.006 0.012 0.002 0.005-0.010-0.008-0.013-0.003-0.017 0.016-0.010 0.024 0.009 0.027 0.002 0.019-0.041-0.010-0.051-0.010-0.051 0.009-0.007 0.017 0.038 0.014 0.049-0.018 0.070-0.026 0.017-0.037 0.044-0.037 0.087s-0.014 0.075-0.045 0.104c-0.025 0.023-0.045 0.050-0.045 0.060s-0.012 0.023-0.027 0.029c-0.015 0.006-0.027 0.022-0.027 0.036s-0.012 0.035-0.027 0.048c-0.015 0.012-0.027 0.038-0.027 0.056s-0.008 0.034-0.017 0.034c-0.009 0-0.028 0.022-0.041 0.050s-0.050 0.061-0.082 0.075c-0.045 0.020-0.059 0.037-0.059 0.074 0 0.052-0.032 0.088-0.12 0.132-0.035 0.018-0.065 0.052-0.077 0.087-0.027 0.078-0.107 0.159-0.156 0.159-0.022 0-0.045 0.013-0.051 0.028s-0.020 0.023-0.032 0.015c-0.014-0.009-0.017-0.003-0.009 0.018 0.025 0.065-0.14 0.161-0.176 0.103-0.006-0.009 0.012-0.014 0.040-0.011 0.058 0.007 0.116-0.020 0.11-0.050-0.002-0.012 0.002-0.041 0.010-0.065 0.012-0.034 0.018-0.038 0.032-0.018s0.015 0.017 0.007-0.008c-0.006-0.018-0.003-0.028 0.006-0.022s0.022 0.002 0.028-0.008c0.006-0.010 0.031-0.018 0.055-0.018 0.043 0 0.091-0.056 0.068-0.079-0.006-0.006 0.010-0.034 0.037-0.062s0.042-0.057 0.035-0.066c-0.008-0.008-0.002-0.009 0.012-0 0.017 0.010 0.021 0.008 0.013-0.006s-0.002-0.017 0.020-0.010c0.028 0.009 0.028 0.007 0.005-0.010-0.022-0.017-0.019-0.019 0.018-0.010 0.038 0.009 0.040 0.008 0.013-0.009s-0.047-0.007-0.121 0.054c-0.093 0.078-0.215 0.216-0.251 0.284-0.012 0.022-0.038 0.041-0.059 0.041s-0.069 0.028-0.108 0.063c-0.041 0.037-0.059 0.063-0.043 0.063 0.015 0 0.028-0.010 0.028-0.023s0.009-0.003 0.018 0.020c0.019 0.048-0.005 0.092-0.051 0.092-0.015 0-0.057 0.024-0.095 0.054s-0.075 0.054-0.082 0.054c-0.008 0-0.027 0.012-0.042 0.027-0.149 0.138-0.15 0.139-0.202 0.129-0.041-0.008-0.065 0.002-0.115 0.045-0.066 0.058-0.107 0.068-0.198 0.047l-0.054-0.012 0.104 0.047-0.052 0.010c-0.031 0.006-0.059 0.028-0.070 0.052-0.015 0.035-0.032 0.042-0.099 0.042-0.045 0-0.123 0.015-0.173 0.032-0.070 0.024-0.104 0.027-0.141 0.013-0.027-0.010-0.071-0.013-0.097-0.006l-0.048 0.012 0.054 0.025c0.057 0.026 0.056 0.026-0.081-0.005-0.040-0.009-0.039-0.007 0.009 0.018 0.030 0.015 0.038 0.024 0.018 0.020s-0.060-0.012-0.090-0.018c-0.052-0.010-0.052-0.009 0.009 0.017 0.067 0.029 0.070 0.029-0.086-0-0.043-0.008-0.045-0.007-0.014 0.009 0.029 0.015 0.021 0.017-0.036 0.010-0.046-0.006-0.060-0.004-0.037 0.006 0.031 0.013 0.028 0.016-0.022 0.026-0.031 0.006-0.108 0.009-0.17 0.005-0.084-0.005-0.095-0.003-0.041 0.006 0.040 0.007-0.208 0.011-0.55 0.010-0.56-0.003-0.579-0.002-0.189 0.008 0.238 0.006-4.809 0.011-11.215 0.012s-11.791 0.008-11.967 0.015c-0.297 0.013-0.32 0.017-0.32 0.049 0 0.028-0.013 0.034-0.078 0.034-0.043 0-0.083-0.005-0.089-0.011zM4.142 25.289c0-0.010-0.004-0.018-0.008-0.018s-0.013 0.008-0.019 0.018c-0.006 0.010-0.003 0.018 0.008 0.018s0.019-0.008 0.019-0.018zM28.622 25.17c-0.006-0.006-0.022-0.007-0.035-0.001-0.014 0.006-0.010 0.010 0.011 0.011 0.019 0.001 0.030-0.003 0.024-0.009zM29.149 25.053c-0.021-0.015-0.014-0.017 0.027-0.008 0.042 0.009 0.048 0.007 0.027-0.009s-0.015-0.018 0.027-0.009c0.040 0.008 0.047 0.006 0.027-0.007s0.009-0.016 0.095-0.010c0.117 0.008 0.123 0.006 0.139-0.036 0.009-0.024 0.027-0.045 0.040-0.045s0.010-0.008-0.008-0.019c-0.023-0.013-0.045-0.010-0.081 0.010-0.048 0.027-0.048 0.028-0.005 0.017 0.031-0.008 0.039-0.006 0.027 0.007-0.010 0.010-0.042 0.024-0.072 0.031-0.044 0.009-0.049 0.008-0.027-0.009 0.031-0.024 0.045-0.028-0.158 0.037-0.082 0.026-0.122 0.047-0.108 0.056 0.012 0.008 0.035 0.014 0.049 0.014 0.024 0 0.024-0.002 0-0.019zM29.778 24.817c0.044-0.039 0.075-0.051 0.117-0.047 0.044 0.004 0.061-0.003 0.073-0.032 0.009-0.021 0.038-0.047 0.063-0.058 0.058-0.025 0.096-0.052 0.176-0.121 0.034-0.030 0.072-0.055 0.084-0.057s0.031-0.003 0.044-0.005c0.012-0.001 0.023-0.010 0.023-0.020 0-0.028-0.057-0.021-0.093 0.012s-0.046 0.009-0.010-0.029c0.012-0.013-0.022 0.010-0.077 0.051s-0.115 0.087-0.134 0.102c-0.019 0.015-0.029 0.027-0.021 0.027s0.045-0.024 0.083-0.054c0.078-0.062 0.111-0.071 0.063-0.018-0.018 0.020-0.041 0.036-0.051 0.036s-0.031 0.011-0.047 0.025c-0.016 0.014-0.049 0.030-0.074 0.037-0.034 0.009-0.039 0.008-0.018-0.007 0.015-0.010 0.021-0.019 0.013-0.019-0.020-0-0.121 0.053-0.121 0.064 0 0.005 0.017 0 0.038-0.011s0.042-0.016 0.047-0.011c0.009 0.009-0.088 0.066-0.112 0.066-0.006 0-0.005-0.009 0.002-0.021 0.015-0.025-0.001-0.016-0.125 0.069-0.048 0.033-0.101 0.060-0.117 0.061-0.023 0.001-0.021 0.005 0.007 0.017 0.049 0.021 0.097 0.005 0.168-0.057zM29.724 24.812c0.050-0.035 0.097-0.063 0.103-0.063 0.016 0-0.085 0.081-0.13 0.105-0.076 0.040-0.063 0.020 0.028-0.042zM2.588 24.82c-0.058-0.030-0.115-0.048-0.132-0.042-0.024 0.009-0.025 0.014-0.005 0.026 0.013 0.008 0.036 0.012 0.051 0.007s0.055 0.008 0.090 0.027c0.035 0.019 0.071 0.034 0.081 0.034s-0.028-0.024-0.085-0.053zM1.951 24.424c-0.006-0.010-0.021-0.018-0.033-0.018-0.013 0-0.011 0.007 0.006 0.018 0.035 0.022 0.041 0.022 0.027 0zM31.568 22.771c-0.021-0.037-0.026-0.025-0.009 0.020 0.006 0.016 0.015 0.026 0.020 0.021s-0-0.023-0.011-0.041zM0.639 22.672c-0.006-0.014-0.010-0.010-0.011 0.011-0.001 0.019 0.003 0.030 0.009 0.024s0.007-0.022 0.001-0.035zM0.553 22.378c0-0.010-0.007-0.006-0.016 0.009s-0.017 0.039-0.016 0.054c0.001 0.029 0.031-0.029 0.033-0.063zM0.516 22.242c0-0.017-0.005-0.014-0.014 0.008-0.019 0.048-0.059-0.159-0.048-0.244 0.006-0.046 0.003-0.041-0.013 0.019-0.012 0.045-0.029 0.091-0.037 0.104-0.010 0.015-0.004 0.023 0.016 0.023 0.025 0 0.029 0.012 0.020 0.063-0.008 0.048-0.004 0.063 0.016 0.063 0.014 0 0.026 0.014 0.027 0.032 0.001 0.027 0.004 0.026 0.017-0.005 0.009-0.020 0.015-0.048 0.015-0.063zM0.494 22.148c-0.005-0.012-0.009-0.002-0.009 0.023s0.004 0.035 0.009 0.023c0.005-0.012 0.005-0.033 0-0.045zM0.476 22.058c-0.005-0.012-0.009-0.002-0.009 0.023s0.004 0.035 0.009 0.023c0.005-0.012 0.005-0.033 0-0.045zM31.849 21.49c-0.004-0.027-0.008-0.009-0.008 0.040s0.003 0.072 0.008 0.050 0.004-0.063 0-0.090zM31.848 21.165c-0.005-0.017-0.008-0.003-0.008 0.032s0.004 0.049 0.008 0.032c0.005-0.017 0.005-0.046 0-0.063zM31.777 20.859c-0.023-0.047-0.039-0.099-0.036-0.115s-0.005-0.038-0.020-0.050c-0.022-0.019-0.024-0.012-0.011 0.046 0.008 0.037 0.012 0.071 0.007 0.076s-0.013-0.018-0.019-0.049c-0.006-0.032-0.018-0.061-0.026-0.066-0.023-0.014 0.009 0.080 0.066 0.195 0.038 0.077 0.055 0.097 0.066 0.077 0.009-0.017-0.001-0.058-0.028-0.113zM31.758 20.898c-0.042-0.089-0.036-0.104 0.008-0.020 0.020 0.038 0.033 0.073 0.029 0.076s-0.021-0.021-0.037-0.056zM0.47 20.898c0.010-0.075 0.043-0.152 0.067-0.152 0.011 0 0.002 0.024-0.019 0.054s-0.030 0.054-0.019 0.054c0.011 0 0.019-0.009 0.019-0.019s0.022-0.039 0.048-0.063c0.026-0.025 0.049-0.062 0.051-0.084 0.002-0.027 0.019-0.044 0.056-0.053 0.029-0.008 0.081-0.044 0.116-0.080s0.052-0.061 0.040-0.054c-0.012 0.007-0.023 0.003-0.023-0.008 0-0.014 0.025-0.017 0.077-0.010 0.054 0.007 0.066 0.006 0.041-0.006-0.066-0.031-0.11-0.020-0.15 0.035-0.027 0.036-0.056 0.054-0.088 0.054-0.060 0-0.131 0.065-0.131 0.119 0 0.025-0.014 0.045-0.035 0.052-0.034 0.011-0.102 0.117-0.075 0.117 0.007 0 0.010 0.026 0.005 0.059s-0.003 0.054 0.003 0.048c0.006-0.006 0.014-0.034 0.018-0.063zM0.567 20.726c0.011-0.011 0.016-0.032 0.011-0.045-0.014-0.036 0.028-0.079 0.076-0.079 0.023 0 0.068-0.021 0.101-0.047l0.060-0.047-0.059 0.056c-0.034 0.032-0.078 0.056-0.104 0.056s-0.046 0.010-0.047 0.023-0.004 0.031-0.006 0.041c-0.002 0.010-0.005 0.028-0.007 0.041s-0.012 0.023-0.024 0.023c-0.016 0-0.016-0.005-0.001-0.020zM31.19 20.443c0.062-0.012 0.065-0.015 0.041-0.047-0.014-0.019-0.026-0.026-0.026-0.015 0 0.034-0.058 0.049-0.243 0.060l-0.18 0.011 0.171 0.002c0.094 0.001 0.201-0.003 0.238-0.010zM28.015 25.293c-0.017-0.032-0.010-0.035 0.102-0.046 0.178-0.017 0.301-0.014 0.322 0.007 0.013 0.013 0.036 0.009 0.075-0.014 0.046-0.026 0.063-0.028 0.091-0.011s0.037 0.017 0.045-0.005c0.006-0.014 0.019-0.026 0.029-0.026 0.014 0 0.014 0.011 0 0.036-0.020 0.037-0.090 0.051-0.090 0.018 0-0.030-0.044-0.020-0.077 0.018-0.037 0.043-0.078 0.046-0.099 0.008s-0.23-0.030-0.23 0.010c0 0.019-0.023 0.029-0.075 0.033-0.059 0.004-0.079-0.002-0.094-0.029zM28.122 25.3c0-0.004-0.008-0.013-0.018-0.019s-0.018-0.003-0.018 0.008c0 0.011 0.008 0.019 0.018 0.019s0.018-0.004 0.018-0.008zM8.325 25.252c4.144-0.014 15.522-0.014 17.741 0 0.947 0.006-3.377 0.011-9.61 0.011s-9.892-0.005-8.131-0.011zM28.738 25.232c-0.032-0.032-0.026-0.059 0.007-0.031 0.024 0.020 0.031 0.019 0.046-0.007 0.023-0.040 0.054-0.040 0.039 0.001-0.021 0.056-0.058 0.071-0.092 0.037zM29.032 25.091c-0.024-0.010-0.027-0.016-0.009-0.017 0.015-0 0.039 0.007 0.054 0.017 0.033 0.021 0.004 0.021-0.045 0zM2.701 24.939c-0.044-0.024-0.043-0.024 0.018-0.019 0.098 0.008 0.1 0.009 0.071 0.027-0.034 0.022-0.036 0.022-0.089-0.008zM2.253 24.752c-0.032-0.015-0.059-0.035-0.059-0.044s0.030 0.001 0.066 0.022c0.044 0.026 0.082 0.035 0.113 0.028 0.035-0.008 0.040-0.006 0.019 0.008-0.035 0.024-0.068 0.021-0.14-0.014zM2.262 24.701c-0.027-0.014-0.050-0.036-0.050-0.048-0-0.013-0.007-0.011-0.017 0.005-0.014 0.021-0.016 0.019-0.014-0.011 0.003-0.036 0.006-0.036 0.071 0.017 0.038 0.030 0.068 0.058 0.068 0.061 0 0.007 0.003 0.008-0.059-0.024zM2.046 24.55c-0.025-0.020-0.055-0.036-0.066-0.036s-0.020-0.008-0.020-0.018c0-0.010 0.025-0.004 0.056 0.014 0.131 0.074 0.134 0.077 0.104 0.077-0.016 0-0.050-0.016-0.075-0.036zM30.403 24.351c0.004-0.007 0.032-0.016 0.061-0.021s0.050-0.002 0.046 0.005c-0.004 0.007-0.032 0.016-0.061 0.021s-0.050 0.002-0.046-0.005zM1.76 24.302c-0.022-0.029-0.022-0.029 0.007-0.007 0.030 0.024 0.040 0.038 0.025 0.038-0.004 0-0.018-0.014-0.032-0.032zM30.611 24.176c0.052-0.068 0.136-0.153 0.17-0.17 0.020-0.010-0.012 0.031-0.072 0.092-0.107 0.109-0.144 0.139-0.098 0.079zM1.492 24.108c-0.012-0.015-0.032-0.027-0.045-0.027-0.042 0-0.172-0.135-0.189-0.195-0.014-0.052-0.013-0.057 0.010-0.038 0.014 0.012 0.026 0.035 0.027 0.051 0.001 0.030 0.077 0.128 0.1 0.128 0.007 0 0.002-0.012-0.010-0.026s-0.017-0.034-0.011-0.044c0.014-0.023-0.089-0.141-0.135-0.155-0.022-0.007-0.035-0.027-0.035-0.055 0-0.057-0.027-0.057-0.032 0-0.002 0.026 0.009 0.052 0.028 0.063 0.017 0.010 0.023 0.018 0.012 0.019-0.027 0.001-0.062-0.038-0.062-0.068 0-0.014-0.020-0.041-0.045-0.061s-0.045-0.049-0.045-0.066c0-0.017-0.022-0.056-0.050-0.086-0.105-0.117-0.135-0.171-0.124-0.223 0.008-0.042 0.005-0.049-0.021-0.042-0.049 0.013-0.133-0.105-0.092-0.13 0.010-0.006 0.003-0.039-0.017-0.078-0.023-0.045-0.029-0.076-0.018-0.094 0.009-0.014 0.017-0.018 0.018-0.008 0.008 0.078 0.012 0.101 0.023 0.111 0.007 0.007 0.012 0 0.013-0.014s0.028 0.027 0.062 0.092c0.040 0.076 0.057 0.132 0.051 0.159s0.003 0.056 0.026 0.081c0.020 0.022 0.041 0.054 0.047 0.071s0.020 0.032 0.030 0.032c0.010 0 0.006-0.021-0.011-0.046s-0.025-0.051-0.019-0.057c0.013-0.013 0.055 0.083 0.051 0.113-0.002 0.011 0.009 0.030 0.024 0.043s0.027 0.016 0.027 0.009c0-0.008 0.016 0.001 0.036 0.019s0.036 0.043 0.036 0.056c0 0.013 0.016 0.032 0.035 0.042s0.040 0.035 0.047 0.056c0.006 0.020 0.048 0.070 0.091 0.11 0.050 0.046 0.080 0.089 0.080 0.115 0 0.025 0.014 0.046 0.033 0.052 0.046 0.015 0.118 0.094 0.096 0.107-0.010 0.006-0.027-0.001-0.040-0.016zM1.486 24.072c-0.050-0.044-0.097-0.061-0.076-0.026 0.006 0.010 0.022 0.018 0.035 0.018s0.034 0.012 0.046 0.027c0.012 0.015 0.028 0.027 0.034 0.026s-0.011-0.021-0.039-0.045zM1.141 23.679c-0.018-0.013-0.028-0.033-0.022-0.043s0.001-0.027-0.012-0.038c-0.018-0.015-0.023-0.010-0.022 0.020 0.001 0.053 0.023 0.085 0.059 0.085 0.025 0 0.025-0.003-0.004-0.024zM0.837 23.173l-0.041-0.085-0.003 0.074c-0.002 0.061 0.004 0.077 0.037 0.089 0.022 0.008 0.042 0.013 0.044 0.011s-0.014-0.042-0.037-0.089zM31.042 23.731c0-0.031 0.039-0.1 0.057-0.1s0.017 0.005 0 0.022c-0.012 0.012-0.022 0.036-0.022 0.054s-0.008 0.032-0.018 0.032c-0.010 0-0.018-0.004-0.018-0.008zM31.205 23.491c0-0.010 0.012-0.028 0.027-0.041s0.028-0.036 0.028-0.052c0.001-0.018 0.005-0.021 0.010-0.007 0.005 0.012-0.008 0.044-0.028 0.070s-0.038 0.039-0.038 0.029zM31.349 23.235c0-0.009 0.008-0.022 0.018-0.028s0.013 0.001 0.007 0.017c-0.012 0.031-0.025 0.037-0.025 0.011zM31.703 22.431c-0.006-0.016-0.011-0.039-0.010-0.050s0.009-0.002 0.018 0.022c0.009 0.024 0.014 0.046 0.010 0.050s-0.012-0.006-0.018-0.022zM0.324 21.511c-0.026-0.029-0.029-0.233-0.003-0.287 0.012-0.025 0.014-0.005 0.008 0.068-0.005 0.060-0.001 0.12 0.010 0.141s0.017 0.051 0.014 0.070c-0.005 0.028-0.009 0.029-0.028 0.009zM6.27 20.364c1.532-0.007 4.376-0.020 6.319-0.029 2.169-0.010 4.885-0.010 7.032 0 1.924 0.009 4.889 0.022 6.59 0.029 1.849 0.007-2.099 0.012-9.817 0.012-7.416 0-11.724-0.005-10.124-0.012zM11.246 18.277c-1.859-0.006-3.39-0.016-3.401-0.023s-1.070-0.015-2.353-0.018c-1.283-0.002-2.134-0.009-1.891-0.014s3.154-0.003 6.469 0.006c3.315 0.008 8.727 0.008 12.026 0s6.31-0.011 6.692-0.006c0.384 0.005-0.252 0.011-1.424 0.013-1.165 0.002-2.638 0.012-3.272 0.022-1.464 0.022-8.439 0.033-12.846 0.020zM31.13 18.225c-0.026-0.030-0.073-0.034-0.494-0.045-0.256-0.007-0.916-0.011-1.468-0.009l-1.002 0.003 1.402 0.012c0.771 0.007 1.408 0.019 1.415 0.026s-0.251 0.009-0.573 0.002c-0.651-0.013-27.259-0.017-28.46-0.004-0.417 0.004-0.737 0.004-0.712-0s0.658-0.016 1.406-0.024l1.361-0.016-1.442 0.008c-0.793 0.004-1.483 0.013-1.533 0.019s-0.084 0.005-0.077-0.003c0.007-0.008 0.121-0.020 0.252-0.028l0.239-0.014-0.243 0.006c-0.134 0.003-0.264 0.011-0.288 0.017s-0.017-0 0.018-0.014l0.063-0.024-0.063-0.012c-0.035-0.006-0.087-0.004-0.117 0.006-0.048 0.015-0.044 0.016 0.027 0.009 0.059-0.006 0.071-0.004 0.045 0.008-0.067 0.031-0.114 0.021-0.152-0.034-0.027-0.038-0.032-0.056-0.016-0.066 0.014-0.009 0.016-0.005 0.007 0.011s-0.008 0.019 0.009 0.009 0.019-0.008 0.009 0.009-0.008 0.019 0.006 0.011c0.012-0.007 0.018-0.003 0.015 0.011s-0.002 0.017 0.002 0.010 0.017-0.008 0.029-0.002c0.012 0.006-0.007-0.018-0.042-0.055s-0.087-0.073-0.116-0.080c-0.036-0.009-0.054-0.026-0.056-0.051-0.001-0.020-0.036-0.072-0.077-0.115s-0.078-0.094-0.082-0.115c-0.004-0.021-0.006-0.016-0.004 0.012s-0.004 0.050-0.014 0.050c-0.010 0-0.013-0.036-0.008-0.084 0.006-0.051 0.003-0.074-0.006-0.059-0.022 0.035-0.020 0.138 0.003 0.152 0.011 0.006 0.027 0.031 0.036 0.055s0.025 0.043 0.034 0.043c0.012 0 0.012-0.017 0-0.050l-0.018-0.050 0.035 0.045c0.026 0.033 0.030 0.049 0.014 0.060-0.014 0.010-0.011 0.012 0.010 0.006 0.035-0.011 0.059 0.017 0.059 0.069 0 0.025 0.017 0.039 0.059 0.047 0.084 0.017 0.094 0.035 0.012 0.022-0.049-0.008-0.065-0.005-0.055 0.010 0.007 0.011 0.035 0.021 0.061 0.021 0.038 0 0.043 0.004 0.021 0.018-0.015 0.010-0.032 0.018-0.039 0.018-0.027 0.001-0.123-0.113-0.123-0.146 0-0.021-0.018-0.042-0.045-0.052s-0.045-0.031-0.045-0.054c0-0.020-0.008-0.037-0.017-0.037-0.042 0-0.054-0.069-0.028-0.155 0.016-0.052 0.020-0.094 0.010-0.106-0.009-0.011-0.019-0.064-0.022-0.118l-0.006-0.099-0.009 0.119c-0.007 0.098-0.004 0.118 0.017 0.11 0.019-0.007 0.022-0.001 0.014 0.022-0.007 0.017-0.012 0.036-0.012 0.040s-0.014-0.005-0.031-0.022c-0.057-0.057-0.080-0.44-0.030-0.491 0.028-0.028 0.029-0.025 0.017 0.033-0.017 0.084-0.019 0.129-0.011 0.288l0.006 0.135 0.015-0.171c0.008-0.094 0.011-0.252 0.008-0.352l-0.007-0.18 0.023 0.198c0.029 0.248 0.035 0.135 0.008-0.156-0.023-0.249-0.011-0.306 0.017-0.084l0.019 0.15-0.008-0.138c-0.004-0.076-0.011-0.185-0.016-0.243l-0.008-0.106 0.051 0.252-0.009-0.108c-0.005-0.059-0.012-0.149-0.017-0.198l-0.008-0.090 0.026 0.108c0.024 0.099 0.025 0.101 0.018 0.027-0.004-0.045-0.011-0.118-0.017-0.162l-0.009-0.081 0.052 0.18-0.009-0.081c-0.005-0.045-0.013-0.11-0.017-0.144-0.007-0.057-0.006-0.055 0.018 0.018s0.026 0.076 0.019 0.018c-0.004-0.035-0.012-0.091-0.017-0.126l-0.010-0.063 0.054 0.144-0.010-0.072c-0.006-0.040-0.014-0.092-0.018-0.117s0.005-0.013 0.019 0.027c0.029 0.078 0.029 0.088-0.001-0.104-0.008-0.054-0.007-0.053 0.018 0.014l0.027 0.072-0.012-0.072c-0.016-0.094-0.016-0.166-0-0.243l0.013-0.063-0.054 0.126 0.011-0.063c0.027-0.15 0.027-0.155-0.002-0.090-0.024 0.056-0.026 0.057-0.017 0.011 0.006-0.028 0.014-0.077 0.018-0.108 0.007-0.051 0.005-0.049-0.019 0.016l-0.027 0.072 0.011-0.072c0.025-0.173 0.025-0.18-0.001-0.099-0.024 0.073-0.026 0.075-0.018 0.018 0.005-0.035 0.012-0.1 0.017-0.144l0.009-0.081-0.026 0.090c-0.025 0.085-0.026 0.086-0.018 0.018 0.005-0.040 0.012-0.109 0.017-0.153 0.008-0.081 0.008-0.081-0.018 0.018l-0.026 0.099 0.008-0.081c0.004-0.045 0.012-0.126 0.017-0.18l0.009-0.099-0.051 0.234 0.009-0.108c0.005-0.059 0.012-0.157 0.017-0.216l0.007-0.108-0.051 0.27 0.008-0.117c0.005-0.064 0.012-0.186 0.016-0.27l0.008-0.153-0.043 0.343-0.003-0.352c-0.003-0.319 0-0.357 0.032-0.408 0.033-0.054 0.034-0.059 0.003-0.142-0.031-0.085-0.031-0.086 0.009-0.113 0.022-0.015 0.041-0.042 0.041-0.060s0.016-0.038 0.036-0.044c0.020-0.006 0.036-0.026 0.036-0.044 0-0.057 0.098-0.145 0.161-0.145 0.043 0 0.061-0.011 0.077-0.046 0.027-0.059 0.082-0.072 0.194-0.045 0.049 0.012 0.1 0.018 0.113 0.014s-0.013-0.013-0.056-0.020c-0.128-0.021-0.077-0.027 0.088-0.011 0.084 0.008 0.336 0.014 0.559 0.013l0.406-0.002-0.51-0.012c-0.28-0.007-0.516-0.018-0.523-0.026s0.052-0.008 0.131-0.002c0.23 0.018 27.685 0.031 28.899 0.014 0.999-0.014 1.099-0.018 1.114-0.046 0.024-0.043 0.068-0.038 0.086 0.010 0.019 0.050 0.017 0.052-0.066 0.070l-0.068 0.015 0.072-0.007c0.040-0.004 0.088-0.012 0.108-0.019 0.026-0.009 0.023-0.004-0.009 0.017l-0.045 0.029 0.045-0.012c0.025-0.007 0.057-0.016 0.072-0.020s0.007 0.005-0.018 0.021c-0.038 0.025-0.039 0.027-0.007 0.019 0.021-0.006 0.057-0.002 0.081 0.007s0.031 0.018 0.016 0.019c-0.033 0.002 0.045 0.073 0.080 0.073 0.012 0 0.031 0.020 0.043 0.045s0.028 0.045 0.038 0.045c0.009 0 0.030 0.013 0.045 0.028s0.028 0.019 0.028 0.008c0-0.011-0.013-0.025-0.029-0.031-0.023-0.009-0.024-0.014-0.005-0.028 0.016-0.011 0.011-0.013-0.017-0.005-0.022 0.006-0.040 0.005-0.040-0.003 0-0.024 0.035-0.071 0.035-0.048 0 0.011 0.025 0.031 0.055 0.043 0.069 0.029 0.097 0.078 0.072 0.125-0.023 0.044-0.024 0.061-0.001 0.046 0.011-0.007 0.013 0.002 0.006 0.020-0.008 0.021-0.005 0.027 0.009 0.018s0.017-0.003 0.009 0.018c-0.008 0.021-0.005 0.027 0.009 0.018s0.017-0.003 0.009 0.018c-0.008 0.021-0.005 0.027 0.009 0.018 0.016-0.010 0.017-0.001 0.004 0.033-0.011 0.028-0.011 0.062-0.001 0.087 0.009 0.022 0.017 0.031 0.017 0.020s0.006-0.036 0.012-0.054c0.009-0.027 0.007-0.028-0.009-0.006-0.023 0.032-0.026 0.002-0.004-0.034 0.011-0.018 0.021-0.008 0.037 0.039 0.012 0.035 0.033 0.068 0.047 0.074 0.034 0.013 0.033 0.056-0.003 0.111-0.022 0.034-0.027 0.078-0.022 0.189 0.004 0.080 0.016 0.151 0.027 0.158 0.042 0.027 0.046 0.091 0.008 0.129-0.042 0.042-0.048 0.11-0.014 0.165 0.020 0.033 0.017 0.041-0.018 0.065-0.042 0.028-0.054 0.085-0.023 0.104 0.029 0.018 0.021 0.081-0.011 0.081-0.016 0-0.033 0.018-0.039 0.040-0.009 0.036-0.013 0.034-0.035-0.023-0.019-0.050-0.022-0.052-0.015-0.013 0.005 0.027 0.013 0.072 0.018 0.099 0.008 0.042 0.005 0.040-0.018-0.014-0.027-0.062-0.027-0.062-0.019-0.009 0.005 0.030 0.013 0.074 0.019 0.099 0.009 0.037 0.006 0.036-0.014-0.009l-0.025-0.054-0.012 0.048c-0.007 0.026-0.004 0.067 0.006 0.090 0.015 0.036 0.017 0.033 0.009-0.021s-0.007-0.057 0.009-0.021c0.010 0.023 0.013 0.064 0.006 0.090l-0.012 0.048-0.025-0.054c-0.023-0.051-0.024-0.052-0.015-0.006 0.005 0.026 0.014 0.063 0.020 0.081 0.006 0.020-0.001 0.015-0.019-0.012l-0.029-0.045 0.012 0.045c0.007 0.025 0.016 0.057 0.020 0.072s-0.005 0.007-0.021-0.018l-0.029-0.045 0.012 0.045c0.007 0.025 0.016 0.057 0.020 0.072s-0.005 0.007-0.021-0.018l-0.029-0.045 0.012 0.045c0.007 0.025 0.016 0.057 0.020 0.072s-0.005 0.007-0.020-0.018c-0.032-0.052-0.037-0.041-0.012 0.025 0.021 0.055-0.012 0.174-0.037 0.134-0.008-0.013-0.015-0.032-0.015-0.042s0.008-0.006 0.017 0.009c0.015 0.023 0.017 0.023 0.018-0.003 0-0.017-0.007-0.035-0.016-0.040-0.031-0.019-0.037 0.043-0.011 0.116 0.018 0.051 0.021 0.086 0.009 0.117-0.020 0.053-0.004 0.116 0.020 0.078 0.008-0.013 0.015-0.032 0.015-0.042s-0.008-0.006-0.017 0.009c-0.010 0.015-0.017 0.019-0.017 0.009s0.007-0.029 0.015-0.042c0.025-0.039 0.041 0.025 0.020 0.079-0.025 0.066-0.020 0.078 0.011 0.026l0.027-0.045-0.012 0.045c-0.007 0.025-0.016 0.057-0.020 0.072s0.005 0.007 0.021-0.018l0.029-0.045-0.012 0.045c-0.007 0.025-0.016 0.057-0.020 0.072s0.005 0.007 0.021-0.018l0.029-0.045-0.012 0.045c-0.007 0.025-0.016 0.057-0.020 0.072s0.005 0.007 0.020-0.018c0.032-0.052 0.037-0.041 0.011 0.027-0.010 0.026-0.013 0.069-0.006 0.096l0.012 0.048 0.025-0.054c0.026-0.057 0.026-0.056-0.005 0.081-0.008 0.038-0.006 0.036 0.015-0.009l0.025-0.054 0.012 0.047c0.006 0.026 0.004 0.074-0.006 0.108-0.027 0.093-0.018 0.126 0.010 0.044 0.022-0.063 0.024-0.065 0.017-0.016-0.004 0.031-0.012 0.080-0.018 0.108-0.009 0.044-0.007 0.046 0.008 0.016 0.014-0.028 0.016-0.015 0.010 0.054-0.008 0.086-0.007 0.087 0.011 0.027 0.010-0.035 0.028-0.069 0.040-0.077 0.015-0.010 0.012-0.019-0.011-0.032-0.042-0.025-0.040-0.052 0.003-0.040 0.048 0.012 0.060 0.053 0.025 0.087-0.030 0.030-0.061 0.136-0.058 0.198 0.001 0.024 0.007 0.018 0.017-0.018 0.011-0.038 0.013-0.016 0.008 0.072l-0.007 0.126 0.021-0.090c0.012-0.050 0.029-0.101 0.038-0.115 0.011-0.017 0.006-0.030-0.014-0.041-0.044-0.024-0.037-0.056 0.006-0.033 0.040 0.021 0.047 0.072 0.015 0.104-0.014 0.014-0.021 0.134-0.023 0.379-0.001 0.24 0.004 0.352 0.016 0.339 0.020-0.021 0.023-0.543 0.003-0.563-0.007-0.007-0.012-0.023-0.012-0.036 0-0.017 0.010-0.016 0.036 0.007 0.038 0.033 0.048 0.103 0.018 0.122-0.026 0.016-0.023 0.362 0.004 0.405 0.019 0.030 0.015 0.041-0.026 0.079l-0.048 0.044-0.038-0.096 0.009 0.048c0.005 0.026 0.014 0.063 0.019 0.081s-0.002 0.013-0.017-0.012c-0.032-0.052-0.037-0.041-0.011 0.027 0.014 0.037 0.010 0.063-0.018 0.118-0.020 0.039-0.036 0.090-0.036 0.115 0 0.068-0.045 0.104-0.103 0.082-0.063-0.024-0.104 0.012-0.081 0.073l0.016 0.042 0.010-0.039c0.006-0.025 0.003-0.035-0.008-0.028-0.010 0.006-0.015 0.001-0.011-0.012s0.019-0.027 0.032-0.032c0.014-0.005 0.019 0 0.011 0.012s-0.002 0.018 0.011 0.014c0.013-0.003 0.017-0.002 0.009 0.002s-0.026 0.035-0.040 0.069c-0.017 0.040-0.038 0.061-0.060 0.061-0.019 0-0.045 0.012-0.057 0.027s-0.042 0.027-0.066 0.027c-0.066 0-0.169 0.049-0.169 0.080 0 0.038-0.058 0.035-0.092-0.005zM31.263 18.167c0.015-0 0.014-0.006-0.005-0.018-0.015-0.010-0.043-0.017-0.063-0.016-0.030 0.001-0.028 0.004 0.009 0.016 0.026 0.008-0.049 0.012-0.171 0.009-0.184-0.004-0.195-0.003-0.072 0.008 0.148 0.013 0.207 0.029 0.207 0.058 0 0.009 0.016-0 0.036-0.020s0.046-0.036 0.059-0.036zM5.67 18.172c-0.275-0.003-0.725-0.003-1.001 0s-0.050 0.005 0.5 0.005c0.55 0 0.776-0.002 0.5-0.005zM27.883 18.173c-0.037-0.004-0.098-0.004-0.135 0s-0.007 0.007 0.068 0.007c0.074 0 0.105-0.003 0.068-0.007zM31.445 18.102c0.008-0.013 0.029-0.024 0.047-0.024 0.041 0 0.056-0.015 0.045-0.045-0.010-0.026-0.073-0.016-0.115 0.018-0.015 0.012-0.039 0.027-0.054 0.032-0.023 0.008-0.022 0.010 0.002 0.011 0.016 0.001 0.039-0.011 0.052-0.026s0.044-0.026 0.070-0.025c0.037 0.002 0.040 0.004 0.011 0.011-0.020 0.005-0.050 0.021-0.067 0.036-0.019 0.017-0.050 0.024-0.080 0.018-0.061-0.012-0.11 0.003-0.077 0.024 0.032 0.020 0.149-0.002 0.166-0.031zM0.554 17.979c-0.012-0.015-0.018-0.039-0.012-0.053s0.002-0.032-0.007-0.037c-0.025-0.016-0.021 0.070 0.004 0.096 0.031 0.031 0.041 0.027 0.015-0.005zM31.705 17.863c-0.004-0.016 0.013-0.067 0.036-0.115 0.027-0.054 0.037-0.096 0.028-0.113-0.011-0.020-0.028 0-0.066 0.077-0.057 0.115-0.088 0.209-0.066 0.195 0.008-0.005 0.020-0.035 0.026-0.066s0.015-0.054 0.019-0.049c0.004 0.004 0.001 0.038-0.007 0.076-0.013 0.058-0.012 0.065 0.011 0.046 0.014-0.012 0.023-0.035 0.020-0.050zM31.693 17.78c0-0.010 0.016-0.046 0.035-0.081s0.035-0.055 0.035-0.045c0 0.010-0.016 0.046-0.035 0.081s-0.035 0.055-0.035 0.045zM31.812 17.379c-0.005-0.017-0.008-0.003-0.008 0.032s0.004 0.049 0.008 0.032c0.005-0.017 0.005-0.046 0-0.063zM31.813 17.037c-0.004-0.027-0.008-0.009-0.008 0.040s0.003 0.072 0.008 0.050 0.004-0.063 0-0.090zM31.725 16.347c0-0.017-0.006-0.014-0.015 0.009-0.009 0.020-0.015 0.048-0.015 0.063 0 0.017 0.006 0.014 0.015-0.009 0.009-0.020 0.015-0.048 0.015-0.063zM0.528 15.778c0-0.075-0.004-0.090-0.015-0.059-0.013 0.034-0.004 0.158 0.011 0.158 0.002 0 0.004-0.045 0.004-0.1zM31.547 15.797c0-0.010-0.008-0.006-0.017 0.009s-0.017 0.035-0.017 0.045c0 0.010 0.008 0.006 0.017-0.009s0.017-0.035 0.017-0.045zM31.515 15.723c-0.012-0.021-0.016-0.014-0.016 0.028s0.004 0.050 0.016 0.028c0.009-0.016 0.009-0.040 0-0.057zM31.568 15.577c-0.021-0.037-0.026-0.025-0.009 0.021 0.006 0.016 0.015 0.025 0.020 0.021s-0-0.023-0.011-0.041zM31.8 14.962c-0.026-0.009-0.023-0.099 0.006-0.137 0.015-0.021 0.021-0.064 0.016-0.117-0.006-0.064-0-0.092 0.024-0.116 0.030-0.030 0.030-0.037 0.002-0.116-0.039-0.11-0.040-0.313-0.001-0.373 0.027-0.041 0.026-0.047-0.009-0.092-0.021-0.026-0.038-0.041-0.038-0.032s-0.004 0.036-0.009 0.061c-0.006 0.030-0.005 0.035 0.005 0.014 0.008-0.017 0.014 0.101 0.015 0.261 0 0.165-0.005 0.269-0.013 0.238-0.009-0.035-0.010-0.020-0.004 0.042 0.005 0.053 0.003 0.134-0.004 0.18-0.011 0.074-0.015 0.078-0.027 0.039-0.008-0.028-0.011-0.007-0.006 0.054 0.005 0.072 0.003 0.087-0.008 0.054-0.019-0.054-0.024-0.026-0.009 0.050 0.010 0.052 0.013 0.053 0.046 0.025 0.019-0.016 0.026-0.032 0.016-0.036zM31.776 14.675c-0.005-0.018-0.009-0.008-0.009 0.022s0.003 0.044 0.008 0.032 0.005-0.037 0.001-0.054zM0.351 14.179c-0.004-0.032-0.007-0.010-0.007 0.049s0.003 0.086 0.007 0.059c0.004-0.027 0.004-0.076 0-0.108zM0.397 13.841c-0.006-0.042-0.002-0.072 0.008-0.072s0.015 0.022 0.012 0.050c-0.004 0.030-0.002 0.035 0.004 0.014 0.006-0.020 0.042-0.074 0.080-0.12s0.070-0.097 0.070-0.111c0-0.015 0.014-0.031 0.032-0.035 0.023-0.006 0.020-0.009-0.010-0.010-0.056-0.003-0.032-0.038 0.026-0.038 0.028 0 0.040 0.007 0.033 0.020-0.021 0.034 0.051-0.012 0.099-0.063 0.024-0.026 0.056-0.047 0.072-0.048 0.019-0.001 0.021-0.004 0.005-0.011-0.013-0.005-0.036 0.002-0.052 0.015-0.025 0.021-0.028 0.020-0.020-0.003 0.007-0.020 0.033-0.026 0.098-0.024 0.063 0.002 0.078-0.001 0.052-0.012-0.073-0.032-0.123-0.019-0.183 0.046-0.042 0.046-0.069 0.061-0.093 0.054-0.046-0.015-0.129 0.068-0.117 0.116 0.007 0.026-0.003 0.040-0.038 0.053-0.026 0.010-0.047 0.028-0.047 0.040s-0.016 0.039-0.036 0.060c-0.031 0.033-0.033 0.047-0.016 0.096 0.027 0.077 0.033 0.072 0.021-0.015zM0.44 13.735c0.005-0.020 0.028-0.049 0.052-0.064s0.045-0.050 0.049-0.077c0.007-0.047 0.008-0.047 0.009-0.005 0.001 0.028-0.022 0.072-0.059 0.114-0.042 0.048-0.058 0.058-0.051 0.032zM0.664 13.511c0.004-0.003 0.028-0.021 0.053-0.041l0.045-0.036-0.034 0.041c-0.019 0.022-0.043 0.041-0.053 0.041s-0.015-0.002-0.011-0.005zM31.713 13.811c-0.021-0.042-0.032-0.091-0.027-0.124 0.006-0.039-0.001-0.062-0.025-0.080-0.028-0.022-0.030-0.022-0.011 0 0.012 0.014 0.022 0.046 0.022 0.071-0 0.036-0.004 0.040-0.018 0.019-0.034-0.052-0.017 0 0.031 0.098 0.027 0.054 0.052 0.096 0.055 0.092s-0.009-0.038-0.028-0.076zM31.092 13.356c0.094-0.010 0.109-0.016 0.095-0.038s-0.020-0.023-0.033-0.002c-0.012 0.019-0.105 0.028-0.392 0.038l-0.376 0.013 0.297 0.001c0.164 0 0.348-0.004 0.41-0.011zM31.657 16.22c-0-0.015 0.007-0.039 0.017-0.054 0.021-0.033 0.021-0.004 0 0.045-0.010 0.024-0.016 0.027-0.017 0.009zM0.304 14.493c-0.001-0.023-0.015-0.061-0.031-0.085-0.021-0.032-0.026-0.068-0.018-0.13 0.006-0.047 0.017-0.139 0.024-0.203 0.011-0.097 0.020-0.117 0.046-0.115 0.025 0.002 0.030-0.007 0.022-0.036-0.009-0.034-0.008-0.035 0.009-0.007 0.016 0.025 0.012 0.043-0.015 0.081-0.045 0.064-0.068 0.283-0.039 0.378 0.011 0.038 0.017 0.089 0.012 0.114-0.008 0.043-0.008 0.043-0.011 0.003zM0.327 13.993c0.006-0.016 0.003-0.023-0.007-0.017s-0.018 0.019-0.018 0.028c0 0.026 0.013 0.020 0.025-0.011zM31.858 14.273c0-0.035 0.004-0.049 0.008-0.032s0.005 0.046 0 0.063c-0.005 0.017-0.008 0.003-0.008-0.032zM31.53 13.532c-0.001-0.018-0.023-0.034-0.056-0.040-0.044-0.009-0.053-0.018-0.045-0.044 0.007-0.023-0.002-0.039-0.030-0.053s-0.032-0.020-0.012-0.021c0.016-0.001 0.039 0.011 0.052 0.026s0.037 0.027 0.054 0.027c0.050 0 0.075 0.043 0.055 0.092-0.011 0.027-0.018 0.032-0.018 0.014zM31.539 13.463c-0.007-0.011-0.032-0.019-0.057-0.019s-0.040 0.008-0.034 0.017c0.006 0.009 0.022 0.013 0.035 0.008s0.030-0 0.037 0.011c0.007 0.011 0.017 0.016 0.022 0.011s0.004-0.018-0.003-0.028zM2.402 13.318c-0.506-0.005 5.669-0.009 13.721-0.009s14.279 0.005 13.838 0.011c-0.957 0.013-26.235 0.012-27.558-0.002zM4.029 13.287c0.032-0.004 0.085-0.004 0.117 0s0.006 0.007-0.059 0.007c-0.064 0-0.091-0.003-0.059-0.007zM7.919 13.276c1.512-0.023 14.485-0.024 16.551-0 1.248 0.014-0.539 0.018-8.050 0.018-7.127 0-9.353-0.005-8.501-0.018zM27.991 13.287c0.032-0.004 0.089-0.004 0.126-0s0.011 0.007-0.058 0.007-0.1-0.003-0.068-0.007zM9.253 11.207c-0.892-0.009-1.724-0.018-1.848-0.021s3.787-0.006 8.69-0.006c4.904 0 8.587 0.006 8.186 0.012-1.185 0.020-13.261 0.032-15.028 0.015zM31.137 11.169c-0.042-0.042-4.733-0.054-17.132-0.043-6.788 0.006-12.479 0.015-12.648 0.021s-0.301 0.005-0.294-0.003c0.007-0.007 0.437-0.020 0.956-0.027l0.943-0.014-0.974 0.006c-0.535 0.003-0.994 0.012-1.019 0.019s-0.039 0.006-0.031-0.002c0.007-0.008 0.068-0.021 0.135-0.028l0.122-0.014-0.126 0.006c-0.069 0.003-0.151 0.011-0.18 0.016-0.048 0.009-0.047 0.008 0.006-0.009 0.086-0.027 0.061-0.038-0.042-0.019-0.082 0.015-0.089 0.014-0.129-0.034-0.030-0.035-0.054-0.048-0.079-0.041-0.047 0.012-0.143-0.076-0.143-0.132 0-0.025-0.014-0.045-0.037-0.052-0.020-0.006-0.045-0.029-0.054-0.051s-0.028-0.055-0.042-0.075c-0.021-0.030-0.022-0.050-0.003-0.121 0.012-0.047 0.016-0.091 0.008-0.099s-0.017-0.055-0.021-0.104c-0.007-0.088-0.007-0.088-0.006 0.012 0.001 0.056-0.003 0.099-0.010 0.095s-0.010-0.159-0.009-0.344c0.001-0.252-0.004-0.339-0.020-0.344-0.037-0.012-0.026-0.089 0.014-0.1 0.042-0.011 0.049 0.019 0.009 0.035-0.015 0.006-0.021 0.019-0.014 0.031s0.023 0.114 0.035 0.228l0.021 0.207-0.009-0.186c-0.010-0.209 0.025-0.514 0.050-0.436 0.010 0.031 0.012 0.020 0.006-0.036-0.005-0.045 0.003-0.122 0.017-0.171s0.026-0.075 0.027-0.056c0.001 0.019 0.006 0.030 0.012 0.024s0.002-0.041-0.009-0.079c-0.010-0.037-0.014-0.089-0.007-0.114l0.012-0.046 0.025 0.054c0.023 0.051 0.024 0.052 0.015 0.006-0.005-0.026-0.014-0.063-0.020-0.081-0.006-0.020 0.001-0.015 0.019 0.012l0.029 0.045-0.012-0.045c-0.007-0.025-0.016-0.057-0.020-0.072s0.005-0.007 0.022 0.018c0.021 0.033 0.026 0.035 0.018 0.009-0.007-0.020-0.015-0.086-0.018-0.146-0.006-0.107-0.003-0.114 0.093-0.261 0.055-0.083 0.108-0.149 0.118-0.146s0.014-0.008 0.008-0.023c-0.006-0.017-0.004-0.024 0.007-0.018s0.018 0.001 0.018-0.011 0.004-0.018 0.010-0.012c0.005 0.005-0 0.031-0.012 0.058-0.016 0.036-0.026 0.042-0.038 0.025-0.010-0.015-0.012-0.007-0.005 0.022 0.009 0.037 0.007 0.040-0.010 0.018-0.018-0.023-0.019-0.022-0.010 0.005 0.006 0.019 0.003 0.028-0.007 0.022s-0.013 0.003-0.007 0.022c0.009 0.028 0.007 0.029-0.011 0.005s-0.020-0.022-0.011 0.005c0.006 0.019 0.003 0.028-0.007 0.022s-0.013 0.003-0.007 0.022c0.008 0.024 0.006 0.026-0.007 0.008-0.022-0.031-0.044 0.001-0.029 0.042 0.009 0.024 0.023 0.013 0.064-0.048 0.070-0.103 0.148-0.256 0.124-0.241-0.026 0.016-0.023-0.008 0.007-0.062 0.014-0.025 0.036-0.045 0.049-0.045s0.025-0.020 0.025-0.045c0.002-0.077 0.007-0.093 0.025-0.082 0.019 0.012 0.025 0.006 0.135-0.144 0.044-0.059 0.099-0.132 0.122-0.162s0.032-0.047 0.019-0.040c-0.030 0.018-0.030-0.045-0.001-0.075 0.014-0.014 0.015-0.022 0.002-0.022-0.029 0-0.065 0.050-0.051 0.071 0.006 0.010-0.009 0.028-0.034 0.040-0.044 0.020-0.053 0.036-0.048 0.081 0.001 0.012-0.006 0.026-0.016 0.033-0.043 0.026-0.017-0.081 0.027-0.11 0.025-0.016 0.045-0.045 0.045-0.063 0-0.043 0.063-0.078 0.102-0.056 0.020 0.011 0.023 0.020 0.009 0.029-0.011 0.007-0.020 0.020-0.020 0.029s0.041-0.023 0.090-0.071c0.050-0.048 0.090-0.098 0.090-0.112s0.034-0.055 0.077-0.094c0.042-0.038 0.066-0.064 0.054-0.058s-0.023 0.001-0.023-0.011c0-0.013-0.014-0.009-0.036 0.011-0.028 0.025-0.031 0.037-0.014 0.048 0.014 0.009 0.004 0.011-0.025 0.004s-0.053-0.002-0.061 0.010c-0.009 0.015-0.001 0.018 0.030 0.010 0.036-0.010 0.038-0.009 0.011 0.008-0.017 0.011-0.032 0.035-0.032 0.053 0 0.039-0.066 0.128-0.095 0.128-0.011 0-0.003-0.018 0.017-0.041s0.043-0.065 0.050-0.095l0.013-0.054-0.047 0.044c-0.026 0.024-0.047 0.062-0.047 0.085s-0.008 0.046-0.018 0.052c-0.010 0.006-0.018-0.007-0.018-0.030 0-0.043 0.135-0.196 0.174-0.196 0.012 0 0.041-0.025 0.064-0.055 0.109-0.143 0.183-0.215 0.224-0.215 0.023 0 0.049-0.013 0.058-0.029 0.015-0.027 0.017-0.026 0.028 0.001 0.007 0.017 0.004 0.025-0.006 0.019s-0.013 0.001-0.008 0.015c0.013 0.033-0.098 0.12-0.152 0.12-0.021 0-0.039 0.010-0.039 0.023-0 0.018-0.003 0.018-0.015-0-0.011-0.017-0.020-0.012-0.034 0.020-0.015 0.033-0.014 0.043 0.004 0.043 0.014 0 0.019-0.011 0.013-0.027-0.006-0.017-0.003-0.022 0.010-0.015 0.011 0.007 0.025 0.004 0.031-0.006s0.028-0.018 0.048-0.018c0.020 0 0.069-0.032 0.107-0.070 0.063-0.063 0.068-0.075 0.052-0.119-0.022-0.059-0.012-0.077 0.061-0.111 0.101-0.047 0.14-0.073 0.167-0.112 0.020-0.028 0.038-0.035 0.070-0.027 0.035 0.009 0.048 0.002 0.065-0.036 0.030-0.066 0.109-0.102 0.179-0.082 0.030 0.009 0.068 0.011 0.083 0.005 0.026-0.010 0.026-0.013-0-0.032-0.024-0.018-0.014-0.028 0.069-0.069 0.056-0.027 0.111-0.043 0.128-0.036 0.020 0.008 0.026 0.005 0.018-0.009s-0.003-0.017 0.017-0.010c0.042 0.016-0.007 0.045-0.055 0.032-0.030-0.008-0.032-0.006-0.009 0.011s0.018 0.018-0.018 0.009-0.040-0.007-0.018 0.009 0.018 0.018-0.018 0.009-0.040-0.007-0.018 0.009 0.018 0.018-0.018 0.009-0.040-0.007-0.018 0.009 0.018 0.018-0.018 0.009c-0.037-0.009-0.039-0.008-0.015 0.008 0.045 0.028 0.282-0.088 0.241-0.118-0.023-0.017-0.021-0.023 0.019-0.041 0.033-0.015 0.055-0.015 0.076-0.002 0.025 0.015 0.022 0.017-0.015 0.008s-0.040-0.007-0.018 0.009 0.018 0.018-0.018 0.009-0.039-0.007-0.015 0.008c0.022 0.014 0.044 0.013 0.078-0.003 0.042-0.019 0.045-0.024 0.019-0.043-0.027-0.020-0.027-0.022 0-0.032 0.016-0.006 0.043-0.003 0.059 0.008 0.024 0.015 0.021 0.017-0.015 0.008s-0.039-0.007-0.016 0.008c0.021 0.013 0.047 0.013 0.087-0.002 0.042-0.015 0.051-0.024 0.034-0.036-0.013-0.008-0.032-0.015-0.042-0.015s-0.006 0.008 0.009 0.017c0.015 0.010 0.019 0.017 0.009 0.017s-0.029-0.007-0.042-0.015c-0.039-0.025 0.025-0.040 0.079-0.020 0.066 0.025 0.078 0.020 0.026-0.011l-0.045-0.027 0.045 0.012c0.025 0.007 0.057 0.016 0.072 0.020s0.007-0.005-0.018-0.020c-0.052-0.032-0.041-0.037 0.028-0.011 0.057 0.021 0.207-0.014 0.167-0.039-0.013-0.008-0.035-0.015-0.050-0.015-0.024 0-0.024 0.002 0 0.017s0.024 0.017 0 0.017c-0.015 0-0.038-0.007-0.051-0.015-0.039-0.024 0.058-0.042 0.114-0.020 0.069 0.026 0.1 0.021 0.036-0.007l-0.054-0.023 0.047-0.012c0.026-0.006 0.074-0.004 0.108 0.006 0.089 0.025 0.108 0.019 0.035-0.011l-0.063-0.026 0.057 0.008c0.031 0.005 0.080 0.013 0.108 0.018 0.046 0.009 0.045 0.007-0.011-0.017-0.045-0.020-0.050-0.025-0.018-0.019 0.025 0.004 0.078 0.012 0.117 0.018l0.072 0.010-0.081-0.026c-0.045-0.014-0.057-0.022-0.027-0.017s0.22 0.012 0.424 0.015l0.37 0.005-0.316-0.011c-0.174-0.006 1.271-0.010 3.209-0.009l3.525 0.002-3.065-0.013c-3.431-0.015-3.76-0.017-3.728-0.030 0.012-0.005 0.018-0.017 0.012-0.026-0.016-0.026 0.074-0.058 0.126-0.046 0.026 0.006 0.046 0.022 0.046 0.035 0 0.019 0.203 0.026 1.068 0.036 1.389 0.016 21.975 0.016 22.404 0 0.245-0.009 0.327-0.018 0.327-0.035 0-0.013 0.024-0.028 0.053-0.034 0.057-0.013 0.135 0.018 0.118 0.046-0.006 0.010 0.022 0.017 0.066 0.017 0.042 0 0.071 0.006 0.064 0.012s-0.826 0.018-1.82 0.025l-1.807 0.013 1.893-0.002c1.041-0.001 1.812 0.002 1.713 0.008-0.151 0.009-0.134 0.010 0.102 0.009 0.214-0.001 0.278-0.007 0.265-0.023-0.011-0.013-0.042-0.017-0.082-0.011-0.050 0.008-0.070 0.003-0.089-0.023s-0.029-0.029-0.046-0.012c-0.012 0.012-0.033 0.022-0.046 0.022-0.020 0-0.019-0.005 0.002-0.027 0.015-0.015 0.048-0.027 0.073-0.027 0.029 0 0.046 0.010 0.046 0.027 0 0.030 0.064 0.037 0.081 0.009 0.019-0.031 0.066-0.020 0.076 0.018 0.009 0.036 0.059 0.051 0.059 0.018 0-0.035 0.075-0.019 0.085 0.018 0.005 0.020 0.023 0.036 0.039 0.037s0.006 0.012-0.025 0.027c-0.058 0.028-0.059 0.028 0.081-0.002 0.038-0.008 0.037-0.006-0.009 0.015l-0.054 0.025 0.048 0.012c0.026 0.007 0.067 0.004 0.090-0.006 0.036-0.016 0.033-0.017-0.021-0.009s-0.057 0.007-0.021-0.009c0.023-0.010 0.064-0.013 0.090-0.006l0.048 0.012-0.054 0.025c-0.051 0.023-0.052 0.024-0.006 0.015 0.026-0.005 0.063-0.014 0.081-0.020s0.013 0.002-0.012 0.017c-0.053 0.032-0.041 0.037 0.029 0.010 0.059-0.023 0.246 0.029 0.203 0.057-0.036 0.022-0.066 0.019-0.034-0.004 0.021-0.015 0.014-0.017-0.027-0.008-0.040 0.008-0.047 0.006-0.027-0.007 0.024-0.016 0.024-0.018 0-0.018-0.066 0-0.071 0.030-0.008 0.049 0.070 0.021 0.106 0.015 0.157-0.028 0.025-0.022 0.041-0.023 0.077-0.007 0.025 0.011 0.045 0.033 0.045 0.049s0.018 0.035 0.041 0.044c0.029 0.012 0.032 0.017 0.010 0.017-0.067 0.003-0.045 0.035 0.044 0.064 0.052 0.017 0.117 0.051 0.146 0.075s0.078 0.056 0.109 0.071c0.051 0.025 0.053 0.025 0.021-0.001-0.040-0.032-0.025-0.037 0.028-0.009 0.019 0.010 0.030 0.027 0.025 0.036s0.016 0.030 0.049 0.045c0.079 0.037 0.13 0.066 0.17 0.098 0.020 0.016 0.027 0.017 0.019 0.004s-0.004-0.023 0.008-0.023c0.014 0 0.009-0.014-0.011-0.036-0.018-0.020-0.044-0.036-0.057-0.036s-0.029-0.012-0.035-0.027c-0.006-0.015-0.026-0.027-0.045-0.027-0.020 0-0.042-0.019-0.052-0.045-0.015-0.041-0.025-0.045-0.098-0.039-0.045 0.004-0.077-0-0.072-0.009s-0.005-0.011-0.023-0.005c-0.028 0.009-0.029 0.007-0.005-0.011s0.022-0.020-0.005-0.011c-0.022 0.007-0.028 0.004-0.020-0.010 0.008-0.013 0.005-0.016-0.008-0.008s-0.017 0.003-0.010-0.015c0.006-0.015 0.001-0.028-0.010-0.028s-0.016 0.008-0.010 0.017c0.006 0.010-0.012 0.010-0.044-0.002-0.069-0.024-0.069-0.028 0.005-0.026 0.034 0.001 0.078 0.019 0.103 0.042 0.046 0.043 0.055 0.046 0.13 0.041 0.034-0.002 0.057 0.010 0.077 0.041 0.016 0.024 0.043 0.049 0.060 0.056 0.042 0.015 0.1 0.051 0.135 0.083 0.054 0.050 0.076 0.063 0.128 0.081 0.029 0.010 0.056 0.030 0.061 0.045 0.007 0.022 0.004 0.023-0.016 0.005-0.013-0.012-0.038-0.023-0.054-0.023s-0.040-0.012-0.053-0.027c-0.028-0.034-0.052-0.035-0.047-0.002 0.006 0.038 0.050 0.085 0.101 0.106 0.074 0.030 0.089 0.030 0.079-0.002-0.008-0.025-0.006-0.025 0.011 0.002 0.011 0.017 0.039 0.032 0.061 0.032 0.042 0 0.089 0.043 0.143 0.13 0.019 0.031 0.040 0.045 0.058 0.038 0.034-0.013 0.153 0.108 0.153 0.156 0 0.019 0.021 0.048 0.046 0.066 0.117 0.082 0.152 0.119 0.152 0.159 0 0.023 0.013 0.050 0.029 0.059 0.026 0.015 0.026 0.017-0.001 0.028-0.017 0.007-0.025 0.004-0.019-0.006s-0.001-0.013-0.016-0.007c-0.034 0.013-0.072-0.055-0.061-0.111 0.004-0.023 0.001-0.038-0.007-0.033-0.037 0.023-0.013 0.104 0.048 0.16 0.035 0.032 0.063 0.064 0.063 0.072 0 0.020 0.126 0.164 0.144 0.164 0.031 0 0.094 0.101 0.085 0.136-0.005 0.019-0.002 0.031 0.006 0.026 0.019-0.012 0.072 0.062 0.071 0.099-0 0.016-0.012 0.006-0.028-0.022s-0.031-0.050-0.036-0.050c-0.015 0 0.040 0.096 0.096 0.167 0.044 0.055 0.056 0.062 0.065 0.038 0.006-0.016 0.007-0.034 0.002-0.039s-0.009 0.001-0.009 0.014c0 0.017-0.010 0.015-0.035-0.008-0.027-0.025-0.033-0.048-0.026-0.111 0.008-0.073 0.005-0.081-0.038-0.097-0.027-0.010-0.046-0.032-0.046-0.052 0-0.019-0.012-0.039-0.027-0.045s-0.027-0.022-0.027-0.036c0-0.014-0.012-0.036-0.027-0.048s-0.027-0.037-0.027-0.055c0-0.018-0.016-0.038-0.036-0.044s-0.036-0.026-0.036-0.043c0-0.017-0.010-0.041-0.022-0.053-0.017-0.017-0.017-0.022 0-0.022 0.012 0 0.032 0.022 0.044 0.050s0.032 0.056 0.045 0.064c0.013 0.008 0.023 0.030 0.023 0.050s0.008 0.035 0.018 0.035c0.010 0 0.026 0.018 0.036 0.041 0.028 0.064 0.059 0.109 0.103 0.145 0.026 0.022 0.041 0.053 0.041 0.090 0 0.032 0.016 0.073 0.037 0.095 0.030 0.032 0.033 0.048 0.019 0.087-0.011 0.030-0.012 0.063-0.002 0.088 0.013 0.033 0.017 0.034 0.017 0.008 0.001-0.018 0.010-0.027 0.021-0.021s0.018 0.042 0.015 0.078-0.003 0.078-0.001 0.093c0.002 0.024 0.005 0.024 0.020 0 0.023-0.036 0.023-0.071-0.001-0.036-0.018 0.026-0.013-0.019 0.012-0.112 0.005-0.018-0.007-0.038-0.029-0.050-0.028-0.015-0.037-0.014-0.037 0.002 0 0.012-0.004 0.017-0.009 0.012s-0.005-0.022 0.001-0.038c0.009-0.025 0.016-0.024 0.053 0.008s0.041 0.050 0.036 0.133c-0.003 0.053-0.011 0.105-0.016 0.114s-0.005 0.030 0.001 0.047c0.009 0.024 0.015 0.025 0.027 0.006 0.008-0.013 0.015-0.032 0.015-0.042s-0.008-0.006-0.017 0.009c-0.010 0.015-0.017 0.019-0.017 0.009s0.007-0.029 0.015-0.042c0.025-0.039 0.059 0.079 0.038 0.132s0.013 0.171 0.038 0.132c0.022-0.035 0.019-0.065-0.004-0.033-0.015 0.021-0.017 0.014-0.008-0.027 0.008-0.040 0.006-0.047-0.007-0.027-0.022 0.033-0.025 0.001-0.003-0.033 0.025-0.040 0.059 0.079 0.037 0.134-0.025 0.065-0.020 0.078 0.010 0.025s0.035-0.040 0.009 0.027c-0.021 0.056-0.004 0.153 0.020 0.114 0.008-0.013 0.015-0.036 0.015-0.051 0-0.024-0.002-0.024-0.017 0s-0.017 0.024-0.017 0c0-0.015 0.007-0.038 0.015-0.051 0.024-0.039 0.041 0.058 0.020 0.114-0.010 0.026-0.013 0.069-0.006 0.096l0.012 0.048 0.025-0.054c0.021-0.046 0.023-0.047 0.015-0.009-0.030 0.142-0.030 0.139-0 0.081 0.025-0.048 0.027-0.049 0.018-0.009-0.006 0.025-0.014 0.069-0.019 0.099-0.009 0.053-0.008 0.053 0.019-0.009 0.024-0.056 0.026-0.057 0.017-0.011-0.006 0.028-0.014 0.077-0.018 0.108-0.007 0.053-0.007 0.053 0.009 0.011 0.014-0.036 0.016-0.026 0.009 0.045s-0.005 0.079 0.008 0.039c0.009-0.028 0.026-0.063 0.038-0.077 0.018-0.021 0.015-0.031-0.012-0.051-0.048-0.035-0.023-0.051 0.026-0.017 0.040 0.028 0.040 0.028 0.005 0.085-0.019 0.031-0.039 0.094-0.045 0.138-0.008 0.062-0.006 0.070 0.006 0.036 0.012-0.033 0.015-0.014 0.009 0.072l-0.008 0.117 0.022-0.093c0.012-0.051 0.028-0.099 0.035-0.107s0-0.028-0.016-0.046c-0.017-0.018-0.025-0.039-0.018-0.045s0.012-0.002 0.012 0.009c0 0.012 0.012 0.021 0.027 0.021 0.032 0 0.038 0.084 0.006 0.094-0.015 0.005-0.021 0.112-0.023 0.368-0.001 0.241 0.004 0.355 0.016 0.342 0.020-0.021 0.023-0.543 0.003-0.563-0.026-0.026-0.010-0.042 0.024-0.024 0.038 0.020 0.050 0.098 0.018 0.117-0.010 0.006-0.018 0.096-0.018 0.208 0 0.12 0.007 0.197 0.018 0.197 0.032 0 0.019 0.052-0.018 0.072-0.020 0.011-0.036 0.029-0.036 0.041s-0.024 0.073-0.054 0.136c-0.030 0.063-0.054 0.138-0.054 0.166 0 0.060-0.066 0.115-0.115 0.096-0.017-0.006-0.029-0.005-0.027 0.004s0.001 0.032-0 0.052l-0.003 0.036-0.015-0.036c-0.019-0.048 0.012-0.085 0.060-0.071 0.030 0.008 0.033 0.007 0.011-0.008-0.016-0.011-0.019-0.019-0.006-0.019 0.012-0 0.025-0.019 0.029-0.041 0.005-0.028 0.007-0.025 0.004 0.009-0.002 0.027 0.002 0.050 0.010 0.050 0.018 0 0.037-0.054 0.025-0.073-0.005-0.009 0.011-0.056 0.036-0.106s0.041-0.104 0.035-0.122c-0.009-0.027-0.007-0.028 0.010-0.005 0.016 0.021 0.018 0.016 0.009-0.027-0.008-0.041-0.006-0.048 0.008-0.027 0.017 0.024 0.019 0.024 0.019 0 0-0.015-0.007-0.037-0.015-0.050-0.019-0.030-0.059 0.096-0.044 0.136 0.007 0.019 0.004 0.024-0.010 0.015s-0.017-0.003-0.009 0.018 0.005 0.027-0.009 0.018-0.017-0.003-0.009 0.018 0.005 0.027-0.009 0.018-0.017-0.003-0.010 0.016c0.007 0.018 0.002 0.027-0.013 0.023-0.014-0.003-0.033 0.022-0.045 0.057s-0.037 0.070-0.057 0.078-0.045 0.036-0.056 0.059c-0.011 0.024-0.031 0.043-0.046 0.043s-0.037 0.011-0.050 0.024c-0.013 0.013-0.036 0.029-0.051 0.035-0.022 0.009-0.022 0.011 0.003 0.012 0.016 0.001 0.039-0.011 0.052-0.026s0.037-0.027 0.055-0.027c0.018 0 0.036-0.008 0.041-0.018s0.007-0.008 0.005 0.005c-0.003 0.013-0.020 0.026-0.039 0.029s-0.048 0.019-0.065 0.034c-0.018 0.016-0.049 0.023-0.072 0.018s-0.070 0.001-0.104 0.015-0.054 0.024-0.042 0.025c0.012 0.001 0.036 0.006 0.054 0.012 0.027 0.009 0.028 0.007 0.006-0.009-0.032-0.023-0.002-0.027 0.033-0.004 0.040 0.025-0.022 0.039-0.090 0.019-0.033-0.009-0.096-0.016-0.141-0.014l-0.081 0.003 0.090 0.011c0.050 0.006-0.267 0.010-0.703 0.008l-0.793-0.003 0.784 0.015c0.538 0.010 0.786 0.021 0.79 0.034 0.009 0.026 0.041 0.025 0.035-0.001-0.002-0.011 0.005-0.024 0.017-0.028 0.014-0.005 0.018 0.005 0.011 0.029-0.011 0.041-0.058 0.049-0.092 0.016zM0.844 11.049c-0.024-0.004-0.059-0.026-0.078-0.050-0.035-0.044-0.118-0.1-0.096-0.064 0.016 0.025-0.070 0.015-0.103-0.012-0.031-0.026-0.036-0.117-0.006-0.098 0.011 0.007-0.013-0.028-0.054-0.077-0.045-0.054-0.079-0.117-0.087-0.16-0.010-0.052-0.017-0.064-0.029-0.045-0.027 0.043-0.020 0.156 0.010 0.168 0.015 0.006 0.027 0.026 0.027 0.044s0.020 0.043 0.045 0.054c0.028 0.013 0.045 0.035 0.045 0.060 0 0.056 0.051 0.105 0.108 0.105 0.029 0 0.067 0.020 0.097 0.051 0.040 0.041 0.060 0.049 0.107 0.041 0.051-0.009 0.053-0.011 0.014-0.017zM0.729 11.009c-0.028-0.029-0.043-0.053-0.034-0.053 0.017 0 0.060 0.045 0.083 0.086 0.020 0.035 0.006 0.026-0.049-0.032zM0.496 10.799c-0.017-0.005-0.032-0.020-0.032-0.034s-0.016-0.040-0.036-0.057c-0.023-0.020-0.035-0.051-0.033-0.085 0.003-0.052 0.003-0.052 0.010-0.007 0.004 0.026 0.023 0.062 0.042 0.079s0.035 0.040 0.035 0.049c0 0.010 0.014 0.029 0.032 0.042 0.033 0.025 0.032 0.026-0.018 0.013zM0.612 10.901c-0.026-0.010-0.037-0.025-0.029-0.039 0.010-0.017 0.008-0.018-0.010-0.002-0.030 0.028-0.008 0.060 0.041 0.059 0.039-0.001 0.039-0.001-0.002-0.018zM31.812 10.311c-0.005-0.017-0.008-0.003-0.008 0.032s0.004 0.049 0.008 0.032c0.005-0.017 0.005-0.046 0-0.063zM31.812 9.978c-0.004-0.022-0.008-0.004-0.008 0.041s0.004 0.063 0.008 0.041c0.004-0.022 0.004-0.059 0-0.081zM0.386 9.788c-0.005-0.017-0.008-0.003-0.008 0.032s0.004 0.049 0.008 0.032c0.005-0.017 0.005-0.046 0-0.063zM0.404 9.644c-0.005-0.018-0.009-0.008-0.009 0.022s0.003 0.044 0.008 0.032 0.005-0.037 0.001-0.054zM0.44 9.437c-0.005-0.012-0.009-0.002-0.009 0.023s0.004 0.035 0.009 0.023c0.005-0.012 0.005-0.033 0-0.045zM0.458 9.366c-0.006-0.014-0.010-0.010-0.011 0.011-0.001 0.019 0.003 0.030 0.009 0.024s0.007-0.022 0.001-0.035zM0.49 9.199c-0.007-0.026-0.016-0.045-0.020-0.040s-0.002 0.029 0.004 0.056c0.007 0.026 0.016 0.045 0.020 0.040s0.002-0.029-0.004-0.056zM0.562 8.959c-0.007-0.034-0.005-0.042 0.006-0.026 0.024 0.034 0.063-0.13 0.048-0.2l-0.012-0.053-0.030 0.051c-0.020 0.033-0.029 0.085-0.027 0.146 0.004 0.118 0.005 0.131 0.017 0.131 0.005 0 0.004-0.022-0.001-0.050zM0.574 8.846c-0.001-0.035 0.006-0.075 0.016-0.090 0.014-0.021 0.017-0.017 0.016 0.018-0.001 0.025-0.008 0.065-0.016 0.090-0.013 0.041-0.015 0.040-0.016-0.018zM31.565 8.783c0-0.010-0.008-0.006-0.017 0.009s-0.017 0.035-0.017 0.045c0 0.010 0.008 0.006 0.017-0.009s0.017-0.035 0.017-0.045zM31.403 8.371c0-0.004-0.014-0.018-0.032-0.032-0.029-0.022-0.029-0.022-0.007 0.007 0.024 0.030 0.038 0.040 0.038 0.025zM31.189 8.097c-0.021-0.027-0.038-0.043-0.038-0.036 0 0.018 0.062 0.098 0.070 0.091 0.004-0.003-0.011-0.028-0.032-0.055zM30.956 7.71c-0.009-0.064-0.033-0.087-0.032-0.030 0.001 0.035 0.021 0.084 0.035 0.084 0.003 0 0.001-0.024-0.003-0.054zM30.869 7.597c-0.060-0.032-0.169-0.146-0.169-0.177 0-0.035-0.031-0.064-0.080-0.073-0.019-0.004-0.060-0.043-0.091-0.087-0.040-0.057-0.074-0.084-0.115-0.092-0.048-0.010-0.054-0.008-0.037 0.013 0.022 0.026-0 0.034-0.030 0.011-0.010-0.007-0.003 0 0.016 0.018 0.021 0.019 0.054 0.029 0.087 0.025 0.041-0.005 0.051-0 0.044 0.019-0.006 0.016-0.002 0.021 0.011 0.013 0.014-0.009 0.017-0.003 0.008 0.020-0.018 0.048 0.275 0.34 0.322 0.322 0.023-0.009 0.029-0.006 0.020 0.008s-0.003 0.017 0.017 0.009c0.027-0.010 0.027-0.013-0.004-0.029zM30.678 7.481c-0.069-0.067-0.134-0.138-0.144-0.158s0.016 0.002 0.057 0.049c0.041 0.047 0.113 0.118 0.159 0.158s0.078 0.073 0.070 0.073c-0.008 0-0.072-0.055-0.141-0.122zM30.404 7.204c0.012-0.020 0.057-0.021 0.068-0.003 0.005 0.007-0.011 0.015-0.035 0.016s-0.039-0.005-0.033-0.014zM1.627 7.296c0.021 0 0.058-0.022 0.082-0.049s0.029-0.038 0.011-0.024c-0.018 0.014-0.049 0.027-0.069 0.028s-0.051 0.020-0.071 0.042c-0.019 0.021-0.025 0.031-0.013 0.021s0.039-0.018 0.060-0.018zM1.921 7.109c0.035-0.043 0.076-0.071 0.157-0.108 0.030-0.014 0.074-0.046 0.098-0.072s0.055-0.047 0.068-0.047c0.013 0 0.029-0.012 0.035-0.027s0.024-0.028 0.040-0.028c0.021-0.001 0.018-0.006-0.010-0.017-0.052-0.021-0.119 0.011-0.155 0.076-0.019 0.033-0.044 0.050-0.072 0.050-0.024 0-0.058 0.016-0.076 0.036s-0.043 0.036-0.056 0.036c-0.013 0-0.032 0.016-0.043 0.036s-0.038 0.036-0.063 0.036c-0.049 0-0.068 0.021-0.054 0.059 0.014 0.036 0.091 0.019 0.131-0.029zM1.808 7.114c0.007-0.011 0.023-0.015 0.038-0.009s0.043-0.010 0.065-0.035c0.021-0.025 0.050-0.045 0.063-0.045s0.029-0.012 0.035-0.027c0.006-0.015 0.026-0.027 0.046-0.027s0.061-0.026 0.093-0.058c0.070-0.071 0.141-0.114 0.126-0.075-0.005 0.014-0.020 0.025-0.032 0.025s-0.042 0.021-0.066 0.047c-0.024 0.026-0.068 0.059-0.098 0.073-0.1 0.048-0.138 0.073-0.165 0.112s-0.129 0.057-0.105 0.019zM29.469 6.632c0.016-0.010 0.011-0.028-0.020-0.066l-0.042-0.052-0.122 0.079 0.054-0.010c0.036-0.007 0.066-0 0.090 0.020l0.036 0.030-0.036-0.012c-0.082-0.028-0.088-0.028-0.045-0.002 0.053 0.032 0.056 0.033 0.085 0.014zM29.14 6.502c0.024-0.010 0.027-0.016 0.009-0.016-0.015-0.001-0.039 0.007-0.054 0.016-0.033 0.021-0.004 0.021 0.045 0zM3.376 6.412c-0.020-0.009-0.048-0.016-0.063-0.016-0.017 0-0.014 0.006 0.009 0.016 0.020 0.009 0.048 0.016 0.063 0.016 0.017 0 0.014-0.006-0.009-0.016zM28.762 6.394c0.020-0.009 0.026-0.016 0.014-0.017s-0.023-0.014-0.023-0.029c0-0.018-0.008-0.023-0.023-0.014-0.012 0.008-0.051 0.024-0.086 0.036l-0.063 0.021 0.081-0.007c0.063-0.006 0.071-0.004 0.036 0.009-0.037 0.013-0.039 0.016-0.009 0.016 0.020 0 0.052-0.006 0.072-0.015zM28.541 6.364c-0.012-0.005-0.033-0.005-0.045 0s-0.002 0.009 0.023 0.009c0.025 0 0.035-0.004 0.023-0.009zM4.111 6.256c-0.012-0.005-0.033-0.005-0.045 0s-0.002 0.009 0.023 0.009c0.025 0 0.035-0.004 0.023-0.009zM28.090 6.256c-0.012-0.005-0.033-0.005-0.045 0s-0.002 0.009 0.023 0.009c0.025 0 0.035-0.004 0.023-0.009zM4.881 11.152c3.686-0.014 20.702-0.014 23.421-0 1.155 0.006-4.281 0.011-12.080 0.011s-12.903-0.005-11.341-0.011zM31.358 11.073l-0.054-0.024 0.059 0.010c0.042 0.007 0.069 0.001 0.095-0.022 0.020-0.018 0.036-0.027 0.036-0.020s0.018 0.004 0.041-0.007c0.039-0.019 0.039-0.019 0.006 0.008-0.019 0.015-0.043 0.028-0.053 0.028s-0.030 0.011-0.046 0.025c-0.024 0.022-0.037 0.022-0.083 0.001zM0.315 10.51c-0.020-0.023-0.032-0.090-0.041-0.239-0.011-0.187-0.009-0.21 0.020-0.234 0.030-0.025 0.031-0.023 0.017 0.037-0.025 0.105-0.010 0.401 0.023 0.437 0.016 0.017 0.024 0.032 0.019 0.032s-0.022-0.014-0.037-0.032zM0.318 9.6c-0.018-0.034-0.015-0.044 0.021-0.073s0.039-0.039 0.020-0.069c-0.029-0.047-0.027-0.089 0.005-0.089 0.020 0 0.024-0.014 0.016-0.052-0.008-0.041-0.002-0.057 0.028-0.073 0.026-0.014 0.038-0.014 0.038-0.001 0 0.011-0.012 0.024-0.027 0.030-0.018 0.007-0.023 0.024-0.016 0.054s0.001 0.052-0.023 0.070c-0.020 0.015-0.024 0.026-0.011 0.026 0.031 0.001 0.028 0.082-0.003 0.114-0.015 0.015-0.022 0.043-0.016 0.064 0.013 0.050-0.005 0.049-0.032-0.001zM31.675 9.225c-0-0.015 0.007-0.039 0.017-0.054 0.021-0.033 0.021-0.005 0 0.045-0.010 0.024-0.016 0.027-0.017 0.009zM0.73 8.391c-0.015-0.040 0.020-0.104 0.067-0.122 0.032-0.012 0.046-0.031 0.046-0.063 0-0.025 0.016-0.060 0.036-0.077s0.036-0.039 0.037-0.049c0.001-0.031 0.087-0.126 0.101-0.112 0.018 0.018 0.078-0.040 0.068-0.067-0.005-0.012 0.014-0.032 0.042-0.044 0.044-0.019 0.046-0.018 0.019 0.003-0.017 0.014-0.032 0.033-0.032 0.042s-0.037 0.065-0.083 0.124c-0.108 0.14-0.123 0.155-0.089 0.086 0.016-0.031 0.040-0.067 0.055-0.079s0.027-0.030 0.027-0.041c0-0.010-0.020 0.003-0.045 0.030s-0.045 0.055-0.045 0.063c0 0.008-0.017 0.030-0.038 0.048-0.029 0.026-0.036 0.049-0.029 0.097 0.005 0.035 0.005 0.053 0 0.041-0.006-0.017-0.023-0.012-0.063 0.016-0.042 0.030-0.052 0.048-0.043 0.081 0.011 0.044-0.015 0.061-0.031 0.020zM31.113 7.976c-0.012-0.022-0.032-0.047-0.044-0.054-0.033-0.020-0.084-0.126-0.056-0.117 0.012 0.004 0.024 0.024 0.027 0.045s0.024 0.050 0.047 0.065c0.023 0.015 0.046 0.044 0.051 0.064 0.013 0.049 0.002 0.047-0.025-0.003zM30.265 7.103c-0.026-0.013-0.058-0.038-0.072-0.055-0.023-0.030-0.023-0.030 0.013-0 0.020 0.017 0.050 0.032 0.066 0.032s0.034 0.009 0.041 0.019c0.018 0.029 0.004 0.031-0.048 0.005zM30.060 6.952c-0.030-0.019-0.078-0.046-0.108-0.061l-0.054-0.027 0.054 0.011c0.047 0.010 0.171 0.087 0.171 0.107 0 0.010-0.002 0.008-0.063-0.030zM2.33 6.773c-0.024-0.010-0.027-0.016-0.009-0.016 0.015-0.001 0.039 0.007 0.054 0.016 0.033 0.021 0.005 0.021-0.045 0zM29.56 6.641c0.035-0.011 0.066-0.012 0.076-0.002s-0.014 0.017-0.059 0.018l-0.076 0.002zM3.078 6.466c-0.033-0.021-0.005-0.021 0.045 0 0.024 0.010 0.027 0.016 0.009 0.016-0.015 0.001-0.039-0.007-0.054-0.016zM3.646 6.309c0.020-0.005 0.043-0.020 0.050-0.034 0.019-0.033 0.096-0.032 0.109 0.002 0.013 0.033-0.035 0.037-0.049 0.005-0.007-0.016-0.015-0.014-0.029 0.009-0.012 0.019-0.040 0.031-0.069 0.029-0.038-0.002-0.041-0.004-0.013-0.011zM12.316 6.273c2.666-0.003 7.023-0.003 9.682 0s0.478 0.005-4.847 0.005c-5.325 0-7.501-0.002-4.835-0.005z"></path>
</svg>
