<?xml version="1.0" encoding="UTF-8"?>
<!DOCTYPE svg PUBLIC "-//W3C//DTD SVG 1.1//EN" "http://www.w3.org/Graphics/SVG/1.1/DTD/svg11.dtd">
<svg xmlns="http://www.w3.org/2000/svg" version="1.1" width="512px" height="512px" style="shape-rendering:geometricPrecision; text-rendering:geometricPrecision; image-rendering:optimizeQuality; fill-rule:evenodd; clip-rule:evenodd" xmlns:xlink="http://www.w3.org/1999/xlink">
<linearGradient id="gradient1" x1="100%" y1="0%" x2="0%" y2="0%">
     <stop offset="0%" style="stop-color: #000000; stop-opacity: .9" />
    <stop offset="100%" style="stop-color: #000000; stop-opacity: .9" />
  </linearGradient>
<path fill="url(#gradient1)"  d="M 375.5,-0.5 C 380.167,-0.5 384.833,-0.5 389.5,-0.5C 404.612,7.60448 408.112,19.2712 400,34.5C 397.617,37.2728 394.783,39.4395 391.5,41C 370.428,47.4687 349.428,54.1353 328.5,61C 317.833,84 307.167,107 296.5,130C 310.5,130.333 324.5,130.667 338.5,131C 347.355,132.518 354.021,137.185 358.5,145C 361.554,145.821 364.554,145.655 367.5,144.5C 380,116.167 392.5,87.8333 405,59.5C 407.106,55.3961 409.939,51.8961 413.5,49C 433.021,42.2709 452.688,35.9376 472.5,30C 480.296,26.4426 488.296,25.7759 496.5,28C 506.684,33.5412 510.518,42.0412 508,53.5C 506.125,58.4267 502.958,62.26 498.5,65C 479.203,71.2656 459.87,77.4323 440.5,83.5C 431.743,101.348 423.243,119.348 415,137.5C 410.046,141.677 405.38,141.343 401,136.5C 400.333,133.5 400.333,130.5 401,127.5C 409.607,109.286 417.941,90.9523 426,72.5C 427.167,71.3333 428.333,70.1667 429.5,69C 449.833,62.6667 470.167,56.3333 490.5,50C 493.167,48 493.167,46 490.5,44C 488.5,43.3333 486.5,43.3333 484.5,44C 464.167,50.3333 443.833,56.6667 423.5,63C 422.667,63.8333 421.833,64.6667 421,65.5C 409.57,92.1924 397.737,118.692 385.5,145C 410.5,145.333 435.5,145.667 460.5,146C 475.881,150.411 483.214,160.745 482.5,177C 481.782,188.16 480.949,199.327 480,210.5C 474.956,217.15 469.956,217.15 465,210.5C 464.598,209.128 464.098,207.795 463.5,206.5C 464.665,194.877 465.165,183.21 465,171.5C 464.332,167.501 462.165,164.668 458.5,163C 426.502,162.5 394.502,162.333 362.5,162.5C 361.713,172.146 361.38,181.812 361.5,191.5C 387.835,191.333 414.169,191.5 440.5,192C 452.519,196.187 457.852,204.687 456.5,217.5C 453.21,295.879 449.377,374.212 445,452.5C 442.589,460.915 437.089,465.748 428.5,467C 401.835,467.5 375.169,467.667 348.5,467.5C 348.5,470.167 348.5,472.833 348.5,475.5C 379.835,475.667 411.168,475.5 442.5,475C 447.838,472.993 451.004,469.159 452,463.5C 455.623,392.182 458.956,320.848 462,249.5C 462.253,239.13 467.087,235.964 476.5,240C 477.126,240.75 477.626,241.584 478,242.5C 475.898,316.523 472.898,390.523 469,464.5C 466.539,479.959 457.705,489.126 442.5,492C 409.828,492.167 377.162,492.667 344.5,493.5C 339.88,502.466 332.88,508.466 323.5,511.5C 268.5,511.5 213.5,511.5 158.5,511.5C 149.12,508.466 142.12,502.466 137.5,493.5C 103.472,492.958 69.4715,492.125 35.5,491C 25.1,486.93 18.6,479.43 16,468.5C 11.1833,377.867 6.84998,287.2 3,196.5C 2.33333,186.5 2.33333,176.5 3,166.5C 5.83333,155.667 12.6667,148.833 23.5,146C 46.174,145.833 68.8407,145.333 91.5,144.5C 86.4881,123.452 81.3214,102.452 76,81.5C 58.0884,72.461 40.255,63.2943 22.5,54C 11.5945,42.3715 11.9278,31.0382 23.5,20C 30.3491,15.9601 37.3491,15.6267 44.5,19C 64.6774,29.5889 85.0108,39.9222 105.5,50C 109.52,53.011 112.353,56.8443 114,61.5C 120.13,86.2224 126.463,110.889 133,135.5C 136.049,133.036 139.549,131.536 143.5,131C 188.167,130.667 232.833,130.333 277.5,130C 288.523,106.602 299.356,83.1019 310,59.5C 311.995,54.8398 314.495,50.5065 317.5,46.5C 339.403,39.3656 361.403,32.5323 383.5,26C 387.104,24.6661 388.271,22.1661 387,18.5C 385.758,17.1279 384.258,16.1279 382.5,15.5C 376.42,18.2546 370.086,19.4212 363.5,19C 358.675,14.4144 358.342,9.58104 362.5,4.5C 367.011,3.00144 371.344,1.33477 375.5,-0.5 Z M 33.5,33.5 C 54.2258,43.3623 74.8924,53.529 95.5,64C 96.3333,64.8333 97.1667,65.6667 98,66.5C 104.661,92.8103 111.161,119.144 117.5,145.5C 114.5,145.5 111.5,145.5 108.5,145.5C 103.239,120.694 97.4056,96.0274 91,71.5C 89.8333,70.3333 88.6667,69.1667 87.5,68C 69.5,59 51.5,50 33.5,41C 30.9142,38.506 30.9142,36.006 33.5,33.5 Z M 144.5,147.5 C 208.834,147.333 273.168,147.5 337.5,148C 343.904,152.017 346.571,157.851 345.5,165.5C 340.94,264.497 336.44,363.497 332,462.5C 331.84,469.563 331.173,476.563 330,483.5C 327.936,490.233 323.436,494.066 316.5,495C 266.167,495.667 215.833,495.667 165.5,495C 156.93,493.428 152.097,488.261 151,479.5C 146.076,374.838 141.243,270.171 136.5,165.5C 135.522,157.732 138.189,151.732 144.5,147.5 Z M 25.5,162.5 C 56.8333,162.5 88.1667,162.5 119.5,162.5C 120.287,172.146 120.62,181.812 120.5,191.5C 95.8311,191.333 71.1644,191.5 46.5,192C 34.0457,196.551 28.7123,205.551 30.5,219C 32.6503,264.522 35.1503,310.022 38,355.5C 42.1789,362.338 47.1789,363.004 53,357.5C 53.8078,355.577 54.3078,353.577 54.5,351.5C 51.2653,304.541 49.0986,257.541 48,210.5C 49.1711,209.107 50.6711,208.273 52.5,208C 75.4976,207.5 98.4976,207.333 121.5,207.5C 123.696,245.479 125.196,283.479 126,321.5C 104.702,309.399 85.3688,312.066 68,329.5C 64.5156,336.837 66.6823,341.504 74.5,343.5C 78.731,342.778 82.0643,340.612 84.5,337C 97.9771,327.735 110.477,328.902 122,340.5C 128.261,349.73 129.094,359.396 124.5,369.5C 119.946,370.776 115.613,372.609 111.5,375C 107.951,378.057 104.284,380.891 100.5,383.5C 89.6734,381.848 81.8401,376.182 77,366.5C 76.1857,361.424 74.6857,356.591 72.5,352C 66.8662,349.224 62.3662,350.391 59,355.5C 59.2818,379.954 71.4485,394.621 95.5,399.5C 93.0857,426.663 105.419,441.997 132.5,445.5C 132.5,447.167 132.5,448.833 132.5,450.5C 108.122,450.823 83.7884,450.49 59.5,449.5C 58.8076,448.975 58.3076,448.308 58,447.5C 56.5565,426.527 55.5565,405.527 55,384.5C 52.5161,376.78 47.6828,374.947 40.5,379C 39.8742,379.75 39.3742,380.584 39,381.5C 38.574,405.575 39.574,429.575 42,453.5C 44.1055,459.272 47.9389,463.438 53.5,466C 80.1237,467.455 106.79,467.955 133.5,467.5C 133.5,470.167 133.5,472.833 133.5,475.5C 102.832,475.667 72.1649,475.5 41.5,475C 35.812,472.807 32.6453,468.64 32,462.5C 27.6352,366.974 23.1352,271.474 18.5,176C 18.3704,170.088 20.7038,165.588 25.5,162.5 Z M 360.5,207.5 C 385.169,207.333 409.836,207.5 434.5,208C 436.329,208.273 437.829,209.107 439,210.5C 436.514,289.19 433.181,367.857 429,446.5C 428.535,447.931 427.701,449.097 426.5,450C 400.835,450.5 375.169,450.667 349.5,450.5C 349.867,439.164 350.367,427.831 351,416.5C 356.375,434.616 368.542,444.282 387.5,445.5C 406.669,443.853 418.836,433.853 424,415.5C 427.01,396.018 419.843,381.851 402.5,373C 400.564,372.187 398.564,371.687 396.5,371.5C 395.478,344.815 381.812,329.482 355.5,325.5C 355.97,303.156 356.804,280.822 358,258.5C 358.202,256.744 358.702,255.078 359.5,253.5C 365.865,254.983 369.531,252.483 370.5,246C 370.592,243.186 369.592,240.853 367.5,239C 364.369,237.587 361.369,237.087 358.5,237.5C 359.311,227.532 359.977,217.532 360.5,207.5 Z M 354.5,342.5 C 369.366,344.533 377.7,353.033 379.5,368C 377.744,384.924 368.411,393.757 351.5,394.5C 352.56,377.18 353.56,359.846 354.5,342.5 Z M 232.5,355.5 C 260.839,354.176 277.173,367.509 281.5,395.5C 278.294,422.209 263.294,435.709 236.5,436C 214.156,431.987 201.823,418.654 199.5,396C 201.551,375.123 212.551,361.623 232.5,355.5 Z M 128.5,385.5 C 129.314,387.631 129.814,389.964 130,392.5C 130.591,404.499 131.091,416.499 131.5,428.5C 117.003,425.843 110.503,417.176 112,402.5C 114.323,393.678 119.823,388.012 128.5,385.5 Z M 391.5,387.5 C 401.81,390.072 407.477,396.738 408.5,407.5C 405.523,423.33 396.19,429.83 380.5,427C 373.158,423.842 368.491,418.342 366.5,410.5C 374.236,406.867 381.07,401.867 387,395.5C 388.765,392.968 390.265,390.301 391.5,387.5 Z"/>
<path fill="url(#gradient1)" d="M 343.5,9.5 C 352.153,8.98671 355.653,12.9867 354,21.5C 351.068,25.055 347.235,27.2216 342.5,28C 333.197,28.6976 329.697,24.5309 332,15.5C 332.833,14.6667 333.667,13.8333 334.5,13C 337.662,11.9725 340.662,10.8059 343.5,9.5 Z"/>
<path fill="url(#gradient1)"  d="M 314.5,18.5 C 323.365,18.8474 326.532,23.1807 324,31.5C 318.759,34.6891 313.425,37.6891 308,40.5C 295.393,67.3808 283.059,94.3808 271,121.5C 265.67,126.842 260.67,126.509 256,120.5C 255.333,118.167 255.333,115.833 256,113.5C 268.393,85.714 281.059,58.0473 294,30.5C 299.441,24.0324 306.275,20.0324 314.5,18.5 Z"/>
<path fill="url(#gradient1)"  d="M 167.5,181.5 C 217.501,181.333 267.501,181.5 317.5,182C 324.181,184.013 329.014,188.18 332,194.5C 333.576,205.775 333.909,217.108 333,228.5C 329.638,303.499 326.304,378.499 323,453.5C 324.377,465.568 320.21,475.068 310.5,482C 307.899,482.92 305.232,483.587 302.5,484C 262.167,484.667 221.833,484.667 181.5,484C 168.797,480.947 162.297,472.78 162,459.5C 161.333,439.158 160.5,418.825 159.5,398.5C 158.736,388.76 163.069,384.927 172.5,387C 174.487,388.319 175.654,390.152 176,392.5C 177.148,415.493 178.148,438.493 179,461.5C 179.346,463.848 180.513,465.681 182.5,467C 222.5,467.667 262.5,467.667 302.5,467C 304.871,464.326 306.037,461.159 306,457.5C 309.577,373.978 313.41,290.478 317.5,207C 317.477,202.606 315.477,199.606 311.5,198C 265.5,197.333 219.5,197.333 173.5,198C 168.416,199.826 166.416,203.492 167.5,209C 170.184,257.833 172.851,306.666 175.5,355.5C 175.652,364.865 171.319,368.365 162.5,366C 160.513,364.681 159.346,362.848 159,360.5C 156.184,309.498 153.351,258.498 150.5,207.5C 150.204,194.721 155.871,186.054 167.5,181.5 Z"/>
<path fill="url(#gradient1)"  d="M 390.5,219.5 C 400.921,219.355 404.088,224.021 400,233.5C 394.878,237.233 390.211,236.566 386,231.5C 384.474,226.239 385.974,222.239 390.5,219.5 Z"/>
<path fill="url(#gradient1)"  d="M 212.5,220.5 C 222.079,220.998 225.079,225.665 221.5,234.5C 215.489,239.065 210.656,238.065 207,231.5C 206.195,226.444 208.028,222.777 212.5,220.5 Z"/>
<path fill="url(#gradient1)"  d="M 254.5,221.5 C 265.3,221.608 268.3,226.441 263.5,236C 253.972,239.794 249.472,236.627 250,226.5C 251.025,224.313 252.525,222.646 254.5,221.5 Z"/>
<path fill="url(#gradient1)"  d="M 83.5,225.5 C 91.8715,227.035 94.3715,231.702 91,239.5C 83.5661,244.704 78.3995,243.038 75.5,234.5C 76.1417,229.533 78.8084,226.533 83.5,225.5 Z"/>
<path fill="url(#gradient1)"  d="M 286.5,239.5 C 294.5,241.165 297,245.832 294,253.5C 286.558,258.704 281.392,257.037 278.5,248.5C 279.146,243.528 281.813,240.528 286.5,239.5 Z"/>
<path fill="url(#gradient1)" d="M 409.5,244.5 C 419.619,244.452 422.785,249.118 419,258.5C 413.667,262.5 409,261.833 405,256.5C 403.474,251.239 404.974,247.239 409.5,244.5 Z"/>
<path fill="url(#gradient1)"  d="M 233.5,249.5 C 242.357,249.841 245.524,254.174 243,262.5C 237.647,267.965 232.647,267.632 228,261.5C 226.486,255.877 228.319,251.877 233.5,249.5 Z"/>
<path fill="url(#gradient1)"  d="M 97.5,255.5 C 104.615,253.882 108.948,256.549 110.5,263.5C 108.945,270.615 104.612,273.115 97.5,271C 92.2215,265.836 92.2215,260.669 97.5,255.5 Z"/>
<path fill="url(#gradient1)"  d="M 384.5,260.5 C 394.784,260.59 397.95,265.257 394,274.5C 388.878,278.233 384.211,277.566 380,272.5C 378.309,267.131 379.809,263.131 384.5,260.5 Z"/>
<path fill="url(#gradient1)"  d="M 253.5,278.5 C 271.944,276.367 287.11,282.367 299,296.5C 311.954,316.09 311.621,335.423 298,354.5C 294.958,357.711 291.791,360.711 288.5,363.5C 304.103,392.261 300.103,418.094 276.5,441C 253.929,456.758 230.929,457.424 207.5,443C 184.357,424.224 177.857,400.724 188,372.5C 194.833,359 205,348.833 218.5,342C 211.669,323.323 215.003,306.657 228.5,292C 237.667,290.5 241.5,294.333 240,303.5C 231.264,314.103 229.431,325.77 234.5,338.5C 249.968,337.532 263.968,341.532 276.5,350.5C 292.118,339.02 295.285,324.687 286,307.5C 282.358,302.854 277.858,299.354 272.5,297C 265.753,295.295 259.087,294.295 252.5,294C 247.028,288.409 247.362,283.243 253.5,278.5 Z M 232.5,355.5 C 212.551,361.623 201.551,375.123 199.5,396C 201.823,418.654 214.156,431.987 236.5,436C 263.294,435.709 278.294,422.209 281.5,395.5C 277.173,367.509 260.839,354.176 232.5,355.5 Z"/>
</svg>
