<!-- Generated by IcoMoon.io -->
<svg version="1.1" xmlns="http://www.w3.org/2000/svg" width="32" height="32" viewBox="0 0 32 32">
<linearGradient id="gradient1" x1="100%" y1="0%" x2="0%" y2="0%">
        <stop offset="0%" style="stop-color: #999999; stop-opacity: .45" />
    <stop offset="100%" style="stop-color: #999999; stop-opacity: .45" />
  </linearGradient>
<path fill="url(#gradient1)"  d="M15.313 1.538c-1.175 0.169-1.794 0.356-2.637 0.788-1.075 0.55-1.35 0.844-1.15 1.231 0.188 0.35 0.463 0.344 1.050-0.038 0.556-0.362 1.231-0.65 1.963-0.837 0.813-0.212 2.119-0.2 2.962 0.025 1.156 0.3 2.15 0.881 2.944 1.712 0.55 0.581 0.794 0.919 1.119 1.569 0.887 1.775 0.85 4.025-0.094 5.744-0.837 1.519-2.269 2.631-3.969 3.088-0.781 0.213-2.231 0.213-3.031 0.006-0.681-0.181-1.594-0.6-2.119-0.975-0.819-0.588-1.675-1.631-2.069-2.512-0.344-0.781-0.481-1.375-0.512-2.306-0.056-1.55 0.219-2.494 1.175-4.019 0.15-0.237 0.125-0.444-0.081-0.638-0.338-0.313-0.681-0.088-1.169 0.781-0.45 0.787-0.688 1.494-0.919 2.7l-0.025 0.144h-2.981c-2.15 0-3.044 0.019-3.231 0.075-0.344 0.1-0.863 0.619-0.962 0.963-0.050 0.181-0.075 0.969-0.075 2.706v2.45l0.156 0.15c0.2 0.206 0.488 0.206 0.688 0l0.156-0.15v-4.887l0.156-0.15 0.15-0.156h5.925l0.037 0.481c0.056 0.744 0.313 1.644 0.688 2.419 2.219 4.6 8.338 5.519 11.825 1.775 1.081-1.162 1.781-2.706 1.887-4.162l0.038-0.512h5.988l0.15 0.156 0.156 0.15v13.194h-1.094c-1.081 0-1.1 0-1.25 0.156-0.1 0.094-0.156 0.225-0.156 0.344s0.056 0.25 0.156 0.344c0.15 0.156 0.169 0.156 1.25 0.156h1.094v0.844c0 0.819-0.006 0.856-0.156 1l-0.15 0.156h-26.387l-0.15-0.156c-0.15-0.144-0.156-0.181-0.156-1v-0.844h23.194l0.15-0.156c0.206-0.2 0.206-0.488 0-0.688l-0.15-0.156h-23.194v-4.694l-0.156-0.15c-0.2-0.206-0.488-0.206-0.688 0l-0.156 0.15v3.7c0 2.719 0.019 3.769 0.075 3.956 0.1 0.344 0.619 0.863 0.963 0.962 0.194 0.056 1.538 0.075 5.363 0.075h5.1v2.75h-0.594c-0.55 0-0.613 0.012-0.75 0.156-0.206 0.2-0.206 0.488 0 0.688l0.15 0.156h8.387l0.15-0.156c0.206-0.2 0.206-0.488 0-0.688-0.137-0.144-0.2-0.156-0.75-0.156h-0.594v-2.75h5.113c5.819 0 5.494 0.025 5.969-0.5 0.15-0.163 0.306-0.413 0.344-0.55 0.106-0.363 0.106-16.044 0-16.413-0.1-0.344-0.619-0.863-0.962-0.963-0.188-0.056-1.087-0.075-3.262-0.075h-3.006l-0.038-0.237c-0.113-0.731-0.369-1.538-0.719-2.231-1.087-2.194-3.169-3.669-5.625-3.969-0.506-0.063-1.169-0.069-1.5-0.025zM18 27.875v1.375h-4v-2.75h4v1.375z"></path>
<path fill="url(#gradient1)" d="M11.787 5.506c-0.281 0.219-0.225 0.469 0.219 1.037 0.213 0.269 0.412 0.519 0.444 0.556 0.031 0.044-0.106 0.269-0.387 0.619-0.338 0.419-0.438 0.594-0.438 0.75 0 0.256 0.219 0.469 0.494 0.469 0.219 0 0.363-0.119 0.762-0.65 0.113-0.156 0.231-0.287 0.25-0.287s0.213 0.213 0.425 0.469c0.356 0.438 0.4 0.469 0.625 0.469 0.194 0 0.275-0.037 0.375-0.162 0.238-0.3 0.181-0.431-0.537-1.313-0.113-0.144-0.206-0.275-0.206-0.3s0.181-0.269 0.406-0.55c0.225-0.275 0.425-0.575 0.45-0.662 0.081-0.331-0.269-0.644-0.619-0.556-0.094 0.025-0.306 0.225-0.512 0.481-0.194 0.237-0.375 0.438-0.4 0.438-0.031 0-0.15-0.138-0.281-0.3-0.519-0.681-0.719-0.781-1.069-0.506z"></path>
<path fill="url(#gradient1)" d="M17.494 5.556c-0.275 0.275-0.238 0.425 0.256 1.050 0.238 0.3 0.438 0.569 0.438 0.588 0 0.025-0.194 0.287-0.438 0.588-0.238 0.3-0.438 0.6-0.438 0.663 0 0.206 0.137 0.419 0.319 0.5 0.275 0.113 0.481-0.012 0.875-0.512l0.337-0.438 0.219 0.269c0.619 0.769 0.856 0.887 1.156 0.581 0.269-0.262 0.212-0.475-0.288-1.1l-0.438-0.55 0.438-0.55c0.544-0.675 0.587-0.969 0.188-1.181-0.288-0.144-0.462-0.056-0.875 0.45-0.206 0.256-0.387 0.463-0.394 0.463-0.012 0-0.169-0.194-0.356-0.431-0.481-0.612-0.688-0.694-1-0.388z"></path>
<path fill="url(#gradient1)" d="M12.656 10.156c-0.1 0.094-0.156 0.225-0.156 0.344s0.056 0.25 0.156 0.344l0.15 0.156h3.194v0.85c0 1.063 0.056 1.275 0.469 1.681 0.369 0.369 0.637 0.469 1.281 0.469s0.913-0.1 1.281-0.469c0.438-0.438 0.469-0.575 0.469-2.181v-1.35h-6.694l-0.15 0.156zM18.5 11.844c0 0.819-0.006 0.856-0.156 1-0.131 0.137-0.206 0.156-0.594 0.156s-0.462-0.019-0.594-0.156c-0.15-0.144-0.156-0.181-0.156-1v-0.844h1.5v0.844z"></path>
<path fill="url(#gradient1)" d="M1.656 15.156c-0.15 0.144-0.156 0.194-0.156 0.844s0.006 0.7 0.156 0.844c0.094 0.1 0.225 0.156 0.344 0.156s0.25-0.056 0.344-0.156c0.15-0.144 0.156-0.194 0.156-0.844s-0.006-0.7-0.156-0.844c-0.094-0.1-0.225-0.156-0.344-0.156s-0.25 0.056-0.344 0.156z"></path>
<path fill="url(#gradient1)" d="M10.669 16.637c-0.088 0.081-0.444 0.469-0.806 0.863-0.356 0.394-0.919 1.019-1.256 1.387-0.675 0.75-0.744 0.919-0.45 1.206 0.15 0.156 0.169 0.156 1.25 0.156h1.094v0.469c0 0.419 0.019 0.494 0.156 0.625 0.094 0.1 0.225 0.156 0.344 0.156s0.25-0.056 0.344-0.156c0.137-0.131 0.156-0.206 0.156-0.606 0-0.45 0.006-0.456 0.206-0.55 0.238-0.113 0.344-0.363 0.256-0.613-0.031-0.094-0.144-0.206-0.256-0.262l-0.206-0.094v-1.206c0-1.194 0-1.206-0.156-1.356-0.194-0.2-0.475-0.206-0.675-0.019zM10.5 18.781v0.469h-0.406c-0.225 0-0.406-0.019-0.406-0.038 0-0.031 0.762-0.894 0.8-0.9 0.006 0 0.012 0.212 0.012 0.469z"></path>
<path fill="url(#gradient1)" d="M15 16.581c-0.306 0.1-0.831 0.637-0.925 0.956-0.1 0.35-0.1 2.575 0 2.925 0.1 0.344 0.619 0.863 0.963 0.962 0.331 0.1 1.594 0.1 1.925 0 0.344-0.1 0.863-0.619 0.962-0.962 0.050-0.163 0.075-0.7 0.075-1.462s-0.025-1.3-0.075-1.462c-0.1-0.344-0.619-0.863-0.962-0.962-0.319-0.094-1.662-0.087-1.963 0.006zM16.844 17.656c0.156 0.15 0.156 0.163 0.156 1.344s0 1.194-0.156 1.344c-0.144 0.15-0.194 0.156-0.844 0.156s-0.7-0.006-0.844-0.156c-0.156-0.15-0.156-0.163-0.156-1.344s0-1.194 0.156-1.344c0.144-0.15 0.194-0.156 0.844-0.156s0.7 0.006 0.844 0.156z"></path>
<path fill="url(#gradient1)" d="M22.169 16.637c-0.087 0.081-0.444 0.469-0.806 0.863-0.356 0.394-0.919 1.019-1.256 1.387-0.675 0.75-0.744 0.919-0.45 1.206 0.15 0.156 0.169 0.156 1.25 0.156h1.094v0.594c0 0.55 0.012 0.613 0.156 0.75 0.094 0.1 0.225 0.156 0.344 0.156s0.25-0.056 0.344-0.156c0.144-0.137 0.156-0.2 0.156-0.731v-0.581l0.206-0.094c0.238-0.113 0.344-0.363 0.256-0.613-0.031-0.094-0.144-0.206-0.256-0.262l-0.206-0.094v-1.206c0-1.194 0-1.206-0.156-1.356-0.194-0.2-0.475-0.206-0.675-0.019zM22 18.781v0.469h-0.406c-0.225 0-0.406-0.019-0.406-0.038 0-0.031 0.762-0.894 0.8-0.9 0.006 0 0.012 0.212 0.012 0.469z"></path>
<path fill="url(#gradient1)" d="M3.656 24.156c-0.1 0.094-0.156 0.225-0.156 0.344s0.056 0.25 0.156 0.344c0.131 0.137 0.206 0.156 0.594 0.156s0.463-0.019 0.594-0.156c0.206-0.2 0.206-0.488 0-0.688-0.131-0.137-0.206-0.156-0.594-0.156s-0.462 0.019-0.594 0.156z"></path>
</svg>
