<!-- Generated by IcoMoon.io -->
<svg version="1.1" xmlns="http://www.w3.org/2000/svg" width="32" height="32" viewBox="0 0 32 32">
<linearGradient id="gradient1" x1="100%" y1="0%" x2="0%" y2="0%">
    <stop offset="0%" style="stop-color: #5e2000; stop-opacity: 1" />
    <stop offset="100%" style="stop-color: #5e2000; stop-opacity: .5" />
  </linearGradient>
<path fill="url(#gradient1)" d="M24.156 0.156l-0.156 0.15v7.388l0.156 0.15 0.15 0.156h4.694v23.694l0.156 0.15c0.2 0.206 0.488 0.206 0.688 0l0.156-0.15v-23.694h1v23.694l0.156 0.15c0.2 0.206 0.488 0.206 0.688 0l0.156-0.15v-31.387l-0.156-0.15-0.15-0.156h-7.387l-0.15 0.156zM31 4v3h-6v-6h6v3z"></path>
<path fill="url(#gradient1)" d="M26.844 2.013c-0.275 0.163-0.275 0.2-0.281 1.962 0 1.625 0.006 1.7 0.131 1.863 0.156 0.2 0.469 0.219 0.688 0.044 0.131-0.106 0.15-0.188 0.169-0.625l0.025-0.506h0.594c0.331 0 0.706-0.031 0.837-0.069 0.831-0.25 1.231-1.288 0.775-2.031-0.119-0.188-0.306-0.375-0.494-0.494-0.306-0.188-0.319-0.188-1.313-0.206-0.7-0.012-1.044 0.006-1.131 0.062zM28.844 3.094c0.188 0.181 0.194 0.281 0.025 0.494-0.119 0.156-0.156 0.163-0.719 0.163h-0.587v-0.813h0.563c0.519 0 0.581 0.013 0.719 0.156z"></path>
<path fill="url(#gradient1)" d="M11.594 10.287c-0.169 0.012-0.719 0.050-1.219 0.088-1.106 0.081-2.831 0.287-3.356 0.412-0.656 0.144-1.188 0.444-1.712 0.963-0.531 0.525-0.612 0.662-1.25 2.175-0.594 1.4-0.544 1.319-0.688 1.088-0.131-0.225-0.531-0.45-0.788-0.45s-1.875 0.3-2 0.369c-0.181 0.094-0.444 0.4-0.512 0.588-0.094 0.244-0.087 0.819 0.019 1.063 0.163 0.4 0.456 0.575 1.262 0.762 0.412 0.094 0.75 0.181 0.762 0.188 0.013 0.012-0.131 0.25-0.319 0.538-0.444 0.688-0.694 1.194-0.869 1.756-0.138 0.456-0.138 0.469-0.162 5.8-0.012 3.637 0 5.419 0.044 5.569 0.094 0.306 0.281 0.538 0.575 0.681 0.219 0.113 0.369 0.125 1.594 0.125 1.569 0 1.738-0.044 2.044-0.512 0.162-0.256 0.169-0.281 0.169-1.219v-0.956h17.613l0.025 0.956c0.019 0.931 0.025 0.969 0.194 1.225 0.306 0.462 0.481 0.506 2.044 0.506 1.175 0 1.375-0.019 1.6-0.119 0.294-0.137 0.5-0.369 0.594-0.688 0.044-0.15 0.056-1.919 0.044-5.538-0.025-4.769-0.038-5.35-0.131-5.706-0.15-0.55-0.469-1.225-0.887-1.863-0.194-0.294-0.344-0.544-0.331-0.556 0.012-0.006 0.35-0.094 0.762-0.188 0.637-0.144 0.775-0.2 0.981-0.387 0.506-0.456 0.5-1.4-0.006-1.856-0.206-0.181-0.319-0.225-0.962-0.344-1.406-0.269-1.669-0.238-2.019 0.225l-0.163 0.213-0.544-1.281c-0.3-0.706-0.637-1.425-0.75-1.6-0.456-0.706-1.356-1.338-2.194-1.525-0.475-0.106-1.663-0.262-2.994-0.387-0.906-0.088-5.675-0.169-6.469-0.113zM16.781 11.313c2.45 0.156 4.087 0.387 4.631 0.656 0.406 0.2 0.906 0.681 1.1 1.050 0.069 0.144 0.431 0.963 0.8 1.825 0.625 1.475 0.712 1.631 1.525 2.869 1.494 2.275 1.444 2.106 1.444 4.881v2.125l-10.3 0.031c-10.106 0.031-10.306 0.031-10.394 0.15-0.1 0.144-0.112 0.431-0.025 0.6 0.031 0.063 0.15 0.144 0.256 0.181 0.144 0.050 3.1 0.069 10.344 0.069h10.15v0.331c0 1-0.481 1.731-1.344 2.056l-0.375 0.144-10.394 0.019c-11.338 0.019-10.869 0.031-11.488-0.331-0.35-0.206-0.681-0.6-0.806-0.962-0.056-0.156-0.119-0.506-0.137-0.775l-0.038-0.481h1.094c1.131 0 1.444-0.050 1.55-0.25 0.1-0.194 0.069-0.494-0.063-0.625-0.119-0.119-0.206-0.125-1.35-0.125h-1.219l0.019-2.175 0.019-2.169 0.194-0.531c0.138-0.394 0.4-0.869 0.988-1.769l0.8-1.231h19l0.181-0.181c0.225-0.225 0.231-0.456 0.025-0.663l-0.15-0.156h-9.225c-7.175 0-9.219-0.019-9.219-0.075 0-0.094 0.888-2.2 1.138-2.7 0.231-0.456 0.688-0.912 1.138-1.131 0.525-0.256 2.206-0.5 4.475-0.65 1.15-0.075 4.513-0.081 5.656-0.006zM2.712 15.912c0.188 0.4 0.194 0.463 0.081 0.606-0.069 0.106-0.131 0.1-0.913-0.081-0.456-0.1-0.844-0.188-0.856-0.188s-0.025-0.094-0.025-0.212v-0.206l0.7-0.131c0.388-0.069 0.738-0.125 0.781-0.131 0.038-0.006 0.144 0.15 0.231 0.344zM26.25 15.688c0.394 0.069 0.738 0.125 0.769 0.125 0.025 0 0.044 0.1 0.044 0.219s-0.012 0.219-0.025 0.219c-0.012 0-0.4 0.087-0.856 0.188-0.781 0.181-0.844 0.188-0.913 0.081-0.044-0.056-0.081-0.137-0.081-0.181 0-0.075 0.294-0.775 0.325-0.775 0.012 0 0.344 0.056 0.738 0.125zM1.931 28.65c0.344 0.306 1.444 0.663 2.038 0.663h0.219v1.688l-1.2-0.012-1.206-0.019-0.019-1.206c-0.006-0.656 0.006-1.2 0.025-1.2 0.025 0 0.094 0.038 0.144 0.087zM26.3 29.762l-0.019 1.206h-2.438l-0.038-1.637 0.475-0.038c0.569-0.050 1.35-0.3 1.688-0.544 0.137-0.1 0.269-0.181 0.3-0.181 0.025-0.006 0.038 0.538 0.031 1.194z"></path>
<path fill="url(#gradient1)" d="M3.313 19.444c-0.475 0.188-0.719 0.731-0.675 1.488 0.038 0.656 0.3 1.119 0.763 1.363 0.106 0.056 1.088 0.225 2.281 0.394 2.188 0.313 2.369 0.319 2.506 0.063 0.125-0.231 0.056-0.456-0.381-1.231-0.775-1.387-1.106-1.8-1.537-1.894-0.244-0.056-2.394-0.256-2.663-0.244-0.075 0-0.206 0.031-0.294 0.063zM5.188 20.506c0.463 0.038 0.862 0.087 0.888 0.106 0.144 0.144 0.731 1.169 0.681 1.188-0.075 0.025-2.781-0.35-2.919-0.406-0.056-0.019-0.125-0.106-0.156-0.188-0.069-0.181-0.075-0.731-0.013-0.794 0.025-0.025 0.188-0.025 0.362-0.012 0.169 0.019 0.694 0.069 1.156 0.106z"></path>
<path fill="url(#gradient1)" d="M23.813 19.419c-0.119 0.006-0.581 0.050-1.031 0.087-0.444 0.038-0.913 0.087-1.031 0.119-0.387 0.1-0.794 0.625-1.581 2.038-0.444 0.794-0.462 1.056-0.106 1.244 0.156 0.081 0.387 0.056 2.294-0.212 1.2-0.175 2.2-0.344 2.306-0.4 0.45-0.238 0.719-0.706 0.762-1.331 0.050-0.775-0.206-1.337-0.694-1.519-0.169-0.069-0.444-0.075-0.919-0.025zM24.4 20.475c0.119 0.3-0.012 0.869-0.212 0.931-0.125 0.038-2.669 0.406-2.831 0.406-0.106 0-0.106-0.012-0.006-0.206 0.056-0.106 0.231-0.387 0.381-0.613l0.269-0.419 0.519-0.044c0.538-0.050 1.481-0.131 1.706-0.15 0.075 0 0.156 0.038 0.175 0.094z"></path>
<path fill="url(#gradient1)" d="M8.581 19.994c-0.181 0.169-0.194 0.563-0.031 0.712 0.15 0.137 0.25 0.156 1.887 0.3 2.856 0.25 5.081 0.219 8.181-0.1 0.675-0.069 0.794-0.094 0.894-0.219 0.163-0.2 0.144-0.512-0.044-0.688-0.144-0.137-0.188-0.144-0.669-0.1-0.288 0.019-1.219 0.094-2.081 0.163-1.969 0.156-3.463 0.156-5.406 0-2.744-0.225-2.575-0.219-2.731-0.069z"></path>
<path fill="url(#gradient1)" d="M9.281 22.469c-0.088 0.081-0.156 0.219-0.156 0.294 0 0.169 0.144 0.4 0.3 0.481 0.056 0.031 1.125 0.119 2.369 0.2l2.263 0.144 2.238-0.144c2.369-0.15 2.45-0.163 2.594-0.481 0.1-0.206-0.069-0.569-0.294-0.625-0.081-0.019-1.15 0.025-2.363 0.1l-2.213 0.144-2.119-0.137c-1.162-0.075-2.2-0.131-2.294-0.131-0.1 0-0.238 0.063-0.325 0.156z"></path>
</svg>
