<!-- Generated by IcoMoon.io -->
<svg version="1.1" xmlns="http://www.w3.org/2000/svg" width="32" height="32" viewBox="0 0 32 32">
<title>phonesIcon</title>
<linearGradient id="gradient1" x1="0%" y1="0%" x2="0%" y2="100%">
  <stop offset="0%" style="stop-color: #d3000e; stop-opacity: .6" />
  <stop offset="50%" style="stop-color: #790008; stop-opacity: .5" />
  <stop offset="100%" style="stop-color: #d3000e; stop-opacity: .6" />
</linearGradient>
<path fill="url(#gradient1)" d="M30.977 16.159c0 8.247-6.686 14.933-14.933 14.933s-14.933-6.686-14.933-14.933c0-8.247 6.686-14.933 14.933-14.933s14.933 6.686 14.933 14.933z"></path>
<path fill="#000" d="M25.215 20.392c0.013-0.591-0.195-1.163-0.558-1.61-0.381-0.469-0.935-0.801-1.595-0.895-0.663-0.081-1.404-0.26-2.142-0.535-0.359-0.132-0.74-0.181-1.113-0.144-0.549 0.053-1.083 0.289-1.507 0.708l-0.596 0.596c-1.466-0.925-2.784-2.209-3.797-3.802l0.601-0.601c0.267-0.273 0.466-0.601 0.586-0.958 0.176-0.524 0.177-1.107-0.032-1.666-0.239-0.624-0.429-1.362-0.534-2.15-0.086-0.591-0.378-1.114-0.798-1.495-0.447-0.403-1.041-0.645-1.679-0.639h-2.482c-0.073 0-0.151 0.003-0.226 0.010-0.683 0.062-1.277 0.396-1.684 0.883s-0.628 1.132-0.566 1.822c0.249 2.548 1.131 5.172 2.664 7.54 1.244 1.999 3.022 3.83 5.218 5.224 2.127 1.406 4.709 2.371 7.527 2.677 0.076 0.007 0.158 0.011 0.239 0.011 0.686-0.002 1.307-0.284 1.755-0.735s0.723-1.075 0.721-1.757zM23.558 20.392v2.485c0.001 0.232-0.090 0.439-0.24 0.59s-0.355 0.244-0.585 0.245c-2.609-0.278-4.938-1.152-6.845-2.412-2.011-1.278-3.611-2.93-4.724-4.717-1.406-2.171-2.2-4.541-2.422-6.825-0.020-0.222 0.053-0.436 0.19-0.6s0.334-0.273 0.562-0.294l2.558-0.004c0.225-0.002 0.42 0.078 0.569 0.212 0.141 0.128 0.239 0.303 0.268 0.504 0.118 0.888 0.338 1.754 0.627 2.506 0.067 0.179 0.066 0.37 0.008 0.545-0.041 0.12-0.109 0.233-0.2 0.327l-1.045 1.045c-0.268 0.268-0.314 0.674-0.134 0.995 1.312 2.307 3.18 4.107 5.286 5.284 0.329 0.184 0.731 0.119 0.99-0.138l1.052-1.052c0.138-0.136 0.312-0.213 0.495-0.231 0.126-0.012 0.257 0.004 0.38 0.050 0.847 0.316 1.715 0.527 2.514 0.625 0.2 0.028 0.383 0.138 0.509 0.294 0.122 0.15 0.191 0.341 0.187 0.565z"></path>
</svg>
