<!-- Generated by IcoMoon.io -->
<svg version="1.1" xmlns="http://www.w3.org/2000/svg" width="23" height="32" viewBox="0 0 23 32">
<path d="M11.909 7.314c-0.597 0.057-1.224 0.243-1.843 0.547-1.395 0.684-2.402 1.98-2.76 3.55-0.103 0.445-0.137 1.258-0.076 1.748 0.277 2.193 1.901 3.976 4.040 4.44l0.411 0.087 0.008 4.276c0.029 1.123 0.015 2.235 0.076 2.338 0.125 0.232 0.395 0.399 0.639 0.399s0.513-0.167 0.639-0.399c0.061-0.103 0.056-1.009 0.076-2.341l0.008-4.28 0.258-0.046c0.654-0.118 1.414-0.437 2.018-0.851 0.388-0.266 1.038-0.924 1.3-1.319 0.589-0.886 0.863-1.718 0.897-2.737 0.053-1.528-0.456-2.836-1.524-3.896-0.775-0.768-1.627-1.224-2.703-1.444-0.3-0.061-1.133-0.103-1.463-0.072zM12.661 10.123c0.285 0.122 0.437 0.342 0.437 0.646 0.004 0.395-0.262 0.677-0.692 0.722-0.293 0.030-0.498 0.11-0.673 0.262-0.198 0.167-0.304 0.395-0.354 0.737-0.046 0.346-0.163 0.536-0.392 0.65-0.198 0.095-0.399 0.103-0.589 0.023-0.411-0.171-0.525-0.582-0.354-1.251 0.152-0.593 0.498-1.083 1.007-1.422 0.517-0.35 1.251-0.517 1.608-0.369z"></path>
</svg>
