<?xml version="1.0" encoding="UTF-8" standalone="no"?>
<!-- Generated by IcoMoon.io -->

<svg
   version="1.1"
   width="40"
   height="40"
   viewBox="0 0 32 32"
   id="svg162"
   sodipodi:docname="plus.svg"
   xmlns:inkscape="http://www.inkscape.org/namespaces/inkscape"
   xmlns:sodipodi="http://sodipodi.sourceforge.net/DTD/sodipodi-0.dtd"
   xmlns="http://www.w3.org/2000/svg"
   xmlns:svg="http://www.w3.org/2000/svg">
  <defs
     id="defs166" />
  <sodipodi:namedview
     id="namedview164"
     pagecolor="#ffffff"
     bordercolor="#666666"
     borderopacity="1.0"
     inkscape:pageshadow="2"
     inkscape:pageopacity="0.0"
     inkscape:pagecheckerboard="0"
     showgrid="false" />
  <path
     fill="#141414"
     d="M5.544 0.1c-2.6 0.469-4.631 2.344-5.344 4.931l-0.169 0.625v20.688l0.169 0.625c0.662 2.4 2.431 4.163 4.844 4.831l0.612 0.169h20.688l0.625-0.169c2.394-0.656 4.169-2.438 4.831-4.831l0.169-0.625v-20.688l-0.169-0.625c-0.725-2.625-2.75-4.475-5.412-4.938-0.775-0.138-20.1-0.131-20.844 0.006zM26.637 2.881c1.225 0.475 2.131 1.413 2.506 2.587l0.137 0.438v20.188l-0.137 0.438c-0.387 1.212-1.4 2.225-2.613 2.613l-0.438 0.137h-20.188l-0.438-0.137c-1.175-0.375-2.112-1.281-2.587-2.506l-0.163-0.419-0.019-10.056c-0.019-11.131-0.044-10.375 0.394-11.256 0.388-0.787 1.019-1.425 1.813-1.813 0.862-0.425 0.088-0.4 11.219-0.388l10.094 0.013 0.419 0.163z"
     id="path158" />
  <path
     d="m 15.548035,7.7341984 c -0.229886,0.0371 -0.518072,0.1397868 -0.724108,0.2610236 -0.550535,0.3232982 -0.983807,0.9467072 -1.070594,1.538979 -0.02716,0.183511 -0.01259,0.748621 0.02252,0.887082 0.01458,0.05631 0.02385,0.104675 0.0212,0.107987 -0.0026,0.0033 -0.112625,0.02716 -0.241149,0.05499 -1.936477,0.390873 -3.7298543,1.242843 -5.197946,2.465812 -2.408174,2.007364 -3.9551028,4.870672 -4.3009259,7.95658 -0.0212,0.183512 -0.02385,0.193449 -0.067575,0.223924 -0.025837,0.01789 -0.1093119,0.09474 -0.186824,0.172249 -0.1172618,0.11925 -0.1510491,0.164299 -0.2206112,0.306073 -0.098049,0.199412 -0.1139494,0.276924 -0.1139494,0.54391 0,0.310711 0.043725,0.45381 0.2318737,0.771146 0.1901365,0.320648 0.6293715,0.959294 0.8420328,1.22628 0.1371367,0.172249 0.4266476,0.471698 0.5843217,0.603534 0.3431731,0.286861 0.8354078,0.521385 1.2024308,0.574385 0.2126613,0.03047 18.6194581,0.02915 18.9348061,-0.0013 0.463748,-0.04505 0.89172,-0.199412 1.255431,-0.45381 0.135149,-0.09341 0.551859,-0.50416 0.701583,-0.690321 0.133825,-0.165625 0.251086,-0.333236 0.613472,-0.875821 0.444535,-0.661833 0.486272,-0.759883 0.49886,-1.144793 0.0099,-0.283549 -0.008,-0.376961 -0.107987,-0.582997 -0.0742,-0.148399 -0.246449,-0.345823 -0.390873,-0.44586 l -0.08679,-0.06095 -0.01126,-0.13846 c -0.02584,-0.323299 -0.120574,-0.946708 -0.210673,-1.363418 -0.15105,-0.704897 -0.397498,-1.458155 -0.716159,-2.188888 -0.107987,-0.246449 -0.370335,-0.77247 -0.518072,-1.036806 -0.98182,-1.752965 -2.451899,-3.282007 -4.159814,-4.328751 -0.40876,-0.249761 -0.95267,-0.537947 -1.363418,-0.721459 -0.757895,-0.337873 -1.692015,-0.639309 -2.479061,-0.800295 -0.31071,-0.06294 -0.33456,-0.0689 -0.328598,-0.100037 0.05764,-0.239824 0.06426,-0.304086 0.06426,-0.603534 0,-0.273611 -0.0046,-0.333236 -0.0371,-0.46706 C 17.874722,8.9551799 17.715061,8.6656691 17.393087,8.3436959 17.084364,8.0329851 16.755766,7.8507986 16.347006,7.7640116 16.170119,7.7269116 15.707697,7.7090246 15.548698,7.7335366 Z M 16.04822,9.620988 c 0.09474,0.06426 0.149724,0.157674 0.162312,0.273611 l 0.0079,0.08546 -0.135149,0.160986 c -0.0742,0.08878 -0.146411,0.178874 -0.162311,0.201399 -0.0159,0.02385 -0.03246,0.03246 -0.04041,0.02385 -0.08679,-0.09672 -0.236511,-0.276923 -0.268973,-0.323298 -0.08082,-0.117262 -0.04174,-0.288186 0.09341,-0.413398 0.06095,-0.05499 0.07089,-0.05962 0.165624,-0.05962 0.08546,0 0.109312,0.0079 0.176886,0.05167 z m 0.0583,2.371074 c 0.217298,0.162312 0.336548,0.202724 0.753258,0.249762 1.062644,0.122561 1.831802,0.307398 2.710935,0.655208 1.112331,0.439235 2.127938,1.067282 3.011708,1.85764 0.204711,0.183511 0.673096,0.648584 0.84667,0.843358 0.729408,0.808245 1.381305,1.847702 1.810602,2.881196 0.286199,0.692309 0.505485,1.508504 0.624734,2.326025 0.02252,0.154361 0.04505,0.306073 0.04969,0.33456 l 0.0099,0.05167 H 5.8974518 v -0.04505 c 0,-0.141774 0.1238868,-0.846671 0.2106738,-1.201106 0.5604718,-2.276338 1.8914269,-4.292976 3.7974287,-5.751792 0.9751947,-0.746635 2.1345627,-1.310418 3.4125187,-1.661542 0.505484,-0.138462 0.80162,-0.194774 1.490616,-0.283548 0.241149,-0.03047 0.478323,-0.06426 0.524697,-0.0742 0.182187,-0.03843 0.367023,-0.156349 0.500848,-0.320648 l 0.06426,-0.07884 0.053,0.0689 c 0.02915,0.03843 0.09805,0.104674 0.154362,0.146412 z m 9.880469,10.855665 c 0,0.02584 -0.229886,0.314023 -0.360398,0.449172 -0.131837,0.137137 -0.284873,0.24976 -0.412072,0.300773 -0.0689,0.02915 -0.176887,0.03047 -2.076264,0.04372 -3.188594,0.0212 -16.3417958,0.0066 -16.4577326,-0.01789 C 6.5115858,23.589712 6.3585492,23.496302 6.1849752,23.32074 6.0995132,23.23395 5.9789388,23.093504 5.9160017,23.01003 l -0.1126244,-0.153036 0.2365112,-0.008 c 0.4186976,-0.0159 19.9477635,-0.01789 19.9477635,-0.0013 z"
     id="path2116"
     style="stroke-width:0.662496" />
</svg>
