<!-- Generated by IcoMoon.io -->
<svg version="1.1" xmlns="http://www.w3.org/2000/svg" width="40" height="40" viewBox="0 0 32 32">
<path fill="#141414" d="M7.125 0.044c-1.188 0.131-2.55 0.631-3.531 1.288-0.519 0.35-0.675 0.481-1.269 1.062-1.075 1.056-1.831 2.462-2.175 4.044-0.113 0.506-0.119 0.975-0.119 9.563s0.006 9.056 0.119 9.563c0.706 3.219 3.069 5.581 6.287 6.288 0.506 0.113 0.975 0.119 9.563 0.119s9.056-0.006 9.563-0.119c3.219-0.706 5.581-3.069 6.288-6.288 0.113-0.506 0.119-0.975 0.119-9.563s-0.006-9.056-0.119-9.563c-0.625-2.862-2.637-5.144-5.319-6.019-1.238-0.406-0.488-0.381-10.281-0.388-4.9-0.006-9.006 0-9.125 0.012zM25.063 2.775c0.587 0.125 1.344 0.431 1.806 0.738 1.212 0.794 2.119 2.138 2.375 3.519 0.050 0.25 0.069 3.063 0.069 8.994 0 7.106-0.019 8.706-0.087 9.038-0.206 0.975-0.731 1.95-1.431 2.675-0.706 0.725-1.875 1.344-2.869 1.512-0.275 0.044-3.1 0.063-9.175 0.050l-8.781-0.019-0.594-0.206c-0.825-0.288-1.494-0.7-2.094-1.294-0.8-0.788-1.281-1.656-1.506-2.719-0.125-0.606-0.125-17.519 0-18.125 0.444-2.081 2.050-3.7 4.131-4.156 0.569-0.125 17.569-0.131 18.156-0.006z"></path>
<path fill="#999999" d="M15.948 9.401c-0.394 0.131-0.688 0.356-0.856 0.662-0.094 0.162-0.113 0.5-0.137 2.406l-0.031 2.219-2.219 0.031c-1.906 0.025-2.244 0.044-2.406 0.137-0.906 0.5-0.906 1.85 0 2.35 0.162 0.094 0.5 0.113 2.406 0.137l2.219 0.031 0.031 2.219c0.031 2.394 0.037 2.413 0.387 2.725 0.619 0.563 1.537 0.469 2.019-0.212l0.188-0.275 0.031-2.225 0.031-2.231 4.456-0.063 0.275-0.188c0.681-0.481 0.775-1.4 0.212-2.019-0.313-0.35-0.331-0.356-2.725-0.387l-2.219-0.031-0.031-2.219c-0.031-2.394-0.038-2.412-0.387-2.725-0.325-0.3-0.894-0.456-1.244-0.344z"></path>
</svg>

