<!-- Generated by IcoMoon.io -->
<svg version="1.1" xmlns="http://www.w3.org/2000/svg" width="32" height="32" viewBox="0 0 32 32">
<path stroke-width="1" stroke="#000000" d="M5.344 0.087c-0.394 0.125-0.612 0.256-0.894 0.537-0.4 0.4-0.581 0.837-0.625 1.469l-0.031 0.531h-0.888c-0.719 0-0.975 0.025-1.3 0.125-0.55 0.169-1.012 0.587-1.269 1.138l-0.181 0.394v23.438l0.181 0.394c0.256 0.55 0.719 0.969 1.269 1.137 0.325 0.1 0.581 0.125 1.3 0.125h0.888l0.031 0.531c0.056 0.881 0.487 1.55 1.237 1.9l0.344 0.163h5.688l0.356-0.169c0.744-0.344 1.169-1.006 1.225-1.9l0.031-0.525h8.638c8.5 0 8.65 0 9.050-0.125 0.55-0.169 1.012-0.587 1.269-1.137l0.181-0.394v-23.438l-0.181-0.394c-0.256-0.55-0.719-0.969-1.269-1.138-0.4-0.125-0.55-0.125-9.050-0.125h-8.637l-0.031-0.525c-0.056-0.906-0.475-1.55-1.231-1.906l-0.35-0.163-2.75-0.013c-2.1-0.013-2.806 0.006-3 0.069zM11.031 1.119c0.3 0.137 0.431 0.275 0.563 0.587 0.081 0.2 0.094 1.775 0.094 14.294s-0.012 14.094-0.094 14.294c-0.131 0.313-0.262 0.45-0.563 0.587-0.231 0.106-0.456 0.119-2.781 0.119s-2.55-0.012-2.781-0.119c-0.306-0.137-0.456-0.3-0.569-0.613-0.125-0.356-0.125-28.181 0-28.538 0.112-0.313 0.263-0.475 0.569-0.613 0.231-0.106 0.456-0.119 2.781-0.119s2.55 0.013 2.781 0.119zM3.813 16.006v12.375l-0.956-0.019c-0.919-0.019-0.969-0.025-1.212-0.188-0.137-0.087-0.3-0.269-0.369-0.406-0.113-0.231-0.119-0.569-0.137-11.613-0.012-8.069 0.006-11.456 0.050-11.65 0.094-0.375 0.262-0.594 0.575-0.75 0.238-0.112 0.381-0.131 1.163-0.131h0.888v12.381zM30.356 3.825c0.137 0.087 0.3 0.269 0.369 0.406 0.113 0.231 0.119 0.55 0.119 11.769s-0.006 11.538-0.119 11.769c-0.069 0.137-0.231 0.319-0.369 0.406l-0.256 0.169-17.413 0.031v-24.75l17.413 0.031 0.256 0.169z"></path>
<path stroke-width="1" stroke="#000000" d="M15.569 6.244c-0.069 0.069-0.144 0.219-0.162 0.331s-0.031 1.675-0.019 3.469l0.019 3.262 0.287 0.287 12.063 0.031 0.188-0.181 0.181-0.181v-3.406c0-3.35 0-3.406-0.131-3.569l-0.125-0.162h-6.094c-5.944 0-6.088 0-6.206 0.119zM27.125 9.875v2.75l-10.719-0.031-0.019-2.738-0.012-2.731h10.75v2.75z"></path>
<path stroke-width="1" stroke="#000000" d="M16.281 14.875c-0.1 0.031-0.225 0.106-0.262 0.169-0.125 0.162-0.1 0.5 0.044 0.644 0.119 0.119 0.206 0.125 1.375 0.125s1.256-0.006 1.375-0.125c0.163-0.162 0.163-0.5 0.006-0.694-0.119-0.144-0.144-0.15-1.238-0.162-0.613-0.006-1.194 0.012-1.3 0.044z"></path>
<path stroke-width="1" stroke="#000000" d="M20.606 14.875c-0.356 0.113-0.475 0.537-0.231 0.8 0.125 0.131 0.175 0.137 1.406 0.137 1.244 0 1.275 0 1.369-0.137 0.137-0.194 0.125-0.506-0.019-0.681-0.119-0.144-0.144-0.15-1.238-0.162-0.613-0.006-1.194 0.012-1.288 0.044z"></path>
<path stroke-width="1" stroke="#000000" d="M24.919 14.875c-0.356 0.113-0.462 0.475-0.225 0.775l0.125 0.162h1.269c1.438 0 1.475-0.012 1.475-0.481 0-0.45-0.087-0.488-1.369-0.5-0.606-0.006-1.181 0.012-1.275 0.044z"></path>
<path stroke-width="1" stroke="#000000" d="M16.094 18.344c-0.1 0.094-0.156 0.225-0.156 0.344s0.056 0.25 0.156 0.344c0.15 0.156 0.156 0.156 1.363 0.156 1.181 0 1.212 0 1.344-0.144 0.2-0.212 0.188-0.556-0.025-0.725-0.156-0.125-0.25-0.131-1.35-0.131-1.169 0-1.181 0-1.331 0.156z"></path>
<path stroke-width="1" stroke="#000000" d="M20.406 18.344c-0.1 0.094-0.156 0.225-0.156 0.344s0.056 0.25 0.156 0.344c0.15 0.156 0.156 0.156 1.363 0.156 1.131 0 1.219-0.006 1.344-0.125 0.206-0.194 0.188-0.575-0.025-0.744-0.156-0.125-0.25-0.131-1.35-0.131-1.169 0-1.181 0-1.331 0.156z"></path>
<path stroke-width="1" stroke="#000000" d="M24.719 18.344c-0.1 0.094-0.156 0.225-0.156 0.344s0.056 0.25 0.156 0.344c0.15 0.156 0.156 0.156 1.375 0.156 1.137 0 1.225-0.006 1.344-0.125 0.194-0.194 0.169-0.581-0.038-0.744-0.156-0.125-0.25-0.131-1.35-0.131-1.169 0-1.181 0-1.331 0.156z"></path>
<path stroke-width="1" stroke="#000000" d="M16.075 21.706c-0.169 0.181-0.175 0.481-0.019 0.675 0.119 0.15 0.144 0.15 1.331 0.169 1.156 0.019 1.219 0.012 1.381-0.113 0.212-0.169 0.238-0.556 0.044-0.75-0.119-0.119-0.206-0.125-1.363-0.125-1.219 0-1.244 0-1.375 0.144z"></path>
<path stroke-width="1" stroke="#000000" d="M20.381 21.725c-0.163 0.206-0.169 0.469-0.012 0.656 0.119 0.15 0.144 0.15 1.331 0.169 1.156 0.019 1.219 0.012 1.381-0.113 0.212-0.169 0.238-0.556 0.044-0.75-0.119-0.119-0.206-0.125-1.369-0.125h-1.25l-0.125 0.163z"></path>
<path stroke-width="1" stroke="#000000" d="M24.694 21.725c-0.163 0.206-0.169 0.469-0.012 0.656 0.119 0.15 0.144 0.15 1.331 0.169 1.156 0.019 1.219 0.012 1.381-0.113 0.212-0.169 0.238-0.556 0.044-0.75-0.119-0.119-0.206-0.125-1.369-0.125h-1.25l-0.125 0.163z"></path>
<path stroke-width="1" stroke="#000000" d="M16.212 24.962c-0.306 0.137-0.381 0.525-0.15 0.775 0.125 0.131 0.175 0.137 1.375 0.137 1.169 0 1.256-0.006 1.375-0.125 0.163-0.163 0.163-0.5 0.006-0.694-0.119-0.144-0.144-0.15-1.269-0.169-0.869-0.006-1.188 0.006-1.337 0.075z"></path>
<path stroke-width="1" stroke="#000000" d="M20.525 24.962c-0.313 0.137-0.381 0.544-0.131 0.775 0.137 0.131 0.2 0.137 1.375 0.137 1.15 0 1.238-0.006 1.356-0.125 0.175-0.175 0.169-0.563-0.006-0.725-0.119-0.106-0.25-0.119-1.269-0.131-0.856-0.012-1.181 0.006-1.325 0.069z"></path>
<path stroke-width="1" stroke="#000000" d="M24.881 24.944c-0.331 0.131-0.413 0.481-0.188 0.769l0.125 0.163h1.25c1.163 0 1.25-0.006 1.369-0.125 0.175-0.175 0.169-0.563-0.006-0.725-0.119-0.106-0.25-0.119-1.269-0.131-0.644-0.006-1.194 0.012-1.281 0.050z"></path>
</svg>
