<!-- Generated by IcoMoon.io -->
<svg version="1.1" xmlns="http://www.w3.org/2000/svg" width="33" height="32" viewBox="0 0 33 32">
<title>sideDishCard</title>
<path fill="#f7f7f7" d="M-0.013-0.013c11.072 0 22.143 0 33.215 0 0 10.667 0 21.333 0 32-11.072 0-22.143 0-33.215 0 0-10.667 0-21.333 0-32z"></path>
<path fill="#909090" d="M14.461 3.254c-0.102-0.007-0.201 0.002-0.297 0.027 0.037-0.035 0.087-0.053 0.149-0.054 0.055 0 0.104 0.009 0.149 0.027z"></path>
<path fill="#909090" d="M17.296 3.254c-0.102-0.007-0.201 0.002-0.297 0.027 0.037-0.035 0.087-0.053 0.149-0.054 0.055 0 0.104 0.009 0.149 0.027z"></path>
<path fill="#909090" d="M20.132 3.254c-0.102-0.007-0.201 0.002-0.297 0.027 0.037-0.035 0.087-0.053 0.149-0.054 0.055 0 0.104 0.009 0.149 0.027z"></path>
<path fill="#2d2d2d" d="M14.461 3.254c0.018 0.018 0.036 0.036 0.054 0.054-0.183-0.046-0.354-0.019-0.513 0.081 0.031-0.067 0.085-0.103 0.162-0.108 0.096-0.025 0.195-0.034 0.297-0.027z"></path>
<path fill="#2d2d2d" d="M17.296 3.254c0.018 0.018 0.036 0.036 0.054 0.054-0.183-0.046-0.354-0.019-0.513 0.081 0.031-0.067 0.085-0.103 0.162-0.108 0.096-0.025 0.195-0.034 0.297-0.027z"></path>
<path fill="#2d2d2d" d="M20.132 3.254c0.018 0.018 0.036 0.036 0.054 0.054-0.183-0.046-0.354-0.019-0.513 0.081 0.031-0.067 0.085-0.103 0.162-0.108 0.096-0.025 0.195-0.034 0.297-0.027z"></path>
<path fill="#020202" d="M14.515 3.308c0.173 0.075 0.299 0.201 0.378 0.378 0.022 0.067 0.058 0.121 0.108 0.162-0.005 0.027 0.004 0.045 0.027 0.054 0.035 0.128 0.076 0.254 0.122 0.378 0.010 0.015 0.024 0.024 0.040 0.027 0 0.036 0 0.072 0 0.108 0.011 0.159 0.038 0.312 0.081 0.459 0 0.162 0 0.324 0 0.486-0.020 0.011-0.033 0.029-0.040 0.054-0.011 0.136-0.025 0.271-0.040 0.405 0 0.027 0 0.054 0 0.081-0.017 0.003-0.030 0.012-0.040 0.027-0.018 0.093-0.040 0.183-0.068 0.27-0.004 0.045-0.022 0.081-0.054 0.108-0.089 0.16-0.179 0.322-0.27 0.486-0.064 0.037-0.109 0.091-0.135 0.162-0.093 0.099-0.156 0.216-0.189 0.351 0 0.009 0 0.018 0 0.027-0.017 0.003-0.030 0.012-0.040 0.027-0.071 0.305-0.084 0.611-0.040 0.918 0.026 0.048 0.035 0.102 0.027 0.162-0.007 0.065 0.011 0.119 0.054 0.162 0.101 0.212 0.209 0.419 0.324 0.621 0.051 0.206 0.006 0.386-0.135 0.54-0.021 0.043-0.057 0.061-0.108 0.054-0.117 0.036-0.234 0.036-0.351 0-0.105-0.065-0.2-0.146-0.284-0.243-0.035-0.084-0.085-0.156-0.149-0.216 0.010-0.059-0.008-0.104-0.054-0.135-0.007-0.067-0.034-0.121-0.081-0.162 0.003-0.070-0.015-0.133-0.054-0.189-0.040-0.233-0.072-0.467-0.095-0.702-0.008-0.025-0.021-0.043-0.040-0.054 0.009-0.299 0.037-0.596 0.081-0.891 0-0.009 0-0.018 0-0.027 0.017-0.003 0.030-0.012 0.040-0.027 0.020-0.092 0.043-0.182 0.068-0.27 0.045-0.13 0.099-0.256 0.162-0.378 0.056-0.029 0.092-0.074 0.108-0.135 0.065-0.038 0.11-0.092 0.135-0.162 0.137-0.122 0.218-0.275 0.243-0.459 0-0.018 0-0.036 0-0.054 0.046-0.031 0.064-0.076 0.054-0.135 0.020-0.011 0.033-0.029 0.040-0.054 0.018-0.261 0.018-0.522 0-0.783-0.010-0.015-0.024-0.024-0.040-0.027 0.009-0.074-0.009-0.137-0.054-0.189-0.027-0.153-0.090-0.288-0.189-0.405-0.016-0.061-0.052-0.106-0.108-0.135-0.016-0.024-0.025-0.051-0.027-0.081-0.054-0.186-0.027-0.357 0.081-0.513 0.159-0.1 0.33-0.127 0.513-0.081z"></path>
<path fill="#020202" d="M17.35 3.308c0.173 0.075 0.299 0.201 0.378 0.378 0.022 0.067 0.058 0.121 0.108 0.162-0.005 0.027 0.004 0.045 0.027 0.054 0.035 0.128 0.076 0.254 0.122 0.378 0.010 0.015 0.024 0.024 0.041 0.027 0 0.036 0 0.072 0 0.108 0.011 0.159 0.038 0.312 0.081 0.459 0 0.162 0 0.324 0 0.486-0.020 0.011-0.033 0.029-0.041 0.054-0.011 0.136-0.025 0.271-0.041 0.405 0 0.027 0 0.054 0 0.081-0.017 0.003-0.030 0.012-0.041 0.027-0.018 0.093-0.040 0.183-0.067 0.27-0.004 0.045-0.022 0.081-0.054 0.108-0.089 0.16-0.179 0.322-0.27 0.486-0.064 0.037-0.109 0.091-0.135 0.162-0.093 0.099-0.156 0.216-0.189 0.351 0 0.009 0 0.018 0 0.027-0.017 0.003-0.030 0.012-0.041 0.027-0.071 0.305-0.084 0.611-0.041 0.918 0.026 0.048 0.035 0.102 0.027 0.162-0.006 0.065 0.012 0.119 0.054 0.162 0.101 0.212 0.209 0.419 0.324 0.621 0.051 0.206 0.006 0.386-0.135 0.54-0.021 0.043-0.057 0.061-0.108 0.054-0.117 0.036-0.234 0.036-0.351 0-0.105-0.065-0.2-0.146-0.284-0.243-0.035-0.084-0.085-0.156-0.149-0.216 0.010-0.059-0.008-0.104-0.054-0.135-0.007-0.067-0.034-0.121-0.081-0.162 0.003-0.070-0.015-0.133-0.054-0.189-0.040-0.233-0.072-0.467-0.095-0.702-0.008-0.025-0.021-0.043-0.041-0.054 0.009-0.299 0.037-0.596 0.081-0.891 0-0.009 0-0.018 0-0.027 0.017-0.003 0.030-0.012 0.041-0.027 0.020-0.092 0.043-0.182 0.067-0.27 0.045-0.13 0.099-0.256 0.162-0.378 0.056-0.029 0.092-0.074 0.108-0.135 0.065-0.038 0.11-0.092 0.135-0.162 0.137-0.122 0.218-0.275 0.243-0.459 0-0.018 0-0.036 0-0.054 0.046-0.031 0.064-0.076 0.054-0.135 0.020-0.011 0.033-0.029 0.041-0.054 0.018-0.261 0.018-0.522 0-0.783-0.010-0.015-0.024-0.024-0.041-0.027 0.009-0.074-0.009-0.137-0.054-0.189-0.027-0.153-0.090-0.288-0.189-0.405-0.016-0.061-0.052-0.106-0.108-0.135-0.016-0.024-0.025-0.051-0.027-0.081-0.054-0.186-0.027-0.357 0.081-0.513 0.159-0.1 0.33-0.127 0.513-0.081z"></path>
<path fill="#020202" d="M20.186 3.308c0.173 0.075 0.299 0.201 0.378 0.378 0.022 0.067 0.058 0.121 0.108 0.162-0.005 0.027 0.004 0.045 0.027 0.054 0.035 0.128 0.076 0.254 0.122 0.378 0.010 0.015 0.024 0.024 0.041 0.027 0 0.036 0 0.072 0 0.108 0.011 0.159 0.038 0.312 0.081 0.459 0 0.162 0 0.324 0 0.486-0.020 0.011-0.033 0.029-0.041 0.054-0.011 0.136-0.025 0.271-0.041 0.405 0 0.027 0 0.054 0 0.081-0.017 0.003-0.030 0.012-0.041 0.027-0.018 0.093-0.040 0.183-0.067 0.27-0.004 0.045-0.022 0.081-0.054 0.108-0.089 0.16-0.179 0.322-0.27 0.486-0.064 0.037-0.109 0.091-0.135 0.162-0.093 0.099-0.156 0.216-0.189 0.351 0 0.009 0 0.018 0 0.027-0.017 0.003-0.030 0.012-0.041 0.027-0.071 0.305-0.084 0.611-0.041 0.918 0.026 0.048 0.035 0.102 0.027 0.162-0.006 0.065 0.012 0.119 0.054 0.162 0.101 0.212 0.209 0.419 0.324 0.621 0.051 0.206 0.006 0.386-0.135 0.54-0.021 0.043-0.057 0.061-0.108 0.054-0.117 0.036-0.234 0.036-0.351 0-0.105-0.065-0.2-0.146-0.284-0.243-0.035-0.084-0.085-0.156-0.149-0.216 0.010-0.059-0.008-0.104-0.054-0.135-0.007-0.067-0.034-0.121-0.081-0.162 0.003-0.070-0.015-0.133-0.054-0.189-0.040-0.233-0.072-0.467-0.095-0.702-0.008-0.025-0.021-0.043-0.041-0.054 0.009-0.299 0.037-0.596 0.081-0.891 0-0.009 0-0.018 0-0.027 0.017-0.003 0.030-0.012 0.041-0.027 0.020-0.092 0.043-0.182 0.067-0.27 0.045-0.13 0.099-0.256 0.162-0.378 0.056-0.029 0.092-0.074 0.108-0.135 0.065-0.038 0.11-0.092 0.135-0.162 0.137-0.122 0.218-0.275 0.243-0.459 0-0.018 0-0.036 0-0.054 0.046-0.031 0.064-0.076 0.054-0.135 0.020-0.011 0.033-0.029 0.041-0.054 0.018-0.261 0.018-0.522 0-0.783-0.010-0.015-0.024-0.024-0.041-0.027 0.009-0.074-0.009-0.137-0.054-0.189-0.027-0.153-0.090-0.288-0.189-0.405-0.016-0.061-0.052-0.106-0.108-0.135-0.016-0.024-0.025-0.051-0.027-0.081-0.054-0.186-0.027-0.357 0.081-0.513 0.159-0.1 0.33-0.127 0.513-0.081z"></path>
<path fill="#5d5d5d" d="M14.002 3.389c-0.108 0.156-0.135 0.327-0.081 0.513-0.020-0.011-0.033-0.029-0.040-0.054-0.018-0.099-0.018-0.198 0-0.297 0.017-0.075 0.057-0.129 0.122-0.162z"></path>
<path fill="#5d5d5d" d="M16.837 3.389c-0.108 0.156-0.135 0.327-0.081 0.513-0.020-0.011-0.033-0.029-0.041-0.054-0.018-0.099-0.018-0.198 0-0.297 0.017-0.075 0.057-0.129 0.122-0.162z"></path>
<path fill="#5d5d5d" d="M19.673 3.389c-0.108 0.156-0.135 0.327-0.081 0.513-0.020-0.011-0.033-0.029-0.041-0.054-0.018-0.099-0.018-0.198 0-0.297 0.017-0.075 0.057-0.129 0.122-0.162z"></path>
<path fill="#838383" d="M15.028 3.902c0.067 0.128 0.121 0.263 0.162 0.405-0.017-0.003-0.030-0.012-0.040-0.027-0.046-0.124-0.086-0.25-0.122-0.378z"></path>
<path fill="#838383" d="M17.863 3.902c0.067 0.128 0.121 0.263 0.162 0.405-0.017-0.003-0.030-0.012-0.041-0.027-0.046-0.124-0.086-0.25-0.122-0.378z"></path>
<path fill="#838383" d="M20.699 3.902c0.067 0.128 0.121 0.263 0.162 0.405-0.017-0.003-0.030-0.012-0.041-0.027-0.046-0.124-0.086-0.25-0.122-0.378z"></path>
<path fill="#4c4c4c" d="M15.19 4.415c0.017 0.003 0.030 0.012 0.040 0.027 0.013 0.071 0.018 0.143 0.014 0.216 0.009 0.072 0.018 0.144 0.027 0.216-0.043-0.147-0.070-0.3-0.081-0.459z"></path>
<path fill="#4c4c4c" d="M18.025 4.415c0.017 0.003 0.030 0.012 0.041 0.027 0.013 0.071 0.018 0.143 0.014 0.216 0.009 0.072 0.018 0.144 0.027 0.216-0.043-0.147-0.070-0.3-0.081-0.459z"></path>
<path fill="#4c4c4c" d="M20.861 4.415c0.017 0.003 0.030 0.012 0.041 0.027 0.013 0.071 0.018 0.143 0.014 0.216 0.009 0.072 0.018 0.144 0.027 0.216-0.043-0.147-0.070-0.3-0.081-0.459z"></path>
<path fill="#cacaca" d="M14.245 4.523c0.045 0.052 0.063 0.115 0.054 0.189 0.035 0.287 0.035 0.576 0 0.864 0.010 0.059-0.008 0.104-0.054 0.135 0.036-0.396 0.036-0.792 0-1.188z"></path>
<path fill="#cacaca" d="M17.080 4.523c0.045 0.052 0.063 0.115 0.054 0.189 0.035 0.287 0.035 0.576 0 0.864 0.010 0.059-0.008 0.104-0.054 0.135 0.036-0.396 0.036-0.792 0-1.188z"></path>
<path fill="#cacaca" d="M19.916 4.523c0.045 0.052 0.063 0.115 0.054 0.189 0.035 0.287 0.035 0.576 0 0.864 0.010 0.059-0.008 0.104-0.054 0.135 0.036-0.396 0.036-0.792 0-1.188z"></path>
<path fill="#565656" d="M14.299 4.712c0.017 0.003 0.030 0.012 0.040 0.027 0.018 0.261 0.018 0.522 0 0.783-0.008 0.025-0.021 0.043-0.040 0.054 0.035-0.289 0.035-0.577 0-0.864z"></path>
<path fill="#565656" d="M17.134 4.712c0.017 0.003 0.030 0.012 0.041 0.027 0.018 0.261 0.018 0.522 0 0.783-0.008 0.025-0.021 0.043-0.041 0.054 0.035-0.289 0.035-0.577 0-0.864z"></path>
<path fill="#565656" d="M19.97 4.712c0.017 0.003 0.030 0.012 0.041 0.027 0.018 0.261 0.018 0.522 0 0.783-0.008 0.025-0.021 0.043-0.041 0.054 0.035-0.289 0.035-0.577 0-0.864z"></path>
<path fill="#939393" d="M15.244 4.658c0.020 0.011 0.033 0.029 0.040 0.054 0.005 0.149 0.009 0.297 0.014 0.446-0 0.159-0.018 0.307-0.054 0.446 0.005-0.082 0.014-0.162 0.027-0.243 0-0.162 0-0.324 0-0.486-0.009-0.072-0.018-0.144-0.027-0.216z"></path>
<path fill="#939393" d="M18.079 4.658c0.020 0.011 0.033 0.029 0.041 0.054 0.005 0.149 0.009 0.297 0.014 0.446-0 0.159-0.018 0.307-0.054 0.446 0.006-0.082 0.015-0.162 0.027-0.243 0-0.162 0-0.324 0-0.486-0.009-0.072-0.018-0.144-0.027-0.216z"></path>
<path fill="#939393" d="M20.915 4.658c0.020 0.011 0.033 0.029 0.041 0.054 0.005 0.149 0.009 0.297 0.014 0.446-0 0.159-0.018 0.307-0.054 0.446 0.006-0.082 0.015-0.162 0.027-0.243 0-0.162 0-0.324 0-0.486-0.009-0.072-0.018-0.144-0.027-0.216z"></path>
<path fill="#575757" d="M15.271 5.36c-0.012 0.081-0.021 0.162-0.027 0.243 0.004 0.064-0 0.127-0.014 0.189-0.010 0.015-0.024 0.024-0.040 0.027 0.016-0.135 0.029-0.27 0.040-0.405 0.008-0.025 0.021-0.043 0.040-0.054z"></path>
<path fill="#575757" d="M18.106 5.36c-0.012 0.081-0.021 0.162-0.027 0.243 0.004 0.064-0 0.127-0.014 0.189-0.010 0.015-0.024 0.024-0.041 0.027 0.016-0.135 0.029-0.27 0.041-0.405 0.008-0.025 0.021-0.043 0.041-0.054z"></path>
<path fill="#575757" d="M20.942 5.36c-0.012 0.081-0.021 0.162-0.027 0.243 0.004 0.064-0 0.127-0.014 0.189-0.010 0.015-0.024 0.024-0.041 0.027 0.016-0.135 0.029-0.27 0.041-0.405 0.008-0.025 0.021-0.043 0.041-0.054z"></path>
<path fill="#727272" d="M15.19 5.9c-0.005 0.114-0.041 0.213-0.108 0.297 0.027-0.087 0.050-0.177 0.068-0.27 0.010-0.015 0.024-0.024 0.040-0.027z"></path>
<path fill="#727272" d="M18.025 5.9c-0.005 0.114-0.041 0.213-0.108 0.297 0.027-0.087 0.050-0.177 0.067-0.27 0.010-0.015 0.024-0.024 0.041-0.027z"></path>
<path fill="#727272" d="M20.861 5.9c-0.005 0.114-0.041 0.213-0.108 0.297 0.027-0.087 0.050-0.177 0.067-0.27 0.010-0.015 0.024-0.024 0.041-0.027z"></path>
<path fill="#707070" d="M13.597 6.9c-0.025 0.088-0.047 0.178-0.068 0.27-0.010 0.015-0.024 0.024-0.040 0.027-0.001-0.116 0.035-0.215 0.108-0.297z"></path>
<path fill="#707070" d="M16.432 6.9c-0.025 0.088-0.047 0.178-0.067 0.27-0.010 0.015-0.024 0.024-0.041 0.027-0.001-0.116 0.035-0.215 0.108-0.297z"></path>
<path fill="#707070" d="M19.267 6.9c-0.025 0.088-0.047 0.178-0.067 0.27-0.010 0.015-0.024 0.024-0.041 0.027-0.001-0.116 0.035-0.215 0.108-0.297z"></path>
<path fill="#717171" d="M14.434 7.332c-0.059 0.312-0.086 0.627-0.081 0.945-0.044-0.307-0.030-0.613 0.040-0.918 0.010-0.015 0.024-0.024 0.040-0.027z"></path>
<path fill="#717171" d="M17.269 7.332c-0.059 0.312-0.086 0.627-0.081 0.945-0.044-0.307-0.030-0.613 0.041-0.918 0.010-0.015 0.024-0.024 0.041-0.027z"></path>
<path fill="#717171" d="M20.105 7.332c-0.059 0.312-0.086 0.627-0.081 0.945-0.044-0.307-0.030-0.613 0.041-0.918 0.010-0.015 0.024-0.024 0.041-0.027z"></path>
<path fill="#737373" d="M13.489 7.224c-0.044 0.295-0.072 0.593-0.081 0.891 0 0.036 0 0.072 0 0.108-0.031-0.202-0.036-0.409-0.014-0.621 0.018-0.133 0.050-0.259 0.095-0.378z"></path>
<path fill="#737373" d="M16.324 7.224c-0.044 0.295-0.072 0.593-0.081 0.891 0 0.036 0 0.072 0 0.108-0.031-0.202-0.036-0.409-0.014-0.621 0.018-0.133 0.050-0.259 0.095-0.378z"></path>
<path fill="#737373" d="M19.16 7.224c-0.044 0.295-0.072 0.593-0.081 0.891 0 0.036 0 0.072 0 0.108-0.031-0.202-0.036-0.409-0.014-0.621 0.018-0.133 0.050-0.259 0.095-0.378z"></path>
<path fill="#323232" d="M13.408 8.115c0.020 0.011 0.033 0.029 0.040 0.054 0.023 0.236 0.054 0.47 0.095 0.702-0.084-0.205-0.129-0.421-0.135-0.648 0-0.036 0-0.072 0-0.108z"></path>
<path fill="#323232" d="M16.243 8.115c0.020 0.011 0.033 0.029 0.041 0.054 0.023 0.236 0.054 0.47 0.095 0.702-0.084-0.205-0.129-0.421-0.135-0.648 0-0.036 0-0.072 0-0.108z"></path>
<path fill="#323232" d="M19.078 8.115c0.020 0.011 0.033 0.029 0.041 0.054 0.023 0.236 0.054 0.47 0.095 0.702-0.084-0.205-0.129-0.421-0.135-0.648 0-0.036 0-0.072 0-0.108z"></path>
<path fill="#656565" d="M14.758 9.222c0.017 0.003 0.030 0.012 0.040 0.027 0.031 0.165 0.004 0.318-0.081 0.459-0.022 0.036-0.054 0.054-0.095 0.054 0.141-0.154 0.186-0.334 0.135-0.54z"></path>
<path fill="#656565" d="M17.593 9.222c0.017 0.003 0.030 0.012 0.041 0.027 0.031 0.165 0.004 0.318-0.081 0.459-0.022 0.036-0.054 0.054-0.095 0.054 0.141-0.154 0.186-0.334 0.135-0.54z"></path>
<path fill="#656565" d="M20.429 9.222c0.017 0.003 0.030 0.012 0.041 0.027 0.031 0.165 0.004 0.318-0.081 0.459-0.022 0.036-0.054 0.054-0.095 0.054 0.141-0.154 0.186-0.334 0.135-0.54z"></path>
<path fill="#949494" d="M14.164 9.816c0.117 0.036 0.234 0.036 0.351 0-0.042 0.035-0.096 0.053-0.162 0.054-0.054-0.005-0.108-0.009-0.162-0.014-0.015-0.010-0.024-0.024-0.027-0.040z"></path>
<path fill="#949494" d="M16.999 9.816c0.117 0.036 0.234 0.036 0.351 0-0.042 0.035-0.096 0.053-0.162 0.054-0.054-0.005-0.108-0.009-0.162-0.014-0.015-0.010-0.024-0.024-0.027-0.040z"></path>
<path fill="#949494" d="M19.835 9.816c0.117 0.036 0.234 0.036 0.351 0-0.042 0.035-0.096 0.053-0.162 0.054-0.054-0.005-0.108-0.009-0.162-0.014-0.015-0.010-0.024-0.024-0.027-0.040z"></path>
<path fill="#8a8a8a" d="M17.134 10.842c-0.197-0.023-0.395-0.032-0.594-0.027-0.109 0-0.217 0.009-0.324 0.027 0.011-0.020 0.029-0.033 0.054-0.040 0.27-0.018 0.54-0.018 0.81 0 0.025 0.008 0.043 0.021 0.054 0.040z"></path>
<path fill="#010101" d="M16.54 10.815c0.199-0.005 0.397 0.004 0.594 0.027 0.054 0 0.108 0 0.162 0 0.21 0.071 0.426 0.134 0.648 0.189 0.226 0.101 0.442 0.218 0.648 0.351 0.038 0.065 0.092 0.11 0.162 0.135 0.073 0.064 0.145 0.127 0.216 0.189 0.038 0.065 0.092 0.11 0.162 0.135 0.003 0.017 0.012 0.030 0.027 0.040 0.144 0.013 0.288 0.018 0.432 0.014 0.211-0.021 0.418-0.052 0.621-0.095 0.025-0.008 0.043-0.021 0.054-0.040 0.226-0.004 0.451 0.005 0.675 0.027 0.121 0.031 0.247 0.053 0.378 0.068 0.136 0.071 0.28 0.121 0.432 0.149 0.058 0.033 0.121 0.060 0.189 0.081 0.073 0.055 0.154 0.1 0.243 0.135 0.070 0.045 0.142 0.090 0.216 0.135 0.029 0.056 0.074 0.092 0.135 0.108 0.073 0.064 0.145 0.127 0.216 0.189 0.045 0.063 0.099 0.117 0.162 0.162 0.214 0.237 0.404 0.494 0.567 0.77 0.032 0.011 0.059 0.029 0.081 0.054 0.173 0.026 0.344 0.057 0.513 0.095 0.043 0.043 0.097 0.061 0.162 0.054 0.081 0.018 0.162 0.036 0.243 0.054 0.003 0.017 0.012 0.030 0.027 0.040 0.111 0.024 0.219 0.056 0.324 0.095 0.109 0.091 0.235 0.154 0.378 0.189 0.013 0.038 0.040 0.056 0.081 0.054 0.085 0.091 0.184 0.163 0.297 0.216 0.090 0.072 0.171 0.153 0.243 0.243 0.016 0.061 0.052 0.106 0.108 0.135 0.12 0.159 0.219 0.33 0.297 0.513 0.010 0.087 0.046 0.159 0.108 0.216 0.063 0.216 0.126 0.432 0.189 0.648 0.013 0.137 0.031 0.272 0.054 0.405-0.011 0.333-0.015 0.666-0.014 0.999 0.019 0.024 0.042 0.042 0.067 0.054 0.109 0.158 0.253 0.271 0.432 0.338 0.269 0.223 0.526 0.461 0.77 0.716 0.074 0.105 0.142 0.213 0.203 0.324 0.021 0.102 0.066 0.192 0.135 0.27 0.088 0.027 0.178 0.036 0.27 0.027 0.32 0.161 0.437 0.422 0.351 0.783-0.044 0.136-0.080 0.28-0.108 0.432-0.017 0.003-0.030 0.012-0.041 0.027-0.012 0.064-0.025 0.127-0.041 0.189 0 0.018 0 0.036 0 0.054-0.072 0.094-0.117 0.202-0.135 0.324-0.063 0.035-0.099 0.089-0.108 0.162 0 0.009 0 0.018 0 0.027-0.082 0.075-0.145 0.165-0.189 0.27 0 0.018-0.009 0.027-0.027 0.027-0.134 0.17-0.278 0.332-0.432 0.486-0.108 0.081-0.207 0.171-0.297 0.27-0.087 0.015-0.15 0.060-0.189 0.135-0.041-0.002-0.068 0.016-0.081 0.054-0.181 0.101-0.361 0.2-0.54 0.297-0.152 0.048-0.305 0.093-0.459 0.135-0.117 0.014-0.234 0.028-0.351 0.041-0.015 0.010-0.024 0.024-0.027 0.041-0.068 0.096-0.113 0.204-0.135 0.324-0.063 0.035-0.099 0.089-0.108 0.162 0 0.009 0 0.018 0 0.027-0.066 0.067-0.111 0.148-0.135 0.243-0.068 0.096-0.113 0.204-0.135 0.324-0.076 0.080-0.139 0.17-0.189 0.27-0.064 0.073-0.127 0.145-0.189 0.216-0.181 0.101-0.361 0.2-0.54 0.297-0.009 0-0.018 0-0.027 0-5.059 0.036-10.118 0.036-15.176 0-0.152-0.028-0.296-0.077-0.432-0.149-0.113-0.090-0.221-0.185-0.324-0.284-0.064-0.091-0.127-0.181-0.189-0.27-0.007-0.067-0.034-0.121-0.081-0.162-0.028-0.077-0.064-0.149-0.108-0.216-0.007-0.067-0.034-0.121-0.081-0.162-0.028-0.077-0.064-0.149-0.108-0.216-0.007-0.067-0.034-0.121-0.081-0.162-0.027-0.108-0.081-0.198-0.162-0.27-0.054-0.038-0.117-0.056-0.189-0.054-0.054 0-0.108 0-0.162 0-0.003-0.017-0.012-0.030-0.027-0.041-0.064-0.012-0.127-0.025-0.189-0.041-0.059 0.010-0.104-0.008-0.135-0.054-0.191-0.073-0.38-0.154-0.567-0.243-0.125-0.053-0.242-0.121-0.351-0.203-0.059-0.064-0.123-0.123-0.189-0.176-0.038-0.065-0.092-0.11-0.162-0.135-0.033-0.094-0.096-0.157-0.189-0.189-0.091-0.118-0.181-0.235-0.27-0.351-0.067-0.084-0.121-0.174-0.162-0.27 0.005-0.027-0.004-0.045-0.027-0.054-0.021-0.081-0.057-0.153-0.108-0.216-0.010-0.066-0.028-0.129-0.054-0.189-0.056-0.249-0.119-0.492-0.189-0.729-0.004-0.153 0-0.306 0.013-0.459 0.029-0.075 0.069-0.138 0.122-0.189 0.155-0.071 0.317-0.125 0.486-0.162 0.078-0.133 0.15-0.268 0.216-0.405 0.090-0.090 0.171-0.189 0.243-0.297 0.016-0.061 0.052-0.106 0.108-0.135 0.072-0.018 0.117-0.063 0.135-0.135 0.13-0.022 0.22-0.094 0.27-0.216 0.071-0.035 0.134-0.080 0.189-0.135 0.070-0.025 0.124-0.070 0.162-0.135 0.013-0.038 0.040-0.056 0.081-0.054 0.076-0.013 0.112-0.058 0.108-0.135 0.018 0 0.027-0.009 0.027-0.027 0.019-0.011 0.033-0.029 0.040-0.054 0.005-0.063 0.009-0.126 0.013-0.189-0.034-0.351-0.034-0.703 0-1.053 0-0.027 0-0.054 0-0.081 0.038-0.054 0.056-0.117 0.054-0.189 0-0.027 0-0.054 0-0.081 0.046-0.031 0.064-0.076 0.054-0.135 0.083-0.13 0.146-0.274 0.189-0.432 0.075-0.135 0.147-0.274 0.216-0.419 0.072-0.049 0.117-0.117 0.135-0.203 0.045-0.018 0.081-0.045 0.108-0.081 0.054-0.036 0.099-0.081 0.135-0.135 0.062-0.044 0.116-0.098 0.162-0.162 0.061-0.016 0.106-0.052 0.135-0.108 0.078-0.037 0.145-0.091 0.203-0.162 0.039-0.018 0.079-0.027 0.122-0.027 0.121-0.043 0.229-0.106 0.324-0.189 0.134-0.070 0.278-0.115 0.432-0.135 0.065 0.007 0.119-0.011 0.162-0.054 0.009 0 0.018 0 0.027 0 0.089-0.015 0.179-0.024 0.27-0.027 0.183 0.005 0.327-0.067 0.432-0.216 0.026-0.053 0.062-0.098 0.108-0.135 0.056-0.029 0.092-0.074 0.108-0.135 0.093-0.057 0.156-0.138 0.189-0.243 0.018 0 0.027-0.009 0.027-0.027 0.145-0.12 0.271-0.255 0.378-0.405 0.108-0.072 0.207-0.153 0.297-0.243 0.071-0.035 0.134-0.080 0.189-0.135 0.112-0.007 0.202-0.052 0.27-0.135 0.051-0.008 0.096-0.026 0.135-0.054 0.078-0.004 0.141-0.031 0.189-0.081 0.009 0 0.018 0 0.027 0 0.271-0.049 0.541-0.094 0.81-0.135 0.090 0 0.18 0 0.27 0 0.003 0.017 0.012 0.030 0.027 0.040 0.199 0.009 0.397 0.022 0.594 0.040 0.018 0 0.036 0 0.054 0 0.095 0.042 0.199 0.060 0.311 0.054 0.082-0 0.158-0.009 0.23-0.027 0.036-0.009 0.072-0.018 0.108-0.027 0.099-0.027 0.162-0.090 0.189-0.189 0.013-0.038 0.040-0.056 0.081-0.054 0.089-0.044 0.161-0.107 0.216-0.189 0.122-0.047 0.23-0.119 0.324-0.216 0.107-0.036 0.206-0.085 0.297-0.149 0.035-0.013 0.071-0.018 0.108-0.014 0.078-0.004 0.141-0.031 0.189-0.081 0.009 0 0.018 0 0.027 0 0.043 0.007 0.079-0.002 0.108-0.027 0.238-0.028 0.472-0.064 0.702-0.108z"></path>
<path fill="#373737" d="M16.54 10.815c-0.23 0.044-0.464 0.080-0.702 0.108 0.076-0.016 0.148-0.043 0.216-0.081 0.054 0 0.108 0 0.162 0 0.107-0.018 0.215-0.027 0.324-0.027z"></path>
<path fill="#afafaf" d="M16.054 10.842c-0.068 0.038-0.14 0.065-0.216 0.081-0.029 0.025-0.065 0.034-0.108 0.027 0.008-0.018 0.017-0.036 0.027-0.054 0.097-0.028 0.196-0.046 0.297-0.054z"></path>
<path fill="#b4b4b4" d="M17.296 10.842c0.117 0.014 0.234 0.028 0.351 0.040 0.109 0.037 0.208 0.087 0.297 0.149-0.222-0.055-0.438-0.118-0.648-0.189z"></path>
<path fill="#979797" d="M13.408 11.787c-0.144-0.009-0.288-0.018-0.432-0.027-0.090 0-0.18 0-0.27 0-0.126 0.005-0.252 0.014-0.378 0.027 0.003-0.017 0.012-0.030 0.027-0.040 0.342-0.018 0.684-0.018 1.026 0 0.015 0.010 0.024 0.024 0.027 0.040z"></path>
<path fill="#606060" d="M17.053 11.787c-0.329-0.048-0.653-0.030-0.972 0.054 0.070-0.045 0.151-0.077 0.243-0.095 0.122-0.005 0.243-0.009 0.365-0.014 0.132 0 0.253 0.018 0.365 0.054z"></path>
<path fill="#939393" d="M20.942 11.787c-0.224-0.022-0.449-0.031-0.675-0.027-0.089 0.015-0.179 0.024-0.27 0.027 0.143-0.036 0.296-0.054 0.459-0.054 0.153 0.005 0.306 0.009 0.459 0.014 0.015 0.010 0.024 0.024 0.027 0.040z"></path>
<path fill="#2a2a2a" d="M12.976 11.76c0.144 0.009 0.288 0.018 0.432 0.027 0.072-0.002 0.135 0.016 0.189 0.054-0.197-0.018-0.395-0.032-0.594-0.040-0.015-0.010-0.024-0.024-0.027-0.040z"></path>
<path fill="#f7f7f7" d="M17.053 11.787c0.15 0.075 0.312 0.111 0.486 0.108 0.070 0.014 0.133 0.041 0.189 0.081 0.086 0.074 0.185 0.128 0.297 0.162 0.082 0.081 0.172 0.153 0.27 0.216 0.064 0.091 0.145 0.162 0.243 0.216 0.081 0.068 0.171 0.122 0.27 0.162 0.031 0.046 0.076 0.064 0.135 0.054 0.003 0.017 0.012 0.030 0.027 0.040 0.234 0.014 0.468 0.018 0.702 0.014 0.199-0.019 0.388-0.064 0.567-0.135 0.226-0.001 0.451 0.008 0.675 0.027 0.133 0.035 0.268 0.067 0.405 0.095 0.362 0.149 0.668 0.369 0.918 0.662 0.082 0.109 0.163 0.217 0.243 0.324 0.096 0.159 0.213 0.303 0.351 0.432 0.138 0.163 0.318 0.262 0.54 0.297 0.131 0.048 0.266 0.075 0.405 0.081 0.003 0.017 0.012 0.030 0.027 0.040 0.081 0.009 0.162 0.018 0.243 0.027 0.089 0.041 0.179 0.072 0.27 0.095 0.32 0.122 0.604 0.302 0.851 0.54 0.032 0.064 0.064 0.127 0.095 0.189 0.055 0.185 0.137 0.356 0.243 0.513 0.007 0.075 0.034 0.138 0.081 0.189 0 0.027 0 0.054 0 0.081 0.023 0.21 0.041 0.422 0.054 0.635-0.031 0.243-0.031 0.482 0 0.716 0.023 0.109 0.054 0.217 0.095 0.324 0.010 0.015 0.024 0.024 0.041 0.027 0.081 0.167 0.189 0.315 0.324 0.446 0.15 0.131 0.303 0.257 0.459 0.378 0.171 0.090 0.315 0.211 0.432 0.365 0 0.041 0.018 0.072 0.054 0.095-6.895 0.018-13.79 0.018-20.685 0 0.037-0.034 0.064-0.075 0.081-0.122 0.036-0.090 0.099-0.153 0.189-0.189 0.061-0.017 0.106-0.053 0.135-0.108 0.014-0.053 0.050-0.080 0.108-0.081 0.097-0.044 0.178-0.107 0.243-0.189 0.064-0.014 0.118-0.045 0.162-0.095 0.044-0.030 0.071-0.071 0.081-0.122 0.088-0.042 0.16-0.105 0.216-0.189 0.026-0.052 0.044-0.106 0.054-0.162 0.123-0.275 0.159-0.563 0.108-0.864-0.024-0.628 0.129-1.204 0.459-1.728 0.016-0.061 0.052-0.106 0.108-0.135 0.072-0.018 0.117-0.063 0.135-0.135 0.092-0.028 0.164-0.082 0.216-0.162 0.086-0.024 0.158-0.069 0.216-0.135 0.081-0.036 0.162-0.072 0.243-0.108 0.151-0.031 0.295-0.076 0.432-0.135 0.027 0 0.054 0 0.081 0 0.089-0.015 0.179-0.024 0.27-0.027 0.055 0.004 0.109-0 0.162-0.014 0.087-0.030 0.159-0.079 0.216-0.149 0.109-0.036 0.199-0.1 0.27-0.189 0.008-0.044 0.035-0.071 0.081-0.081 0.089-0.018 0.143-0.072 0.162-0.162-0.002-0.041 0.016-0.068 0.054-0.081 0.056-0.029 0.092-0.074 0.108-0.135 0.014-0.047 0.041-0.083 0.081-0.108 0.179-0.188 0.359-0.377 0.54-0.567 0.1-0.050 0.191-0.113 0.27-0.189 0.009 0 0.018 0 0.027 0 0.107-0.052 0.215-0.097 0.324-0.135 0.169-0.007 0.331-0.034 0.486-0.081 0.135 0 0.27 0 0.405 0 0.011 0.020 0.029 0.033 0.054 0.040 0.136 0.011 0.271 0.025 0.405 0.040 0.027 0 0.054 0 0.081 0 0.116 0.036 0.242 0.054 0.378 0.054 0.126-0.005 0.252-0.009 0.378-0.014 0.025-0.008 0.043-0.021 0.054-0.040 0.027 0 0.054 0 0.081 0 0.129-0.030 0.237-0.093 0.324-0.189 0.061-0.016 0.106-0.052 0.135-0.108 0.038-0.065 0.092-0.11 0.162-0.135 0.186-0.107 0.357-0.233 0.513-0.378 0.048-0.033 0.102-0.051 0.162-0.054 0.075-0.007 0.138-0.034 0.189-0.081 0.027 0 0.054 0 0.081 0 0.32-0.084 0.644-0.102 0.972-0.054z"></path>
<path fill="#9c9c9c" d="M20.942 11.787c0.291 0.004 0.561 0.076 0.81 0.216-0.152-0.028-0.296-0.077-0.432-0.149-0.131-0.014-0.257-0.037-0.378-0.068z"></path>
<path fill="#363636" d="M12.706 11.76c-0.269 0.041-0.54 0.086-0.81 0.135 0.14-0.042 0.284-0.078 0.432-0.108 0.126-0.013 0.252-0.022 0.378-0.027z"></path>
<path fill="#acacac" d="M17.053 11.787c0.073-0.004 0.145 0 0.216 0.014 0.093 0.029 0.183 0.060 0.27 0.095-0.174 0.003-0.336-0.033-0.486-0.108z"></path>
<path fill="#878787" d="M13.651 11.841c0.18 0.015 0.36 0.024 0.54 0.027-0.071 0.018-0.148 0.027-0.23 0.027-0.112 0.006-0.215-0.012-0.311-0.054z"></path>
<path fill="#818181" d="M19.133 11.841c0.179 0.034 0.36 0.034 0.54 0-0.027 0.018-0.054 0.036-0.081 0.054-0.144 0.004-0.288-0-0.432-0.014-0.015-0.010-0.024-0.024-0.027-0.040z"></path>
<path fill="#2a2a2a" d="M20.267 11.76c-0.011 0.020-0.029 0.033-0.054 0.040-0.203 0.042-0.41 0.074-0.621 0.095 0.027-0.018 0.054-0.036 0.081-0.054 0.111-0.002 0.219-0.020 0.324-0.054 0.091-0.003 0.181-0.012 0.27-0.027z"></path>
<path fill="#505050" d="M17.728 11.976c0.087 0.018 0.168 0.050 0.243 0.095 0.024 0.019 0.042 0.042 0.054 0.068-0.112-0.034-0.211-0.088-0.297-0.162z"></path>
<path fill="#8e8e8e" d="M15.649 11.976c-0.156 0.145-0.327 0.271-0.513 0.378 0.030-0.061 0.075-0.111 0.135-0.149 0.116-0.094 0.242-0.171 0.378-0.23z"></path>
<path fill="#606060" d="M13.3 12.732c-0.070-0.021-0.142-0.030-0.216-0.027-0.135 0-0.27 0-0.405 0-0.092-0.004-0.182 0.005-0.27 0.027 0.003-0.017 0.012-0.030 0.027-0.040 0.279-0.018 0.558-0.018 0.837 0 0.015 0.010 0.024 0.024 0.027 0.040z"></path>
<path fill="#949494" d="M16.837 12.706c-0.111-0.007-0.219 0.002-0.324 0.027 0.042-0.035 0.096-0.053 0.162-0.054 0.059 0 0.113 0.009 0.162 0.027z"></path>
<path fill="#686868" d="M20.915 12.732c-0.225-0.018-0.45-0.027-0.675-0.027-0.056 0-0.11 0.009-0.162 0.027 0.003-0.017 0.012-0.030 0.027-0.040 0.234-0.018 0.468-0.018 0.702 0 0.042 0.006 0.078 0.019 0.108 0.040z"></path>
<path fill="#a3a3a3" d="M13.084 12.706c0.074-0.003 0.146 0.006 0.216 0.027 0.091-0.012 0.172 0.006 0.243 0.054-0.134-0.016-0.27-0.029-0.405-0.040-0.025-0.008-0.043-0.021-0.054-0.040z"></path>
<path fill="#070707" d="M16.837 12.706c0.133 0.052 0.232 0.142 0.297 0.27 0.013 0.053 0.022 0.107 0.027 0.162-0.031 0.096-0.058 0.195-0.081 0.297-0.045 0.027-0.081 0.063-0.108 0.108-0.102 0.023-0.201 0.050-0.297 0.081-0.055-0.005-0.109-0.014-0.162-0.027-0.127-0.064-0.217-0.163-0.27-0.297-0.007-0.111 0.002-0.219 0.027-0.324 0-0.009 0-0.018 0-0.027 0.081-0.063 0.153-0.135 0.216-0.216 0.009 0 0.018 0 0.027 0 0.105-0.025 0.213-0.034 0.324-0.027z"></path>
<path fill="#9e9e9e" d="M12.678 12.706c-0.155 0.047-0.317 0.074-0.486 0.081 0.003-0.017 0.012-0.030 0.027-0.040 0.062-0.013 0.125-0.018 0.189-0.014 0.088-0.022 0.178-0.031 0.27-0.027z"></path>
<path fill="#bfbfbf" d="M20.24 12.706c-0.179 0.071-0.368 0.116-0.567 0.135 0.018-0.018 0.036-0.036 0.054-0.054 0.027 0 0.054 0 0.081 0 0.065 0.007 0.119-0.011 0.162-0.054 0.036 0 0.072 0 0.108 0 0.052-0.018 0.106-0.027 0.162-0.027z"></path>
<path fill="#686868" d="M13.624 12.787c0.27 0.036 0.54 0.036 0.81 0-0.011 0.020-0.029 0.033-0.054 0.040-0.126 0.005-0.252 0.009-0.378 0.014-0.136-0-0.262-0.018-0.378-0.054z"></path>
<path fill="#626262" d="M18.943 12.787c0.261 0.036 0.522 0.036 0.783 0-0.018 0.018-0.036 0.036-0.054 0.054-0.234 0.004-0.468 0-0.702-0.014-0.015-0.010-0.024-0.024-0.027-0.040z"></path>
<path fill="#949494" d="M16.27 12.976c-0.025 0.105-0.034 0.213-0.027 0.324-0.018-0.049-0.027-0.103-0.027-0.162 0.001-0.066 0.019-0.12 0.054-0.162z"></path>
<path fill="#8a8a8a" d="M17.134 12.976c0.017 0.003 0.030 0.012 0.041 0.027 0.022 0.118 0.018 0.235-0.014 0.351-0.021 0.034-0.048 0.061-0.081 0.081 0.023-0.102 0.050-0.201 0.081-0.297-0.005-0.055-0.014-0.109-0.027-0.162z"></path>
<path fill="#525252" d="M9.978 13.489c-0.105 0.149-0.249 0.221-0.432 0.216 0.070-0.013 0.133-0.040 0.189-0.081 0.028 0.004 0.055-0 0.081-0.014 0.044-0.057 0.098-0.098 0.162-0.122z"></path>
<path fill="#878787" d="M16.972 13.543c-0.063 0.079-0.149 0.115-0.257 0.108-0.059-0.005-0.117-0.009-0.176-0.014-0.015-0.010-0.024-0.024-0.027-0.040 0.053 0.013 0.107 0.022 0.162 0.027 0.096-0.031 0.195-0.058 0.297-0.081z"></path>
<path fill="#929292" d="M9.735 13.624c-0.056 0.041-0.119 0.068-0.189 0.081-0.091 0.003-0.181 0.012-0.27 0.027 0.086-0.038 0.176-0.069 0.27-0.095 0.062-0.013 0.125-0.018 0.189-0.014z"></path>
<path fill="#989898" d="M24.479 13.84c0.137 0.003 0.254 0.048 0.351 0.135-0.105-0.039-0.213-0.070-0.324-0.095-0.015-0.010-0.024-0.024-0.027-0.040z"></path>
<path fill="#a9a9a9" d="M24.83 13.975c0.099 0.035 0.198 0.071 0.297 0.108 0.045 0.010 0.072 0.037 0.081 0.081-0.143-0.035-0.269-0.098-0.378-0.189z"></path>
<path fill="#ababab" d="M25.289 14.218c0.037-0.004 0.073 0 0.108 0.014 0.074 0.061 0.137 0.128 0.189 0.203-0.113-0.053-0.212-0.125-0.297-0.216z"></path>
<path fill="#ababab" d="M10.275 14.434c-0.057 0.069-0.129 0.119-0.216 0.149-0.053 0.013-0.107 0.018-0.162 0.014 0-0.009 0-0.018 0-0.027 0.132-0.030 0.258-0.075 0.378-0.135z"></path>
<path fill="#949494" d="M12.111 14.596c-0.111-0.007-0.219 0.002-0.324 0.027 0.042-0.035 0.096-0.053 0.162-0.054 0.059 0 0.113 0.009 0.162 0.027z"></path>
<path fill="#949494" d="M21.563 14.596c-0.111-0.007-0.219 0.002-0.324 0.027 0.042-0.035 0.096-0.053 0.162-0.054 0.059 0 0.113 0.009 0.162 0.027z"></path>
<path fill="#535353" d="M9.897 14.569c0 0.009 0 0.018 0 0.027-0.091 0.003-0.181 0.012-0.27 0.027 0.011-0.020 0.029-0.033 0.054-0.040 0.071-0.013 0.143-0.018 0.216-0.014z"></path>
<path fill="#070707" d="M12.111 14.596c0.133 0.052 0.232 0.142 0.297 0.27 0.013 0.053 0.022 0.107 0.027 0.162-0.031 0.096-0.058 0.195-0.081 0.297-0.045 0.027-0.081 0.063-0.108 0.108-0.102 0.023-0.201 0.050-0.297 0.081-0.055-0.005-0.109-0.014-0.162-0.027-0.127-0.064-0.217-0.163-0.27-0.297-0.007-0.111 0.002-0.219 0.027-0.324 0-0.009 0-0.018 0-0.027 0.081-0.063 0.153-0.135 0.216-0.216 0.009 0 0.018 0 0.027 0 0.105-0.025 0.213-0.034 0.324-0.027z"></path>
<path fill="#070707" d="M21.563 14.596c0.133 0.052 0.232 0.142 0.297 0.27 0.013 0.053 0.022 0.107 0.027 0.162-0.031 0.096-0.058 0.195-0.081 0.297-0.045 0.027-0.081 0.063-0.108 0.108-0.102 0.023-0.201 0.050-0.297 0.081-0.055-0.005-0.109-0.014-0.162-0.027-0.127-0.064-0.217-0.163-0.27-0.297-0.007-0.111 0.002-0.219 0.027-0.324 0-0.009 0-0.018 0-0.027 0.081-0.063 0.153-0.135 0.216-0.216 0.009 0 0.018 0 0.027 0 0.105-0.025 0.213-0.034 0.324-0.027z"></path>
<path fill="#525252" d="M23.777 14.623c0.201-0.002 0.381 0.052 0.54 0.162-0.091-0.022-0.181-0.054-0.27-0.095-0.081-0.009-0.162-0.018-0.243-0.027-0.015-0.010-0.024-0.024-0.027-0.040z"></path>
<path fill="#949494" d="M11.544 14.866c-0.025 0.105-0.034 0.213-0.027 0.324-0.018-0.049-0.027-0.103-0.027-0.162 0.001-0.066 0.019-0.12 0.054-0.162z"></path>
<path fill="#8a8a8a" d="M12.408 14.866c0.017 0.003 0.030 0.012 0.040 0.027 0.022 0.118 0.018 0.235-0.014 0.351-0.021 0.034-0.048 0.061-0.081 0.081 0.023-0.102 0.050-0.201 0.081-0.297-0.005-0.055-0.014-0.109-0.027-0.162z"></path>
<path fill="#949494" d="M20.996 14.866c-0.025 0.105-0.034 0.213-0.027 0.324-0.018-0.049-0.027-0.103-0.027-0.162 0.001-0.066 0.019-0.12 0.054-0.162z"></path>
<path fill="#8a8a8a" d="M21.86 14.866c0.017 0.003 0.030 0.012 0.041 0.027 0.022 0.118 0.018 0.235-0.014 0.351-0.021 0.034-0.048 0.061-0.081 0.081 0.023-0.102 0.050-0.201 0.081-0.297-0.005-0.055-0.014-0.109-0.027-0.162z"></path>
<path fill="#878787" d="M12.246 15.433c-0.063 0.079-0.149 0.115-0.257 0.108-0.059-0.005-0.117-0.009-0.176-0.014-0.015-0.010-0.024-0.024-0.027-0.040 0.053 0.013 0.107 0.022 0.162 0.027 0.096-0.031 0.195-0.058 0.297-0.081z"></path>
<path fill="#949494" d="M16.837 15.541c-0.111-0.007-0.219 0.002-0.324 0.027 0.042-0.035 0.096-0.053 0.162-0.054 0.059 0 0.113 0.009 0.162 0.027z"></path>
<path fill="#878787" d="M21.698 15.433c-0.063 0.079-0.149 0.115-0.257 0.108-0.059-0.005-0.117-0.009-0.176-0.014-0.015-0.010-0.024-0.024-0.027-0.040 0.053 0.013 0.107 0.022 0.162 0.027 0.096-0.031 0.195-0.058 0.297-0.081z"></path>
<path fill="#3b3b3b" d="M7.116 15.406c-0.043 0.158-0.106 0.303-0.189 0.432 0.002-0.030 0.011-0.057 0.027-0.081 0.034-0.129 0.088-0.246 0.162-0.351z"></path>
<path fill="#070707" d="M16.837 15.541c0.133 0.052 0.232 0.142 0.297 0.27 0.013 0.053 0.022 0.107 0.027 0.162-0.031 0.096-0.058 0.195-0.081 0.297-0.045 0.027-0.081 0.063-0.108 0.108-0.102 0.023-0.201 0.050-0.297 0.081-0.055-0.005-0.109-0.014-0.162-0.027-0.127-0.064-0.217-0.163-0.27-0.297-0.007-0.111 0.002-0.219 0.027-0.324 0-0.009 0-0.018 0-0.027 0.081-0.063 0.153-0.135 0.216-0.216 0.009 0 0.018 0 0.027 0 0.105-0.025 0.213-0.034 0.324-0.027z"></path>
<path fill="#9b9b9b" d="M6.954 15.757c-0.016 0.024-0.025 0.051-0.027 0.081 0.010 0.059-0.008 0.104-0.054 0.135 0.004-0.086 0.031-0.158 0.081-0.216z"></path>
<path fill="#8a8a8a" d="M8.196 15.433c-0.33 0.524-0.483 1.1-0.459 1.728-0.076-0.554 0.028-1.076 0.311-1.566 0.045-0.062 0.095-0.116 0.149-0.162z"></path>
<path fill="#949494" d="M16.27 15.811c-0.025 0.105-0.034 0.213-0.027 0.324-0.018-0.049-0.027-0.103-0.027-0.162 0.001-0.066 0.019-0.12 0.054-0.162z"></path>
<path fill="#8a8a8a" d="M17.134 15.811c0.017 0.003 0.030 0.012 0.041 0.027 0.022 0.118 0.018 0.235-0.014 0.351-0.021 0.034-0.048 0.061-0.081 0.081 0.023-0.102 0.050-0.201 0.081-0.297-0.005-0.055-0.014-0.109-0.027-0.162z"></path>
<path fill="#909090" d="M6.873 16.054c0.002 0.072-0.016 0.135-0.054 0.189-0.004-0.055 0-0.109 0.013-0.162 0.010-0.015 0.024-0.024 0.040-0.027z"></path>
<path fill="#878787" d="M16.972 16.378c-0.063 0.079-0.149 0.115-0.257 0.108-0.059-0.005-0.117-0.009-0.176-0.014-0.015-0.010-0.024-0.024-0.027-0.041 0.053 0.013 0.107 0.022 0.162 0.027 0.096-0.031 0.195-0.058 0.297-0.081z"></path>
<path fill="#ccc" d="M25.587 16.297c0.017 0.003 0.030 0.012 0.041 0.027 0.013 0.081 0.018 0.162 0.014 0.243 0.024 0.224 0.033 0.449 0.027 0.675-0.027 0.13-0.036 0.265-0.027 0.405-0.031-0.234-0.031-0.473 0-0.716-0.013-0.213-0.031-0.424-0.054-0.635z"></path>
<path fill="#888" d="M26.532 16.189c0.040 0.111 0.072 0.228 0.095 0.351 0.014 0.351 0.018 0.702 0.014 1.053-0.041-0.077-0.059-0.163-0.054-0.257 0.031-0.252 0.031-0.499 0-0.743-0.023-0.133-0.041-0.268-0.054-0.405z"></path>
<path fill="#868686" d="M6.819 16.324c-0.034 0.351-0.034 0.702 0 1.053-0.005 0.063-0.009 0.126-0.013 0.189-0.008 0.025-0.021 0.043-0.040 0.054-0.005-0.405 0-0.81 0.013-1.215 0.006-0.033 0.020-0.060 0.040-0.081z"></path>
<path fill="#4e4e4e" d="M25.64 16.567c0.021 0.021 0.034 0.048 0.041 0.081 0.014 0.315 0.018 0.63 0.014 0.945-0.027-0.112-0.036-0.229-0.027-0.351 0.006-0.226-0.003-0.451-0.027-0.675z"></path>
<path fill="#7a7a7a" d="M25.668 17.242c-0.009 0.122 0 0.239 0.027 0.351 0.011 0.138 0.038 0.273 0.081 0.405-0.017-0.003-0.030-0.012-0.041-0.027-0.040-0.107-0.072-0.215-0.095-0.324-0.009-0.14 0-0.275 0.027-0.405z"></path>
<path fill="#292929" d="M26.586 16.594c0.031 0.243 0.031 0.491 0 0.743-0.005 0.094 0.013 0.179 0.054 0.257 0 0.018 0 0.036 0 0.054-0.026-0.012-0.048-0.030-0.067-0.054-0.002-0.333 0.003-0.666 0.014-0.999z"></path>
<path fill="#949494" d="M10.221 17.431c-0.111-0.007-0.219 0.002-0.324 0.027 0.042-0.035 0.096-0.053 0.162-0.054 0.059 0 0.113 0.009 0.162 0.027z"></path>
<path fill="#949494" d="M14.002 17.431c-0.111-0.007-0.219 0.002-0.324 0.027 0.042-0.035 0.096-0.053 0.162-0.054 0.059 0 0.113 0.009 0.162 0.027z"></path>
<path fill="#949494" d="M19.673 17.431c-0.111-0.007-0.219 0.002-0.324 0.027 0.042-0.035 0.096-0.053 0.162-0.054 0.059 0 0.113 0.009 0.162 0.027z"></path>
<path fill="#949494" d="M23.453 17.431c-0.111-0.007-0.219 0.002-0.324 0.027 0.042-0.035 0.096-0.053 0.162-0.054 0.059 0 0.113 0.009 0.162 0.027z"></path>
<path fill="#070707" d="M10.221 17.431c0.133 0.052 0.232 0.142 0.297 0.27 0.013 0.053 0.022 0.107 0.027 0.162-0.031 0.096-0.058 0.195-0.081 0.297-0.045 0.027-0.081 0.063-0.108 0.108-0.102 0.023-0.201 0.050-0.297 0.081-0.055-0.005-0.109-0.014-0.162-0.027-0.127-0.064-0.217-0.163-0.27-0.297-0.007-0.111 0.002-0.219 0.027-0.324 0-0.009 0-0.018 0-0.027 0.081-0.063 0.153-0.135 0.216-0.216 0.009 0 0.018 0 0.027 0 0.105-0.025 0.213-0.034 0.324-0.027z"></path>
<path fill="#070707" d="M14.002 17.431c0.133 0.052 0.232 0.142 0.297 0.27 0.013 0.053 0.022 0.107 0.027 0.162-0.031 0.096-0.058 0.195-0.081 0.297-0.045 0.027-0.081 0.063-0.108 0.108-0.102 0.023-0.201 0.050-0.297 0.081-0.055-0.005-0.109-0.014-0.162-0.027-0.127-0.064-0.217-0.163-0.27-0.297-0.007-0.111 0.002-0.219 0.027-0.324 0-0.009 0-0.018 0-0.027 0.081-0.063 0.153-0.135 0.216-0.216 0.009 0 0.018 0 0.027 0 0.105-0.025 0.213-0.034 0.324-0.027z"></path>
<path fill="#070707" d="M19.673 17.431c0.133 0.052 0.232 0.142 0.297 0.27 0.013 0.053 0.022 0.107 0.027 0.162-0.031 0.096-0.058 0.195-0.081 0.297-0.045 0.027-0.081 0.063-0.108 0.108-0.102 0.023-0.201 0.050-0.297 0.081-0.055-0.005-0.109-0.014-0.162-0.027-0.127-0.064-0.217-0.163-0.27-0.297-0.007-0.111 0.002-0.219 0.027-0.324 0-0.009 0-0.018 0-0.027 0.081-0.063 0.153-0.135 0.216-0.216 0.009 0 0.018 0 0.027 0 0.105-0.025 0.213-0.034 0.324-0.027z"></path>
<path fill="#070707" d="M23.453 17.431c0.133 0.052 0.232 0.142 0.297 0.27 0.013 0.053 0.022 0.107 0.027 0.162-0.031 0.096-0.058 0.195-0.081 0.297-0.045 0.027-0.081 0.063-0.108 0.108-0.102 0.023-0.201 0.050-0.297 0.081-0.055-0.005-0.109-0.014-0.162-0.027-0.127-0.064-0.217-0.163-0.27-0.297-0.007-0.111 0.002-0.219 0.027-0.324 0-0.009 0-0.018 0-0.027 0.081-0.063 0.153-0.135 0.216-0.216 0.009 0 0.018 0 0.027 0 0.105-0.025 0.213-0.034 0.324-0.027z"></path>
<path fill="#949494" d="M9.654 17.701c-0.025 0.105-0.034 0.213-0.027 0.324-0.018-0.049-0.027-0.103-0.027-0.162 0.001-0.066 0.019-0.12 0.054-0.162z"></path>
<path fill="#8a8a8a" d="M10.518 17.701c0.017 0.003 0.030 0.012 0.040 0.027 0.022 0.118 0.018 0.235-0.014 0.351-0.021 0.034-0.048 0.061-0.081 0.081 0.023-0.102 0.050-0.201 0.081-0.297-0.005-0.055-0.014-0.109-0.027-0.162z"></path>
<path fill="#949494" d="M13.435 17.701c-0.025 0.105-0.034 0.213-0.027 0.324-0.018-0.049-0.027-0.103-0.027-0.162 0.001-0.066 0.019-0.12 0.054-0.162z"></path>
<path fill="#8a8a8a" d="M14.299 17.701c0.017 0.003 0.030 0.012 0.040 0.027 0.022 0.118 0.018 0.235-0.014 0.351-0.021 0.034-0.048 0.061-0.081 0.081 0.023-0.102 0.050-0.201 0.081-0.297-0.005-0.055-0.014-0.109-0.027-0.162z"></path>
<path fill="#949494" d="M19.105 17.701c-0.025 0.105-0.034 0.213-0.027 0.324-0.018-0.049-0.027-0.103-0.027-0.162 0.001-0.066 0.019-0.12 0.054-0.162z"></path>
<path fill="#8a8a8a" d="M19.97 17.701c0.017 0.003 0.030 0.012 0.041 0.027 0.022 0.118 0.018 0.235-0.014 0.351-0.021 0.034-0.048 0.061-0.081 0.081 0.023-0.102 0.050-0.201 0.081-0.297-0.005-0.055-0.014-0.109-0.027-0.162z"></path>
<path fill="#949494" d="M22.886 17.701c-0.025 0.105-0.034 0.213-0.027 0.324-0.018-0.049-0.027-0.103-0.027-0.162 0.001-0.066 0.019-0.12 0.054-0.162z"></path>
<path fill="#8a8a8a" d="M23.75 17.701c0.017 0.003 0.030 0.012 0.041 0.027 0.022 0.118 0.018 0.235-0.014 0.351-0.021 0.034-0.048 0.061-0.081 0.081 0.023-0.102 0.050-0.201 0.081-0.297-0.005-0.055-0.014-0.109-0.027-0.162z"></path>
<path fill="#939393" d="M7.629 18.025c-0.010 0.056-0.028 0.11-0.054 0.162-0.056 0.084-0.128 0.147-0.216 0.189 0.098-0.112 0.189-0.229 0.27-0.351z"></path>
<path fill="#878787" d="M10.356 18.268c-0.063 0.079-0.149 0.115-0.257 0.108-0.059-0.005-0.117-0.009-0.176-0.014-0.015-0.010-0.024-0.024-0.027-0.041 0.053 0.013 0.107 0.022 0.162 0.027 0.096-0.031 0.195-0.058 0.297-0.081z"></path>
<path fill="#878787" d="M14.137 18.268c-0.063 0.079-0.149 0.115-0.257 0.108-0.059-0.005-0.117-0.009-0.176-0.014-0.015-0.010-0.024-0.024-0.027-0.041 0.053 0.013 0.107 0.022 0.162 0.027 0.096-0.031 0.195-0.058 0.297-0.081z"></path>
<path fill="#878787" d="M19.808 18.268c-0.063 0.079-0.149 0.115-0.257 0.108-0.059-0.005-0.117-0.009-0.176-0.014-0.015-0.010-0.024-0.024-0.027-0.041 0.053 0.013 0.107 0.022 0.162 0.027 0.096-0.031 0.195-0.058 0.297-0.081z"></path>
<path fill="#878787" d="M23.588 18.268c-0.063 0.079-0.149 0.115-0.257 0.108-0.059-0.005-0.117-0.009-0.176-0.014-0.015-0.010-0.024-0.024-0.027-0.041 0.053 0.013 0.107 0.022 0.162 0.027 0.096-0.031 0.195-0.058 0.297-0.081z"></path>
<path fill="#979797" d="M7.359 18.376c-0.010 0.051-0.037 0.091-0.081 0.122-0.044 0.049-0.098 0.081-0.162 0.095 0.075-0.078 0.156-0.15 0.243-0.216z"></path>
<path fill="#6c6c6c" d="M5.441 18.889c-0.066 0.137-0.138 0.272-0.216 0.405-0.169 0.037-0.331 0.091-0.486 0.162 0.036-0.063 0.090-0.108 0.162-0.135 0.097-0.027 0.196-0.036 0.297-0.027 0.047-0.086 0.088-0.176 0.122-0.27 0.038-0.051 0.079-0.096 0.122-0.135z"></path>
<path fill="#7c7c7c" d="M6.441 19.16c-0.017 0.047-0.044 0.087-0.081 0.122 6.895 0.018 13.79 0.018 20.685 0-0.036-0.022-0.054-0.054-0.054-0.095 0.062 0.028 0.089 0.069 0.081 0.122-6.922 0.023-13.844 0.018-20.766-0.014 0.038-0.056 0.083-0.101 0.135-0.135z"></path>
<path fill="#767676" d="M28.044 19.024c0.064 0.083 0.118 0.173 0.162 0.27 0.087-0.008 0.168 0.001 0.243 0.027-0.092 0.009-0.182-0-0.27-0.027-0.069-0.078-0.114-0.168-0.135-0.27z"></path>
<path fill="#7c7c7c" d="M27.693 20.537c0.018-0.090 0.036-0.18 0.054-0.27-7.372-0.005-14.744 0-22.116 0.014 0.017 0.137 0.053 0.267 0.108 0.392-0.092-0.122-0.137-0.266-0.135-0.432 7.39-0.005 14.78 0 22.17 0.014 0.012 0.011 0.021 0.025 0.027 0.041-0.030 0.087-0.066 0.168-0.108 0.243z"></path>
<path fill="#f7f7f7" d="M27.693 20.537c-0.068 0.18-0.158 0.351-0.27 0.513-0.082 0.055-0.144 0.127-0.189 0.216 0 0.018-0.009 0.027-0.027 0.027-0.12 0.147-0.255 0.273-0.405 0.378-0.128 0.093-0.263 0.174-0.405 0.243-0.064 0.011-0.118 0.038-0.162 0.081-0.127 0.057-0.262 0.093-0.405 0.108-1.224 0.008-2.439 0.035-3.646 0.081-0.009 0-0.018 0-0.027 0-0.099 0.045-0.171 0.117-0.216 0.216 0 0.009 0 0.018 0 0.027-0.035 0.042-0.053 0.096-0.054 0.162 0 0.059 0.009 0.113 0.027 0.162 0.052 0.133 0.142 0.232 0.27 0.297 0.003 0.017 0.012 0.030 0.027 0.041 0.819 0.014 1.638 0.018 2.457 0.014-0 0.056-0.009 0.11-0.027 0.162-0.062 0.057-0.098 0.129-0.108 0.216-0.028 0.054-0.055 0.108-0.081 0.162-0.066 0.067-0.111 0.148-0.135 0.243-0.081 0.057-0.171 0.097-0.27 0.122-4.915 0.023-9.83 0.018-14.744-0.014-0.064-0.037-0.127-0.073-0.189-0.108-0.037-0.029-0.069-0.065-0.095-0.108-0.096-0.212-0.2-0.419-0.311-0.621 3.33-0.045 6.67-0.072 10.019-0.081 0.055-0.015 0.1-0.042 0.135-0.081 0.027-0.045 0.063-0.081 0.108-0.108 0.038-0.013 0.056-0.040 0.054-0.081 0.035-0.047 0.053-0.105 0.054-0.176-0.005-0.059-0.009-0.117-0.014-0.176-0.010-0.015-0.024-0.024-0.041-0.027-0.032-0.044-0.059-0.089-0.081-0.135-0.073-0.047-0.145-0.092-0.216-0.135-3.669-0.018-7.341-0.036-11.018-0.054-0.054 0-0.108 0-0.162 0-0.128-0.057-0.263-0.102-0.405-0.135-0.051-0.071-0.123-0.107-0.216-0.108-0.118-0.050-0.235-0.104-0.351-0.162-0.047-0.092-0.119-0.155-0.216-0.189-0.117-0.108-0.234-0.216-0.351-0.324-0.009-0.018-0.018-0.036-0.027-0.054-0.044-0.089-0.098-0.17-0.162-0.243-0.027-0.072-0.054-0.144-0.081-0.216-0.055-0.125-0.091-0.255-0.108-0.392 7.372-0.014 14.744-0.018 22.116-0.014-0.018 0.090-0.036 0.18-0.054 0.27z"></path>
<path fill="#b6b6b6" d="M28.8 20.105c-0.019 0.125-0.033 0.251-0.041 0.378-0.020 0.064-0.052 0.119-0.095 0.162 0.009-0.036 0.018-0.072 0.027-0.108 0.028-0.152 0.064-0.297 0.108-0.432z"></path>
<path fill="#545454" d="M28.692 20.537c-0.009 0.036-0.018 0.072-0.027 0.108 0.007 0.051-0.011 0.087-0.054 0.108 0.015-0.062 0.029-0.125 0.041-0.189 0.010-0.015 0.024-0.024 0.041-0.027z"></path>
<path fill="#4f4f4f" d="M6.008 21.185c0.117 0.108 0.234 0.216 0.351 0.324 0 0.009 0 0.018 0 0.027-0.144-0.090-0.261-0.207-0.351-0.351z"></path>
<path fill="#aeaeae" d="M6.359 21.536c0-0.009 0-0.018 0-0.027 0.097 0.034 0.169 0.097 0.216 0.189-0.079-0.043-0.151-0.097-0.216-0.162z"></path>
<path fill="#a0a0a0" d="M28.152 21.617c-0.086 0.169-0.194 0.327-0.324 0.473-0.035 0.013-0.071 0.018-0.108 0.014 0.154-0.154 0.298-0.316 0.432-0.486z"></path>
<path fill="#7b7b7b" d="M7.71 22.103c3.677 0.018 7.349 0.036 11.018 0.054-3.646 0.005-7.291 0-10.937-0.014-0.033-0.006-0.060-0.020-0.081-0.041z"></path>
<path fill="#949494" d="M20.618 22.157c-0.111-0.007-0.219 0.002-0.324 0.027 0.042-0.035 0.096-0.053 0.162-0.054 0.059 0 0.113 0.009 0.162 0.027z"></path>
<path fill="#7a7a7a" d="M25.83 22.103c-0.011 0.020-0.029 0.033-0.054 0.041-1.199 0.005-2.396 0.018-3.592 0.041 1.206-0.046 2.422-0.073 3.646-0.081z"></path>
<path fill="#070707" d="M20.618 22.157c0.133 0.052 0.232 0.142 0.297 0.27 0.013 0.053 0.022 0.107 0.027 0.162-0.031 0.096-0.058 0.195-0.081 0.297-0.045 0.027-0.081 0.063-0.108 0.108-0.102 0.023-0.201 0.050-0.297 0.081-0.055-0.005-0.109-0.014-0.162-0.027-0.127-0.064-0.217-0.163-0.27-0.297-0.007-0.111 0.002-0.219 0.027-0.324 0-0.009 0-0.018 0-0.027 0.081-0.063 0.153-0.135 0.216-0.216 0.009 0 0.018 0 0.027 0 0.105-0.025 0.213-0.034 0.324-0.027z"></path>
<path fill="#9b9b9b" d="M19.024 22.427c0.017 0.003 0.030 0.012 0.041 0.027 0.005 0.059 0.009 0.117 0.014 0.176-0.001 0.070-0.019 0.129-0.054 0.176 0.036-0.126 0.036-0.252 0-0.378z"></path>
<path fill="#949494" d="M20.051 22.427c-0.025 0.105-0.034 0.213-0.027 0.324-0.018-0.049-0.027-0.103-0.027-0.162 0.001-0.066 0.019-0.12 0.054-0.162z"></path>
<path fill="#8a8a8a" d="M20.915 22.427c0.017 0.003 0.030 0.012 0.041 0.027 0.022 0.118 0.018 0.235-0.014 0.351-0.021 0.034-0.048 0.061-0.081 0.081 0.023-0.102 0.050-0.201 0.081-0.297-0.005-0.055-0.014-0.109-0.027-0.162z"></path>
<path fill="#949494" d="M21.941 22.427c-0.025 0.105-0.034 0.213-0.027 0.324-0.018-0.049-0.027-0.103-0.027-0.162 0.001-0.066 0.019-0.12 0.054-0.162z"></path>
<path fill="#2c2c2c" d="M18.943 22.292c0.022 0.046 0.049 0.091 0.081 0.135 0.036 0.126 0.036 0.252 0 0.378 0.002 0.041-0.016 0.068-0.054 0.081 0.017-0.094 0.035-0.189 0.054-0.284-0.022-0.107-0.049-0.211-0.081-0.311z"></path>
<path fill="#939393" d="M6.306 22.616c0.187 0.089 0.377 0.17 0.567 0.243-0.073 0.003-0.145-0.006-0.216-0.027-0.126-0.064-0.243-0.136-0.351-0.216z"></path>
<path fill="#b1b1b1" d="M27.153 22.562c-0.038 0.078-0.101 0.119-0.189 0.122-0.027 0.027-0.054 0.054-0.081 0.081-0.082 0.054-0.172 0.086-0.27 0.095 0.179-0.097 0.359-0.196 0.54-0.297z"></path>
<path fill="#9a9a9a" d="M7.008 22.913c0.062 0.015 0.125 0.029 0.189 0.041 0.015 0.010 0.024 0.024 0.027 0.041-0.062-0.015-0.125-0.029-0.189-0.041-0.015-0.010-0.024-0.024-0.027-0.041z"></path>
<path fill="#636363" d="M26.154 22.994c-0.063 0.042-0.135 0.060-0.216 0.054-0.056 0-0.11 0.009-0.162 0.027 0.003-0.017 0.012-0.030 0.027-0.041 0.117-0.013 0.234-0.026 0.351-0.041z"></path>
<path fill="#7b7b7b" d="M18.862 22.994c-0.035 0.039-0.080 0.066-0.135 0.081-3.349 0.009-6.688 0.036-10.019 0.081-0.024-0.019-0.033-0.046-0.027-0.081 3.331 0.005 6.661 0 9.992-0.014 0.058-0.035 0.121-0.057 0.189-0.067z"></path>
<path fill="#878787" d="M20.753 22.994c-0.063 0.079-0.149 0.115-0.257 0.108-0.059-0.005-0.117-0.009-0.176-0.014-0.015-0.010-0.024-0.024-0.027-0.041 0.053 0.013 0.107 0.022 0.162 0.027 0.096-0.031 0.195-0.058 0.297-0.081z"></path>
<path fill="#7e7e7e" d="M22.184 23.048c0.836 0.022 1.673 0.036 2.511 0.041 0.009 0.009 0.018 0.018 0.027 0.027-0.013 0.060-0.040 0.109-0.081 0.149 0.018-0.052 0.027-0.106 0.027-0.162-0.819 0.005-1.638 0-2.457-0.014-0.015-0.010-0.024-0.024-0.027-0.041z"></path>
<path fill="#a7a7a7" d="M25.938 23.048c-0.055 0.031-0.109 0.067-0.162 0.108-0.025 0.095-0.070 0.176-0.135 0.243 0.022-0.12 0.067-0.228 0.135-0.324 0.052-0.018 0.106-0.027 0.162-0.027z"></path>
<path fill="#7c7c7c" d="M9.114 23.885c0.062 0.035 0.125 0.071 0.189 0.108 4.915 0.032 9.83 0.036 14.744 0.014 0.099-0.024 0.189-0.065 0.27-0.122-0.050 0.080-0.122 0.13-0.216 0.149-4.942 0.018-9.884 0.018-14.825 0-0.067-0.036-0.121-0.085-0.162-0.149z"></path>
<path fill="#808080" d="M8.115 24.074c0.047 0.041 0.074 0.095 0.081 0.162-0.047-0.041-0.074-0.095-0.081-0.162z"></path>
<path fill="#afafaf" d="M25.262 24.155c-0.011 0.089-0.043 0.17-0.095 0.243-0.027 0.023-0.059 0.032-0.095 0.027 0.050-0.1 0.113-0.191 0.189-0.27z"></path>
<path fill="#ababab" d="M8.196 24.236c0.062 0.089 0.125 0.179 0.189 0.27-0.115-0.052-0.178-0.142-0.189-0.27z"></path>
<path fill="#a1a1a1" d="M25.073 24.425c-0.012 0.111-0.076 0.183-0.189 0.216 0.062-0.071 0.125-0.143 0.189-0.216z"></path>
<path fill="#a1a1a1" d="M24.884 24.641c-0.138 0.173-0.318 0.272-0.54 0.297 0.179-0.097 0.359-0.196 0.54-0.297z"></path>
<path fill="#7d7d7d" d="M9.141 24.938c5.058 0.036 10.117 0.036 15.176 0-0.011 0.020-0.029 0.033-0.054 0.041-5.032 0.018-10.064 0.018-15.095 0-0.015-0.010-0.024-0.024-0.027-0.041z"></path>
</svg>
