<!-- Generated by IcoMoon.io -->
<svg version="1.1" xmlns="http://www.w3.org/2000/svg" width="32" height="32" viewBox="0 0 32 32">
<title>soupCard</title>
<linearGradient id="gradient1" x1="100%" y1="0%" x2="0%" y2="0%">
       <stop offset="0%" style="stop-color: #999999; stop-opacity: .3" />
    <stop offset="100%" style="stop-color: #999999; stop-opacity: .3" />
  </linearGradient>
<path fill="url(#gradient1)" d="M11.831 3.625c-0.169 0.069-0.244 0.206-0.287 0.55-0.019 0.144-0.119 0.4-0.219 0.563-0.438 0.688-0.431 1.487 0.012 2.194 0.094 0.144 0.194 0.412 0.225 0.588 0.081 0.525 0.463 0.706 0.794 0.381 0.144-0.144 0.156-0.194 0.125-0.519-0.019-0.256-0.1-0.5-0.287-0.844-0.331-0.631-0.331-0.813 0-1.444 0.313-0.594 0.394-1.1 0.206-1.325-0.137-0.163-0.375-0.225-0.569-0.144z"></path>
<path fill="url(#gradient1)" d="M16.081 3.625c-0.169 0.069-0.244 0.206-0.287 0.55-0.019 0.144-0.119 0.4-0.219 0.563-0.438 0.688-0.431 1.487 0.019 2.2 0.287 0.456 0.281 0.756-0.025 1.344-0.331 0.637-0.4 1.1-0.194 1.356 0.275 0.356 0.812 0.131 0.812-0.331 0-0.1 0.119-0.412 0.269-0.688 0.25-0.488 0.262-0.537 0.262-1.050s-0.012-0.563-0.269-1.025c-0.337-0.631-0.337-0.813-0.006-1.45 0.313-0.594 0.394-1.1 0.206-1.325-0.137-0.163-0.375-0.225-0.569-0.144z"></path>
<path fill="url(#gradient1)" d="M20.331 3.625c-0.169 0.069-0.244 0.206-0.288 0.55-0.019 0.144-0.119 0.4-0.219 0.563-0.438 0.688-0.431 1.487 0.012 2.194 0.094 0.144 0.194 0.412 0.225 0.588 0.081 0.525 0.462 0.706 0.794 0.381 0.144-0.144 0.156-0.194 0.125-0.519-0.019-0.256-0.1-0.5-0.288-0.844-0.331-0.631-0.331-0.813 0-1.444 0.313-0.594 0.394-1.1 0.206-1.325-0.137-0.163-0.375-0.225-0.569-0.144z"></path>
<path fill="url(#gradient1)" d="M30.25 7.869c-0.4 0.131-0.706 0.419-3.25 3.063l-2.7 2.819h-7.3c-6.869 0-7.306 0.006-7.431 0.113-0.188 0.15-0.194 0.475-0.012 0.656l0.137 0.137 13.669 0.063-1.6 1.669-1.6 1.675h-19.025l-0.081-0.519c-0.050-0.3-0.088-0.994-0.088-1.669v-1.156l3.444-0.031c3.281-0.031 3.456-0.037 3.581-0.15 0.169-0.156 0.175-0.494 0.006-0.662-0.125-0.125-0.206-0.125-3.656-0.125-3.844 0-3.694-0.012-4.044 0.356-0.263 0.281-0.3 0.456-0.3 1.55 0 1.681 0.225 2.962 0.75 4.3 0.387 0.975 1.238 2.4 1.637 2.744 0.169 0.15 0.456 0.144 0.613-0.012 0.219-0.219 0.163-0.456-0.269-1.056-0.219-0.306-0.531-0.806-0.694-1.119-0.275-0.544-0.6-1.319-0.6-1.45 0-0.044 4.425-0.063 12.563-0.063h12.569l0.15-0.156c0.175-0.169 0.188-0.262 0.087-0.488-0.119-0.256-0.3-0.294-1.531-0.294-0.637 0-1.15-0.025-1.137-0.056 0.012-0.025 0.725-0.788 1.581-1.681l1.563-1.625 1.875 0.006 1.875 0.012v1.156c0 0.675-0.038 1.369-0.087 1.669l-0.081 0.519h-1.219c-1.206 0-1.212 0-1.363 0.156-0.194 0.188-0.206 0.481-0.031 0.656 0.113 0.113 0.206 0.125 1.225 0.125h1.1l-0.044 0.169c-0.081 0.331-0.413 1.063-0.731 1.619-1.231 2.15-3.256 3.756-5.6 4.438-1.206 0.344-1.281 0.35-5.119 0.381l-3.581 0.031-0.125 0.156c-0.156 0.2-0.156 0.4-0.006 0.587l0.119 0.15 5.637 0.038v0.931h-10.25v-0.931l1.444-0.019c1.431-0.019 1.444-0.019 1.563-0.169 0.15-0.188 0.15-0.387-0.006-0.587l-0.125-0.156-2.2-0.031c-2.344-0.038-2.656-0.069-3.763-0.387-1.050-0.306-2.044-0.794-2.969-1.469-0.487-0.356-0.688-0.387-0.913-0.156-0.281 0.275-0.181 0.525 0.406 0.95 0.75 0.544 1.581 0.994 2.469 1.337 0.775 0.3 2.231 0.619 2.831 0.619h0.262v0.419c0.006 0.625 0.088 0.938 0.287 1.156 0.356 0.375 0.113 0.363 5.787 0.363 3.225 0 5.288-0.025 5.425-0.063 0.125-0.031 0.319-0.156 0.431-0.275 0.238-0.244 0.313-0.525 0.319-1.169v-0.413l0.488-0.038c1.087-0.081 2.475-0.494 3.6-1.056 2.981-1.494 5.044-4.275 5.637-7.581 0.106-0.606 0.194-2.869 0.125-3.244-0.044-0.231-0.325-0.606-0.563-0.744-0.087-0.050-0.631-0.088-1.656-0.106l-1.519-0.031 1.675-1.744c0.925-0.956 1.756-1.85 1.85-1.988 0.444-0.65 0.212-1.575-0.5-1.975-0.281-0.156-0.769-0.225-1.012-0.144zM30.956 8.944c0.156 0.194 0.131 0.381-0.094 0.662-0.113 0.137-1.050 1.131-2.081 2.2l-1.875 1.944h-1.306l0.375-0.394c0.206-0.213 1.119-1.162 2.019-2.106 2.469-2.581 2.406-2.525 2.65-2.475 0.106 0.019 0.25 0.1 0.313 0.169zM25.337 15.387c-0.375 0.387-1.113 1.15-1.631 1.694l-0.95 0.988-1.275-0.038 3.219-3.344h1.325l-0.688 0.7z"></path>
<path fill="url(#gradient1)" d="M8.6 20.069c-0.325 0.256-0.144 0.806 0.275 0.806s0.6-0.55 0.275-0.806c-0.094-0.075-0.213-0.131-0.275-0.131s-0.181 0.056-0.275 0.131z"></path>
<path fill="url(#gradient1)" d="M25.519 20c-0.45 0.188-0.281 0.875 0.212 0.875 0.225 0 0.456-0.238 0.456-0.469 0-0.306-0.369-0.531-0.669-0.406z"></path>
<path fill="url(#gradient1)" d="M5.406 20.119c-0.5 0.231-0.781 0.694-0.781 1.288 0 1.238 1.537 1.837 2.381 0.925 0.269-0.281 0.369-0.544 0.369-0.938-0.006-0.825-0.569-1.394-1.388-1.394-0.188 0-0.438 0.050-0.581 0.119zM6.3 21.038c0.181 0.125 0.194 0.519 0.013 0.681-0.3 0.275-0.75 0.063-0.75-0.35 0-0.269 0.169-0.431 0.438-0.431 0.088 0 0.225 0.044 0.3 0.1z"></path>
<path fill="url(#gradient1)" d="M18.444 20.131c-0.275 0.106-1.288 0.731-1.406 0.856-0.063 0.075-0.131 0.256-0.144 0.413-0.031 0.256 0 0.337 0.387 1.006 0.631 1.087 0.825 1.137 1.925 0.512 1.081-0.613 1.144-0.819 0.525-1.887-0.506-0.887-0.8-1.094-1.288-0.9zM18.931 21.506c0.15 0.275 0.175 0.369 0.119 0.413-0.113 0.081-0.663 0.394-0.7 0.394s-0.494-0.75-0.469-0.781c0.119-0.106 0.781-0.45 0.813-0.419 0.019 0.025 0.125 0.2 0.238 0.394z"></path>
<path fill="url(#gradient1)" d="M27.331 20.188c-0.45 0.188-0.281 0.875 0.212 0.875 0.225 0 0.456-0.238 0.456-0.469 0-0.306-0.369-0.531-0.669-0.406z"></path>
<path fill="url(#gradient1)" d="M10.319 21.381c-0.275 0.106-1.287 0.731-1.406 0.856-0.063 0.075-0.131 0.256-0.144 0.413-0.031 0.256 0 0.337 0.387 1.006 0.631 1.087 0.825 1.137 1.925 0.512 1.081-0.613 1.144-0.819 0.525-1.887-0.506-0.887-0.8-1.094-1.287-0.9zM10.806 22.756c0.15 0.275 0.175 0.369 0.119 0.413-0.113 0.081-0.662 0.394-0.7 0.394s-0.494-0.75-0.469-0.781c0.119-0.106 0.781-0.45 0.813-0.419 0.019 0.025 0.125 0.2 0.238 0.394z"></path>
<path fill="url(#gradient1)" d="M26.125 21.625c-0.188 0.188-0.169 0.519 0.038 0.681 0.094 0.075 0.212 0.131 0.275 0.131s0.181-0.056 0.275-0.131c0.325-0.256 0.144-0.806-0.275-0.806-0.106 0-0.244 0.056-0.313 0.125z"></path>
<path fill="url(#gradient1)" d="M22.344 21.775c-0.538 0.231-0.837 0.706-0.844 1.306 0 0.619 0.387 1.156 0.962 1.325 0.387 0.119 0.438 0.119 0.825 0 0.575-0.169 0.962-0.706 0.962-1.325-0.006-0.606-0.313-1.081-0.856-1.313-0.256-0.106-0.806-0.1-1.050 0.006zM23.188 22.75c0.188 0.188 0.169 0.519-0.038 0.681-0.094 0.075-0.212 0.131-0.275 0.131s-0.181-0.056-0.275-0.131c-0.325-0.256-0.144-0.806 0.275-0.806 0.106 0 0.244 0.056 0.313 0.125z"></path>
<path fill="url(#gradient1)" d="M14.037 22.256c-0.325 0.256-0.144 0.806 0.275 0.806s0.6-0.55 0.275-0.806c-0.094-0.075-0.213-0.131-0.275-0.131s-0.181 0.056-0.275 0.131z"></path>
<path fill="url(#gradient1)" d="M13.1 23.819c-0.325 0.256-0.144 0.806 0.275 0.806s0.6-0.55 0.275-0.806c-0.094-0.075-0.213-0.131-0.275-0.131s-0.181 0.056-0.275 0.131z"></path>
<path fill="url(#gradient1)" d="M14.975 23.819c-0.325 0.256-0.144 0.806 0.275 0.806s0.6-0.55 0.275-0.806c-0.094-0.075-0.213-0.131-0.275-0.131s-0.181 0.056-0.275 0.131z"></path>
</svg>
