<?xml version="1.0" standalone="no"?>
<!DOCTYPE svg PUBLIC "-//W3C//DTD SVG 20010904//EN"
 "http://www.w3.org/TR/2001/REC-SVG-20010904/DTD/svg10.dtd">
<svg version="1.0" xmlns="http://www.w3.org/2000/svg"
 width="1888.000000pt" height="435.000000pt" viewBox="0 0 1888.000000 435.000000"
 preserveAspectRatio="xMidYMid meet">

<linearGradient id="gradient1" x1="0%" y1="0%" x2="0%" y2="100%">
  <stop offset="0%" style="stop-color: #ab080875; stop-opacity: .5" />
  <stop offset="100%" style="stop-color: #ab080875; stop-opacity: .9" />
</linearGradient>



<g transform="translate(0.000000,435.000000) scale(0.100000,-0.100000)"
fill="url(#gradient1)" stroke="none">
<path d="M8801 4337 c-14 -7 -42 -46 -67 -94 -24 -45 -86 -151 -137 -235 -249
-404 -496 -834 -617 -1073 l-76 -150 -125 -21 c-176 -30 -315 -66 -538 -140
-107 -35 -195 -63 -197 -61 -9 8 389 801 626 1247 106 199 191 379 203 430 9
38 -4 49 -72 61 -58 11 -64 10 -85 -10 -12 -11 -42 -58 -66 -103 -23 -46 -71
-132 -105 -193 -144 -255 -280 -495 -321 -565 -49 -86 -276 -520 -426 -817
l-103 -202 -123 -51 c-68 -28 -188 -73 -266 -99 -192 -65 -186 -59 -124 -101
68 -47 115 -45 277 9 156 52 157 52 131 2 -73 -144 -265 -667 -334 -908 -91
-322 -120 -484 -120 -680 -1 -164 1 -168 106 -168 l71 0 47 53 c40 45 210 324
210 345 0 4 -11 7 -25 7 -27 0 -24 4 -134 -165 -43 -66 -90 -131 -105 -144
-25 -24 -26 -24 -26 -3 0 31 52 227 110 412 143 455 485 1328 547 1392 36 38
51 46 218 108 277 103 608 210 650 210 21 0 16 -19 -32 -120 -38 -80 -159
-376 -225 -550 -138 -360 -295 -965 -327 -1262 -15 -137 -14 -305 2 -311 10
-4 10 -6 0 -6 -19 -1 -17 -122 3 -170 17 -44 42 -64 96 -79 53 -14 69 0 36 33
-37 36 -44 95 -29 230 53 485 302 1198 692 1987 l157 317 37 7 c34 6 214 0
330 -12 48 -4 49 -4 24 10 -34 20 -181 62 -264 77 -37 6 -65 16 -65 23 0 11
83 166 434 811 207 379 307 584 313 638 5 39 2 47 -18 60 -13 8 -44 18 -69 22
-25 3 -52 8 -60 11 -8 2 -26 -2 -39 -9z m-1086 -337 c-19 -38 -38 -70 -40 -70
-3 0 11 32 30 70 19 39 38 70 40 70 3 0 -11 -31 -30 -70z m-195 -364 c-23 -42
-43 -76 -46 -76 -2 0 14 36 37 81 22 45 43 79 46 76 3 -3 -14 -40 -37 -81z
m-156 -296 c-38 -71 -70 -127 -72 -125 -5 5 127 255 134 255 3 0 -25 -58 -62
-130z m-139 -29 c3 -5 1 -12 -5 -16 -5 -3 -10 1 -10 9 0 18 6 21 15 7z m-95
-180 c0 -6 -4 -13 -10 -16 -5 -3 -10 1 -10 9 0 9 5 16 10 16 6 0 10 -4 10 -9z
m8 -226 c-56 -112 -104 -202 -106 -201 -4 5 196 406 203 406 3 0 -41 -92 -97
-205z m-175 -350 c-3 -9 -8 -14 -10 -11 -3 3 -2 9 2 15 9 16 15 13 8 -4z
m1015 -90 c-6 -14 -13 -23 -15 -21 -5 5 15 46 22 46 3 0 -1 -11 -7 -25z m-63
-135 c-21 -44 -40 -79 -42 -77 -1 2 14 40 34 85 21 44 40 79 42 77 2 -2 -14
-40 -34 -85z m-1083 -62 c-7 -7 -12 -8 -12 -2 0 14 12 26 19 19 2 -3 -1 -11
-7 -17z m-27 -64 c-8 -16 -15 -23 -15 -16 0 17 20 55 26 49 2 -2 -2 -17 -11
-33z m1034 -43 c-12 -23 -24 -39 -27 -37 -2 3 6 23 19 45 12 23 24 39 27 37 2
-3 -6 -23 -19 -45z m-1169 19 c0 -5 -5 -10 -11 -10 -5 0 -7 5 -4 10 3 6 8 10
11 10 2 0 4 -4 4 -10z m1040 -5 c0 -8 -4 -15 -10 -15 -5 0 -7 7 -4 15 4 8 8
15 10 15 2 0 4 -7 4 -15z m-949 -68 c-10 -9 -11 -8 -5 6 3 10 9 15 12 12 3 -3
0 -11 -7 -18z m1030 -54 c-12 -20 -14 -14 -5 12 4 9 9 14 11 11 3 -2 0 -13 -6
-23z m-23 -58 c-6 -14 -13 -23 -15 -21 -5 5 15 46 22 46 3 0 -1 -11 -7 -25z
m-44 -104 c-9 -23 -19 -39 -22 -37 -3 3 3 24 13 46 24 52 31 45 9 -9z m-52
-123 c-7 -7 -12 -8 -12 -2 0 14 12 26 19 19 2 -3 -1 -11 -7 -17z m-19 -53 c-3
-9 -8 -14 -10 -11 -3 3 -2 9 2 15 9 16 15 13 8 -4z m-193 -200 c0 -14 -4 -25
-9 -25 -4 0 -6 11 -3 25 2 14 6 25 8 25 2 0 4 -11 4 -25z m-220 -955 c0 -5 -2
-10 -4 -10 -3 0 -8 5 -11 10 -3 6 -1 10 4 10 6 0 11 -4 11 -10z m57 -252 c-3
-7 -5 -2 -5 12 0 14 2 19 5 13 2 -7 2 -19 0 -25z"/>
<path d="M1893 4310 c-237 -36 -449 -108 -724 -246 -253 -126 -398 -229 -539
-381 -97 -106 -145 -202 -145 -293 0 -59 4 -73 45 -144 53 -93 133 -182 173
-192 39 -9 78 21 96 74 12 33 13 43 2 56 -15 18 -66 22 -76 6 -11 -18 -43 -11
-50 11 -13 39 6 133 38 194 39 75 227 265 346 349 324 231 728 391 1101 437
115 14 330 6 419 -16 35 -8 91 -30 124 -47 l59 -32 -6 -80 c-12 -141 -96 -279
-277 -451 -124 -118 -212 -187 -424 -332 -270 -185 -725 -456 -725 -432 0 41
388 686 604 1002 123 180 146 218 145 237 0 18 -79 70 -106 70 -10 0 -24 5
-31 12 -18 18 -106 -72 -215 -222 -118 -161 -427 -626 -427 -642 0 -6 -8 -21
-18 -32 -54 -60 -362 -621 -432 -786 -17 -41 -49 -111 -70 -156 -39 -82 -165
-412 -240 -629 -44 -129 -109 -376 -134 -515 -14 -71 -35 -316 -36 -399 0 -23
-3 -23 -48 -18 -26 3 -74 15 -106 27 -56 21 -59 25 -88 86 -27 57 -30 74 -29
156 0 51 7 119 15 151 21 78 20 120 -3 141 -19 17 -20 17 -30 -3 -6 -11 -11
-25 -11 -32 0 -7 -6 -20 -13 -28 -32 -38 -51 -116 -52 -211 0 -94 0 -96 44
-172 103 -180 204 -258 397 -309 222 -58 602 -23 930 86 323 108 638 272 913
477 149 111 354 322 439 451 119 181 167 359 143 524 -14 95 -49 171 -131 280
-189 254 -383 332 -910 363 -96 6 -176 12 -177 14 -2 1 99 70 225 153 579 384
904 685 989 920 43 120 27 234 -45 314 -97 108 -243 189 -386 214 -123 21
-385 19 -543 -5z m51 -392 c-22 -38 -237 -357 -255 -378 l-21 -25 18 30 c39
62 257 385 261 385 2 0 1 -6 -3 -12z m-1020 -199 c-16 -17 -60 -58 -99 -91
-55 -47 -49 -40 25 31 93 89 132 121 74 60z m1656 -113 c0 -2 -8 -10 -17 -17
-16 -13 -17 -12 -4 4 13 16 21 21 21 13z m130 1 c0 -2 -12 -14 -27 -28 l-28
-24 24 28 c23 25 31 32 31 24z m-1060 -137 c-6 -12 -14 -19 -17 -17 -2 3 1 15
7 27 6 12 14 19 17 17 2 -3 -1 -15 -7 -27z m-56 -82 c-27 -53 -206 -352 -216
-363 -19 -18 24 59 125 228 93 156 130 210 91 135z m546 -284 c-8 -8 -23 -20
-34 -25 -15 -7 -13 -3 7 15 31 29 47 35 27 10z m-130 -88 c0 -2 -51 -37 -112
-77 -146 -93 -165 -105 -153 -92 9 10 256 173 263 173 1 0 2 -2 2 -4z m-716
-143 c-25 -49 -51 -92 -57 -98 -6 -5 8 24 30 65 22 41 45 85 52 98 6 12 14 22
17 22 3 0 -16 -39 -42 -87z m364 -86 c-30 -25 -159 -96 -143 -79 10 11 156
100 165 101 3 0 -7 -10 -22 -22z m-553 -277 c-4 -12 -9 -19 -12 -17 -3 3 -2
15 2 27 4 12 9 19 12 17 3 -3 2 -15 -2 -27z m1105 -68 c208 -38 335 -89 442
-177 l58 -47 -6 -57 c-26 -224 -118 -386 -358 -627 -131 -130 -275 -242 -421
-326 -38 -23 -95 -55 -125 -73 -74 -44 -258 -135 -267 -133 -5 0 -33 -10 -63
-24 -91 -42 -369 -144 -455 -168 -44 -12 -98 -28 -120 -35 -55 -19 -181 -43
-309 -59 l-106 -13 0 32 c0 162 109 503 292 920 97 218 299 642 345 722 34 58
38 61 68 56 18 -3 95 2 171 11 208 24 200 24 479 21 211 -2 282 -6 375 -23z
m-1239 -198 c-16 -33 -30 -56 -31 -52 0 11 53 118 58 114 2 -2 -10 -30 -27
-62z m-179 -396 c-7 -7 -12 -8 -12 -2 0 14 12 26 19 19 2 -3 -1 -11 -7 -17z
m-18 -53 c-4 -8 -8 -15 -10 -15 -2 0 -4 7 -4 15 0 8 4 15 10 15 5 0 7 -7 4
-15z m-43 -92 c-12 -20 -14 -14 -5 12 4 9 9 14 11 11 3 -2 0 -13 -6 -23z m-18
-53 c-3 -12 -8 -19 -11 -16 -5 6 5 36 12 36 2 0 2 -9 -1 -20z m-32 -73 c-10
-9 -11 -8 -5 6 3 10 9 15 12 12 3 -3 0 -11 -7 -18z m-23 -68 c-6 -16 -12 -28
-14 -26 -5 5 13 57 20 57 3 0 0 -14 -6 -31z m-56 -151 c-8 -8 -9 -4 -5 13 4
13 8 18 11 10 2 -7 -1 -18 -6 -23z m1711 -153 c-3 -9 -8 -14 -10 -11 -3 3 -2
9 2 15 9 16 15 13 8 -4z m-363 -50 c0 -2 -10 -10 -22 -16 -21 -11 -22 -11 -9
4 13 16 31 23 31 12z m270 -26 c-107 -93 -427 -278 -587 -340 -53 -20 -14 4
123 76 159 83 321 178 424 249 76 53 89 57 40 15z m-340 -14 c0 -2 -10 -9 -22
-15 -22 -11 -22 -10 -4 4 21 17 26 19 26 11z"/>
<path d="M16770 3479 c-58 -36 -149 -125 -247 -245 -51 -62 -101 -115 -111
-118 -9 -2 -55 -12 -102 -21 -349 -68 -789 -214 -806 -268 -3 -11 -1 -37 6
-58 15 -45 18 -45 135 1 86 33 235 78 418 124 168 43 227 52 227 37 0 -6 -61
-113 -136 -238 -132 -221 -295 -537 -310 -598 -4 -16 -10 -34 -15 -40 -31 -41
-105 -309 -134 -485 -39 -246 0 -443 108 -535 52 -45 152 -95 188 -95 45 0
145 36 201 71 l53 34 -31 3 c-17 2 -63 -10 -105 -27 -113 -45 -148 -49 -186
-17 -45 38 -65 96 -70 206 -14 283 126 740 382 1243 75 148 275 510 290 525 2
2 90 10 197 17 207 15 440 19 527 8 l53 -6 -5 -41 c-4 -23 -9 -56 -13 -73 -10
-52 13 -40 43 21 33 67 27 96 -32 152 -73 71 -197 96 -476 98 l-167 1 19 27
c11 14 54 66 97 115 69 77 83 88 111 88 26 0 36 6 48 28 17 33 9 47 -41 71
-45 21 -74 20 -116 -5z m0 -33 c0 -2 -8 -10 -17 -17 -16 -13 -17 -12 -4 4 13
16 21 21 21 13z m-34 -134 c-16 -15 -25 -20 -21 -12 13 25 38 50 44 45 3 -3
-8 -18 -23 -33z"/>
<path d="M8899 2558 c-131 -46 -280 -160 -421 -323 -98 -113 -145 -183 -207
-310 -79 -161 -105 -259 -81 -304 10 -20 112 -89 172 -117 74 -35 103 -15 455
320 169 160 294 266 316 266 5 0 7 -10 3 -22 -3 -13 3 -41 13 -63 10 -22 26
-59 36 -83 39 -91 230 -219 344 -230 59 -5 169 29 277 86 l70 38 -102 -211
c-298 -612 -441 -1100 -406 -1384 13 -102 36 -166 73 -199 17 -17 35 -22 75
-22 55 0 79 14 44 25 -50 16 -50 84 1 339 117 589 273 1035 456 1308 201 299
481 586 661 677 66 34 76 25 70 -62 -6 -83 -41 -192 -103 -325 -44 -92 -45
-93 -102 -118 -203 -87 -357 -190 -485 -322 -150 -154 -215 -267 -189 -329 12
-31 82 -82 146 -109 88 -36 177 4 332 150 148 140 272 304 383 506 28 52 61
102 72 111 12 9 48 26 82 38 62 21 248 62 254 56 2 -2 -12 -37 -31 -77 -202
-423 -319 -755 -371 -1054 -28 -158 -14 -404 30 -521 23 -63 74 -103 129 -103
46 0 61 14 25 23 -18 5 -20 14 -20 101 0 117 22 336 55 549 27 174 40 233 55
242 6 4 38 -7 72 -24 34 -17 75 -31 92 -31 44 0 173 59 249 113 210 150 421
438 520 712 14 39 28 78 32 87 7 17 56 36 147 57 26 6 49 11 51 11 3 0 -8 -31
-24 -68 -59 -142 -80 -294 -46 -345 25 -38 164 -127 198 -127 40 0 92 28 162
88 94 80 181 180 431 495 43 54 80 97 82 95 2 -3 -1 -20 -6 -39 -6 -18 -10
-48 -10 -65 0 -17 -6 -37 -14 -43 -8 -7 -24 -49 -36 -94 -41 -155 -234 -650
-364 -936 -65 -144 -195 -380 -282 -512 -77 -118 -194 -244 -277 -300 l-62
-41 -37 42 c-52 58 -78 146 -78 259 0 156 43 302 156 541 41 86 74 161 74 167
0 6 5 13 12 15 13 5 4 38 -10 38 -23 0 -65 -48 -123 -142 -180 -292 -254 -472
-266 -648 -12 -172 43 -261 197 -320 104 -39 168 -41 243 -7 267 122 584 675
802 1402 77 255 235 898 235 954 0 28 -36 36 -67 16 -40 -27 -73 -69 -60 -77
7 -4 1 -11 -15 -17 -14 -5 -114 -108 -221 -228 -271 -304 -484 -510 -504 -489
-10 9 17 126 52 232 52 158 184 407 238 451 22 18 54 70 46 76 -2 2 -17 13
-33 25 -18 14 -43 22 -67 22 -32 0 -46 -7 -78 -40 -43 -44 -128 -170 -185
-271 -40 -74 -37 -72 -171 -85 l-70 -6 3 76 c11 210 -40 286 -192 288 -101 2
-176 -40 -298 -165 -54 -55 -98 -97 -98 -93 0 3 20 47 45 96 67 133 128 291
117 302 -5 5 -25 11 -45 15 -34 5 -38 3 -69 -41 -26 -38 -290 -519 -301 -549
-1 -4 -43 -10 -92 -12 -50 -3 -121 -10 -158 -16 -38 -6 -70 -9 -73 -7 -2 3 7
42 21 88 46 155 49 282 7 340 -27 37 -87 62 -161 68 -58 4 -74 1 -121 -23 -73
-36 -177 -115 -277 -209 -46 -43 -83 -75 -83 -71 0 3 23 40 52 80 58 84 56 98
-12 110 -64 11 -96 -23 -231 -246 l-71 -117 -81 -37 c-178 -82 -358 -135 -411
-121 -37 9 -64 64 -97 197 -32 130 -40 152 -71 185 -19 21 -19 24 -2 108 14
73 15 96 5 140 -13 59 -33 82 -101 116 -69 35 -212 39 -301 8z m279 -75 c16
-31 24 -112 17 -178 l-7 -63 -77 5 c-97 7 -127 -3 -239 -76 -89 -59 -157 -117
-294 -250 -43 -42 -78 -72 -78 -67 0 20 110 198 176 286 137 182 291 307 434
354 32 10 60 5 68 -11z m2313 -80 c-12 -20 -14 -14 -5 12 4 9 9 14 11 11 3 -2
0 -13 -6 -23z m1025 -51 c-18 -16 -18 -16 -6 6 6 13 14 21 18 18 3 -4 -2 -14
-12 -24z m-658 -78 c3 -84 -20 -209 -46 -244 -13 -17 -67 -45 -163 -85 -138
-58 -323 -159 -350 -191 -7 -8 -21 -20 -31 -25 -19 -10 -19 -9 -2 23 60 117
252 366 361 468 73 69 175 131 208 127 18 -2 20 -11 23 -73z m-425 11 c-3 -9
-8 -14 -10 -11 -3 3 -2 9 2 15 9 16 15 13 8 -4z m1020 -20 c-3 -9 -8 -14 -10
-11 -3 3 -2 9 2 15 9 16 15 13 8 -4z m557 11 c0 -2 -8 -10 -17 -17 -16 -13
-17 -12 -4 4 13 16 21 21 21 13z m-1627 -91 c-3 -9 -8 -14 -10 -11 -3 3 -2 9
2 15 9 16 15 13 8 -4z m-63 -133 c0 -5 -7 -17 -15 -28 -14 -18 -14 -17 -4 9
12 27 19 34 19 19z m-526 -71 c-9 -23 -18 -40 -21 -38 -2 3 4 23 13 46 9 23
18 40 21 38 2 -3 -4 -23 -13 -46z m489 -6 c-3 -9 -8 -14 -10 -11 -3 3 -2 9 2
15 9 16 15 13 8 -4z m-2859 -149 c-20 -48 -39 -85 -42 -82 -3 3 12 44 33 91
21 47 40 84 42 82 2 -2 -13 -43 -33 -91z m3326 34 c0 -15 -56 -113 -114 -200
-133 -201 -320 -386 -464 -459 -36 -18 -43 -19 -48 -7 -18 46 91 232 210 363
75 82 147 140 295 242 105 71 121 80 121 61z m101 -96 c-23 -48 -43 -85 -45
-83 -5 5 77 179 82 174 2 -2 -15 -43 -37 -91z m-1467 -211 c-102 -133 -264
-296 -280 -280 -6 5 73 113 135 185 51 60 192 185 199 177 3 -3 -22 -39 -54
-82z m702 -274 c-9 -19 -15 -29 -16 -22 0 18 20 66 25 61 3 -3 -1 -20 -9 -39z
m-1060 -50 c-9 -22 -15 -27 -15 -16 -1 21 18 61 25 54 3 -3 -2 -20 -10 -38z
m918 -153 c-3 -15 -8 -25 -11 -23 -2 3 -1 17 3 31 3 15 8 25 11 23 2 -3 1 -17
-3 -31z m1759 -11 c-3 -9 -8 -14 -10 -11 -3 3 -2 9 2 15 9 16 15 13 8 -4z
m-3047 -91 c-14 -38 -25 -64 -25 -58 -1 15 40 136 45 131 2 -2 -7 -35 -20 -73z
m3014 5 c-7 -11 -14 -18 -17 -15 -3 3 0 12 7 21 18 21 23 19 10 -6z m-3128
-61 c-7 -7 -12 -8 -12 -2 0 14 12 26 19 19 2 -3 -1 -11 -7 -17z m3099 -5 c-8
-15 -10 -15 -11 -2 0 17 10 32 18 25 2 -3 -1 -13 -7 -23z m-1740 -34 c-9 -22
-10 -22 -10 -3 -1 11 2 24 6 27 12 12 14 0 4 -24z m1710 -22 c-10 -9 -11 -8
-5 6 3 10 9 15 12 12 3 -3 0 -11 -7 -18z m-3017 -96 c-9 -34 -19 -60 -21 -58
-2 3 4 32 13 66 10 33 19 59 21 57 3 -2 -3 -32 -13 -65z m2989 19 c-5 -19 -23
-39 -23 -25 0 9 20 45 24 45 2 0 2 -9 -1 -20z m-3016 -112 c-3 -8 -6 -5 -6 6
-1 11 2 17 5 13 3 -3 4 -12 1 -19z m-20 -110 c-3 -7 -5 -2 -5 12 0 14 2 19 5
13 2 -7 2 -19 0 -25z m1310 -30 c-3 -8 -6 -5 -6 6 -1 11 2 17 5 13 3 -3 4 -12
1 -19z m-1330 -50 c-3 -7 -5 -2 -5 12 0 14 2 19 5 13 2 -7 2 -19 0 -25z m1330
-55 c-3 -10 -5 -4 -5 12 0 17 2 24 5 18 2 -7 2 -21 0 -30z m0 -105 c-3 -8 -6
-5 -6 6 -1 11 2 17 5 13 3 -3 4 -12 1 -19z"/>
<path d="M4227 2349 c-30 -63 -77 -172 -103 -242 -47 -128 -47 -129 -103 -166
-152 -103 -482 -264 -613 -298 -61 -16 -67 -16 -91 -1 -31 21 -77 112 -77 154
0 30 2 32 45 38 175 27 445 284 463 441 4 38 1 47 -21 68 -54 49 -177 62 -256
27 -143 -65 -332 -258 -383 -392 -23 -60 -24 -168 -2 -231 21 -61 82 -115 193
-170 80 -40 89 -42 170 -41 63 0 102 6 145 22 109 40 249 133 377 250 l66 61
-25 -95 -24 -96 33 -28 c54 -46 93 -64 122 -56 19 4 46 39 112 144 103 163
234 338 304 406 48 48 50 48 55 25 58 -260 74 -296 177 -393 93 -88 128 -106
206 -106 70 0 146 33 242 106 73 55 241 212 241 225 0 5 -11 11 -24 15 -18 4
-45 -9 -118 -58 -165 -111 -330 -188 -404 -188 -25 0 -38 7 -54 30 -37 52 -68
135 -101 269 -17 71 -39 143 -49 159 -35 56 -159 95 -221 69 -46 -19 -126 -93
-199 -183 -33 -41 -60 -69 -60 -61 0 28 71 222 91 250 21 30 47 132 36 143 -3
3 -26 9 -51 11 l-45 5 -54 -113z m-587 -42 c0 -28 -45 -101 -108 -175 -88
-102 -261 -237 -279 -218 -11 11 38 120 81 180 54 75 122 141 200 195 68 47
106 54 106 18z m-412 -312 c-6 -14 -13 -23 -15 -21 -5 5 15 46 22 46 3 0 -1
-11 -7 -25z m978 -257 c-9 -12 -16 -19 -16 -15 0 11 24 47 28 42 2 -2 -3 -14
-12 -27z"/>
<path d="M13393 2357 c-82 -165 -223 -560 -235 -656 -4 -33 89 -111 132 -111
34 0 44 12 153 185 42 66 101 154 132 195 62 83 183 220 193 220 4 0 17 -46
29 -102 35 -172 54 -212 145 -301 103 -101 141 -120 227 -115 87 5 111 17 301
156 17 12 16 9 -1 -54 -25 -92 -27 -168 -5 -193 10 -11 54 -39 98 -61 90 -47
142 -54 198 -25 123 63 357 306 546 568 60 84 64 74 34 -85 -37 -199 -152
-576 -236 -776 -59 -141 -181 -375 -250 -481 -80 -120 -268 -307 -353 -349
-35 -18 -76 -32 -91 -32 -53 0 -159 101 -200 192 -16 36 -20 65 -20 173 0 124
2 135 36 230 51 140 51 145 22 145 -26 0 -58 -43 -58 -78 0 -11 -7 -23 -16
-26 -24 -9 -113 -206 -130 -288 -39 -182 35 -339 187 -395 178 -67 314 -77
431 -34 130 50 302 220 427 424 168 275 337 744 423 1177 18 91 22 149 23 281
0 175 -2 185 -50 212 -12 6 -43 26 -70 44 -61 41 -133 57 -265 57 l-105 1 -80
-43 c-148 -80 -248 -175 -357 -337 -64 -95 -131 -145 -313 -236 -88 -44 -135
-62 -177 -66 l-56 -6 -27 43 c-38 60 -68 146 -100 283 -32 138 -51 166 -131
196 -69 26 -95 26 -146 0 -44 -22 -161 -137 -211 -206 -17 -24 -32 -41 -35
-39 -7 8 59 199 88 251 15 28 32 71 38 98 8 42 8 49 -8 57 -11 6 -34 10 -53
10 -32 0 -35 -3 -84 -103z m1927 14 c0 -5 -20 -33 -45 -63 -25 -29 -80 -96
-122 -148 -136 -168 -249 -294 -353 -393 -102 -97 -120 -109 -120 -83 0 23 65
186 108 273 97 192 295 378 438 412 52 12 94 13 94 2z m-1859 -488 c-12 -20
-14 -14 -5 12 4 9 9 14 11 11 3 -2 0 -13 -6 -23z m1194 -89 c-25 -68 -44 -102
-30 -54 17 56 47 131 51 127 3 -2 -7 -35 -21 -73z m-1285 -54 c-6 -11 -13 -20
-16 -20 -2 0 0 9 6 20 6 11 13 20 16 20 2 0 0 -9 -6 -20z m1999 -254 c-12 -42
-24 -74 -27 -71 -3 3 5 39 18 80 31 97 38 90 9 -9z m-95 -285 c-20 -50 -40
-93 -44 -96 -5 -3 9 40 31 96 21 55 39 103 40 107 0 4 3 2 5 -4 3 -7 -12 -53
-32 -103z m-84 50 c0 -6 -4 -13 -10 -16 -5 -3 -10 1 -10 9 0 9 5 16 10 16 6 0
10 -4 10 -9z m18 -217 c-7 -15 -14 -21 -16 -15 -2 7 2 18 8 26 18 22 21 18 8
-11z m-1141 -376 c-3 -7 -5 -2 -5 12 0 14 2 19 5 13 2 -7 2 -19 0 -25z"/>
<path d="M17490 2314 c-30 -8 -155 -49 -278 -90 -242 -83 -227 -81 -404 -58
-45 6 -64 -5 -38 -21 6 -3 10 -33 10 -66 0 -75 -39 -179 -114 -307 -77 -129
-206 -285 -223 -269 -11 11 27 166 63 262 63 163 187 369 268 443 50 46 66 52
66 23 0 -45 40 -33 54 16 9 29 -23 50 -99 64 -84 15 -131 -5 -220 -96 -153
-156 -297 -417 -335 -611 -22 -112 9 -163 154 -251 95 -58 159 -46 265 53 146
135 301 422 318 587 7 70 16 87 47 87 11 0 134 38 271 85 138 47 256 85 264
85 24 0 3 -49 -87 -205 -191 -333 -241 -433 -256 -514 -5 -29 -2 -37 30 -66
20 -18 55 -44 79 -56 40 -21 45 -22 66 -7 14 8 62 69 108 134 112 157 219 292
289 361 60 59 179 153 193 153 13 0 10 -56 -6 -130 -8 -36 -14 -96 -14 -135
-1 -101 20 -141 111 -208 98 -73 128 -87 187 -87 111 0 212 64 408 257 141
139 213 224 213 253 0 41 -32 26 -145 -68 -64 -53 -156 -125 -203 -159 -100
-72 -270 -161 -324 -170 -33 -5 -38 -3 -54 28 -15 30 -16 52 -9 214 9 192 9
236 1 271 -13 49 -178 81 -256 50 -55 -22 -144 -83 -212 -145 -31 -28 -58 -51
-61 -51 -4 0 12 37 33 83 22 45 45 108 51 139 10 50 9 61 -5 84 -35 52 -105
65 -206 38z m140 -224 c-6 -12 -14 -20 -17 -17 -2 3 1 14 8 26 17 26 24 19 9
-9z m-1183 -112 c-3 -8 -6 -5 -6 6 -1 11 2 17 5 13 3 -3 4 -12 1 -19z m1109
-30 c-14 -24 -26 -39 -26 -35 0 12 44 86 48 82 2 -2 -8 -23 -22 -47z m-1065
-85 c-11 -21 -20 -35 -21 -31 0 12 33 78 38 74 2 -2 -6 -21 -17 -43z m374 -63
c-21 -44 -40 -78 -43 -76 -2 3 13 41 33 86 21 44 40 78 43 76 2 -3 -13 -41
-33 -86z m-426 -59 c-6 -18 -13 -30 -15 -28 -2 2 1 18 7 36 6 18 13 30 15 28
2 -2 -1 -18 -7 -36z"/>
</g>
</svg>
