<?xml version="1.0" encoding="UTF-8" standalone="no"?>
<svg
   version="1.0"
   width="1765.000000pt"
   height="435.000000pt"
   viewBox="0 0 1765.000000 435.000000"
   preserveAspectRatio="xMidYMid meet"
   id="svg141"
   sodipodi:docname="t7.svg"
   xmlns:inkscape="http://www.inkscape.org/namespaces/inkscape"
   xmlns:sodipodi="http://sodipodi.sourceforge.net/DTD/sodipodi-0.dtd"
   xmlns:xlink="http://www.w3.org/1999/xlink"
   xmlns="http://www.w3.org/2000/svg"
   xmlns:svg="http://www.w3.org/2000/svg">
  <defs
     id="defs145">
    <linearGradient
       id="linearGradient296"
       x1="0"
       y1="0"
       x2="0"
       y2="1">
      <stop
         offset="0%"
         style="stop-color: #ab080875; stop-opacity: .5"
         id="stop9" />
      <stop
         offset="100%"
         style="stop-color: #ab080875; stop-opacity: .9"
         id="stop11" />
    </linearGradient>
    <linearGradient
       inkscape:collect="always"
       xlink:href="#gradient1"
       id="linearGradient300"
       x1="5.766503"
       y1="425.96479"
       x2="5.766503"
       y2="3753.9884"
       gradientTransform="matrix(0.74724385,0.06434757,-0.08558879,0.99391001,1232.2966,540.35784)"
       gradientUnits="userSpaceOnUse" />
    <linearGradient
       inkscape:collect="always"
       xlink:href="#gradient1"
       id="linearGradient305"
       x1="7992.0763"
       y1="565.62526"
       x2="7992.0763"
       y2="3210.5208"
       gradientTransform="matrix(0.7966553,0,0,1.255248,-195,300)"
       gradientUnits="userSpaceOnUse" />
    <linearGradient
       inkscape:collect="always"
       xlink:href="#gradient1"
       id="linearGradient591"
       x1="21313.123"
       y1="475.43051"
       x2="21313.123"
       y2="2654.4811"
       gradientTransform="matrix(0.69976773,0,0,1.4290456,-300,300)"
       gradientUnits="userSpaceOnUse" />
    <linearGradient
       inkscape:collect="always"
       xlink:href="#gradient1"
       id="linearGradient593"
       x1="8882.1788"
       y1="5.2475119"
       x2="8882.1788"
       y2="2393.33"
       gradientTransform="matrix(0.93254271,0,0,1.0723369,-300,300)"
       gradientUnits="userSpaceOnUse" />
    <linearGradient
       inkscape:collect="always"
       xlink:href="#gradient1"
       id="linearGradient595"
       x1="16324.37"
       y1="4.4585018"
       x2="16324.37"
       y2="1649.0695"
       gradientTransform="matrix(0.6416613,0,0,1.5584546,-300,300)"
       gradientUnits="userSpaceOnUse" />
    <linearGradient
       inkscape:collect="always"
       xlink:href="#gradient1"
       id="linearGradient597"
       x1="15352.638"
       y1="190.422"
       x2="15352.638"
       y2="1831.6705"
       gradientTransform="matrix(0.75719701,0,0,1.3206603,-300,300)"
       gradientUnits="userSpaceOnUse" />
    <linearGradient
       inkscape:collect="always"
       xlink:href="#gradient1"
       id="linearGradient599"
       x1="13630.15"
       y1="57.303049"
       x2="13630.15"
       y2="2152.0321"
       gradientTransform="matrix(0.9604265,0,0,1.0412041,-300,300)"
       gradientUnits="userSpaceOnUse" />
    <linearGradient
       inkscape:collect="always"
       xlink:href="#gradient1"
       id="linearGradient601"
       x1="11043.792"
       y1="1842.5504"
       x2="11043.792"
       y2="3166.8736"
       gradientTransform="matrix(1.4270566,0,0,0.70074306,-300,300)"
       gradientUnits="userSpaceOnUse" />
    <linearGradient
       inkscape:collect="always"
       xlink:href="#gradient1"
       id="linearGradient603"
       x1="2533.3388"
       y1="1614.7963"
       x2="2533.3388"
       y2="3071.3103"
       gradientTransform="matrix(1.3634258,-0.24817917,0.1292248,0.7099243,-398.66627,647.93167)"
       gradientUnits="userSpaceOnUse" />
  </defs>
  <sodipodi:namedview
     id="namedview143"
     pagecolor="#ffffff"
     bordercolor="#666666"
     borderopacity="1.0"
     inkscape:pageshadow="2"
     inkscape:pageopacity="0.0"
     inkscape:pagecheckerboard="0"
     inkscape:document-units="pt"
     showgrid="false" />
  <linearGradient
     id="gradient1"
     x1="0%"
     y1="0%"
     x2="0%"
     y2="100%">
    <stop
       offset="0%"
       style="stop-color: #ab080875; stop-opacity: .5"
       id="stop116" />
    <stop
       offset="100%"
       style="stop-color: #ab080875; stop-opacity: .9"
       id="stop118" />
  </linearGradient>
  <g
     transform="translate(0.000000,435.000000) scale(0.100000,-0.100000)"
     fill="url(#gradient1)"
     stroke="none"
     id="g139">
    <path
       d="m 7212,4304 c -180,-77 -458,-286 -663,-496 -356,-367 -454,-651 -319,-919 34,-67 136,-191 191,-233 37,-29 56,-36 91,-36 37,0 44,3 41,18 -2,10 -20,22 -43,30 -98,30 -195,213 -195,366 0,178 144,432 375,661 202,200 585,465 656,453 17,-3 16,-10 -22,-118 -190,-538 -264,-793 -360,-1232 -33,-156 -64,-290 -69,-298 -4,-8 -65,-46 -136,-83 -237,-127 -415,-258 -444,-327 -37,-90 39,-166 248,-245 105,-39 160,-80 197,-148 29,-52 32,-67 44,-218 12,-159 36,-280 65,-337 21,-41 95,-132 106,-132 14,0 12,46 -6,115 -11,40 -17,127 -21,265 -5,230 11,406 69,759 l 32,194 151,72 c 174,84 428,195 444,195 14,0 14,-22 -5,-155 -20,-144 -30,-638 -15,-720 21,-112 94,-195 172,-195 22,0 39,1 39,3 0,1 -10,27 -22,57 -40,104 -36,355 13,682 31,213 70,408 84,422 15,14 223,72 298,82 54,8 61,15 53,49 -14,54 -93,67 -241,40 -44,-8 -81,-15 -82,-15 -4,0 77,300 88,323 8,18 20,27 35,27 18,0 25,7 29,28 22,107 65,225 166,459 l 23,53 -20,27 c -32,43 -83,73 -123,73 -31,0 -42,-6 -70,-42 -101,-130 -268,-558 -342,-875 l -34,-142 -165,-57 c -91,-31 -221,-78 -289,-105 -69,-27 -127,-47 -129,-44 -12,12 78,355 238,905 131,448 150,526 150,605 0,76 -32,146 -88,198 -36,32 -48,37 -90,37 -27,-1 -71,-11 -105,-26 z m -2,-172 c -201,-104 -426,-280 -621,-484 -53,-57 -83,-84 -65,-61 77,101 347,342 511,456 83,58 247,146 270,146 8,0 -35,-25 -95,-57 z m 725,-1077 c -27,-94 -49,-163 -49,-155 -1,27 87,335 94,328 2,-2 -18,-80 -45,-173 z m -93,-397 c -3,-8 -6,-5 -6,6 -1,11 2,17 5,13 3,-3 4,-12 1,-19 z m -10,-50 c -3,-7 -5,-2 -5,12 0,14 2,19 5,13 2,-7 2,-19 0,-25 z m -297,-2 c 0,-2 -37,-18 -82,-36 -46,-18 -137,-58 -203,-88 -141,-64 -165,-73 -165,-66 0,7 127,65 295,135 135,56 155,63 155,55 z m 284,-75 c -4,-28 -9,-50 -11,-47 -3,3 -2,28 2,56 4,28 9,49 12,47 2,-3 1,-28 -3,-56 z m -19,-126 c -4,-31 -9,-54 -12,-51 -3,2 -1,30 2,61 4,31 9,54 12,51 3,-2 1,-30 -2,-61 z m -18,-117 c -2,-13 -4,-5 -4,17 -1,22 1,32 4,23 2,-10 2,-28 0,-40 z m -917,18 c 0,-3 -42,-28 -92,-57 -127,-72 -223,-137 -287,-195 -38,-34 -49,-41 -37,-22 34,52 162,144 316,227 100,53 100,53 100,47 z m 907,-98 c -2,-13 -4,-5 -4,17 -1,22 1,32 4,23 2,-10 2,-28 0,-40 z m -920,0 c -3,-18 -13,-103 -22,-188 -22,-216 -25,-240 -34,-240 -4,0 -23,16 -42,36 -41,43 -122,93 -209,129 -36,15 -67,29 -69,31 -8,7 53,65 115,110 69,49 243,154 257,154 5,0 7,-15 4,-32 z m 910,-80 c -2,-13 -4,-5 -4,17 -1,22 1,32 4,23 2,-10 2,-28 0,-40 z m -10,-95 c -3,-10 -5,-2 -5,17 0,19 2,27 5,18 2,-10 2,-26 0,-35 z"
       id="path123"
       style="fill:url(#linearGradient305)" />
    <path
       d="m 15540,4055 c -81,-118 -204,-398 -311,-707 -43,-126 -43,-127 -79,-133 -197,-36 -480,-160 -526,-230 -19,-28 -9,-70 19,-90 29,-20 44,-19 50,5 8,32 185,106 361,151 43,11 81,17 84,14 3,-3 -7,-71 -22,-151 -64,-338 -86,-614 -86,-1082 0,-356 10,-473 51,-622 29,-106 65,-168 118,-202 41,-25 99,-37 113,-22 4,3 -4,30 -18,59 -61,140 -78,316 -71,739 6,335 19,501 63,785 37,239 95,525 109,540 4,3 133,6 288,6 279,-1 283,-1 362,-28 86,-28 102,-25 91,19 -25,99 -203,144 -568,144 -76,0 -138,4 -138,8 0,21 84,293 140,452 34,96 73,208 87,249 l 25,73 -24,24 c -13,13 -38,28 -56,33 -30,9 -33,7 -62,-34 z m 31,-222 c -12,-20 -14,-14 -5,12 4,9 9,14 11,11 3,-2 0,-13 -6,-23 z m -54,-149 c -24,-66 -66,-191 -93,-279 -27,-87 -50,-152 -52,-144 -5,27 174,557 185,546 2,-2 -16,-58 -40,-123 z m -221,-776 c -19,-95 -41,-213 -48,-263 -7,-49 -14,-81 -16,-70 -6,39 84,523 95,511 2,-2 -11,-82 -31,-178 z m -85,-564 c -11,-110 -25,-289 -31,-399 -14,-248 -20,-291 -14,-85 7,215 50,697 61,686 2,-2 -5,-93 -16,-202 z"
       id="path125"
       style="fill:url(#linearGradient591)" />
    <path
       d="m 9497,2850 c -53,-42 -162,-320 -213,-545 l -18,-80 -105,-105 c -104,-103 -163,-143 -230,-156 l -32,-7 3,129 c 2,142 -6,172 -59,214 -32,25 -71,21 -135,-11 -44,-23 -48,-23 -48,-6 0,33 -61,107 -112,136 -112,65 -209,31 -368,-129 -101,-102 -160,-190 -186,-279 -19,-63 -14,-101 20,-176 19,-42 36,-62 72,-85 26,-16 59,-30 73,-30 61,0 209,90 466,283 l 140,106 12,-77 c 26,-156 114,-272 207,-272 53,0 113,37 180,111 l 49,54 -6,-35 c -12,-67 -36,-286 -48,-435 -13,-168 -6,-663 11,-830 13,-115 34,-213 56,-261 18,-37 74,-65 117,-57 27,5 27,6 20,57 -12,81 -8,715 6,881 15,189 27,238 95,408 75,187 173,375 277,532 82,123 207,281 215,272 7,-7 -36,-148 -77,-250 -47,-118 -82,-180 -149,-261 -27,-32 -62,-83 -77,-112 -26,-51 -27,-56 -13,-81 24,-42 76,-73 125,-73 73,0 121,67 238,332 11,26 41,55 93,94 92,68 114,89 114,109 0,22 -37,18 -99,-10 l -53,-25 6,22 c 3,13 15,67 27,121 29,136 22,177 -40,238 -56,54 -104,68 -148,45 -31,-16 -150,-136 -204,-206 -56,-71 -139,-197 -191,-290 -26,-47 -48,-80 -48,-73 0,37 68,367 110,533 28,108 50,206 50,217 0,28 -38,71 -70,78 -18,4 -34,0 -53,-15 z m 411,-389 c -13,-15 -47,-57 -77,-92 -121,-143 -270,-397 -367,-627 -26,-62 -49,-110 -51,-108 -7,7 83,209 149,336 73,142 204,339 292,443 37,42 69,77 72,77 3,0 -5,-13 -18,-29 z M 8395,2270 c -105,-70 -114,-75 -80,-45 38,34 116,85 129,85 6,0 -16,-18 -49,-40 z m 205,-16 c 6,-14 10,-27 10,-29 0,-3 -305,-195 -384,-240 l -48,-28 15,29 c 8,17 36,57 61,90 96,128 205,204 294,204 36,0 44,-4 52,-26 z m 837,-46 c -3,-8 -6,-5 -6,6 -1,11 2,17 5,13 3,-3 4,-12 1,-19 z m -10,-60 c -3,-8 -6,-5 -6,6 -1,11 2,17 5,13 3,-3 4,-12 1,-19 z m -752,-53 c -131,-108 -443,-315 -474,-315 -9,0 13,16 48,36 72,40 187,117 341,228 105,75 142,97 85,51 z m 742,3 c -3,-8 -6,-5 -6,6 -1,11 2,17 5,13 3,-3 4,-12 1,-19 z m -10,-60 c -3,-8 -6,-5 -6,6 -1,11 2,17 5,13 3,-3 4,-12 1,-19 z m -10,-60 c -3,-7 -5,-2 -5,12 0,14 2,19 5,13 2,-7 2,-19 0,-25 z m 488,-126 c -25,-49 -55,-98 -67,-108 -14,-13 -10,-1 14,36 19,30 47,81 63,113 15,31 30,55 33,53 2,-3 -17,-45 -43,-94 z m -498,66 c -3,-8 -6,-5 -6,6 -1,11 2,17 5,13 3,-3 4,-12 1,-19 z m -257,-23 c 0,-10 -103,-85 -118,-85 -9,0 13,20 49,44 70,49 69,48 69,41 z m 180,-870 -7,-200 -1,171 c -2,144 4,244 13,232 1,-2 -1,-93 -5,-203 z"
       id="path127"
       style="fill:url(#linearGradient593)" />
    <path
       d="m 10515,2846 c -72,-72 -172,-357 -235,-666 -87,-433 -119,-846 -100,-1297 18,-452 55,-579 166,-576 19,1 38,3 40,6 3,2 0,42 -6,88 -21,172 -1,848 31,1023 29,162 206,544 351,761 67,100 208,278 215,271 7,-7 -25,-120 -61,-214 -48,-124 -87,-199 -138,-263 -59,-72 -106,-141 -118,-174 -21,-56 53,-125 134,-125 65,0 134,93 216,294 28,66 40,83 78,110 97,67 142,107 142,126 0,26 -29,26 -82,0 -67,-32 -68,-30 -42,78 29,119 30,173 4,228 -22,44 -76,88 -122,99 -41,10 -91,-20 -167,-101 -99,-106 -173,-206 -262,-356 -44,-73 -78,-122 -75,-108 3,14 17,89 31,167 14,79 50,241 80,360 51,207 53,218 38,244 -16,27 -51,49 -79,49 -8,0 -26,-11 -39,-24 z m 388,-420 c -28,-30 -76,-89 -108,-133 -60,-81 -84,-110 -70,-83 36,64 206,270 223,270 2,0 -18,-24 -45,-54 z m -446,-238 c -3,-8 -6,-5 -6,6 -1,11 2,17 5,13 3,-3 4,-12 1,-19 z m 249,-23 c -62,-95 -171,-306 -226,-438 -18,-43 -34,-76 -36,-74 -17,16 248,537 273,537 3,0 -2,-11 -11,-25 z m -259,-27 c -3,-8 -6,-5 -6,6 -1,11 2,17 5,13 3,-3 4,-12 1,-19 z m -10,-60 c -3,-7 -5,-2 -5,12 0,14 2,19 5,13 2,-7 2,-19 0,-25 z m -10,-60 c -3,-7 -5,-2 -5,12 0,14 2,19 5,13 2,-7 2,-19 0,-25 z m -10,-60 c -3,-7 -5,-2 -5,12 0,14 2,19 5,13 2,-7 2,-19 0,-25 z m 509,-71 c -27,-62 -70,-132 -88,-143 -6,-4 -3,6 9,22 11,16 37,62 57,102 42,84 56,96 22,19 z m -596,-972 -7,-310 -1,236 c -2,200 5,396 13,387 1,-2 -1,-142 -5,-313 z"
       id="path129"
       style="fill:url(#linearGradient595)" />
    <path
       d="m 12232,2705 c -65,-29 -153,-135 -352,-425 -173,-253 -328,-450 -353,-450 -18,0 -1,274 28,429 l 27,144 -23,18 c -13,10 -39,19 -56,19 -27,0 -37,-7 -58,-38 -46,-70 -97,-244 -115,-395 -23,-187 33,-303 166,-343 65,-19 98,-18 146,7 99,51 207,182 450,549 166,251 265,383 282,377 18,-6 25,-74 25,-264 1,-126 -5,-230 -19,-335 -31,-245 -21,-221 -135,-302 -113,-81 -352,-308 -426,-405 -62,-82 -142,-245 -163,-332 -42,-173 0,-305 120,-375 124,-73 287,-20 399,128 93,124 166,283 236,514 91,303 134,552 151,878 13,258 5,362 -36,452 -58,127 -190,194 -294,149 z m 26,-167 c -14,-18 -107,-154 -208,-303 -168,-248 -304,-435 -316,-435 -8,0 2,14 91,135 45,61 145,205 222,320 133,199 218,315 230,315 3,0 -6,-15 -19,-32 z m 187,-1020 c -41,-184 -112,-420 -150,-500 -29,-60 -27,-53 26,93 36,102 113,393 140,529 7,35 14,59 16,53 2,-6 -12,-85 -32,-175 z m -155,-7 c -95,-403 -245,-749 -371,-855 -45,-38 -69,-31 -99,29 -22,44 -25,63 -24,150 0,87 4,111 32,184 56,148 132,270 253,408 68,76 229,226 236,219 2,-2 -10,-63 -27,-135 z m -29,-578 c -12,-20 -14,-14 -5,12 4,9 9,14 11,11 3,-2 0,-13 -6,-23 z"
       id="path131"
       style="fill:url(#linearGradient597)" />
    <path
       d="m 14505,2528 c -35,-19 -76,-61 -137,-140 -32,-43 -63,-78 -68,-78 -5,0 -18,13 -29,29 -36,51 -80,71 -154,71 -63,0 -66,-1 -116,-46 -34,-31 -63,-70 -87,-120 -31,-62 -51,-86 -121,-147 -85,-72 -200,-157 -214,-157 -11,0 -25,52 -44,155 -17,92 -42,147 -75,165 -10,6 -36,10 -58,10 -56,0 -109,-51 -250,-239 -64,-85 -123,-162 -130,-171 -17,-19 -10,73 24,327 30,230 31,264 2,297 -33,37 -71,43 -96,15 -26,-27 -73,-155 -106,-287 -70,-275 -74,-473 -9,-544 56,-62 192,-94 232,-53 11,11 54,85 97,165 125,236 202,360 223,360 5,0 12,-24 15,-52 14,-105 71,-192 151,-229 77,-36 115,-24 216,69 l 57,52 3,-78 c 3,-65 9,-85 32,-120 39,-59 96,-94 163,-100 46,-4 60,-1 94,22 66,44 147,157 334,466 113,187 136,217 147,197 8,-13 30,-181 42,-319 4,-45 3,-47 -37,-76 -75,-54 -186,-224 -310,-477 -228,-462 -313,-775 -260,-956 20,-67 101,-152 161,-168 62,-18 159,-14 201,8 166,85 313,415 377,846 52,348 28,865 -51,1115 -22,71 -33,90 -83,141 -60,62 -91,72 -136,47 z m 42,-140 c -9,-13 -56,-84 -103,-158 -200,-309 -239,-368 -282,-422 -25,-32 -49,-58 -54,-58 -6,0 6,21 26,48 20,26 112,160 203,297 92,138 178,265 191,283 27,36 43,45 19,10 z m -333,-137 16,-53 -71,-104 c -39,-58 -91,-130 -115,-161 -44,-56 -44,-56 -44,-25 0,59 31,177 64,249 35,73 113,170 127,156 4,-4 14,-32 23,-62 z m -140,-1 c -15,-22 -29,-40 -31,-40 -5,0 3,15 29,53 30,43 31,32 2,-13 z m -961,-490 c -15,-28 -38,-63 -51,-78 -12,-15 -2,8 24,51 52,86 70,104 27,27 z m 1537,3 c 0,-16 -5,-84 -10,-153 -26,-333 -95,-640 -191,-847 -63,-138 -181,-293 -223,-293 -32,0 -35,187 -5,326 33,155 129,420 234,649 53,114 178,345 187,345 4,0 8,-12 8,-27 z m -453,-885 c -3,-8 -6,-5 -6,6 -1,11 2,17 5,13 3,-3 4,-12 1,-19 z m -18,-82 c -7,-31 -14,-54 -16,-52 -3,2 1,30 7,61 6,31 14,55 16,52 2,-2 -1,-29 -7,-61 z m 450,-5 c -6,-18 -13,-30 -15,-28 -2,2 1,18 7,36 6,18 13,30 15,28 2,-2 -1,-18 -7,-36 z m -38,-88 c -11,-21 -20,-35 -21,-31 0,12 33,78 38,74 2,-2 -6,-21 -17,-43 z m -66,-130 c -14,-27 -42,-66 -61,-88 -20,-22 -29,-29 -20,-15 38,59 101,150 104,150 2,0 -8,-21 -23,-47 z"
       id="path133"
       style="fill:url(#linearGradient599)" />
    <path
       d="m 4471.2266,2005.7651 c -25.6726,-12.6063 -78.9967,-93.3623 -128.2994,-191.1133 -32.2125,-65.2867 -53.3263,-91.9364 -124.3572,-158.2886 -211.7506,-197.268 -483.6875,-351.0547 -660.4307,-372.7537 -84.1676,-10.0901 -90.9638,-2.7544 -75.7417,80.8715 11.8196,64.933 13.5197,68.6893 35.1641,64.7494 71.0151,-11.9102 210.6513,68.3813 324.3565,184.9023 40.0787,41.4933 85.9742,98.1908 101.006,124.9311 62.5435,114.653 43.9616,224.7607 -50.6543,296.8706 -94.7949,71.126 -225.6629,5.5014 -388.8475,-198.574 -97.5172,-122.5169 -149.055,-215.7953 -172.957,-319.1863 -19.9622,-81.7466 -20.1435,-93.9108 -6.202,-151.3358 37.7146,-150.1819 166.2206,-265.0522 291.0836,-260.3369 116.8133,5.1642 302.157,96.4479 474.7198,234.781 l 98.6712,78.6003 -7.1701,-72.8944 c -9.14,-83.7165 2.0313,-128.4401 40.8406,-172.096 36.5742,-39.1833 118.1373,-82.49 152.0365,-80.5291 41.1441,2.675 69.503,30.0388 190.0133,183.9455 113.9794,145.9475 240.658,283.4849 261.4092,285.8063 7.4241,1.6979 10.5502,-20.2162 9.3805,-54.562 -4.3977,-74.4154 5.6107,-119.9438 41.9129,-177.3733 51.6809,-84.6232 128.4154,-120.9524 197.3812,-93.8652 45.7981,17.0744 202.792,125.7157 254.4998,175.2565 43.0302,40.9561 56.0966,79.235 33.2916,93.5504 -22.0003,13.1525 -51.6082,1.2626 -162.0831,-64.0083 -87.5748,-51.1437 -207.9764,-109.5255 -221.7501,-107.0183 -8.8545,1.6117 -12.4249,37.8367 -13.121,134.5244 -1.4963,120.2114 -6.6785,147.5819 -33.5934,183.9905 -16.2741,22.2745 -32.9086,31.401 -65.3751,37.3108 -38.3695,6.9842 -50.2662,3.0511 -101.8812,-29.2273 -32.3826,-21.5492 -120.1409,-96.0373 -196.9863,-166.4132 -76.0408,-71.5389 -143.8504,-131.3624 -151.6326,-135.028 -16.3693,-6.1683 5.2024,73.2525 86.1983,322.7814 70.346,218.9416 75.1813,245.5051 53.3646,282.0022 -21.9957,35.5131 -58.5744,52.3357 -84.247,39.7295 z m -694.9899,-99.1415 c -25.9424,-19.6722 -62.2626,-51.6854 -81.139,-71.6273 -31.2219,-31.9248 -56.8061,-49.6293 -33.5455,-22.3539 57.8829,66.7126 136.3378,134.7627 153.063,131.7183 4.9192,-0.8954 -12.4362,-18.0649 -38.3785,-37.7371 z m 23.594,-93.7407 c -50.5495,-71.0968 -176.242,-197.633 -220.3422,-222.1314 -19.2323,-10.7293 -19.0532,-9.7454 -8.0475,11.6292 40.9809,79.9535 163.8148,224.2893 241.0162,285.4526 58.2365,46.3196 52.864,16.8046 -12.6265,-74.9504 z m -8.6275,-203.7488 c -0.3582,-1.9677 -9.6615,-8.4057 -19.7696,-13.6808 -18.0695,-9.9245 -18.8742,-8.7616 -3.219,4.6517 15.6551,13.4132 24.4212,16.8998 22.9886,9.0291 z m -48.1285,-41.0445 c -0.3581,-1.9677 -11.9873,-10.0152 -25.7632,-18.6884 l -26.0308,-14.5739 22.8118,19.2256 c 21.4697,17.437 30.4149,21.9073 28.9822,14.0367 z m 454.8872,-91.9493 c -16.9088,-20.3001 -170.6859,-144.7734 -196.8957,-160.3312 -27.1937,-15.3786 -7.8707,1.4327 128.2836,112.8509 70.4029,57.3186 87.8467,69.3899 68.6121,47.4803 z m 305.2245,-216.1551 c -19.7719,-24.861 -46.1631,-52.583 -59.3133,-63.4029 l -21.6489,-18.4208 18.2508,22.0886 c 10.3778,12.341 34.8014,40.4211 54.3941,64.2984 19.4137,22.8934 37.932,40.8677 40.8835,40.3304 1.9676,-0.3581 -11.9896,-21.1955 -32.5662,-44.8937 z m -533.8749,43.3084 c -0.3582,-1.9677 -22.4536,-17.258 -48.8425,-33.7996 l -49.4682,-31.6527 47.0539,35.1415 c 42.4023,31.9225 52.6895,38.1814 51.2568,30.3108 z m -114.68,-71.6206 c -0.3582,-1.9676 -9.6615,-8.4056 -19.7696,-13.6807 -18.0694,-9.9245 -18.8742,-8.7616 -3.219,4.6516 15.6552,13.4133 24.4213,16.8998 22.9886,9.0291 z"
       id="path135"
       style="fill:url(#linearGradient603)" />
    <path
       d="m 16361,2495 c -16,-22 -54,-110 -75,-178 -4,-12 -12,-17 -23,-13 -16,4 -118,14 -326,31 -73,6 -78,9 -92,36 -21,40 -70,64 -102,50 -93,-43 -225,-233 -268,-388 -45,-160 15,-323 140,-383 92,-44 184,-18 284,81 65,65 81,100 81,176 0,68 -20,115 -79,193 l -42,55 38,7 c 21,3 110,9 197,14 145,6 159,5 153,-9 -20,-53 -41,-207 -41,-313 -1,-114 0,-123 25,-160 31,-47 108,-91 173,-100 43,-6 48,-5 79,28 17,20 72,112 121,204 87,166 163,291 190,313 11,9 15,3 20,-36 13,-91 37,-145 86,-194 54,-54 109,-75 166,-65 29,6 58,28 139,109 111,110 145,157 145,200 0,49 -39,35 -137,-49 -74,-64 -159,-128 -210,-158 -18,-10 -32,25 -49,121 -26,149 -61,203 -131,203 -72,0 -102,-29 -279,-265 -64,-86 -118,-154 -120,-152 -5,5 18,220 45,430 21,161 19,181 -25,216 -35,28 -58,27 -83,-4 z m -568,-406 c 36,-32 57,-58 57,-72 0,-27 -27,-72 -66,-111 -60,-59 -174,-108 -174,-75 0,50 100,309 119,309 4,0 33,-23 64,-51 z m 767,-269 c -6,-11 -13,-20 -16,-20 -2,0 0,9 6,20 6,11 13,20 16,20 2,0 0,-9 -6,-20 z m -668,-34 c -27,-35 -72,-71 -112,-90 -34,-16 -34,-16 -10,1 13,10 49,39 80,65 64,54 68,57 42,24 z m 628,-33 c -11,-21 -30,-49 -42,-63 l -20,-25 17,29 c 10,16 26,44 37,63 27,46 34,42 8,-4 z"
       id="path137"
       style="fill:url(#linearGradient601)" />
    <path
       d="m 2543.8239,4395.185 c -201.5726,-48.611 -378.9321,-126.3941 -605.6858,-265.7299 -208.6834,-127.3623 -326.001,-226.8891 -436.2319,-368.3464 -75.7292,-98.5488 -109.9709,-184.8426 -103.2176,-263.266 4.3787,-50.8476 8.8657,-62.6142 49.4681,-120.7592 52.5767,-76.2146 128.1264,-146.9781 163.3391,-152.6281 34.2783,-4.8597 65.6617,23.8864 77.239,70.8978 7.8948,29.33 8.0134,38.0223 -2.4302,48.4094 -14.2621,14.3999 -58.5123,14.0615 -65.9421,-0.4681 -8.143,-16.3289 -36.2413,-12.6725 -43.9067,5.7686 -14.0968,32.6443 -4.6984,115.0646 18.3496,170.0083 28.0469,67.528 175.9639,245.2217 272.2835,326.4443 262.0816,223.1204 598.3711,390.9906 916.4066,458.3142 98.0684,20.5972 283.9504,29.659 362.2821,17.3061 30.7572,-4.2984 80.651,-19.1002 110.3505,-31.3032 l 53.2207,-23.2001 0.768,-69.3874 c 0.1202,-122.4045 -62.0286,-247.5653 -205.2498,-409.2272 -98.1065,-110.8951 -168.8223,-176.8887 -340.7633,-317.5833 -218.9557,-179.468 -590.963,-446.7823 -592.744,-426.1012 -3.0427,35.3341 283.468,619.9879 446.165,908.3462 92.6445,164.2513 109.6451,198.7075 107.3724,215.0061 -1.3358,15.5114 -73.278,54.4628 -96.5448,52.4592 -8.6171,-0.742 -21.0546,2.5289 -27.6078,8.0426 -16.8474,14.1758 -86.0045,-69.9178 -168.8082,-207.2752 -89.7453,-147.5074 -321.5322,-571.1743 -320.345,-584.9616 0.4454,-5.1721 -5.3359,-18.6927 -13.1367,-28.9141 -42.0831,-55.7156 -265.8847,-562.0409 -313.9674,-709.4331 -11.6052,-36.5934 -33.9892,-99.2954 -48.7476,-139.6352 -27.5253,-73.5604 -111.6205,-367.3036 -160.1512,-559.8801 -28.3463,-114.4373 -66.0327,-332.124 -77.2625,-453.7691 -6.7962,-62.2271 -6.7113,-274.9263 -1.4144,-346.5301 1.7068,-19.8212 -0.8776,-20.0438 -40.0291,-19.0744 -22.6297,0.6557 -64.8872,7.4352 -93.3547,15.4025 -49.8188,13.9417 -52.7012,17.1667 -82.2196,67.584 -27.4988,47.1171 -31.346,61.5464 -36.5695,132.2873 -3.785,43.9534 -2.7985,103.0729 1.7211,131.2452 12.3083,68.7795 8.3298,104.8989 -13.0495,121.2926 -17.6358,13.2384 -18.4987,13.1641 -25.6315,-4.8137 -4.3545,-9.9257 -7.6248,-22.3599 -7.1053,-28.3929 0.5197,-6.0345 -3.6865,-17.6822 -9.1246,-25.0949 -24.7579,-35.1227 -35.3436,-103.7542 -29.1553,-185.6988 6.976,-81.0096 7.1243,-82.732 50.6841,-144.9632 102.1228,-147.4805 194.9532,-207.2051 365.0634,-236.8342 195.6242,-33.50888 520.5109,24.8548 795.0897,143.1321 270.3449,117.0439 529.6413,281.7563 751.4218,478.8328 120.1702,106.7174 281.1786,303.7695 344.8601,421.2504 89.1212,164.8149 117.2762,321.7787 84.3478,462.1932 -19.1155,80.8309 -54.917,143.7309 -133.6745,231.581 -181.7291,204.87 -354.7069,257.6934 -811.1735,245.2987 -83.1782,-1.953 -152.5653,-2.7198 -153.5776,-1.0698 -1.7958,0.7134 80.1234,67.6736 182.55,148.5522 470.4848,373.8997 728.2304,657.4197 784.0425,866.249 28.1514,106.6066 5.9022,203.6651 -62.0831,267.265 -91.6116,85.8761 -223.4431,144.8469 -348.5353,155.7793 -107.5591,8.9687 -333.203,-12.1989 -467.585,-44.6076 z m 73.0434,-334.038 c -16.1407,-34.3817 -177.7523,-325.2512 -191.7066,-344.6838 l -16.2427,-23.1025 13.2852,27.1895 c 29.0097,56.3242 192.9108,350.8633 196.357,351.16 1.7246,0.1486 1.3092,-5.0973 -1.6929,-10.5632 z m -864.2647,-247.1932 c -12.5282,-15.84 -47.4043,-54.4371 -78.5649,-85.7709 -43.9095,-44.5868 -39.2602,-38.108 19.2429,28.5692 73.5425,83.6014 104.7801,114.0751 59.322,57.2017 z m 1435.5214,25.5107 c 0.1485,-1.7241 -6.1523,-9.2112 -13.39,-15.9136 -12.8233,-12.3897 -13.7594,-11.6019 -3.7432,3.1518 10.0161,14.754 16.5396,19.6558 17.1332,12.7618 z m 111.9583,10.5088 c 0.1482,-1.7221 -9.3008,-12.9551 -21.189,-26.1338 l -22.3487,-22.7599 18.6026,25.9109 c 17.9673,23.2518 24.3413,29.8774 24.9351,22.9828 z m -903.3371,-196.7315 c -4.2795,-10.7853 -10.6535,-17.4117 -13.3893,-15.9107 -1.9454,2.4378 -0.2503,12.9998 4.0279,23.7877 4.2824,10.7864 10.6582,17.4146 13.3911,15.9126 1.9453,-2.437 0.2525,-13.0015 -4.0297,-23.7896 z M 2354.569,3578.42 c -19.3356,-47.6794 -151.4062,-318.641 -159.2072,-328.8611 -15.0396,-16.922 16.3041,52.6259 90.8041,205.7651 68.5703,141.3419 96.4478,190.625 68.4031,123.096 z m 491.6198,-204.2297 c -6.3029,-7.4876 -18.3404,-18.944 -27.4482,-24.0695 -12.4066,-7.1457 -10.9799,-3.5495 4.9215,13.4465 24.561,27.2929 37.9047,33.6512 22.5267,10.623 z m -105.5046,-85.487 c 0.1484,-1.7238 -41.2056,-35.6702 -90.8056,-74.6686 -118.9215,-90.9835 -134.4043,-102.7359 -125.0283,-90.6423 7.014,9.2868 207.7816,168.0912 213.8134,168.6106 0.8627,0.074 1.8719,-1.5756 2.0205,-3.2997 z M 2134.251,3112.3314 c -17.9077,-44.0847 -37.1236,-83.0714 -41.8503,-88.6866 -4.7997,-4.7553 5.1135,21.2752 21.0304,58.244 15.9172,36.9657 32.4736,76.5908 37.5406,88.3126 4.2803,10.7876 10.4325,20.0001 13.018,20.2228 2.5845,0.2226 -10.8938,-34.7963 -29.7387,-78.0928 z m 320.0754,-47.1019 c -23.9991,-23.7708 -129.8995,-94.5322 -117.3742,-78.6936 7.8018,10.2216 127.0193,97.7564 134.7005,99.2843 2.5854,0.2226 -5.2896,-9.1373 -17.3263,-20.5907 z m -456.0175,-279.7576 c -2.5548,-10.6369 -6.3442,-17.0418 -9.0792,-15.54 -2.8081,2.3628 -2.8358,12.7786 -0.28,23.416 2.5577,10.6382 6.3472,17.0433 9.0801,15.5413 2.8081,-2.3628 2.8377,-12.7783 0.2791,-23.4173 z m 957.3321,23.4036 c 182.0746,-17.3118 295.3065,-51.8412 394.0507,-119.7368 l 53.4712,-36.2014 -0.9399,-49.5662 c -5.7826,-194.9723 -73.0456,-341.4125 -261.9922,-566.9146 -103.2486,-121.7562 -219.0356,-228.9636 -338.6231,-312.1896 -31.0421,-22.6397 -77.7893,-54.449 -102.3078,-72.1879 -60.5076,-43.4114 -212.3235,-135.4889 -220.2281,-134.4342 -4.3111,-0.3712 -27.6988,-11.0666 -52.5131,-25.3577 -75.3069,-42.9494 -307.3156,-151.4829 -379.6492,-178.5478 -37.0301,-13.6078 -82.3776,-31.4028 -100.8189,-39.0684 -45.9884,-20.4569 -152.7936,-50.49 -261.9169,-73.7789 l -90.3851,-19.0697 -2.3749,27.5783 c -12.0224,139.6115 56.6058,441.5719 183.3697,814.5226 67.4153,195.0704 210.0332,575.4623 243.7374,647.8205 24.9973,52.5076 28.2228,55.3905 54.4483,53.307 15.7343,-1.2499 81.7215,8.774 146.5492,22.17 177.4715,36.1201 170.579,35.5266 411.2418,53.6457 181.9874,13.9354 243.471,15.7564 324.8809,8.0091 z M 1902.5688,2546.2882 c -11.3379,-29.6262 -21.6984,-50.4862 -22.8562,-47.1119 -0.8163,9.4789 36.9189,105.625 41.5248,102.5486 1.8731,-1.5751 -6.3927,-26.5963 -18.6686,-55.4367 z m -124.8711,-354.5544 c -5.5142,-6.5519 -9.7501,-7.7847 -10.1953,-2.6147 -1.0392,12.067 8.4141,23.2989 14.9623,17.7849 1.9482,-2.4357 -0.043,-9.5525 -4.767,-15.1702 z m -11.5814,-47.0115 c -2.8516,-7.1894 -5.7813,-13.5205 -7.5039,-13.6689 -1.7226,-0.1483 -3.9659,5.7373 -4.5595,12.6301 -0.5937,6.8945 2.3329,13.2237 7.5051,13.669 4.3079,0.3709 6.5511,-5.513 4.5583,-12.6302 z m -30.2304,-82.4752 c -8.8555,-18.127 -11.0253,-13.1055 -5.1976,9.9711 2.7794,8.0513 6.7154,12.7314 8.6626,10.2952 2.7339,-1.5019 0.9648,-11.2034 -3.465,-20.2663 z m -11.5804,-47.0104 c -1.6928,-10.5656 -5.4824,-16.9682 -8.2896,-14.6048 -4.7542,4.7987 1.6366,31.3942 7.6703,31.9138 1.7236,0.1484 2.3915,-7.6084 0.6193,-17.309 z m -22.1573,-65.2882 c -7.9514,-8.4962 -8.8883,-7.7099 -4.7535,4.8018 1.8413,8.8401 6.6421,13.5951 9.4504,11.2306 2.8078,-2.3609 0.8163,-9.4794 -4.6969,-16.0324 z M 1687.373,1889.64 c -3.9846,-14.2329 -8.2629,-25.0207 -10.1359,-23.4457 -4.6792,3.939 6.9743,50.0893 13.006,50.6086 2.5854,0.2227 1.0391,-12.0668 -2.8701,-27.1629 z m -37.0535,-134.2859 c -6.3028,-7.488 -7.4614,-4.1161 -5.2747,10.8317 2.4814,11.5001 5.5586,16.1062 8.7366,9.4348 2.2442,-5.8843 0.4761,-15.5868 -3.4619,-20.2665 z m 1485.8884,-4.8787 c -1.9176,-7.9781 -5.8545,-12.6584 -7.8028,-10.222 -2.8059,2.3622 -2.3916,7.6091 0.6123,13.0763 6.5671,14.4553 11.9615,12.316 7.1905,-2.8543 z m -309.1207,-70.0279 c 0.1485,-1.724 -7.8781,-9.36 -17.7733,-15.4233 -17.2798,-11.0375 -18.1446,-11.112 -8.0542,2.7796 10.0161,14.7531 25.0112,22.123 25.8275,12.6437 z m 234.6125,-2.371 c -85.3092,-88.0865 -347.3543,-271.2663 -480.6427,-336.5734 -44.1888,-21.1689 -12.3603,2.4094 100.3605,74.6244 130.8674,83.3293 263.4294,177.2233 346.9238,246.0553 61.5625,51.3135 72.4691,55.7259 33.3584,15.8937 z m -291.9719,-37.2953 c 0.1486,-1.7252 -7.95,-8.4997 -17.8454,-14.5613 -18.1426,-11.1111 -18.2168,-10.2502 -3.7443,3.152 16.8356,16.2074 20.9962,18.3029 21.5897,11.4093 z"
       id="path16"
       style="fill:url(#linearGradient300);stroke-width:0.86497" />
  </g>
</svg>
