<!-- Generated by IcoMoon.io -->
<svg version="1.1" xmlns="http://www.w3.org/2000/svg" width="32" height="32" viewBox="0 0 32 32">
<linearGradient id="gradient1" x1="100%" y1="0%" x2="0%" y2="0%">
    <stop offset="0%" style="stop-color: #5e2000; stop-opacity: 1" />
    <stop offset="100%" style="stop-color: #5e2000; stop-opacity: .5" />
  </linearGradient>
<path fill="url(#gradient1)" d="M1.856 0.069c-0.681 0.163-1.306 0.681-1.625 1.356l-0.2 0.419v28.313l0.2 0.419c0.25 0.531 0.662 0.944 1.194 1.194l0.419 0.2h28.313l0.419-0.2c0.531-0.25 0.944-0.663 1.194-1.194l0.2-0.419 0.019-5.813c0.006-3.2 0-5.875-0.019-5.95-0.019-0.081-0.119-0.188-0.225-0.244-0.163-0.081-0.225-0.081-0.375-0.019-0.1 0.038-0.206 0.106-0.231 0.144s-0.056 2.7-0.075 5.912c-0.031 5.375-0.038 5.863-0.137 6.038-0.137 0.256-0.444 0.563-0.7 0.7-0.181 0.1-1.069 0.106-14.225 0.106s-14.044-0.006-14.225-0.106c-0.256-0.137-0.563-0.444-0.7-0.7-0.1-0.181-0.106-1.069-0.106-14.225s0.006-14.044 0.106-14.225c0.137-0.256 0.444-0.563 0.7-0.7 0.181-0.1 1.069-0.106 14.225-0.106s14.044 0.006 14.225 0.106c0.256 0.137 0.563 0.444 0.7 0.7 0.1 0.181 0.106 0.744 0.137 7.475 0.019 4.006 0.050 7.313 0.075 7.35s0.131 0.106 0.231 0.144c0.15 0.063 0.212 0.063 0.375-0.019 0.106-0.056 0.206-0.163 0.225-0.244 0.019-0.075 0.025-3.4 0.019-7.387l-0.019-7.25-0.2-0.419c-0.25-0.531-0.663-0.944-1.194-1.194l-0.419-0.2-14.031-0.013c-8.025 0-14.131 0.019-14.269 0.050z"></path>
<path fill="url(#gradient1)" d="M2.313 1.988c-0.125 0.062-0.263 0.2-0.325 0.325-0.106 0.206-0.113 0.987-0.113 13.688s0.006 13.481 0.113 13.688c0.213 0.438 0.225 0.438 3.188 0.438h2.644l0.15-0.156c0.2-0.194 0.2-0.431 0-0.625l-0.15-0.156h-5.006v-26.375h1.612c1.606 0 1.619 0 1.75-0.144 0.194-0.206 0.181-0.5-0.025-0.663-0.162-0.125-0.244-0.131-1.894-0.131-1.519 0-1.75 0.012-1.944 0.113z"></path>
<path fill="url(#gradient1)" d="M7.787 2.006c-0.206 0.163-0.225 0.494-0.037 0.681 0.125 0.125 0.206 0.125 10.781 0.125h10.656v26.375h-9.781c-9.7 0-9.781 0-9.906 0.125-0.188 0.188-0.169 0.519 0.037 0.681l0.169 0.131h9.881c9.281 0 9.894-0.006 10.1-0.113 0.125-0.063 0.262-0.2 0.325-0.325 0.106-0.206 0.113-0.988 0.113-13.688s-0.006-13.481-0.113-13.688c-0.063-0.125-0.2-0.263-0.325-0.325-0.206-0.106-0.863-0.113-10.975-0.113h-10.756l-0.169 0.131z"></path>
<path fill="url(#gradient1)" d="M14.844 3.794c-2.794 0.169-5.65 1.006-8.119 2.388-1.119 0.619-1.406 0.975-1.412 1.725 0 0.919 0.675 1.588 1.606 1.594 0.325 0 0.444-0.031 0.781-0.219 2.244-1.25 4.169-1.925 6.362-2.225 0.775-0.106 3.1-0.106 3.875 0 2.225 0.306 4.087 0.956 6.375 2.231 0.381 0.213 0.431 0.225 0.844 0.2 0.481-0.031 0.837-0.181 1.106-0.469 0.531-0.563 0.569-1.544 0.069-2.119-0.406-0.469-2.331-1.463-3.919-2.025-2.425-0.856-5.075-1.237-7.569-1.081zM17.35 4.75c2.675 0.213 5.331 1.019 7.587 2.313 0.656 0.375 0.813 0.544 0.813 0.888 0 0.2-0.038 0.288-0.194 0.431-0.294 0.275-0.525 0.25-1.238-0.162-2.712-1.544-5.813-2.313-8.881-2.2-2.731 0.106-5.244 0.806-7.631 2.138-0.856 0.475-1.081 0.512-1.375 0.225-0.225-0.231-0.25-0.588-0.050-0.838 0.3-0.388 2.394-1.412 3.906-1.912 2.338-0.769 4.7-1.069 7.063-0.881z"></path>
<path fill="url(#gradient1)" d="M15.344 7.919c-1.225 0.063-2.55 0.312-3.75 0.712-0.969 0.319-2.681 1.156-3.044 1.481-1.106 0.994-0.431 2.763 1.050 2.763 0.356 0 0.45-0.037 1.281-0.463 1.544-0.794 2.731-1.15 4.325-1.287 1.375-0.125 3.075 0.106 4.419 0.606 0.325 0.119 1 0.425 1.494 0.681 0.831 0.431 0.925 0.463 1.281 0.463 0.875-0.006 1.506-0.581 1.581-1.45 0.044-0.444-0.094-0.838-0.406-1.188-0.488-0.544-3.175-1.8-3.844-1.8-0.262 0-0.438 0.181-0.438 0.444 0 0.269 0.156 0.387 0.831 0.613 0.794 0.269 2.438 1.081 2.712 1.344 0.169 0.156 0.225 0.262 0.225 0.406 0 0.613-0.538 0.869-1.125 0.537-3.394-1.931-7.169-2.15-10.65-0.619-0.338 0.15-0.806 0.381-1.037 0.519-0.725 0.431-1.225 0.306-1.294-0.325-0.031-0.275-0.019-0.306 0.194-0.512 0.494-0.463 2.55-1.344 3.888-1.662 1.294-0.306 3.144-0.412 4.387-0.244 0.512 0.063 0.6 0.063 0.731-0.025 0.275-0.181 0.281-0.581 0.012-0.756-0.231-0.15-1.869-0.287-2.825-0.237z"></path>
<path fill="url(#gradient1)" d="M14.531 12.162c-1.262 0.225-3 0.969-3.431 1.469-0.731 0.856-0.425 2.131 0.613 2.525 0.475 0.181 0.963 0.113 1.631-0.231 0.313-0.156 0.8-0.363 1.094-0.463 0.494-0.162 0.6-0.175 1.563-0.175s1.069 0.012 1.563 0.175c0.294 0.094 0.8 0.313 1.125 0.481 0.531 0.275 0.631 0.306 1 0.306 1.137 0 1.887-1.019 1.525-2.075-0.169-0.494-0.456-0.756-1.281-1.175-0.831-0.412-1.681-0.7-2.519-0.844-0.694-0.119-2.2-0.113-2.881 0.006zM17.288 13.094c0.781 0.137 1.519 0.381 2.238 0.75 0.719 0.363 0.894 0.563 0.819 0.944-0.094 0.525-0.6 0.675-1.181 0.344-0.869-0.494-1.762-0.744-2.825-0.8-1.25-0.063-2.375 0.181-3.381 0.738-0.644 0.35-1.031 0.331-1.238-0.069-0.281-0.537 0.069-0.912 1.331-1.431 0.425-0.175 1.506-0.475 1.919-0.525 0.5-0.063 1.813-0.037 2.319 0.050z"></path>
<path fill="url(#gradient1)" d="M15.531 16.619c-0.5 0.131-1.056 0.569-1.281 1.006-0.169 0.325-0.244 0.856-0.188 1.225 0.1 0.631 0.512 1.181 1.1 1.469 0.431 0.212 1.237 0.219 1.662 0.006 1.488-0.738 1.512-2.806 0.038-3.55-0.337-0.169-0.994-0.25-1.331-0.156zM16.356 17.569c0.387 0.144 0.656 0.538 0.656 0.962 0 0.894-1.031 1.35-1.694 0.744-0.825-0.738 0-2.1 1.037-1.706z"></path>
<path fill="url(#gradient1)" d="M5.862 21.475c-0.362 0.194-0.362 0.181-0.362 3.419 0 2.856 0.006 2.969 0.125 3.119 0.156 0.206 0.306 0.244 0.556 0.137 0.106-0.044 0.2-0.087 0.206-0.1s0.031-0.65 0.050-1.425l0.031-1.406 0.987-0.031c0.888-0.025 1-0.044 1.081-0.15 0.125-0.175 0.106-0.431-0.031-0.606-0.113-0.144-0.156-0.15-1.094-0.169l-0.975-0.025v-1.925h1.063c0.981 0 1.075-0.012 1.188-0.125 0.188-0.188 0.169-0.519-0.037-0.681-0.156-0.125-0.244-0.131-1.394-0.131-0.963 0.006-1.263 0.025-1.394 0.1z"></path>
<path fill="url(#gradient1)" d="M11.281 21.581l-0.219 0.219v6.144l0.156 0.15c0.181 0.188 0.4 0.2 0.6 0.038 0.15-0.119 0.15-0.15 0.181-1.419l0.031-1.3 1.094 1.25c0.6 0.681 1.169 1.319 1.262 1.413 0.206 0.219 0.444 0.225 0.644 0.019 0.3-0.3 0.244-0.413-0.806-1.606l-0.969-1.1 0.231-0.038c0.613-0.1 1.244-0.575 1.525-1.15 0.206-0.413 0.206-1.231 0.006-1.637-0.194-0.394-0.613-0.8-1.019-0.994-0.325-0.15-0.412-0.163-1.425-0.181l-1.075-0.025-0.219 0.219zM13.594 22.431c0.662 0.3 0.856 1.075 0.4 1.594-0.3 0.344-0.519 0.413-1.3 0.413h-0.694v-2.125h0.675c0.512 0 0.725 0.031 0.919 0.119z"></path>
<path fill="url(#gradient1)" d="M17.831 21.469c-0.413 0.175-0.4 0.069-0.381 3.406l0.019 3.012 0.175 0.15c0.175 0.15 0.188 0.15 1.569 0.15 1.269 0 1.4-0.012 1.494-0.113 0.15-0.169 0.137-0.531-0.025-0.675-0.119-0.106-0.256-0.119-1.219-0.137l-1.087-0.019v-1.994h1.019c0.95 0 1.031-0.012 1.137-0.125 0.156-0.175 0.144-0.475-0.025-0.644-0.125-0.131-0.2-0.137-1.131-0.156l-1-0.019v-1.994h1.081c1.256 0 1.356-0.031 1.356-0.438 0-0.188-0.038-0.269-0.163-0.369-0.156-0.125-0.244-0.131-1.394-0.131-0.9 0.006-1.275 0.025-1.425 0.094z"></path>
<path fill="url(#gradient1)" d="M23.456 21.469c-0.394 0.169-0.394 0.163-0.394 3.306 0 1.619 0.025 2.906 0.056 2.994 0.038 0.087 0.125 0.219 0.2 0.288 0.137 0.125 0.206 0.131 1.531 0.131h1.394l0.125-0.163c0.169-0.219 0.163-0.356-0.019-0.569l-0.15-0.175-2.206-0.038 0.038-1.962 1.012-0.019c1.006-0.012 1.012-0.019 1.137-0.181 0.212-0.262 0.15-0.531-0.163-0.694-0.087-0.050-0.481-0.075-1.075-0.075h-0.944v-2h2.244l0.125-0.163c0.075-0.094 0.131-0.206 0.131-0.25 0-0.163-0.144-0.387-0.294-0.456-0.231-0.106-2.494-0.087-2.75 0.025z"></path>
</svg>
