<?xml version="1.0" encoding="UTF-8"?>
<!DOCTYPE svg PUBLIC "-//W3C//DTD SVG 1.1//EN" "http://www.w3.org/Graphics/SVG/1.1/DTD/svg11.dtd">
<svg xmlns="http://www.w3.org/2000/svg" version="1.1" width="512px" height="512px" style="shape-rendering:geometricPrecision; text-rendering:geometricPrecision; image-rendering:optimizeQuality; fill-rule:evenodd; clip-rule:evenodd" xmlns:xlink="http://www.w3.org/1999/xlink">
<linearGradient id="gradient2" x1="0%" y1="100%" x2="0%" y2="0%">
  <stop offset="0%" style="stop-color: #515151; stop-opacity: .9" />
  <stop offset="50%" style="stop-color: #414141; stop-opacity: .8" />
  <stop offset="100%" style="stop-color: #313131; stop-opacity: .9" />
</linearGradient>
<linearGradient id="gradient1" x1="0%" y1="100%" x2="0%" y2="0%">
    <stop offset="0%" style="stop-color: #1f1f1f; stop-opacity: .9" />
    <stop offset="100%" style="stop-color: #757575; stop-opacity: .5" />
  </linearGradient>
<path fill="url(#gradient1)" d="M 215.5,-0.5 C 243.5,-0.5 271.5,-0.5 299.5,-0.5C 312.526,6.58514 317.192,17.5851 313.5,32.5C 313.333,38.8333 313.167,45.1667 313,51.5C 310.753,57.2467 306.919,61.5801 301.5,64.5C 300.667,98.1617 300.167,131.828 300,165.5C 293.555,171.411 288.555,170.411 285,162.5C 284.5,147.837 284.333,133.17 284.5,118.5C 266.5,118.5 248.5,118.5 230.5,118.5C 230.667,134.503 230.5,150.503 230,166.5C 228.759,172.809 225.592,177.976 220.5,182C 191.758,197.089 175.091,220.755 170.5,253C 228.499,253.5 286.499,253.667 344.5,253.5C 341.571,227.968 330.071,207.302 310,191.5C 306.34,181.32 309.84,177.154 320.5,179C 348.064,201.468 361.73,230.635 361.5,266.5C 381.274,276.626 393.608,292.626 398.5,314.5C 407.437,305.221 416.271,305.221 425,314.5C 426.867,318.619 427.701,322.952 427.5,327.5C 427.144,333.945 426.144,340.279 424.5,346.5C 446.035,347.351 458.869,358.351 463,379.5C 463.742,384.488 463.242,389.322 461.5,394C 480.875,402.577 488.875,417.41 485.5,438.5C 493.334,444.175 499.167,451.508 503,460.5C 504.439,465.762 504.772,471.096 504,476.5C 499.333,481.833 494.667,481.833 490,476.5C 489.574,467.312 485.741,459.979 478.5,454.5C 472.835,460.833 465.835,464.833 457.5,466.5C 458.898,474.781 457.898,482.781 454.5,490.5C 456.554,492.194 458.888,493.361 461.5,494C 468.267,494.545 474.933,494.212 481.5,493C 486.224,495.435 487.724,499.269 486,504.5C 480.648,509.261 474.315,511.261 467,510.5C 458.597,511.025 451.097,508.692 444.5,503.5C 439.621,507.273 434.288,509.939 428.5,511.5C 422.833,511.5 417.167,511.5 411.5,511.5C 404.982,509.238 398.982,505.904 393.5,501.5C 379.073,510.923 364.073,511.923 348.5,504.5C 344.02,507.407 339.353,509.74 334.5,511.5C 283.167,511.5 231.833,511.5 180.5,511.5C 179.167,510.167 177.833,510.167 176.5,511.5C 133.167,511.5 89.8333,511.5 46.5,511.5C 43.0556,508.753 41.7222,505.086 42.5,500.5C 42.5103,484.664 49.8437,473.831 64.5,468C 72.4148,466.599 80.4148,466.099 88.5,466.5C 88.5,438.167 88.5,409.833 88.5,381.5C 63.3125,377.102 43.1458,364.769 28,344.5C 26.8333,336.333 30.3333,332.833 38.5,334C 49.1653,346.507 62.1653,355.84 77.5,362C 84.3157,364.43 91.3157,366.097 98.5,367C 101.333,367.833 103.167,369.667 104,372.5C 104.5,403.832 104.667,435.165 104.5,466.5C 109.167,466.5 113.833,466.5 118.5,466.5C 118.333,434.832 118.5,403.165 119,371.5C 119.833,369.333 121.333,367.833 123.5,367C 134.054,365.815 144.054,362.815 153.5,358C 154.804,352.886 154.804,347.719 153.5,342.5C 129.679,355.461 105.012,357.294 79.5,348C 51.8312,334.669 37.4979,312.669 36.5,282C 36.6324,272.44 37.4657,262.94 39,253.5C 39.8333,251.333 41.3333,249.833 43.5,249C 64.3523,240.701 85.3523,240.368 106.5,248C 121.825,255.498 137.825,260.998 154.5,264.5C 154.055,232.312 165.555,205.312 189,183.5C 189.301,180.493 189.135,177.493 188.5,174.5C 136.833,174.5 85.1667,174.5 33.5,174.5C 30.3303,206.194 26.8303,237.861 23,269.5C 21.6152,283.571 22.7819,297.405 26.5,311C 26.4034,316.263 23.7368,319.096 18.5,319.5C 13.1411,318.973 10.3077,315.973 10,310.5C 7.20135,301.374 6.03468,292.041 6.5,282.5C 9.84272,243.09 14.0094,203.757 19,164.5C 19.7845,162.714 20.9512,161.214 22.5,160C 80.7509,158.342 139.084,158.008 197.5,159C 199.329,159.273 200.829,160.107 202,161.5C 203.251,165.082 204.251,168.749 205,172.5C 208.834,170.753 211.834,168.086 214,164.5C 214.667,131.167 214.667,97.8333 214,64.5C 207.844,61.6778 203.844,57.0111 202,50.5C 201.333,38.5 201.333,26.5 202,14.5C 204.263,7.40736 208.763,2.40736 215.5,-0.5 Z M 222.5,14.5 C 246.899,14.0292 271.232,14.5292 295.5,16C 296,16.5 296.5,17 297,17.5C 297.667,27.5 297.667,37.5 297,47.5C 296.097,48.7014 294.931,49.5348 293.5,50C 269.5,50.6667 245.5,50.6667 221.5,50C 220.069,49.5348 218.903,48.7014 218,47.5C 217.333,37.8333 217.333,28.1667 218,18.5C 218.907,16.3909 220.407,15.0576 222.5,14.5 Z M 230.5,66.5 C 248.5,66.5 266.5,66.5 284.5,66.5C 284.5,78.5 284.5,90.5 284.5,102.5C 266.5,102.5 248.5,102.5 230.5,102.5C 230.5,90.5 230.5,78.5 230.5,66.5 Z M 65.5,258.5 C 73.8933,258.17 82.2267,258.67 90.5,260C 104.711,264.772 118.711,270.105 132.5,276C 139.647,278.454 146.98,279.954 154.5,280.5C 154.667,294.171 154.5,307.837 154,321.5C 136.903,335.983 117.403,340.816 95.5,336C 72.9264,329.759 58.7597,315.259 53,292.5C 52.2872,282.468 52.6206,272.468 54,262.5C 57.8998,261.075 61.7332,259.742 65.5,258.5 Z M 170.5,268.5 C 228.504,268.167 286.504,268.5 344.5,269.5C 328.354,280.462 318.187,295.462 314,314.5C 307.009,307.367 299.175,306.2 290.5,311C 286.376,315.288 284.376,320.455 284.5,326.5C 285.754,342.769 291.421,357.269 301.5,370C 290.753,374.903 286.92,383.07 290,394.5C 296.177,404.507 305.011,410.84 316.5,413.5C 314.337,420.319 313.337,427.319 313.5,434.5C 265.833,434.5 218.167,434.5 170.5,434.5C 170.5,379.167 170.5,323.833 170.5,268.5 Z M 354.5,282.5 C 363.513,285.33 370.347,290.997 375,299.5C 380.81,310.073 383.81,321.407 384,333.5C 386.435,338.224 390.269,339.724 395.5,338C 400.575,333.713 405.742,329.547 411,325.5C 411.277,336.283 408.111,345.949 401.5,354.5C 379.88,342.971 361.714,346.971 347,366.5C 342.915,375.019 341.415,384.019 342.5,393.5C 336.929,394.956 331.596,396.956 326.5,399.5C 317.906,398.037 310.572,394.203 304.5,388C 305.167,387.333 305.833,386.667 306.5,386C 311.5,385.667 316.5,385.333 321.5,385C 326.85,381.418 327.684,376.918 324,371.5C 311.044,359.423 303.21,344.589 300.5,327C 300.85,325.743 301.517,325.409 302.5,326C 307.211,330.38 312.211,334.38 317.5,338C 320.634,338.79 323.634,338.457 326.5,337C 328.622,328.624 330.455,320.124 332,311.5C 335.989,299.022 343.489,289.356 354.5,282.5 Z M 419.5,362.5 C 437.059,361.162 446.225,369.162 447,386.5C 444.791,396.377 438.791,402.71 429,405.5C 422.46,398.638 414.627,393.804 405.5,391C 402.001,377.498 406.668,367.998 419.5,362.5 Z M 378.5,363.5 C 383.312,363.692 387.645,365.192 391.5,368C 387.775,375.137 386.775,382.637 388.5,390.5C 380.369,393.063 373.369,397.396 367.5,403.5C 359.624,397.377 356.791,389.377 359,379.5C 362.749,370.565 369.249,365.232 378.5,363.5 Z M 153.5,375.5 C 154.498,405.662 154.831,435.995 154.5,466.5C 147.833,466.5 141.167,466.5 134.5,466.5C 134.5,438.167 134.5,409.833 134.5,381.5C 141.184,380.27 147.518,378.27 153.5,375.5 Z M 391.5,406.5 C 410.312,405.811 419.145,414.811 418,433.5C 411.203,449.101 400.036,453.268 384.5,446C 375.267,438.133 373.101,428.633 378,417.5C 381.336,412.269 385.836,408.602 391.5,406.5 Z M 345.5,408.5 C 346.873,408.343 348.207,408.51 349.5,409C 353.042,412.71 356.708,416.21 360.5,419.5C 359.878,424.814 359.211,430.147 358.5,435.5C 351.018,437.738 344.684,441.738 339.5,447.5C 328.157,438.264 326.657,427.597 335,415.5C 338.154,412.488 341.654,410.155 345.5,408.5 Z M 453.5,409.5 C 465.918,413.112 471.418,421.445 470,434.5C 465.643,447.834 456.476,453.334 442.5,451C 437.969,449.461 434.302,446.795 431.5,443C 432.863,441.055 433.697,438.888 434,436.5C 434.499,431.177 434.666,425.844 434.5,420.5C 442.085,418.898 448.419,415.231 453.5,409.5 Z M 170.5,450.5 C 220.168,450.333 269.834,450.5 319.5,451C 322.357,455.357 326.023,458.857 330.5,461.5C 330.146,468.178 330.646,474.844 332,481.5C 332.92,485.263 334.42,488.763 336.5,492C 333.686,494.496 330.353,495.83 326.5,496C 278.801,496.971 231.135,496.637 183.5,495C 176.903,492.737 172.736,488.237 171,481.5C 170.5,471.172 170.334,460.839 170.5,450.5 Z M 363.5,450.5 C 364.552,450.351 365.552,450.517 366.5,451C 372.268,458.097 379.602,462.764 388.5,465C 392.095,475.835 389.095,484.501 379.5,491C 361.529,496.847 350.529,490.513 346.5,472C 347.968,461.38 353.635,454.213 363.5,450.5 Z M 420.5,457.5 C 421.552,457.351 422.552,457.517 423.5,458C 428.163,462.832 433.83,465.832 440.5,467C 443.889,478.826 440.222,487.826 429.5,494C 421.302,496.68 413.635,495.68 406.5,491C 405.101,489.938 404.101,488.605 403.5,487C 406.41,479.829 407.077,472.496 405.5,465C 411.119,463.524 416.119,461.024 420.5,457.5 Z M 76.5,481.5 C 99.8357,481.333 123.169,481.5 146.5,482C 149.506,482.332 152.34,483.166 155,484.5C 156.011,488.368 157.511,492.034 159.5,495.5C 125.838,496.667 92.1716,496.833 58.5,496C 61.753,487.564 67.753,482.731 76.5,481.5 Z"/>
</svg>
