<?xml version="1.0" encoding="UTF-8" standalone="no"?>
<svg
   version="1.1"
   width="173"
   height="32"
   viewBox="0 0 173 32"
   id="svg201"
   sodipodi:docname="yardBakuLogoUncolored.svg"
   inkscape:version="1.1.1 (c3084ef, 2021-09-22)"
   xmlns:inkscape="http://www.inkscape.org/namespaces/inkscape"
   xmlns:sodipodi="http://sodipodi.sourceforge.net/DTD/sodipodi-0.dtd"
   xmlns="http://www.w3.org/2000/svg"
   xmlns:svg="http://www.w3.org/2000/svg"
   xmlns:rdf="http://www.w3.org/1999/02/22-rdf-syntax-ns#"
   xmlns:cc="http://creativecommons.org/ns#"
   xmlns:dc="http://purl.org/dc/elements/1.1/">
  <defs
     id="defs205">
    <inkscape:path-effect
       effect="powerclip"
       id="path-effect534"
       is_visible="true"
       lpeversion="1"
       inverse="true"
       flatten="false"
       hide_clip="false"
       message="Використовувати почергове правило заповнення на панелі &lt;b&gt;Заповнення та штрих&lt;/b&gt;, якщо немає спрощення результату після перетворення обрізання на контури." />
    <inkscape:path-effect
       effect="powerclip"
       id="path-effect390"
       is_visible="true"
       lpeversion="1"
       inverse="true"
       flatten="false"
       hide_clip="false"
       message="Використовувати почергове правило заповнення на панелі &lt;b&gt;Заповнення та штрих&lt;/b&gt;, якщо немає спрощення результату після перетворення обрізання на контури." />
    <clipPath
       clipPathUnits="userSpaceOnUse"
       id="clipPath386">
      <path
         stroke="#daa52035"
         strokeWidth="1"
         fill="#000000"
         d="m 24,19.303 c -1.187,0 -3.406,-0.619 -3.406,-3.613 0,-2.942 2.065,-3.561 3.406,-3.561 h 1.961 v 6.452 c 0,0.155 -0.774,0.671 -1.961,0.671 z"
         id="path388"
         style="display:none" />
      <path
         id="lpe_path-effect390"
         class="powerclip"
         d="M 12.175797,-1.6996787 H 35.503 V 27.76 H 12.175797 Z M 24,19.303 v -0.051 c 1.187,0 1.961,-0.516 1.961,-0.671 V 12.129 H 24 c -1.341,0 -3.406,0.619 -3.406,3.561 0,2.994 2.219,3.613 3.406,3.613 z" />
    </clipPath>
    <clipPath
       clipPathUnits="userSpaceOnUse"
       id="clipPath530">
      <path
         stroke="#daa52035"
         strokeWidth="1"
         fill="#000000"
         d="m 6.4406077,19.391139 c 1.239,0 1.445,0 3.303,0 1.9100003,0 2.9940003,-1.29 2.9940003,-3.458 0,-2.168 -1.342,-3.252 -3.2000003,-3.303 l -3.097,-0.052 v 6.761 z"
         id="path532"
         style="display:none" />
      <path
         id="lpe_path-effect534"
         class="powerclip"
         d="M -3.968,-3.245 H 21.413 V 27.566185 H -3.968 Z M 6.4406077,19.391139 c 1.239,0 1.445,0 3.303,0 1.9100003,0 2.9940003,-1.29 2.9940003,-3.458 0,-2.168 -1.342,-3.252 -3.2000003,-3.303 l -3.097,-0.052 v 6.761 z" />
    </clipPath>
  </defs>
  <sodipodi:namedview
     id="namedview203"
     pagecolor="#ffffff"
     bordercolor="#666666"
     borderopacity="1.0"
     inkscape:pageshadow="2"
     inkscape:pageopacity="0.0"
     inkscape:pagecheckerboard="0"
     showgrid="false"
     inkscape:zoom="5.8761072"
     inkscape:cx="73.77333"
     inkscape:cy="43.481167"
     inkscape:window-width="1440"
     inkscape:window-height="847"
     inkscape:window-x="0"
     inkscape:window-y="25"
     inkscape:window-maximized="0"
     inkscape:current-layer="svg201" />
  <title
     id="title148">yardBakuLogoUncolored</title>
  <linearGradient
     id="gradient1"
     x1="0%"
     y1="0%"
     x2="0%"
     y2="100%">
    <stop
       offset="0%"
       style="stop-color: #82828275; stop-opacity: .1"
       id="stop150" />
    <stop
       offset="100%"
       style="stop-color: #4a4a4a75; stop-opacity: .1"
       id="stop152" />
  </linearGradient>
  <path
     stroke="#daa52035"
     strokeWidth="1"
     fill="url(#gradient1)"
     d="m 2.684,6.142 c -0.774,0 -1.652,0 -1.652,0 0,0 0,-2.89 0,-2.942 0.361,0 5.316,0.103 9.497,0 1.445,-0.052 2.013,-0.206 2.219,-1.445 2.426,0 3.665,0.052 3.665,0.052 C 16,5.265 13.936,6.039 11.252,6.142 H 6.71 L 6.658,9.239 c 1.806,0 4.697,-0.206 6.194,0.826 1.703,1.187 2.426,2.684 2.477,5.677 0.052,1.652 -0.206,3.148 -0.774,4.284 C 13.11,23.071 9.497,22.503 6.452,22.555 4.491,22.607 2.787,22.452 2.633,22.452 2.633,22.039 2.581,7.742 2.581,6.091 Z"
     id="path187"
     clip-path="url(#clipPath530)"
     inkscape:path-effect="#path-effect534"
     inkscape:original-d="M2.684 6.142c-0.774 0-1.652 0-1.652 0s0-2.89 0-2.942c0.361 0 5.316 0.103 9.497 0 1.445-0.052 2.013-0.206 2.219-1.445 2.426 0 3.665 0.052 3.665 0.052-0.413 3.458-2.477 4.232-5.161 4.335h-4.542l-0.052 3.097c1.806 0 4.697-0.206 6.194 0.826 1.703 1.187 2.426 2.684 2.477 5.677 0.052 1.652-0.206 3.148-0.774 4.284-1.445 3.045-5.058 2.477-8.103 2.529-1.961 0.052-3.665-0.103-3.819-0.103 0-0.413-0.052-14.71-0.052-16.361z" />
  <path
     stroke="#daa52035"
     strokeWidth="1"
     fill="url(#gradient1)"
     d="M126.813 24.155v-3.613c0-0.619 0.619-0.723 1.135-0.723 0.052-3.458-0.052-8.723 0.052-12.8 0.052-2.271 1.961-3.819 4.439-3.819h2.994v-1.394c0.103 0 3.665 0.052 3.716 0.052v17.91c0.206 0 1.084-0.103 1.084 0.826v3.561h-2.219v-1.394h-8.981v1.394h-2.219z"
     id="path155" />
  <path
     stroke="#daa52035"
     strokeWidth="1"
     fill="black"
     d="M131.561 8.206v11.51c2.581 0 3.871 0 3.871 0v-13.781c-0.619 0-1.135 0-1.548 0-1.652 0.052-2.323 0.877-2.323 2.219z"
     id="path157" />
  <path
     stroke="#daa52035"
     strokeWidth="1"
     fill="url(#gradient1)"
     d="M153.239 17.858c0.103-2.116-0.619-4.645-2.065-4.852 1.548-0.361 1.703-2.942 1.703-4.852-0.052-2.323-1.342-4.955-4.852-4.955h-3.045v-1.394c-0.103 0-3.51 0-3.613 0v21.006h7.277c3.458-0.258 4.439-2.684 4.594-4.903z"
     id="path159" />
  <path
     stroke="#daa52035"
     strokeWidth="1"
     fill="black"
     d="M144.981 11.819c0.826 0 1.394 0 2.632 0s2.219-0.413 2.219-3.148c0-2.735-1.135-2.942-2.323-2.942l-2.477-0.052v6.142z"
     id="path161" />
  <path
     stroke="#daa52035"
     strokeWidth="1"
     fill="url(#gradient1)"
     d="M164.335 3.768v-2.374c-0.103 0-4.026-0.052-4.077-0.052l-0.103 25.239v4.181h3.355l0.103-8.929c6.503 0.31 8.361-2.942 8.258-9.084-0.103-5.729-0.981-9.032-7.587-9.032z"
     id="path163" />
  <path
     stroke="#daa52035"
     strokeWidth="1"
     fill="black"
     d="M163.871 18.529c1.445 0 4.439 1.084 4.49-5.781 0.052-6.761-3.148-5.574-4.49-5.626v11.406z"
     id="path165" />
  <path
     stroke="#daa52035"
     strokeWidth="1"
     fill="url(#gradient1)"
     d="m 27.252,21.522 c -1.497,0.723 -2.994,1.135 -4.387,1.084 -1.135,-0.052 -2.168,-0.258 -3.045,-0.723 l -0.774,-0.465 c -0.568,-0.465 -0.981,-1.084 -1.29,-1.806 -0.258,-0.568 -0.413,-1.445 -0.516,-2.374 -0.155,-1.394 0,-2.994 0.155,-3.871 0.155,-0.723 0.465,-1.445 0.877,-1.961 0.413,-0.619 1.084,-1.032 1.806,-1.394 0.774,-0.361 1.703,-0.568 2.787,-0.723 0.826,-0.103 1.806,-0.155 2.839,-0.155 0,-2.116 -1.135,-2.994 -2.323,-2.994 -1.239,0 -2.529,0.929 -2.529,2.271 h -3.51 c 0.465,-2.89 2.942,-5.11 5.677,-5.11 4.748,-0.052 6.245,2.89 6.297,6.71 l -0.052,7.174 c 0,1.084 0.465,1.652 1.239,1.91 v 3.665 c -1.070211,-0.192097 -2.484551,-0.565419 -3.251,-1.238 z"
     id="path167"
     clip-path="url(#clipPath386)"
     inkscape:path-effect="#path-effect390"
     inkscape:original-d="m 27.252,21.522 c -1.497,0.723 -2.994,1.135 -4.387,1.084 -1.135,-0.052 -2.168,-0.258 -3.045,-0.723 l -0.774,-0.465 c -0.568,-0.465 -0.981,-1.084 -1.29,-1.806 -0.258,-0.568 -0.413,-1.445 -0.516,-2.374 -0.155,-1.394 0,-2.994 0.155,-3.871 0.155,-0.723 0.465,-1.445 0.877,-1.961 0.413,-0.619 1.084,-1.032 1.806,-1.394 0.774,-0.361 1.703,-0.568 2.787,-0.723 0.826,-0.103 1.806,-0.155 2.839,-0.155 0,-2.116 -1.135,-2.994 -2.323,-2.994 -1.239,0 -2.529,0.929 -2.529,2.271 h -3.51 c 0.465,-2.89 2.942,-5.11 5.677,-5.11 4.748,-0.052 6.245,2.89 6.297,6.71 l -0.052,7.174 c 0,1.084 0.465,1.652 1.239,1.91 v 3.665 c -1.070211,-0.192097 -2.484551,-0.565419 -3.251,-1.238 z"
     sodipodi:nodetypes="cccccccccccscccccccc" />
  <path
     stroke="#daa52035"
     strokeWidth="1"
     fill="url(#gradient1)"
     d="M62.245 3.2h-3.716l-0.052 8.981h-2.942l-0.052-8.981h-3.665v19.406h3.716v-7.432h2.942l0.052 7.432h3.716z"
     id="path169" />
  <path
     stroke="#daa52035"
     strokeWidth="1"
     fill="url(#gradient1)"
     d="M43.355 3.252c-3.819 0-4.955 1.394-4.955 3.716 0 0.929 0 2.065 0 2.994 0 0.981-0.826 1.497-1.961 1.497h-0.568v-8.206h-3.716v19.406h3.716v-8.206h0.877l3.768 8.206h3.716l-4.181-9.032c2.116 0 1.806-4.232 1.806-5.161 0-1.032 0.413-1.755 1.497-1.755v-3.458z"
     id="path171" />
  <path
     stroke="#daa52035"
     strokeWidth="1"
     fill="url(#gradient1)"
     d="M49.548 22.194v-18.994h-3.716v19.406h3.716z"
     id="path173" />
  <path
     stroke="#daa52035"
     strokeWidth="1"
     fill="url(#gradient1)"
     d="M102.761 3.252c-3.819 0-4.955 1.394-4.955 3.716 0 0.929 0 2.065 0 2.994 0 0.981-0.826 1.497-1.961 1.497h-0.568v-8.206h-3.716v19.406h3.716v-8.206h0.877l3.768 8.206h3.768l-4.181-9.032c2.116 0 1.806-4.232 1.806-5.161 0-1.032 0.413-1.755 1.497-1.755v-3.458z"
     id="path177" />
  <path
     stroke="#daa52035"
     strokeWidth="1"
     fill="url(#gradient1)"
     d="M108.955 22.194v-18.994h-3.716v19.406h3.716z"
     id="path179" />
  <path
     stroke="#daa52035"
     strokeWidth="1"
     fill="url(#gradient1)"
     d="M121.961 3.2h-3.716l-0.052 6.916-2.942 1.755-0.052-8.671h-3.665v19.406h3.716v-7.432l2.942-1.806 0.052 9.239h3.716z"
     id="path181" />
  <path
     stroke="#daa52035"
     strokeWidth="1"
     fill="url(#gradient1)"
     d="M116.49 2.065c0.568 0 0.258 0 1.032 0 1.394 0 2.426-0.723 2.426-1.961h-1.548c0 0.723-0.361 1.135-1.394 1.135-1.084 0-1.342-0.568-1.342-1.135-0.465 0-0.929 0-1.6 0 0 1.239 0.981 1.961 2.426 1.961z"
     id="path183" />
  <path
     stroke="#daa52035"
     strokeWidth="1"
     fill="url(#gradient1)"
     d="M72.413 8.413h3.406c-0.258-2.735-2.013-4.748-4.594-5.11-5.626-0.774-7.381 4.903-7.329 9.703 0.052 4.697 1.652 10.271 7.226 9.548 2.477-0.31 4.594-2.477 4.697-5.161h-3.406c-0.052 1.135-0.929 2.065-2.013 2.219-4.284 0.568-4.077-10.581-1.652-12.903 1.394-1.394 3.613-0.206 3.665 1.652z"
     id="path191" />
  <path
     stroke="#daa52035"
     strokeWidth="1"
     fill="url(#gradient1)"
     d="M77.677 22.4l-0.103-16.413v-2.994h3.665v6.452c6.142 0 8.258 1.652 8.31 6.348 0.052 6.865-4.542 6.658-11.871 6.606z"
     id="path193" />
  <path
     stroke="#daa52035"
     strokeWidth="1"
     fill="black"
     d="M81.084 19.045c2.787 0 5.419 0.465 5.419-3.303 0-3.51-2.89-3.148-5.419-3.2v6.503z"
     id="path195" />
  <path
     stroke="#daa52035"
     strokeWidth="1"
     fill="black"
     d="M144.981 20.181c0.826 0 1.394 0 2.632 0s2.219-0.413 2.219-3.148c0-2.735-1.135-2.942-2.323-2.942l-2.477-0.052v6.142z"
     id="path197" />
  <path
     stroke="#daa52035"
     strokeWidth="1"
     fill="url(#gradient1)"
     d="M158.503 22.194l0.052-18.994h-3.768v19.406h3.716z"
     id="path199" />
  <metadata
     id="metadata432">
    <rdf:RDF>
      <cc:Work
         rdf:about="">
        <dc:title>yardBakuLogoUncolored</dc:title>
      </cc:Work>
    </rdf:RDF>
  </metadata>
</svg>
