<!-- Generated by IcoMoon.io -->
<svg version="1.1" xmlns="http://www.w3.org/2000/svg" width="32" height="32" viewBox="0 0 32 32">
<title>alcoholCard</title>
<linearGradient id="gradient1" x1="100%" y1="0%" x2="0%" y2="0%">
 <stop offset="0%" style="stop-color: #000000; stop-opacity: .5" />
    <stop offset="100%" style="stop-color: #0000000; stop-opacity: .6" />
  </linearGradient>

<path fill="url(#gradient1)"  d="M14.069 0.075c-0.081 0.044-0.213 0.162-0.281 0.256-0.131 0.175-0.131 0.231-0.131 3.169 0 2.313 0.019 3.013 0.081 3.075 0.106 0.106 0.1 1-0.012 1.256-0.050 0.112-0.556 0.688-1.131 1.281-0.569 0.594-1.088 1.181-1.144 1.313-0.088 0.2-0.1 0.475-0.081 2.225l0.019 1.988-0.2-0.113c-0.238-0.144-0.544-0.594-0.6-0.881-0.031-0.175-0.012-0.244 0.106-0.369 0.144-0.156 0.15-0.194 0.169-1.45 0.025-1.412-0.019-1.675-0.281-1.881-0.15-0.125-0.244-0.131-1.688-0.131h-1.531l-0.425 0.425v1.381c0 1.1 0.019 1.425 0.094 1.569 0.050 0.094 0.125 0.188 0.169 0.2 0.125 0.044-0.063 0.575-0.306 0.863-0.269 0.306-0.45 0.412-0.994 0.537-0.581 0.131-0.95 0.319-1.287 0.656-0.575 0.575-0.737 1.113-0.737 2.425 0 1.012 0.056 1.156 0.463 1.156s0.438-0.081 0.475-1.262c0.031-1 0.037-1.056 0.206-1.337 0.188-0.325 0.463-0.556 0.787-0.669 0.144-0.044 1.063-0.069 2.919-0.069h2.713v1.438h-2.731c-2.725 0-2.737 0-2.987 0.144-0.138 0.081-0.306 0.25-0.388 0.387l-0.144 0.25v5.019c0 5.525-0.019 5.231 0.388 5.525l0.206 0.144 5.862 0.038-0.363 0.375v2.056h-3.131c-2.956 0-3.138-0.006-3.231-0.113-0.1-0.106-0.106-0.556-0.106-5.212 0-5.063 0-5.094-0.131-5.262-0.175-0.225-0.5-0.225-0.675 0-0.131 0.169-0.131 0.2-0.131 5.262 0 3.85 0.019 5.156 0.075 5.35 0.1 0.331 0.525 0.756 0.837 0.844 0.369 0.106 22.019 0.094 22.363-0.006 0.356-0.106 0.806-0.563 0.9-0.925 0.063-0.219 0.075-1.975 0.063-7.819l-0.019-7.537-0.219-0.431c-0.206-0.406-0.275-0.481-1.375-1.356-0.738-0.588-1.15-0.963-1.15-1.031 0.006-0.056 0.044-0.331 0.087-0.606 0.131-0.856 0-2.369-0.288-3.387-0.087-0.287-0.081-0.344 0-0.512 0.081-0.156 0.1-0.456 0.1-1.706 0-1.631-0.012-1.712-0.331-1.95-0.169-0.125-0.25-0.131-1.944-0.131-1.969 0-2.019 0.013-2.2 0.438-0.131 0.319-0.125 3.006 0.006 3.325 0.094 0.219 0.087 0.275-0.056 0.894-0.281 1.156-0.344 2.569-0.156 3.431 0.063 0.287 0.025 0.394-0.212 0.519-0.119 0.063-0.119 0.044-0.075-1.063 0.069-1.631 0.1-1.556-1.194-2.912-0.569-0.6-1.081-1.15-1.137-1.231-0.15-0.219-0.181-1.112-0.050-1.4 0.094-0.194 0.1-0.519 0.087-3.156l-0.019-2.938-0.206-0.2-0.2-0.206-1.675-0.019c-1.25-0.013-1.706 0.006-1.819 0.063zM17.063 1.281v0.344h-2.5v-0.688h2.5v0.344zM17.063 4.281v1.719h-2.5v-3.438h2.5v1.719zM24.313 5.813v0.375h-2.688v-0.75h2.688v0.375zM16.9 7.425c0.069 0.775 0.2 0.987 1.406 2.256 1.044 1.1 1.069 1.131 1.069 1.394 0 0.15-0.069 4.169-0.156 8.931-0.1 5.725-0.131 8.738-0.094 8.881 0.038 0.119 0.119 0.269 0.188 0.331 0.113 0.1 0.125 0.194 0.125 0.881 0 0.419-0.019 0.806-0.038 0.863-0.038 0.087-0.406 0.1-3.55 0.1-2.65 0-3.531-0.019-3.588-0.075-0.050-0.050-0.075-0.331-0.075-0.863 0-0.706 0.012-0.806 0.125-0.906 0.063-0.056 0.15-0.2 0.188-0.313 0.050-0.144 0.025-2.675-0.094-9.087-0.119-6.756-0.137-8.925-0.081-9.025 0.037-0.075 0.506-0.594 1.044-1.156s1.037-1.125 1.113-1.244c0.137-0.231 0.269-0.825 0.269-1.225v-0.231h2.106l0.044 0.487zM24.313 7.375v0.375h-2.688v-0.75h2.688v0.375zM24.319 9.375c0.087 0.363 0.181 0.806 0.2 0.981l0.038 0.331h-3.119v-0.238c0-0.256 0.131-0.912 0.281-1.438l0.1-0.325 1.169 0.012 1.169 0.019 0.163 0.656zM9.938 11.656v0.969h-2.063v-1.938h2.063v0.969zM24.538 12.031c-0.025 0.225-0.094 0.544-0.156 0.706-0.094 0.238-0.106 0.325-0.044 0.463 0.038 0.094 0.619 0.606 1.35 1.194 1.425 1.137 1.5 1.231 1.5 1.856v0.375h-2.106c-2.075 0-2.106 0-2.25 0.137-0.181 0.169-0.181 0.406-0.006 0.594l0.131 0.144h4.231v11.625h-6.787l-0.206-0.269-0.206-0.262 0.038-2.031c0.019-1.119 0.056-2.869 0.075-3.887l0.044-1.856 0.131 0.081c0.288 0.181 0.469 0.175 1.15-0.063 0.637-0.225 0.706-0.238 1.512-0.238 0.819-0.006 0.869 0 1.581 0.238 0.725 0.238 0.731 0.244 1 0.137 0.212-0.081 0.319-0.181 0.531-0.506 0.431-0.65 0.475-0.931 0.219-1.325-0.288-0.431-2.119-0.956-3.363-0.956-0.581 0-1.413 0.15-2.094 0.375-0.3 0.106-0.569 0.188-0.587 0.188s-0.038-0.281-0.038-0.625v-0.625h0.481c0.406 0 0.5-0.019 0.625-0.137 0.181-0.169 0.181-0.406 0.006-0.594-0.119-0.125-0.194-0.144-0.587-0.144-0.25 0-0.475-0.025-0.494-0.063-0.019-0.031-0.019-0.538 0.006-1.119l0.044-1.063 0.656-0.519c0.356-0.287 0.675-0.581 0.706-0.662 0.038-0.1 0.019-0.256-0.063-0.5-0.063-0.194-0.137-0.519-0.163-0.719l-0.038-0.356h3.212l-0.044 0.406zM9.688 13.856c0.037 0.169 0.137 0.431 0.219 0.594l0.15 0.3h-1.15c-0.637 0-1.156-0.012-1.156-0.025 0-0.019 0.056-0.125 0.119-0.238 0.069-0.113 0.156-0.331 0.194-0.488 0.044-0.156 0.088-0.319 0.1-0.363 0.012-0.056 0.219-0.075 0.731-0.075h0.719l0.075 0.294zM11.463 18.95c0.019 0.494 0.044 1.563 0.056 2.381l0.012 1.481h-5.406v-4.75h5.3l0.037 0.887zM24 19.225c0.419 0.075 1.344 0.363 1.425 0.431 0.044 0.044-0.181 0.406-0.256 0.406-0.038 0-0.219-0.056-0.394-0.119-1.063-0.406-2.419-0.413-3.556-0.012-0.2 0.075-0.4 0.131-0.438 0.131-0.056 0-0.306-0.375-0.269-0.406 0.012-0.006 0.188-0.075 0.394-0.156 0.956-0.356 2.125-0.462 3.094-0.275zM11.563 24.125v0.375h-5.438v-0.75h5.438v0.375zM11.581 25.95c0.025 0.288 0.044 0.794 0.044 1.125v0.613h-5.5v-2.25h5.419l0.037 0.512zM27.188 30.419c0 0.275-0.031 0.387-0.137 0.5l-0.131 0.144h-6.575l0.019-0.5 0.025-0.5h6.8v0.356z"></path>
<path fill="url(#gradient1)"  d="M14.787 11.787c-1.075 0.213-1.619 0.531-1.825 1.056-0.081 0.225-0.1 0.406-0.069 0.9 0.031 0.669 0.113 0.869 0.394 0.994 0.244 0.119 0.369 0.094 0.9-0.175 1.175-0.588 2.075-0.588 3.25 0 0.563 0.281 0.7 0.3 0.981 0.125 0.25-0.15 0.331-0.419 0.331-1.131 0-0.613-0.081-0.863-0.375-1.162-0.531-0.544-2.363-0.85-3.588-0.606zM16.9 12.75c0.262 0.063 0.575 0.169 0.694 0.225 0.206 0.094 0.219 0.119 0.219 0.406 0 0.169-0.012 0.306-0.025 0.306s-0.175-0.069-0.356-0.156c-0.425-0.188-1.137-0.344-1.619-0.344s-1.194 0.156-1.619 0.344c-0.181 0.088-0.344 0.156-0.356 0.156s-0.025-0.125-0.025-0.269c0-0.35 0.094-0.431 0.656-0.6 0.619-0.181 0.625-0.181 1.319-0.188 0.444-0.006 0.775 0.031 1.113 0.119z"></path>
<path fill="url(#gradient1)" d="M13.481 16.525c-0.119 0.119-0.225 0.294-0.238 0.394-0.012 0.094-0.012 0.85 0.006 1.675 0.044 2.163-0.119 2.031 2.556 2.031 2.056 0 2.194-0.019 2.413-0.35 0.113-0.163 0.125-0.337 0.163-1.712 0.019-0.844 0.012-1.625-0.019-1.731-0.031-0.113-0.15-0.275-0.262-0.363l-0.206-0.156h-4.2l-0.213 0.212zM17.469 17.25c0.019 0.031 0.012 0.594-0.006 1.25l-0.044 1.188h-3.213l-0.037-1.206c-0.019-0.656-0.019-1.219 0-1.25 0.037-0.069 3.256-0.056 3.3 0.019z"></path>
<path fill="url(#gradient1)"  d="M13.938 25.856c-0.331 0.125-0.419 0.519-0.169 0.756 0.144 0.137 0.181 0.137 2.050 0.137 1.831 0 1.913-0.006 2.044-0.125 0.181-0.169 0.181-0.5 0.006-0.663-0.125-0.113-0.262-0.119-1.988-0.131-1.019-0.006-1.894 0.006-1.944 0.025z"></path>
<path fill="url(#gradient1)"  d="M13.956 27.294c-0.319 0.063-0.438 0.538-0.194 0.769 0.131 0.119 0.213 0.125 2.063 0.125 1.844 0 1.931-0.006 2.050-0.125 0.169-0.169 0.163-0.506-0.006-0.663-0.125-0.113-0.256-0.119-1.956-0.125-1-0.006-1.881 0-1.956 0.019z"></path>
<path fill="url(#gradient1)" d="M22.081 21.712c-1.725 0.419-2.431 1.988-1.394 3.119 0.525 0.575 1.325 0.881 2.313 0.875 0.65-0.006 1.038-0.094 1.531-0.337 1.938-0.95 1.462-3.2-0.769-3.675-0.425-0.087-1.269-0.081-1.681 0.019zM24.050 22.75c0.8 0.344 1.006 1.006 0.469 1.525-0.356 0.356-0.813 0.5-1.55 0.5-0.556 0-0.669-0.019-1.019-0.175-0.712-0.325-0.981-0.8-0.731-1.288 0.363-0.7 1.831-0.994 2.831-0.563z"></path>
<path fill="url(#gradient1)"  d="M20.25 27c-0.169 0.169-0.163 0.506 0.006 0.663 0.125 0.113 0.262 0.119 2.725 0.119h2.594l0.156-0.181c0.175-0.206 0.156-0.438-0.056-0.619-0.119-0.1-0.337-0.106-2.712-0.106-2.506 0-2.594 0.006-2.712 0.125z"></path>
<path fill="url(#gradient1)" d="M8.406 18.462c-0.419 0.106-0.644 0.231-0.925 0.519-0.569 0.563-0.756 1.425-0.475 2.175 0.612 1.637 2.981 1.719 3.719 0.131 0.3-0.644 0.231-1.431-0.162-2.006-0.469-0.681-1.369-1.025-2.156-0.819zM9.544 19.538c0.338 0.275 0.469 0.556 0.438 0.944-0.044 0.619-0.488 1.031-1.106 1.031-0.863 0-1.356-0.906-0.912-1.663 0.325-0.556 1.094-0.706 1.581-0.313z"></path>
<path fill="url(#gradient1)"  d="M7.256 26.413c-0.225 0.288-0.144 0.587 0.188 0.706 0.125 0.044 0.706 0.069 1.488 0.069 1.394 0 1.537-0.031 1.681-0.331 0.069-0.137 0.063-0.194-0.012-0.344-0.050-0.1-0.144-0.2-0.194-0.225-0.056-0.019-0.762-0.038-1.563-0.038h-1.463l-0.125 0.163z"></path>

</svg>
