<!-- Generated by IcoMoon.io -->
<svg version="1.1" xmlns="http://www.w3.org/2000/svg" width="32" height="32" viewBox="0 0 32 32">
<title>beerCard</title>
<linearGradient id="gradient2" x1="0%" y1="100%" x2="0%" y2="0%">
  <stop offset="0%" style="stop-color: #515151; stop-opacity: .9" />
  <stop offset="50%" style="stop-color: #414141; stop-opacity: .8" />
  <stop offset="100%" style="stop-color: #313131; stop-opacity: .9" />
</linearGradient>
<linearGradient id="gradient1" x1="0%" y1="100%" x2="0%" y2="0%">
    <stop offset="0%" style="stop-color: #1f1f1f; stop-opacity: .9" />
    <stop offset="100%" style="stop-color: #757575; stop-opacity: .5" />
  </linearGradient>
<path fill="url(#gradient2)" d="M5.156 0.031c-0.51 0.166-0.875 0.5-1.094 1-0.288 0.974 0.014 1.693 0.906 2.156 1.303 0.306 2.074-0.204 2.313-1.531-0.182-1.223-0.891-1.765-2.125-1.625zM5.406 1.156c0.489-0.022 0.708 0.207 0.656 0.688-0.309 0.416-0.622 0.416-0.938 0-0.042-0.125-0.042-0.25 0-0.375 0.085-0.116 0.179-0.221 0.281-0.313z"></path>
<path fill="url(#gradient2)" d="M20.844 0.031c-0.51 0.166-0.875 0.5-1.094 1-0.288 0.975 0.014 1.694 0.906 2.156 1.303 0.306 2.074-0.204 2.313-1.531-0.18-1.221-0.889-1.763-2.125-1.625zM21.156 1.156c0.478-0.012 0.676 0.218 0.594 0.688-0.139 0.273-0.358 0.366-0.656 0.281-0.424-0.354-0.403-0.677 0.063-0.969z"></path>
<path fill="url(#gradient1)" d="M16.031 2.719c-1.176 0.26-1.936 0.969-2.281 2.125-0.216 1.203 0.169 2.172 1.156 2.906 1.056 0.559 2.097 0.539 3.125-0.063 1.105-0.951 1.386-2.107 0.844-3.469-0.635-1.080-1.583-1.58-2.844-1.5zM16.281 3.844c1.044 0.044 1.627 0.586 1.75 1.625-0.179 1.106-0.825 1.617-1.938 1.531-0.935-0.291-1.342-0.926-1.219-1.906 0.229-0.699 0.698-1.115 1.406-1.25z"></path>
<path fill="url(#gradient1)" d="M8.656 3.781c-0.939 0.142-1.575 0.663-1.906 1.563-0.284 1.402 0.248 2.329 1.594 2.781 1.388 0.187 2.274-0.386 2.656-1.719 0.090-1.65-0.691-2.525-2.344-2.625zM8.531 4.969c1.036-0.051 1.463 0.429 1.281 1.438-0.324 0.559-0.793 0.737-1.406 0.531-0.682-0.456-0.786-1.019-0.313-1.688 0.15-0.095 0.296-0.189 0.438-0.281z"></path>
<path fill="url(#gradient1)" d="M31.969 20.406c-0.91-2.658-1.816-5.324-2.719-8-0.534-1.21-1.461-1.877-2.781-2-0.884 0.083-1.727 0.312-2.531 0.688-0.36-1.256-1.141-2.141-2.344-2.656-1.805-0.585-3.326-0.169-4.563 1.25-1.003-0.034-1.847 0.31-2.531 1.031-0.505-0.133-1.016-0.165-1.531-0.094-0.602-0.548-1.31-0.882-2.125-1-2.458-0.093-3.958 1.063-4.5 3.469-0.639-0.144-1.284-0.249-1.938-0.313-1.49 0.052-2.48 0.781-2.969 2.188-0.487 2.696-0.977 5.384-1.469 8.063 0 0.417 0 0.833 0 1.25 0.278 1.163 0.986 1.945 2.125 2.344 0.622 0.135 1.247 0.25 1.875 0.344 0 0.083 0 0.167 0 0.25-0.531 0.104-0.875 0.417-1.031 0.938-0.125 1.209 0.427 1.845 1.656 1.906 3.595 0.616 7.179 1.252 10.75 1.906 0.292 0 0.583 0 0.875 0 0.33-0.155 0.6-0.384 0.813-0.688 0.359-0.048 0.714-0.121 1.063-0.219 3.743-1.255 7.472-2.546 11.188-3.875 0.225-0.169 0.381-0.388 0.469-0.656 0.205-1.027-0.201-1.652-1.219-1.875 0.011-0.083-0.010-0.156-0.063-0.219 0.546-0.175 1.088-0.363 1.625-0.563 1.009-0.456 1.634-1.217 1.875-2.281 0-0.396 0-0.792 0-1.188zM19.594 9.344c1.047-0.127 1.932 0.186 2.656 0.938 0.085 0.117 0.158 0.242 0.219 0.375-1.342 0.499-2.696 0.968-4.063 1.406-0.238 0.113-0.384 0.301-0.438 0.563 0.286 0.909 0.577 1.816 0.875 2.719-0.115 0.62-0.469 0.818-1.063 0.594-0.132-0.108-0.226-0.244-0.281-0.406-0.092-0.296-0.196-0.588-0.313-0.875-0.307-0.322-0.619-0.322-0.938 0-0.114 0.244-0.124 0.494-0.031 0.75-0.084 0.458-0.355 0.677-0.813 0.656-0.195-0.061-0.352-0.176-0.469-0.344-0.2-0.537-0.387-1.079-0.563-1.625-0.113-0.238-0.301-0.384-0.563-0.438-0.385 0.1-0.76 0.225-1.125 0.375 0.033-0.929 0.481-1.564 1.344-1.906 0.337-0.054 0.67-0.117 1-0.188 0.557-0.867 1.338-1.211 2.344-1.031 0.067-0.043 0.14-0.074 0.219-0.094 0.267-0.33 0.559-0.642 0.875-0.938 0.357-0.231 0.732-0.408 1.125-0.531zM10.156 10.719c0.925 0.004 1.696 0.348 2.313 1.031-0.416 0.385-0.687 0.854-0.813 1.406-1.308-0.195-2.599-0.445-3.875-0.75 0.489-0.994 1.281-1.557 2.375-1.688zM25.969 11.594c0.853-0.101 1.531 0.19 2.031 0.875 0.987 2.711 1.925 5.44 2.813 8.188 0.114 0.866-0.188 1.543-0.906 2.031-0.59 0.231-1.184 0.45-1.781 0.656-0.114-0.171-0.145-0.348-0.094-0.531 0.718-0.135 1.333-0.458 1.844-0.969 0.272-0.421 0.376-0.879 0.313-1.375-0.798-2.47-1.631-4.929-2.5-7.375-0.481-0.683-1.137-0.964-1.969-0.844-0.416 0.111-0.822 0.246-1.219 0.406-0.114-0.171-0.145-0.348-0.094-0.531 0.53-0.173 1.051-0.35 1.563-0.531zM22.906 11.719c0.073 0.134 0.136 0.28 0.188 0.438-0.013 0.037-0.034 0.068-0.063 0.094-1.196 0.44-2.394 0.826-3.594 1.156-0.040-0.141-0.092-0.277-0.156-0.406 1.222-0.411 2.43-0.838 3.625-1.281zM23.344 13.344c0.063 0 0.125 0 0.188 0 1.325 4.005 2.669 8.005 4.031 12 0.188 0.431 0.511 0.587 0.969 0.469 0.119 0.113 0.15 0.248 0.094 0.406-3.757 1.297-7.517 2.589-11.281 3.875-0.241-0.069-0.304-0.215-0.188-0.438 0.447-0.206 0.583-0.54 0.406-1-1.344-3.948-2.688-7.896-4.031-11.844 0.009-0.048 0.030-0.090 0.063-0.125 0.148-0.046 0.294-0.098 0.438-0.156 0.541 0.587 1.208 0.805 2 0.656 0.313-0.105 0.594-0.261 0.844-0.469 0.627 0.52 1.325 0.635 2.094 0.344 0.971-0.611 1.263-1.455 0.875-2.531 1.183-0.363 2.35-0.759 3.5-1.188zM25.969 13.344c0.368 0.004 0.628 0.171 0.781 0.5 0.75 2.208 1.5 4.417 2.25 6.625 0.075 0.291 0.023 0.551-0.156 0.781-0.412 0.227-0.849 0.383-1.313 0.469-0.858-2.658-1.754-5.303-2.688-7.938 0.381-0.148 0.756-0.293 1.125-0.438zM7.469 13.594c1.333 0.235 2.667 0.475 4 0.719 0.086 0.158 0.148 0.325 0.188 0.5-1.398-0.196-2.793-0.425-4.188-0.688-0.032-0.17-0.032-0.347 0-0.531zM4.281 13.906c0.657 0.077 1.303 0.202 1.938 0.375-0.055 0.14-0.075 0.286-0.063 0.438-0.466-0.079-0.935-0.142-1.406-0.188-0.786 0.007-1.349 0.361-1.688 1.063-0.519 2.584-0.988 5.177-1.406 7.781 0.058 0.803 0.453 1.366 1.188 1.688 0.488 0.088 0.967 0.203 1.438 0.344-0.043 0.122-0.074 0.247-0.094 0.375-0.664-0.016-1.32-0.131-1.969-0.344-0.714-0.376-1.089-0.969-1.125-1.781 0.443-2.867 0.954-5.721 1.531-8.563 0.343-0.697 0.895-1.093 1.656-1.188zM13.406 14.969c0.106 0.149 0.158 0.316 0.156 0.5-0.146 0.063-0.292 0.125-0.438 0.188-0.046-0.148-0.098-0.294-0.156-0.438 0.134-0.107 0.28-0.19 0.438-0.25zM7.219 15.219c1.621 0.305 3.246 0.597 4.875 0.875 0.781 2.417 1.594 4.823 2.438 7.219-0.352-0.031-0.706-0.062-1.063-0.094-0.354 2.143-0.687 4.289-1 6.438 0.375 0.042 0.75 0.083 1.125 0.125 0.303-2.069 0.647-4.132 1.031-6.188 0.388 1.195 0.794 2.382 1.219 3.563-0.166 0.84-0.312 1.683-0.438 2.531 0.002 0.378 0.19 0.607 0.563 0.688 0.174 0.173 0.153 0.319-0.063 0.438-3.815-0.611-7.627-1.257-11.438-1.938-0.375 0.002-0.5-0.165-0.375-0.5 0.208-0.042 0.417-0.083 0.625-0.125 0.144-0.102 0.238-0.238 0.281-0.406 0.733-4.211 1.473-8.419 2.219-12.625zM4.594 15.656c0.439 0.056 0.876 0.118 1.313 0.188-0.456 2.797-0.945 5.589-1.469 8.375-0.458-0.071-0.906-0.186-1.344-0.344-0.195-0.15-0.278-0.348-0.25-0.594 0.393-2.356 0.799-4.71 1.219-7.063 0.106-0.262 0.283-0.449 0.531-0.563z"></path>
<path fill="url(#gradient1)" d="M22.406 16.094c0.063 0 0.125 0 0.188 0 1.12 3.424 2.266 6.841 3.438 10.25-0.020 0.072-0.061 0.124-0.125 0.156-0.281 0.094-0.563 0.188-0.844 0.281-0.092-0.059-0.155-0.142-0.188-0.25-1.117-3.34-2.252-6.674-3.406-10 0.307-0.158 0.619-0.304 0.938-0.438z"></path>
<path fill="url(#gradient2)" d="M19.656 17.031c0.062-0.005 0.114 0.015 0.156 0.063 1.144 3.411 2.3 6.817 3.469 10.219-0.296 0.183-0.619 0.318-0.969 0.406-0.048-0.009-0.090-0.030-0.125-0.063-1.156-3.385-2.313-6.771-3.469-10.156 0.009-0.048 0.030-0.090 0.063-0.125 0.31-0.086 0.602-0.2 0.875-0.344z"></path>
<path fill="url(#gradient1)" d="M8.531 17.844c0.334 0.045 0.667 0.097 1 0.156 0.067 0.042 0.109 0.105 0.125 0.188-0.607 3.512-1.221 7.022-1.844 10.531-0.045 0.035-0.097 0.056-0.156 0.063-0.348-0.044-0.681-0.127-1-0.25 0.657-3.557 1.282-7.119 1.875-10.688z"></path>
<path fill="url(#gradient1)" d="M16.906 17.969c0.078 0.005 0.13 0.047 0.156 0.125 1.138 3.403 2.294 6.799 3.469 10.188-0.353 0.187-0.728 0.312-1.125 0.375-1.133-3.399-2.279-6.794-3.438-10.188 0.007-0.059 0.028-0.111 0.063-0.156 0.3-0.11 0.592-0.225 0.875-0.344z"></path>
<path fill="url(#gradient2)" d="M11.406 18.344c0.377 0.049 0.752 0.111 1.125 0.188-0.604 3.583-1.208 7.167-1.813 10.75-0.405-0.029-0.801-0.102-1.188-0.219 0.655-3.566 1.28-7.139 1.875-10.719z"></path>
</svg>
