<!-- Generated by IcoMoon.io -->
<svg version="1.1" xmlns="http://www.w3.org/2000/svg" width="40" height="40" viewBox="0 0 32 32">
<path fill="#141414" d="M7.125 0.044c-1.188 0.131-2.55 0.631-3.531 1.288-0.519 0.35-0.675 0.481-1.269 1.062-1.075 1.056-1.831 2.462-2.175 4.044-0.113 0.506-0.119 0.975-0.119 9.563s0.006 9.056 0.119 9.563c0.706 3.219 3.069 5.581 6.287 6.288 0.506 0.113 0.975 0.119 9.563 0.119s9.056-0.006 9.563-0.119c3.219-0.706 5.581-3.069 6.288-6.288 0.113-0.506 0.119-0.975 0.119-9.563s-0.006-9.056-0.119-9.563c-0.625-2.862-2.637-5.144-5.319-6.019-1.238-0.406-0.488-0.381-10.281-0.388-4.9-0.006-9.006 0-9.125 0.012zM25.063 2.775c0.587 0.125 1.344 0.431 1.806 0.738 1.212 0.794 2.119 2.138 2.375 3.519 0.050 0.25 0.069 3.063 0.069 8.994 0 7.106-0.019 8.706-0.087 9.038-0.206 0.975-0.731 1.95-1.431 2.675-0.706 0.725-1.875 1.344-2.869 1.512-0.275 0.044-3.1 0.063-9.175 0.050l-8.781-0.019-0.594-0.206c-0.825-0.288-1.494-0.7-2.094-1.294-0.8-0.788-1.281-1.656-1.506-2.719-0.125-0.606-0.125-17.519 0-18.125 0.444-2.081 2.050-3.7 4.131-4.156 0.569-0.125 17.569-0.131 18.156-0.006z"></path>
<path fill="#600000" d="M22.2 10.825c-0.15 0.081-2.025 1.875-4.369 4.181-2.262 2.219-4.219 4.125-4.35 4.244l-0.238 0.206-1.481-1.469c-0.813-0.813-1.581-1.525-1.7-1.587-0.35-0.181-0.9-0.156-1.262 0.056-0.613 0.356-0.838 1.181-0.488 1.775 0.088 0.144 1.075 1.163 2.2 2.262 1.95 1.906 2.063 2.006 2.394 2.1 0.494 0.144 0.875 0.050 1.306-0.331 0.175-0.156 2.425-2.35 5-4.881 3.363-3.3 4.712-4.669 4.794-4.85 0.506-1.106-0.744-2.281-1.806-1.706z"></path>
</svg>
