<!-- Generated by IcoMoon.io -->
<svg version="1.1" xmlns="http://www.w3.org/2000/svg" width="55" height="55" viewBox="0 0 32 32">
<path fill="#600000" stroke="#7a7a7a" d="M22.2 10.825c-0.15 0.081-2.025 1.875-4.369 4.181-2.262 2.219-4.219 4.125-4.35 4.244l-0.238 0.206-1.481-1.469c-0.813-0.813-1.581-1.525-1.7-1.587-0.35-0.181-0.9-0.156-1.262 0.056-0.613 0.356-0.838 1.181-0.488 1.775 0.088 0.144 1.075 1.163 2.2 2.262 1.95 1.906 2.063 2.006 2.394 2.1 0.494 0.144 0.875 0.050 1.306-0.331 0.175-0.156 2.425-2.35 5-4.881 3.363-3.3 4.712-4.669 4.794-4.85 0.506-1.106-0.744-2.281-1.806-1.706z"></path>
</svg>
