<!-- Generated by IcoMoon.io -->
<svg version="1.1" xmlns="http://www.w3.org/2000/svg" width="32" height="32" viewBox="0 0 32 32">
<title>clockIcon</title>
<linearGradient id="gradient1" x1="0%" y1="0%" x2="0%" y2="100%">
  <stop offset="0%" style="stop-color: #d3000e; stop-opacity: .6" />
  <stop offset="50%" style="stop-color: #790008; stop-opacity: .59" />
  <stop offset="100%" style="stop-color: #d3000e; stop-opacity: .6" />
</linearGradient>
<path fill="url(#gradient1)"  d="M30.977 16.159c0 8.247-6.686 14.933-14.933 14.933s-14.933-6.686-14.933-14.933c0-8.247 6.686-14.933 14.933-14.933s14.933 6.686 14.933 14.933z"></path>
<path fill="#000" d="M16.689 11.353v4.767l4.086 2.426-0.681 1.15-4.767-2.895v-5.448zM16.22 23.186q2.979 0 5.129-2.149t2.149-5.129-2.149-5.129-5.129-2.149-5.129 2.149-2.149 5.129 2.149 5.129 5.129 2.149zM16.22 6.842q3.746 0 6.406 2.661t2.661 6.406-2.661 6.406-6.406 2.661-6.406-2.661-2.661-6.406 2.661-6.406 6.406-2.661z"></path>
</svg>
