<!-- Generated by IcoMoon.io -->
<svg version="1.1" xmlns="http://www.w3.org/2000/svg" width="32" height="32" viewBox="0 0 32 32">
<title>coldAppetizerCard</title>
<linearGradient id="gradient1" x1="100%" y1="0%" x2="0%" y2="0%">
    <stop offset="0%" style="stop-color: #555555; stop-opacity: .6" />
    <stop offset="100%" style="stop-color: #555555; stop-opacity: 1" />
  </linearGradient>
<path fill="url(#gradient1)" d="M22.512 2.481c-0.113 0.044-0.262 0.356-0.262 0.55v0.156h-4.444l-0.15 0.156-0.156 0.15v1.719c0 1.819 0.019 1.969 0.294 2.094 0.1 0.044 0.856 0.069 2.3 0.069h2.156v0.969l-0.325 0.081c-1.425 0.338-2.219 1.588-1.712 2.681 0.281 0.594 0.962 1.106 1.719 1.281 0.319 0.069 0.319 0.069 0.319 0.325 0 0.25-0.025 0.281-2.294 2.55-2.587 2.587-2.5 2.462-2.044 2.931 0.869 0.9 2.325 1.619 3.731 1.85l0.606 0.1v0.6l-4.169 0.038-0.306 0.188c-0.188 0.119-0.375 0.306-0.494 0.5l-0.188 0.306v1.975h-3.375v-2.113l-0.188-0.275c-0.125-0.175-0.306-0.325-0.525-0.444l-0.344-0.169h-3.287v-0.938h0.713c0.819 0 1.669-0.131 2.069-0.319 0.387-0.181 0.869-0.725 1-1.125 0.325-0.975-0.106-2.031-1.019-2.475-0.494-0.244-1.181-0.244-1.731-0.006-0.206 0.088-0.525 0.206-0.7 0.256l-0.331 0.1v-0.463c0-0.456 0-0.469 0.175-0.5 0.488-0.106 1.037-0.375 1.356-0.662 0.869-0.8 0.894-1.906 0.050-2.694-0.412-0.375-0.775-0.563-1.406-0.7-0.162-0.037-0.175-0.063-0.175-0.344 0-0.4-0.175-0.631-0.475-0.631-0.319 0-0.463 0.175-0.463 0.581v0.331l-0.456 0.137c-1.063 0.313-1.763 1.081-1.763 1.95 0 0.956 0.806 1.75 2.050 2.025 0.169 0.037 0.169 0.044 0.169 0.537v0.5h-0.25c-0.625 0-1.694-0.331-2.294-0.706l-0.244-0.156-0.456-1.581c-0.256-0.875-0.5-1.662-0.544-1.75-0.162-0.325-0.388-0.319-1.019 0.006-1.112 0.581-1.969 1.681-2.3 2.956-0.169 0.644-0.169 0.644 1.356 1.337l1.281 0.587 0.531 0.538c1.025 1.031 2.25 1.719 3.688 2.069l0.219 0.050 0.037 1.087h-1.612c-0.888 0-1.712 0.025-1.831 0.063-0.294 0.081-0.662 0.394-0.831 0.706-0.125 0.238-0.138 0.35-0.138 1.25v0.981h-1.369c-0.856 0-1.456 0.025-1.606 0.075-0.319 0.094-0.713 0.431-0.887 0.762-0.188 0.363-0.188 1.025 0 1.387 0.25 0.475 0.806 0.837 1.288 0.837 0.144 0 0.163 0.031 0.2 0.294 0.163 1.188 0.919 2.081 2 2.363 0.375 0.094 2.031 0.137 2.25 0.056 0.050-0.025 0.144-0.125 0.194-0.225 0.119-0.225 0.037-0.494-0.181-0.6-0.075-0.038-0.569-0.081-1.106-0.087-1.044-0.025-1.212-0.069-1.675-0.456-0.237-0.2-0.5-0.731-0.525-1.063l-0.019-0.25h26.813l-0.019 0.25c-0.025 0.331-0.288 0.863-0.525 1.063-0.106 0.087-0.306 0.225-0.45 0.3l-0.256 0.137-10.381 0.031c-10.106 0.031-10.387 0.038-10.519 0.15-0.181 0.163-0.175 0.475 0.013 0.65l0.144 0.137h10.281c11.344 0 10.662 0.025 11.363-0.394s1.163-1.163 1.288-2.063c0.038-0.262 0.056-0.294 0.2-0.294 0.481 0 1.038-0.363 1.288-0.837 0.188-0.363 0.188-1.025 0-1.387-0.175-0.331-0.569-0.669-0.887-0.762-0.144-0.044-0.706-0.075-1.431-0.075h-1.188l0.063-0.231c0.031-0.125 0.050-0.556 0.038-0.95-0.019-0.587-0.050-0.775-0.156-0.981-0.175-0.337-0.575-0.688-0.875-0.769-0.144-0.044-1.019-0.069-2.219-0.069h-1.988v-0.613l0.512-0.075c1.425-0.206 2.794-0.85 3.756-1.756 0.587-0.556 0.6-0.519-0.938-2.069-0.712-0.713-1.363-1.319-1.45-1.35-0.094-0.031-0.225-0.037-0.294-0.006-0.169 0.056-0.337 0.294-0.337 0.456 0 0.063 0.244 0.363 0.544 0.669 0.294 0.306 0.531 0.569 0.512 0.581-0.106 0.094-0.637 0.313-1.1 0.45-0.719 0.212-1.981 0.275-2.738 0.131-0.544-0.1-1.606-0.475-1.637-0.575-0.012-0.038 0.6-0.681 1.356-1.438l1.375-1.375 0.331 0.331c0.394 0.387 0.637 0.431 0.85 0.162 0.225-0.281 0.175-0.431-0.313-0.931-0.387-0.4-0.438-0.481-0.419-0.662 0.019-0.188 0.044-0.206 0.394-0.306 1.7-0.469 2.369-2.025 1.35-3.137-0.35-0.381-0.806-0.656-1.35-0.806l-0.375-0.1-0.019-2.8c-0.012-2.781-0.012-2.806-0.15-2.95-0.125-0.138-0.35-0.175-0.538-0.1zM22.25 5.281v1.156h-3.813v-2.313h3.813v1.156zM23.675 9.438c0.356 0.15 0.738 0.525 0.8 0.787 0.069 0.269-0.081 0.625-0.363 0.863-0.363 0.313-0.788 0.444-1.425 0.444-0.444-0.006-0.587-0.031-0.875-0.169-0.575-0.281-0.813-0.556-0.813-0.95 0-0.381 0.231-0.681 0.731-0.938 0.512-0.262 1.381-0.281 1.944-0.037zM9.912 12.325c0.175 0.094 0.406 0.269 0.512 0.394 0.169 0.188 0.2 0.275 0.2 0.531s-0.031 0.344-0.2 0.531c-0.319 0.369-0.744 0.55-1.369 0.581-0.7 0.037-1.125-0.081-1.513-0.425-0.4-0.356-0.481-0.637-0.3-1.019 0.269-0.55 0.838-0.8 1.756-0.775 0.494 0.019 0.644 0.050 0.912 0.181zM4.688 15.563c0 0.106-0.369 0.5-0.475 0.5-0.037 0-0.35-0.131-0.688-0.287-0.344-0.156-0.769-0.356-0.95-0.438l-0.325-0.144 0.131-0.331c0.263-0.675 0.775-1.331 1.331-1.7l0.25-0.169 0.362 1.238c0.194 0.681 0.362 1.281 0.362 1.331zM5.813 16.619c0.706 0.369 1.463 0.569 2.294 0.613 0.875 0.044 1.463-0.044 2.356-0.363 0.375-0.131 0.756-0.244 0.85-0.244 0.225 0 0.688 0.25 0.831 0.444 0.369 0.506 0.175 1.294-0.387 1.581-0.431 0.225-1.969 0.294-2.894 0.131-1.406-0.244-2.731-0.906-3.606-1.806l-0.281-0.288 0.15-0.156c0.081-0.087 0.162-0.156 0.181-0.156s0.244 0.113 0.506 0.244zM19.837 17.569c0.856 0.4 1.594 0.569 2.663 0.6 1.275 0.044 2.1-0.119 3.269-0.656l0.488-0.219 0.212 0.206c0.256 0.244 0.244 0.269-0.3 0.637-0.925 0.631-1.969 0.975-3.119 1.031-1.581 0.081-3.012-0.394-4.231-1.4-0.038-0.025 0.375-0.456 0.438-0.456 0.019 0 0.281 0.113 0.581 0.256zM12.675 21.813c0.125 0.119 0.137 0.188 0.137 0.906 0 1.144 0.431 1.031-3.912 1.031h-3.581l-0.175-0.15c-0.175-0.15-0.175-0.156-0.175-0.913 0-0.725 0.006-0.769 0.15-0.881 0.138-0.113 0.294-0.119 3.781-0.119 3.575 0 3.644 0 3.775 0.125zM27.319 21.869c0.175 0.175 0.181 0.206 0.181 0.788 0 0.675-0.081 0.906-0.356 1.025-0.131 0.050-1.325 0.069-4.506 0.056l-4.337-0.019-0.15-0.175c-0.137-0.163-0.15-0.231-0.15-0.8 0-0.625 0.050-0.825 0.244-0.975 0.075-0.056 1.137-0.075 4.494-0.081h4.4l0.181 0.181zM30.856 24.837c0.144 0.125 0.175 0.2 0.175 0.444s-0.031 0.319-0.175 0.444l-0.175 0.15h-29.363l-0.175-0.15c-0.25-0.219-0.25-0.669 0-0.887l0.175-0.15h29.363l0.175 0.15z"></path>
</svg>
