<!-- Generated by IcoMoon.io -->
<svg version="1.1" xmlns="http://www.w3.org/2000/svg" width="32" height="32" viewBox="0 0 32 32">
<title>hotDrinkCard</title>
<linearGradient id="gradient2" x1="0%" y1="100%" x2="0%" y2="0%">
  <stop offset="0%" style="stop-color: #515151; stop-opacity: .9" />
  <stop offset="50%" style="stop-color: #414141; stop-opacity: .8" />
  <stop offset="100%" style="stop-color: #313131; stop-opacity: .9" />
</linearGradient>
<linearGradient id="gradient1" x1="0%" y1="100%" x2="0%" y2="0%">
    <stop offset="0%" style="stop-color: #1f1f1f; stop-opacity: .9" />
    <stop offset="100%" style="stop-color: #757575; stop-opacity: .5" />
  </linearGradient>
<path fill="url(#gradient1)" d="M3.469 2.9c-0.55 0.581-0.906 1.481-0.906 2.288 0 0.825 0.281 1.506 0.994 2.406 0.538 0.681 0.694 1.056 0.694 1.675 0 0.525-0.156 0.925-0.563 1.431-0.369 0.463-0.337 0.875 0.075 1.088 0.294 0.156 0.563 0.075 0.862-0.269 0.994-1.131 1.181-2.706 0.463-3.938-0.088-0.144-0.319-0.469-0.519-0.719s-0.444-0.612-0.544-0.8c-0.156-0.3-0.181-0.412-0.181-0.875 0-0.444 0.025-0.588 0.163-0.875 0.088-0.194 0.25-0.45 0.356-0.569 0.275-0.313 0.344-0.525 0.263-0.781-0.094-0.275-0.281-0.4-0.588-0.4-0.225 0-0.288 0.038-0.569 0.337z"></path>
<path fill="url(#gradient1)" d="M15.125 8.412c-0.9 0.244-1.563 0.988-1.675 1.881l-0.044 0.363-0.25 0.019c-0.55 0.031-1.906 0.206-2.375 0.3-0.644 0.131-0.994 0.3-1.331 0.637-0.4 0.4-0.594 0.863-0.625 1.519l-0.025 0.531-0.444 0.15c-0.238 0.081-0.681 0.287-0.975 0.456-0.781 0.45-0.862 0.45-1.688-0.012-0.681-0.381-0.787-0.412-1.056-0.344-0.219 0.063-2.194 2.319-2.237 2.569-0.056 0.294 0.081 0.475 1.194 1.581 0.538 0.531 1.019 1.044 1.069 1.137 0.056 0.106 0.088 0.363 0.088 0.706v0.531h-3.013l-0.181 0.181c-0.262 0.262-0.25 0.581 0.031 0.95 0.3 0.394 0.35 0.606 0.35 1.425 0 0.887 0.081 1.431 0.288 1.875 0.081 0.181 0.15 0.344 0.15 0.356s-0.438 0.025-0.975 0.025h-0.975l-0.438 0.438 0.025 0.988c0.019 0.944 0.025 1 0.212 1.387 0.237 0.5 0.656 0.931 1.137 1.169l0.356 0.175 5.931 0.019c6.506 0.019 6.119 0.038 6.287-0.363 0.106-0.256 0.019-0.538-0.206-0.712-0.175-0.131-0.206-0.131-5.969-0.163-4.244-0.025-5.825-0.050-5.919-0.106-0.194-0.113-0.456-0.406-0.525-0.6-0.038-0.1-0.069-0.356-0.069-0.581v-0.4h29.5v0.4c0 0.475-0.069 0.688-0.3 0.931-0.356 0.375-0.019 0.356-6.025 0.363-4.106 0-5.575 0.019-5.738 0.075-0.306 0.106-0.475 0.45-0.375 0.762 0.144 0.438-0.262 0.413 6.162 0.394l5.806-0.019 0.356-0.175c0.481-0.238 0.9-0.669 1.137-1.169 0.188-0.387 0.194-0.444 0.212-1.387l0.025-0.988-0.438-0.438h-7.281l0.406-0.425c0.419-0.431 0.844-1.031 1.031-1.456l0.106-0.244h0.938c1.406-0.006 2.131-0.169 3.019-0.694 0.5-0.294 1.194-1.006 1.512-1.538 0.4-0.675 0.581-1.288 0.613-2.113 0.038-0.887-0.075-1.438-0.462-2.219-0.262-0.544-0.363-0.669-1.137-1.444-0.756-0.75-0.913-0.875-1.381-1.106-0.969-0.469-0.969-0.469-3.881-0.494l-2.606-0.025-0.025-0.481c-0.044-0.806-0.494-1.481-1.206-1.825-0.394-0.194-2.25-0.5-3.006-0.5-0.281 0-0.337-0.063-0.337-0.375 0-0.531-0.531-1.331-1.106-1.669-0.288-0.169-0.863-0.331-1.144-0.325-0.088 0-0.313 0.044-0.5 0.094zM16.188 9.744c0.087 0.063 0.225 0.206 0.306 0.325 0.131 0.194 0.144 0.256 0.106 0.762-0.063 0.906 0.050 1.006 1.15 1.075 1.444 0.081 2.731 0.281 3.038 0.475 0.25 0.156 0.4 0.463 0.4 0.831v0.287h-11.125v-0.281c0-0.575 0.325-0.912 0.981-1.031 0.706-0.119 1.756-0.238 2.55-0.281 0.488-0.031 0.8-0.075 0.894-0.137 0.219-0.137 0.319-0.419 0.256-0.725-0.137-0.713 0.006-1.088 0.506-1.344 0.319-0.162 0.675-0.15 0.938 0.044zM22.056 14.963c1.375 0.481 2.475 1.656 2.819 3.013 0.106 0.419 0.125 0.694 0.125 2.050 0 1.744-0.038 1.994-0.4 2.756-0.438 0.919-1.081 1.575-2.006 2.038-0.887 0.438-0.712 0.431-7.069 0.431-5.112 0-6.263-0.025-6.381-0.15-0.012-0.012 0.050-0.231 0.137-0.494 0.137-0.413 0.156-0.575 0.156-1.337 0-1.006 0.056-1.238 0.381-1.7 0.256-0.356 0.294-0.519 0.169-0.788-0.15-0.325-0.269-0.344-2.2-0.344h-1.775l-0.025-0.706c-0.025-1.006-0.125-1.194-1.231-2.319l-0.869-0.881 0.519-0.594c0.294-0.325 0.55-0.594 0.575-0.594 0.031 0 0.275 0.113 0.544 0.25 0.463 0.238 0.525 0.25 1.031 0.25 0.575-0.006 0.575-0.006 1.569-0.55 0.45-0.244 0.881-0.4 1.35-0.481 0.169-0.025 2.95-0.044 6.181-0.037l5.875 0.006 0.525 0.181zM27.475 14.819c0.669 0.119 1.231 0.444 1.894 1.088 0.95 0.925 1.313 1.663 1.319 2.663 0 1.087-0.481 2.038-1.356 2.663-0.619 0.444-1.137 0.594-2.125 0.631-0.456 0.012-0.863 0.012-0.906 0-0.063-0.025-0.075-0.181-0.063-0.631l0.019-0.594 0.825-0.025c0.725-0.019 0.869-0.044 1.175-0.188 0.431-0.2 0.794-0.55 1-0.962 0.125-0.256 0.15-0.4 0.15-0.869 0-0.7-0.113-0.962-0.7-1.594-0.788-0.85-1.15-1-2.462-1h-0.856l-0.175-0.238c-0.094-0.125-0.344-0.406-0.55-0.625l-0.369-0.387h1.406c0.769 0 1.569 0.031 1.775 0.069zM27.219 17.35c0.113 0.050 0.381 0.294 0.587 0.531 0.344 0.394 0.381 0.469 0.381 0.712 0 0.337-0.219 0.625-0.55 0.719-0.125 0.038-0.481 0.063-0.794 0.050l-0.563-0.019-0.044-0.656c-0.019-0.363-0.081-0.819-0.137-1.019s-0.1-0.375-0.1-0.387c0-0.081 1.031-0.025 1.219 0.069zM8.281 21.825c-0.025 0.081-0.063 0.637-0.088 1.238-0.031 0.881-0.063 1.137-0.156 1.313-0.162 0.306-0.4 0.55-0.694 0.706-0.237 0.131-0.338 0.137-1.625 0.137-1.519 0-1.644-0.025-2.038-0.425-0.394-0.394-0.45-0.594-0.487-1.825-0.025-0.619-0.063-1.163-0.087-1.206-0.044-0.056 0.494-0.075 2.587-0.075h2.631l-0.044 0.137z"></path>
<path fill="url(#gradient1)" d="M1.094 8.95c-0.25 0.2-0.75 0.988-0.906 1.438-0.388 1.131-0.094 2.475 0.744 3.363 0.263 0.275 0.325 0.313 0.55 0.313 0.331 0 0.569-0.194 0.619-0.5 0.031-0.181 0-0.269-0.188-0.531-0.125-0.175-0.319-0.494-0.431-0.719-0.375-0.756-0.244-1.6 0.356-2.331 0.119-0.144 0.238-0.344 0.256-0.438 0.138-0.537-0.55-0.944-1-0.594z"></path>
<path fill="url(#gradient1)" d="M15.769 28.344c-0.213 0.15-0.294 0.475-0.181 0.738 0.169 0.406 0.662 0.494 0.981 0.175 0.238-0.244 0.244-0.544 0.019-0.813-0.131-0.163-0.206-0.194-0.425-0.194-0.144 0-0.319 0.044-0.394 0.094z"></path>
</svg>
