<!-- Generated by IcoMoon.io -->
<svg version="1.1" xmlns="http://www.w3.org/2000/svg" width="17" height="17" viewBox="0 0 32 32">
<title>instagram</title>
<linearGradient id="gradient1" x1="0%" y1="0%" x2="0%" y2="100%">
  <stop offset="0%" style="stop-color: #d3000e; stop-opacity: .6" />
  <stop offset="50%" style="stop-color: #790008; stop-opacity: .59" />
  <stop offset="100%" style="stop-color: #d3000e; stop-opacity: .6" />
</linearGradient>
<path fill="url(#gradient1)"  d="M14.651 0.046c-0.014 0.023-0.155 0.046-0.311 0.050-0.155 0-0.398 0.023-0.535 0.041-0.549 0.087-1.042 0.178-1.326 0.247-0.165 0.037-0.398 0.091-0.526 0.119-0.123 0.027-0.261 0.069-0.302 0.091s-0.155 0.055-0.251 0.073c-0.101 0.014-0.197 0.046-0.224 0.064-0.023 0.023-0.123 0.050-0.219 0.069-0.091 0.018-0.183 0.050-0.197 0.073s-0.069 0.041-0.123 0.041c-0.059 0-0.142 0.027-0.192 0.064-0.050 0.032-0.151 0.073-0.229 0.091-0.119 0.032-0.265 0.091-0.777 0.325-0.425 0.192-0.594 0.279-0.608 0.306-0.009 0.023-0.041 0.037-0.069 0.037-0.059 0-0.251 0.096-0.535 0.265-0.087 0.055-0.219 0.128-0.297 0.16-0.073 0.037-0.247 0.142-0.384 0.233-0.133 0.091-0.251 0.165-0.265 0.165-0.009 0-0.142 0.091-0.288 0.206s-0.279 0.206-0.293 0.206c-0.041 0-0.631 0.453-1.029 0.795-0.494 0.416-1.49 1.413-1.906 1.906-0.343 0.398-0.795 0.987-0.795 1.029 0 0.014-0.087 0.142-0.197 0.283-0.21 0.279-0.558 0.818-0.631 0.983-0.023 0.055-0.105 0.201-0.178 0.329-0.119 0.201-0.384 0.736-0.571 1.143-0.219 0.475-0.293 0.658-0.325 0.777-0.018 0.078-0.059 0.178-0.091 0.229-0.037 0.050-0.064 0.133-0.064 0.192 0 0.055-0.018 0.11-0.041 0.123s-0.055 0.105-0.073 0.197c-0.018 0.096-0.046 0.192-0.069 0.219-0.018 0.023-0.050 0.123-0.064 0.224-0.018 0.096-0.050 0.21-0.073 0.251s-0.064 0.174-0.091 0.302c-0.137 0.608-0.169 0.736-0.197 0.8-0.014 0.037-0.050 0.242-0.078 0.457s-0.069 0.503-0.087 0.64c-0.023 0.137-0.046 0.37-0.046 0.512-0.005 0.142-0.023 0.274-0.050 0.288-0.064 0.037-0.064 2.661 0 2.697 0.023 0.014 0.046 0.146 0.050 0.288 0 0.142 0.023 0.375 0.041 0.512 0.165 1.042 0.274 1.586 0.329 1.669 0.014 0.023 0.041 0.146 0.059 0.274 0.018 0.123 0.050 0.247 0.069 0.274 0.023 0.023 0.050 0.128 0.069 0.229s0.050 0.201 0.069 0.229c0.023 0.023 0.050 0.123 0.069 0.219 0.018 0.091 0.050 0.183 0.073 0.197s0.041 0.055 0.041 0.096c0 0.069 0.087 0.297 0.21 0.53 0.037 0.073 0.064 0.151 0.064 0.178 0 0.091 0.649 1.435 0.937 1.934 0.087 0.151 0.192 0.334 0.233 0.411 0.069 0.123 0.311 0.462 0.43 0.603 0.023 0.032 0.046 0.069 0.046 0.082 0 0.032 0.311 0.48 0.43 0.617 0.055 0.064 0.133 0.165 0.174 0.229 0.037 0.064 0.206 0.261 0.375 0.439 0.165 0.183 0.302 0.347 0.302 0.366 0 0.046 0.942 0.965 1.376 1.349 0.315 0.274 1.39 1.093 1.435 1.093 0.014 0 0.142 0.087 0.279 0.187 0.256 0.197 0.43 0.306 0.704 0.443 0.087 0.041 0.183 0.101 0.21 0.123 0.105 0.101 1.701 0.864 1.906 0.914 0.069 0.018 0.137 0.050 0.151 0.073s0.059 0.041 0.101 0.041c0.041 0 0.137 0.032 0.206 0.069s0.197 0.078 0.288 0.096c0.087 0.014 0.169 0.046 0.178 0.069 0.014 0.018 0.119 0.050 0.229 0.069 0.114 0.014 0.219 0.046 0.233 0.069 0.009 0.023 0.123 0.050 0.251 0.069 0.123 0.018 0.238 0.046 0.247 0.069 0.014 0.018 0.137 0.050 0.274 0.064 0.142 0.018 0.265 0.050 0.274 0.069 0.014 0.023 0.142 0.050 0.288 0.069 0.142 0.014 0.302 0.046 0.352 0.069s0.297 0.064 0.549 0.091c0.251 0.027 0.603 0.069 0.777 0.091 0.425 0.055 2.697 0.050 3.131 0 0.992-0.123 1.856-0.261 1.989-0.32 0.050-0.023 0.183-0.055 0.297-0.073 0.114-0.014 0.229-0.046 0.251-0.064 0.027-0.018 0.137-0.050 0.251-0.069s0.229-0.050 0.251-0.069c0.027-0.018 0.123-0.046 0.215-0.064s0.229-0.059 0.297-0.096c0.069-0.037 0.165-0.069 0.21-0.069 0.041 0 0.114-0.018 0.16-0.046 0.146-0.082 0.507-0.229 0.558-0.229 0.032 0 0.11-0.027 0.174-0.064 0.142-0.078 0.937-0.453 1.106-0.526 0.064-0.027 0.219-0.114 0.343-0.187 0.128-0.073 0.27-0.155 0.325-0.178 0.155-0.069 0.59-0.343 0.603-0.379 0.009-0.018 0.037-0.037 0.064-0.037 0.023 0 0.165-0.091 0.311-0.206s0.279-0.206 0.293-0.206c0.055 0 0.667-0.48 1.193-0.923 0.288-0.251 1.403-1.362 1.659-1.659 0.37-0.43 0.567-0.677 0.672-0.841 0.055-0.091 0.137-0.192 0.178-0.229 0.041-0.032 0.073-0.082 0.073-0.105s0.091-0.165 0.206-0.311c0.114-0.146 0.206-0.288 0.206-0.311 0-0.027 0.018-0.055 0.037-0.064 0.037-0.014 0.311-0.448 0.379-0.603 0.023-0.055 0.105-0.201 0.178-0.325 0.073-0.128 0.16-0.279 0.187-0.343 0.073-0.169 0.448-0.965 0.526-1.106 0.037-0.064 0.064-0.142 0.064-0.174 0-0.050 0.146-0.411 0.229-0.558 0.027-0.046 0.046-0.119 0.046-0.16 0-0.046 0.032-0.142 0.069-0.21s0.078-0.206 0.096-0.297c0.018-0.091 0.046-0.192 0.064-0.215 0.018-0.027 0.050-0.137 0.069-0.251s0.050-0.229 0.069-0.251c0.018-0.027 0.050-0.137 0.064-0.251 0.018-0.114 0.050-0.247 0.073-0.297 0.046-0.101 0.11-0.453 0.201-1.12 0.037-0.238 0.078-0.485 0.096-0.549 0.059-0.21 0.082-2.967 0.027-3.406-0.032-0.229-0.073-0.608-0.101-0.846s-0.064-0.475-0.087-0.526c-0.023-0.050-0.055-0.21-0.069-0.352-0.018-0.146-0.046-0.274-0.069-0.288-0.018-0.009-0.050-0.133-0.069-0.274-0.014-0.137-0.046-0.261-0.064-0.274-0.023-0.009-0.050-0.123-0.069-0.247-0.018-0.128-0.046-0.242-0.069-0.251-0.023-0.014-0.050-0.11-0.069-0.21-0.014-0.105-0.046-0.224-0.069-0.265s-0.087-0.21-0.142-0.375c-0.055-0.165-0.128-0.352-0.165-0.421-0.037-0.064-0.064-0.142-0.064-0.174 0-0.087-0.8-1.751-0.891-1.847-0.023-0.027-0.082-0.123-0.123-0.21-0.137-0.274-0.247-0.448-0.443-0.704-0.101-0.137-0.187-0.265-0.187-0.279 0-0.046-0.818-1.12-1.093-1.435-0.384-0.434-1.303-1.376-1.349-1.376-0.018 0-0.183-0.137-0.366-0.302-0.178-0.169-0.375-0.338-0.439-0.375-0.064-0.041-0.165-0.119-0.229-0.174-0.137-0.119-0.585-0.43-0.617-0.43-0.014 0-0.050-0.023-0.082-0.046-0.142-0.119-0.48-0.361-0.603-0.43-0.073-0.041-0.261-0.146-0.411-0.233-0.517-0.302-1.979-1.001-2.203-1.056-0.064-0.018-0.174-0.059-0.238-0.091-0.064-0.037-0.155-0.064-0.197-0.064s-0.087-0.018-0.101-0.041c-0.014-0.023-0.105-0.055-0.197-0.073-0.096-0.018-0.192-0.046-0.219-0.069-0.023-0.018-0.128-0.050-0.229-0.069s-0.201-0.046-0.229-0.069c-0.023-0.018-0.146-0.050-0.274-0.069-0.123-0.018-0.247-0.046-0.274-0.059-0.055-0.037-0.48-0.133-0.869-0.197-0.151-0.023-0.366-0.064-0.48-0.091-0.11-0.023-0.407-0.059-0.654-0.073s-0.457-0.046-0.471-0.069c-0.037-0.055-2.656-0.046-2.693 0.009zM21.806 5.586c1.184 0.302 2.103 0.814 2.93 1.637 0.974 0.974 1.55 2.112 1.76 3.497 0.091 0.617 0.091 9.902-0.005 10.56-0.206 1.454-0.969 2.853-2.048 3.771-0.923 0.786-1.97 1.262-3.154 1.435-0.672 0.101-9.925 0.105-10.569 0.009-0.731-0.11-1.239-0.27-1.87-0.581-1.513-0.754-2.674-2.126-3.159-3.735-0.261-0.878-0.256-0.809-0.242-6.386l0.018-5.12 0.119-0.48c0.297-1.202 0.896-2.249 1.755-3.058 0.695-0.658 1.618-1.198 2.478-1.449 0.846-0.242 0.731-0.238 6.318-0.229l5.189 0.009 0.48 0.119z"></path>
<path fill="url(#gradient1)" d="M10.702 7.154c-1.335 0.293-2.368 1.033-3.035 2.185-0.233 0.402-0.457 1.029-0.535 1.499-0.064 0.402-0.064 9.92 0.005 10.327 0.069 0.457 0.325 1.147 0.571 1.568 0.293 0.489 1.051 1.257 1.504 1.518 0.448 0.261 0.818 0.416 1.262 0.539l0.384 0.101h10.286l0.389-0.105c1.595-0.434 2.816-1.65 3.255-3.255l0.105-0.389v-10.286l-0.101-0.384c-0.32-1.189-1.033-2.139-2.085-2.775-0.416-0.247-1.061-0.485-1.541-0.562-0.197-0.032-1.979-0.050-5.234-0.046-4.032 0-4.992 0.014-5.23 0.064zM22.519 8.763c0.434 0.146 0.795 0.658 0.795 1.134 0 0.864-0.928 1.472-1.714 1.125-1.015-0.448-0.96-1.893 0.082-2.277 0.215-0.078 0.576-0.069 0.837 0.018zM16.937 10.382c0.759 0.119 1.774 0.549 2.423 1.033 0.457 0.338 1.079 0.992 1.371 1.435 0.466 0.709 0.786 1.559 0.896 2.359 0.073 0.553 0.027 1.623-0.091 2.094-0.521 2.089-2.075 3.666-4.165 4.21-0.539 0.142-1.554 0.197-2.162 0.114-1.157-0.155-2.231-0.677-3.109-1.509-0.827-0.786-1.349-1.678-1.632-2.784-0.517-2.043 0.233-4.338 1.861-5.678 1.339-1.106 2.898-1.536 4.608-1.275z"></path>
<path fill="url(#gradient1)" d="M15.433 11.982c-0.457 0.059-1.093 0.288-1.513 0.535-0.489 0.288-1.115 0.914-1.403 1.403-1.015 1.723-0.626 3.941 0.91 5.211 0.384 0.315 1.106 0.672 1.609 0.795 0.544 0.133 1.394 0.133 1.929 0 1.467-0.366 2.597-1.495 2.962-2.962 0.133-0.535 0.133-1.385 0-1.929-0.201-0.827-0.704-1.632-1.358-2.171-0.37-0.306-1.093-0.672-1.577-0.791-0.43-0.11-1.129-0.151-1.559-0.091z"></path>
</svg>
