<!-- Generated by IcoMoon.io -->
<svg version="1.1" xmlns="http://www.w3.org/2000/svg" width="32" height="32" viewBox="0 0 32 32">
<title>lunchCard</title>
<linearGradient id="gradient2" x1="0%" y1="100%" x2="0%" y2="0%">
  <stop offset="0%" style="stop-color: #515151; stop-opacity: .9" />
  <stop offset="50%" style="stop-color: #414141; stop-opacity: .8" />
  <stop offset="100%" style="stop-color: #313131; stop-opacity: .9" />
</linearGradient>
<linearGradient id="gradient1" x1="0%" y1="100%" x2="0%" y2="0%">
    <stop offset="0%" style="stop-color: #1f1f1f; stop-opacity: .9" />
    <stop offset="100%" style="stop-color: #757575; stop-opacity: .5" />
  </linearGradient>
<path fill="url(#gradient1)" opacity="0.942" d="M5.344-0.031c-2.979 0.604-4.771 2.396-5.375 5.375 0 0.583 0 1.167 0 1.75 0.471 2.482 1.888 4.18 4.25 5.094 1.778 0.513 3.486 0.346 5.125-0.5 2.323-1.47 3.354-3.584 3.094-6.344-0.584-2.99-2.365-4.782-5.344-5.375-0.583 0-1.167 0-1.75 0zM6.156 1.219c2.184 0.117 3.736 1.158 4.656 3.125 0.805 2.417 0.211 4.407-1.781 5.969-1.959 1.203-3.896 1.161-5.813-0.125-1.746-1.47-2.319-3.314-1.719-5.531 0.841-2.113 2.393-3.259 4.656-3.438z"></path>
<path fill="url(#gradient1)" opacity="0.975" d="M22.281-0.031c-0.102 0.092-0.196 0.196-0.281 0.313-0.010 1.334-0.042 2.667-0.094 4-2.682 0.932-4.328 2.786-4.938 5.563-0.56 0.196-0.946 0.571-1.156 1.125-0.1 0.746-0.121 1.496-0.063 2.25 0.073 0.115 0.167 0.208 0.281 0.281 0.291 0.031 0.583 0.042 0.875 0.031 0.153 2.313 0.289 4.625 0.406 6.938-0.297-0.18-0.61-0.326-0.938-0.438-0.099-0.879-0.349-1.713-0.75-2.5-1.133-1.828-2.779-2.786-4.938-2.875-2.844 0.157-4.677 1.595-5.5 4.313-1.198-1.198-2.396-2.396-3.594-3.594-0.221-0.094-0.45-0.115-0.688-0.063-0.383 0.276-0.456 0.619-0.219 1.031 1.344 1.344 2.688 2.688 4.031 4.031-0.194 0.123-0.392 0.238-0.594 0.344-1.173-0.327-2.35-0.64-3.531-0.938-0.272 0.031-0.48 0.156-0.625 0.375 0 0.188 0 0.375 0 0.563 0.092 0.144 0.217 0.259 0.375 0.344 0.854 0.229 1.708 0.458 2.563 0.688 0.029 0.026 0.049 0.057 0.063 0.094-0.689 0.858-1.085 1.837-1.188 2.938-0.338-0.072-0.598 0.032-0.781 0.313-0.141 0.944-0.109 1.881 0.094 2.813-0.272-0.010-0.542 0-0.813 0.031-0.116 0.085-0.221 0.179-0.313 0.281 0 0.75 0 1.5 0 2.25 0.271 0.729 0.771 1.229 1.5 1.5 9.667 0 19.333 0 29 0 0.731-0.272 1.231-0.772 1.5-1.5 0-0.75 0-1.5 0-2.25-0.092-0.102-0.196-0.196-0.313-0.281-0.625-0.021-1.25-0.042-1.875-0.063 0.105-0.712 0.136-1.431 0.094-2.156-0.386-0.475-0.781-0.475-1.188 0-0.083 0.708-0.155 1.416-0.219 2.125-2.562 0.073-5.125 0.083-7.688 0.031 0.085-0.122 0.137-0.257 0.156-0.406 0.042-0.792 0.042-1.583 0-2.375-0.183-0.281-0.444-0.385-0.781-0.313-0.036-0.517-0.15-1.017-0.344-1.5-0.306-0.638-0.66-1.242-1.063-1.813-0.061-0.96-0.133-1.919-0.219-2.875 1.146 0 2.292 0 3.438 0-0.010 1.188 0 2.375 0.031 3.563 0.079 0.183 0.214 0.298 0.406 0.344 0.958 0.042 1.917 0.042 2.875 0 0.192-0.046 0.328-0.161 0.406-0.344 0.031-1.187 0.042-2.375 0.031-3.563 1.146 0 2.292 0 3.438 0-0.056 0.519-0.098 1.039-0.125 1.563-0.066 0.348 0.038 0.629 0.313 0.844 0.482 0.166 0.805 0.010 0.969-0.469 0.177-2.332 0.333-4.666 0.469-7 0.292 0.010 0.584-0 0.875-0.031 0.116-0.085 0.221-0.179 0.313-0.281 0-0.688 0-1.375 0-2.063-0.199-0.637-0.616-1.074-1.25-1.313-0.61-2.776-2.256-4.63-4.938-5.563-0.052-1.333-0.083-2.666-0.094-4-0.085-0.116-0.179-0.221-0.281-0.313-1.042 0-2.083 0-3.125 0zM23.219 1.219c0.417 0 0.833 0 1.25 0 0 0.938 0 1.875 0 2.813-0.417 0-0.833 0-1.25 0 0-0.938 0-1.875 0-2.813zM23.219 5.344c0.417 0 0.833 0 1.25 0 0 1.479 0 2.958 0 4.438-0.417 0-0.833 0-1.25 0 0-1.479 0-2.958 0-4.438zM21.906 5.656c0.062 1.364 0.083 2.739 0.063 4.125-1.188 0-2.375 0-3.563 0 0.468-1.968 1.635-3.343 3.5-4.125zM25.719 5.656c1.905 0.759 3.092 2.134 3.563 4.125-1.188 0-2.375 0-3.563 0 0-1.375 0-2.75 0-4.125zM17.594 11.031c4.167-0.010 8.333 0 12.5 0.031 0.365 0.031 0.563 0.229 0.594 0.594 0.031 0.207 0.042 0.416 0.031 0.625-4.583 0-9.167 0-13.75 0-0.014-0.297 0.017-0.588 0.094-0.875 0.121-0.211 0.299-0.336 0.531-0.375zM18.219 13.531c1.25 0 2.5 0 3.75 0 0 1.25 0 2.5 0 3.75-1.167 0-2.333 0-3.5 0-0.101-1.249-0.184-2.499-0.25-3.75zM23.219 13.531c0.417 0 0.833 0 1.25 0 0 1.25 0 2.5 0 3.75-0.417 0-0.833 0-1.25 0 0-1.25 0-2.5 0-3.75zM25.719 13.531c1.25 0 2.5 0 3.75 0-0.066 1.251-0.149 2.501-0.25 3.75-1.167 0-2.333 0-3.5 0 0-1.25 0-2.5 0-3.75zM10.219 15.969c2.080-0.070 3.57 0.826 4.469 2.688 0.152 0.362 0.246 0.737 0.281 1.125-0.396 0-0.792 0-1.188 0-0.369-1.649-1.4-2.524-3.094-2.625-1.694 0.101-2.726 0.976-3.094 2.625-0.42-0.003-0.837 0.008-1.25 0.031 0.415-2.175 1.706-3.456 3.875-3.844zM10.406 18.469c1.149-0.030 1.857 0.512 2.125 1.625-0.577 0.241-1.108 0.554-1.594 0.938-0.577-0.492-1.234-0.846-1.969-1.063 0.043-0.516 0.293-0.923 0.75-1.219 0.229-0.114 0.458-0.208 0.688-0.281zM23.219 18.594c0.417 0 0.833 0 1.25 0 0 0.875 0 1.75 0 2.625-0.417 0-0.833 0-1.25 0 0-0.875 0-1.75 0-2.625zM7.344 21.031c2.361 0.191 3.799 1.441 4.313 3.75-0.398 0.021-0.794-0-1.188-0.063-0.453-1.547-1.484-2.36-3.094-2.438-1.609 0.078-2.641 0.89-3.094 2.438-0.394 0.062-0.789 0.083-1.188 0.063 0.502-2.294 1.919-3.544 4.25-3.75zM14.531 21.031c2.361 0.191 3.799 1.441 4.313 3.75-0.398 0.021-0.794-0-1.188-0.063-0.584-1.824-1.834-2.626-3.75-2.406-0.543 0.1-1.012 0.339-1.406 0.719-0.158-0.367-0.355-0.711-0.594-1.031 0.781-0.59 1.656-0.913 2.625-0.969zM7.344 23.531c0.817 0.054 1.4 0.45 1.75 1.188-1.146 0.083-2.292 0.083-3.438 0 0.344-0.72 0.906-1.116 1.688-1.188zM14.531 23.531c0.814 0.053 1.398 0.449 1.75 1.188-1.103 0.063-2.208 0.083-3.313 0.063-0.013-0.156 0.019-0.301 0.094-0.438 0.382-0.477 0.871-0.748 1.469-0.813zM2.219 26.031c5.813 0 11.625 0 17.438 0 0.010 0.417 0 0.834-0.031 1.25-0.094 0.26-0.271 0.438-0.531 0.531-2.706 0.072-5.414 0.103-8.125 0.094-2.711 0.010-5.419-0.022-8.125-0.094-0.26-0.094-0.438-0.271-0.531-0.531-0.080-0.413-0.111-0.829-0.094-1.25zM1.281 29.156c9.813 0 19.625 0 29.438 0 0.027 0.408-0.025 0.804-0.156 1.188-0.162 0.222-0.381 0.336-0.656 0.344-9.292 0.042-18.583 0.042-27.875 0-0.338-0.007-0.577-0.164-0.719-0.469-0.031-0.354-0.042-0.708-0.031-1.063z"></path>
<path fill="url(#gradient2)" opacity="0.945" d="M5.906 2.781c0.376-0.080 0.678 0.024 0.906 0.313 0.075 0.643 0.117 1.289 0.125 1.938 0.269-0.188 0.561-0.313 0.875-0.375 0.544 0.045 0.752 0.336 0.625 0.875-0.070 0.133-0.164 0.247-0.281 0.344-0.542 0.313-1.083 0.625-1.625 0.938-0.376 0.111-0.678 0.017-0.906-0.281-0.042-1.146-0.042-2.292 0-3.438 0.085-0.116 0.179-0.221 0.281-0.313z"></path>
<path fill="url(#gradient1)" opacity="0.905" d="M29.156 22.594c0.546-0.119 0.879 0.089 1 0.625-0.105 0.564-0.439 0.761-1 0.594-0.411-0.402-0.411-0.808 0-1.219z"></path>
</svg>
