<!-- Generated by IcoMoon.io -->
<svg version="1.1" xmlns="http://www.w3.org/2000/svg" width="32" height="32" viewBox="0 0 32 32">
<title>lunchCard</title>
<linearGradient id="gradient1" x1="100%" y1="0%" x2="0%" y2="0%">
 <stop offset="0%" style="stop-color: #000000; stop-opacity: .5" />
    <stop offset="100%" style="stop-color: #0000000; stop-opacity: 1" />
  </linearGradient>
<path fill="url(#gradient1)" d="M22.719 5.537c-3.856 0.419-6.944 3.306-7.569 7.075-0.106 0.631-0.106 0.644 0.019 0.813 0.088 0.113 0.194 0.175 0.338 0.188 0.338 0.031 0.456-0.156 0.581-0.887 0.844-4.944 6.2-7.7 10.7-5.513 0.844 0.412 1.519 0.913 2.188 1.606 0.619 0.65 0.95 1.131 1.344 1.956 1.35 2.838 0.819 6.131-1.35 8.406-0.881 0.931-1.944 1.606-3.094 1.975-0.294 0.094-0.581 0.225-0.637 0.294-0.15 0.169-0.144 0.456 0.019 0.619 0.181 0.181 0.544 0.137 1.313-0.163 2.688-1.038 4.619-3.325 5.262-6.219 0.175-0.794 0.187-2.456 0.025-3.262-0.694-3.469-3.35-6.106-6.8-6.769-0.531-0.1-1.875-0.169-2.337-0.119z"></path>
<path fill="url(#gradient1)" d="M23.219 7.656l-0.156 0.15v4.787l-0.538 0.287-1.75-1.012c-2.456-1.425-2.406-1.4-2.625-1.294-0.1 0.044-0.219 0.162-0.262 0.256-0.163 0.344-0.069 0.419 2.113 1.675l2.031 1.175 0.038 0.394c0.044 0.469 0.156 0.706 0.481 1 0.319 0.287 0.619 0.381 1.106 0.35 1.381-0.088 1.819-1.887 0.644-2.644l-0.294-0.188v-2.325c-0.006-1.563-0.031-2.375-0.075-2.475-0.069-0.156-0.294-0.294-0.469-0.294-0.050 0-0.163 0.069-0.244 0.156zM23.712 13.525c0.275 0.113 0.394 0.4 0.288 0.662-0.094 0.231-0.231 0.313-0.525 0.313-0.156 0-0.25-0.044-0.344-0.162-0.269-0.344-0.1-0.769 0.356-0.894 0.006-0.006 0.106 0.031 0.225 0.081z"></path>
<path fill="url(#gradient1)" d="M20.225 8.444c-0.275 0.213-0.181 0.656 0.231 1.1 0.225 0.25 0.594 0.169 0.731-0.162 0.069-0.169 0.056-0.225-0.125-0.556-0.269-0.506-0.525-0.625-0.837-0.381z"></path>
<path fill="url(#gradient1)" d="M26.262 8.412c-0.169 0.119-0.45 0.65-0.45 0.863 0 0.175 0.262 0.412 0.45 0.412 0.212 0 0.35-0.113 0.544-0.463 0.231-0.406 0.244-0.556 0.038-0.756-0.175-0.181-0.381-0.2-0.581-0.056z"></path>
<path fill="url(#gradient1)" d="M1.587 10.619c-0.3 0.137-0.506 0.381-0.556 0.656-0.056 0.3 0.825 11.55 0.925 11.831 0.050 0.131 0.113 0.288 0.137 0.344 0.044 0.106-0.013 0.113-0.656 0.113-0.819 0-1.081 0.1-1.313 0.506-0.125 0.225-0.131 0.319-0.113 1.025 0.019 0.837 0.063 0.956 0.45 1.244l0.169 0.131 24.525 0.031 0.281-0.137c0.206-0.106 0.319-0.219 0.425-0.425 0.131-0.256 0.144-0.35 0.125-1.012-0.019-0.806-0.075-0.944-0.488-1.225-0.206-0.137-0.225-0.137-2.587-0.137-2.306-0.006-2.375-0.006-2.244-0.119 0.075-0.063 0.869-0.631 1.769-1.256 1.706-1.2 1.863-1.344 2-1.863 0.144-0.563-0.119-1.219-0.631-1.556-0.244-0.163-0.319-0.175-1-0.194l-0.731-0.025-0.194-0.544c-0.225-0.631-0.512-1.006-0.869-1.15-0.137-0.056-0.481-0.144-0.769-0.194-0.5-0.094-0.538-0.113-0.8-0.394-0.806-0.875-0.819-0.887-1.15-0.988-0.294-0.088-0.381-0.088-1.006 0.012l-0.675 0.106-0.262-0.15c-1.256-0.725-1.481-0.731-2.537-0.094-0.406 0.244-0.519 0.256-1.2 0.125-0.269-0.050-0.606-0.075-0.756-0.056l-0.269 0.037-0.463-0.506-0.456-0.512 0.106-1.431c0.119-1.544 0.106-1.731-0.169-1.988-0.35-0.331-0.287-0.325-4.681-0.325-3.837 0-4.094 0.012-4.338 0.119zM9.912 11.919c-0.025 0.269-0.056 0.681-0.081 0.912l-0.037 0.425-0.194-0.213c-0.213-0.238-0.588-0.444-0.9-0.5-0.65-0.125-1.481 0.412-1.619 1.031-0.037 0.2-0.025 0.194-0.25 0.106-0.588-0.225-1.375-0.181-2.069 0.125-0.606 0.269-1.044 0.269-1.65 0-0.244-0.106-0.575-0.213-0.731-0.238l-0.288-0.037-0.044-0.563c-0.019-0.313-0.056-0.781-0.081-1.050l-0.038-0.481h8.019l-0.037 0.481zM8.644 13.494c0.088 0.037 0.625 0.588 1.2 1.225 1.15 1.288 1.088 1.15 0.662 1.606-0.125 0.131-0.275 0.238-0.35 0.231-0.137-0.006-2.031-2.094-2.162-2.387-0.131-0.281 0.119-0.65 0.488-0.731 0.006 0 0.081 0.025 0.162 0.056zM6.831 14.713c0.481 0.188 0.5 0.206 1.313 1.119 0.456 0.506 0.831 0.95 0.844 0.981 0.012 0.025-0.037 0.069-0.106 0.094-0.25 0.075-0.55 0.506-0.756 1.087l-0.206 0.569h-0.65c-0.706 0-0.919 0.056-1.256 0.344-0.325 0.275-0.475 0.619-0.481 1.1 0 0.719 0.094 0.819 2.081 2.219 0.938 0.656 1.738 1.225 1.781 1.269 0.050 0.050-0.675 0.069-2.838 0.069-2.694 0-2.919-0.012-3.156-0.119-0.25-0.113-0.456-0.337-0.55-0.6-0.038-0.106-0.656-7.8-0.663-8.206 0-0.188 0.094-0.175 0.6 0.063 0.413 0.194 0.469 0.206 1.15 0.206 0.663 0 0.75-0.019 1.094-0.181 0.675-0.325 1.025-0.325 1.8-0.012zM15.375 15.781c1.006 0.569 1.194 0.606 2.087 0.438 0.6-0.113 0.625-0.106 1.125 0.519 0.425 0.525 0.688 0.675 1.456 0.831 0.331 0.069 0.637 0.15 0.681 0.188 0.069 0.056 0.337 0.675 0.337 0.775 0 0.019-2.094 0.031-4.644 0.031-4.581 0-4.65 0-4.762 0.125-0.156 0.175-0.144 0.475 0.025 0.644l0.137 0.137 5.731 0.031c3.15 0.019 5.762 0.050 5.8 0.075s0.106 0.131 0.15 0.238c0.15 0.363 0.075 0.431-2.188 2.019-1.163 0.819-2.238 1.531-2.387 1.594-0.244 0.094-0.606 0.106-3.863 0.106-2.887 0-3.65-0.019-3.894-0.087-0.375-0.106-4.531-2.994-4.656-3.231-0.1-0.181-0.050-0.481 0.094-0.6 0.075-0.063 0.531-0.087 1.844-0.113 1.744-0.031 1.75-0.031 1.869-0.181 0.156-0.188 0.15-0.475-0.006-0.631-0.106-0.106-0.206-0.125-0.756-0.125-0.713 0-0.694 0.025-0.412-0.563 0.15-0.306 0.106-0.288 1.119-0.494 0.45-0.094 0.756-0.306 1.2-0.831 0.2-0.238 0.412-0.45 0.475-0.488 0.081-0.044 0.269-0.031 0.606 0.031 0.887 0.169 1.188 0.106 1.981-0.394 0.375-0.244 0.488-0.244 0.85-0.044zM25.063 25.031v0.531h-24.125v-1.063h24.125v0.531z"></path>
<path fill="url(#gradient1)" d="M15.169 16.675c-0.144 0.156-0.137 0.531 0.006 0.656 0.156 0.144 0.531 0.137 0.656-0.006 0.144-0.156 0.137-0.531-0.006-0.656-0.156-0.144-0.531-0.137-0.656 0.006z"></path>
<path fill="url(#gradient1)" d="M12.156 17.188c-0.156 0.169-0.144 0.475 0.019 0.637 0.156 0.163 0.475 0.169 0.644 0.012 0.156-0.144 0.156-0.488-0.006-0.65s-0.506-0.163-0.656 0z"></path>
<path fill="url(#gradient1)" d="M17.169 17.175c-0.144 0.156-0.137 0.531 0.012 0.663 0.169 0.15 0.488 0.15 0.644-0.012 0.163-0.156 0.163-0.475 0.012-0.644-0.144-0.156-0.531-0.163-0.669-0.006z"></path>
<path fill="url(#gradient1)" d="M28.306 10.694c-0.488 0.262-0.6 0.525-0.363 0.831 0.212 0.275 0.656 0.181 1.106-0.231 0.231-0.213 0.175-0.55-0.119-0.7-0.225-0.119-0.219-0.125-0.625 0.1z"></path>
<path fill="url(#gradient1)" d="M17.375 13.544c-0.212 0.081-0.313 0.231-0.313 0.456 0 0.35 0.137 0.438 0.7 0.438 0.531 0 0.694-0.1 0.694-0.444 0-0.3-0.2-0.45-0.625-0.475-0.2-0.006-0.406 0-0.456 0.025z"></path>
<path fill="url(#gradient1)" d="M28.837 13.588c-0.3 0.131-0.375 0.469-0.15 0.713 0.113 0.119 0.2 0.137 0.594 0.137 0.425 0 0.469-0.012 0.587-0.162 0.15-0.194 0.163-0.269 0.063-0.488-0.125-0.269-0.694-0.375-1.094-0.2z"></path>
<path fill="url(#gradient1)" d="M27.944 16.475c-0.075 0.094-0.131 0.212-0.131 0.275 0 0.181 0.231 0.419 0.569 0.587 0.256 0.125 0.35 0.144 0.481 0.094 0.206-0.081 0.319-0.231 0.319-0.431 0-0.206-0.094-0.319-0.438-0.519-0.375-0.219-0.631-0.219-0.8-0.006z"></path>
<path fill="url(#gradient1)" d="M25.95 18.456c-0.075 0.081-0.137 0.212-0.137 0.3 0 0.231 0.356 0.8 0.544 0.875 0.231 0.087 0.488-0.031 0.587-0.262 0.063-0.156 0.056-0.225-0.044-0.438-0.256-0.581-0.663-0.781-0.95-0.475z"></path>
</svg>
