<!-- Generated by IcoMoon.io -->
<svg version="1.1" xmlns="http://www.w3.org/2000/svg" width="32" height="32" viewBox="0 0 32 32">
<path d="M15.5 1.825c-0.625 0.056-1.338 0.287-1.894 0.619-0.575 0.337-1.325 1.087-1.662 1.663-0.863 1.462-0.863 3.319 0.006 4.8 0.338 0.575 1.144 1.369 1.706 1.675 0.463 0.256 1.244 0.544 1.463 0.544 0.131 0 0.131 0.012 0.131 2.606 0 1.438 0.019 2.719 0.044 2.85 0.019 0.144 0.113 0.313 0.219 0.425 0.156 0.15 0.238 0.181 0.488 0.181s0.331-0.031 0.488-0.181c0.238-0.244 0.262-0.406 0.262-1.963v-1.294h4.556c4.288 0 4.563 0.006 4.594 0.106 0.113 0.406 1.356 7.531 1.325 7.569-0.025 0.025-0.556 0.044-1.181 0.038-0.962 0-1.212-0.025-1.637-0.137-0.669-0.181-1.319-0.512-1.619-0.819-0.244-0.25-0.25-0.256-0.288-0.863-0.050-0.725-0.175-1.038-0.569-1.481-0.681-0.769-2.35-1.781-3.031-1.837-0.313-0.025-0.35-0.012-0.556 0.194-0.188 0.188-0.219 0.262-0.219 0.506 0 0.387 0.206 0.6 0.831 0.85 0.506 0.212 1.387 0.8 1.788 1.2 0.231 0.225 0.238 0.25 0.275 0.781 0.025 0.3 0.069 0.656 0.106 0.781 0.169 0.6 0.85 1.256 1.781 1.706 1.031 0.506 2.425 0.725 3.825 0.6 0.431-0.038 0.794-0.063 0.8-0.056 0.012 0.012 0.256 1.325 0.544 2.925l0.525 2.906-3.844 0.019c-3.069 0.012-3.863 0-3.9-0.063-1.212-2.044-2.356-3.65-2.856-4.019-0.525-0.387-1.525-0.55-3.969-0.656-1.731-0.075-2.4-0.144-2.588-0.262-0.188-0.113-0.525-0.669-1.050-1.7-0.588-1.169-1.056-1.9-1.481-2.319-0.594-0.575-1.656-1.025-2.975-1.256-0.444-0.075-0.625-0.137-0.625-0.194 0-0.087 0.713-4.075 0.781-4.381l0.031-0.137h3.519c3.375 0 3.519-0.006 3.713-0.125 0.219-0.131 0.394-0.412 0.394-0.637 0-0.081-0.056-0.231-0.125-0.344-0.244-0.406-0.088-0.394-4.388-0.394-3.775 0-3.9 0.006-4.1 0.125-0.112 0.069-0.244 0.219-0.294 0.325-0.050 0.113-0.769 3.956-1.6 8.537-1.481 8.175-1.512 8.338-1.413 8.55 0.056 0.119 0.194 0.269 0.306 0.337 0.206 0.125 0.337 0.125 13.862 0.125s13.656 0 13.863-0.125c0.113-0.069 0.25-0.219 0.306-0.337 0.1-0.212 0.069-0.375-1.413-8.55-0.831-4.581-1.55-8.425-1.6-8.537-0.050-0.106-0.181-0.256-0.294-0.325-0.2-0.119-0.325-0.125-5.156-0.125h-4.956v-0.563c0-0.525 0.006-0.563 0.131-0.563 0.219 0 1-0.287 1.462-0.544 0.563-0.306 1.369-1.1 1.706-1.675 0.688-1.175 0.837-2.569 0.419-3.888-0.2-0.625-0.525-1.181-1.019-1.712-1.025-1.113-2.406-1.631-3.95-1.481zM16.375 4.406c0.269 0.138 0.375 0.331 0.375 0.675 0 0.412-0.269 0.7-0.719 0.769-0.206 0.031-0.363 0.1-0.475 0.206-0.106 0.112-0.175 0.269-0.206 0.475-0.069 0.45-0.356 0.719-0.769 0.719-0.506 0-0.769-0.294-0.769-0.869 0-0.756 0.631-1.644 1.375-1.931 0.406-0.156 0.931-0.175 1.188-0.044zM5.75 19.938c0.963 0.163 1.813 0.512 2.162 0.887 0.306 0.319 0.637 0.869 1.275 2.106 0.613 1.188 0.988 1.725 1.406 2.019 0.481 0.337 1.169 0.438 3.688 0.55 1.55 0.069 2.262 0.144 2.65 0.269 0.144 0.050 0.319 0.2 0.525 0.45 0.306 0.375 1.575 2.256 1.644 2.438 0.038 0.081-0.75 0.094-7.838 0.094-7.469 0-7.875-0.006-7.85-0.113 0.019-0.075 1.112-6.088 1.563-8.625 0.037-0.181 0.056-0.2 0.206-0.175 0.088 0.019 0.344 0.063 0.569 0.1z"></path>
</svg>
