<!-- Generated by IcoMoon.io -->
<svg version="1.1" xmlns="http://www.w3.org/2000/svg" width="32" height="32" viewBox="0 0 32 32">
<title>pizzaCard</title>
<linearGradient id="gradient1" x1="100%" y1="0%" x2="0%" y2="0%">
     <!-- <stop offset="0%" style="stop-color: #000000; stop-opacity: .9" />
    <stop offset="100%" style="stop-color: #000000; stop-opacity: .9" /> -->
       <stop offset="0%" style="stop-color: #999999; stop-opacity: .3" />
    <stop offset="100%" style="stop-color: #999999; stop-opacity: .3" />
  </linearGradient>
<path fill="url(#gradient1)"  d="M14.313 0.094c-1.444 0.156-2.825 0.5-4.162 1.031-1.119 0.438-1.512 0.669-1.744 1.013-0.175 0.269-0.206 0.281-0.537 0.313-0.444 0.044-0.588 0.119-1.481 0.794-3.563 2.7-5.869 6.831-6.275 11.231l-0.075 0.819 0.175 0.356 0.169 0.35-0.169 0.35-0.175 0.356 0.075 0.819c0.275 3.025 1.5 6.038 3.438 8.475 0.681 0.856 1.925 2.069 2.806 2.731 0.931 0.7 1.069 0.775 1.513 0.819 0.331 0.031 0.356 0.044 0.544 0.319 0.156 0.238 0.287 0.337 0.762 0.581 2.744 1.381 6.45 1.881 9.7 1.294 1.969-0.35 4.35-1.262 4.756-1.819 0.238-0.337 0.325-0.769 0.225-1.156-0.050-0.181-1.394-2.569-3.506-6.238-1.887-3.269-3.444-5.956-3.456-5.988-0.012-0.025 1.1-0.044 2.475-0.044h2.5l0.019 1.544c0.019 1.45 0.025 1.569 0.156 1.8 0.156 0.294 0.462 0.6 0.769 0.756 0.3 0.163 1.131 0.163 1.419 0.006 0.637-0.344 0.956-0.869 0.956-1.581 0-0.35 0.025-0.462 0.113-0.544 0.144-0.131 0.225-0.131 0.35-0.006 0.087 0.081 0.1 0.35 0.1 1.962v1.863l0.175 0.331c0.425 0.819 1.519 0.988 2.169 0.344 0.144-0.144 0.288-0.369 0.331-0.512 0.056-0.188 0.075-1.038 0.075-3.113v-2.85h0.994c1.163 0 1.575-0.063 1.913-0.3 0.325-0.225 0.594-0.738 0.594-1.144 0-0.363-0.156-1.606-0.288-2.244-0.794-3.938-3.206-7.619-6.506-9.919-0.494-0.344-0.769-0.45-1.144-0.456-0.188-0.006-0.244-0.044-0.406-0.294-0.225-0.35-0.6-0.569-1.719-1.012-2.425-0.956-5.088-1.319-7.625-1.038zM17.406 1c1.556 0.137 3.506 0.656 4.837 1.281 0.512 0.244 0.637 0.331 0.688 0.481 0.075 0.206 0.063 0.244-0.3 0.875l-0.275 0.481-0.444-0.3c-0.962-0.65-1.462-0.825-2.725-0.944-0.394-0.038-1.125-0.169-1.625-0.294-1.25-0.319-1.813-0.319-3.063 0-0.5 0.125-1.231 0.256-1.625 0.294-1.262 0.119-1.762 0.294-2.725 0.944l-0.444 0.3-0.294-0.519c-0.306-0.556-0.356-0.831-0.175-0.994 0.325-0.294 1.988-0.931 3.231-1.238 1.588-0.387 3.306-0.519 4.938-0.369zM17.344 3.5c0.413 0.1 1.006 0.219 1.313 0.25 1.181 0.138 1.469 0.188 1.794 0.313 0.375 0.138 1.4 0.819 1.381 0.912-0.006 0.050-5.744 10.019-5.794 10.069-0.006 0.006-0.512-0.869-1.131-1.938-0.619-1.075-1.188-2.012-1.262-2.094-0.181-0.181-0.425-0.175-0.625 0.025-0.113 0.113-0.15 0.206-0.131 0.325 0.012 0.094 0.525 1.031 1.131 2.088 0.613 1.056 1.125 1.963 1.144 2.019 0.037 0.081-0.581 0.094-5.794 0.081l-5.838-0.019-0.056-0.7c-0.063-0.881 0.019-1.287 0.462-2.275 0.175-0.394 0.45-1.137 0.606-1.65 0.156-0.519 0.356-1.075 0.444-1.244 0.094-0.175 0.469-0.625 0.831-1 0.362-0.381 0.9-1.019 1.188-1.412 0.294-0.394 0.662-0.831 0.819-0.975 0.25-0.219 1.387-0.844 1.531-0.838 0.025 0 0.588 0.938 1.238 2.075 0.656 1.144 1.244 2.144 1.319 2.231 0.156 0.188 0.463 0.206 0.65 0.037 0.262-0.238 0.194-0.4-1.1-2.631-0.669-1.162-1.225-2.144-1.231-2.175s0.244-0.231 0.563-0.45c0.694-0.475 1.113-0.612 2.119-0.712 0.406-0.038 1-0.131 1.306-0.2 0.313-0.069 0.787-0.181 1.063-0.244 0.631-0.144 1.069-0.119 2.063 0.131zM8.244 3.544c0.162 0.169 0.662 1.013 0.619 1.044-0.006 0.013-0.313 0.169-0.662 0.35-0.806 0.412-1.237 0.8-1.944 1.75-0.287 0.394-0.831 1.031-1.2 1.419-0.8 0.844-1.063 1.313-1.394 2.469-0.125 0.444-0.381 1.144-0.563 1.563-0.538 1.213-0.569 1.369-0.556 2.469l0.013 0.956h-0.481c-0.969 0-1.119-0.131-1.044-0.919 0.375-4.188 2.581-8.131 5.975-10.7 0.838-0.631 0.963-0.669 1.238-0.4zM24.669 3.663c2.837 1.937 5.081 5.194 5.956 8.631 0.281 1.125 0.494 2.606 0.413 2.925-0.063 0.238-0.369 0.344-1.012 0.344h-0.538l0.044-0.8c0.056-1-0.031-1.419-0.538-2.563-0.2-0.456-0.462-1.175-0.581-1.594-0.375-1.313-0.531-1.6-1.475-2.575-0.331-0.344-0.844-0.95-1.137-1.35-0.788-1.069-1.069-1.319-2.050-1.806-0.294-0.144-0.544-0.275-0.55-0.281-0.044-0.044 0.456-0.881 0.619-1.050 0.094-0.094 0.231-0.169 0.3-0.169s0.313 0.131 0.55 0.288zM23.344 5.719c0.744 0.369 1.056 0.644 1.712 1.531 0.288 0.394 0.831 1.037 1.206 1.425 0.775 0.819 0.938 1.1 1.269 2.262 0.125 0.431 0.369 1.1 0.544 1.494 0.169 0.394 0.35 0.825 0.4 0.969 0.125 0.344 0.169 1.025 0.106 1.631l-0.050 0.5-0.356 0.019c-0.3 0.012-0.381 0.044-0.488 0.181-0.125 0.156-0.125 0.238-0.125 3.306s-0.006 3.156-0.125 3.275c-0.163 0.163-0.425 0.156-0.606-0.012l-0.144-0.131v-1.887c0-1.825-0.006-1.887-0.137-2.156-0.188-0.363-0.55-0.619-0.956-0.663-0.262-0.031-0.369-0.006-0.656 0.144-0.456 0.231-0.688 0.656-0.688 1.25 0 0.469-0.113 0.725-0.375 0.863-0.356 0.181-0.744 0.087-0.938-0.231-0.113-0.188-0.125-0.319-0.125-1.6v-1.387h1.744c1.794 0 2.075-0.031 2.194-0.25 0.1-0.188 0.075-0.425-0.063-0.563-0.125-0.125-0.206-0.125-4.969-0.125-2.663 0-4.844-0.019-4.844-0.044 0-0.088 5.781-10.075 5.838-10.081 0.031 0 0.313 0.125 0.631 0.281zM2.544 17.419c-0.013 1.069 0.025 1.238 0.556 2.444 0.181 0.419 0.438 1.119 0.563 1.563 0.331 1.156 0.594 1.625 1.394 2.469 0.369 0.387 0.912 1.025 1.2 1.419 0.713 0.956 1.144 1.344 1.962 1.756 0.431 0.225 0.644 0.363 0.625 0.419-0.1 0.262-0.563 0.969-0.688 1.050-0.219 0.144-0.375 0.081-1-0.375-2.331-1.719-4.106-4.044-5.188-6.788-0.456-1.163-0.844-2.844-0.938-4.063-0.037-0.488-0.031-0.544 0.087-0.675 0.125-0.125 0.194-0.137 0.781-0.137h0.65l-0.006 0.919zM14.988 16.863c-1.387 2.456-5.594 9.694-5.631 9.7-0.144 0.006-1.281-0.619-1.531-0.837-0.156-0.144-0.525-0.581-0.819-0.975-0.287-0.394-0.825-1.031-1.188-1.413-0.362-0.375-0.737-0.825-0.831-1-0.088-0.169-0.287-0.731-0.444-1.244-0.156-0.519-0.425-1.256-0.606-1.644-0.438-0.981-0.519-1.369-0.469-2.25l0.044-0.7h11.681l-0.206 0.363zM18.938 21.962c1.587 2.75 2.887 5.031 2.894 5.063 0.025 0.119-1.131 0.844-1.544 0.969-0.219 0.069-0.738 0.156-1.15 0.194-0.419 0.044-0.994 0.131-1.275 0.194-1.881 0.438-1.881 0.438-3.125 0.125-1.131-0.281-1.194-0.288-1.394-0.113-0.2 0.169-0.238 0.488-0.081 0.644 0.050 0.050 0.556 0.206 1.119 0.35 1.387 0.35 1.906 0.356 3.181 0.031 0.5-0.125 1.231-0.256 1.625-0.294 1.262-0.119 1.762-0.294 2.725-0.938l0.438-0.3 0.3 0.506c0.313 0.531 0.369 0.775 0.219 0.956-0.225 0.281-1.962 0.956-3.256 1.275-1.325 0.325-2.006 0.4-3.581 0.4s-2.256-0.075-3.581-0.4c-1.225-0.3-2.887-0.938-3.213-1.231-0.181-0.163-0.131-0.438 0.175-0.994l0.294-0.519 0.444 0.3c0.55 0.369 1.175 0.694 1.35 0.694 0.344 0 0.563-0.325 0.431-0.637-0.050-0.125-0.181-0.231-0.456-0.356-0.206-0.106-0.588-0.331-0.838-0.506l-0.45-0.319 0.169-0.294c3.194-5.537 5.675-9.813 5.681-9.806s1.313 2.262 2.9 5.006z"></path>
<path fill="url(#gradient1)" d="M13.531 4.006c-0.637 0.219-1.094 0.644-1.387 1.287-0.144 0.306-0.175 0.45-0.175 0.9 0 0.494 0.019 0.569 0.238 1.006 0.394 0.806 1.037 1.238 1.925 1.287 0.806 0.044 1.488-0.25 1.975-0.869 0.475-0.606 0.613-1.531 0.337-2.263-0.438-1.125-1.781-1.75-2.912-1.35zM14.8 4.912c0.856 0.356 1.125 1.45 0.525 2.15-0.787 0.919-2.263 0.494-2.425-0.7-0.081-0.575 0.294-1.212 0.85-1.45 0.287-0.125 0.756-0.125 1.050 0z"></path>
<path fill="url(#gradient1)" d="M18.844 4.381c-0.1 0.025-0.294 0.138-0.425 0.25-0.538 0.444-0.681 1.206-0.325 1.781 0.275 0.444 0.681 0.675 1.175 0.675 0.619-0.006 1.031-0.275 1.288-0.838 0.244-0.537 0.137-1.069-0.3-1.506-0.387-0.394-0.881-0.519-1.413-0.362zM19.594 5.406c0.25 0.244 0.181 0.606-0.137 0.725-0.3 0.112-0.644-0.144-0.644-0.481 0-0.15 0.294-0.4 0.469-0.4 0.087 0 0.231 0.069 0.313 0.156z"></path>
<path fill="url(#gradient1)" d="M8.569 6.7c-0.569 0.1-1.025 0.588-1.106 1.188-0.106 0.794 0.569 1.55 1.381 1.55s1.488-0.756 1.381-1.55c-0.113-0.806-0.844-1.331-1.656-1.188zM9.15 7.725c0.287 0.281 0.119 0.725-0.287 0.762-0.181 0.012-0.25-0.012-0.356-0.15-0.162-0.213-0.169-0.338 0-0.55 0.15-0.188 0.488-0.225 0.644-0.063z"></path>
<path fill="url(#gradient1)" d="M15.6 9.525c-0.481 0.181-0.787 0.519-0.919 1-0.225 0.825 0.481 1.725 1.35 1.725 0.738 0 1.413-0.694 1.406-1.444 0-0.25-0.2-0.713-0.394-0.919-0.337-0.363-0.994-0.525-1.444-0.363zM16.344 10.531c0.087 0.081 0.156 0.225 0.156 0.313s-0.069 0.231-0.156 0.313c-0.081 0.088-0.225 0.156-0.313 0.156-0.194 0-0.469-0.256-0.469-0.438 0-0.431 0.481-0.644 0.781-0.344z"></path>
<path fill="url(#gradient1)" d="M9.675 10.269c-0.644 0.244-1.137 0.688-1.419 1.287-0.137 0.3-0.162 0.431-0.162 0.944s0.025 0.644 0.169 0.95c0.213 0.463 0.7 0.95 1.162 1.162 0.306 0.144 0.438 0.169 0.95 0.169s0.644-0.025 0.95-0.169c0.463-0.213 0.95-0.7 1.162-1.162 0.144-0.306 0.169-0.438 0.169-0.95s-0.025-0.644-0.169-0.95c-0.219-0.475-0.65-0.925-1.094-1.144-0.3-0.15-0.456-0.181-0.925-0.2-0.369-0.012-0.644 0.006-0.794 0.063zM11.119 11.331c0.844 0.556 0.838 1.794-0.012 2.319-0.762 0.469-1.756 0.125-2.037-0.706-0.219-0.662 0.094-1.412 0.713-1.706 0.375-0.175 0.994-0.131 1.338 0.094z"></path>
<path fill="url(#gradient1)" d="M5.019 12.438c-1.031 0.525-1.031 1.975-0.006 2.506 0.3 0.156 0.869 0.156 1.206 0 0.969-0.438 1.056-1.825 0.15-2.425-0.362-0.238-0.969-0.275-1.35-0.081zM5.938 13.375c0.15 0.15 0.162 0.419 0.025 0.613-0.069 0.1-0.156 0.137-0.319 0.137-0.294 0-0.456-0.15-0.456-0.419 0-0.262 0.188-0.456 0.438-0.456 0.106 0 0.244 0.056 0.313 0.125z"></path>
<path fill="url(#gradient1)" d="M22.781 7.231c-0.512 0.269-0.781 0.706-0.781 1.269 0 0.806 0.569 1.375 1.387 1.375 0.781 0 1.363-0.606 1.363-1.431 0-0.487-0.331-0.994-0.781-1.2-0.313-0.144-0.925-0.15-1.188-0.013zM23.688 8.188c0.262 0.262 0.075 0.75-0.3 0.75-0.281 0-0.45-0.162-0.45-0.419 0-0.125 0.044-0.281 0.106-0.344 0.137-0.15 0.481-0.15 0.644 0.012z"></path>
<path fill="url(#gradient1)" d="M24.119 10.456c-0.637 0.269-1.019 0.631-1.3 1.231-0.137 0.294-0.163 0.425-0.163 0.938 0.006 0.525 0.025 0.637 0.188 0.969 0.231 0.475 0.65 0.894 1.125 1.125 0.331 0.162 0.444 0.181 0.969 0.188 0.512 0 0.644-0.025 0.95-0.169 0.494-0.231 0.887-0.613 1.131-1.106 0.188-0.381 0.2-0.456 0.2-1.037 0-0.563-0.019-0.662-0.181-0.975-0.219-0.444-0.65-0.869-1.1-1.094-0.281-0.144-0.444-0.181-0.906-0.194-0.481-0.019-0.613 0-0.913 0.125zM25.531 11.369c0.306 0.137 0.619 0.481 0.719 0.787 0.125 0.381 0.056 0.925-0.163 1.238-0.331 0.475-1.063 0.731-1.569 0.537-0.731-0.275-1.106-1.012-0.887-1.75 0.231-0.75 1.156-1.15 1.9-0.813z"></path>
<path fill="url(#gradient1)" d="M19.769 12.063c-1.056 0.537-1.019 2.081 0.056 2.525 0.313 0.131 0.837 0.125 1.144-0.019 0.969-0.438 1.056-1.825 0.15-2.425-0.363-0.238-0.969-0.275-1.35-0.081zM20.688 13c0.15 0.15 0.163 0.481 0.019 0.637-0.15 0.169-0.544 0.15-0.669-0.025-0.225-0.319-0.031-0.738 0.337-0.738 0.106 0 0.244 0.056 0.313 0.125z"></path>
<path fill="url(#gradient1)" d="M10.55 16.775c-0.469 0.169-0.769 0.475-0.919 0.906-0.287 0.863 0.412 1.819 1.331 1.819 1.056 0 1.738-1.212 1.188-2.106-0.338-0.544-1.056-0.825-1.6-0.619zM11.15 17.694c0.081 0.044 0.188 0.15 0.225 0.25 0.15 0.363-0.231 0.731-0.594 0.569-0.338-0.156-0.356-0.644-0.031-0.806 0.194-0.1 0.206-0.1 0.4-0.012z"></path>
<path fill="url(#gradient1)" d="M5.537 17.462c-1.019 0.375-1.294 1.55-0.544 2.294 0.438 0.438 0.969 0.544 1.506 0.3 0.563-0.256 0.831-0.669 0.838-1.288 0-0.319-0.031-0.438-0.188-0.688-0.344-0.556-1.050-0.825-1.612-0.619zM6.15 18.381c0.444 0.206 0.281 0.869-0.213 0.869-0.181 0-0.438-0.275-0.438-0.469 0-0.175 0.25-0.469 0.4-0.469 0.050 0 0.162 0.031 0.25 0.069z"></path>
<path fill="url(#gradient1)" d="M8.069 19.869c-0.794 0.3-1.338 0.95-1.506 1.806-0.194 0.969 0.362 2.031 1.306 2.5 0.313 0.15 0.419 0.169 0.975 0.169s0.662-0.019 0.981-0.175c0.944-0.462 1.494-1.519 1.3-2.494-0.15-0.775-0.606-1.381-1.294-1.712-0.475-0.238-1.262-0.275-1.762-0.094zM9.406 20.806c0.838 0.381 1.081 1.438 0.481 2.131-0.569 0.669-1.519 0.669-2.088 0-0.45-0.525-0.45-1.225 0-1.75 0.406-0.475 1.063-0.631 1.606-0.381z"></path>
<path fill="url(#gradient1)" d="M15.531 19.344c-0.144 0.050-0.363 0.206-0.506 0.369-0.594 0.644-0.481 1.594 0.238 2.075 0.5 0.337 1.037 0.337 1.537 0 0.744-0.5 0.837-1.456 0.206-2.106-0.406-0.419-0.913-0.538-1.475-0.337zM16.344 20.344c0.244 0.244 0.2 0.538-0.106 0.694-0.15 0.075-0.225 0.081-0.363 0.025-0.169-0.069-0.313-0.288-0.313-0.475 0-0.15 0.294-0.4 0.469-0.4 0.087 0 0.231 0.069 0.313 0.156z"></path>
<path fill="url(#gradient1)" d="M14.094 22.744c-1.125 0.3-1.856 1.319-1.762 2.444 0.069 0.825 0.544 1.525 1.281 1.887 0.387 0.194 0.463 0.206 1.044 0.206 0.556 0 0.662-0.019 0.975-0.175 0.419-0.2 0.944-0.738 1.138-1.15 0.113-0.25 0.137-0.413 0.137-0.956 0-0.625-0.006-0.675-0.212-1.050-0.419-0.769-1.106-1.206-1.944-1.238-0.256-0.012-0.55 0.006-0.656 0.031zM15.069 23.694c0.981 0.3 1.263 1.663 0.475 2.35-0.294 0.256-0.6 0.35-1.050 0.319-0.494-0.038-0.838-0.269-1.069-0.731-0.563-1.106 0.444-2.294 1.644-1.938z"></path>
<path fill="url(#gradient1)" d="M18.462 24.675c-0.581 0.275-0.925 0.962-0.775 1.575 0.094 0.4 0.469 0.831 0.844 0.969 0.419 0.163 0.956 0.106 1.294-0.131 0.344-0.244 0.613-0.744 0.613-1.15s-0.269-0.906-0.613-1.156c-0.35-0.238-0.962-0.288-1.363-0.106zM19.375 25.637c0.262 0.288 0.050 0.738-0.35 0.738-0.219 0-0.462-0.231-0.462-0.438 0-0.063 0.056-0.181 0.131-0.275 0.169-0.212 0.494-0.225 0.681-0.025z"></path>
</svg>
