<!-- Generated by IcoMoon.io -->
<svg version="1.1" xmlns="http://www.w3.org/2000/svg" width="32" height="32" viewBox="0 0 32 32">
<path fill="none" stroke-linejoin="round" stroke-linecap="butt" stroke-miterlimit="4" stroke-width="2" stroke="#000" d="M2 8.667c0-3.682 2.985-6.667 6.667-6.667h0.379c0.837 0 1.554 0.514 1.852 1.244l0.005 0.013 1.644 4.109c0.121 0.293 0.191 0.634 0.191 0.991 0 0.736-0.298 1.403-0.781 1.885l-2.051 2.051c-0.329 0.329-0.467 0.807-0.332 1.252 1.329 4.261 4.619 7.551 8.785 8.854l0.095 0.026c0.445 0.135 0.923-0.003 1.252-0.332l2.051-2.051c0.483-0.482 1.149-0.781 1.885-0.781 0.357 0 0.697 0.070 1.008 0.197l-0.018-0.006 4.11 1.644c0.743 0.303 1.257 1.020 1.257 1.857v0.38c0 3.682-2.985 6.667-6.667 6.667h-0.333c-11.407 0-20.689-9.095-20.993-20.428 0-0.003-0.001-0.007-0.003-0.009s-0.004-0.005-0.004-0.009v0-0.888z"></path>
</svg>
