<?xml version="1.0" encoding="UTF-8"?>
<!DOCTYPE svg PUBLIC "-//W3C//DTD SVG 1.1//EN" "http://www.w3.org/Graphics/SVG/1.1/DTD/svg11.dtd">
<svg xmlns="http://www.w3.org/2000/svg" version="1.1" width="512px" height="512px" style="shape-rendering:geometricPrecision; text-rendering:geometricPrecision; image-rendering:optimizeQuality; fill-rule:evenodd; clip-rule:evenodd" xmlns:xlink="http://www.w3.org/1999/xlink">
<linearGradient id="gradient1" x1="100%" y1="0%" x2="0%" y2="0%">
 <!-- <stop offset="0%" style="stop-color: #5e2000; stop-opacity: 1" />
    <stop offset="100%" style="stop-color: #5e2000; stop-opacity: .3" /> -->
         <stop offset="0%" style="stop-color: #450000; stop-opacity: .4" />
    <stop offset="100%" style="stop-color: #450000; stop-opacity: .4" />
  </linearGradient>
<path fill="url(#gradient1)" d="M 212.5,-0.5 C 215.833,-0.5 219.167,-0.5 222.5,-0.5C 233.793,9.72752 241.293,22.3942 245,37.5C 252.343,74.1523 241.176,103.652 211.5,126C 181.902,143.228 151.902,143.895 121.5,128C 116.387,124.887 111.887,121.054 108,116.5C 106,112.167 106,107.833 108,103.5C 125.138,85.3617 142.638,67.5284 160.5,50C 165.736,46.6301 170.236,47.4634 174,52.5C 174.755,55.3033 174.422,57.9699 173,60.5C 157,76.5 141,92.5 125,108.5C 124.333,109.167 124.333,109.833 125,110.5C 147.725,125.679 171.559,127.513 196.5,116C 226.002,97.1821 236.502,70.6821 228,36.5C 225.363,29.2227 221.696,22.556 217,16.5C 209.833,23.6667 202.667,30.8333 195.5,38C 184.56,38.9506 181.393,34.4506 186,24.5C 194.427,15.5683 203.26,7.23493 212.5,-0.5 Z"/>
<path fill="url(#gradient1) " d="M 335.5,-0.5 C 339.5,-0.5 343.5,-0.5 347.5,-0.5C 373.781,7.38572 387.614,25.0524 389,52.5C 387.833,56.3333 385.333,58.8333 381.5,60C 363.439,65.2235 345.273,70.0568 327,74.5C 317.029,72.5723 313.029,66.5723 315,56.5C 319.511,39.456 324.178,22.456 329,5.5C 331.063,3.26589 333.229,1.26589 335.5,-0.5 Z M 342.5,15.5 C 359.33,19.3289 369.33,29.6622 372.5,46.5C 358.851,49.9999 345.184,53.1665 331.5,56C 335.71,42.6625 339.376,29.1625 342.5,15.5 Z"/>
<path fill="url(#gradient1) " d="M 196.5,51.5 C 202.509,51.3338 208.509,51.5005 214.5,52C 220.194,57.8623 219.527,62.8623 212.5,67C 206.747,67.8508 201.08,67.5174 195.5,66C 191.285,60.7195 191.618,55.8862 196.5,51.5 Z"/>
<path fill="url(#gradient1) " d="M 329.5,511.5 C 277.5,511.5 225.5,511.5 173.5,511.5C 99.6943,478.487 56.5276,421.82 44,341.5C 43.6926,336.643 43.1926,331.81 42.5,327C 43.0607,318.87 47.0607,313.204 54.5,310C 62.1667,309.667 69.8333,309.333 77.5,309C 73.7388,303.46 72.0721,297.293 72.5,290.5C 72.1415,285.221 73.1415,280.221 75.5,275.5C 43.7263,249.807 35.893,218.141 52,180.5C 70.9831,150.266 98.1498,138.432 133.5,145C 142.446,147.89 150.946,151.724 159,156.5C 175.966,150.523 192.466,151.689 208.5,160C 213.943,163.135 219.11,166.635 224,170.5C 229.457,162.71 236.457,156.71 245,152.5C 238.467,121.3 245.134,93.3005 265,68.5C 270.28,64.2449 276.114,63.4115 282.5,66C 294.347,78.0142 306.347,89.8475 318.5,101.5C 343.318,79.7959 370.984,75.2959 401.5,88C 407.368,91.0402 408.868,95.5402 406,101.5C 403.507,103.672 400.674,104.506 397.5,104C 372.903,92.1091 350.57,95.2758 330.5,113.5C 332.483,115.984 334.65,118.317 337,120.5C 351.61,106.777 368.443,103.277 387.5,110C 402.674,117.159 412.007,128.992 415.5,145.5C 418.784,146.657 422.118,146.824 425.5,146C 423.485,137.14 420.485,128.64 416.5,120.5C 417.469,114.017 421.135,111.517 427.5,113C 431.65,115.776 434.484,119.609 436,124.5C 439.018,132.925 441.018,141.591 442,150.5C 455.591,157.319 463.591,168.319 466,183.5C 467.968,203.928 462.135,221.761 448.5,237C 468.934,249.944 473.1,266.778 461,287.5C 452.061,296.889 441.228,303.056 428.5,306C 427.663,307.011 427.33,308.178 427.5,309.5C 455.409,305.271 465.909,316.938 459,344.5C 445.911,423.727 402.744,479.393 329.5,511.5 Z M 274.5,82.5 C 296.249,102.747 317.582,123.58 338.5,145C 330.919,147.91 324.419,152.41 319,158.5C 313.509,167.151 308.842,176.151 305,185.5C 300.539,184.753 296.039,184.253 291.5,184C 287.524,171.703 280.191,162.036 269.5,155C 264.862,154.446 262.029,151.946 261,147.5C 255.72,123.729 260.22,102.063 274.5,82.5 Z M 365.5,122.5 C 381.034,121.677 391.867,128.344 398,142.5C 399.19,145.194 399.356,147.861 398.5,150.5C 391.247,153.372 384.747,157.372 379,162.5C 368.833,152.333 358.667,142.167 348.5,132C 353.383,127.23 359.05,124.063 365.5,122.5 Z M 111.5,158.5 C 123.27,158.359 134.27,161.193 144.5,167C 142.66,169.669 140.66,172.169 138.5,174.5C 113.24,163.047 92.4064,168.38 76,190.5C 64.5779,213.301 68.0779,233.468 86.5,251C 89.1667,252.667 91.8333,254.333 94.5,256C 91.9054,258.213 89.0721,260.047 86,261.5C 65.4496,247.537 57.1163,228.204 61,203.5C 68.0067,177.32 84.8401,162.32 111.5,158.5 Z M 344.5,160.5 C 349.894,161.114 354.394,163.447 358,167.5C 361.708,173.751 365.541,179.917 369.5,186C 372.964,186.817 376.298,186.483 379.5,185C 393.496,166.225 411.83,159.558 434.5,165C 445.478,170.618 450.811,179.618 450.5,192C 449.405,209.36 441.905,223.193 428,233.5C 425.598,238.114 426.098,242.281 429.5,246C 436.443,248.614 442.609,252.447 448,257.5C 450.312,260.457 451.812,263.791 452.5,267.5C 450.626,275.543 445.96,281.376 438.5,285C 429.558,289.235 420.225,292.235 410.5,294C 408.556,295.722 407.556,297.889 407.5,300.5C 408.399,303.588 409.233,306.588 410,309.5C 394.167,293.667 378.333,277.833 362.5,262C 376.667,247.833 390.833,233.667 405,219.5C 407.587,214.587 406.753,210.42 402.5,207C 399.366,206.21 396.366,206.543 393.5,208C 379.333,222.167 365.167,236.333 351,250.5C 339.833,239.333 328.667,228.167 317.5,217C 309.26,210.689 301.76,211.522 295,219.5C 290.24,225.768 286.073,232.434 282.5,239.5C 277.081,228.076 277.248,216.743 283,205.5C 285.984,202.168 289.651,200.168 294,199.5C 299.483,200.328 304.65,202.162 309.5,205C 314.274,206.361 317.774,204.861 320,200.5C 321.113,186.806 326.279,174.972 335.5,165C 338.324,162.921 341.324,161.421 344.5,160.5 Z M 268.5,251.5 C 258.315,247.121 247.648,244.621 236.5,244C 226.5,234 216.5,224 206.5,214C 195.964,211.203 192.13,215.036 195,225.5C 202.167,232.667 209.333,239.833 216.5,247C 192.733,255.101 176.566,270.934 168,294.5C 159.653,291.502 153.319,286.169 149,278.5C 147.561,270.205 150.394,263.705 157.5,259C 161.888,256.139 166.554,253.806 171.5,252C 173.429,248.744 173.929,245.244 173,241.5C 162.483,232.99 155.15,222.323 151,209.5C 146.13,192.431 151.297,179.597 166.5,171C 189.123,166.469 207.457,173.469 221.5,192C 225.694,194.158 229.528,193.658 233,190.5C 235.878,181.631 241.044,174.465 248.5,169C 257.747,166.368 264.914,169.201 270,177.5C 272.499,180.998 274.332,184.832 275.5,189C 264.089,202.143 260.256,217.309 264,234.5C 265.35,240.235 266.85,245.902 268.5,251.5 Z M 110.5,184.5 C 118.499,183.833 125.832,185.666 132.5,190C 133.76,191.814 133.76,193.647 132.5,195.5C 117.694,196.825 107.194,204.159 101,217.5C 99.0185,224.367 97.6852,231.367 97,238.5C 82.2848,223.43 81.7848,207.93 95.5,192C 100.045,188.394 105.045,185.894 110.5,184.5 Z M 131.5,211.5 C 132.833,211.5 134.167,211.5 135.5,211.5C 138.173,223.512 143.506,234.178 151.5,243.5C 131.406,256.269 127.239,272.936 139,293.5C 145.146,300.648 152.646,305.815 161.5,309C 140.167,309.667 118.833,309.667 97.5,309C 86.3345,298.2 85.6678,286.867 95.5,275C 101.647,270.096 108.647,267.096 116.5,266C 118.788,264.041 120.121,261.541 120.5,258.5C 114.593,248.473 112.76,237.807 115,226.5C 118.206,218.786 123.706,213.786 131.5,211.5 Z M 307.5,230.5 C 313.146,235.479 318.479,240.812 323.5,246.5C 314.091,261.795 311.924,278.128 317,295.5C 319.12,300.242 321.62,304.742 324.5,309C 319.136,309.829 313.802,309.663 308.5,308.5C 306.536,294.245 301.036,281.579 292,270.5C 292.741,255.442 297.908,242.109 307.5,230.5 Z M 335.5,258.5 C 351.799,274.298 367.965,290.298 384,306.5C 384.688,307.332 384.521,307.998 383.5,308.5C 372.213,309.645 360.88,309.811 349.5,309C 332.902,298.88 327.069,284.38 332,265.5C 333.18,263.14 334.347,260.807 335.5,258.5 Z M 229.5,260.5 C 259.285,259.465 279.451,272.798 290,300.5C 290.953,303.432 291.453,306.432 291.5,309.5C 288.428,309.817 285.428,309.484 282.5,308.5C 272.934,277.457 252.268,265.624 220.5,273C 203.794,279.579 194.128,291.746 191.5,309.5C 188.167,309.5 184.833,309.5 181.5,309.5C 186.786,282.548 202.786,266.215 229.5,260.5 Z M 230.5,286.5 C 248.409,284.939 260.075,292.606 265.5,309.5C 246.155,309.833 226.822,309.5 207.5,308.5C 211.322,297.009 218.988,289.675 230.5,286.5 Z M 60.5,324.5 C 187.834,324.333 315.167,324.5 442.5,325C 443.684,326.18 444.351,327.68 444.5,329.5C 443.817,338.283 442.484,346.95 440.5,355.5C 415.84,356.333 391.173,356.833 366.5,357C 361.177,361.714 361.177,366.38 366.5,371C 389.831,371.5 413.164,371.667 436.5,371.5C 418.147,431.019 380.147,472.519 322.5,496C 275.167,496.667 227.833,496.667 180.5,496C 130.875,476.042 95.3749,441.542 74,392.5C 71.4916,385.639 68.9916,378.806 66.5,372C 157.167,371.667 247.833,371.333 338.5,371C 343.743,366.412 343.743,361.745 338.5,357C 246.501,356.5 154.501,356.333 62.5,356.5C 60.978,346.847 59.6447,337.18 58.5,327.5C 59.1925,326.482 59.8592,325.482 60.5,324.5 Z"/>
<path fill="url(#gradient1) " d="M 185.5,75.5 C 188.649,75.2114 191.649,75.7114 194.5,77C 197.333,79.8333 200.167,82.6667 203,85.5C 206.215,94.5799 203.048,98.7466 193.5,98C 189.701,95.2031 186.201,92.0364 183,88.5C 180.606,83.5272 181.44,79.1938 185.5,75.5 Z"/>
<path fill="url(#gradient1) " d="M 162.5,84.5 C 166.794,84.1975 169.961,85.8642 172,89.5C 172.667,95.1667 172.667,100.833 172,106.5C 169.089,110.277 165.256,111.444 160.5,110C 158.951,108.786 157.785,107.286 157,105.5C 156.333,100.5 156.333,95.5 157,90.5C 158.021,87.6499 159.854,85.6499 162.5,84.5 Z"/>
<path fill="url(#gradient1) " d="M 280.5,120.5 C 286.925,120.13 293.258,120.63 299.5,122C 303.677,126.954 303.343,131.62 298.5,136C 292.167,136.667 285.833,136.667 279.5,136C 275.723,133.089 274.556,129.256 276,124.5C 277.397,122.93 278.897,121.596 280.5,120.5 Z"/>
<path fill="url(#gradient1) " d="M 301.5,148.5 C 311.9,148.306 315.067,152.973 311,162.5C 307.749,166.422 303.916,169.588 299.5,172C 291.292,172.452 288.125,168.619 290,160.5C 293.364,155.971 297.197,151.971 301.5,148.5 Z"/>
</svg>
