<!-- Generated by IcoMoon.io -->
<svg version="1.1" xmlns="http://www.w3.org/2000/svg" width="32" height="32" viewBox="0 0 32 32">
<title>saucesCard</title>
<linearGradient id="gradient1" x1="100%" y1="0%" x2="0%" y2="0%">
         <stop offset="0%" style="stop-color: #450000; stop-opacity: .6" />
    <stop offset="100%" style="stop-color: #450000; stop-opacity: .6" />
  </linearGradient>
<path fill="url(#gradient1)" d="M5.219-0.031c-0.103 0.051-0.176 0.134-0.219 0.25-0.042 0.833-0.042 1.667 0 2.5 0.031 0.115 0.104 0.188 0.219 0.219-0.265 0.604-0.505 1.218-0.719 1.844-0.042 1.333-0.042 2.667 0 4 0.103 0.329 0.217 0.652 0.344 0.969-1.378 1.149-2.774 2.274-4.188 3.375-0.304 0.369-0.533 0.775-0.688 1.219 0 4.938 0 9.875 0 14.813 0.122 0.432 0.299 0.849 0.531 1.25 0.566 0.805 1.326 1.326 2.281 1.563 3.458 0 6.917 0 10.375 0 1.499-0.364 2.426-1.301 2.781-2.813 0.021 0.854 0.042 1.708 0.063 2.563 0.043 0.116 0.116 0.199 0.219 0.25 1.75 0 3.5 0 5.25 0 0-0.333 0-0.667 0-1-1.5 0-3 0-4.5 0 0-0.167 0-0.333 0-0.5 0.833 0 1.667 0 2.5 0 0-0.333 0-0.667 0-1-0.833 0-1.667 0-2.5 0 0-0.167 0-0.333 0-0.5 1.5 0 3 0 4.5 0 0-0.333 0-0.667 0-1-1.5 0-3 0-4.5 0-0.169-1.161-0.69-2.129-1.563-2.906 1.851 0.373 3.726 0.508 5.625 0.406-0.016-0.355-0.037-0.709-0.063-1.063-0.513-0.018-1.023 0.003-1.531 0.063-1.48-0.007-2.928-0.225-4.344-0.656-0.211-0.084-0.398-0.199-0.563-0.344 0.266-0.71 0.464-1.439 0.594-2.188 0.473-3.425 0.587-6.862 0.344-10.313-0.090-0.894 0.264-1.53 1.063-1.906 1.811-0.101 3.623-0.121 5.438-0.063 1.092 0.187 1.592 0.844 1.5 1.969 0.333 0 0.667 0 1 0 0.010-0.355-0-0.709-0.031-1.063-0.26-1.010-0.896-1.646-1.906-1.906-2.042-0.042-4.083-0.042-6.125 0-1.010 0.26-1.646 0.896-1.906 1.906-0.036 1.615-0.026 3.229 0.031 4.844 0.011 2.255-0.166 4.495-0.531 6.719-0.002-1.607-0.044-3.211-0.125-4.813-0.319-0.882-0.934-1.434-1.844-1.656-2.795-0.061-5.586-0.040-8.375 0.063-0.299 0.097-0.57 0.243-0.813 0.438-0.818 0.822-1.11 1.811-0.875 2.969 0.333 0 0.667 0 1 0-0.010-0.334 0-0.667 0.031-1 0.057-0.681 0.4-1.15 1.031-1.406 1.311-0.070 2.623-0.102 3.938-0.094 1.314-0.008 2.627 0.023 3.938 0.094 0.495 0.183 0.818 0.527 0.969 1.031 0.071 1.456 0.102 2.915 0.094 4.375-0.010 1.333-0.021 2.667-0.031 4-0.115 0.865-0.604 1.354-1.469 1.469-2.333 0.042-4.667 0.042-7 0-0.885-0.094-1.375-0.583-1.469-1.469-0.031-1.333-0.042-2.666-0.031-4-0.333 0-0.667 0-1 0-0.010 2.417 0 4.833 0.031 7.25 0.177 0.51 0.521 0.854 1.031 1.031 1.054 0.2 2.117 0.262 3.188 0.188 0.292-0.146 0.583-0.292 0.875-0.438 0.583-0.042 1.167-0.042 1.75 0 0.292 0.146 0.583 0.292 0.875 0.438 0.814 0.050 1.627 0.029 2.438-0.063 0.873 0.028 1.466-0.357 1.781-1.156 0.021-1.104 0.042-2.208 0.063-3.313 1.205 0.659 1.841 1.68 1.906 3.063-0.333 0-0.667 0-1 0-0.128 1.493-0.941 2.316-2.438 2.469-3.168 0.060-6.335 0.039-9.5-0.063-1.010-0.26-1.646-0.896-1.906-1.906-0.071-2.415-0.103-4.832-0.094-7.25 0.010-2.25 0.021-4.5 0.031-6.75 0.006-0.501 0.204-0.908 0.594-1.219 1.372-1.060 2.726-2.143 4.063-3.25 1.542-0.042 3.083-0.042 4.625 0 1.118 0.929 2.254 1.835 3.406 2.719 0.196-0.298 0.415-0.579 0.656-0.844-1.083-0.875-2.167-1.75-3.25-2.625 0.127-0.317 0.241-0.64 0.344-0.969 0.031-0.604 0.042-1.208 0.031-1.813-0.333 0-0.667 0-1 0 0 0.333 0 0.667 0 1-1.667 0-3.333 0-5 0-0.025-1.003 0.006-2.003 0.094-3 0.236-0.667 0.497-1.323 0.781-1.969 1.083-0.042 2.167-0.042 3.25 0 0.285 0.645 0.545 1.302 0.781 1.969 0.068 0.33 0.1 0.663 0.094 1 0.333 0 0.667 0 1 0 0.010-0.396 0-0.792-0.031-1.188-0.214-0.625-0.453-1.24-0.719-1.844 0.115-0.031 0.188-0.104 0.219-0.219 0.042-0.833 0.042-1.667 0-2.5-0.043-0.116-0.116-0.199-0.219-0.25-1.833 0-3.667 0-5.5 0zM5.969 0.969c1.333 0 2.667 0 4 0 0 0.333 0 0.667 0 1-1.333 0-2.667 0-4 0 0-0.333 0-0.667 0-1zM5.719 8.969c1.501-0.021 3.001 0 4.5 0.063-0.067 0.139-0.109 0.285-0.125 0.438-1.417 0-2.833 0-4.25 0-0.029-0.17-0.071-0.337-0.125-0.5zM7.281 20.469c0.337 0.042 0.671 0.115 1 0.219 0.092 0.265 0.206 0.525 0.344 0.781 0.529 0.385 1.123 0.541 1.781 0.469 0.514 0.267 0.628 0.652 0.344 1.156-0.179 0.188-0.398 0.303-0.656 0.344-0.917 0.042-1.833 0.042-2.75 0-0.64-0.098-1.046-0.463-1.219-1.094-0.355-1.106 0.031-1.731 1.156-1.875zM2.969 27.531c0.286 0.189 0.599 0.325 0.938 0.406 2.708 0.042 5.417 0.042 8.125 0 0.338-0.059 0.64-0.195 0.906-0.406 0.065 0.368 0.023 0.723-0.125 1.063-0.219 0.136-0.459 0.208-0.719 0.219-0.614 0.058-1.229 0.11-1.844 0.156-0.354-0.13-0.698-0.286-1.031-0.469-0.833-0.042-1.667-0.042-2.5 0-0.333 0.182-0.677 0.339-1.031 0.469-0.594-0.044-1.188-0.096-1.781-0.156-0.264-0.011-0.514-0.073-0.75-0.188-0.167-0.343-0.229-0.707-0.188-1.094z"></path>
<path fill="url(#gradient1)" d="M31.969 15.031c-0.257-0.694-0.757-1.048-1.5-1.063 0.156-1.229-0.375-1.916-1.594-2.063-0.304-1.28-0.638-2.55-1-3.813-0.047-0.039-0.099-0.070-0.156-0.094-0.5-0.042-1-0.042-1.5 0-0.057 0.023-0.109 0.055-0.156 0.094-0.362 1.262-0.696 2.533-1 3.813-1.218 0.146-1.75 0.834-1.594 2.063-0.742 0.002-1.232 0.356-1.469 1.063-0.031 1.333-0.042 2.666-0.031 4-0.353-0.070-0.707-0.133-1.063-0.188-0.109 0.524-0.234 1.045-0.375 1.563-0.708 0.083-1.417 0.083-2.125 0-0.426-1.768-0.843-3.539-1.25-5.313 0.081-0.131 0.175-0.256 0.281-0.375 0.010-0.094 0.021-0.188 0.031-0.281-0.089-0.493-0.194-0.983-0.313-1.469 0.238 0.021 0.467-0.010 0.688-0.094 0.156-0.916 0.697-1.364 1.625-1.344 0.917-0.031 1.448 0.406 1.594 1.313 0.047 0.039 0.099 0.070 0.156 0.094 0.416 0.031 0.833 0.042 1.25 0.031 0-0.333 0-0.667 0-1-0.192 0.020-0.38-0.001-0.563-0.063-0.554-1.043-1.419-1.543-2.594-1.5-1.052 0.064-1.813 0.564-2.281 1.5-0.317 0.038-0.63 0.090-0.938 0.156-0.080 0.126-0.143 0.262-0.188 0.406 0.13 0.467 0.255 0.935 0.375 1.406-0.099 0.108-0.192 0.222-0.281 0.344-0.042 0.208-0.042 0.417 0 0.625 0.482 2.177 1.003 4.344 1.563 6.5 0.047 0.039 0.099 0.070 0.156 0.094 0.583 0.010 1.167 0.021 1.75 0.031 0.631 0.009 1.256-0.022 1.875-0.094 0.245-0.724 0.443-1.463 0.594-2.219 0.021 3.917 0.042 7.833 0.063 11.75 0.189 0.512 0.532 0.866 1.031 1.063 2.625 0 5.25 0 7.875 0 0.5-0.208 0.854-0.563 1.063-1.063 0-5.292 0-10.583 0-15.875zM26.906 8.969c0.062-0.005 0.114 0.015 0.156 0.063 0.25 0.978 0.489 1.957 0.719 2.938-0.542 0-1.083 0-1.625 0 0.231-1.006 0.481-2.006 0.75-3zM24.969 12.969c1.334-0.010 2.667 0 4 0.031 0.281 0.031 0.438 0.188 0.469 0.469 0.031 0.165 0.041 0.332 0.031 0.5-1.667 0-3.333 0-5 0-0.031-0.304 0.031-0.585 0.188-0.844 0.113-0.047 0.218-0.099 0.313-0.156zM23.469 14.969c2.4-0.030 4.796 0.001 7.188 0.094 0.162 0.084 0.256 0.219 0.281 0.406 0.031 1 0.042 2 0.031 3-2.667 0-5.333 0-8 0-0.010-1 0-2 0.031-3 0.043-0.282 0.199-0.449 0.469-0.5zM22.969 19.469c2.667 0 5.333 0 8 0 0 2.667 0 5.333 0 8-2.667 0-5.333 0-8 0 0-2.667 0-5.333 0-8zM26.906 22.469c0.69-0.010 1.284 0.219 1.781 0.688 0.431 0.993 0.213 1.816-0.656 2.469-0.965 0.481-1.83 0.346-2.594-0.406-0.852-1.637-0.362-2.554 1.469-2.75zM22.969 28.469c2.667 0 5.333 0 8 0 0.010 0.667 0 1.334-0.031 2-0.031 0.281-0.188 0.438-0.469 0.469-2.333 0.042-4.667 0.042-7 0-0.281-0.031-0.438-0.188-0.469-0.469-0.031-0.666-0.042-1.333-0.031-2z"></path>
<path fill="url(#gradient1)" d="M1.969 19.469c0.333 0 0.667 0 1 0 0 0.333 0 0.667 0 1-0.333 0-0.667 0-1 0 0-0.333 0-0.667 0-1z"></path>
<path fill="url(#gradient1)"  d="M6.656 19.469c0.837-0.104 1.629 0.032 2.375 0.406 0.272 0.241 0.417 0.543 0.438 0.906 0.885-0.105 1.624 0.166 2.219 0.813 0.519 1.014 0.342 1.879-0.531 2.594-0.18 0.101-0.368 0.184-0.563 0.25-1.337 0.060-2.671 0.040-4-0.063-1.101-0.577-1.643-1.494-1.625-2.75 0.036-1.13 0.599-1.849 1.688-2.156zM7.281 20.469c-1.125 0.144-1.511 0.769-1.156 1.875 0.172 0.631 0.579 0.995 1.219 1.094 0.917 0.042 1.833 0.042 2.75 0 0.259-0.041 0.477-0.155 0.656-0.344 0.285-0.504 0.17-0.89-0.344-1.156-0.659 0.072-1.252-0.084-1.781-0.469-0.138-0.256-0.252-0.516-0.344-0.781-0.329-0.103-0.663-0.176-1-0.219z"></path>
<path fill="url(#gradient1)" d="M26.469 19.969c0.333 0 0.667 0 1 0-0.010 0.251 0 0.501 0.031 0.75 0.466-0.208 0.956-0.291 1.469-0.25 0 0.354 0 0.708 0 1.063-0.242-0.026-0.471 0.005-0.688 0.094 1.353 0.529 1.905 1.518 1.656 2.969-0.323 1.24-1.104 2.021-2.344 2.344-1.855 0.214-3.053-0.567-3.594-2.344-0.252-1.549 0.362-2.56 1.844-3.031-0.287-0.012-0.568-0.044-0.844-0.094-0.031-0.333-0.042-0.666-0.031-1 0.506-0.020 1.006 0.021 1.5 0.125 0-0.208 0-0.417 0-0.625zM26.906 22.469c-1.831 0.196-2.32 1.113-1.469 2.75 0.764 0.752 1.629 0.887 2.594 0.406 0.869-0.653 1.088-1.476 0.656-2.469-0.497-0.468-1.091-0.697-1.781-0.688z"></path>
<path fill="url(#gradient1)" d="M6.969 20.969c0.333 0 0.667 0 1 0 0 0.333 0 0.667 0 1-0.333 0-0.667 0-1 0 0-0.333 0-0.667 0-1z"></path>
<path fill="url(#gradient1)" d="M20.469 29.469c0.333 0 0.667 0 1 0 0 0.333 0 0.667 0 1-0.333 0-0.667 0-1 0 0-0.333 0-0.667 0-1z"></path>
</svg>
