<!-- Generated by IcoMoon.io -->
<svg version="1.1" xmlns="http://www.w3.org/2000/svg" width="32" height="32" viewBox="0 0 32 32">
<title>sidDishCard</title>
<linearGradient id="gradient1" x1="100%" y1="0%" x2="0%" y2="0%">
 <stop offset="0%" style="stop-color: #000000; stop-opacity: .5" />
    <stop offset="100%" style="stop-color: #0000000; stop-opacity: .6" />
  </linearGradient>
<path fill="url(#gradient1)" d="M12.569 1.712c-0.369 0.206-0.4 0.569-0.1 1.038 0.356 0.556 0.475 1.2 0.35 1.888-0.081 0.419-0.169 0.588-0.619 1.244-0.394 0.575-0.544 1.119-0.544 1.994 0 0.863 0.144 1.406 0.531 1.981 0.331 0.5 0.613 0.625 0.994 0.431 0.181-0.1 0.319-0.331 0.319-0.556 0-0.081-0.1-0.294-0.219-0.481-0.356-0.556-0.475-1.2-0.35-1.888 0.081-0.419 0.181-0.625 0.588-1.194 0.131-0.181 0.313-0.544 0.4-0.8 0.144-0.4 0.169-0.563 0.175-1.212 0-0.894-0.137-1.425-0.531-2.013-0.331-0.494-0.637-0.631-0.994-0.431z"></path>
<path fill="url(#gradient1)" d="M16.319 1.712c-0.369 0.206-0.4 0.569-0.1 1.038 0.356 0.556 0.475 1.2 0.35 1.888-0.081 0.419-0.169 0.588-0.619 1.244-0.394 0.575-0.544 1.119-0.544 1.994 0 0.863 0.144 1.406 0.531 1.981 0.331 0.5 0.612 0.625 0.994 0.431 0.181-0.1 0.319-0.331 0.319-0.556 0-0.081-0.1-0.294-0.219-0.481-0.356-0.556-0.475-1.2-0.35-1.888 0.081-0.419 0.181-0.625 0.587-1.194 0.131-0.181 0.313-0.544 0.4-0.8 0.144-0.4 0.169-0.563 0.175-1.212 0-0.894-0.137-1.425-0.531-2.013-0.331-0.494-0.637-0.631-0.994-0.431z"></path>
<path fill="url(#gradient1)" d="M20.069 1.712c-0.369 0.206-0.4 0.569-0.1 1.038 0.356 0.556 0.475 1.2 0.35 1.888-0.081 0.419-0.169 0.588-0.619 1.244-0.394 0.575-0.544 1.119-0.544 1.994 0 0.863 0.144 1.406 0.531 1.981 0.331 0.5 0.613 0.625 0.994 0.431 0.181-0.1 0.319-0.331 0.319-0.556 0-0.081-0.1-0.294-0.219-0.481-0.356-0.556-0.475-1.2-0.35-1.888 0.081-0.419 0.181-0.625 0.587-1.194 0.131-0.181 0.313-0.544 0.4-0.8 0.144-0.4 0.169-0.563 0.175-1.212 0-0.894-0.137-1.425-0.531-2.013-0.331-0.494-0.637-0.631-0.994-0.431z"></path>
<path fill="url(#gradient1)" d="M15.125 11.719c-0.762 0.156-1.438 0.5-2.094 1.069-0.356 0.313-0.4 0.319-1.231 0.175-1.294-0.225-2.481 0.044-3.406 0.781-0.175 0.137-0.55 0.531-0.831 0.881-0.506 0.625-0.737 0.813-1.013 0.813s-1.075 0.256-1.519 0.488c-0.55 0.281-1.356 1.075-1.638 1.606-0.381 0.731-0.475 1.156-0.487 2.163-0.006 0.5-0.031 0.944-0.056 0.988-0.025 0.038-0.263 0.231-0.525 0.438-0.594 0.444-1.131 1.025-1.363 1.444-0.131 0.238-0.206 0.313-0.319 0.313-0.388 0-0.644 0.3-0.644 0.75 0 1.1 0.656 2.438 1.55 3.156 0.481 0.387 1.381 0.819 1.956 0.944l0.475 0.106 0.431 0.869c0.469 0.944 0.725 1.262 1.213 1.506l0.281 0.137h20.188l0.294-0.144c0.469-0.231 0.712-0.538 1.194-1.481 0.45-0.875 0.45-0.875 0.7-0.919 0.375-0.063 1.050-0.319 1.45-0.556 0.494-0.294 1.387-1.188 1.669-1.675 0.456-0.788 0.712-1.894 0.538-2.319-0.087-0.212-0.344-0.375-0.581-0.375-0.113 0-0.188-0.069-0.319-0.306-0.231-0.431-0.656-0.881-1.331-1.419-0.319-0.256-0.581-0.5-0.581-0.544-0.006-0.038-0.012-0.425-0.025-0.856-0.025-0.863-0.188-1.563-0.531-2.238-0.531-1.044-1.438-1.688-2.869-2.019-0.3-0.069-0.587-0.137-0.65-0.156-0.056-0.019-0.219-0.213-0.363-0.431-0.413-0.637-1.075-1.219-1.762-1.556-0.931-0.456-1.744-0.569-2.769-0.381-0.769 0.137-0.837 0.131-1.188-0.181-1.113-0.969-2.462-1.344-3.844-1.069zM17.025 13.056c0.444 0.156 0.719 0.325 1.125 0.681 0.169 0.156 0.462 0.35 0.65 0.438 0.369 0.169 0.738 0.169 1.744 0.006 1.256-0.2 2.369 0.325 3.15 1.481 0.462 0.694 0.656 0.813 1.637 1.025 0.619 0.137 1.175 0.375 1.587 0.675 0.194 0.144 0.325 0.331 0.512 0.712 0.325 0.656 0.444 1.225 0.431 2.087-0.006 0.981 0.156 1.275 1.137 2.025 0.256 0.2 0.538 0.431 0.619 0.525l0.15 0.163h-27.544l0.188-0.194c0.1-0.106 0.35-0.325 0.556-0.481 0.55-0.419 0.9-0.762 1.050-1.044 0.119-0.225 0.131-0.331 0.119-1.050-0.025-1.269 0.194-1.944 0.825-2.581 0.431-0.425 0.975-0.694 1.719-0.844 0.75-0.15 1.031-0.325 1.55-0.931 1.031-1.213 1.381-1.456 2.238-1.581 0.363-0.056 0.588-0.050 0.988 0.012 1.006 0.162 1.375 0.162 1.744-0.006 0.188-0.088 0.481-0.287 0.662-0.444 0.488-0.438 1.012-0.694 1.637-0.819 0.313-0.056 1.163 0.019 1.525 0.144zM30.563 24.45c-0.35 0.925-1.238 1.738-2.244 2.050-0.363 0.113-0.575 0.125-2.675 0.125-2.469 0-2.544 0.012-2.694 0.344-0.094 0.206-0.094 0.356 0 0.563 0.144 0.319 0.281 0.344 2.050 0.344h1.625l-0.244 0.494c-0.137 0.269-0.325 0.55-0.419 0.625l-0.169 0.131h-19.587l-0.169-0.131c-0.094-0.075-0.281-0.356-0.419-0.625l-0.244-0.494h6.625c7.206 0 6.887 0.012 7.050-0.344 0.094-0.206 0.094-0.356 0-0.563-0.163-0.363 0.2-0.344-7.55-0.344-7.65 0-7.612 0-8.35-0.319-0.862-0.369-1.594-1.181-1.8-2.012l-0.038-0.169h29.375l-0.125 0.325z"></path>
<path fill="url(#gradient1)" d="M15.694 14.213c-0.544 0.3-0.313 1.162 0.306 1.162 0.319 0 0.625-0.306 0.625-0.619 0-0.469-0.519-0.775-0.931-0.544z"></path>
<path fill="url(#gradient1)" d="M9.444 16.712c-0.544 0.3-0.313 1.163 0.306 1.163 0.319 0 0.625-0.306 0.625-0.619 0-0.469-0.519-0.775-0.931-0.544z"></path>
<path fill="url(#gradient1)" d="M21.944 16.712c-0.544 0.3-0.313 1.163 0.306 1.163 0.319 0 0.625-0.306 0.625-0.619 0-0.469-0.519-0.775-0.931-0.544z"></path>
<path fill="url(#gradient1)" d="M15.694 17.962c-0.544 0.3-0.313 1.163 0.306 1.163 0.319 0 0.625-0.306 0.625-0.619 0-0.469-0.519-0.775-0.931-0.544z"></path>
<path fill="url(#gradient1)" d="M6.944 20.462c-0.544 0.3-0.313 1.163 0.306 1.163 0.319 0 0.625-0.306 0.625-0.619 0-0.469-0.519-0.775-0.931-0.544z"></path>
<path fill="url(#gradient1)" d="M11.944 20.462c-0.544 0.3-0.313 1.163 0.306 1.163 0.319 0 0.625-0.306 0.625-0.619 0-0.469-0.519-0.775-0.931-0.544z"></path>
<path fill="url(#gradient1)" d="M19.444 20.462c-0.544 0.3-0.313 1.163 0.306 1.163 0.319 0 0.625-0.306 0.625-0.619 0-0.469-0.519-0.775-0.931-0.544z"></path>
<path fill="url(#gradient1)" d="M24.444 20.462c-0.544 0.3-0.313 1.163 0.306 1.163 0.319 0 0.625-0.306 0.625-0.619 0-0.469-0.519-0.775-0.931-0.544z"></path>
<path fill="url(#gradient1)" d="M20.694 26.712c-0.544 0.3-0.313 1.163 0.306 1.163 0.319 0 0.625-0.306 0.625-0.619 0-0.469-0.519-0.775-0.931-0.544z"></path>
</svg>
