<!-- Generated by IcoMoon.io -->
<svg version="1.1" xmlns="http://www.w3.org/2000/svg" width="32" height="32" viewBox="0 0 32 32">
<title>soupCard</title>
<linearGradient id="gradient2" x1="0%" y1="100%" x2="0%" y2="0%">
  <stop offset="0%" style="stop-color: #515151; stop-opacity: .9" />
  <stop offset="50%" style="stop-color: #414141; stop-opacity: .8" />
  <stop offset="100%" style="stop-color: #313131; stop-opacity: .9" />
</linearGradient>
<linearGradient id="gradient1" x1="0%" y1="100%" x2="0%" y2="0%">
    <stop offset="0%" style="stop-color: #1f1f1f; stop-opacity: .9" />
    <stop offset="100%" style="stop-color: #757575; stop-opacity: .5" />
  </linearGradient>
<path fill="url(#gradient1)" opacity="0.907" d="M11.406 0.594c0.219-0.032 0.417 0.010 0.594 0.125 0.47 0.95 0.554 1.929 0.25 2.938-0.322 0.581-0.592 1.185-0.813 1.813-0.048 0.338-0.027 0.671 0.063 1 0.165 0.454 0.363 0.892 0.594 1.313-0.033 0.262-0.178 0.387-0.438 0.375-0.137 0.011-0.252-0.031-0.344-0.125-0.167-0.333-0.333-0.667-0.5-1-0.227-0.635-0.269-1.281-0.125-1.938 0.216-0.557 0.466-1.098 0.75-1.625 0.29-0.765 0.248-1.515-0.125-2.25-0.060-0.228-0.029-0.436 0.094-0.625z"></path>
<path fill="url(#gradient1)" opacity="0.914" d="M26.906 0.844c-0.277 0.082-0.547 0.197-0.813 0.344-2.39 2.613-4.765 5.238-7.125 7.875-1.684-0.091-3.371-0.112-5.063-0.063-2.551 0.11-5.031 0.589-7.438 1.438-0.951 0.35-1.826 0.83-2.625 1.438-0.606 0.493-1.033 1.108-1.281 1.844-0.097 1.352-0.118 2.707-0.063 4.063 0.186 4.227 2.040 7.498 5.563 9.813-0.002 0.945 0.384 1.684 1.156 2.219 0.472 0.226 0.951 0.434 1.438 0.625 3.669 1.263 7.315 1.2 10.938-0.188 1.36-0.397 2.090-1.304 2.188-2.719 3.97-2.732 5.803-6.523 5.5-11.375 0.442-2.106-0.245-3.7-2.063-4.781-1.319-0.742-2.715-1.294-4.188-1.656 2.018-1.82 4.029-3.653 6.031-5.5 0.152-0.206 0.256-0.435 0.313-0.688 0.146-1.781-0.677-2.677-2.469-2.688zM26.969 1.656c1.175-0.002 1.707 0.582 1.594 1.75-0.067 0.156-0.151 0.302-0.25 0.438-3.060 2.706-6.102 5.435-9.125 8.188-0.228-0.384-0.53-0.696-0.906-0.938 2.709-3.011 5.407-6.032 8.094-9.063 0.178-0.166 0.376-0.291 0.594-0.375zM13.969 9.781c1.271-0.010 2.542 0 3.813 0.031 0.15 0.012 0.296 0.043 0.438 0.094-0.282 0.293-0.553 0.595-0.813 0.906-1.397-0.041-2.626 0.396-3.688 1.313-2.416 0.146-4.77 0.604-7.063 1.375-1.111 0.404-2.121 0.977-3.031 1.719-0.386-0.674-0.365-1.34 0.063-2 0.705-0.785 1.548-1.379 2.531-1.781 1.668-0.683 3.397-1.141 5.188-1.375 0.862-0.108 1.716-0.201 2.563-0.281zM22.156 10.406c1.857 0.314 3.566 0.992 5.125 2.031 0.656 0.447 1.052 1.062 1.188 1.844-0.035 0.344-0.149 0.656-0.344 0.938-0.837-0.731-1.785-1.283-2.844-1.656-1.685-0.6-3.414-1.016-5.188-1.25 0.719-0.604 1.406-1.239 2.063-1.906zM16.781 11.594c1.464 0.090 2.068 0.861 1.813 2.313-1.792 0.010-3.583 0-5.375-0.031 0.889-1.234 2.076-1.994 3.563-2.281zM12.531 13.031c0.092-0.016 0.176 0.004 0.25 0.063-0.323 0.385-0.573 0.812-0.75 1.281 0.085 0.356 0.314 0.491 0.688 0.406 2.105-0.072 4.21-0.083 6.313-0.031 0.135-0.052 0.229-0.146 0.281-0.281 0.121-0.45 0.173-0.909 0.156-1.375 2.478 0.219 4.832 0.875 7.063 1.969 0.39 0.223 0.744 0.494 1.063 0.813-1.229 0.952-2.604 1.619-4.125 2-4.974 1.265-9.953 1.286-14.938 0.063-1.609-0.388-3.067-1.076-4.375-2.063 0.787-0.696 1.683-1.217 2.688-1.563 1.856-0.64 3.752-1.067 5.688-1.281zM22.281 15.219c0.499 0.010 0.718 0.26 0.656 0.75-0.19 0.367-0.471 0.46-0.844 0.281-0.36-0.424-0.298-0.767 0.188-1.031zM9.781 15.281c0.674 0.017 0.872 0.33 0.594 0.938-0.309 0.256-0.601 0.236-0.875-0.063-0.173-0.382-0.080-0.673 0.281-0.875zM3.281 16.156c0.946 0.91 2.050 1.588 3.313 2.031 3.011 1 6.105 1.49 9.281 1.469 2.614-0.008 5.186-0.331 7.719-0.969 1.514-0.372 2.909-0.997 4.188-1.875 0.225-0.191 0.443-0.389 0.656-0.594 0.246 5.375-2.035 9.24-6.844 11.594-3.262 1.41-6.596 1.598-10 0.563-3.033-0.992-5.356-2.857-6.969-5.594-1.085-2.074-1.533-4.283-1.344-6.625zM15.969 16.219c0.52 0.208 1.020 0.469 1.5 0.781-0.192 0.143-0.39 0.279-0.594 0.406-0.443-0.279-0.891-0.549-1.344-0.813 0.147-0.126 0.293-0.251 0.438-0.375zM8.969 28.156c3.787 1.907 7.703 2.21 11.75 0.906 0.697-0.26 1.374-0.562 2.031-0.906-0.025 0.311-0.161 0.571-0.406 0.781-2.756 1.45-5.672 1.929-8.75 1.438-1.484-0.231-2.88-0.71-4.188-1.438-0.236-0.211-0.382-0.471-0.438-0.781z"></path>
<path fill="url(#gradient1)" opacity="0.902" d="M15.844 1.719c0.188-0.015 0.344 0.047 0.469 0.188 0.372 0.746 0.434 1.517 0.188 2.313-0.205 0.388-0.392 0.784-0.563 1.188-0.042 0.229-0.042 0.458 0 0.688 0.131 0.377 0.288 0.742 0.469 1.094-0.016 0.276-0.161 0.411-0.438 0.406-0.151 0.006-0.265-0.057-0.344-0.188-0.505-0.728-0.651-1.519-0.438-2.375 0.242-0.442 0.45-0.9 0.625-1.375 0.042-0.229 0.042-0.458 0-0.688-0.143-0.343-0.205-0.697-0.188-1.063 0.072-0.071 0.145-0.134 0.219-0.188z"></path>
<path fill="url(#gradient1)" opacity="0.904" d="M7.219 1.844c0.219-0.032 0.417 0.010 0.594 0.125 0.455 0.913 0.518 1.851 0.188 2.813-0.264 0.486-0.493 0.986-0.688 1.5-0.047 0.317-0.026 0.63 0.063 0.938 0.169 0.39 0.346 0.776 0.531 1.156-0.162 0.442-0.422 0.515-0.781 0.219-0.869-1.294-0.869-2.586 0-3.875 0.233-0.454 0.317-0.933 0.25-1.438-0.088-0.358-0.182-0.712-0.281-1.063-0.009-0.146 0.033-0.271 0.125-0.375z"></path>
<path fill="url(#gradient1)" opacity="0.91" d="M22.156 14.406c1.349 0.071 1.838 0.759 1.469 2.063-0.52 0.708-1.176 0.864-1.969 0.469-0.71-0.609-0.804-1.307-0.281-2.094 0.234-0.205 0.494-0.351 0.781-0.438zM22.281 15.219c-0.485 0.264-0.548 0.608-0.188 1.031 0.372 0.179 0.654 0.085 0.844-0.281 0.062-0.49-0.157-0.74-0.656-0.75z"></path>
<path fill="url(#gradient1)" opacity="0.907" d="M9.656 14.469c1.143-0.055 1.695 0.487 1.656 1.625-0.371 1.045-1.069 1.347-2.094 0.906-0.628-0.488-0.784-1.103-0.469-1.844 0.223-0.345 0.525-0.574 0.906-0.688zM9.781 15.281c-0.361 0.202-0.455 0.493-0.281 0.875 0.274 0.298 0.566 0.319 0.875 0.063 0.278-0.608 0.080-0.92-0.594-0.938z"></path>
<path fill="url(#gradient1)" opacity="0.878" d="M19.906 14.906c0.31 0.008 0.456 0.164 0.438 0.469-0.012 0.328-0.105 0.63-0.281 0.906-0.167 0.208-0.365 0.24-0.594 0.094-0.093-0.081-0.134-0.185-0.125-0.313 0.084-0.325 0.178-0.648 0.281-0.969 0.088-0.080 0.182-0.143 0.281-0.188z"></path>
<path fill="url(#gradient1)" opacity="0.865" d="M24.844 15.031c0.455 0.003 0.84 0.17 1.156 0.5 0.12 0.349 0.006 0.558-0.344 0.625-0.254-0.096-0.504-0.21-0.75-0.344-0.312-0.236-0.333-0.497-0.063-0.781z"></path>
<path fill="url(#gradient1)" opacity="0.881" d="M6.969 15.094c0.458-0.032 0.635 0.177 0.531 0.625-0.265 0.2-0.547 0.378-0.844 0.531-0.479 0.083-0.656-0.115-0.531-0.594 0.28-0.197 0.561-0.384 0.844-0.563z"></path>
<path fill="url(#gradient1)" opacity="0.905" d="M15.906 15.344c0.194-0.009 0.382 0.022 0.563 0.094 0.552 0.349 1.115 0.682 1.688 1 0.205 0.306 0.236 0.628 0.094 0.969-0.38 0.391-0.827 0.662-1.344 0.813-0.785-0.273-1.504-0.669-2.156-1.188-0.208-0.365-0.177-0.709 0.094-1.031 0.35-0.237 0.704-0.456 1.063-0.656zM15.969 16.219c-0.145 0.124-0.29 0.249-0.438 0.375 0.453 0.263 0.901 0.534 1.344 0.813 0.203-0.128 0.401-0.263 0.594-0.406-0.48-0.313-0.98-0.573-1.5-0.781z"></path>
<path fill="url(#gradient1)" opacity="0.856" d="M12.406 16.406c0.156-0.013 0.301 0.019 0.438 0.094 0.284 0.22 0.492 0.491 0.625 0.813-0.051 0.378-0.259 0.503-0.625 0.375-0.198-0.198-0.396-0.396-0.594-0.594-0.15-0.282-0.098-0.511 0.156-0.688z"></path>
<path fill="url(#gradient1)" opacity="0.887" d="M5.094 19.781c0.166 0.031 0.301 0.115 0.406 0.25 0.188 0.646 0.427 1.271 0.719 1.875-0.072 0.349-0.28 0.464-0.625 0.344-0.484-0.665-0.765-1.405-0.844-2.219 0.094-0.123 0.208-0.206 0.344-0.25z"></path>
<path fill="url(#gradient1)" opacity="0.885" d="M6.719 23.031c0.135-0.008 0.26 0.023 0.375 0.094 0.742 0.93 1.617 1.701 2.625 2.313 0.308 0.226 0.329 0.476 0.063 0.75-0.146 0.042-0.292 0.042-0.438 0-1.087-0.654-2.035-1.477-2.844-2.469-0.142-0.299-0.069-0.528 0.219-0.688z"></path>
</svg>
