<?xml version="1.0" standalone="no"?>
<!DOCTYPE svg PUBLIC "-//W3C//DTD SVG 20010904//EN"
 "http://www.w3.org/TR/2001/REC-SVG-20010904/DTD/svg10.dtd">
<svg version="1.0" xmlns="http://www.w3.org/2000/svg"
 width="1765.000000pt" height="435.000000pt" viewBox="0 0 1765.000000 435.000000"
 preserveAspectRatio="xMidYMid meet">
<linearGradient id="gradient1" x1="0%" y1="0%" x2="0%" y2="100%">
  <stop offset="0%" style="stop-color: #6b4d00; stop-opacity: .9" />
  <stop offset="50%" style="stop-color: #6b4d00; stop-opacity: .6" />
  <stop offset="100%" style="stop-color: #6b4d00; stop-opacity: .9" />
</linearGradient>


<g transform="translate(0.000000,435.000000) scale(0.100000,-0.100000)"
fill="url(#gradient1)" stroke="none">
<path d="M3325 4344 c-106 -15 -304 -64 -446 -110 -697 -226 -1548 -677 -2207
-1171 -400 -299 -672 -574 -672 -679 0 -36 28 -104 60 -145 19 -24 57 -51 98
-71 75 -37 51 -36 492 -28 183 4 215 2 297 -17 292 -69 481 -230 601 -513 39
-91 73 -208 86 -295 4 -22 -2 -102 -14 -180 -22 -159 -25 -227 -9 -258 28 -54
96 -107 138 -107 42 0 65 89 76 295 11 197 149 919 266 1390 89 358 223 793
258 836 23 29 12 70 -25 89 -21 12 -27 11 -50 -11 -126 -118 -285 -608 -524
-1622 l-42 -178 -70 118 c-188 314 -377 478 -673 583 -153 54 -256 70 -502 77
l-222 6 32 41 c63 80 272 288 390 389 587 502 1474 997 2223 1240 274 89 387
110 589 111 146 1 175 -2 203 -17 18 -10 36 -25 39 -34 12 -32 -90 -208 -214
-368 -94 -122 -213 -252 -535 -587 -487 -507 -719 -758 -796 -863 -41 -56 -44
-63 -39 -107 8 -62 41 -124 76 -143 32 -16 41 -14 214 54 202 80 420 141 572
161 118 16 226 2 313 -41 l63 -31 -6 -36 c-11 -62 -70 -172 -140 -259 -72 -89
-233 -244 -332 -318 -55 -41 -65 -45 -84 -34 -55 29 -222 -13 -405 -102 -182
-88 -424 -263 -467 -337 -17 -30 -18 -38 -7 -79 15 -51 65 -108 115 -129 97
-40 350 58 670 260 200 126 354 244 476 366 220 218 297 375 287 582 -6 124
-32 179 -126 270 -73 70 -114 89 -224 103 -81 10 -262 -12 -416 -51 -75 -19
-137 -32 -139 -30 -2 2 96 106 218 232 689 712 943 1039 1009 1298 38 149 23
256 -49 351 -65 86 -99 99 -261 101 -74 1 -148 0 -165 -2z m180 -151 c-217
-18 -340 -40 -539 -99 -148 -44 -426 -147 -605 -224 -74 -33 -136 -58 -138
-56 -2 2 45 25 104 51 481 211 901 334 1128 332 50 0 72 -2 50 -4z m-1316
-397 c-10 -9 -349 -176 -349 -171 0 6 331 174 344 174 5 1 7 -1 5 -3z m-419
-211 c0 -2 -13 -11 -30 -20 -38 -19 -40 -11 -2 9 31 17 32 18 32 11z m-660
-400 c0 -2 -20 -18 -45 -35 -25 -17 -45 -29 -45 -26 0 4 80 64 88 66 1 0 2 -2
2 -5z m-100 -69 c0 -3 -15 -14 -32 -26 l-33 -22 30 26 c31 27 35 29 35 22z
m-80 -59 c-8 -8 -64 -52 -125 -98 -60 -46 -159 -126 -220 -178 -60 -52 -104
-87 -96 -77 8 9 55 52 105 95 131 112 416 331 336 258z m-541 -454 c-46 -49
-106 -115 -134 -148 -77 -94 -89 -99 -21 -10 31 41 226 245 234 245 3 0 -33
-39 -79 -87z m2517 -339 c-131 -25 -386 -104 -543 -170 -47 -19 -88 -33 -90
-30 -6 6 30 21 183 81 212 83 439 144 534 143 31 0 4 -7 -84 -24z m192 -789
c-104 -101 -262 -216 -443 -324 -157 -94 -399 -216 -450 -226 -16 -4 13 13 65
37 291 134 655 366 840 537 83 76 75 60 -12 -24z m-433 -84 c-32 -30 -353
-206 -362 -198 -7 8 171 115 271 163 91 45 107 51 91 35z"/>
<path d="M7407 4004 c-180 -77 -458 -286 -663 -496 -356 -367 -454 -651 -319
-919 34 -67 136 -191 191 -233 37 -29 56 -36 91 -36 37 0 44 3 41 18 -2 10
-20 22 -43 30 -98 30 -195 213 -195 366 0 178 144 432 375 661 202 200 585
465 656 453 17 -3 16 -10 -22 -118 -190 -538 -264 -793 -360 -1232 -33 -156
-64 -290 -69 -298 -4 -8 -65 -46 -136 -83 -237 -127 -415 -258 -444 -327 -37
-90 39 -166 248 -245 105 -39 160 -80 197 -148 29 -52 32 -67 44 -218 12 -159
36 -280 65 -337 21 -41 95 -132 106 -132 14 0 12 46 -6 115 -11 40 -17 127
-21 265 -5 230 11 406 69 759 l32 194 151 72 c174 84 428 195 444 195 14 0 14
-22 -5 -155 -20 -144 -30 -638 -15 -720 21 -112 94 -195 172 -195 22 0 39 1
39 3 0 1 -10 27 -22 57 -40 104 -36 355 13 682 31 213 70 408 84 422 15 14
223 72 298 82 54 8 61 15 53 49 -14 54 -93 67 -241 40 -44 -8 -81 -15 -82 -15
-4 0 77 300 88 323 8 18 20 27 35 27 18 0 25 7 29 28 22 107 65 225 166 459
l23 53 -20 27 c-32 43 -83 73 -123 73 -31 0 -42 -6 -70 -42 -101 -130 -268
-558 -342 -875 l-34 -142 -165 -57 c-91 -31 -221 -78 -289 -105 -69 -27 -127
-47 -129 -44 -12 12 78 355 238 905 131 448 150 526 150 605 0 76 -32 146 -88
198 -36 32 -48 37 -90 37 -27 -1 -71 -11 -105 -26z m-2 -172 c-201 -104 -426
-280 -621 -484 -53 -57 -83 -84 -65 -61 77 101 347 342 511 456 83 58 247 146
270 146 8 0 -35 -25 -95 -57z m725 -1077 c-27 -94 -49 -163 -49 -155 -1 27 87
335 94 328 2 -2 -18 -80 -45 -173z m-93 -397 c-3 -8 -6 -5 -6 6 -1 11 2 17 5
13 3 -3 4 -12 1 -19z m-10 -50 c-3 -7 -5 -2 -5 12 0 14 2 19 5 13 2 -7 2 -19
0 -25z m-297 -2 c0 -2 -37 -18 -82 -36 -46 -18 -137 -58 -203 -88 -141 -64
-165 -73 -165 -66 0 7 127 65 295 135 135 56 155 63 155 55z m284 -75 c-4 -28
-9 -50 -11 -47 -3 3 -2 28 2 56 4 28 9 49 12 47 2 -3 1 -28 -3 -56z m-19 -126
c-4 -31 -9 -54 -12 -51 -3 2 -1 30 2 61 4 31 9 54 12 51 3 -2 1 -30 -2 -61z
m-18 -117 c-2 -13 -4 -5 -4 17 -1 22 1 32 4 23 2 -10 2 -28 0 -40z m-917 18
c0 -3 -42 -28 -92 -57 -127 -72 -223 -137 -287 -195 -38 -34 -49 -41 -37 -22
34 52 162 144 316 227 100 53 100 53 100 47z m907 -98 c-2 -13 -4 -5 -4 17 -1
22 1 32 4 23 2 -10 2 -28 0 -40z m-920 0 c-3 -18 -13 -103 -22 -188 -22 -216
-25 -240 -34 -240 -4 0 -23 16 -42 36 -41 43 -122 93 -209 129 -36 15 -67 29
-69 31 -8 7 53 65 115 110 69 49 243 154 257 154 5 0 7 -15 4 -32z m910 -80
c-2 -13 -4 -5 -4 17 -1 22 1 32 4 23 2 -10 2 -28 0 -40z m-10 -95 c-3 -10 -5
-2 -5 17 0 19 2 27 5 18 2 -10 2 -26 0 -35z"/>
<path d="M15840 3755 c-81 -118 -204 -398 -311 -707 -43 -126 -43 -127 -79
-133 -197 -36 -480 -160 -526 -230 -19 -28 -9 -70 19 -90 29 -20 44 -19 50 5
8 32 185 106 361 151 43 11 81 17 84 14 3 -3 -7 -71 -22 -151 -64 -338 -86
-614 -86 -1082 0 -356 10 -473 51 -622 29 -106 65 -168 118 -202 41 -25 99
-37 113 -22 4 3 -4 30 -18 59 -61 140 -78 316 -71 739 6 335 19 501 63 785 37
239 95 525 109 540 4 3 133 6 288 6 279 -1 283 -1 362 -28 86 -28 102 -25 91
19 -25 99 -203 144 -568 144 -76 0 -138 4 -138 8 0 21 84 293 140 452 34 96
73 208 87 249 l25 73 -24 24 c-13 13 -38 28 -56 33 -30 9 -33 7 -62 -34z m31
-222 c-12 -20 -14 -14 -5 12 4 9 9 14 11 11 3 -2 0 -13 -6 -23z m-54 -149
c-24 -66 -66 -191 -93 -279 -27 -87 -50 -152 -52 -144 -5 27 174 557 185 546
2 -2 -16 -58 -40 -123z m-221 -776 c-19 -95 -41 -213 -48 -263 -7 -49 -14 -81
-16 -70 -6 39 84 523 95 511 2 -2 -11 -82 -31 -178z m-85 -564 c-11 -110 -25
-289 -31 -399 -14 -248 -20 -291 -14 -85 7 215 50 697 61 686 2 -2 -5 -93 -16
-202z"/>
<path d="M9797 2550 c-53 -42 -162 -320 -213 -545 l-18 -80 -105 -105 c-104
-103 -163 -143 -230 -156 l-32 -7 3 129 c2 142 -6 172 -59 214 -32 25 -71 21
-135 -11 -44 -23 -48 -23 -48 -6 0 33 -61 107 -112 136 -112 65 -209 31 -368
-129 -101 -102 -160 -190 -186 -279 -19 -63 -14 -101 20 -176 19 -42 36 -62
72 -85 26 -16 59 -30 73 -30 61 0 209 90 466 283 l140 106 12 -77 c26 -156
114 -272 207 -272 53 0 113 37 180 111 l49 54 -6 -35 c-12 -67 -36 -286 -48
-435 -13 -168 -6 -663 11 -830 13 -115 34 -213 56 -261 18 -37 74 -65 117 -57
27 5 27 6 20 57 -12 81 -8 715 6 881 15 189 27 238 95 408 75 187 173 375 277
532 82 123 207 281 215 272 7 -7 -36 -148 -77 -250 -47 -118 -82 -180 -149
-261 -27 -32 -62 -83 -77 -112 -26 -51 -27 -56 -13 -81 24 -42 76 -73 125 -73
73 0 121 67 238 332 11 26 41 55 93 94 92 68 114 89 114 109 0 22 -37 18 -99
-10 l-53 -25 6 22 c3 13 15 67 27 121 29 136 22 177 -40 238 -56 54 -104 68
-148 45 -31 -16 -150 -136 -204 -206 -56 -71 -139 -197 -191 -290 -26 -47 -48
-80 -48 -73 0 37 68 367 110 533 28 108 50 206 50 217 0 28 -38 71 -70 78 -18
4 -34 0 -53 -15z m411 -389 c-13 -15 -47 -57 -77 -92 -121 -143 -270 -397
-367 -627 -26 -62 -49 -110 -51 -108 -7 7 83 209 149 336 73 142 204 339 292
443 37 42 69 77 72 77 3 0 -5 -13 -18 -29z m-1513 -191 c-105 -70 -114 -75
-80 -45 38 34 116 85 129 85 6 0 -16 -18 -49 -40z m205 -16 c6 -14 10 -27 10
-29 0 -3 -305 -195 -384 -240 l-48 -28 15 29 c8 17 36 57 61 90 96 128 205
204 294 204 36 0 44 -4 52 -26z m837 -46 c-3 -8 -6 -5 -6 6 -1 11 2 17 5 13 3
-3 4 -12 1 -19z m-10 -60 c-3 -8 -6 -5 -6 6 -1 11 2 17 5 13 3 -3 4 -12 1 -19z
m-752 -53 c-131 -108 -443 -315 -474 -315 -9 0 13 16 48 36 72 40 187 117 341
228 105 75 142 97 85 51z m742 3 c-3 -8 -6 -5 -6 6 -1 11 2 17 5 13 3 -3 4
-12 1 -19z m-10 -60 c-3 -8 -6 -5 -6 6 -1 11 2 17 5 13 3 -3 4 -12 1 -19z
m-10 -60 c-3 -7 -5 -2 -5 12 0 14 2 19 5 13 2 -7 2 -19 0 -25z m488 -126 c-25
-49 -55 -98 -67 -108 -14 -13 -10 -1 14 36 19 30 47 81 63 113 15 31 30 55 33
53 2 -3 -17 -45 -43 -94z m-498 66 c-3 -8 -6 -5 -6 6 -1 11 2 17 5 13 3 -3 4
-12 1 -19z m-257 -23 c0 -10 -103 -85 -118 -85 -9 0 13 20 49 44 70 49 69 48
69 41z m180 -870 l-7 -200 -1 171 c-2 144 4 244 13 232 1 -2 -1 -93 -5 -203z"/>
<path d="M10815 2546 c-72 -72 -172 -357 -235 -666 -87 -433 -119 -846 -100
-1297 18 -452 55 -579 166 -576 19 1 38 3 40 6 3 2 0 42 -6 88 -21 172 -1 848
31 1023 29 162 206 544 351 761 67 100 208 278 215 271 7 -7 -25 -120 -61
-214 -48 -124 -87 -199 -138 -263 -59 -72 -106 -141 -118 -174 -21 -56 53
-125 134 -125 65 0 134 93 216 294 28 66 40 83 78 110 97 67 142 107 142 126
0 26 -29 26 -82 0 -67 -32 -68 -30 -42 78 29 119 30 173 4 228 -22 44 -76 88
-122 99 -41 10 -91 -20 -167 -101 -99 -106 -173 -206 -262 -356 -44 -73 -78
-122 -75 -108 3 14 17 89 31 167 14 79 50 241 80 360 51 207 53 218 38 244
-16 27 -51 49 -79 49 -8 0 -26 -11 -39 -24z m388 -420 c-28 -30 -76 -89 -108
-133 -60 -81 -84 -110 -70 -83 36 64 206 270 223 270 2 0 -18 -24 -45 -54z
m-446 -238 c-3 -8 -6 -5 -6 6 -1 11 2 17 5 13 3 -3 4 -12 1 -19z m249 -23
c-62 -95 -171 -306 -226 -438 -18 -43 -34 -76 -36 -74 -17 16 248 537 273 537
3 0 -2 -11 -11 -25z m-259 -27 c-3 -8 -6 -5 -6 6 -1 11 2 17 5 13 3 -3 4 -12
1 -19z m-10 -60 c-3 -7 -5 -2 -5 12 0 14 2 19 5 13 2 -7 2 -19 0 -25z m-10
-60 c-3 -7 -5 -2 -5 12 0 14 2 19 5 13 2 -7 2 -19 0 -25z m-10 -60 c-3 -7 -5
-2 -5 12 0 14 2 19 5 13 2 -7 2 -19 0 -25z m509 -71 c-27 -62 -70 -132 -88
-143 -6 -4 -3 6 9 22 11 16 37 62 57 102 42 84 56 96 22 19z m-596 -972 l-7
-310 -1 236 c-2 200 5 396 13 387 1 -2 -1 -142 -5 -313z"/>
<path d="M12532 2405 c-65 -29 -153 -135 -352 -425 -173 -253 -328 -450 -353
-450 -18 0 -1 274 28 429 l27 144 -23 18 c-13 10 -39 19 -56 19 -27 0 -37 -7
-58 -38 -46 -70 -97 -244 -115 -395 -23 -187 33 -303 166 -343 65 -19 98 -18
146 7 99 51 207 182 450 549 166 251 265 383 282 377 18 -6 25 -74 25 -264 1
-126 -5 -230 -19 -335 -31 -245 -21 -221 -135 -302 -113 -81 -352 -308 -426
-405 -62 -82 -142 -245 -163 -332 -42 -173 0 -305 120 -375 124 -73 287 -20
399 128 93 124 166 283 236 514 91 303 134 552 151 878 13 258 5 362 -36 452
-58 127 -190 194 -294 149z m26 -167 c-14 -18 -107 -154 -208 -303 -168 -248
-304 -435 -316 -435 -8 0 2 14 91 135 45 61 145 205 222 320 133 199 218 315
230 315 3 0 -6 -15 -19 -32z m187 -1020 c-41 -184 -112 -420 -150 -500 -29
-60 -27 -53 26 93 36 102 113 393 140 529 7 35 14 59 16 53 2 -6 -12 -85 -32
-175z m-155 -7 c-95 -403 -245 -749 -371 -855 -45 -38 -69 -31 -99 29 -22 44
-25 63 -24 150 0 87 4 111 32 184 56 148 132 270 253 408 68 76 229 226 236
219 2 -2 -10 -63 -27 -135z m-29 -578 c-12 -20 -14 -14 -5 12 4 9 9 14 11 11
3 -2 0 -13 -6 -23z"/>
<path d="M14805 2228 c-35 -19 -76 -61 -137 -140 -32 -43 -63 -78 -68 -78 -5
0 -18 13 -29 29 -36 51 -80 71 -154 71 -63 0 -66 -1 -116 -46 -34 -31 -63 -70
-87 -120 -31 -62 -51 -86 -121 -147 -85 -72 -200 -157 -214 -157 -11 0 -25 52
-44 155 -17 92 -42 147 -75 165 -10 6 -36 10 -58 10 -56 0 -109 -51 -250 -239
-64 -85 -123 -162 -130 -171 -17 -19 -10 73 24 327 30 230 31 264 2 297 -33
37 -71 43 -96 15 -26 -27 -73 -155 -106 -287 -70 -275 -74 -473 -9 -544 56
-62 192 -94 232 -53 11 11 54 85 97 165 125 236 202 360 223 360 5 0 12 -24
15 -52 14 -105 71 -192 151 -229 77 -36 115 -24 216 69 l57 52 3 -78 c3 -65 9
-85 32 -120 39 -59 96 -94 163 -100 46 -4 60 -1 94 22 66 44 147 157 334 466
113 187 136 217 147 197 8 -13 30 -181 42 -319 4 -45 3 -47 -37 -76 -75 -54
-186 -224 -310 -477 -228 -462 -313 -775 -260 -956 20 -67 101 -152 161 -168
62 -18 159 -14 201 8 166 85 313 415 377 846 52 348 28 865 -51 1115 -22 71
-33 90 -83 141 -60 62 -91 72 -136 47z m42 -140 c-9 -13 -56 -84 -103 -158
-200 -309 -239 -368 -282 -422 -25 -32 -49 -58 -54 -58 -6 0 6 21 26 48 20 26
112 160 203 297 92 138 178 265 191 283 27 36 43 45 19 10z m-333 -137 l16
-53 -71 -104 c-39 -58 -91 -130 -115 -161 -44 -56 -44 -56 -44 -25 0 59 31
177 64 249 35 73 113 170 127 156 4 -4 14 -32 23 -62z m-140 -1 c-15 -22 -29
-40 -31 -40 -5 0 3 15 29 53 30 43 31 32 2 -13z m-961 -490 c-15 -28 -38 -63
-51 -78 -12 -15 -2 8 24 51 52 86 70 104 27 27z m1537 3 c0 -16 -5 -84 -10
-153 -26 -333 -95 -640 -191 -847 -63 -138 -181 -293 -223 -293 -32 0 -35 187
-5 326 33 155 129 420 234 649 53 114 178 345 187 345 4 0 8 -12 8 -27z m-453
-885 c-3 -8 -6 -5 -6 6 -1 11 2 17 5 13 3 -3 4 -12 1 -19z m-18 -82 c-7 -31
-14 -54 -16 -52 -3 2 1 30 7 61 6 31 14 55 16 52 2 -2 -1 -29 -7 -61z m450 -5
c-6 -18 -13 -30 -15 -28 -2 2 1 18 7 36 6 18 13 30 15 28 2 -2 -1 -18 -7 -36z
m-38 -88 c-11 -21 -20 -35 -21 -31 0 12 33 78 38 74 2 -2 -6 -21 -17 -43z
m-66 -130 c-14 -27 -42 -66 -61 -88 -20 -22 -29 -29 -20 -15 38 59 101 150
104 150 2 0 -8 -21 -23 -47z"/>
<path d="M4548 2208 c-23 -17 -61 -106 -92 -211 -20 -70 -36 -100 -94 -178
-173 -232 -413 -432 -583 -485 -81 -25 -89 -19 -89 66 0 66 1 70 23 70 72 1
195 105 286 240 32 48 67 112 77 141 41 124 3 229 -103 283 -106 53 -223 -35
-347 -265 -74 -138 -108 -239 -113 -345 -5 -84 -3 -96 21 -150 64 -141 211
-231 333 -204 114 26 280 149 425 316 l83 95 6 -73 c6 -84 25 -126 71 -162 43
-32 131 -60 164 -52 40 10 63 42 154 215 86 164 186 322 206 328 7 3 14 -18
19 -52 9 -74 27 -117 73 -167 66 -74 148 -96 211 -57 42 25 177 160 219 218
35 48 41 88 16 98 -24 9 -51 -8 -148 -92 -77 -66 -185 -145 -199 -145 -9 0
-19 35 -37 130 -23 118 -33 144 -66 175 -20 19 -38 25 -71 25 -39 0 -50 -6
-95 -47 -28 -27 -101 -116 -164 -199 -62 -84 -118 -155 -125 -160 -15 -9 -8
73 27 333 30 228 30 255 2 287 -28 31 -67 41 -90 24z m-666 -222 c-22 -24 -52
-62 -67 -85 -25 -37 -47 -59 -29 -28 45 76 110 157 127 157 5 0 -9 -20 -31
-44z m40 -88 c-37 -79 -138 -226 -177 -258 -17 -14 -17 -13 -10 10 26 86 121
250 186 324 49 56 49 26 1 -76z m28 -202 c0 -2 -8 -10 -17 -17 -16 -13 -17
-12 -4 4 13 16 21 21 21 13z m-40 -49 c0 -2 -10 -12 -22 -23 l-23 -19 19 23
c18 21 26 27 26 19z m464 -9 c-13 -23 -142 -173 -165 -193 -24 -20 -8 0 106
134 59 69 74 84 59 59z m339 -158 c-15 -28 -36 -60 -47 -73 l-18 -22 14 25 c8
14 27 46 42 73 15 26 30 47 33 47 2 0 -8 -23 -24 -50z m-533 -53 c0 -2 -19
-21 -42 -42 l-43 -40 40 43 c36 39 45 47 45 39z m-100 -91 c0 -2 -8 -10 -17
-17 -16 -13 -17 -12 -4 4 13 16 21 21 21 13z"/>
<path d="M16661 2195 c-16 -22 -54 -110 -75 -178 -4 -12 -12 -17 -23 -13 -16
4 -118 14 -326 31 -73 6 -78 9 -92 36 -21 40 -70 64 -102 50 -93 -43 -225
-233 -268 -388 -45 -160 15 -323 140 -383 92 -44 184 -18 284 81 65 65 81 100
81 176 0 68 -20 115 -79 193 l-42 55 38 7 c21 3 110 9 197 14 145 6 159 5 153
-9 -20 -53 -41 -207 -41 -313 -1 -114 0 -123 25 -160 31 -47 108 -91 173 -100
43 -6 48 -5 79 28 17 20 72 112 121 204 87 166 163 291 190 313 11 9 15 3 20
-36 13 -91 37 -145 86 -194 54 -54 109 -75 166 -65 29 6 58 28 139 109 111
110 145 157 145 200 0 49 -39 35 -137 -49 -74 -64 -159 -128 -210 -158 -18
-10 -32 25 -49 121 -26 149 -61 203 -131 203 -72 0 -102 -29 -279 -265 -64
-86 -118 -154 -120 -152 -5 5 18 220 45 430 21 161 19 181 -25 216 -35 28 -58
27 -83 -4z m-568 -406 c36 -32 57 -58 57 -72 0 -27 -27 -72 -66 -111 -60 -59
-174 -108 -174 -75 0 50 100 309 119 309 4 0 33 -23 64 -51z m767 -269 c-6
-11 -13 -20 -16 -20 -2 0 0 9 6 20 6 11 13 20 16 20 2 0 0 -9 -6 -20z m-668
-34 c-27 -35 -72 -71 -112 -90 -34 -16 -34 -16 -10 1 13 10 49 39 80 65 64 54
68 57 42 24z m628 -33 c-11 -21 -30 -49 -42 -63 l-20 -25 17 29 c10 16 26 44
37 63 27 46 34 42 8 -4z"/>
</g>
</svg>
