<!-- Generated by IcoMoon.io -->
<svg version="1.1" xmlns="http://www.w3.org/2000/svg" width="27" height="27" viewBox="0 0 32 32">
<path fill="none" stroke-linejoin="round" stroke-linecap="round" stroke-miterlimit="4" stroke-width="2" stroke="#600000" d="M30.333 2.667c-7.364 0-13.333 5.97-13.333 13.333s5.97 13.333 13.333 13.333"></path>
<path fill="none" stroke-linejoin="round" stroke-linecap="round" stroke-miterlimit="4" stroke-width="2" stroke="#600000" d="M30.333 8c-4.418 0-8 3.582-8 8s3.582 8 8 8"></path>
<path fill="none" stroke-linejoin="round" stroke-linecap="round" stroke-miterlimit="4" stroke-width="2" stroke="#600000" d="M13.297 4.239c0.307 1.812 0.736 4.978 0.702 8.358-0.018 1.745-1.183 3.308-3.015 3.719-0.378 0.085-0.782 0.161-1.203 0.221l1.19 9.289c0.209 1.634-0.797 3.253-2.43 3.466-0.202 0.026-0.386 0.042-0.539 0.042s-0.337-0.016-0.539-0.042c-1.634-0.213-2.639-1.832-2.43-3.466l1.19-9.289c-0.421-0.060-0.825-0.136-1.203-0.221-1.832-0.411-2.998-1.974-3.015-3.719-0.034-3.38 0.394-6.545 0.7-8.358 0.156-0.924 0.964-1.573 1.9-1.573h6.794c0.936 0 1.744 0.649 1.9 1.572z"></path>
<path fill="none" stroke-linejoin="round" stroke-linecap="round" stroke-miterlimit="4" stroke-width="2" stroke="#600000" d="M6.333 2.667l-0.333 7.333"></path>
<path fill="none" stroke-linejoin="round" stroke-linecap="round" stroke-miterlimit="4" stroke-width="2" stroke="#600000" d="M9.667 2.667l0.333 7.333"></path>
</svg>
