<!-- Generated by IcoMoon.io -->
<svg version="1.1" xmlns="http://www.w3.org/2000/svg" width="32" height="32" viewBox="0 0 32 32">
<path d="M15.131 0.094c-1.113 0.244-2.175 1.075-2.681 2.1-0.594 1.206-0.594 2.406 0 3.613 0.512 1.037 1.569 1.856 2.713 2.1 2.819 0.6 5.344-1.925 4.744-4.744-0.45-2.138-2.625-3.531-4.775-3.069zM16.825 2.2c0.438 0.2 0.775 0.538 0.981 0.981 0.337 0.719 0.169 1.65-0.4 2.225-0.762 0.756-2.050 0.756-2.813 0-0.488-0.487-0.694-1.275-0.512-1.913 0.356-1.212 1.619-1.806 2.744-1.294z"></path>
<path d="M12.331 10.088c-0.581 0.188-1.125 0.694-1.294 1.213-0.125 0.387-1.056 7.606-1.012 7.875 0.019 0.119 0.1 0.306 0.188 0.419 0.25 0.325 0.494 0.406 1.244 0.406h0.65l0.037 0.231c0.019 0.131 0.213 1.587 0.419 3.238 0.431 3.363 0.463 3.494 0.981 3.975 0.55 0.506 0.65 0.525 2.456 0.525h1.594l0.356-0.175c0.438-0.212 0.881-0.694 1.012-1.094 0.069-0.206 0.913-6.375 0.913-6.675 0-0.012 0.3-0.025 0.663-0.025 0.488 0 0.719-0.025 0.881-0.1 0.256-0.125 0.506-0.431 0.556-0.694 0.019-0.106-0.181-1.875-0.444-3.931-0.419-3.244-0.5-3.794-0.637-4.1-0.188-0.419-0.575-0.813-1.006-1.006-0.288-0.137-0.35-0.137-3.794-0.15-2.756-0.012-3.556 0.006-3.762 0.069zM19.094 12.075c0.012 0.044 0.181 1.319 0.369 2.831 0.194 1.512 0.363 2.825 0.381 2.919l0.031 0.175h-0.538c-0.631 0-0.881 0.087-1.119 0.4-0.194 0.25-0.169 0.119-0.85 5.456l-0.275 2.144h-1.081c-0.806 0-1.088-0.019-1.106-0.075-0.012-0.044-0.213-1.544-0.438-3.331-0.525-4.131-0.494-3.938-0.694-4.2-0.231-0.306-0.488-0.394-1.119-0.394-0.481 0-0.537-0.012-0.512-0.113 0.019-0.056 0.194-1.406 0.394-3l0.369-2.887h3.081c2.406 0 3.087 0.019 3.106 0.075z"></path>
<path d="M8.037 23.194c-2.481 0.894-3.9 2.163-4.019 3.594-0.181 2.206 2.475 4 7.106 4.8 1.719 0.3 2.688 0.375 4.875 0.375s3.156-0.075 4.875-0.375c4.631-0.8 7.288-2.594 7.106-4.8-0.1-1.144-1.038-2.212-2.675-3.019-0.837-0.419-1.988-0.831-2.313-0.831-0.656 0-1.125 0.631-0.931 1.269 0.113 0.381 0.337 0.556 1 0.781 0.844 0.294 2.038 0.894 2.413 1.225 0.656 0.581 0.663 0.969 0.025 1.556-1.019 0.944-3.462 1.719-6.594 2.081-1.319 0.156-4.494 0.156-5.813 0-3.131-0.363-5.575-1.137-6.594-2.081-0.638-0.587-0.631-0.975 0.025-1.556 0.369-0.325 1.688-0.994 2.456-1.244 0.594-0.188 0.85-0.394 0.956-0.762 0.1-0.325 0.037-0.65-0.169-0.894-0.375-0.45-0.756-0.475-1.731-0.119z"></path>
</svg>
