<!-- Generated by IcoMoon.io -->
<svg version="1.1" xmlns="http://www.w3.org/2000/svg" width="173" height="32" viewBox="0 0 173 32">
<title>yardBakuLogo</title>
<linearGradient id="gradient1" x1="0%" y1="0%" x2="0%" y2="100%">
   <stop offset="0%" style="stop-color: #7b7a7a; stop-opacity: 1" />
   <stop offset="100%" style="stop-color: #7b7a7a; stop-opacity: .8" />
<!-- <stop offset="0%" style="stop-color: #ab080875; stop-opacity: .3" />
   <stop offset="100%" style="stop-color: #ab080875; stop-opacity: .9" /> -->
   
</linearGradient>

<!-- <path fill="url(#gradient1)" d="M126.813 24.155v-3.613c0-0.619 0.619-0.723 1.135-0.723 0.052-3.458-0.052-8.723 0.052-12.8 0.052-2.271 1.961-3.819 4.439-3.819h2.994v-1.394c0.103 0 3.665 0.052 3.716 0.052v17.91c0.206 0 1.084-0.103 1.084 0.826v3.561h-2.219v-1.394h-8.981v1.394h-2.219z"></path>
<path fill="black" d="M131.561 8.206v11.51c2.581 0 3.871 0 3.871 0v-13.781c-0.619 0-1.135 0-1.548 0-1.652 0.052-2.323 0.877-2.323 2.219z"></path>
<path fill="url(#gradient1)" d="M153.239 17.858c0.103-2.116-0.619-4.645-2.065-4.852 1.548-0.361 1.703-2.942 1.703-4.852-0.052-2.323-1.342-4.955-4.852-4.955h-3.045v-1.394c-0.103 0-3.51 0-3.613 0v21.006h7.277c3.458-0.258 4.439-2.684 4.594-4.903z"></path>
<path fill="black" d="M144.981 11.819c0.826 0 1.394 0 2.632 0s2.219-0.413 2.219-3.148c0-2.735-1.135-2.942-2.323-2.942l-2.477-0.052v6.142z"></path>
<path fill="url(#gradient1)" d="M164.335 3.768v-2.374c-0.103 0-4.026-0.052-4.077-0.052l-0.103 25.239v4.181h3.355l0.103-8.929c6.503 0.31 8.361-2.942 8.258-9.084-0.103-5.729-0.981-9.032-7.587-9.032z"></path>
<path fill="black" d="M163.871 18.529c1.445 0 4.439 1.084 4.49-5.781 0.052-6.761-3.148-5.574-4.49-5.626v11.406z"></path>
<path fill="url(#gradient1)" d="M30.4 22.606c-1.652 0-2.219-0.258-3.148-1.084-1.497 0.723-2.994 1.135-4.387 1.084-1.135-0.052-2.168-0.258-3.045-0.723-0.258-0.155-0.516-0.31-0.774-0.465-0.568-0.465-0.981-1.084-1.29-1.806-0.258-0.568-0.413-1.445-0.516-2.374-0.155-1.394 0-2.994 0.155-3.871 0.155-0.723 0.465-1.445 0.877-1.961 0.413-0.619 1.084-1.032 1.806-1.394 0.774-0.361 1.703-0.568 2.787-0.723 0.826-0.103 1.806-0.155 2.839-0.155 0-2.116-1.135-2.994-2.323-2.994-1.239 0-2.529 0.929-2.529 2.271 0 0-3.51 0-3.51 0 0.465-2.89 2.942-5.11 5.677-5.11 4.748-0.052 6.245 2.89 6.297 6.71l-0.052 7.174c0 1.084 0.465 1.652 1.239 1.91 0 1.342 0 2.529 0 3.665z"></path>
<path fill="url(#gradient1)" d="M62.245 3.2h-3.716l-0.052 8.981h-2.942l-0.052-8.981h-3.665v19.406h3.716v-7.432h2.942l0.052 7.432h3.716z"></path>
<path fill="url(#gradient1)" d="M43.355 3.252c-3.819 0-4.955 1.394-4.955 3.716 0 0.929 0 2.065 0 2.994 0 0.981-0.826 1.497-1.961 1.497h-0.568v-8.206h-3.716v19.406h3.716v-8.206h0.877l3.768 8.206h3.716l-4.181-9.032c2.116 0 1.806-4.232 1.806-5.161 0-1.032 0.413-1.755 1.497-1.755v-3.458z"></path>
<path fill="url(#gradient1)" d="M49.548 22.194v-18.994h-3.716v19.406h3.716z"></path>
<path fill="black" d="M24 19.303c-1.187 0-3.406-0.619-3.406-3.613 0-2.942 2.065-3.561 3.406-3.561h1.961v6.452c0 0.155-0.774 0.671-1.961 0.671z"></path>
<path fill="url(#gradient1)" d="M102.761 3.252c-3.819 0-4.955 1.394-4.955 3.716 0 0.929 0 2.065 0 2.994 0 0.981-0.826 1.497-1.961 1.497h-0.568v-8.206h-3.716v19.406h3.716v-8.206h0.877l3.768 8.206h3.768l-4.181-9.032c2.116 0 1.806-4.232 1.806-5.161 0-1.032 0.413-1.755 1.497-1.755v-3.458z"></path>
<path fill="url(#gradient1)" d="M108.955 22.194v-18.994h-3.716v19.406h3.716z"></path>
<path fill="url(#gradient1)" d="M121.961 3.2h-3.716l-0.052 6.916-2.942 1.755-0.052-8.671h-3.665v19.406h3.716v-7.432l2.942-1.806 0.052 9.239h3.716z"></path>
<path fill="url(#gradient1)" d="M116.49 2.065c0.568 0 0.258 0 1.032 0 1.394 0 2.426-0.723 2.426-1.961h-1.548c0 0.723-0.361 1.135-1.394 1.135-1.084 0-1.342-0.568-1.342-1.135-0.465 0-0.929 0-1.6 0 0 1.239 0.981 1.961 2.426 1.961z"></path>
<path fill="black" d="M6.4 19.716c1.239 0 1.445 0 3.303 0 1.91 0 2.994-1.29 2.994-3.458s-1.342-3.252-3.2-3.303l-3.097-0.052v6.761z"></path>
<path fill="url(#gradient1)" d="M2.684 6.142c-0.774 0-1.652 0-1.652 0s0-2.89 0-2.942c0.361 0 5.316 0.103 9.497 0 1.445-0.052 2.013-0.206 2.219-1.445 2.426 0 3.665 0.052 3.665 0.052-0.413 3.458-2.477 4.232-5.161 4.335h-4.542l-0.052 3.097c1.806 0 4.697-0.206 6.194 0.826 1.703 1.187 2.426 2.684 2.477 5.677 0.052 1.652-0.206 3.148-0.774 4.284-1.445 3.045-5.058 2.477-8.103 2.529-1.961 0.052-3.665-0.103-3.819-0.103 0-0.413-0.052-14.71-0.052-16.361z"></path>
<path fill="black" d="M6.71 19.045c1.032 0 1.239 0 2.839 0s2.581-1.239 2.581-3.303c0-2.065-1.187-3.148-2.735-3.148l-2.684-0.052v6.503z"></path>
<path fill="url(#gradient1)" d="M72.413 8.413h3.406c-0.258-2.735-2.013-4.748-4.594-5.11-5.626-0.774-7.381 4.903-7.329 9.703 0.052 4.697 1.652 10.271 7.226 9.548 2.477-0.31 4.594-2.477 4.697-5.161h-3.406c-0.052 1.135-0.929 2.065-2.013 2.219-4.284 0.568-4.077-10.581-1.652-12.903 1.394-1.394 3.613-0.206 3.665 1.652z"></path>
<path fill="url(#gradient1)" d="M77.677 22.4l-0.103-16.413v-2.994h3.665v6.452c6.142 0 8.258 1.652 8.31 6.348 0.052 6.865-4.542 6.658-11.871 6.606z"></path>
<path fill="black" d="M81.084 19.045c2.787 0 5.419 0.465 5.419-3.303 0-3.51-2.89-3.148-5.419-3.2v6.503z"></path>
<path fill="black" d="M144.981 20.181c0.826 0 1.394 0 2.632 0s2.219-0.413 2.219-3.148c0-2.735-1.135-2.942-2.323-2.942l-2.477-0.052v6.142z"></path>
<path fill="url(#gradient1)" d="M158.503 22.194l0.052-18.994h-3.768v19.406h3.716z"></path> -->

<!-- 
<path stroke="#5a0101c9" strokeWidth="1" fill="#3e0101c9" d="M126.813 24.155v-3.613c0-0.619 0.619-0.723 1.135-0.723 0.052-3.458-0.052-8.723 0.052-12.8 0.052-2.271 1.961-3.819 4.439-3.819h2.994v-1.394c0.103 0 3.665 0.052 3.716 0.052v17.91c0.206 0 1.084-0.103 1.084 0.826v3.561h-2.219v-1.394h-8.981v1.394h-2.219z"></path>
<path stroke="#5a0101c9" strokeWidth="1" fill="black" d="M131.561 8.206v11.51c2.581 0 3.871 0 3.871 0v-13.781c-0.619 0-1.135 0-1.548 0-1.652 0.052-2.323 0.877-2.323 2.219z"></path>
<path stroke="#5a0101c9" strokeWidth="1" fill="#3e0101c9" d="M153.239 17.858c0.103-2.116-0.619-4.645-2.065-4.852 1.548-0.361 1.703-2.942 1.703-4.852-0.052-2.323-1.342-4.955-4.852-4.955h-3.045v-1.394c-0.103 0-3.51 0-3.613 0v21.006h7.277c3.458-0.258 4.439-2.684 4.594-4.903z"></path>
<path stroke="#5a0101c9" strokeWidth="1" fill="black" d="M144.981 11.819c0.826 0 1.394 0 2.632 0s2.219-0.413 2.219-3.148c0-2.735-1.135-2.942-2.323-2.942l-2.477-0.052v6.142z"></path>
<path stroke="#5a0101c9" strokeWidth="1" fill="#3e0101c9" d="M164.335 3.768v-2.374c-0.103 0-4.026-0.052-4.077-0.052l-0.103 25.239v4.181h3.355l0.103-8.929c6.503 0.31 8.361-2.942 8.258-9.084-0.103-5.729-0.981-9.032-7.587-9.032z"></path>
<path stroke="#5a0101c9" strokeWidth="1" fill="black" d="M163.871 18.529c1.445 0 4.439 1.084 4.49-5.781 0.052-6.761-3.148-5.574-4.49-5.626v11.406z"></path>
<path stroke="#5a0101c9" strokeWidth="1" fill="#3e0101c9" d="M30.4 22.606c-1.652 0-2.219-0.258-3.148-1.084-1.497 0.723-2.994 1.135-4.387 1.084-1.135-0.052-2.168-0.258-3.045-0.723-0.258-0.155-0.516-0.31-0.774-0.465-0.568-0.465-0.981-1.084-1.29-1.806-0.258-0.568-0.413-1.445-0.516-2.374-0.155-1.394 0-2.994 0.155-3.871 0.155-0.723 0.465-1.445 0.877-1.961 0.413-0.619 1.084-1.032 1.806-1.394 0.774-0.361 1.703-0.568 2.787-0.723 0.826-0.103 1.806-0.155 2.839-0.155 0-2.116-1.135-2.994-2.323-2.994-1.239 0-2.529 0.929-2.529 2.271 0 0-3.51 0-3.51 0 0.465-2.89 2.942-5.11 5.677-5.11 4.748-0.052 6.245 2.89 6.297 6.71l-0.052 7.174c0 1.084 0.465 1.652 1.239 1.91 0 1.342 0 2.529 0 3.665z"></path>
<path stroke="#5a0101c9" strokeWidth="1" fill="#3e0101c9" d="M62.245 3.2h-3.716l-0.052 8.981h-2.942l-0.052-8.981h-3.665v19.406h3.716v-7.432h2.942l0.052 7.432h3.716z"></path>
<path stroke="#5a0101c9" strokeWidth="1" fill="#3e0101c9" d="M43.355 3.252c-3.819 0-4.955 1.394-4.955 3.716 0 0.929 0 2.065 0 2.994 0 0.981-0.826 1.497-1.961 1.497h-0.568v-8.206h-3.716v19.406h3.716v-8.206h0.877l3.768 8.206h3.716l-4.181-9.032c2.116 0 1.806-4.232 1.806-5.161 0-1.032 0.413-1.755 1.497-1.755v-3.458z"></path>
<path stroke="#5a0101c9" strokeWidth="1" fill="#3e0101c9" d="M49.548 22.194v-18.994h-3.716v19.406h3.716z"></path>
<path stroke="#5a0101c9" strokeWidth="1" fill="black" d="M24 19.303c-1.187 0-3.406-0.619-3.406-3.613 0-2.942 2.065-3.561 3.406-3.561h1.961v6.452c0 0.155-0.774 0.671-1.961 0.671z"></path>
<path stroke="#5a0101c9" strokeWidth="1" fill="#3e0101c9" d="M102.761 3.252c-3.819 0-4.955 1.394-4.955 3.716 0 0.929 0 2.065 0 2.994 0 0.981-0.826 1.497-1.961 1.497h-0.568v-8.206h-3.716v19.406h3.716v-8.206h0.877l3.768 8.206h3.768l-4.181-9.032c2.116 0 1.806-4.232 1.806-5.161 0-1.032 0.413-1.755 1.497-1.755v-3.458z"></path>
<path stroke="#5a0101c9" strokeWidth="1" fill="#3e0101c9" d="M108.955 22.194v-18.994h-3.716v19.406h3.716z"></path>
<path stroke="#5a0101c9" strokeWidth="1" fill="#3e0101c9" d="M121.961 3.2h-3.716l-0.052 6.916-2.942 1.755-0.052-8.671h-3.665v19.406h3.716v-7.432l2.942-1.806 0.052 9.239h3.716z"></path>
<path stroke="#5a0101c9" strokeWidth="1" fill="#3e0101c9" d="M116.49 2.065c0.568 0 0.258 0 1.032 0 1.394 0 2.426-0.723 2.426-1.961h-1.548c0 0.723-0.361 1.135-1.394 1.135-1.084 0-1.342-0.568-1.342-1.135-0.465 0-0.929 0-1.6 0 0 1.239 0.981 1.961 2.426 1.961z"></path>
<path stroke="#5a0101c9" strokeWidth="1" fill="black" d="M6.4 19.716c1.239 0 1.445 0 3.303 0 1.91 0 2.994-1.29 2.994-3.458s-1.342-3.252-3.2-3.303l-3.097-0.052v6.761z"></path>
<path stroke="#5a0101c9" strokeWidth="1" fill="#3e0101c9" d="M2.684 6.142c-0.774 0-1.652 0-1.652 0s0-2.89 0-2.942c0.361 0 5.316 0.103 9.497 0 1.445-0.052 2.013-0.206 2.219-1.445 2.426 0 3.665 0.052 3.665 0.052-0.413 3.458-2.477 4.232-5.161 4.335h-4.542l-0.052 3.097c1.806 0 4.697-0.206 6.194 0.826 1.703 1.187 2.426 2.684 2.477 5.677 0.052 1.652-0.206 3.148-0.774 4.284-1.445 3.045-5.058 2.477-8.103 2.529-1.961 0.052-3.665-0.103-3.819-0.103 0-0.413-0.052-14.71-0.052-16.361z"></path>
<path stroke="#5a0101c9" strokeWidth="1" fill="black" d="M6.71 19.045c1.032 0 1.239 0 2.839 0s2.581-1.239 2.581-3.303c0-2.065-1.187-3.148-2.735-3.148l-2.684-0.052v6.503z"></path>
<path stroke="#5a0101c9" strokeWidth="1" fill="#3e0101c9" d="M72.413 8.413h3.406c-0.258-2.735-2.013-4.748-4.594-5.11-5.626-0.774-7.381 4.903-7.329 9.703 0.052 4.697 1.652 10.271 7.226 9.548 2.477-0.31 4.594-2.477 4.697-5.161h-3.406c-0.052 1.135-0.929 2.065-2.013 2.219-4.284 0.568-4.077-10.581-1.652-12.903 1.394-1.394 3.613-0.206 3.665 1.652z"></path>
<path stroke="#5a0101c9" strokeWidth="1" fill="#3e0101c9" d="M77.677 22.4l-0.103-16.413v-2.994h3.665v6.452c6.142 0 8.258 1.652 8.31 6.348 0.052 6.865-4.542 6.658-11.871 6.606z"></path>
<path stroke="#5a0101c9" strokeWidth="1" fill="black" d="M81.084 19.045c2.787 0 5.419 0.465 5.419-3.303 0-3.51-2.89-3.148-5.419-3.2v6.503z"></path>
<path stroke="#5a0101c9" strokeWidth="1" fill="black" d="M144.981 20.181c0.826 0 1.394 0 2.632 0s2.219-0.413 2.219-3.148c0-2.735-1.135-2.942-2.323-2.942l-2.477-0.052v6.142z"></path>
<path stroke="#5a0101c9" strokeWidth="1" fill="#3e0101c9" d="M158.503 22.194l0.052-18.994h-3.768v19.406h3.716z"></path>  -->

<path stroke="#f1eaea22" strokeWidth="1" fill="url(#gradient1)" d="M126.813 24.155v-3.613c0-0.619 0.619-0.723 1.135-0.723 0.052-3.458-0.052-8.723 0.052-12.8 0.052-2.271 1.961-3.819 4.439-3.819h2.994v-1.394c0.103 0 3.665 0.052 3.716 0.052v17.91c0.206 0 1.084-0.103 1.084 0.826v3.561h-2.219v-1.394h-8.981v1.394h-2.219z"></path>
<path stroke="#f1eaea22" strokeWidth="1" fill="black" d="M131.561 8.206v11.51c2.581 0 3.871 0 3.871 0v-13.781c-0.619 0-1.135 0-1.548 0-1.652 0.052-2.323 0.877-2.323 2.219z"></path>
<path stroke="#f1eaea22" strokeWidth="1" fill="url(#gradient1)" d="M153.239 17.858c0.103-2.116-0.619-4.645-2.065-4.852 1.548-0.361 1.703-2.942 1.703-4.852-0.052-2.323-1.342-4.955-4.852-4.955h-3.045v-1.394c-0.103 0-3.51 0-3.613 0v21.006h7.277c3.458-0.258 4.439-2.684 4.594-4.903z"></path>
<path stroke="#f1eaea22" strokeWidth="1" fill="black" d="M144.981 11.819c0.826 0 1.394 0 2.632 0s2.219-0.413 2.219-3.148c0-2.735-1.135-2.942-2.323-2.942l-2.477-0.052v6.142z"></path>
<path stroke="#f1eaea22" strokeWidth="1" fill="url(#gradient1)" d="M164.335 3.768v-2.374c-0.103 0-4.026-0.052-4.077-0.052l-0.103 25.239v4.181h3.355l0.103-8.929c6.503 0.31 8.361-2.942 8.258-9.084-0.103-5.729-0.981-9.032-7.587-9.032z"></path>
<path stroke="#f1eaea22" strokeWidth="1" fill="black" d="M163.871 18.529c1.445 0 4.439 1.084 4.49-5.781 0.052-6.761-3.148-5.574-4.49-5.626v11.406z"></path>
<path stroke="#f1eaea22" strokeWidth="1" fill="url(#gradient1)" d="M30.4 22.606c-1.652 0-2.219-0.258-3.148-1.084-1.497 0.723-2.994 1.135-4.387 1.084-1.135-0.052-2.168-0.258-3.045-0.723-0.258-0.155-0.516-0.31-0.774-0.465-0.568-0.465-0.981-1.084-1.29-1.806-0.258-0.568-0.413-1.445-0.516-2.374-0.155-1.394 0-2.994 0.155-3.871 0.155-0.723 0.465-1.445 0.877-1.961 0.413-0.619 1.084-1.032 1.806-1.394 0.774-0.361 1.703-0.568 2.787-0.723 0.826-0.103 1.806-0.155 2.839-0.155 0-2.116-1.135-2.994-2.323-2.994-1.239 0-2.529 0.929-2.529 2.271 0 0-3.51 0-3.51 0 0.465-2.89 2.942-5.11 5.677-5.11 4.748-0.052 6.245 2.89 6.297 6.71l-0.052 7.174c0 1.084 0.465 1.652 1.239 1.91 0 1.342 0 2.529 0 3.665z"></path>
<path stroke="#f1eaea22" strokeWidth="1" fill="url(#gradient1)" d="M62.245 3.2h-3.716l-0.052 8.981h-2.942l-0.052-8.981h-3.665v19.406h3.716v-7.432h2.942l0.052 7.432h3.716z"></path>
<path stroke="#f1eaea22" strokeWidth="1" fill="url(#gradient1)" d="M43.355 3.252c-3.819 0-4.955 1.394-4.955 3.716 0 0.929 0 2.065 0 2.994 0 0.981-0.826 1.497-1.961 1.497h-0.568v-8.206h-3.716v19.406h3.716v-8.206h0.877l3.768 8.206h3.716l-4.181-9.032c2.116 0 1.806-4.232 1.806-5.161 0-1.032 0.413-1.755 1.497-1.755v-3.458z"></path>
<path stroke="#f1eaea22" strokeWidth="1" fill="url(#gradient1)" d="M49.548 22.194v-18.994h-3.716v19.406h3.716z"></path>
<path stroke="#f1eaea22" strokeWidth="1" fill="black" d="M24 19.303c-1.187 0-3.406-0.619-3.406-3.613 0-2.942 2.065-3.561 3.406-3.561h1.961v6.452c0 0.155-0.774 0.671-1.961 0.671z"></path>
<path stroke="#f1eaea22" strokeWidth="1" fill="url(#gradient1)" d="M102.761 3.252c-3.819 0-4.955 1.394-4.955 3.716 0 0.929 0 2.065 0 2.994 0 0.981-0.826 1.497-1.961 1.497h-0.568v-8.206h-3.716v19.406h3.716v-8.206h0.877l3.768 8.206h3.768l-4.181-9.032c2.116 0 1.806-4.232 1.806-5.161 0-1.032 0.413-1.755 1.497-1.755v-3.458z"></path>
<path stroke="#f1eaea22" strokeWidth="1" fill="url(#gradient1)" d="M108.955 22.194v-18.994h-3.716v19.406h3.716z"></path>
<path stroke="#f1eaea22" strokeWidth="1" fill="url(#gradient1)" d="M121.961 3.2h-3.716l-0.052 6.916-2.942 1.755-0.052-8.671h-3.665v19.406h3.716v-7.432l2.942-1.806 0.052 9.239h3.716z"></path>
<path stroke="#f1eaea22" strokeWidth="1" fill="url(#gradient1)" d="M116.49 2.065c0.568 0 0.258 0 1.032 0 1.394 0 2.426-0.723 2.426-1.961h-1.548c0 0.723-0.361 1.135-1.394 1.135-1.084 0-1.342-0.568-1.342-1.135-0.465 0-0.929 0-1.6 0 0 1.239 0.981 1.961 2.426 1.961z"></path>
<path stroke="#f1eaea22" strokeWidth="1" fill="black" d="M6.4 19.716c1.239 0 1.445 0 3.303 0 1.91 0 2.994-1.29 2.994-3.458s-1.342-3.252-3.2-3.303l-3.097-0.052v6.761z"></path>
<path stroke="#f1eaea22" strokeWidth="1" fill="url(#gradient1)" d="M2.684 6.142c-0.774 0-1.652 0-1.652 0s0-2.89 0-2.942c0.361 0 5.316 0.103 9.497 0 1.445-0.052 2.013-0.206 2.219-1.445 2.426 0 3.665 0.052 3.665 0.052-0.413 3.458-2.477 4.232-5.161 4.335h-4.542l-0.052 3.097c1.806 0 4.697-0.206 6.194 0.826 1.703 1.187 2.426 2.684 2.477 5.677 0.052 1.652-0.206 3.148-0.774 4.284-1.445 3.045-5.058 2.477-8.103 2.529-1.961 0.052-3.665-0.103-3.819-0.103 0-0.413-0.052-14.71-0.052-16.361z"></path>
<path stroke="#f1eaea22" strokeWidth="1" fill="black" d="M6.71 19.045c1.032 0 1.239 0 2.839 0s2.581-1.239 2.581-3.303c0-2.065-1.187-3.148-2.735-3.148l-2.684-0.052v6.503z"></path>
<path stroke="#f1eaea22" strokeWidth="1" fill="url(#gradient1)" d="M72.413 8.413h3.406c-0.258-2.735-2.013-4.748-4.594-5.11-5.626-0.774-7.381 4.903-7.329 9.703 0.052 4.697 1.652 10.271 7.226 9.548 2.477-0.31 4.594-2.477 4.697-5.161h-3.406c-0.052 1.135-0.929 2.065-2.013 2.219-4.284 0.568-4.077-10.581-1.652-12.903 1.394-1.394 3.613-0.206 3.665 1.652z"></path>
<path stroke="#f1eaea22" strokeWidth="1" fill="url(#gradient1)" d="M77.677 22.4l-0.103-16.413v-2.994h3.665v6.452c6.142 0 8.258 1.652 8.31 6.348 0.052 6.865-4.542 6.658-11.871 6.606z"></path>
<path stroke="#f1eaea22" strokeWidth="1" fill="black" d="M81.084 19.045c2.787 0 5.419 0.465 5.419-3.303 0-3.51-2.89-3.148-5.419-3.2v6.503z"></path>
<path stroke="#f1eaea22" strokeWidth="1" fill="black" d="M144.981 20.181c0.826 0 1.394 0 2.632 0s2.219-0.413 2.219-3.148c0-2.735-1.135-2.942-2.323-2.942l-2.477-0.052v6.142z"></path>
<path stroke="#f1eaea22" strokeWidth="1" fill="url(#gradient1)" d="M158.503 22.194l0.052-18.994h-3.768v19.406h3.716z"></path> 

</svg> 
